<svg width="215" height="61" viewBox="0 0 215 61" fill="none" xmlns="http://www.w3.org/2000/svg">
<g filter="url(#filter0_n_2999_113)">
<path d="M0.0917969 27.1429C0.0917969 12.7046 11.7964 1 26.2347 1H188.32C202.759 1 214.463 12.7046 214.463 27.1429V60.2571H0.0917969V27.1429Z" fill="#171C1B"/>
<path d="M31.2336 0.0101698C34.1745 -0.015883 38.0296 0.0119737 40.9594 0.0502087C41.8777 0.0620673 41.4127 0.115075 42.0466 0.125648C43.2862 0.146258 44.4412 0.120261 45.6662 0.144813C46.0722 0.153209 45.5668 0.237174 45.9926 0.244056C48.3254 0.281163 50.5323 0.259777 52.8956 0.277625C64.5359 0.365685 75.9781 0.397205 87.7609 0.435461C91.646 0.448004 96.3688 0.524206 100.382 0.490881C100.85 0.486916 100.571 0.413216 100.66 0.407141C102.058 0.31415 101.593 0.462935 102.506 0.482702C106.128 0.560754 110.157 0.567542 113.643 0.539099C115.126 0.526782 113.639 0.380395 115.133 0.462561C115.236 0.468112 114.86 0.546377 115.267 0.554724C116.189 0.573498 117.939 0.559509 118.654 0.56571C120.032 0.578057 120.26 0.577269 121.563 0.578161C123.345 0.580061 125.464 0.618966 127.375 0.601232C127.783 0.597215 127.243 0.516985 127.894 0.503332C128.545 0.489702 130.268 0.496505 130.849 0.515417C131.43 0.534339 131.182 0.597399 131.285 0.611852C132.131 0.733849 134.124 0.564884 134.38 0.560705C139.056 0.489506 143.065 0.58576 147.453 0.585485C150.785 0.585073 154.348 0.553296 157.518 0.557653C161.294 0.563155 164.495 0.606631 168.164 0.599157C168.552 0.598461 168.098 0.504129 168.571 0.503088C173.595 0.492111 178.585 0.502394 183.588 0.566076C184.09 0.572546 183.443 0.655368 183.944 0.666784C185.212 0.694886 186.783 0.739257 188.32 0.756295C190.532 0.769464 192.644 1.0715 193.75 1.0923C195.825 1.51856 198.258 2.39579 199.915 3.30312C200.979 3.89359 199.894 3.42388 201.221 4.09803C201.517 4.25615 201.177 3.97028 201.618 4.21594C203.476 5.25483 205.322 6.69378 206.852 8.13928C207.164 8.43346 207.13 8.30228 207.225 8.37923C208.034 9.02582 209.006 10.4475 209.215 10.7503C210.864 13.0373 211.911 14.8257 212.91 17.251C213.133 17.8174 212.959 17.1115 213.174 17.6584C214.282 20.4985 214.869 23.6611 214.874 26.6382C214.873 27.3029 214.785 26.6927 214.779 27.0099C214.778 27.0553 214.777 27.0996 214.776 27.1429C214.752 28.4083 214.894 28.7351 214.862 30.0112C214.855 30.2893 214.786 30.1326 214.778 30.1834C214.658 30.9772 214.828 31.6669 214.832 31.8711C214.883 34.4539 214.706 36.1048 214.731 38.5999C214.734 38.8984 214.822 38.2253 214.825 39.0644C214.85 44.6544 214.825 50.5664 214.755 56.0997C214.745 56.9599 214.679 56.3458 214.67 56.4C214.544 57.2823 214.714 57.8532 214.72 58.1337C214.735 58.8623 214.73 59.5751 214.723 60.2571L214.724 60.5162L214.463 60.5172C213.074 60.5035 211.811 60.4841 210.803 60.62C201.43 60.5497 192.101 60.6635 182.806 60.482C182.688 60.4799 182.9 60.3961 182.664 60.3922C179.825 60.3452 180.37 60.4754 178.492 60.6347C178.019 60.6747 176.579 60.4824 176.452 60.4683C175.988 60.4164 176.469 60.2917 176.314 60.2816C175.028 60.2027 175.238 60.6149 173.503 60.615C173.449 60.6143 173.677 60.5385 173.531 60.5309C173.079 60.5072 172.63 60.5374 172.188 60.5113C171.175 60.4508 170.814 60.2505 169.267 60.3671C169.071 60.3822 169.37 60.6161 167.821 60.605C167.204 60.6004 164.471 60.6044 163.705 60.5893C162.94 60.5741 163.465 60.4988 163.411 60.4955C161.349 60.3959 162.131 60.3546 161.098 60.2071C160.066 60.0601 160.352 60.4106 159.931 60.4497C159.51 60.4887 157.998 60.4065 157.627 60.378C157.256 60.3494 157.719 60.3015 157.389 60.2853C155.2 60.1796 156.428 60.4593 155.707 60.5149C154.007 60.6466 152.683 60.3867 151.126 60.3612C150.705 60.3544 151.049 60.4136 150.674 60.4191C149.189 60.4402 148.295 60.3591 146.606 60.4335C146.329 60.4456 144.963 60.6019 144.079 60.4872C143.954 60.4707 144.31 60.4059 143.677 60.3914C142.731 60.3696 141.027 60.3554 140.011 60.3771C139.261 60.3931 140.121 60.4999 139.176 60.4667C138.756 60.4519 139.534 60.3895 138.746 60.3668C137.961 60.3442 135.955 60.347 135.192 60.3491C134.43 60.3513 134.847 60.4323 134.786 60.4378C134.413 60.469 132.951 60.5081 132.822 60.508C126.304 60.5178 120.294 60.3814 113.949 60.4265C113.451 60.43 113.782 60.5153 113.706 60.5168C112.002 60.5525 113.346 60.3255 112.155 60.2495C112.327 60.4228 111.624 60.3914 110.423 60.4104C109.844 60.4197 110.159 60.4868 110.107 60.4937C109.249 60.5956 108.651 60.464 108.497 60.437C107.929 60.338 107.31 60.455 106.923 60.3888C106.537 60.3231 107.426 60.2257 106.275 60.227C105.952 60.289 106.807 60.4511 105.932 60.4773C102.633 60.5767 96.4748 60.4495 93.8221 60.4363C91.1748 60.4231 90.3197 60.4346 88.777 60.4121C85.9905 60.3716 87.0117 60.4919 85.2815 60.5469C83.5462 60.6019 84.3897 60.3061 84.1403 60.2425C83.8955 60.1789 83.6281 60.2443 83.3235 60.2094C83.0199 60.1744 83.6772 60.1312 82.9631 60.1181C82.2487 60.105 80.2954 60.2181 80.0422 60.2846C79.5068 60.4255 80.387 60.5733 78.4966 60.5214C78.3879 60.5183 78.7407 60.4405 78.3244 60.4326C75.0178 60.3727 71.5827 60.369 68.2802 60.3161C67.8261 60.3087 68.2322 60.2221 67.9679 60.2168C65.2153 60.1615 66.1992 60.3074 64.6906 60.4695C65.0293 60.2538 64.195 60.1218 62.106 60.1205C60.8501 60.1197 61.0664 60.2139 60.2541 60.2803C60.0104 60.3003 59.1218 60.2356 58.9608 60.2799C58.4298 60.4248 59.2668 60.5869 57.1129 60.5224C57.0184 60.5193 57.3193 60.44 56.9928 60.4352C54.8821 60.4038 54.6296 60.5553 52.3481 60.5736C50.5598 60.588 47.3792 60.4956 45.343 60.4806C45.3858 60.2381 43.4625 60.2936 42.6823 60.4608C41.3608 60.454 39.9334 60.4634 38.6562 60.4403C38.2166 60.4325 38.5054 60.3622 38.45 60.3546C37.6 60.2356 37.0255 60.3983 36.7403 60.4047C33.6487 60.4667 31.13 60.3434 28.1796 60.4639C28.0749 60.4682 27.9052 60.6367 27.1165 60.5137C27.0655 60.5052 28.0399 60.4286 26.652 60.4226C25.2639 60.4167 22.6471 60.3264 20.72 60.4044C20.2537 60.4232 19.0741 60.56 18.1274 60.4532C18.0012 60.4386 18.1393 60.3903 17.9572 60.3634C17.3687 60.2778 17.0473 60.448 16.3556 60.3034C15.6638 60.1587 14.2249 60.0504 12.2814 60.1502C12.2195 60.1531 11.7595 60.288 11.1483 60.2859C10.1726 60.2824 8.78756 60.2543 7.76886 60.2552C7.2811 60.2556 7.59328 60.3394 7.50861 60.341C4.79008 60.3799 2.72117 60.3352 0.0917969 60.3003L0.0487783 60.3005L0.0486131 60.2571C0.0558159 59.7144 0.062602 59.1478 0.0681502 58.5467C0.0742605 57.9026 -0.0400304 56.0518 0.0503279 54.8049C0.149242 53.4358 0.56071 54.8427 0.46268 51.6957C0.423471 50.4265 -0.0985502 48.8195 0.17191 46.5385C0.104891 42.1147 0.243312 38.0235 0.147618 33.5874C0.143378 33.3879 -0.00231399 32.7571 -0.000331074 32.2881C0.0028946 31.5918 0.0709886 31.2096 0.0754743 30.7125C0.0876094 29.48 0.0721721 28.3094 0.0594171 27.1429C0.0507579 26.3328 0.079267 25.53 0.158083 24.7124C0.238399 23.9541 0.274488 24.2231 0.401398 23.3261C0.542502 22.4298 0.555833 21.8114 0.898506 20.627C1.16606 19.7307 1.61352 18.9006 2.07394 17.7685C1.9212 17.6602 2.20459 16.8607 2.82897 15.4884C2.95053 15.225 2.75269 15.4737 2.8074 15.3474C3.02997 14.8323 3.32559 14.4032 3.56173 13.9262C3.61948 13.8103 3.56771 13.7726 3.61266 13.676C3.98559 12.8438 4.96181 11.7046 5.13802 11.5224C5.79802 10.7998 6.02522 10.4004 6.54399 9.86027C7.06691 9.32895 6.36046 10.1888 6.95744 9.55863C8.1936 8.25311 9.928 6.72009 11.4388 5.69639C12.0404 5.28729 11.5827 5.49611 11.6677 5.43588C12.9084 4.56852 14.2991 3.93911 14.9852 3.43008C16.122 3.40107 15.7777 2.96557 17.8514 2.31862C18.0163 2.27163 18.2821 2.39822 17.6799 2.63664C17.0798 2.87599 16.139 3.17344 15.3436 3.59712C15.1507 3.69024 14.1531 4.4101 14.02 4.5039C12.9362 5.20597 12.6337 5.06033 12.562 5.07808C11.7906 5.32643 10.6915 6.37205 10.3997 6.62836C9.02624 7.77785 7.89949 8.80598 6.93687 9.95249C6.31448 10.7084 6.41613 10.914 5.94179 11.5078C4.4227 13.516 3.71335 14.1682 2.89478 16.4306C2.73991 16.9232 3.11089 16.5293 2.28113 18.1623C2.22536 18.2613 1.61922 19.4979 1.51665 20.288C1.50269 20.3867 1.56584 20.4006 1.53739 20.5276C1.35098 21.3762 1.17382 21.933 1.03697 22.8709C0.902225 23.8098 0.811993 24.9422 0.745265 26.0221C0.722431 26.3767 0.674138 26.7884 0.635387 27.1429C0.603175 27.4394 0.571235 27.6933 0.557895 27.8375C0.472863 28.739 0.612279 29.7055 0.509311 30.264C0.405824 30.8272 0.248663 29.7262 0.181797 31.203C0.349921 31.2576 0.522483 31.3833 0.691561 31.4712C0.685642 34.7076 0.631278 37.8919 0.638705 41.139C0.639794 41.5416 0.730178 41.1299 0.733675 41.5615C0.748034 43.3822 0.683603 44.9726 0.709261 46.8608C0.729469 48.3224 0.825166 49.9252 0.849276 51.4535C0.656894 52.387 0.722203 54.6549 0.704623 56.3024C0.698548 56.8795 0.647167 56.841 0.630404 57.2514C0.568409 58.7997 0.738415 58.0742 0.765169 58.4986C0.815778 59.3058 0.768364 59.7859 0.700705 60.2571L0.0917969 59.6482C0.683784 59.7332 1.26206 59.8502 2.45747 59.8449C2.57122 59.8445 3.96167 59.6394 4.1532 59.6266C5.37005 59.5433 4.35462 59.698 5.11618 59.7132C6.50659 59.7409 7.47288 59.7898 9.10421 59.7298C9.57992 59.712 10.721 59.5841 11.6448 59.683C11.7663 59.696 11.6992 59.7638 11.7969 59.7677C13.5675 59.8339 13.6141 59.6209 14.6258 59.5487C15.6378 59.4766 17.2007 59.6237 17.5188 59.666C18.3509 59.7757 16.8811 59.7129 16.8361 59.7237C16.3067 59.8517 17.4466 59.8297 18.3176 59.8405C18.4437 60.0494 19.6617 60.0368 19.2205 59.8509C19.1703 59.8305 18.4924 59.85 18.3176 59.8405C19.0821 59.6355 20.4207 59.6093 21.8992 59.8008C22.5913 59.8906 21.937 59.9952 24.0394 59.9569C24.9935 59.9397 24.6248 59.7958 25.4668 59.7566C27.3904 59.6672 29.8901 59.8013 31.8733 59.7802C32.5931 59.7725 31.8919 59.6938 32.3838 59.6858C33.6893 59.6645 34.8406 59.7235 36.1516 59.6933C36.2704 59.6904 35.9802 59.608 36.3879 59.607C39.4787 59.5974 42.17 59.6502 45.397 59.6516C46.9562 59.6523 49.7439 59.6069 51.3591 59.616C54.1585 59.6313 57.6023 59.7512 59.9938 59.7221C61.5536 59.7034 61.2114 59.621 61.8797 59.5648C63.1694 59.456 65.4523 59.651 65.7597 59.6812C65.7691 59.6822 64.4269 59.7016 65.1431 59.7439C65.5594 59.8321 65.7445 59.6816 65.7597 59.6812C65.9615 59.7007 68.6428 59.7194 69.1751 59.7036C69.4644 59.695 69.3026 59.6169 69.4534 59.6139C73.0386 59.544 76.6301 59.5242 80.2664 59.5607C80.3304 59.5623 80.234 59.6496 80.3845 59.6522C82.4897 59.6911 83.8376 59.5842 85.5738 59.5208C87.3097 59.4574 88.6864 59.4786 89.714 59.6286C91.0238 59.6097 92.9029 59.676 93.9843 59.7162C95.0656 59.7564 95.2165 59.5864 95.3116 59.583C98.2792 59.4754 99.9948 59.5728 103.074 59.5879C104.537 59.5954 107.441 59.5707 109.026 59.5522C110.278 59.5372 111.033 59.577 112.187 59.5515C112.343 59.5481 112.185 59.4724 112.233 59.4695C113.521 59.3789 112.902 59.564 113.168 59.5971C114.132 59.7173 114.728 59.7813 116.377 59.7248C116.757 59.7118 117.866 59.4453 118.559 59.4297C119.461 59.4099 119.121 59.5055 120.065 59.4823C120.146 59.4804 120.129 59.4215 120.711 59.4241C123.416 59.4354 126.365 59.4697 129.176 59.4638C129.56 59.4632 129.068 59.3697 129.622 59.3673C132.226 59.3563 135.079 59.3597 137.615 59.4035C138.239 59.4145 137.847 59.48 137.983 59.4994C138.815 59.617 139.995 59.4462 140.189 59.4429C144.832 59.3608 148.386 59.5154 153.118 59.4418C153.376 59.4375 155.359 59.2543 156.243 59.4114C156.304 59.4219 157.179 59.5826 157.953 59.4727C158.001 59.4658 157.456 59.3831 158.408 59.3915C159.359 59.3999 160.891 59.3447 162.199 59.4356C162.614 59.4642 163.593 59.6245 164.828 59.4967C164.909 59.4878 166.816 59.1989 167.497 59.3982C167.607 59.431 167.492 59.642 168.966 59.5338C169.248 59.5129 168.737 59.4658 169.479 59.4364C170.616 59.3911 172.123 59.4476 173.521 59.3537C173.765 59.337 174.803 59.1938 175.635 59.3025C175.765 59.3195 175.518 59.39 175.957 59.3979C178.048 59.4357 180.237 59.3886 182.36 59.4373C183.112 59.4544 182.727 59.5683 183.511 59.5988C184.295 59.6293 185.874 59.6586 186.694 59.6066C187.515 59.5545 186.619 59.3731 187.847 59.3586C193.19 59.2955 198.483 59.4019 203.818 59.4175C204.609 59.4198 203.953 59.3549 205.119 59.3537C207.623 59.3509 211.187 59.329 214.463 59.3386L213.545 60.2571C213.551 57.9084 213.574 55.7072 213.632 54.1497C213.743 51.1608 213.827 54.9221 213.872 52.6381C213.893 51.536 213.682 50.3436 213.675 50.0775C213.608 47.4784 213.701 45.6721 213.673 43.3327C213.667 42.8496 213.581 43.3234 213.577 42.9123C213.562 41.5079 213.601 40.0319 213.594 38.69C213.59 38.088 213.525 38.1989 213.53 37.6449C213.541 36.3194 213.569 35.1473 213.63 33.8551C213.636 33.7373 213.717 34.5315 213.72 33.5508C213.724 31.9636 213.785 29.9934 213.722 28.1673C213.709 27.7657 213.623 27.6501 213.622 27.1429C213.621 26.9703 213.629 26.7518 213.648 26.459C213.658 26.2218 213.87 26.518 213.631 25.2074C213.607 24.9832 213.152 22.8222 213.027 21.7482C213.002 21.4619 212.978 20.716 212.778 20.1107C212.751 20.0296 212.77 20.3806 212.616 19.881C212.065 18.1217 211.316 16.3278 210.359 14.6932C210.102 14.2587 210.407 14.9497 210.022 14.3053C208.967 12.5317 207.376 10.4873 205.934 9.0698C205.404 8.54659 205.822 8.85339 205.789 8.81038C205.236 8.1181 204.727 7.9092 204.501 7.73108C203.078 6.62958 201.979 5.79959 200.518 5.0065C200.113 4.7914 200.361 5.01609 200.278 4.97858C199.414 4.59925 200.101 4.79981 199.575 4.5144C198.095 3.7225 196.328 3.06563 194.681 2.65473C194.077 2.50627 194.733 2.76295 194.192 2.63279C192.292 2.1876 190.297 1.95402 188.32 1.94403C186.908 1.93623 185.507 1.92269 184.143 1.90225C183.514 1.89267 183.909 1.82276 183.778 1.80679C182.875 1.69509 181.55 1.84746 181.246 1.86197C179.86 1.92824 179.322 1.86642 178.099 1.87796C172.121 1.93541 164.741 1.89447 159.099 1.86917C151.747 1.83662 146.042 1.77012 139.031 1.78739C138.585 1.7884 139.035 1.88139 138.651 1.88345C133.691 1.90587 128.809 1.86953 123.839 1.89639C123.432 1.89843 124.02 1.98659 123.365 1.99283C122.023 2.00624 120.322 2.00145 118.965 1.9733C118.302 1.95974 119.191 1.88409 118.524 1.87198C116.972 1.84362 115.309 1.83734 113.715 1.85147C113.037 1.85768 114.06 1.94784 113.179 1.94888C107.173 1.95783 101.275 1.97336 95.2065 1.8566C94.7904 1.84858 94.4254 1.66533 93.5408 1.70047C93.4741 1.75133 93.4778 1.81115 93.4487 1.86551C84.7063 1.89479 76.0531 1.83127 67.2861 1.82144C66.9165 1.82105 67.5553 1.91815 66.8397 1.91788C62.6978 1.91644 58.6758 1.94334 54.4391 1.84683C54.0188 1.8374 54.2344 1.66658 52.9957 1.69242C52.7772 1.69713 50.9114 1.71991 50.4291 1.75699C50.3635 1.76258 50.7039 1.84231 50.1027 1.84464C46.6089 1.85674 42.9477 1.83854 39.4599 1.78983C38.897 1.78181 39.4965 1.69691 39.0956 1.69046C36.2516 1.64539 33.1583 1.70993 30.4408 1.63285C28.6218 1.58094 29.2952 1.43417 28.3286 1.28971C28.1919 1.26932 27.0655 1.26609 27.0073 1.18204C26.8578 0.970681 27.4033 0.739242 27.1795 0.513952C27.1322 0.465427 25.6237 0.517692 26.5168 0.400427C26.5792 0.392579 27.6729 0.35366 27.9422 0.31388C28.1298 0.286376 27.7918 0.200894 28.1745 0.165687C28.5571 0.130513 28.9776 0.202169 29.6119 0.160804C30.246 0.118927 29.9672 0.0216813 31.2336 0.0101698ZM98.8532 59.896C99.8545 59.9777 100.002 59.6786 98.9193 59.7501C98.8669 59.754 98.8016 59.892 98.8532 59.896ZM0.405674 37.8737C0.273752 39.1827 0.467729 40.0785 0.569613 39.155C0.671388 38.2317 0.445664 37.4749 0.405674 37.8737ZM0.460411 24.3278C0.216745 25.8325 0.630295 26.0887 0.679764 24.4826C0.684464 24.3889 0.476054 24.2401 0.460411 24.3278ZM32.8112 1.24857C32.7974 1.2446 31.9877 1.24073 31.9683 1.24466C31.5372 1.33965 33.1562 1.34733 32.8112 1.24857ZM5.10747 11.9339C4.77341 12.2814 4.08435 13.4688 4.46597 13.0119C4.76317 12.6413 5.51117 11.4971 5.10747 11.9339ZM151.084 60.2152C151.1 60.2197 151.68 60.2237 151.669 60.1985C151.629 60.1174 150.822 60.1403 151.084 60.2152ZM24.381 1.17279C21.0374 1.45128 18.9413 1.66968 22.6037 1.02908C23.2678 0.937299 21.1907 1.35897 22.0399 1.25813C23.5815 1.079 24.6054 0.774533 26.2053 0.879812C26.488 0.88926 24.5708 1.1423 24.3751 1.1737C24.377 1.17339 24.379 1.17309 24.381 1.17279ZM99.4298 60.2553C99.4499 60.2592 100.253 60.263 100.273 60.2591C100.708 60.1641 99.089 60.1565 99.4298 60.2553ZM184.957 60.4002C185.001 60.4086 186.866 60.4165 186.927 60.4087C187.899 60.2534 184.129 60.237 184.957 60.4002ZM45.3109 60.4741C44.4341 60.5697 43.3852 60.5809 42.6863 60.461C43.5576 60.4673 44.4348 60.4683 45.3109 60.4741Z" fill="#AF7840"/>
</g>
<defs>
<filter id="filter0_n_2999_113" x="0" y="0" width="214.873" height="60.6406" filterUnits="userSpaceOnUse" color-interpolation-filters="sRGB">
<feFlood flood-opacity="0" result="BackgroundImageFix"/>
<feBlend mode="normal" in="SourceGraphic" in2="BackgroundImageFix" result="shape"/>
<feTurbulence type="fractalNoise" baseFrequency="1.1475410461425781 1.1475410461425781" stitchTiles="stitch" numOctaves="3" result="noise" seed="1310" />
<feColorMatrix in="noise" type="luminanceToAlpha" result="alphaNoise" />
<feComponentTransfer in="alphaNoise" result="coloredNoise1">
<feFuncA type="discrete" tableValues="1 1 1 1 1 1 1 1 1 1 1 1 1 1 1 1 1 1 1 1 1 1 1 1 1 1 1 1 1 1 1 1 1 1 1 1 1 1 1 1 1 1 1 1 1 1 1 1 1 1 1 0 0 0 0 0 0 0 0 0 0 0 0 0 0 0 0 0 0 0 0 0 0 0 0 0 0 0 0 0 0 0 0 0 0 0 0 0 0 0 0 0 0 0 0 0 0 0 0 0 "/>
</feComponentTransfer>
<feComposite operator="in" in2="shape" in="coloredNoise1" result="noise1Clipped" />
<feFlood flood-color="rgba(0, 0, 0, 0.25)" result="color1Flood" />
<feComposite operator="in" in2="noise1Clipped" in="color1Flood" result="color1" />
<feMerge result="effect1_noise_2999_113">
<feMergeNode in="shape" />
<feMergeNode in="color1" />
</feMerge>
</filter>
</defs>
</svg>
