<svg width="141" height="29" viewBox="0 0 141 29" fill="none" xmlns="http://www.w3.org/2000/svg">
<g filter="url(#filter0_n_3120_103)">
<path d="M0 14.6157C0 6.96866 6.19914 0.769531 13.8462 0.769531H126.154C133.801 0.769531 140 6.96866 140 14.6157C140 22.2627 133.801 28.4618 126.154 28.4618H13.8462C6.19914 28.4618 0 22.2627 0 14.6157Z" fill="#171C1B"/>
<path d="M16.8143 0.0081234C18.5605 -0.0119172 20.8495 0.00951105 22.5892 0.0389225C23.1344 0.0480445 22.8583 0.08882 23.2346 0.0969527C23.9707 0.112807 24.6565 0.0928088 25.3839 0.111695C25.6249 0.118154 25.3248 0.182742 25.5776 0.188036C26.9628 0.21658 28.2732 0.200129 29.6763 0.213858C36.5879 0.281597 43.3819 0.305843 50.378 0.335271C52.6848 0.344919 55.489 0.403536 57.8717 0.377901C58.1499 0.374851 57.9841 0.318159 58.037 0.313486C58.867 0.241954 58.591 0.356404 59.133 0.37161C61.2839 0.43165 63.6758 0.436871 65.7459 0.414992C66.6265 0.405518 65.7435 0.292912 66.6303 0.356117C66.6919 0.360387 66.4684 0.42059 66.7099 0.427011C67.2576 0.441453 68.2968 0.430692 68.7212 0.435462C69.5393 0.44496 69.6747 0.444354 70.4485 0.44504C71.5063 0.446502 72.7644 0.476428 73.8993 0.462787C74.1416 0.459696 73.8209 0.397981 74.2072 0.387479C74.5939 0.376994 75.6169 0.382227 75.9618 0.396775C76.3067 0.411331 76.1599 0.459838 76.2209 0.470956C76.7232 0.5648 77.9065 0.434826 78.0587 0.431612C80.8347 0.376844 83.2153 0.450885 85.8211 0.450674C87.7993 0.450357 89.9145 0.425913 91.7968 0.429265C94.0393 0.433497 95.9399 0.46694 98.1184 0.461191C98.3483 0.460655 98.0789 0.388092 98.3597 0.387291C101.343 0.378848 104.306 0.386757 107.276 0.435744C107.574 0.44072 107.19 0.50443 107.488 0.513211C109.31 0.565569 112.194 0.691344 113.276 0.413959C114.51 0.42479 116.009 0.435982 117.113 0.491896C117.825 0.527883 117.134 0.597288 118.008 0.567673C118.205 0.561075 117.949 0.500293 118.245 0.494995C119.49 0.472743 120.851 0.492501 122.083 0.461097C122.334 0.454566 122.265 0.400104 122.336 0.390296C122.933 0.310871 123.927 0.442166 124.143 0.451707C124.879 0.483446 125.526 0.495453 126.154 0.499172C126.949 0.505171 127.714 0.555461 128.569 0.702389C128.927 0.766992 128.517 0.61759 128.862 0.679793C130.657 1.01035 132.44 1.75129 133.91 2.76036C134.236 2.98586 133.899 2.83554 134.052 2.94635C134.715 3.44396 134.933 3.46629 135.524 4.00904C135.647 4.12505 135.54 4.10165 135.559 4.12647C135.854 4.51323 136.234 4.71727 136.323 4.80544C137.427 5.92128 137.903 6.82871 138.627 8.13876C138.712 8.29807 138.587 7.90378 138.819 8.35616C139.776 10.249 140.293 12.4469 140.27 14.6157C140.27 14.6157 140.27 14.6157 140.27 14.6157C140.261 15.9125 140.067 17.191 139.713 18.3904C139.561 18.8868 139.615 18.5164 139.6 18.5464C139.358 19.025 139.362 19.3857 139.307 19.5475C138.872 20.8166 138.15 21.8401 137.759 22.6705C135.148 26.4037 130.687 28.7807 126.154 28.6938C125.062 28.6811 123.97 28.6624 122.88 28.6348C122.81 28.6332 122.935 28.5687 122.795 28.5658C121.11 28.5296 121.434 28.6297 120.318 28.7522C120.037 28.783 119.182 28.6351 119.107 28.6243C118.831 28.5843 119.117 28.4884 119.025 28.4807C118.261 28.4199 118.386 28.737 117.356 28.7371C117.324 28.7366 117.459 28.6782 117.372 28.6724C117.104 28.6542 116.838 28.6774 116.575 28.6573C115.973 28.6108 115.759 28.4567 114.84 28.5464C114.724 28.5581 114.902 28.7379 113.982 28.7294C113.616 28.7259 111.993 28.729 111.538 28.7173C111.084 28.7057 111.396 28.6477 111.363 28.6452C110.14 28.5686 110.604 28.5368 109.99 28.4233C109.377 28.3103 109.547 28.5799 109.297 28.61C109.047 28.64 108.15 28.5768 107.929 28.5548C107.709 28.5328 107.984 28.4959 107.788 28.4835C106.488 28.4022 107.217 28.6173 106.789 28.6601C105.78 28.7615 104.994 28.5615 104.069 28.5419C103.819 28.5366 104.023 28.5822 103.801 28.5864C102.919 28.6027 102.389 28.5403 101.385 28.5975C101.221 28.6068 100.41 28.727 99.8851 28.6388C99.8108 28.6261 100.022 28.5763 99.6462 28.5651C99.0848 28.5484 98.0732 28.5375 97.4696 28.5541C97.0241 28.5664 97.5348 28.6485 96.9739 28.623C96.7247 28.6117 97.1866 28.5636 96.7184 28.5462C96.2526 28.5288 95.0616 28.531 94.6084 28.5326C94.156 28.5343 94.4036 28.5966 94.3671 28.6008C94.1458 28.6248 93.2776 28.6549 93.2009 28.6548C89.3311 28.6624 85.7626 28.5574 81.9948 28.5921C81.6991 28.5948 81.8961 28.6605 81.851 28.6615C80.8387 28.6891 81.6368 28.5144 80.9297 28.456C81.0319 28.5893 80.6145 28.5651 79.9015 28.5798C79.5579 28.5869 79.745 28.6385 79.7136 28.6438C79.2041 28.7222 78.8493 28.6209 78.7579 28.6002C78.4204 28.524 78.0532 28.6141 77.8236 28.5631C77.5941 28.5126 78.1222 28.4377 77.4384 28.4386C77.2467 28.4863 77.7543 28.611 77.2351 28.6312C75.2762 28.7076 71.6196 28.6098 70.0445 28.5997C68.4726 28.5895 67.9649 28.5983 67.0489 28.5811C65.3944 28.5499 66.0008 28.6424 64.9734 28.6847C63.9431 28.7271 64.444 28.4995 64.2959 28.4505C64.1505 28.4016 63.9917 28.452 63.8109 28.4251C63.6306 28.3982 64.0209 28.365 63.5969 28.3549C63.1727 28.3448 62.0129 28.4318 61.8625 28.4829C61.5447 28.5913 62.0673 28.7051 60.9448 28.6651C60.8803 28.6627 61.0898 28.6029 60.8426 28.5968C58.8793 28.5508 56.8397 28.5479 54.8788 28.5072C54.6091 28.5015 54.8502 28.4349 54.6933 28.4308C53.0589 28.3882 53.6431 28.5005 52.7474 28.6252C52.9485 28.4592 52.4532 28.3577 51.2127 28.3567C50.4671 28.3561 50.5954 28.4286 50.1132 28.4797C49.9685 28.4951 49.4408 28.4453 49.3452 28.4794C49.03 28.5908 49.527 28.7155 48.2481 28.6659C48.192 28.6635 48.3706 28.6025 48.1767 28.5988C46.9235 28.5746 46.7736 28.6912 45.4189 28.7053C44.3571 28.7164 42.4686 28.6453 41.2595 28.6337C41.2849 28.4472 40.143 28.4899 39.6797 28.6185C38.8951 28.6133 38.0476 28.6205 37.2892 28.6028C37.0282 28.5967 37.1997 28.5427 37.1668 28.5368C36.662 28.4453 36.3209 28.5704 36.1516 28.5753C34.316 28.623 32.8204 28.5282 31.0686 28.6209C31.0064 28.6242 30.9057 28.7538 30.4374 28.6592C30.4071 28.6527 30.9857 28.5937 30.1616 28.5891C29.3374 28.5846 27.7836 28.5151 26.6394 28.5751C26.3625 28.5896 25.6621 28.6948 25.1 28.6126C25.0251 28.6015 25.1071 28.5643 24.9989 28.5436C24.6495 28.4777 24.4587 28.6087 24.048 28.4974C23.6372 28.3861 22.7829 28.3028 21.6289 28.3796C21.5921 28.3818 21.319 28.4856 20.9561 28.484C20.3768 28.4813 19.5544 28.4596 18.9495 28.4603C18.6599 28.4607 18.8452 28.5251 18.795 28.5263C16.9978 28.5597 15.6788 28.5133 13.8462 28.4863C13.6919 28.4841 13.5347 28.4794 13.3741 28.4721C12.9942 28.4635 11.8809 28.4574 11.1637 28.2347C10.3879 27.9759 11.2485 27.9174 9.47896 27.4581C8.785 27.2509 7.71237 27.2637 6.65322 26.377C4.39475 25.0381 2.76703 23.1209 1.51536 20.8256C1.4587 20.7225 1.19387 20.434 1.08393 20.1751C0.921049 19.7923 0.889476 19.56 0.792408 19.2813C0.393599 18.112 0.112952 17.0012 0.0160076 15.8096C-0.0152009 15.3572 0.0457105 15.5101 0.0296285 14.9731C0.0271338 14.8468 0.0224225 14.7301 0.0172623 14.6157C0.0172623 14.6157 0.0172623 14.6157 0.0172623 14.6157C0.00189143 14.2427 -0.0264481 13.8987 0.0489635 13.342C0.127051 12.792 0.345918 12.2692 0.521081 11.5688C0.390314 11.5116 0.48587 11.0176 0.734948 10.1573C0.783812 9.99222 0.676488 10.1505 0.697296 10.0714C0.781546 9.74903 0.932029 9.47502 1.02921 9.17434C1.05323 9.10085 1.00964 9.07806 1.02732 9.01675C1.17003 8.48986 1.69191 7.75841 1.78788 7.64194C2.14375 7.17983 2.2407 6.92205 2.51995 6.57432C2.80223 6.23264 2.44332 6.7877 2.76119 6.38236C3.41918 5.54282 4.36463 4.5467 5.21483 3.87722C5.55307 3.60985 5.28223 3.74092 5.32965 3.70144C6.02587 3.13146 6.83613 2.72375 7.21275 2.37407C7.92182 2.39047 7.66373 2.06402 8.88706 1.64156C8.98466 1.61089 9.15723 1.71396 8.8086 1.8744C8.46215 2.03506 7.90831 2.22605 7.45553 2.5088C7.34425 2.57158 6.79811 3.059 6.72454 3.12114C6.12242 3.58608 5.90706 3.46873 5.86349 3.47928C5.39757 3.62986 4.81601 4.3266 4.65929 4.49282C3.91183 5.24324 3.2987 5.90498 2.80811 6.64157C2.4923 7.12694 2.59613 7.26074 2.35587 7.63792C1.59923 8.90678 1.18273 9.32857 0.928611 10.7294C0.888496 11.032 1.10798 10.7815 0.734534 11.7936C0.708352 11.8551 0.436075 12.6233 0.468314 13.0959C0.471625 13.1549 0.521241 13.1584 0.517506 13.235C0.495291 13.7363 0.438365 14.0718 0.452782 14.6157C0.452782 14.6157 0.452782 14.6157 0.452782 14.6157C0.453059 14.6246 0.453359 14.6336 0.453684 14.6427C0.472711 15.2022 0.542185 15.8638 0.615139 16.495C0.656152 16.8742 0.660989 17.3737 0.680862 17.5604C0.729114 18.0858 0.992599 18.5929 1.02156 18.9235C1.0548 19.2597 0.72016 18.6895 0.96988 19.5257C1.10224 19.5099 1.25248 19.5305 1.39199 19.5295C2.06944 21.2563 3.06644 22.842 4.40011 24.1559C4.56613 24.3175 4.44513 24.1029 4.62495 24.2726C5.38789 24.9805 6.0874 25.5796 7.0274 26.1201C7.7564 26.5368 8.61936 26.8627 9.44459 27.1315C9.89389 27.4593 11.1716 27.7591 12.1077 27.8785C12.4355 27.9239 12.4109 27.9594 12.6439 27.9945C13.532 28.1073 13.1214 27.9424 13.3646 27.9353C13.5515 27.9262 13.7078 27.9247 13.8462 27.9297C14.4997 27.9525 14.7497 28.1507 15.7958 28.1447C15.8634 28.1444 16.689 27.9866 16.8027 27.9768C17.5252 27.9128 16.9223 28.0317 17.3745 28.0434C18.2 28.0647 18.7738 28.1024 19.7424 28.0562C20.0248 28.0425 20.7024 27.9441 21.2509 28.0202C21.323 28.0302 21.2832 28.0823 21.3412 28.0854C22.3925 28.1363 22.4202 27.9724 23.0209 27.9169C23.6218 27.8614 24.5498 27.9745 24.7386 28.0071C25.2327 28.0915 24.36 28.0432 24.3333 28.0515C24.019 28.15 24.6958 28.133 25.2129 28.1413C25.2878 28.302 26.011 28.2924 25.749 28.1493C25.7192 28.1337 25.3168 28.1487 25.2129 28.1413C25.6669 27.9837 26.4617 27.9635 27.3395 28.1108C27.7505 28.1799 27.362 28.2604 28.6103 28.2309C29.1768 28.2176 28.9579 28.107 29.4579 28.0768C30.6 28.008 32.0843 28.1112 33.2618 28.0949C33.6892 28.089 33.2728 28.0285 33.5649 28.0224C34.34 28.0059 35.0236 28.0514 35.8021 28.0281C35.8726 28.0259 35.7003 27.9625 35.9424 27.9617C37.7775 27.9543 39.3755 27.9949 41.2916 27.9961C42.2174 27.9966 43.8726 27.9616 44.8317 27.9687C46.4939 27.9805 48.5387 28.0726 49.9586 28.0502C50.8848 28.0359 50.6816 27.9725 51.0784 27.9293C51.8442 27.8456 53.1996 27.9956 53.3822 28.0188C53.3877 28.0196 52.5908 28.0345 53.016 28.0671C53.2633 28.1349 53.3732 28.0191 53.3822 28.0188C53.502 28.0338 55.094 28.0482 55.4101 28.0361C55.5819 28.0294 55.4858 27.9694 55.5754 27.9671C57.7041 27.9133 59.8366 27.898 61.9957 27.9261C62.0337 27.9273 61.9764 27.9945 62.0658 27.9965C63.3158 28.0264 64.1161 27.9442 65.147 27.8954C66.1777 27.8466 66.9951 27.863 67.6053 27.9783C68.383 27.9638 69.4987 28.0148 70.1408 28.0457C70.7829 28.0767 70.8725 27.9459 70.9289 27.9433C72.691 27.8605 73.7096 27.9354 75.5376 27.9471C76.4067 27.9528 78.1307 27.9338 79.0717 27.9195C79.8154 27.908 80.2635 27.9387 80.9487 27.9191C81.0414 27.9165 80.9478 27.8582 80.9761 27.856C81.7408 27.7863 81.3733 27.9287 81.5312 27.9541C82.1037 28.0466 82.4573 28.0958 83.4367 28.0523C83.6626 28.0424 84.3207 27.8373 84.7324 27.8254C85.2678 27.8101 85.0658 27.8836 85.6264 27.8658C85.6743 27.8644 85.6643 27.819 86.0103 27.821C87.6163 27.8297 89.3673 27.8561 91.0363 27.8516C91.2642 27.8511 90.972 27.7792 91.3013 27.7774C92.8469 27.7689 94.541 27.7715 96.0467 27.8052C96.4174 27.8137 96.185 27.864 96.2655 27.879C96.7594 27.9694 97.4599 27.838 97.5754 27.8355C100.332 27.7723 102.442 27.8913 105.252 27.8347C105.405 27.8313 106.583 27.6904 107.108 27.8113C107.144 27.8193 107.663 27.9429 108.123 27.8584C108.152 27.8531 107.828 27.7895 108.393 27.796C108.958 27.8024 109.867 27.7599 110.644 27.8299C110.89 27.8519 111.471 27.9752 112.205 27.8769C112.253 27.87 113.385 27.6478 113.79 27.8011C113.855 27.8264 113.787 27.9887 114.662 27.9055C114.829 27.8893 114.526 27.8531 114.966 27.8305C115.642 27.7957 116.536 27.8392 117.367 27.7669C117.511 27.7541 118.128 27.6439 118.622 27.7275C118.699 27.7406 118.552 27.7948 118.813 27.8009C120.055 27.8299 121.354 27.7937 122.615 27.8312C123.061 27.8444 122.833 27.9319 123.298 27.9554C123.764 27.9789 124.701 28.0014 125.188 27.9614C125.675 27.9214 125.143 27.7818 125.873 27.7706C125.967 27.7692 126.06 27.7679 126.154 27.7667C129.074 27.7345 131.975 26.8168 134.294 25.0078C134.644 24.7282 134.33 24.9286 134.829 24.5002C136.784 22.9871 138.785 19.1844 139.13 17.0842C139.482 15.4215 139.224 17.5484 139.445 16.261C139.542 15.6313 139.398 14.9416 139.393 14.7921C139.392 14.7327 139.39 14.6739 139.388 14.6157C139.388 14.6157 139.388 14.6157 139.388 14.6157C139.336 13.2335 139.251 12.2338 138.894 11.0067C138.814 10.7449 138.826 11.0206 138.757 10.7992C138.518 10.0441 138.228 9.25944 137.875 8.58775C137.715 8.28776 137.7 8.36696 137.55 8.09347C137.185 7.44254 136.827 6.88647 136.403 6.28807C136.363 6.23333 136.698 6.54414 136.346 6.11077C135.774 5.41366 134.995 4.58695 134.13 4.00171C133.872 3.83053 133.804 3.90959 133.296 3.48167C133.187 3.39656 133.416 3.35971 132.688 3.07268C132.567 3.01245 131.354 2.5713 130.796 2.27107C130.651 2.18624 130.283 1.9357 129.92 1.84877C129.871 1.83761 130.046 1.95223 129.75 1.87335C128.706 1.59874 127.582 1.42136 126.473 1.41571C126.177 1.41587 126.616 1.48531 126.176 1.48688C126.169 1.48696 126.161 1.48706 126.154 1.48715C124.887 1.50279 123.313 1.48662 122.078 1.46677C121.62 1.45928 121.937 1.40641 121.904 1.40066C121.368 1.30708 121.051 1.43339 120.873 1.44075C119.767 1.48486 118.924 1.42552 117.905 1.44122C117.623 1.4454 117.823 1.50562 117.767 1.51099C117.186 1.56346 117.619 1.45531 117.251 1.44338C116.221 1.40963 115.072 1.41447 114.031 1.42216C113.648 1.42508 114.078 1.49491 113.735 1.49672C111.702 1.50875 109.589 1.50207 107.606 1.46357C107.232 1.4562 107.467 1.40242 107.389 1.39014C106.853 1.30422 106.067 1.42142 105.886 1.43259C105.063 1.48356 104.743 1.43601 104.017 1.44489C100.468 1.48908 96.0859 1.45758 92.7359 1.43813C88.3705 1.41308 84.983 1.36193 80.8201 1.37521C80.5555 1.37599 80.8223 1.44752 80.5942 1.44911C77.6496 1.46636 74.7506 1.4384 71.8 1.45907C71.5579 1.46063 71.9069 1.52845 71.5183 1.53325C70.7212 1.54356 69.7114 1.53988 68.9055 1.51822C68.5124 1.50779 69.0397 1.4496 68.644 1.44029C67.7226 1.41847 66.735 1.41364 65.7887 1.42451C65.3859 1.42928 65.9936 1.49864 65.4701 1.49944C61.9043 1.50632 58.4023 1.51827 54.7989 1.42845C54.5519 1.42229 54.3351 1.28132 53.8099 1.30836C53.7703 1.34748 53.7724 1.39349 53.7552 1.43531C48.5643 1.45783 43.4264 1.40897 38.2209 1.40141C38.0014 1.40111 38.3807 1.4758 37.9558 1.47559C35.4965 1.47449 33.1084 1.49518 30.5928 1.42094C30.3433 1.41368 30.4713 1.28229 29.7358 1.30216C29.6061 1.30578 28.4982 1.32331 28.2118 1.35183C28.1729 1.35613 28.375 1.41746 28.0181 1.41925C25.9436 1.42857 23.7697 1.41456 21.6988 1.37709C21.3646 1.37093 21.7205 1.30561 21.4825 1.30066C19.7939 1.26599 17.9571 1.31563 16.3436 1.25634C15.2635 1.21641 15.6634 1.10351 15.0895 0.992383C15.0083 0.976704 14.3395 0.974219 14.3049 0.909563C14.2161 0.746978 14.5401 0.568948 14.4072 0.395648C14.3791 0.358321 13.4834 0.398525 14.0137 0.308322C14.0507 0.302285 14.7001 0.272347 14.8601 0.241746C14.9714 0.22059 14.7707 0.154834 14.998 0.127752C15.2251 0.100695 15.4748 0.155815 15.8515 0.123996C16.228 0.091783 16.0624 0.0169784 16.8143 0.0081234ZM73.0318 28.1841C73.6263 28.2469 73.7141 28.0168 73.071 28.0718C73.0399 28.0748 73.0011 28.181 73.0318 28.1841ZM3.01763 22.8529C3.4048 23.5244 3.87872 23.8064 3.58275 23.3531C3.29783 22.8988 2.90408 22.6487 3.01763 22.8529ZM0.19876 15.55C0.195027 16.4544 0.537935 16.5492 0.384008 15.6143C0.37625 15.5599 0.199929 15.4974 0.19876 15.55ZM17.751 0.960738C17.7428 0.957683 17.2621 0.954705 17.2506 0.957734C16.9946 1.0308 17.9559 1.03671 17.751 0.960738ZM1.8308 7.90581C1.64803 8.12787 1.33764 8.88175 1.541 8.59096C1.69781 8.35586 2.04963 7.62803 1.8308 7.90581ZM104.044 28.4296C104.054 28.433 104.399 28.4361 104.392 28.4167C104.368 28.3543 103.889 28.3719 104.044 28.4296ZM12.7479 0.895649C10.7704 1.07856 9.50619 1.19139 11.6845 0.766812C12.0795 0.706192 10.8497 0.998087 11.3547 0.933946C12.2696 0.820308 12.8761 0.59482 13.8287 0.677077C13.9963 0.685585 12.8582 0.875658 12.7444 0.896303C12.7455 0.896085 12.7467 0.895867 12.7479 0.895649ZM73.3742 28.4604C73.3861 28.4634 73.8632 28.4663 73.8746 28.4633C74.133 28.3903 73.1718 28.3844 73.3742 28.4604ZM124.157 28.5719C124.183 28.5783 125.29 28.5844 125.326 28.5784C125.904 28.459 123.665 28.4464 124.157 28.5719ZM41.2405 28.6288C40.7199 28.7022 40.0971 28.7109 39.6821 28.6186C40.1995 28.6235 40.7203 28.6242 41.2405 28.6288Z" fill="#AF7840"/>
</g>
<defs>
<filter id="filter0_n_3120_103" x="0" y="0" width="140.271" height="28.7578" filterUnits="userSpaceOnUse" color-interpolation-filters="sRGB">
<feFlood flood-opacity="0" result="BackgroundImageFix"/>
<feBlend mode="normal" in="SourceGraphic" in2="BackgroundImageFix" result="shape"/>
<feTurbulence type="fractalNoise" baseFrequency="1.4918032884597778 1.4918032884597778" stitchTiles="stitch" numOctaves="3" result="noise" seed="1310" />
<feColorMatrix in="noise" type="luminanceToAlpha" result="alphaNoise" />
<feComponentTransfer in="alphaNoise" result="coloredNoise1">
<feFuncA type="discrete" tableValues="1 1 1 1 1 1 1 1 1 1 1 1 1 1 1 1 1 1 1 1 1 1 1 1 1 1 1 1 1 1 1 1 1 1 1 1 1 1 1 1 1 1 1 1 1 1 1 1 1 1 1 0 0 0 0 0 0 0 0 0 0 0 0 0 0 0 0 0 0 0 0 0 0 0 0 0 0 0 0 0 0 0 0 0 0 0 0 0 0 0 0 0 0 0 0 0 0 0 0 0 "/>
</feComponentTransfer>
<feComposite operator="in" in2="shape" in="coloredNoise1" result="noise1Clipped" />
<feFlood flood-color="rgba(0, 0, 0, 0.25)" result="color1Flood" />
<feComposite operator="in" in2="noise1Clipped" in="color1Flood" result="color1" />
<feMerge result="effect1_noise_3120_103">
<feMergeNode in="shape" />
<feMergeNode in="color1" />
</feMerge>
</filter>
</defs>
</svg>
