<svg width="215" height="61" viewBox="0 0 215 61" fill="none" xmlns="http://www.w3.org/2000/svg">
<g filter="url(#filter0_n_2999_125)">
<path d="M0.0917969 27.1429C0.0917969 12.7046 11.7964 1 26.2347 1H188.32C202.759 1 214.463 12.7046 214.463 27.1429V34.1171C214.463 48.5538 202.76 60.2571 188.323 60.2571H26.2318C11.7951 60.2571 0.0917969 48.5539 0.0917969 34.1171V27.1429Z" fill="#171C1B"/>
<path d="M31.0199 0.0101698C33.8351 -0.015883 37.5254 0.0119737 40.33 0.0502087C41.2089 0.0620673 40.7639 0.115075 41.3706 0.125648C42.5573 0.146258 43.6628 0.120261 44.8355 0.144813C45.2242 0.153209 44.7404 0.237174 45.1479 0.244056C47.381 0.281163 49.4936 0.259777 51.7558 0.277625C62.8986 0.365685 73.8516 0.397205 85.1307 0.435461C88.8497 0.448004 93.3706 0.524206 97.212 0.490881C97.6604 0.486916 97.3931 0.413216 97.4784 0.407141C98.8165 0.31415 98.3716 0.462935 99.2453 0.482702C102.713 0.560754 106.569 0.567542 109.907 0.539099C111.326 0.526782 109.903 0.380395 111.332 0.462561C111.432 0.468112 111.071 0.546377 111.461 0.554724C112.344 0.573498 114.019 0.559509 114.703 0.56571C116.022 0.578057 116.241 0.577269 117.488 0.578161C119.193 0.580061 121.222 0.618966 123.051 0.601232C123.442 0.597215 122.925 0.516985 123.548 0.503332C124.171 0.489702 125.82 0.496505 126.376 0.515417C126.933 0.534339 126.696 0.597399 126.794 0.611852C127.604 0.733849 129.512 0.564884 129.757 0.560705C134.233 0.489506 138.07 0.58576 142.271 0.585485C145.461 0.585073 148.871 0.553296 151.905 0.557653C155.521 0.563155 158.585 0.606631 162.097 0.599157C162.468 0.598461 162.033 0.504129 162.486 0.503088C167.296 0.492111 172.072 0.502394 176.861 0.566076C177.342 0.572546 176.723 0.655368 177.202 0.666784C180.14 0.734849 184.789 0.898357 186.534 0.537756C187.103 0.541782 187.707 0.545847 188.32 0.551298C189.881 0.560661 191.5 0.740196 192.761 1.00955C193.898 1.2654 192.771 1.13229 194.175 1.38893C194.49 1.45282 194.1 1.28021 194.572 1.38487C196.56 1.82955 198.65 2.63802 200.457 3.53009C200.825 3.71155 200.758 3.59832 200.867 3.64148C201.792 4.00283 203.079 5.03267 203.356 5.25027C205.513 6.87322 206.987 8.19647 208.617 10.107C208.989 10.5559 208.623 9.96336 208.982 10.3961C210.837 12.6501 212.338 15.3267 213.272 18.0259C213.477 18.6253 213.205 18.1041 213.298 18.3918C213.689 19.6648 213.916 19.909 214.185 21.1631C214.239 21.4282 214.137 21.2949 214.141 21.3446C214.193 22.121 214.465 22.7439 214.501 22.9426C214.785 24.5493 214.797 25.8059 214.76 27.1429C214.738 27.8534 214.722 28.59 214.731 29.4256C214.734 29.7113 214.822 29.067 214.825 29.8702C214.832 31.2687 214.835 32.6884 214.835 34.1171C214.847 38.2172 213.82 42.3718 211.997 45.8862C211.61 46.6241 211.821 46.0637 211.79 46.1072C211.29 46.8034 211.157 47.3585 211.024 47.5962C209.969 49.4675 208.6 50.9365 207.758 52.1366C202.781 57.4707 195.577 60.6655 188.323 60.5587C186.562 60.5422 184.801 60.5178 183.042 60.482C182.929 60.4799 183.132 60.3961 182.906 60.3922C180.188 60.3452 180.71 60.4754 178.912 60.6347C178.459 60.6747 177.081 60.4824 176.959 60.4683C176.515 60.4164 176.976 60.2917 176.827 60.2816C175.596 60.2027 175.797 60.6149 174.136 60.615C174.084 60.6143 174.303 60.5385 174.163 60.5309C173.73 60.5072 173.301 60.5374 172.877 60.5113C171.908 60.4508 171.562 60.2505 170.081 60.3671C169.894 60.3822 170.18 60.6161 168.697 60.605C168.107 60.6004 165.49 60.6044 164.757 60.5893C164.025 60.5741 164.528 60.4988 164.476 60.4955C162.502 60.3959 163.251 60.3546 162.262 60.2071C161.274 60.0601 161.548 60.4106 161.145 60.4497C160.741 60.4887 159.294 60.4065 158.939 60.378C158.584 60.3494 159.027 60.3015 158.711 60.2853C156.616 60.1796 157.791 60.4593 157.101 60.5149C155.474 60.6466 154.206 60.3867 152.716 60.3612C152.313 60.3544 152.642 60.4136 152.283 60.4191C150.861 60.4402 150.006 60.3591 148.389 60.4335C148.124 60.4456 146.817 60.6019 145.97 60.4872C145.851 60.4707 146.191 60.4059 145.585 60.3914C144.68 60.3696 143.049 60.3554 142.076 60.3771C141.358 60.3931 142.181 60.4999 141.277 60.4667C140.875 60.4519 141.62 60.3895 140.865 60.3668C140.114 60.3442 138.194 60.347 137.463 60.3491C136.734 60.3513 137.133 60.4323 137.074 60.4378C136.718 60.469 135.318 60.5081 135.194 60.508C128.955 60.5178 123.202 60.3814 117.128 60.4265C116.651 60.43 116.969 60.5153 116.896 60.5168C115.264 60.5525 116.551 60.3255 115.411 60.2495C115.575 60.4228 114.903 60.3914 113.753 60.4104C113.199 60.4197 113.501 60.4868 113.45 60.4937C112.629 60.5956 112.057 60.464 111.909 60.437C111.365 60.338 110.773 60.455 110.403 60.3888C110.033 60.3231 110.885 60.2257 109.782 60.227C109.473 60.289 110.291 60.4511 109.454 60.4773C106.296 60.5767 100.401 60.4495 97.8618 60.4363C95.3276 60.4231 94.5091 60.4346 93.0324 60.4121C90.365 60.3716 91.3425 60.4919 89.6863 60.5469C88.0252 60.6019 88.8327 60.3061 88.5939 60.2425C88.3595 60.1789 88.1036 60.2443 87.812 60.2094C87.5214 60.1744 88.1505 60.1312 87.467 60.1181C86.7831 60.105 84.9134 60.2181 84.6709 60.2846C84.1585 60.4255 85.0011 60.5733 83.1914 60.5214C83.0874 60.5183 83.4251 60.4405 83.0266 60.4326C79.8614 60.3727 76.5732 60.369 73.4118 60.3161C72.9772 60.3087 73.3658 60.2221 73.1129 60.2168C70.4779 60.1615 71.4198 60.3074 69.9756 60.4695C70.2999 60.2538 69.5013 60.1218 67.5015 60.1205C66.2994 60.1197 66.5063 60.2139 65.7288 60.2803C65.4955 60.3003 64.6449 60.2356 64.4908 60.2799C63.9825 60.4248 64.7837 60.5869 62.7219 60.5224C62.6315 60.5193 62.9195 60.44 62.6069 60.4352C60.5864 60.4038 60.3447 60.5553 58.1607 60.5736C56.4489 60.588 53.4043 60.4956 51.4551 60.4806C51.4961 60.2381 49.655 60.2936 48.9082 60.4608C47.6431 60.454 46.2768 60.4634 45.0542 60.4403C44.6334 60.4325 44.9098 60.3622 44.8568 60.3546C44.0431 60.2356 43.4932 60.3983 43.2201 60.4047C40.2608 60.4667 37.8497 60.3434 35.0254 60.4639C34.9252 60.4682 34.7628 60.6367 34.0078 60.5137C33.9589 60.5052 34.8917 60.4286 33.5632 60.4226C32.2344 60.4167 29.7295 60.3264 27.8847 60.4044C27.5687 60.4177 26.9107 60.4902 26.2318 60.4934C25.9474 60.4948 25.6604 60.4797 25.3951 60.4401C25.2743 60.4216 25.4083 60.3779 25.2348 60.3448C24.6787 60.2363 24.3512 60.3879 23.7054 60.1831C23.0553 59.9731 21.7158 59.7245 19.8954 59.3736C19.8391 59.3622 19.3759 59.3878 18.8144 59.2198C17.9166 58.9572 16.6768 58.4785 15.7857 58.0842C15.3581 57.8959 15.5974 58.0931 15.5226 58.0617C12.6471 56.7803 10.7607 55.4716 8.30632 53.1754C7.85498 52.7589 6.52825 51.5595 5.85646 50.5598C5.1422 49.4557 6.20618 50.3223 4.46636 47.9188C3.80335 46.9397 2.55235 45.8362 1.98892 43.6965C0.706676 40.5829 0.199938 37.3973 0.180675 34.1171C0.1769 33.2736 0.167121 32.4218 0.147618 31.5563C0.143378 31.3654 -0.00231399 30.7615 -0.000331074 30.3125C0.0028946 29.646 0.0709886 29.2802 0.0754743 28.8043C0.0812897 28.2389 0.0807731 27.6871 0.0772541 27.1429C0.0692264 25.7645 0.143208 24.433 0.361449 23.0711C0.484376 22.3484 0.505235 22.6121 0.67963 21.7613C0.866891 20.9127 0.911161 20.3224 1.30537 19.2091C1.61081 18.3684 2.08997 17.6009 2.58709 16.5418C2.43891 16.4274 2.75059 15.6778 3.40832 14.3932C3.53614 14.1466 3.33327 14.374 3.39101 14.2556C3.62597 13.7723 3.92932 13.3765 4.17427 12.9294C4.23414 12.8208 4.18394 12.781 4.23065 12.6903C4.61938 11.9086 5.60246 10.8609 5.77861 10.6936C6.4402 10.0302 6.66917 9.65368 7.18541 9.15614C7.70512 8.66684 7.00121 9.46671 7.59458 8.88484C8.82305 7.67958 10.5265 6.26367 11.9969 5.32112C12.5824 4.94451 12.1375 5.12999 12.2202 5.07439C13.4274 4.27411 14.7746 3.70183 15.4358 3.22121C16.5334 3.22962 16.2027 2.79071 18.198 2.20431C18.3568 2.16172 18.6126 2.2949 18.0325 2.51644C17.455 2.7386 16.5491 3.00625 15.7813 3.39923C15.5942 3.48616 14.6311 4.16266 14.501 4.25041C13.4525 4.9027 13.1574 4.745 13.0887 4.75961C12.3415 4.97318 11.2677 5.95369 10.9821 6.19103C9.63871 7.2563 8.52774 8.20308 7.5691 9.26834C6.94839 9.9709 7.04473 10.1766 6.56879 10.7271C5.03896 12.5895 4.3231 13.1757 3.44528 15.3066C3.27565 15.771 3.65906 15.4172 2.77869 16.9342C2.72011 17.0263 2.07156 18.1754 1.93507 18.9256C1.91697 19.0192 1.9792 19.0369 1.94542 19.1566C1.72249 19.9588 1.51993 20.4813 1.33666 21.3681C1.15445 22.2597 1.00258 23.3345 0.870912 24.3615C0.788054 24.9763 0.619492 25.773 0.579877 26.0705C0.529353 26.4249 0.526 26.7948 0.535045 27.1429C0.547333 27.6259 0.568872 28.0658 0.509311 28.375C0.405824 28.9141 0.248663 27.8602 0.181797 29.2738C0.349921 29.3262 0.522483 29.4465 0.691561 29.5306C0.688625 31.0673 0.673771 32.5916 0.66045 34.1171C0.64693 35.6357 0.767221 37.1569 1.04166 38.6661C1.11085 39.0365 1.12882 38.6419 1.20768 39.0365C1.55298 40.6987 1.91379 42.1509 2.60098 43.7782C3.13584 45.0372 3.89984 46.3302 4.67268 47.5208C4.95461 48.3686 6.24077 50.073 7.27461 51.2131C7.63347 51.616 7.57297 51.6234 7.82697 51.9131C8.8067 52.9878 8.44944 52.3795 8.75135 52.637C10.0804 53.692 9.93524 54.0954 11.5871 55.273C11.6732 55.3423 12.878 55.8827 13.0405 55.9557C14.0609 56.4611 13.1636 56.1164 13.7758 56.4833C14.9028 57.1338 15.7066 57.5797 17.1555 58.0752C17.5799 58.2209 18.6258 58.4497 19.4319 58.769C19.5384 58.8116 19.4598 58.8604 19.5475 58.8882C21.1442 59.3641 21.2403 59.1354 22.1794 59.2277C23.1161 59.3165 24.5513 59.5786 24.8519 59.6294C25.6249 59.7778 24.2507 59.6453 24.2086 59.6449C23.7011 59.7306 24.7765 59.8076 25.5933 59.8327C25.6506 59.9404 25.9771 59.9959 26.2318 59.9937C26.4799 59.992 26.6575 59.9425 26.4493 59.8509C26.4328 59.8439 26.3458 59.8416 26.2318 59.8412C26.0151 59.841 25.7014 59.842 25.5933 59.8327C25.7749 59.7858 25.9896 59.749 26.2318 59.7207C26.9671 59.6361 27.9527 59.6573 29.0135 59.8008C29.676 59.8906 29.0497 59.9952 31.0622 59.9569C31.9755 59.9397 31.6226 59.7958 32.4286 59.7566C34.2701 59.6672 36.6628 59.8013 38.5613 59.7802C39.2503 59.7725 38.5791 59.6938 39.05 59.6858C40.2996 59.6645 41.4017 59.7235 42.6567 59.6933C42.7704 59.6904 42.4926 59.608 42.8828 59.607C45.8415 59.5974 48.4177 59.6502 51.5069 59.6516C52.9994 59.6523 55.6679 59.6069 57.214 59.616C59.8938 59.6313 63.1904 59.7512 65.4797 59.7221C66.9727 59.7034 66.6452 59.621 67.285 59.5648C68.5195 59.456 70.7048 59.651 70.999 59.6812C71.008 59.6822 69.7232 59.7016 70.4088 59.7439C70.8073 59.8321 70.9845 59.6816 70.999 59.6812C71.1923 59.7007 73.7589 59.7194 74.2685 59.7036C74.5454 59.695 74.3905 59.6169 74.5349 59.6139C77.9668 59.544 81.4048 59.5242 84.8856 59.5607C84.9469 59.5623 84.8546 59.6496 84.9987 59.6522C87.0138 59.6911 88.3041 59.5842 89.9661 59.5208C91.6278 59.4574 92.9456 59.4786 93.9293 59.6286C95.1831 59.6097 96.9819 59.676 98.0171 59.7162C99.0522 59.7564 99.1966 59.5864 99.2877 59.583C102.128 59.4754 103.771 59.5728 106.718 59.5879C108.119 59.5954 110.898 59.5707 112.415 59.5522C113.614 59.5372 114.337 59.577 115.441 59.5515C115.591 59.5481 115.44 59.4724 115.485 59.4695C116.718 59.3789 116.126 59.564 116.38 59.5971C117.303 59.7173 117.874 59.7813 119.453 59.7248C119.817 59.7118 120.878 59.4453 121.541 59.4297C122.405 59.4099 122.079 59.5055 122.983 59.4823C123.06 59.4804 123.044 59.4215 123.602 59.4241C126.191 59.4354 129.014 59.4697 131.704 59.4638C132.072 59.4632 131.601 59.3697 132.132 59.3673C134.623 59.3563 137.355 59.3597 139.782 59.4035C140.38 59.4145 140.005 59.48 140.135 59.4994C140.931 59.617 142.06 59.4462 142.247 59.4429C146.691 59.3608 150.093 59.5154 154.623 59.4418C154.87 59.4375 156.768 59.2543 157.615 59.4114C157.673 59.4219 158.511 59.5826 159.251 59.4727C159.297 59.4658 158.775 59.3831 159.686 59.3915C160.597 59.3999 162.064 59.3447 163.316 59.4356C163.713 59.4642 164.65 59.6245 165.832 59.4967C165.909 59.4878 167.735 59.1989 168.387 59.3982C168.493 59.431 168.382 59.642 169.794 59.5338C170.063 59.5129 169.574 59.4658 170.284 59.4364C171.373 59.3911 172.815 59.4476 174.154 59.3537C174.387 59.337 175.38 59.1938 176.177 59.3025C176.302 59.3195 176.065 59.39 176.486 59.3979C178.487 59.4357 180.583 59.3886 182.615 59.4373C183.334 59.4544 182.966 59.5683 183.717 59.5988C184.467 59.6293 185.979 59.6586 186.764 59.6066C187.549 59.5545 186.691 59.3731 187.868 59.3586C188.02 59.3567 188.171 59.355 188.323 59.3534C193.11 59.3095 197.864 58.0339 201.921 55.4565C202.536 55.0571 201.998 55.3456 202.885 54.7315C206.293 52.5836 210.488 46.9837 211.739 43.7404C212.835 41.1876 211.682 44.4943 212.461 42.5098C212.827 41.5398 212.9 40.405 212.949 40.1668C213.427 37.8652 213.68 36.2191 213.675 34.1171C213.674 34.0637 213.673 34.01 213.673 33.956C213.667 33.4936 213.581 33.9472 213.577 33.5536C213.562 32.2093 213.601 30.7964 213.594 29.5118C213.59 28.9355 213.525 29.0417 213.53 28.5114C213.534 28.0394 213.541 27.5877 213.55 27.1429C213.566 26.4133 213.562 25.7097 213.537 24.9557C213.533 24.8461 213.678 25.5737 213.601 24.6669C213.469 23.1979 213.193 21.3708 212.634 19.7626C212.464 19.2873 212.331 19.3112 212.058 18.2636C211.994 18.0465 212.284 18.2413 211.655 17.1359C211.561 16.9382 210.474 15.1299 210.037 14.1885C209.929 13.9365 209.684 13.2614 209.319 12.7738C209.27 12.7085 209.391 13.0239 209.099 12.6163C208.066 11.1841 206.852 9.77415 205.503 8.56244C205.142 8.24112 205.618 8.78565 205.08 8.30967C203.601 6.99906 201.568 5.58298 199.852 4.68898C199.22 4.3583 199.691 4.51924 199.648 4.489C198.951 4.00529 198.424 3.96237 198.167 3.86235C196.556 3.25145 195.323 2.79039 193.767 2.46141C193.336 2.37425 193.624 2.51637 193.538 2.50488C192.641 2.39418 193.327 2.38595 192.767 2.26592C191.371 1.97558 189.795 1.83476 188.32 1.84527C188.129 1.84623 187.939 1.8473 187.751 1.84842C187.134 1.85221 187.827 1.94299 187.273 1.94534C183.997 1.96099 180.59 1.9523 177.392 1.90225C176.79 1.89267 177.169 1.82276 177.043 1.80679C176.179 1.69509 174.911 1.84746 174.619 1.86197C173.293 1.92824 172.778 1.86642 171.606 1.87796C165.885 1.93541 158.82 1.89447 153.419 1.86917C146.382 1.83662 140.92 1.77012 134.209 1.78739C133.782 1.7884 134.213 1.88139 133.845 1.88345C129.098 1.90587 124.424 1.86953 119.667 1.89639C119.277 1.89843 119.839 1.98659 119.213 1.99283C117.928 2.00624 116.3 2.00145 115 1.9733C114.367 1.95974 115.217 1.88409 114.579 1.87198C113.093 1.84362 111.501 1.83734 109.976 1.85147C109.326 1.85768 110.306 1.94784 109.462 1.94888C103.713 1.95783 98.0673 1.97336 92.258 1.8566C91.8597 1.84858 91.5103 1.66533 90.6635 1.70047C90.5997 1.75133 90.6032 1.81115 90.5753 1.86551C82.2067 1.89479 73.9234 1.83127 65.5312 1.82144C65.1774 1.82105 65.7889 1.91815 65.1039 1.91788C61.1391 1.91644 57.289 1.94334 53.2334 1.84683C52.831 1.8374 53.0375 1.66658 51.8516 1.69242C51.6425 1.69713 49.8565 1.71991 49.3948 1.75699C49.332 1.76258 49.6579 1.84231 49.0824 1.84464C45.738 1.85674 42.2332 1.83854 38.8946 1.78983C38.3557 1.78181 38.9295 1.69691 38.5458 1.69046C35.8234 1.64539 32.8623 1.70993 30.261 1.63285C28.5197 1.58094 29.1644 1.43417 28.2391 1.28971C28.1083 1.26932 27.03 1.26609 26.9743 1.18204C26.8311 0.970681 27.3534 0.739242 27.1391 0.513952C27.0938 0.465427 25.6498 0.517692 26.5047 0.400427C26.5645 0.392579 27.6114 0.35366 27.8692 0.31388C28.0488 0.286376 27.7253 0.200894 28.0916 0.165687C28.4578 0.130513 28.8603 0.202169 29.4676 0.160804C30.0746 0.118927 29.8077 0.0216813 31.0199 0.0101698ZM102.678 59.896C103.636 59.9777 103.778 59.6786 102.741 59.7501C102.691 59.754 102.628 59.892 102.678 59.896ZM0.449896 35.6413C0.393783 36.8908 0.714755 37.7094 0.711439 36.8317C0.721979 35.9647 0.47154 35.2621 0.449896 35.6413ZM0.684669 22.7225C0.356392 24.1464 0.753637 24.4182 0.894884 22.8849C0.904757 22.7959 0.705078 22.6399 0.684669 22.7225ZM32.53 1.24857C32.5168 1.2446 31.7417 1.24073 31.7232 1.24466C31.3105 1.33965 32.8603 1.34733 32.53 1.24857ZM5.74087 11.0919C5.40628 11.4102 4.70133 12.5193 5.08737 12.0996C5.38916 11.7587 6.14624 10.6916 5.74087 11.0919ZM152.676 60.2152C152.691 60.2197 153.247 60.2237 153.236 60.1985C153.198 60.1174 152.425 60.1403 152.676 60.2152ZM24.4602 1.16734C21.2586 1.4211 19.2466 1.59211 22.7577 1.00832C23.394 0.924843 21.4045 1.31983 22.2183 1.23006C23.6951 1.07088 24.6744 0.773497 26.2065 0.879811C26.477 0.890286 24.6426 1.13952 24.4545 1.16821C24.4564 1.16792 24.4583 1.16763 24.4602 1.16734ZM103.23 60.2553C103.249 60.2592 104.018 60.263 104.037 60.2591C104.453 60.1641 102.904 60.1565 103.23 60.2553ZM185.1 60.4002C185.143 60.4086 186.928 60.4165 186.986 60.4087C187.917 60.2534 184.308 60.237 185.1 60.4002ZM51.4244 60.4741C50.5851 60.5697 49.5811 60.5809 48.912 60.461C49.7461 60.4673 50.5857 60.4683 51.4244 60.4741Z" fill="#AF7840"/>
</g>
<defs>
<filter id="filter0_n_2999_125" x="0" y="0" width="214.834" height="60.6406" filterUnits="userSpaceOnUse" color-interpolation-filters="sRGB">
<feFlood flood-opacity="0" result="BackgroundImageFix"/>
<feBlend mode="normal" in="SourceGraphic" in2="BackgroundImageFix" result="shape"/>
<feTurbulence type="fractalNoise" baseFrequency="1.1475410461425781 1.1475410461425781" stitchTiles="stitch" numOctaves="3" result="noise" seed="1310" />
<feColorMatrix in="noise" type="luminanceToAlpha" result="alphaNoise" />
<feComponentTransfer in="alphaNoise" result="coloredNoise1">
<feFuncA type="discrete" tableValues="1 1 1 1 1 1 1 1 1 1 1 1 1 1 1 1 1 1 1 1 1 1 1 1 1 1 1 1 1 1 1 1 1 1 1 1 1 1 1 1 1 1 1 1 1 1 1 1 1 1 1 0 0 0 0 0 0 0 0 0 0 0 0 0 0 0 0 0 0 0 0 0 0 0 0 0 0 0 0 0 0 0 0 0 0 0 0 0 0 0 0 0 0 0 0 0 0 0 0 0 "/>
</feComponentTransfer>
<feComposite operator="in" in2="shape" in="coloredNoise1" result="noise1Clipped" />
<feFlood flood-color="rgba(0, 0, 0, 0.25)" result="color1Flood" />
<feComposite operator="in" in2="noise1Clipped" in="color1Flood" result="color1" />
<feMerge result="effect1_noise_2999_125">
<feMergeNode in="shape" />
<feMergeNode in="color1" />
</feMerge>
</filter>
</defs>
</svg>
