<svg width="59" height="33" viewBox="0 0 59 33" fill="none" xmlns="http://www.w3.org/2000/svg">
<path d="M1.30273 13.5408C1.30273 6.6406 6.89646 1.04688 13.7967 1.04688H45.0315C51.9317 1.04688 57.5254 6.6406 57.5254 13.5408V18.226C57.5254 25.1262 51.9317 30.72 45.0315 30.72H13.7967C6.89647 30.72 1.30273 25.1262 1.30273 18.226V13.5408Z" fill="#621B14"/>
<path d="M18.059 2.20815C19.2436 2.21635 20.7101 2.16369 21.8822 2.19609C21.8986 2.19655 21.915 2.197 21.9315 2.19746C22.4104 2.2107 22.8985 2.22983 23.489 2.25295C23.5643 2.25589 23.6413 2.25897 23.7201 2.26204C24.4201 2.28935 25.28 2.32208 26.4517 2.35847C30.3863 2.48065 33.4885 2.39945 34.4535 2.37416C36.3888 2.32344 38.4533 2.32237 41.2703 2.32095C41.5279 2.32082 41.7919 2.32089 42.0625 2.32072C42.2819 2.32058 42.4634 2.36165 42.4684 2.4126C42.4733 2.46357 42.2997 2.50502 42.0803 2.50516C41.8153 2.50533 41.557 2.50548 41.3053 2.50561C41.3041 2.50561 41.303 2.50561 41.3018 2.50561C38.4671 2.50708 36.4475 2.50817 34.5578 2.55769C33.5718 2.58353 30.3934 2.66651 26.3617 2.54132C25.1775 2.50455 24.308 2.47168 23.6037 2.44421C23.5266 2.4412 23.4514 2.4382 23.3784 2.43534C23.3767 2.43526 23.375 2.43519 23.3732 2.43511C22.7789 2.41185 22.3113 2.39343 21.8529 2.38076C21.8432 2.38053 21.8334 2.3803 21.8237 2.38008C20.6385 2.34731 19.1999 2.40054 18.051 2.39258C17.8316 2.39104 17.6555 2.34846 17.6577 2.29752C17.6601 2.24662 17.8398 2.20666 18.059 2.20815ZM35.951 30.1643C34.8072 30.2319 33.2856 30.2244 31.9421 30.1943C30.5892 30.164 29.3648 30.1095 28.7885 30.0761C28.2252 30.0434 27.5993 30.0328 26.8525 30.0263C26.6813 30.0248 26.5037 30.0235 26.32 30.0222C25.7131 30.0178 25.038 30.0129 24.2969 29.9983C21.5745 29.9448 19.7996 29.9425 18.532 29.9474C18.2713 29.9484 18.0287 29.9497 17.8017 29.951C17.8013 29.951 17.8009 29.951 17.8005 29.951C16.9436 29.9558 16.3041 29.9593 15.7161 29.9383C15.0283 29.9137 14.4234 29.8909 13.7967 29.8599C13.4898 29.8435 13.183 29.8137 12.8568 29.7654C11.5441 29.5993 9.74623 29.09 8.6366 28.5731C8.57518 28.5462 8.51253 28.5182 8.44946 28.4893C7.65193 28.1137 6.6602 27.593 5.45842 26.4494C4.46775 25.492 3.79532 24.4719 3.32428 23.5226C3.1889 23.2493 3.07168 22.9844 2.96744 22.7257C2.70493 22.0728 2.52756 21.4688 2.38886 20.8933C2.15375 19.9128 2.07462 19.0169 2.07524 18.226C2.07774 16.0311 2.10453 14.5692 2.14015 13.5408C2.14068 13.5264 2.14124 13.5121 2.14183 13.4979C2.19015 12.4759 2.33949 11.9237 2.44064 11.5291C2.47261 11.41 2.50268 11.306 2.53062 11.208C2.78352 10.334 3.06723 9.55201 3.5223 8.67072C3.62404 8.47553 3.73547 8.27563 3.85875 8.07131C4.27256 7.38856 4.61848 6.90665 4.89574 6.53175C5.01747 6.36824 5.12731 6.22598 5.23341 6.09367C5.23534 6.09121 5.23728 6.08875 5.23922 6.0863C5.25404 6.06787 5.26885 6.04968 5.28357 6.03162C5.29466 6.01799 5.30562 6.00429 5.31679 5.99073C5.3207 5.98496 5.32438 5.97994 5.32707 5.97614C5.32919 5.97314 5.33087 5.97081 5.33195 5.96932C5.33213 5.96901 5.3323 5.9687 5.33248 5.96839C5.35203 5.94124 5.37023 5.91907 5.37396 5.91452C5.38045 5.90657 5.38641 5.89969 5.38941 5.89614C5.40531 5.8774 5.42633 5.85374 5.44041 5.83812C5.47663 5.79797 5.5398 5.7284 5.64035 5.62352C5.7266 5.53098 5.80916 5.44185 5.9148 5.33227C5.92145 5.32536 5.9281 5.31845 5.93477 5.31156C6.03818 5.20506 6.16113 5.08203 6.32156 4.93406C6.46764 4.79913 6.63283 4.71226 6.68499 4.73522C6.73727 4.75835 6.6582 4.87936 6.5136 5.01052C6.36376 5.14657 6.24939 5.25878 6.1465 5.36267C6.14 5.36927 6.13351 5.37588 6.12703 5.3825C6.02014 5.49115 5.92095 5.59586 5.81448 5.70885C5.77884 5.74669 5.74219 5.78576 5.70808 5.82238C5.64755 5.88912 5.58034 5.96663 5.50191 6.06089C5.48617 6.07981 5.46992 6.0993 5.45346 6.11937C5.34791 6.24816 5.22776 6.40054 5.09621 6.57452C4.78924 6.98298 4.4112 7.50672 3.97376 8.24122C3.85966 8.43366 3.7545 8.62506 3.65753 8.81378C3.21236 9.68623 2.91542 10.5151 2.66685 11.4318C2.6331 11.5578 2.60084 11.6793 2.56866 11.8104C2.47981 12.1883 2.36692 12.6476 2.32626 13.5408C2.32555 13.5603 2.32484 13.5801 2.32414 13.6C2.28938 14.5838 2.26216 16.0185 2.25974 18.226C2.25918 18.992 2.33452 19.8619 2.56051 20.817C2.70155 21.4119 2.88959 22.0458 3.15525 22.6979C3.25683 22.9473 3.36936 23.198 3.49475 23.4505C3.95226 24.3699 4.59326 25.3413 5.52817 26.2579C6.6769 27.3666 7.61887 27.8776 8.39632 28.2561C8.42341 28.2689 8.45054 28.2816 8.47772 28.2942C8.51145 28.3099 8.54503 28.3253 8.57838 28.3404C9.7353 28.8983 11.6163 29.4404 13.0476 29.6007C13.3068 29.6353 13.551 29.658 13.7967 29.6718C14.4529 29.7056 15.0811 29.7294 15.8222 29.7559C16.3341 29.7742 16.8811 29.7711 17.7209 29.7666C17.9566 29.7653 18.2158 29.764 18.5034 29.7629C19.7937 29.758 21.5956 29.7602 24.3485 29.8143C25.0662 29.8284 25.712 29.8332 26.3154 29.8375C26.5028 29.8389 26.6867 29.8403 26.8669 29.8418C27.6173 29.8484 28.3157 29.8591 28.9668 29.8969C29.502 29.928 30.687 29.9811 32.0028 30.0106C33.3282 30.0403 34.7352 30.0447 35.7406 29.9853C35.8451 29.9792 35.9506 29.9731 36.0559 29.9669C36.9629 29.914 37.8876 29.86 38.6322 29.7702C40.2913 29.4896 42.6196 29.4017 45.0315 29.3883C47.2205 29.3969 49.446 28.7142 50.9749 27.7548C51.0151 27.7303 51.0551 27.7054 51.0949 27.6804C54.6586 25.4055 55.6163 22.1866 55.8794 21.2662C55.8922 21.22 55.9036 21.1779 55.9136 21.1399C55.9226 21.1061 55.9305 21.0753 55.9375 21.0482C56.0409 20.6437 56.1065 20.2786 56.1572 19.8937C56.1599 19.8728 56.1626 19.8519 56.1652 19.8309C56.2154 19.4249 56.2494 18.9946 56.262 18.4877C56.2641 18.4 56.2652 18.3128 56.2653 18.226C56.2664 16.4034 56.2596 14.8778 56.2519 13.5408C56.2513 13.4447 56.2494 13.35 56.2465 13.2567C56.2388 13.0111 56.2233 12.7708 56.2012 12.5391C56.2011 12.5384 56.2011 12.5377 56.201 12.5371C56.1025 11.5185 55.8836 10.631 55.5994 9.82085C55.0685 8.34258 54.4499 7.45729 53.9517 6.80709C53.7928 6.60353 53.6395 6.4219 53.4901 6.2545C53.1667 5.89314 52.864 5.59651 52.5406 5.30412C51.9307 4.75527 51.3084 4.32129 50.6643 3.95544C50.6069 3.92289 50.5493 3.89079 50.4914 3.85931C49.7857 3.47637 49.049 3.17009 48.2476 2.92726C48.0621 2.87108 47.9165 2.78997 47.9254 2.73952C47.9345 2.68935 48.0977 2.68924 48.2868 2.74619C49.0786 2.9852 49.8106 3.28426 50.5301 3.66974C50.5894 3.70162 50.6488 3.73407 50.7079 3.76719C51.3628 4.13482 52.0095 4.58052 52.6422 5.14721C52.9598 5.43305 53.2519 5.71618 53.5766 6.07392C53.7313 6.24493 53.893 6.43354 54.0642 6.65071C54.5815 7.31923 55.2218 8.22904 55.7687 9.74577C56.055 10.5593 56.2777 11.4486 56.3813 12.4834C56.4047 12.7199 56.4216 12.9669 56.4302 13.2191C56.4338 13.3246 56.4361 13.4318 56.4367 13.5408C56.4445 14.8767 56.4511 16.4035 56.4499 18.226C56.4499 18.3105 56.4489 18.3955 56.4469 18.4809C56.4351 18.9673 56.4051 19.3819 56.3564 19.7937C56.3536 19.8167 56.3508 19.8398 56.3479 19.8628C56.2989 20.2503 56.2311 20.643 56.1206 21.0776C56.1057 21.1358 56.0862 21.2102 56.0616 21.2991C55.7955 22.2362 54.8222 25.5245 51.1845 27.842C51.1734 27.849 51.1623 27.8559 51.1512 27.8628C48.7127 29.325 47.0417 29.4509 45.8685 29.6143C45.5664 29.6475 45.2915 29.6645 45.0315 29.6714C44.4291 29.6858 43.9304 29.691 43.4964 29.694C43.3751 29.6949 43.2602 29.6957 43.1507 29.6963C42.6777 29.699 42.3038 29.7012 41.9302 29.714C40.8 29.7527 39.9895 29.8161 39.0088 29.9344C38.1775 30.0347 37.159 30.094 36.2669 30.1459C36.2655 30.146 36.2642 30.1461 36.2628 30.1461C36.157 30.1523 36.0528 30.1583 35.951 30.1643ZM8.64782 3.23007C8.82983 3.1406 8.99478 3.11216 9.01427 3.15909C9.03349 3.20642 8.90249 3.31028 8.72385 3.39827C8.29871 3.60726 7.88563 3.84372 7.48931 4.10486C7.3231 4.21424 7.16871 4.27371 7.14032 4.23131C7.11215 4.18895 7.22339 4.05892 7.39281 3.9475C7.79572 3.68232 8.2156 3.44227 8.64782 3.23007ZM36.8659 31.0824C36.652 31.0928 36.4388 31.0605 36.3901 31.0106C36.3418 30.9607 36.4761 30.9119 36.6899 30.9016C36.803 30.8962 36.989 30.8863 37.2391 30.873C38.5165 30.8049 41.4744 30.6474 45.0315 30.5329C46.4713 30.4883 47.9935 30.1888 49.43 29.6058C49.8453 29.4377 50.2081 29.2648 50.5462 29.0858C51.9466 28.2724 53.1128 27.5248 54.9416 25.0374C56.3194 23.0528 57.0771 20.6489 57.0861 18.226C57.0954 16.6641 57.106 15.1024 57.117 13.5408C57.3302 7.10607 51.5248 1.19733 45.0315 1.36604C42.1664 1.37032 39.3017 1.38663 36.4376 1.42081C32.5485 1.46722 28.6716 1.47417 24.7795 1.47107C21.5354 1.46849 15.5891 1.37387 14.19 1.36418C13.9705 1.36266 13.7944 1.32007 13.7967 1.26912C13.799 1.2182 13.9787 1.17824 14.198 1.17974C15.5872 1.18936 21.5138 1.28384 24.7457 1.2864C28.6303 1.28949 32.4992 1.28269 36.3808 1.23637C39.2628 1.20198 42.1465 1.17543 45.0315 1.15515C51.6268 0.942299 57.6418 6.9064 57.4765 13.5408C57.4764 15.1026 57.4755 16.6644 57.474 18.226C57.4783 20.7318 56.6982 23.2298 55.2678 25.2835C53.3806 27.8359 52.0969 28.3891 50.6937 29.2169C50.3509 29.4009 49.9813 29.5798 49.5568 29.7541C48.0786 30.3629 46.5098 30.6742 45.0315 30.7197C41.5811 30.8322 38.7142 30.9847 37.4375 31.0526C37.1794 31.0664 36.9855 31.0767 36.8659 31.0824ZM26.6634 31.0053C24.2141 31.0193 20.7325 30.9944 17.6899 30.9726C16.2392 30.9622 14.8883 30.9523 13.7967 30.9479C13.7711 30.9478 13.7458 30.9476 13.7206 30.9473C11.9766 30.9151 10.9014 30.5992 9.88804 30.2363C9.87715 30.2323 9.86626 30.2283 9.85538 30.2242C8.85124 29.8344 7.85682 29.3888 6.43964 28.3722C5.01589 27.3541 3.27521 25.5474 2.26884 23.2835C2.26807 23.2818 2.26729 23.28 2.26652 23.2782C1.50999 21.6315 1.10737 19.8006 1.08166 18.226C1.06966 17.6803 1.06259 17.1684 1.06445 16.7031C1.06897 15.5709 1.07687 14.5178 1.08738 13.5408C1.20037 9.01224 3.27789 6.56695 4.29747 5.4445C6.55765 2.95644 10.2207 1.01303 13.6842 1.25916C14.0593 1.31039 13.4297 1.43241 12.7481 1.45205C12.7235 1.45301 12.6989 1.45406 12.6742 1.45517C12.4401 1.46641 12.2321 1.4815 11.9455 1.51775C11.5274 1.57641 11.2217 1.64168 10.9433 1.70775C10.581 1.79013 9.11947 2.1605 7.69885 2.9729C6.26192 3.75582 4.9541 4.98542 4.335 5.67987C3.39441 6.74662 1.53167 9.16574 1.47612 13.5408C1.47775 14.5197 1.47723 15.5786 1.47267 16.7209C1.47084 17.1804 1.46258 17.686 1.45195 18.226C1.41435 19.722 1.67274 21.5208 2.41491 23.1571C2.41763 23.1632 2.42035 23.1693 2.42307 23.1753C3.39928 25.3929 5.11896 27.2018 6.54633 28.2214C7.99301 29.2599 9.02271 29.7094 10.0291 30.0893C10.0389 30.0929 10.0488 30.0965 10.0587 30.1001C11.0508 30.4452 12.0639 30.7316 13.7193 30.7629C13.745 30.7631 13.7707 30.7633 13.7967 30.7634C14.9116 30.7679 16.2778 30.7776 17.7375 30.7881C20.767 30.8099 24.2001 30.8347 26.6284 30.8209C26.8475 30.8197 27.0332 30.86 27.0429 30.9109C27.0524 30.9619 26.8824 31.0041 26.6634 31.0053ZM26.6129 32.1549C22.3419 32.2819 18.056 32.3079 13.7967 32.2578C10.8744 32.2371 7.98433 31.2293 5.71888 29.4899C4.11828 28.362 2.1888 26.2919 1.1243 23.7586C1.11212 23.7302 1.10004 23.7017 1.08805 23.6732C0.311823 21.8587 -0.0143204 19.8857 0.00140345 18.226C0.00421786 17.6649 0.00664163 17.1407 0.00853193 16.667C0.0129925 15.5492 0.0177286 14.508 0.0230763 13.5408C0.115535 8.61203 2.34092 5.88545 3.45886 4.65672C4.84156 3.2524 5.32593 2.98345 5.96616 2.49743C5.9841 2.48478 6.00206 2.47218 6.02006 2.45962C6.02116 2.45866 6.02226 2.45771 6.02336 2.45675C6.04459 2.43893 6.06285 2.42456 6.07232 2.41725C6.09161 2.40237 6.10767 2.39073 6.11369 2.38638C6.12759 2.37631 6.13944 2.36814 6.14365 2.36521C6.16083 2.35326 6.18064 2.33979 6.19346 2.3312C6.31174 2.25048 6.69144 2.00858 7.00334 1.83802C7.32287 1.66185 7.55745 1.55039 7.80735 1.43828C7.83267 1.427 7.85804 1.41579 7.88343 1.40466C8.10924 1.3061 8.35705 1.20219 8.7179 1.06731C8.93808 0.985414 9.11123 0.971999 9.10177 1.02915C9.09224 1.08656 8.90741 1.19325 8.69168 1.27563C8.3175 1.41865 8.05981 1.5299 7.83627 1.6302C7.81153 1.64134 7.78682 1.65255 7.76215 1.66383C7.52756 1.77188 7.32372 1.87171 7.04511 2.02672C6.64453 2.2562 6.35897 2.4473 6.10222 2.62763C5.44762 3.12233 4.89836 3.43404 3.48636 4.90257C2.46069 6.06922 0.306915 8.6773 0.207545 13.5408C0.202202 14.5039 0.197443 15.544 0.192971 16.6647C0.191077 17.1392 0.188652 17.6642 0.185836 18.226C0.170172 19.8661 0.492916 21.8136 1.25828 23.6022C1.27051 23.6311 1.28284 23.6599 1.29526 23.6887C2.34687 26.1889 4.24913 28.2278 5.82444 29.3387C8.13212 31.0177 10.9739 31.9133 13.7967 31.8996C18.0398 31.8911 22.2746 31.887 26.5774 31.9705C27.8511 31.9632 29.0152 31.9604 30.0938 31.9578C33.2681 31.9501 35.704 31.9441 38.0262 31.832C38.5354 31.8074 39.8699 31.7866 41.7984 31.7606C42.3635 31.753 42.9835 31.745 43.6535 31.7363C44.0916 31.7305 44.5513 31.7246 45.0315 31.7182C46.4552 31.7018 48.0516 31.4557 49.6684 30.8352C50.1304 30.6578 50.5333 30.4745 50.9086 30.2844C52.4624 29.4174 53.82 28.7303 55.9085 25.9989C57.2557 24.1911 58.4587 21.2064 58.436 18.226C58.4471 16.5564 58.4595 14.9296 58.4716 13.5408C58.4768 12.8902 58.4356 12.2933 58.3699 11.7594C58.119 9.86457 57.6912 8.84894 57.4115 8.14164C57.3296 7.94468 57.2537 7.77389 57.1811 7.61777C56.9903 7.21062 56.8284 6.90056 56.5951 6.50704C54.8402 3.74443 52.9624 2.05295 49.4183 0.772263C49.1942 0.698023 49.0077 0.600683 49.0056 0.546809C49.0029 0.493003 49.1881 0.502524 49.4164 0.576755C53.0203 1.85903 54.9653 3.58699 56.7637 6.42935C57.0101 6.84612 57.1841 7.18341 57.3787 7.60465C57.4502 7.76058 57.5239 7.92857 57.6019 8.11821C57.8779 8.82441 58.3048 9.84402 58.5554 11.755C58.6206 12.2906 58.6614 12.8891 58.6562 13.5408C58.6441 14.9286 58.6317 16.5558 58.6206 18.226C58.644 21.2439 57.4262 24.2683 56.0648 26.0978C53.9706 28.841 52.6256 29.53 51.0606 30.4147C50.6801 30.6101 50.2708 30.7993 49.7996 30.983C48.1373 31.631 46.4925 31.8869 45.0315 31.9034C44.5716 31.9095 44.1309 31.9152 43.7102 31.9207C43.0411 31.9294 42.4226 31.9375 41.8597 31.945C39.8923 31.9715 38.6384 31.9918 38.2022 32.0128C35.7986 32.1288 33.2568 32.135 30.0531 32.1427C28.9863 32.1452 27.8458 32.1479 26.6129 32.1549ZM36.5861 0.00192678C36.8049 -0.000674009 36.9947 0.0385857 37.0103 0.0894842C37.0257 0.140372 36.8611 0.183754 36.6422 0.186366C35.4863 0.20016 34.6554 0.21154 34.0058 0.220479C32.8034 0.237024 32.2223 0.245091 31.3521 0.243676C29.1055 0.240022 26.9363 0.238179 24.9847 0.236626C21.7408 0.234046 19.0969 0.231987 17.6978 0.222298C17.4784 0.220769 17.3023 0.178179 17.3046 0.127236C17.307 0.0763419 17.4866 0.0363629 17.7058 0.0378594C19.0951 0.0474793 21.719 0.049621 24.9509 0.052187C26.9047 0.0537384 29.0811 0.0553325 31.3417 0.0590096C32.1858 0.0603826 32.7344 0.0529184 33.91 0.0367223C34.559 0.0277815 35.3993 0.0160891 36.5861 0.00192678Z" fill="#EFBE8A"/>
<path d="M31.2872 12.9177C31.2872 12.752 31.2214 12.5931 31.1043 12.4759C30.9871 12.3588 30.8282 12.293 30.6625 12.293C30.4969 12.293 30.338 12.3588 30.2208 12.4759C30.1037 12.5931 30.0378 12.752 30.0378 12.9177V14.7918H28.1638C27.9981 14.7918 27.8392 14.8576 27.722 14.9747C27.6049 15.0919 27.5391 15.2508 27.5391 15.4165C27.5391 15.5821 27.6049 15.741 27.722 15.8582C27.8392 15.9753 27.9981 16.0411 28.1638 16.0411H30.0378V17.9152C30.0378 18.0809 30.1037 18.2398 30.2208 18.357C30.338 18.4741 30.4969 18.5399 30.6625 18.5399C30.8282 18.5399 30.9871 18.4741 31.1043 18.357C31.2214 18.2398 31.2872 18.0809 31.2872 17.9152V16.0411H33.1613C33.327 16.0411 33.4859 15.9753 33.6031 15.8582C33.7202 15.741 33.786 15.5821 33.786 15.4165C33.786 15.2508 33.7202 15.0919 33.6031 14.9747C33.4859 14.8576 33.327 14.7918 33.1613 14.7918H31.2872V12.9177Z" fill="#EFBE8A"/>
<path d="M20.6677 7.29297C20.502 7.29297 20.3431 7.35878 20.2259 7.47594C20.1088 7.59309 20.043 7.75199 20.043 7.91767C20.043 8.08335 20.1088 8.24224 20.2259 8.35939C20.3431 8.47655 20.502 8.54236 20.6677 8.54236H22.0545L22.5555 10.5501L24.4271 20.5265C24.4539 20.6697 24.5299 20.799 24.6419 20.8921C24.7539 20.9851 24.8949 21.0362 25.0405 21.0363H26.2899C25.6272 21.0363 24.9916 21.2996 24.523 21.7682C24.0544 22.2368 23.7911 22.8724 23.7911 23.5351C23.7911 24.1978 24.0544 24.8334 24.523 25.302C24.9916 25.7706 25.6272 26.0339 26.2899 26.0339C26.9527 26.0339 27.5882 25.7706 28.0568 25.302C28.5255 24.8334 28.7887 24.1978 28.7887 23.5351C28.7887 22.8724 28.5255 22.2368 28.0568 21.7682C27.5882 21.2996 26.9527 21.0363 26.2899 21.0363H35.0357C34.373 21.0363 33.7374 21.2996 33.2688 21.7682C32.8002 22.2368 32.5369 22.8724 32.5369 23.5351C32.5369 24.1978 32.8002 24.8334 33.2688 25.302C33.7374 25.7706 34.373 26.0339 35.0357 26.0339C35.6984 26.0339 36.334 25.7706 36.8026 25.302C37.2712 24.8334 37.5345 24.1978 37.5345 23.5351C37.5345 22.8724 37.2712 22.2368 36.8026 21.7682C36.334 21.2996 35.6984 21.0363 35.0357 21.0363H36.2851C36.4307 21.0362 36.5717 20.9851 36.6838 20.8921C36.7958 20.799 36.8717 20.6697 36.8985 20.5265L38.7726 10.5314C38.7895 10.4412 38.7863 10.3485 38.7633 10.2597C38.7403 10.1709 38.698 10.0883 38.6394 10.0177C38.5809 9.94705 38.5075 9.89021 38.4245 9.85117C38.3415 9.81212 38.2509 9.79184 38.1592 9.79176H23.6537L23.1477 7.76649C23.114 7.63128 23.036 7.51124 22.9262 7.42544C22.8164 7.33963 22.6811 7.29301 22.5418 7.29297H20.6677ZM25.559 19.7869L23.9186 11.0411H37.407L35.7666 19.7869H25.559ZM27.5393 23.5351C27.5393 23.8664 27.4077 24.1842 27.1734 24.4185C26.9391 24.6528 26.6213 24.7845 26.2899 24.7845C25.9586 24.7845 25.6408 24.6528 25.4065 24.4185C25.1722 24.1842 25.0405 23.8664 25.0405 23.5351C25.0405 23.2037 25.1722 22.8859 25.4065 22.6516C25.6408 22.4173 25.9586 22.2857 26.2899 22.2857C26.6213 22.2857 26.9391 22.4173 27.1734 22.6516C27.4077 22.8859 27.5393 23.2037 27.5393 23.5351ZM36.2851 23.5351C36.2851 23.8664 36.1535 24.1842 35.9191 24.4185C35.6848 24.6528 35.3671 24.7845 35.0357 24.7845C34.7043 24.7845 34.3865 24.6528 34.1522 24.4185C33.9179 24.1842 33.7863 23.8664 33.7863 23.5351C33.7863 23.2037 33.9179 22.8859 34.1522 22.6516C34.3865 22.4173 34.7043 22.2857 35.0357 22.2857C35.3671 22.2857 35.6848 22.4173 35.9191 22.6516C36.1535 22.8859 36.2851 23.2037 36.2851 23.5351Z" fill="#EFBE8A"/>
</svg>
