<svg width="59" height="33" viewBox="0 0 59 33" fill="none" xmlns="http://www.w3.org/2000/svg">
<path d="M1.30273 13.5412C1.30273 6.64076 6.89663 1.04688 13.797 1.04688H45.0328C51.9332 1.04688 57.5271 6.64077 57.5271 13.5412V18.2266C57.5271 25.127 51.9332 30.7209 45.0328 30.7209H13.7971C6.89664 30.7209 1.30273 25.127 1.30273 18.2265V13.5412Z" fill="#322D22"/>
<path d="M18.0595 2.20818C19.2441 2.21638 20.7107 2.16372 21.8828 2.19613C21.8992 2.19658 21.9156 2.19704 21.9321 2.19749C22.4111 2.21074 22.8992 2.22986 23.4897 2.25298C23.5649 2.25593 23.642 2.25901 23.7207 2.26208C24.4208 2.28939 25.2807 2.32212 26.4525 2.35851C30.3872 2.48069 33.4895 2.39949 34.4545 2.3742C36.3899 2.32348 38.4544 2.32241 41.2715 2.32098C41.5291 2.32086 41.7931 2.32093 42.0638 2.32076C42.2831 2.32062 42.4646 2.36169 42.4697 2.41264C42.4746 2.46361 42.3009 2.50506 42.0816 2.5052C41.8165 2.50537 41.5582 2.50553 41.3065 2.50566C41.3053 2.50566 41.3042 2.50566 41.303 2.50566C38.4683 2.50712 36.4486 2.50821 34.5588 2.55774C33.5728 2.58358 30.3943 2.66656 26.3625 2.54136C25.1782 2.50459 24.3086 2.47173 23.6044 2.44425C23.5273 2.44124 23.4521 2.43824 23.3791 2.43538C23.3773 2.43531 23.3756 2.43523 23.3739 2.43515C22.7795 2.41189 22.312 2.39348 21.8535 2.3808C21.8438 2.38057 21.834 2.38034 21.8243 2.38012C20.6391 2.34734 19.2004 2.40058 18.0515 2.39262C17.8321 2.39108 17.6559 2.3485 17.6582 2.29756C17.6605 2.24666 17.8403 2.2067 18.0595 2.20818ZM35.952 30.1652C34.8082 30.2328 33.2866 30.2253 31.943 30.1952C30.5901 30.1649 29.3656 30.1104 28.7893 30.077C28.226 30.0442 27.6001 30.0337 26.8533 30.0272C26.6821 30.0257 26.5044 30.0244 26.3207 30.0231C25.7139 30.0187 25.0387 30.0138 24.2976 29.9992C21.5751 29.9456 19.8002 29.9434 18.5326 29.9482C18.2718 29.9492 18.0292 29.9506 17.8022 29.9519C17.8018 29.9519 17.8014 29.9519 17.801 29.9519C16.944 29.9566 16.3046 29.9601 15.7165 29.9391C15.0287 29.9146 14.4237 29.8918 13.7971 29.8607C13.4901 29.8444 13.1833 29.8146 12.8571 29.7663C11.5444 29.6002 9.74648 29.0909 8.63682 28.5739C8.5754 28.547 8.51274 28.5191 8.44967 28.4901C7.65212 28.1145 6.66036 27.5938 5.45854 26.4501C4.46784 25.4927 3.79539 24.4726 3.32434 23.5233C3.18895 23.25 3.07173 22.985 2.96749 22.7264C2.70497 22.0734 2.5276 21.4694 2.38889 20.8939C2.15378 19.9134 2.07464 19.0175 2.07527 18.2265C2.07776 16.0316 2.10455 14.5696 2.14017 13.5412C2.1407 13.5268 2.14126 13.5124 2.14185 13.4982C2.19017 12.4763 2.33952 11.924 2.44067 11.5294C2.47265 11.4103 2.50271 11.3063 2.53065 11.2083C2.78356 10.3343 3.06728 9.55226 3.52236 8.67094C3.62411 8.47575 3.73555 8.27585 3.85882 8.07151C4.27265 7.38874 4.61858 6.90682 4.89584 6.53192C5.01759 6.3684 5.12742 6.22613 5.23352 6.09381C5.23546 6.09136 5.2374 6.0889 5.23934 6.08644C5.25416 6.06801 5.26897 6.04983 5.28369 6.03176C5.29478 6.01814 5.30574 6.00444 5.31691 5.99087C5.32082 5.9851 5.3245 5.98009 5.32719 5.97628C5.32931 5.97328 5.33099 5.97096 5.33207 5.96946C5.33225 5.96915 5.33242 5.96884 5.3326 5.96853C5.35215 5.94138 5.37035 5.91921 5.37408 5.91466C5.38058 5.90671 5.38653 5.89983 5.38954 5.89628C5.40543 5.87754 5.42646 5.85388 5.44053 5.83826C5.47676 5.79811 5.53993 5.72854 5.64048 5.62366C5.72673 5.53111 5.8093 5.44198 5.91494 5.33239C5.92159 5.32548 5.92824 5.31858 5.93491 5.31169C6.03832 5.20518 6.16127 5.08215 6.32171 4.93417C6.4678 4.79924 6.63299 4.71237 6.68515 4.73533C6.73743 4.75846 6.65836 4.87947 6.51375 5.01064C6.36391 5.14669 6.24954 5.25891 6.14664 5.3628C6.14014 5.3694 6.13365 5.37601 6.12717 5.38263C6.02028 5.49128 5.92109 5.59599 5.81461 5.70899C5.77897 5.74682 5.74232 5.7859 5.70821 5.82252C5.64768 5.88927 5.58046 5.96678 5.50204 6.06104C5.4863 6.07996 5.47004 6.09945 5.45359 6.11952C5.34803 6.24832 5.22787 6.40069 5.09632 6.57468C4.78935 6.98315 4.41129 7.50691 3.97384 8.24144C3.85973 8.43388 3.75458 8.62529 3.6576 8.81401C3.21241 9.68648 2.91546 10.5154 2.66689 11.4321C2.63314 11.5581 2.60088 11.6796 2.5687 11.8107C2.47985 12.1887 2.36695 12.648 2.32629 13.5412C2.32558 13.5607 2.32487 13.5804 2.32417 13.6004C2.28941 14.5842 2.26219 16.019 2.25977 18.2265C2.25921 18.9925 2.33455 19.8624 2.56055 20.8175C2.70159 21.4125 2.88963 22.0464 3.15531 22.6986C3.25689 22.9479 3.36942 23.1987 3.49482 23.4511C3.95234 24.3706 4.59335 25.342 5.52829 26.2587C6.67706 27.3674 7.61905 27.8785 8.39653 28.2569C8.42361 28.2697 8.45075 28.2824 8.47794 28.295C8.51167 28.3107 8.54525 28.3261 8.57859 28.3413C9.73555 28.8991 11.6166 29.4412 13.048 29.6016C13.3072 29.6361 13.5514 29.6588 13.7971 29.6726C14.4533 29.7065 15.0815 29.7303 15.8226 29.7567C16.3345 29.775 16.8815 29.772 17.7213 29.7674C17.9571 29.7661 18.2163 29.7649 18.5039 29.7638C19.7942 29.7588 21.5962 29.761 24.3492 29.8152C25.0669 29.8293 25.7127 29.834 26.3161 29.8384C26.5036 29.8397 26.6875 29.8411 26.8676 29.8427C27.618 29.8493 28.3165 29.8599 28.9676 29.8977C29.5028 29.9288 30.6879 29.982 32.0038 30.0115C33.3291 30.0411 34.7362 30.0456 35.7416 29.9862C35.8462 29.98 35.9516 29.9739 36.0569 29.9678C36.964 29.9148 37.8887 29.8609 38.6333 29.7711C40.2925 29.4905 42.6208 29.4025 45.0328 29.3892C47.2219 29.3977 49.4474 28.715 50.9764 27.7556C51.0166 27.7311 51.0566 27.7062 51.0964 27.6812C54.6602 25.4062 55.618 22.1872 55.881 21.2668C55.8938 21.2206 55.9052 21.1785 55.9153 21.1405C55.9243 21.1067 55.9321 21.0759 55.9391 21.0489C56.0425 20.6443 56.1082 20.2792 56.1588 19.8943C56.1616 19.8733 56.1642 19.8524 56.1668 19.8315C56.2171 19.4255 56.2511 18.9951 56.2637 18.4883C56.2658 18.4005 56.2669 18.3133 56.2669 18.2266C56.2681 16.4039 56.2613 14.8783 56.2535 13.5412C56.2529 13.4451 56.2511 13.3504 56.2481 13.2571C56.2404 13.0114 56.225 12.7712 56.2028 12.5395C56.2028 12.5388 56.2027 12.5381 56.2026 12.5374C56.1041 11.5188 55.8852 10.6313 55.601 9.82112C55.0701 8.3428 54.4515 7.45749 53.9533 6.80727C53.7944 6.6037 53.641 6.42206 53.4916 6.25466C53.1683 5.89329 52.8656 5.59665 52.5421 5.30426C51.9323 4.75538 51.3099 4.32139 50.6658 3.95553C50.6084 3.92298 50.5508 3.89088 50.4929 3.8594C49.7871 3.47644 49.0504 3.17016 48.249 2.92732C48.0635 2.87113 47.9179 2.79002 47.9268 2.73957C47.9359 2.6894 48.0991 2.68929 48.2882 2.74624C49.0801 2.98526 49.8121 3.28433 50.5315 3.66982C50.5909 3.7017 50.6503 3.73416 50.7094 3.76728C51.3643 4.13492 52.011 4.58063 52.6437 5.14734C52.9614 5.43319 53.2535 5.71633 53.5782 6.07407C53.7329 6.24509 53.8946 6.4337 54.0658 6.65088C54.5832 7.31943 55.2234 8.22926 55.7704 9.74604C56.0567 10.5595 56.2794 11.4489 56.383 12.4837C56.4064 12.7202 56.4233 12.9673 56.4319 13.2195C56.4355 13.325 56.4377 13.4322 56.4384 13.5412C56.4461 14.8771 56.4528 16.4039 56.4516 18.2266C56.4515 18.3111 56.4505 18.396 56.4486 18.4814C56.4368 18.9678 56.4067 19.3825 56.3581 19.7943C56.3553 19.8173 56.3524 19.8404 56.3495 19.8634C56.3006 20.2509 56.2328 20.6436 56.1222 21.0782C56.1074 21.1364 56.0878 21.2108 56.0633 21.2997C55.7972 22.2368 54.8239 25.5253 51.186 27.8428C51.1749 27.8498 51.1638 27.8567 51.1527 27.8636C48.7142 29.3259 47.043 29.4518 45.8698 29.6151C45.5677 29.6484 45.2928 29.6654 45.0328 29.6722C44.4304 29.6866 43.9317 29.6919 43.4977 29.6949C43.3763 29.6957 43.2615 29.6965 43.152 29.6972C42.6789 29.6999 42.3051 29.7021 41.9315 29.7149C40.8012 29.7536 39.9907 29.817 39.01 29.9353C38.1786 30.0355 37.1601 30.0949 36.2679 30.1468C36.2666 30.1469 36.2652 30.1469 36.2639 30.147C36.158 30.1532 36.0538 30.1592 35.952 30.1652ZM8.64804 3.23013C8.83006 3.14066 8.99501 3.11222 9.01451 3.15915C9.03373 3.20649 8.90272 3.31035 8.72407 3.39834C8.29892 3.60734 7.88583 3.8438 7.48949 4.10495C7.32329 4.21433 7.16888 4.27381 7.1405 4.2314C7.11232 4.18904 7.22356 4.05901 7.39299 3.94759C7.79592 3.6824 8.21581 3.44234 8.64804 3.23013ZM36.867 31.0833C36.653 31.0937 36.4398 31.0614 36.3912 31.0115C36.3428 30.9616 36.4772 30.9128 36.691 30.9025C36.8041 30.8971 36.99 30.8872 37.2402 30.8739C38.5177 30.8058 41.4756 30.6483 45.0328 30.5338C46.4727 30.4892 47.9949 30.1897 49.4314 29.6067C49.8468 29.4386 50.2096 29.2656 50.5477 29.0867C51.9481 28.2732 53.1143 27.5256 54.9432 25.0381C56.321 23.0535 57.0788 20.6494 57.0878 18.2266C57.0971 16.6646 57.1077 15.1028 57.1187 13.5412C57.3319 7.10626 51.5263 1.19733 45.0328 1.36605C42.1676 1.37033 39.3029 1.38664 36.4386 1.42082C32.5494 1.46724 28.6724 1.47418 24.7802 1.47108C21.5361 1.4685 15.5895 1.37388 14.1903 1.36419C13.9709 1.36267 13.7948 1.32008 13.7971 1.26913C13.7994 1.2182 13.979 1.17824 14.1984 1.17975C15.5877 1.18937 21.5144 1.28385 24.7464 1.28641C28.6311 1.2895 32.5002 1.2827 36.3819 1.23638C39.2639 1.20198 42.1478 1.17543 45.0328 1.15515C51.6283 0.942294 57.6435 6.90658 57.4781 13.5412C57.4781 15.103 57.4772 16.6648 57.4757 18.2266C57.48 20.7324 56.6998 23.2305 55.2694 25.2842C53.3822 27.8367 52.0984 28.39 50.6952 29.2178C50.3523 29.4018 49.9827 29.5806 49.5582 29.7549C48.08 30.3638 46.5111 30.675 45.0328 30.7206C41.5823 30.8331 38.7154 30.9856 37.4386 31.0535C37.1805 31.0673 36.9866 31.0776 36.867 31.0833ZM26.6641 31.0062C24.2148 31.0202 20.7331 30.9953 17.6904 30.9735C16.2397 30.9631 14.8887 30.9532 13.7971 30.9488C13.7715 30.9487 13.7461 30.9485 13.7209 30.9482C11.9769 30.916 10.9017 30.6001 9.88829 30.2372C9.8774 30.2332 9.86651 30.2291 9.85563 30.2251C8.85146 29.8353 7.85702 29.3897 6.43979 28.373C5.016 27.3548 3.27526 25.5481 2.26887 23.2842C2.26809 23.2824 2.26732 23.2807 2.26655 23.2789C1.50999 21.6321 1.10737 19.8011 1.08165 18.2265C1.06965 17.6808 1.06259 17.1689 1.06444 16.7036C1.06896 15.5713 1.07687 14.5182 1.08738 13.5412C1.20037 9.01248 3.27795 6.56712 4.29756 5.44463C6.55781 2.9565 10.221 1.01303 13.6846 1.25917C14.0597 1.31039 13.4301 1.43243 12.7485 1.45206C12.7238 1.45303 12.6992 1.45407 12.6746 1.45518C12.4404 1.46642 12.2325 1.48151 11.9458 1.51777C11.5277 1.57643 11.222 1.6417 10.9436 1.70777C10.5813 1.79015 9.11971 2.16053 7.69905 2.97295C6.26207 3.7559 4.95421 4.98553 4.33509 5.68C3.39447 6.74678 1.53167 9.16597 1.47613 13.5412C1.47775 14.5201 1.47724 15.579 1.47268 16.7214C1.47084 17.1809 1.46259 17.6865 1.45195 18.2265C1.41435 19.7226 1.67275 21.5214 2.41494 23.1578C2.41766 23.1639 2.42038 23.1699 2.4231 23.176C3.39934 25.3936 5.11907 27.2026 6.54649 28.2222C7.9932 29.2608 9.02294 29.7103 10.0293 30.0902C10.0392 30.0938 10.0491 30.0974 10.0589 30.101C11.0511 30.4461 12.0643 30.7325 13.7197 30.7638C13.7453 30.764 13.7711 30.7642 13.7971 30.7643C14.912 30.7688 16.2783 30.7785 17.738 30.789C20.7676 30.8108 24.2008 30.8356 26.6292 30.8218C26.8483 30.8206 27.034 30.8609 27.0436 30.9118C27.0531 30.9628 26.8832 31.005 26.6641 31.0062ZM26.6137 32.1559C22.3425 32.2828 18.0565 32.3089 13.7971 32.2587C10.8747 32.2381 7.98453 31.2302 5.71901 29.4908C4.11836 28.3628 2.18882 26.2927 1.12429 23.7593C1.11211 23.7309 1.10003 23.7024 1.08804 23.6739C0.311792 21.8594 -0.0143601 19.8862 0.00136423 18.2265C0.00417876 17.6653 0.00660253 17.1412 0.00849295 16.6675C0.0129535 15.5496 0.0176898 14.5084 0.0230377 13.5412C0.115499 8.61225 2.34095 5.88559 3.45892 4.65682C4.84167 3.25246 5.32605 2.9835 5.96631 2.49747C5.98424 2.48482 6.00221 2.47222 6.02021 2.45966C6.02131 2.4587 6.0224 2.45775 6.0235 2.45679C6.04473 2.43897 6.06299 2.4246 6.07246 2.41729C6.09175 2.40241 6.10782 2.39077 6.11383 2.38642C6.12774 2.37634 6.13959 2.36817 6.14379 2.36525C6.16098 2.35329 6.18078 2.33983 6.19361 2.33124C6.31189 2.25052 6.6916 2.0086 7.00352 1.83804C7.32305 1.66187 7.55764 1.5504 7.80754 1.43829C7.83287 1.427 7.85823 1.4158 7.88364 1.40466C8.10945 1.3061 8.35726 1.20219 8.71813 1.06731C8.93831 0.985411 9.11147 0.971994 9.10201 1.02915C9.09248 1.08655 8.90764 1.19325 8.69191 1.27564C8.31772 1.41866 8.06002 1.52992 7.83647 1.63022C7.81173 1.64135 7.78702 1.65256 7.76234 1.66385C7.52775 1.7719 7.3239 1.87173 7.04528 2.02675C6.64469 2.25624 6.35913 2.44734 6.10237 2.62768C5.44774 3.12238 4.89847 3.43411 3.48643 4.90268C2.46072 6.06936 0.306884 8.67752 0.207512 13.5412C0.202169 14.5043 0.19741 15.5444 0.192937 16.6652C0.191044 17.1397 0.188618 17.6647 0.185802 18.2265C0.170137 19.8667 0.49289 21.8142 1.25828 23.6029C1.27051 23.6318 1.28284 23.6606 1.29526 23.6894C2.3469 26.1897 4.24921 28.2286 5.82457 29.3395C8.13232 31.0186 10.9742 31.9142 13.7971 31.9006C18.0403 31.892 22.2752 31.8879 26.5781 31.9714C27.8519 31.9642 29.016 31.9613 30.0947 31.9587C33.269 31.951 35.7051 31.945 38.0273 31.8329C38.5365 31.8084 39.871 31.7875 41.7996 31.7615C42.3648 31.7539 42.9847 31.7459 43.6548 31.7372C44.0929 31.7315 44.5526 31.7255 45.0328 31.7192C46.4566 31.7027 48.053 31.4567 49.6699 30.8361C50.1319 30.6587 50.5347 30.4754 50.9101 30.2853C52.464 29.4182 53.8216 28.7311 55.9101 25.9997C57.2574 24.1918 58.4605 21.207 58.4377 18.2266C58.4488 16.5569 58.4613 14.9301 58.4733 13.5412C58.4785 12.8906 58.4373 12.2937 58.3716 11.7597C58.1207 9.86484 57.6929 8.84919 57.4132 8.14186C57.3312 7.94489 57.2554 7.77409 57.1828 7.61797C56.992 7.21081 56.8301 6.90074 56.5967 6.50721C54.8419 3.74452 52.964 2.05298 49.4198 0.772256C49.1957 0.698013 49.0091 0.60067 49.007 0.546794C49.0043 0.492988 49.1895 0.502508 49.4179 0.576741C53.0219 1.85906 54.9669 3.58706 56.7654 6.42952C57.0118 6.8463 57.1858 7.1836 57.3804 7.60485C57.4519 7.76079 57.5256 7.92878 57.6036 8.11843C57.8796 8.82465 58.3066 9.84428 58.5571 11.7553C58.6223 12.291 58.6631 12.8894 58.6579 13.5412C58.6459 14.929 58.6335 16.5563 58.6223 18.2266C58.6458 21.2445 57.4279 24.269 56.0664 26.0986C53.9722 28.8419 52.6271 29.5308 51.0621 30.4156C50.6816 30.611 50.2723 30.8002 49.801 30.9839C48.1387 31.6319 46.4939 31.8878 45.0328 31.9043C44.5729 31.9104 44.1321 31.9161 43.7115 31.9216C43.0424 31.9304 42.4238 31.9384 41.8609 31.946C39.8935 31.9725 38.6395 31.9927 38.2033 32.0137C35.7996 32.1297 33.2577 32.1359 30.054 32.1436C28.9871 32.1462 27.8466 32.1489 26.6137 32.1559ZM36.5871 0.00189531C36.806 -0.0007056 36.9958 0.0385553 37.0114 0.0894552C37.0268 0.140345 36.8621 0.183728 36.6433 0.18634C35.4874 0.200135 34.6564 0.211515 34.0067 0.220454C32.8044 0.237 32.2233 0.245067 31.353 0.243652C29.1063 0.239997 26.9371 0.238154 24.9854 0.236602C21.7414 0.234021 19.0975 0.231962 17.6983 0.222274C17.4789 0.220744 17.3028 0.178153 17.305 0.127208C17.3075 0.0763126 17.4871 0.0363324 17.7063 0.0378289C19.0956 0.0474492 21.7197 0.0495909 24.9516 0.052157C26.9055 0.0537084 29.0819 0.0553026 31.3427 0.0589798C32.1867 0.0603529 32.7354 0.0528885 33.911 0.0366918C34.56 0.0277507 35.4003 0.016058 36.5871 0.00189531Z" fill="#E3AD59"/>
<path d="M31.2874 12.9177C31.2874 12.752 31.2215 12.5931 31.1044 12.4759C30.9872 12.3588 30.8283 12.293 30.6626 12.293C30.497 12.293 30.3381 12.3588 30.2209 12.4759C30.1037 12.5931 30.0379 12.752 30.0379 12.9177V14.7918H28.1638C27.9981 14.7918 27.8392 14.8576 27.722 14.9748C27.6049 15.092 27.5391 15.2509 27.5391 15.4165C27.5391 15.5822 27.6049 15.7411 27.722 15.8583C27.8392 15.9754 27.9981 16.0413 28.1638 16.0413H30.0379V17.9154C30.0379 18.0811 30.1037 18.24 30.2209 18.3571C30.3381 18.4743 30.497 18.5401 30.6626 18.5401C30.8283 18.5401 30.9872 18.4743 31.1044 18.3571C31.2215 18.24 31.2874 18.0811 31.2874 17.9154V16.0413H33.1615C33.3272 16.0413 33.4861 15.9754 33.6032 15.8583C33.7204 15.7411 33.7862 15.5822 33.7862 15.4165C33.7862 15.2509 33.7204 15.092 33.6032 14.9748C33.4861 14.8576 33.3272 14.7918 33.1615 14.7918H31.2874V12.9177Z" fill="#E3AD59"/>
<path d="M20.6696 7.29688C20.504 7.29688 20.3451 7.36269 20.2279 7.47985C20.1107 7.59701 20.0449 7.75591 20.0449 7.92159C20.0449 8.08728 20.1107 8.24617 20.2279 8.36333C20.3451 8.48049 20.504 8.54631 20.6696 8.54631H22.0565L22.5575 10.5541L24.4292 20.5308C24.456 20.674 24.5319 20.8033 24.644 20.8964C24.756 20.9895 24.897 21.0405 25.0426 21.0406H26.2921C25.6293 21.0406 24.9937 21.3039 24.5251 21.7725C24.0565 22.2411 23.7932 22.8767 23.7932 23.5395C23.7932 24.2022 24.0565 24.8378 24.5251 25.3064C24.9937 25.7751 25.6293 26.0383 26.2921 26.0383C26.9548 26.0383 27.5904 25.7751 28.059 25.3064C28.5277 24.8378 28.7909 24.2022 28.7909 23.5395C28.7909 22.8767 28.5277 22.2411 28.059 21.7725C27.5904 21.3039 26.9548 21.0406 26.2921 21.0406H35.0381C34.3754 21.0406 33.7398 21.3039 33.2711 21.7725C32.8025 22.2411 32.5392 22.8767 32.5392 23.5395C32.5392 24.2022 32.8025 24.8378 33.2711 25.3064C33.7398 25.7751 34.3754 26.0383 35.0381 26.0383C35.7008 26.0383 36.3364 25.7751 36.8051 25.3064C37.2737 24.8378 37.537 24.2022 37.537 23.5395C37.537 22.8767 37.2737 22.2411 36.8051 21.7725C36.3364 21.3039 35.7008 21.0406 35.0381 21.0406H36.2875C36.4332 21.0405 36.5742 20.9895 36.6862 20.8964C36.7982 20.8033 36.8742 20.674 36.901 20.5308L38.7751 10.5354C38.792 10.4452 38.7888 10.3525 38.7658 10.2637C38.7428 10.1749 38.7005 10.0922 38.6419 10.0216C38.5834 9.95103 38.51 9.89419 38.427 9.85515C38.344 9.81611 38.2534 9.79582 38.1617 9.79574H23.6558L23.1498 7.77041C23.116 7.6352 23.0381 7.51515 22.9283 7.42935C22.8185 7.34354 22.6831 7.29691 22.5438 7.29688H20.6696ZM25.5612 19.7912L23.9207 11.0452H37.4095L35.769 19.7912H25.5612ZM27.5415 23.5395C27.5415 23.8708 27.4099 24.1886 27.1756 24.423C26.9412 24.6573 26.6234 24.7889 26.2921 24.7889C25.9607 24.7889 25.6429 24.6573 25.4086 24.423C25.1743 24.1886 25.0426 23.8708 25.0426 23.5395C25.0426 23.2081 25.1743 22.8903 25.4086 22.656C25.6429 22.4217 25.9607 22.29 26.2921 22.29C26.6234 22.29 26.9412 22.4217 27.1756 22.656C27.4099 22.8903 27.5415 23.2081 27.5415 23.5395ZM36.2875 23.5395C36.2875 23.8708 36.1559 24.1886 35.9216 24.423C35.6873 24.6573 35.3695 24.7889 35.0381 24.7889C34.7067 24.7889 34.3889 24.6573 34.1546 24.423C33.9203 24.1886 33.7887 23.8708 33.7887 23.5395C33.7887 23.2081 33.9203 22.8903 34.1546 22.656C34.3889 22.4217 34.7067 22.29 35.0381 22.29C35.3695 22.29 35.6873 22.4217 35.9216 22.656C36.1559 22.8903 36.2875 23.2081 36.2875 23.5395Z" fill="#E3AD59"/>
</svg>
