<svg width="618" height="234" viewBox="0 0 618 234" fill="none" xmlns="http://www.w3.org/2000/svg">
<path d="M562.857 0.516571C562.821 0.956389 562.801 1.39905 562.801 1.84372C562.801 17.7214 586.589 30.6392 616.215 31.0361V203.615C586.589 204.012 562.802 216.93 562.801 232.808H56.7832C56.7819 216.68 32.2395 203.606 1.96484 203.606C1.49535 203.606 1.02722 203.609 0.560547 203.615V31.0361C1.02722 31.0424 1.49534 31.0459 1.96484 31.0459C32.24 31.0459 56.7828 17.9716 56.7832 1.84372C56.7832 1.39904 56.7635 0.956402 56.7266 0.516571H562.857Z" fill="#1B1A18"/>
<path d="M569.468 13.5009C575.282 20.0079 586.428 24.7975 595.064 26.8791C597.785 27.5419 596.381 27.3045 598.278 27.7267C601.982 28.5137 605.496 28.9584 609.23 29.3118C610.47 29.4243 608.913 29.4398 610.216 29.5503C612.24 29.7146 614.233 29.8079 616.231 29.8402L617.408 29.8536L617.411 31.0361C617.397 36.1186 617.409 41.1279 617.388 46.3863C617.245 82.5416 617.194 118.081 617.132 154.679C617.112 166.746 616.988 181.415 617.042 193.88C617.048 195.335 617.168 194.467 617.178 194.744C617.329 199.086 617.087 197.642 617.055 200.477C617.043 201.513 617.033 202.56 617.023 203.615L617.025 204.411L616.226 204.423C605.903 204.434 594.742 206.286 585.683 209.873C581.48 211.62 585.761 210.04 581.536 211.789C581.245 211.917 582.231 211.307 581.102 211.831C578.511 212.966 573.956 215.844 572.313 217.264C569.109 219.976 568.588 220.483 566.334 223.694C564.685 226.22 563.444 229.443 563.451 232.808L563.452 233.456L562.801 233.457C560.113 233.448 557.408 233.443 554.824 233.455C553.557 233.462 555.235 233.592 553.214 233.614C551.191 233.637 545.84 233.625 544.035 233.595C542.231 233.564 542.999 233.462 542.68 233.438C540.053 233.24 533.862 233.514 533.066 233.521C518.545 233.637 506.092 233.48 492.46 233.481C482.112 233.482 471.047 233.533 461.201 233.526C449.47 233.517 439.528 233.447 428.132 233.459C426.929 233.46 428.338 233.613 426.869 233.615C411.263 233.633 395.765 233.616 380.225 233.512C378.667 233.502 380.675 233.367 379.118 233.349C369.586 233.238 354.503 232.973 348.841 233.558C342.384 233.536 334.545 233.512 328.768 233.394C325.044 233.318 328.661 233.171 324.086 233.234C323.054 233.248 324.396 233.376 322.848 233.387C316.333 233.434 309.215 233.393 302.769 233.459C301.458 233.473 301.816 233.588 301.445 233.608C298.323 233.776 293.126 233.499 291.993 233.479C283.366 233.329 277.066 233.388 269.029 233.384C267.163 233.383 269.368 233.538 267.573 233.542C258.266 233.564 248.624 233.551 239.51 233.483C237.483 233.467 239.347 233.335 238.378 233.321C234.107 233.26 233.16 233.509 229.063 233.455C228.199 233.444 228.686 233.331 228.528 233.319C226.063 233.125 223.92 233.4 223.286 233.406C215.264 233.489 210.136 233.202 202.386 233.242C201.459 233.248 203.55 233.39 200.944 233.396C183.581 233.435 165.218 233.396 148.032 233.282C145.36 233.265 147.267 233.157 147.099 233.144C144.358 232.938 142.585 233.214 141.714 233.225C134.84 233.3 128.419 233.068 123.749 233.397C101.352 233.309 79.0341 233.398 56.7832 233.31L56.282 233.311L56.281 232.808C56.3479 226.214 51.9451 220.45 46.8026 216.463C46.5166 216.241 47.1179 216.526 46.5427 216.083C39.3045 211.101 40.4709 212.387 35.1301 210.217C33.7848 209.69 29.6666 207.955 29.2963 207.848C27.9451 207.349 29.4321 207.589 28.9753 207.433C25.1709 206.219 25.6292 206.971 20.3974 205.89C20.2341 205.857 20.9435 205.869 20.5076 205.772C19.1499 205.472 17.7664 205.289 16.4206 205.05C13.3379 204.532 12.2428 204.032 7.44117 203.929C6.836 203.941 7.74198 204.286 2.96113 204.176C2.72317 204.173 2.3833 204.17 1.96484 204.169C1.56319 204.169 1.09015 204.17 0.568068 204.177L0.000242114 204.185L-0.000894129 203.615C0.0016225 200.311 0.0024575 195.029 0.0210494 193.232C0.045635 190.856 0.168038 192.488 0.173338 192.318C0.335194 185.916 0.402276 188.344 0.641903 185.136C0.880627 181.929 0.311249 182.818 0.247698 181.511C0.184327 180.201 0.31787 175.507 0.364294 174.353C0.410738 173.201 0.488516 174.638 0.514798 173.613C0.686513 166.816 0.232179 170.63 0.14181 168.39C-0.0721686 163.109 0.350084 158.997 0.39146 154.162C0.402634 152.854 0.306463 153.922 0.297469 152.757C0.263122 148.144 0.394877 145.37 0.274071 140.121C0.254385 139.263 0.000514567 135.02 0.186822 132.274C0.213687 131.885 0.318912 132.99 0.342482 131.024C0.377855 128.087 0.400854 122.795 0.365682 119.638C0.339659 117.307 0.166274 119.979 0.220135 117.045C0.244185 115.741 0.345617 118.158 0.382338 115.708C0.419049 113.271 0.414593 107.041 0.411091 104.67C0.407511 102.304 0.27599 103.599 0.26713 103.408C0.216375 102.251 0.152956 97.7093 0.153112 97.3079C0.137057 77.0646 0.358749 58.3971 0.285373 38.6875C0.279806 37.1408 0.141114 38.1711 0.138835 37.9351C0.0807266 32.64 0.449473 36.8148 0.572898 33.1158C0.390006 33.4633 0.347483 32.6628 0.331658 31.0361L0.331197 30.8046L0.563613 30.8072C0.978717 30.8087 1.44761 30.8106 1.96484 30.8082C2.54138 30.8055 3.17571 30.7978 3.85887 30.7797C5.64352 30.7251 4.66997 30.6363 4.83163 30.6222C7.48573 30.3827 9.33717 30.4463 9.81472 30.4556C11.5881 30.4838 13.4713 30.0878 14.6745 30.0414C15.8756 29.9888 13.1577 30.5231 16.7049 30.0277C17.6803 29.7786 15.0241 29.9156 17.6906 29.4643C27.821 28.2338 46.0954 21.132 51.167 14.3027C55.8761 8.83579 56.3262 5.58515 56.5208 1.84371C56.5232 1.42246 56.5082 0.989023 56.4737 0.537797L56.4501 0.263379L56.7266 0.262829C56.8139 0.263466 56.9019 0.264122 56.9907 0.264796C65.6457 0.330629 62.4738 0.135293 67.848 0.0458811C73.2378 -0.0435197 70.6177 0.437102 71.3924 0.540423C72.1529 0.643697 72.9834 0.537387 73.9295 0.59416C74.8725 0.65092 72.831 0.72117 75.0488 0.742483C77.2679 0.763775 83.3349 0.580045 84.1214 0.472012C85.7842 0.243135 83.0503 0.00292009 88.922 0.0873242C89.2596 0.0923332 88.1637 0.218711 89.4568 0.231483C99.727 0.328773 110.397 0.334804 120.654 0.420852C122.065 0.432882 120.803 0.573473 121.624 0.582064C130.174 0.671989 127.118 0.434935 131.804 0.171599C130.752 0.522043 133.343 0.736448 139.832 0.738517C143.732 0.739884 143.061 0.586827 145.584 0.478952C146.341 0.446433 149.101 0.551527 149.601 0.479547C151.25 0.244253 148.65 -0.019144 155.34 0.0857379C155.634 0.0907222 154.699 0.219519 155.713 0.227319C162.269 0.278374 163.054 0.0322601 170.14 0.002455C175.695 -0.0209318 185.573 0.129146 191.898 0.153554C191.765 0.547556 197.739 0.457334 200.162 0.185677C204.267 0.196799 208.7 0.181442 212.667 0.21899C214.033 0.231792 213.136 0.345866 213.308 0.358192C215.948 0.551546 217.732 0.287253 218.618 0.276892C228.221 0.176171 236.044 0.376483 245.208 0.18072C245.533 0.173669 246.06 -0.100017 248.51 0.0998166C248.668 0.113591 245.642 0.238114 249.953 0.247743C254.264 0.257394 262.392 0.404109 268.378 0.277288C269.826 0.246757 273.49 0.0245797 276.43 0.19817C276.822 0.221742 276.393 0.300236 276.959 0.343915C278.787 0.483093 279.785 0.206465 281.934 0.441475C284.082 0.676474 288.551 0.852472 294.588 0.690332C294.78 0.685618 296.209 0.466364 298.108 0.469831C301.138 0.475553 305.44 0.521228 308.604 0.5198C310.119 0.519038 309.149 0.382891 309.413 0.380401C319.599 0.304109 326.849 0.425483 337.762 0.478159C339.762 0.488085 345.511 0.302428 349.384 0.449208C353.637 0.609886 349.267 1.27828 359.041 1.11904C362.984 1.05535 367.975 0.207368 375.06 0.646708C388.8 0.537842 401.507 0.762695 415.286 0.607247C415.906 0.60036 417.865 0.363696 419.322 0.366917C421.485 0.372157 422.672 0.48277 424.216 0.490056C430.686 0.523375 436.607 0.428738 442.846 0.443458C445.215 0.448806 444.386 0.563179 447.211 0.569572C450.035 0.575857 451.917 0.42525 455.743 0.497988C458.632 0.553432 461.521 0.861269 465.356 0.897151C465.503 0.593503 468.137 0.599758 472.819 0.519602C473.718 0.50405 472.753 0.398364 473.179 0.385556C474.912 0.331086 476.515 0.418676 478.16 0.359382C478.56 0.345141 478.579 0.241443 478.906 0.223948C481.688 0.0712337 486.271 0.304491 487.059 0.345105C490.075 0.499346 491.485 0.364475 493.799 0.425215C496.109 0.485946 492.655 0.561866 495.354 0.598721C500.948 0.67495 508.135 0.658202 513.816 0.662968C516.083 0.664229 514.536 0.525808 514.861 0.522775C519.548 0.487667 524.288 0.634907 526.887 0.359183C530.137 1.0721 529.714 0.290034 536.414 0.43275C536.941 0.444293 537.613 0.781427 535.587 0.830921C533.56 0.880369 530.488 0.774986 527.677 0.852139C527.011 0.870245 523.198 1.18616 522.677 1.2053C518.602 1.35486 518.024 0.851057 517.808 0.823386C515.363 0.524768 510.703 0.865108 509.476 0.888625C503.862 0.996381 499.092 0.92553 494.396 1.00244C491.325 1.05216 491.025 1.38216 488.613 1.37206C480.597 1.33867 477.798 0.878311 470.244 1.27748C468.624 1.36261 470.234 1.7233 464.43 1.43968C464.065 1.4218 459.756 1.16234 457.266 1.32645C456.954 1.34715 456.964 1.45226 456.551 1.4611C453.788 1.51821 451.944 1.43447 448.934 1.47458C445.923 1.51469 442.303 1.57448 438.866 1.53883C436.795 1.51751 434.137 1.32166 433.145 1.27371C430.345 1.13558 427.343 1.36205 425.609 1.19479C423.86 1.02668 427.279 0.771387 422.692 0.662769C422.523 0.935873 422.132 1.21619 421.859 1.49084C411.807 1.48122 401.916 1.39291 391.831 1.40498C390.58 1.40675 391.859 1.55357 390.519 1.55925C384.863 1.58257 379.923 1.47791 374.059 1.51959C369.519 1.55242 364.541 1.70787 359.794 1.74703C356.894 1.43453 349.85 1.54061 344.733 1.51206C342.94 1.50219 343.06 1.41872 341.785 1.39149C336.976 1.29079 339.23 1.56695 337.911 1.61041C332.255 1.79589 331.77 1.17082 325.101 1.18626C324.748 1.18687 320.429 1.52006 319.834 1.54081C316.055 1.67611 319.209 1.42484 316.843 1.40022C312.525 1.35523 309.524 1.27566 304.456 1.37325C302.979 1.40216 299.435 1.60983 296.565 1.4492C296.188 1.42816 296.397 1.31803 296.093 1.31158C290.593 1.20407 290.449 1.55012 287.306 1.66732C284.163 1.78449 279.309 1.54561 278.321 1.47676C275.736 1.29865 280.301 1.40064 280.441 1.38317C282.085 1.17517 278.545 1.21098 275.84 1.1934C275.448 0.854095 271.665 0.874462 273.035 1.17655C273.191 1.20954 275.296 1.1779 275.84 1.1934C273.465 1.5263 269.307 1.56894 264.715 1.25785C262.565 1.11204 264.597 0.942038 258.068 1.00423C255.104 1.0323 256.249 1.26593 253.634 1.32963C247.659 1.47495 239.895 1.25702 233.735 1.29136C231.5 1.30382 233.677 1.43171 232.149 1.44464C228.095 1.47934 224.519 1.38339 220.446 1.43254C220.078 1.43716 220.979 1.57103 219.713 1.57273C210.113 1.58828 201.753 1.50254 191.73 1.50016C186.887 1.49907 178.229 1.5729 173.212 1.55806C164.517 1.53312 153.82 1.33845 146.392 1.38574C141.547 1.41602 142.61 1.54991 140.534 1.64114C136.529 1.81799 129.438 1.50122 128.483 1.45217C128.454 1.45055 132.623 1.41898 130.398 1.35025C129.105 1.20703 128.53 1.45155 128.483 1.45217C127.856 1.42049 119.528 1.39009 117.875 1.41569C116.976 1.42967 117.479 1.55654 117.01 1.56143C105.874 1.67496 94.7192 1.7072 83.4249 1.64789C83.2262 1.64532 83.5256 1.50342 83.0581 1.49917C76.5195 1.43607 72.3328 1.60966 66.9401 1.71273C62.9195 1.78955 59.5194 1.7899 56.7266 1.6841L57.89 0.418905C57.9138 0.909853 57.9131 1.38582 57.8898 1.84372C57.8648 2.33606 57.815 2.80332 57.746 3.24538C57.6143 7.69958 54.1844 13.1118 51.6865 15.4655C49.2341 17.8938 48.9424 18.298 48.7312 18.5211C41.3115 24.4547 35.9782 26.3826 26.7129 29.0331C22.2803 30.3133 13.2449 31.7731 8.26871 32.0022C5.78427 32.1642 3.92424 32.1834 1.96484 32.1797C1.49933 32.1782 1.02938 32.174 0.54538 32.1683L1.6928 31.0361C1.6938 31.7233 1.69779 32.4403 1.70673 33.2154C1.71226 33.7003 1.83525 33.2104 1.83999 33.3584C1.98714 37.359 1.68647 35.4363 1.63277 36.2623C1.4375 39.257 1.33349 41.1071 1.42536 46.2304C1.4464 47.4121 1.87931 50.8543 1.90463 53.0084C1.93675 55.8091 1.78158 54.752 1.81917 57.6846C1.82224 57.9355 1.91797 57.8833 1.91375 59.6931C1.89542 68.0944 1.83971 77.2539 1.84931 85.9843C1.85025 87.1769 2.0021 85.6479 2.00596 87.371C2.02396 95.4561 2.01834 104.318 1.94726 112.195C1.92929 114.133 1.82297 112.918 1.79141 113.339C1.6004 115.923 1.87793 119.587 1.88321 120.192C2.01658 134.613 1.76542 145.651 1.885 160.35C1.89202 161.15 2.18954 167.309 1.93437 170.057C1.9174 170.245 1.65634 172.963 1.83483 175.367C1.846 175.516 1.98039 173.822 1.9667 176.779C1.95303 179.735 2.04278 184.493 1.89511 188.556C1.8486 189.843 1.58818 192.883 1.79577 196.721C1.80775 196.928 2.13049 201.011 2.05922 203.615L0.540471 202.117C1.09653 202.124 1.58441 202.155 1.95511 202.211C1.95842 202.212 1.96166 202.212 1.96484 202.213C2.29786 202.288 1.98538 202.544 6.57384 202.532C7.45895 202.541 5.85525 202.379 8.19001 202.457C11.7693 202.586 16.4863 203.196 20.8381 203.888C21.6026 203.999 24.8698 204.435 27.3701 205.316C27.7589 205.453 26.9798 205.351 28.3059 205.739C34.6171 207.616 41.1759 210.252 46.6788 214.261C48.612 215.728 47.5273 215.105 49.4198 216.747C51.3493 218.357 54.6642 222.279 55.8442 224.718C57.0174 227.15 56.2583 224.231 57.6048 228.137C58.0325 229.651 58.2592 231.225 58.2637 232.807L56.7832 231.327C71.9093 231.274 86.9265 231.421 102.053 231.444C104.511 231.447 102.473 231.342 106.095 231.34C119.448 231.332 142.502 231.233 154.088 231.457C163.372 231.637 151.689 231.774 158.783 231.847C162.207 231.881 165.91 231.539 166.737 231.528C174.81 231.418 180.42 231.57 187.686 231.524C189.187 231.514 187.715 231.375 188.992 231.368C193.354 231.344 197.938 231.406 202.107 231.395C203.977 231.389 203.632 231.283 205.353 231.292C209.47 231.31 213.11 231.355 217.124 231.454C217.49 231.463 215.023 231.595 218.069 231.6C222.999 231.607 229.118 231.706 234.79 231.604C236.473 231.574 236.539 231.331 240.157 231.499C240.916 231.534 239.947 231.825 244.161 231.573C244.87 231.532 251.949 231.192 255.423 231.411C256.339 231.469 258.678 231.707 260.702 231.669C260.977 231.663 259.877 231.533 261.554 231.52C267.464 231.478 273.658 231.492 279.73 231.451C281.352 231.44 278.937 231.305 281.353 231.293C287.999 231.259 296.296 231.293 302.794 231.335C305.19 231.351 303.534 231.463 303.708 231.475C306.512 231.672 308.169 231.406 309.1 231.39C314.886 231.297 319.293 231.422 324.627 231.389C326.099 231.38 325.055 231.253 325.348 231.242C328.387 231.131 326.123 231.359 328.047 231.385C333.436 231.456 339.443 231.446 344.893 231.429C346.894 231.423 344.644 231.276 346.441 231.272C357.073 231.247 368.126 231.261 378.503 231.342C380.457 231.358 379.227 231.471 379.634 231.497C382.441 231.678 386.554 231.431 387.501 231.407C391.804 231.3 393.476 231.4 397.276 231.381C415.841 231.288 438.764 231.355 456.288 231.396C479.124 231.449 496.844 231.557 518.621 231.529C520.005 231.527 518.609 231.376 519.802 231.372C534.206 231.338 548.4 231.388 562.801 231.359L561.352 232.807C561.35 231.711 561.452 230.621 561.654 229.546C561.944 228.197 561.338 230.108 561.875 227.943C563.033 223.459 566.688 218.881 570.098 216.129C571.773 214.772 569.619 216.693 571.307 215.352C575.271 212.286 580.007 209.826 584.699 207.968C586.711 207.188 583.614 208.202 586.238 207.219C595.909 203.726 606.053 202.208 616.194 202.076L614.676 203.615C614.694 195.068 614.736 186.493 614.823 177.805C614.836 176.513 615.134 175.379 615.077 172.631C614.994 172.424 614.897 172.436 614.809 172.345C614.761 145.191 614.865 118.314 614.88 91.0839C614.881 89.9358 614.723 91.92 614.724 89.6972C614.726 76.8324 614.682 64.3399 614.839 51.1807C614.855 49.875 615.132 50.5449 615.09 46.6973C615.082 46.0186 615.045 40.2236 614.985 38.7253C614.976 38.5218 614.847 39.5791 614.843 37.7117C614.839 35.5051 614.837 33.2769 614.837 31.0361L616.196 32.4139C607.297 32.2962 598.2 31.009 589.829 28.364C588.134 27.8174 589.981 28.2576 588.781 27.863C580.345 25.0506 571.165 20.4907 565.885 13.3074C562.702 8.3483 564.148 9.98959 563.182 7.07681C562.981 6.68201 562.323 3.13442 562.542 2.93549C562.844 2.46062 563.369 4.08194 563.668 3.36771C563.692 3.30751 563.623 2.55745 563.635 1.8437C563.655 0.794681 563.761 -0.141241 563.781 1.42018C563.783 1.45645 563.782 1.61225 563.788 1.84372C563.768 2.78551 564.134 4.92022 564.375 5.50499C564.557 6.01704 564.434 5.04728 564.784 6.0852C565.158 7.10915 565.47 8.29453 566.456 9.86234C567.514 11.3695 567.06 10.7076 569.468 13.5009ZM38.984 24.0335C36.0896 25.2323 35.8386 25.8651 38.9011 24.3361C39.0464 24.2599 39.131 23.9697 38.984 24.0335ZM401.973 1.02644C397.907 0.812142 395.125 1.12724 397.993 1.29274C400.861 1.45807 403.211 1.0914 401.973 1.02644ZM444.133 0.869985C439.381 0.701023 438.633 1.38998 443.723 1.25071C444.019 1.24284 444.411 0.879796 444.133 0.869985ZM571.606 18.2433C571.555 18.2212 569.645 16.5553 569.608 16.4968C568.477 15.7113 572.317 19.0928 571.606 18.2433ZM485.97 0.699652C484.487 0.606455 480.216 0.71404 482.059 0.82993C483.543 0.923161 487.818 0.815583 485.97 0.699652ZM0.628618 154.032C0.621378 154.081 0.614859 155.884 0.655784 155.848C0.787596 155.725 0.750395 153.216 0.628618 154.032ZM557.077 0.69172C546.572 0.665786 540.202 0.0966716 551.642 0.160891C553.714 0.17251 547.177 0.342377 549.814 0.393686C554.639 0.487163 557.843 0.129828 562.767 0.321309C563.658 0.356357 557.677 0.694464 557.059 0.692513C557.065 0.692249 557.071 0.691984 557.077 0.69172ZM37.1073 24.26C37.0474 24.2926 34.7541 25.2503 34.6898 25.2703C33.497 25.9358 38.1513 24.0038 37.1073 24.26ZM51.714 220.883C51.9187 220.889 55.0772 225.694 54.9906 225.947C55.687 227.28 55.0062 225.212 53.7838 223.341C52.5892 221.457 50.9566 219.84 51.714 220.883ZM191.997 0.164063C194.721 0.00889176 197.979 -0.00937802 200.15 0.185479C197.443 0.175135 194.719 0.173611 191.997 0.164063Z" fill="#AD8253"/>
</svg>
