<svg width="62" height="62" viewBox="0 0 62 62" fill="none" xmlns="http://www.w3.org/2000/svg">
<circle cx="30.8639" cy="30.8639" r="30.8639" fill="#AD8253"/>
<path d="M35.0276 26.3509V24.2705C36.2495 23.6629 37.558 23.2072 38.9528 22.9036C40.348 22.6 41.7804 22.4482 43.2499 22.4482C44.0894 22.4482 44.8956 22.5011 45.6685 22.6069C46.4409 22.7131 47.2384 22.8636 48.0609 23.0584V25.0875C47.2676 24.8379 46.4942 24.6652 45.7407 24.5694C44.9868 24.4733 44.1565 24.4253 43.2499 24.4253C41.7804 24.4253 40.3459 24.5879 38.9465 24.9131C37.5468 25.2383 36.2405 25.7176 35.0276 26.3509ZM35.0276 38.5588V36.3923C36.1912 35.7851 37.4924 35.3294 38.9312 35.0254C40.37 34.7218 41.8096 34.57 43.2499 34.57C44.0894 34.57 44.8956 34.6231 45.6685 34.7293C46.4409 34.8351 47.2384 34.9854 48.0609 35.1802V37.2093C47.2676 36.9601 46.4942 36.7874 45.7407 36.6913C44.9868 36.5952 44.1565 36.5471 43.2499 36.5471C41.7804 36.5471 40.3459 36.722 38.9465 37.0718C37.5468 37.4213 36.2405 37.9169 35.0276 38.5588ZM35.0276 32.4979V30.3314C36.2495 29.7241 37.558 29.2685 38.9528 28.9645C40.348 28.6609 41.7804 28.5091 43.2499 28.5091C44.0894 28.5091 44.8956 28.562 45.6685 28.6678C46.4409 28.774 47.2384 28.9245 48.0609 29.1193V31.1484C47.2676 30.8991 46.4942 30.7265 45.7407 30.6304C44.9868 30.5342 44.1565 30.4862 43.2499 30.4862C41.7804 30.4862 40.3459 30.6631 38.9465 31.0171C37.5468 31.371 36.2405 31.8646 35.0276 32.4979ZM18.2338 40.76C20.2192 40.76 22.15 40.9843 24.0262 41.4328C25.9024 41.8814 27.7619 42.6114 29.6048 43.6228V21.6915C27.9632 20.5393 26.1541 19.6751 24.1774 19.0992C22.2004 18.5232 20.2192 18.2353 18.2338 18.2353C16.8693 18.2353 15.6746 18.3156 14.6497 18.4761C13.6248 18.6367 12.487 18.9347 11.2362 19.3702C10.8863 19.485 10.6386 19.6498 10.4931 19.8648C10.3471 20.0794 10.2742 20.3157 10.2742 20.5739V40.7254C10.2742 41.1266 10.4199 41.4203 10.7114 41.6066C11.0029 41.7929 11.3237 41.8145 11.6739 41.6714C12.5048 41.3961 13.4647 41.1754 14.5536 41.0092C15.6426 40.8431 16.8693 40.76 18.2338 40.76ZM31.8789 43.6228C33.7218 42.6114 35.5813 41.8814 37.4575 41.4328C39.3337 40.9843 41.2645 40.76 43.2499 40.76C44.6144 40.76 45.8411 40.8431 46.9301 41.0092C48.019 41.1754 48.9789 41.3961 49.8098 41.6714C50.16 41.8145 50.4808 41.7929 50.7723 41.6066C51.0638 41.4203 51.2095 41.1266 51.2095 40.7254V20.5739C51.2095 20.3157 51.1366 20.0864 50.9906 19.886C50.8451 19.6856 50.5974 19.5137 50.2475 19.3702C48.9967 18.9347 47.8589 18.6367 46.834 18.4761C45.8091 18.3156 44.6144 18.2353 43.2499 18.2353C41.2645 18.2353 39.2833 18.5232 37.3063 19.0992C35.3296 19.6751 33.5205 20.5393 31.8789 21.6915V43.6228ZM30.7419 46.8639C28.8933 45.62 26.9078 44.6643 24.7852 43.9967C22.6626 43.3291 20.4788 42.9953 18.2338 42.9953C17.0501 42.9953 15.8874 43.0927 14.7458 43.2875C13.6045 43.4824 12.493 43.7947 11.4113 44.2247C10.5861 44.5484 9.81139 44.451 9.08706 43.9324C8.36235 43.4138 8 42.6974 8 41.7832V20.1783C8 19.625 8.14801 19.1121 8.44403 18.6393C8.74006 18.1665 9.15472 17.837 9.68801 17.6507C11.0233 17.0718 12.4127 16.652 13.856 16.3912C15.2994 16.1304 16.7586 16 18.2338 16C20.4614 16 22.6342 16.3152 24.7522 16.9455C26.8706 17.5762 28.8672 18.4934 30.7419 19.6971C32.6165 18.4934 34.6131 17.5762 36.7315 16.9455C38.8495 16.3152 41.0223 16 43.2499 16C44.7251 16 46.1843 16.1304 47.6277 16.3912C49.071 16.652 50.4604 17.0718 51.7957 17.6507C52.329 17.837 52.7436 18.1665 53.0397 18.6393C53.3357 19.1121 53.4837 19.625 53.4837 20.1783V41.7832C53.4837 42.6974 53.0924 43.3995 52.3097 43.8894C51.5266 44.3793 50.6933 44.4623 49.8098 44.1386C48.7576 43.7374 47.6824 43.4464 46.5844 43.2657C45.4867 43.0854 44.3752 42.9953 43.2499 42.9953C41.0049 42.9953 38.8211 43.3291 36.6985 43.9967C34.5759 44.6643 32.5904 45.62 30.7419 46.8639Z" fill="white"/>
</svg>
