<svg width="399" height="114" viewBox="0 0 399 114" fill="none" xmlns="http://www.w3.org/2000/svg">
<path d="M363.766 0.250793C363.742 0.464188 363.728 0.6786 363.728 0.894348C363.728 8.60277 379.105 14.8743 398.256 15.0672V113.025H36.6191C36.6185 105.195 20.7533 98.8485 1.18262 98.8484C0.878793 98.8484 0.57543 98.8493 0.273438 98.8524V0.250793H363.766Z" fill="#1B1A18"/>
<path d="M368.949 7.36617C373.439 10.4687 380.626 12.4369 386.075 13.3147C387.793 13.5894 386.912 13.4983 388.107 13.6724C390.434 13.9953 392.621 14.1649 394.942 14.297C395.709 14.3386 394.75 14.3624 395.556 14.4025C396.47 14.4457 397.361 14.472 398.262 14.4839L398.838 14.4888L398.839 15.0672C398.828 18.5532 398.837 21.9571 398.826 25.5497C398.756 47.8158 398.731 69.7028 398.701 92.2413C398.693 98.6133 398.647 106.163 398.651 113.025L398.652 113.42L398.256 113.42C397.115 113.421 395.993 113.423 394.898 113.427C394.002 113.43 394.536 113.488 394.366 113.493C391.692 113.566 392.581 113.449 390.835 113.433C383.906 113.372 376.2 113.366 369.531 113.389C366.694 113.398 369.539 113.514 366.682 113.449C366.484 113.445 367.204 113.383 366.426 113.376C364.661 113.362 361.314 113.373 359.946 113.368C357.311 113.358 356.875 113.359 354.382 113.358C350.974 113.356 346.921 113.326 343.265 113.34C342.484 113.343 343.517 113.406 342.273 113.417C341.027 113.428 337.731 113.422 336.62 113.407C335.509 113.392 335.982 113.343 335.785 113.331C334.167 113.235 330.355 113.368 329.865 113.372C320.922 113.428 313.253 113.352 304.858 113.352C298.485 113.352 291.671 113.377 285.607 113.374C278.383 113.37 272.26 113.335 265.241 113.341C264.501 113.342 265.369 113.416 264.464 113.417C254.853 113.426 245.308 113.418 235.738 113.367C234.779 113.362 236.016 113.297 235.057 113.288C229.186 113.234 219.897 113.105 216.411 113.39C212.434 113.379 207.607 113.367 204.049 113.31C201.755 113.273 203.983 113.202 201.165 113.232C200.53 113.239 201.356 113.301 200.403 113.307C196.391 113.329 192.007 113.309 188.038 113.341C187.23 113.348 187.451 113.404 187.222 113.414C185.299 113.495 182.099 113.361 181.401 113.351C176.088 113.278 172.208 113.307 167.259 113.305C166.11 113.305 167.468 113.38 166.362 113.382C160.63 113.393 154.692 113.386 149.08 113.353C147.831 113.345 148.979 113.281 148.383 113.275C145.752 113.245 145.169 113.366 142.646 113.34C142.114 113.334 142.414 113.279 142.317 113.273C140.798 113.179 139.479 113.313 139.088 113.316C134.148 113.356 130.99 113.217 126.217 113.236C125.646 113.239 126.934 113.308 125.329 113.311C114.636 113.33 103.327 113.311 92.7432 113.256C91.0976 113.247 92.2723 113.195 92.1688 113.189C90.481 113.089 89.3889 113.223 88.8524 113.228C84.6193 113.264 80.665 113.152 77.7888 113.311C64.0196 113.269 50.2988 113.312 36.6191 113.269L36.3755 113.27L36.3751 113.025C36.2764 108.869 32.2645 106.144 28.77 104.325C28.5671 104.222 28.9627 104.344 28.5556 104.14C23.6265 101.916 24.4931 102.515 21.0406 101.59C20.1792 101.369 17.5247 100.61 17.2924 100.565C16.4299 100.349 17.353 100.434 17.0626 100.368C14.658 99.8513 14.9976 100.214 11.7211 99.7704C11.6176 99.7568 12.0597 99.7522 11.7828 99.7113C10.9363 99.586 10.0712 99.516 9.2395 99.4178C7.31582 99.2042 6.63953 98.9774 3.67858 98.9698C3.31501 98.9779 3.83585 99.1364 1.18262 99.123C1.09647 99.1231 1.00702 99.1231 0.914111 99.123C0.762556 99.1229 0.544269 99.1232 0.276189 99.1256L0.00064373 99.1288L0.000209451 98.8524C0.00216526 97.0287 0.00110513 92.8955 0.0115179 91.6189C0.0234539 90.1556 0.0828789 91.1603 0.0854522 91.056C0.164031 87.1132 0.196599 88.6082 0.312935 86.6329C0.428833 84.6577 0.152406 85.2055 0.121553 84.4002C0.0907874 83.5936 0.155621 80.7029 0.178159 79.9924C0.200707 79.2825 0.238468 80.168 0.251227 79.5367C0.334592 75.3505 0.114019 77.6992 0.0701455 76.3199C-0.0337383 73.0679 0.17126 70.5351 0.191348 67.5579C0.196772 66.7524 0.150083 67.4097 0.145716 66.6924C0.129041 63.8515 0.193007 62.1428 0.134357 58.9108C0.124799 58.382 0.00154844 55.7692 0.0919985 54.0779C0.105041 53.8384 0.156126 54.519 0.167569 53.3081C0.184743 51.4995 0.195909 48.2406 0.178833 46.2962C0.166199 44.8608 0.0820225 46.5061 0.108172 44.6993C0.119848 43.8964 0.169091 45.3846 0.186919 43.876C0.204742 42.3754 0.202579 38.5385 0.200878 37.0785C0.199141 35.6212 0.135289 36.4189 0.130987 36.3011C0.106346 35.5884 0.0755568 32.7915 0.0756328 32.5443C0.0686573 21.3878 0.154119 11.0084 0.146629 0.250793L0.14643 0.124185L0.273438 0.123985C1.5368 0.123105 2.80537 0.120944 4.08104 0.1172C5.03358 0.114497 4.39907 0.047164 4.54441 0.0460574C7.80539 0.0178464 5.23433 0.196868 7.51231 0.25679C7.18309 0.120152 8.5278 0.144893 10.8249 0.129907C11.9318 0.122575 11.3289 0.0696682 11.4299 0.0642522C13.0714 -0.0161074 14.2145 0.0876876 14.5089 0.108921C15.596 0.187028 16.7791 0.0947391 17.5189 0.146947C18.2583 0.198765 16.5567 0.275583 18.7597 0.274599C19.3774 0.225688 17.7419 0.0978681 19.4145 0.0771522C25.7253 -0.00120634 37.5053 0.099081 42.5795 0.109498C47.6435 0.119907 49.2791 0.110883 52.2299 0.12856C57.5601 0.160521 55.6067 0.0656873 58.9163 0.0222791C62.2356 -0.021124 60.622 0.212212 61.0992 0.262373C61.5675 0.312511 62.079 0.260899 62.6616 0.288462C63.2423 0.316018 61.9851 0.350124 63.3509 0.360471C64.7175 0.370808 68.4539 0.281609 68.9382 0.22916C69.9623 0.118044 68.2786 0.00142202 71.8947 0.0423992C72.1026 0.044831 71.4277 0.106186 72.224 0.112387C78.5489 0.15962 85.1197 0.162548 91.4368 0.204323C92.3054 0.210163 91.5287 0.278419 92.0343 0.28259C97.2996 0.326247 95.4174 0.21116 98.3032 0.0833134C97.6552 0.25345 99.2511 0.357541 103.247 0.358546C105.649 0.359209 105.236 0.284902 106.789 0.23253C107.256 0.216742 108.955 0.267764 109.263 0.232819C110.279 0.118586 108.678 -0.00928983 112.798 0.0416291C112.979 0.0440489 112.403 0.106578 113.028 0.110365C117.065 0.135152 117.548 0.0156662 121.912 0.00119621C125.333 -0.0101578 131.417 0.062703 135.312 0.074553C135.23 0.265836 138.909 0.222035 140.401 0.0901485C142.929 0.0955479 145.659 0.0880921 148.103 0.106322C148.943 0.112537 148.391 0.167918 148.497 0.173902C150.123 0.267773 151.222 0.139462 151.768 0.134432C157.681 0.0855335 162.499 0.182783 168.143 0.0877418C168.343 0.0843187 168.667 -0.0485525 170.176 0.0484641C170.274 0.0551517 168.41 0.115606 171.065 0.120281C173.72 0.124966 178.725 0.196195 182.412 0.134625C183.304 0.119802 185.56 0.0119375 187.371 0.0962134C187.612 0.107657 187.348 0.145765 187.696 0.166971C188.822 0.23454 189.437 0.100241 190.76 0.214335C192.083 0.328425 194.836 0.413869 198.553 0.335152C198.671 0.332864 199.552 0.226418 200.721 0.228102C202.587 0.23088 205.236 0.253054 207.185 0.252361C208.118 0.251991 207.521 0.185893 207.683 0.184684C213.956 0.147646 218.421 0.206571 225.142 0.232145C226.374 0.236964 229.914 0.14683 232.299 0.21809C234.918 0.296097 232.227 0.620595 238.246 0.543285C240.674 0.512363 243.748 0.100679 248.111 0.313973C256.573 0.26112 264.399 0.370284 272.885 0.294816C273.266 0.291472 274.473 0.176574 275.37 0.178138C276.702 0.180682 277.433 0.234383 278.384 0.237921C282.369 0.254097 286.015 0.208151 289.857 0.215298C291.316 0.217894 290.806 0.273421 292.546 0.276525C294.284 0.279576 295.443 0.206458 297.8 0.241772C299.579 0.268689 301.358 0.41814 303.72 0.435561C303.81 0.288143 305.432 0.29118 308.316 0.252265C308.87 0.244715 308.276 0.193405 308.538 0.187187C309.605 0.160742 310.592 0.203267 311.605 0.17448C311.852 0.167566 311.863 0.117222 312.065 0.108728C313.778 0.0345875 316.6 0.147831 317.085 0.167549C318.943 0.242431 319.811 0.176953 321.236 0.206441C322.659 0.235925 320.532 0.272784 322.194 0.290676C325.639 0.327684 330.065 0.319554 333.564 0.321867C334.96 0.32248 334.007 0.255278 334.207 0.253805C337.094 0.236761 340.013 0.308244 341.613 0.174384C343.615 0.520497 343.354 0.140812 347.48 0.210099C347.805 0.215703 348.219 0.379378 346.971 0.403407C345.723 0.427413 343.831 0.376251 342.1 0.413708C341.69 0.422498 339.341 0.575871 339.021 0.585162C336.511 0.657772 336.155 0.413183 336.022 0.399749C334.516 0.254773 331.647 0.420004 330.891 0.431421C327.433 0.483735 324.496 0.449338 321.604 0.486679C319.713 0.510813 319.528 0.671028 318.043 0.666124C313.106 0.649915 311.382 0.426414 306.73 0.620204C305.733 0.661536 306.724 0.836646 303.15 0.698952C302.925 0.690271 300.271 0.564306 298.738 0.643982C298.545 0.654028 298.551 0.705062 298.297 0.709349C296.595 0.73708 295.46 0.696423 293.606 0.715895C291.752 0.735367 289.523 0.764395 287.406 0.747086C286.131 0.736736 284.494 0.641653 283.883 0.618375C282.159 0.551315 280.31 0.661265 279.242 0.58006C278.164 0.498446 280.27 0.374503 277.446 0.321771C277.341 0.454359 277.101 0.590448 276.932 0.723789C270.742 0.719121 264.651 0.676247 258.44 0.682105C257.67 0.682963 258.457 0.754244 257.632 0.757002C254.149 0.768326 251.107 0.717512 247.495 0.737748C244.699 0.753684 241.633 0.829155 238.71 0.848168C236.924 0.69645 232.586 0.747955 229.435 0.73409C228.331 0.729299 228.404 0.688778 227.619 0.675558C224.658 0.626667 226.046 0.76074 225.234 0.781839C221.75 0.871888 221.452 0.568422 217.345 0.57592C217.127 0.576215 214.467 0.737975 214.101 0.748049C211.773 0.813735 213.716 0.691746 212.259 0.679794C209.599 0.657953 207.751 0.619322 204.631 0.666702C203.721 0.680735 201.538 0.781559 199.771 0.703573C199.538 0.693361 199.667 0.639893 199.48 0.636762C196.093 0.584567 196.004 0.75257 194.069 0.809468C192.133 0.866354 189.143 0.750379 188.535 0.716954C186.943 0.630485 189.755 0.68 189.841 0.671515C190.853 0.570533 188.673 0.587919 187.007 0.579386C186.766 0.414658 184.436 0.424545 185.28 0.571203C185.376 0.587222 186.672 0.57186 187.007 0.579386C185.545 0.741007 182.984 0.761706 180.156 0.610673C178.832 0.539887 180.084 0.457353 176.062 0.487546C174.237 0.501175 174.942 0.614599 173.332 0.645523C169.652 0.716077 164.871 0.610272 161.077 0.626943C159.7 0.632995 161.042 0.695083 160.101 0.701358C157.604 0.718208 155.401 0.671622 152.893 0.695486C152.666 0.697727 153.221 0.76272 152.442 0.763548C146.529 0.771096 141.381 0.729468 135.209 0.728314C132.226 0.727786 126.894 0.763631 123.804 0.756424C118.449 0.744317 111.862 0.649808 107.287 0.672767C104.304 0.687463 104.958 0.752469 103.68 0.796761C101.213 0.882616 96.8462 0.72883 96.2582 0.705017C96.2403 0.704229 98.8076 0.688904 97.4377 0.655535C96.6413 0.586004 96.2872 0.704715 96.2582 0.705017C95.8721 0.689633 90.7434 0.674877 89.725 0.687303C89.1717 0.694094 89.4812 0.755684 89.1927 0.758061C82.3348 0.813178 75.4649 0.828831 68.5093 0.800034C68.3869 0.79879 68.5713 0.729898 68.2834 0.727832C64.2566 0.697201 61.6783 0.781478 58.3572 0.831514C55.0367 0.881528 52.4033 0.864776 50.4377 0.746508C47.9323 0.761399 44.3378 0.709113 42.2693 0.677388C40.2009 0.645662 39.9123 0.779766 39.7303 0.782417C34.0538 0.86727 30.7723 0.790512 24.8831 0.778566C22.0833 0.772657 16.5294 0.792108 13.4979 0.806773C11.102 0.818586 9.65865 0.787159 7.45104 0.807254C7.15239 0.809938 7.45409 0.869648 7.36296 0.871947C4.89918 0.943386 6.08323 0.797416 5.57456 0.771346C3.90349 0.685443 2.81109 0.635922 0.273438 0.66056L0.683204 0.250793C0.685756 0.513745 0.689105 0.792206 0.693293 1.08843C0.703506 1.81617 0.913683 3.93606 0.925974 5.26264C0.94157 6.98744 0.866234 6.33645 0.884482 8.14247C0.885975 8.29694 0.932452 8.26484 0.930403 9.3794C0.921501 14.5533 0.894457 20.1941 0.899115 25.5707C0.899573 26.3052 0.973292 25.3636 0.975168 26.4247C0.983906 31.4039 0.981178 36.8614 0.946672 41.7123C0.937947 42.9063 0.886331 42.1577 0.871005 42.4169C0.778273 44.0081 0.91301 46.2648 0.915577 46.6371C0.980325 55.5186 0.85839 62.316 0.916444 71.3683C0.919852 71.861 1.06429 75.654 0.940414 77.3462C0.932173 77.462 0.805433 79.1363 0.892088 80.6166C0.897509 80.7086 0.962756 79.6654 0.956106 81.4859C0.949471 83.3065 0.993043 86.2366 0.921353 88.7391C0.89877 89.5314 0.772343 91.404 0.873123 93.7673C0.880123 93.9206 1.10576 97.5334 0.953144 98.8524L0.266593 98.1727C0.273308 98.1734 0.279964 98.1741 0.286561 98.1748C0.429399 98.1914 0.378555 98.2698 1.18262 98.2944C1.5809 98.3073 2.18485 98.3073 3.11674 98.2987C3.66147 98.2956 2.6759 98.2307 4.10784 98.2485C6.30097 98.2797 9.19565 98.5209 11.8792 98.7877C12.3544 98.8305 14.3527 98.9861 15.9258 99.3647C16.1704 99.4235 15.6931 99.3903 16.5217 99.5519C20.4793 100.34 24.6045 101.429 28.3536 103.209C29.6658 103.858 28.9598 103.595 30.2955 104.343C31.6404 105.073 34.1496 106.9 35.1993 108.207C36.2138 109.517 35.3664 107.861 36.6439 110.077C37.077 110.979 37.3382 111.996 37.3381 113.025L36.6191 112.306C45.9105 112.281 55.1355 112.352 64.4276 112.363C65.9411 112.365 64.6863 112.314 66.9167 112.313C75.14 112.309 89.3376 112.261 96.4732 112.37C102.19 112.457 94.9956 112.523 99.3645 112.559C101.473 112.576 103.754 112.409 104.262 112.404C109.234 112.351 112.689 112.424 117.164 112.402C118.088 112.397 117.182 112.33 117.968 112.326C120.655 112.315 123.478 112.345 126.045 112.339C127.197 112.337 126.984 112.285 128.044 112.289C130.579 112.298 132.822 112.32 135.293 112.368C135.519 112.372 134 112.437 135.875 112.439C138.911 112.443 142.68 112.49 146.173 112.441C147.209 112.426 147.25 112.309 149.478 112.39C149.945 112.407 149.349 112.548 151.944 112.426C152.381 112.406 156.74 112.241 158.879 112.347C159.444 112.375 160.884 112.491 162.131 112.473C162.3 112.47 161.623 112.406 162.655 112.4C166.295 112.38 170.11 112.386 173.849 112.367C174.848 112.361 173.36 112.296 174.849 112.29C178.941 112.273 184.051 112.29 188.053 112.31C189.528 112.318 188.509 112.372 188.616 112.378C190.342 112.474 191.363 112.345 191.936 112.337C195.5 112.292 198.214 112.353 201.499 112.337C202.405 112.332 201.762 112.271 201.943 112.265C203.814 112.211 202.42 112.322 203.605 112.334C206.923 112.369 210.623 112.364 213.979 112.356C215.212 112.353 213.826 112.282 214.933 112.28C221.48 112.267 228.287 112.274 234.678 112.314C235.881 112.321 235.124 112.376 235.375 112.389C237.103 112.477 239.636 112.357 240.219 112.345C242.869 112.293 243.899 112.342 246.239 112.333C257.672 112.288 271.789 112.32 282.582 112.34C296.645 112.365 307.558 112.418 320.969 112.404C321.821 112.403 320.962 112.33 321.697 112.328C331.183 112.311 340.522 112.339 350.027 112.318C350.807 112.317 349.683 112.247 350.935 112.242C353.503 112.232 356.756 112.235 359.352 112.258C360.619 112.268 358.92 112.328 360.195 112.338C363.163 112.36 366.345 112.365 369.394 112.354C370.691 112.349 368.733 112.278 370.42 112.277C379.739 112.271 388.923 112.262 398.256 112.308L397.539 113.025C397.549 110.854 397.563 108.674 397.58 106.483C397.587 105.688 397.731 104.989 397.703 103.297C397.663 103.17 397.616 103.177 397.573 103.121C397.55 86.3983 397.6 69.8462 397.608 53.0765C397.608 52.3695 397.532 53.5914 397.532 52.2225C397.533 44.2998 397.512 36.6064 397.588 28.5023C397.595 27.6982 397.73 28.1108 397.71 25.7412C397.706 25.3233 397.688 21.7544 397.659 20.8317C397.654 20.7064 397.592 21.3575 397.59 20.2075C397.587 18.5112 397.586 16.7942 397.587 15.0672L398.249 15.7359C393.134 15.6827 387.927 15.1801 383.012 14.1524C381.943 13.9243 383.094 14.0964 382.337 13.9314C377.01 12.7332 371.155 10.918 366.977 7.48546C364.363 5.01696 365.423 5.80798 364.433 4.20294C364.372 4.0847 364.07 3.53564 363.884 2.96271C363.688 2.38935 363.619 1.80486 363.645 1.7451C363.761 1.44818 364.124 2.41745 364.219 1.97313C364.226 1.932 364.121 1.36429 364.134 0.894348C364.153 0.337508 364.21 -0.0607493 364.201 0.798967C364.202 0.810831 364.202 0.844153 364.203 0.894386C364.151 1.319 364.533 2.85411 364.787 3.2094C364.948 3.49988 364.749 2.93877 365.071 3.52532C365.412 4.10167 365.775 4.75974 366.598 5.56787C367.461 6.33612 367.069 6.00138 368.949 7.36617ZM32.9558 0.535584C31.0406 0.471182 30.758 0.707059 32.8294 0.650625C32.9297 0.647617 33.0546 0.538743 32.9558 0.535584ZM264.686 0.498328C262.182 0.39429 260.468 0.547267 262.235 0.627617C264.001 0.70788 265.448 0.529866 264.686 0.498328ZM290.65 0.422372C287.724 0.340342 287.263 0.674825 290.397 0.607208C290.579 0.603387 290.821 0.427135 290.65 0.422372ZM371.007 9.72438C370.982 9.72002 369.614 8.95711 369.592 8.93415C368.829 8.59241 371.549 10.1227 371.007 9.72438ZM316.415 0.339677C315.501 0.294431 312.871 0.346662 314.006 0.402925C314.92 0.448188 317.553 0.39596 316.415 0.339677ZM0.306485 67.4775C0.30297 67.5077 0.299805 68.618 0.319674 68.5957C0.383667 68.5203 0.365607 66.9751 0.306485 67.4775ZM360.206 0.335826C353.736 0.323236 349.813 0.0469372 356.859 0.0781149C358.135 0.0837558 354.109 0.166224 355.733 0.191134C358.705 0.236516 360.678 0.0630344 363.71 0.155996C364.259 0.173011 360.575 0.337158 360.194 0.336211C360.198 0.336083 360.202 0.335955 360.206 0.335826ZM31.8529 0.252265C31.8146 0.249146 30.2775 0.246188 30.2407 0.249281C29.4083 0.324165 32.5048 0.330167 31.8529 0.252265ZM32.2972 106.375C32.4322 106.363 35.0112 108.783 34.9856 108.953C35.5714 109.677 34.8809 108.519 33.8744 107.576C32.8821 106.617 31.6957 105.873 32.2972 106.375ZM135.373 0.0796552C137.05 0.00432117 139.057 -0.00454855 140.394 0.0900522C138.727 0.0850303 137.049 0.0842905 135.373 0.0796552Z" fill="#AD8253"/>
<path d="M26.9181 71.9926V71.6028L27.6199 71.3688C28.1397 71.1869 28.4906 70.94 28.6725 70.6281C28.8545 70.3162 28.9454 69.9004 28.9454 69.3806C28.9714 67.8211 28.9844 66.2487 28.9844 64.6632C28.9844 63.0778 28.9844 61.4924 28.9844 59.9069V58.3475C28.9844 56.7881 28.9844 55.2286 28.9844 53.6692C28.9844 52.0837 28.9714 50.5113 28.9454 48.9519C28.9454 48.4321 28.8674 48.0162 28.7115 47.7043C28.5816 47.3924 28.2697 47.1455 27.7758 46.9636L26.9181 46.6517V46.2618H45.7874L46.0603 52.7335H45.6704L43.4482 48.64C43.1883 48.1462 42.8894 47.7563 42.5515 47.4704C42.2137 47.1845 41.7458 47.0416 41.1481 47.0416H34.8713C34.8453 48.8869 34.8323 50.7712 34.8323 52.6945C34.8323 54.6178 34.8323 56.5282 34.8323 58.4255H38.8869C39.4846 58.4255 39.9265 58.2955 40.2124 58.0356C40.4983 57.7757 40.7712 57.3988 41.0311 56.905L41.8498 55.4236H42.2397V62.2461H41.8498L40.9921 60.7646C40.7322 60.2968 40.4593 59.9199 40.1734 59.634C39.9135 59.3481 39.4846 59.2052 38.8869 59.2052H34.8323C34.8323 61.0245 34.8323 62.7659 34.8323 64.4293C34.8323 66.0667 34.8453 67.6782 34.8713 69.2636C34.8713 70.2772 35.3651 70.94 36.3528 71.2519L37.5223 71.6028V71.9926H26.9181ZM47.6295 71.9926V71.6028L48.4092 71.2909C48.929 71.1089 49.2669 70.862 49.4228 70.5501C49.6048 70.2382 49.6957 69.8224 49.6957 69.3026V48.9519C49.6957 48.4321 49.6178 48.0162 49.4618 47.7043C49.3059 47.3924 48.955 47.1455 48.4092 46.9636L47.6295 46.6517V46.2618H57.6489V46.6517L56.8692 46.9636C56.3494 47.1455 55.9985 47.3924 55.8165 47.7043C55.6606 48.0162 55.5826 48.4321 55.5826 48.9519V69.3026C55.5826 69.8224 55.6606 70.2382 55.8165 70.5501C55.9985 70.836 56.3494 71.0829 56.8692 71.2909L57.6489 71.6028V71.9926H47.6295ZM59.8626 71.9926V71.6028L61.1491 71.2129C61.6169 71.0829 61.9548 70.836 62.1627 70.4722C62.3707 70.0823 62.4746 69.6275 62.4746 69.1076V50.3554C62.1887 49.7316 61.9548 49.2638 61.7729 48.9519C61.6169 48.64 61.435 48.3801 61.2271 48.1722C61.0191 47.9382 60.7332 47.6523 60.3694 47.3145L59.7066 46.6517V46.2618H66.6071L79.5505 63.9225V49.2248C79.5505 48.705 79.4595 48.2371 79.2776 47.8213C79.1217 47.4054 78.7838 47.1325 78.264 47.0026L76.9774 46.6517V46.2618H82.5524V46.6517L81.4998 47.0026C81.032 47.1585 80.7461 47.4314 80.6421 47.8213C80.5382 48.2111 80.4862 48.666 80.4862 49.1858V72.1096H78.303L63.4103 51.6419V69.1076C63.4103 69.6275 63.4883 70.0693 63.6442 70.4332C63.8002 70.797 64.125 71.0569 64.6189 71.2129L65.7884 71.6028V71.9926H59.8626ZM82.3005 71.9926V71.6028L83.2752 71.2519C83.795 71.044 84.1979 70.797 84.4838 70.5111C84.7697 70.1993 85.0036 69.7704 85.1855 69.2246L93.2166 46.1839H96.5304L104.445 69.3806C104.653 69.9523 104.886 70.3942 105.146 70.7061C105.406 70.992 105.809 71.2389 106.355 71.4468L106.823 71.6028V71.9926H96.9203V71.6028L97.5051 71.4078C98.0509 71.1999 98.3758 70.914 98.4797 70.5501C98.6097 70.1603 98.5967 69.7054 98.4408 69.1856L96.6084 63.5716H87.9535L86.0822 69.0687C85.9003 69.6405 85.8353 70.0953 85.8873 70.4332C85.9652 70.7711 86.2771 71.044 86.8229 71.2519L87.6806 71.6028V71.9926H82.3005ZM88.2264 62.7919H96.3745L92.4369 50.6673L88.2264 62.7919ZM108.05 71.9926V71.6028L108.869 71.2909C109.415 71.0829 109.753 70.836 109.883 70.5501C110.039 70.2382 110.116 69.8224 110.116 69.3026V48.9519C110.116 48.4321 110.039 48.0162 109.883 47.7043C109.727 47.3924 109.389 47.1455 108.869 46.9636L108.05 46.6517V46.2618H117.992V46.6517L117.29 46.9636C116.796 47.1455 116.458 47.4054 116.276 47.7433C116.094 48.0552 116.003 48.471 116.003 48.9909V71.2129H122.007C122.969 71.2129 123.671 70.979 124.112 70.5111C124.58 70.0433 125.022 69.3676 125.438 68.4839L126.958 65.209H127.348L126.997 71.9926H108.05ZM128.762 71.9926V71.6028L129.541 71.2909C130.061 71.1089 130.399 70.862 130.555 70.5501C130.737 70.2382 130.828 69.8224 130.828 69.3026V48.9519C130.828 48.4321 130.75 48.0162 130.594 47.7043C130.438 47.3924 130.087 47.1455 129.541 46.9636L128.762 46.6517V46.2618H138.781V46.6517L138.001 46.9636C137.481 47.1455 137.131 47.3924 136.949 47.7043C136.793 48.0162 136.715 48.4321 136.715 48.9519V69.3026C136.715 69.8224 136.793 70.2382 136.949 70.5501C137.131 70.836 137.481 71.0829 138.001 71.2909L138.781 71.6028V71.9926H128.762ZM140.41 71.9926V71.5248L153.938 47.0416H146.531C145.673 47.0416 144.971 47.2365 144.425 47.6263C143.906 48.0162 143.438 48.588 143.022 49.3417L141.229 52.4996H140.839L141.112 46.2618H160.176V46.7297L146.648 71.2129H155.147C156.004 71.2129 156.68 71.018 157.174 70.6281C157.694 70.2123 158.161 69.6275 158.577 68.8737L160.254 65.7548H160.644L160.371 71.9926H140.41ZM161.643 71.9926V71.6028L162.618 71.2519C163.138 71.044 163.541 70.797 163.826 70.5111C164.112 70.1993 164.346 69.7704 164.528 69.2246L172.559 46.1839H175.873L183.787 69.3806C183.995 69.9523 184.229 70.3942 184.489 70.7061C184.749 70.992 185.152 71.2389 185.698 71.4468L186.165 71.6028V71.9926H176.263V71.6028L176.848 71.4078C177.394 71.1999 177.718 70.914 177.822 70.5501C177.952 70.1603 177.939 69.7054 177.783 69.1856L175.951 63.5716H167.296L165.425 69.0687C165.243 69.6405 165.178 70.0953 165.23 70.4332C165.308 70.7711 165.62 71.044 166.166 71.2519L167.023 71.6028V71.9926H161.643ZM167.569 62.7919H175.717L171.78 50.6673L167.569 62.7919ZM187.393 71.9926V71.6028L188.212 71.3299C188.731 71.1479 189.069 70.914 189.225 70.6281C189.381 70.3162 189.459 69.8874 189.459 69.3416V48.9519C189.459 48.4321 189.381 48.0292 189.225 47.7433C189.095 47.4314 188.783 47.1845 188.29 47.0026L187.393 46.6517V46.2618H198.543C201.61 46.2618 203.962 46.8466 205.599 48.0162C207.237 49.1598 208.055 50.7582 208.055 52.8115C208.055 53.9551 207.627 55.0987 206.769 56.2423C205.911 57.3858 204.56 58.2695 202.714 58.8933L208.133 69.6535C208.367 70.0953 208.627 70.4592 208.913 70.7451C209.225 71.005 209.628 71.2389 210.122 71.4468L210.629 71.6417V71.9926H203.65L197.88 59.712H195.229V69.3416C195.229 69.8354 195.307 70.2382 195.463 70.5501C195.619 70.862 195.944 71.0959 196.438 71.2519L197.373 71.6028V71.9926H187.393ZM195.229 58.9323H197.1C198.972 58.9323 200.323 58.4385 201.155 57.4508C201.987 56.4372 202.403 54.9427 202.403 52.9674C202.403 50.9661 202.013 49.4847 201.233 48.523C200.453 47.5354 199.141 47.0416 197.295 47.0416H195.229V58.9323ZM233.775 72.6944C231.254 72.6944 228.966 72.1875 226.913 71.1739C224.886 70.1343 223.274 68.6008 222.079 66.5736C220.883 64.5463 220.286 62.0642 220.286 59.1272C220.286 56.892 220.649 54.9297 221.377 53.2403C222.105 51.5509 223.092 50.1344 224.34 48.9909C225.614 47.8473 227.069 46.9896 228.706 46.4178C230.37 45.846 232.124 45.5601 233.97 45.5601C235.451 45.5601 236.816 45.729 238.063 46.0669C239.311 46.4048 240.48 46.8726 241.572 47.4704L241.728 52.2657H241.338L239.389 49.1468C239.129 48.653 238.843 48.2111 238.531 47.8213C238.219 47.4054 237.829 47.0935 237.361 46.8856C236.972 46.7037 236.582 46.5737 236.192 46.4957C235.828 46.3918 235.36 46.3398 234.788 46.3398C233.281 46.3398 231.903 46.7427 230.656 47.5484C229.434 48.3541 228.447 49.6926 227.693 51.5639C226.965 53.4093 226.601 55.9434 226.601 59.1662C226.601 62.3631 226.952 64.8972 227.654 66.7685C228.356 68.6138 229.304 69.9394 230.5 70.7451C231.721 71.5248 233.086 71.9146 234.593 71.9146C235.425 71.9146 236.088 71.8627 236.582 71.7587C237.075 71.6287 237.569 71.4468 238.063 71.2129C238.557 71.005 238.934 70.7061 239.194 70.3162C239.454 69.9004 239.688 69.4585 239.895 68.9907L241.611 65.1701H242.001L241.884 70.7451C240.792 71.3169 239.571 71.7847 238.219 72.1486C236.868 72.5124 235.386 72.6944 233.775 72.6944ZM255.828 72.6944C254.243 72.6944 252.709 72.4085 251.228 71.8367C249.772 71.2649 248.46 70.4202 247.29 69.3026C246.147 68.159 245.237 66.7425 244.561 65.0531C243.886 63.3637 243.548 61.3884 243.548 59.1272C243.548 56.892 243.886 54.9297 244.561 53.2403C245.237 51.5509 246.16 50.1474 247.329 49.0298C248.499 47.8863 249.811 47.0286 251.267 46.4568C252.748 45.859 254.269 45.5601 255.828 45.5601C257.414 45.5601 258.934 45.846 260.39 46.4178C261.871 46.9636 263.184 47.8083 264.327 48.9519C265.497 50.0695 266.419 51.486 267.095 53.2013C267.771 54.8907 268.109 56.866 268.109 59.1272C268.109 61.3364 267.771 63.2987 267.095 65.0141C266.419 66.7035 265.497 68.12 264.327 69.2636C263.184 70.3812 261.871 71.2389 260.39 71.8367C258.934 72.4085 257.414 72.6944 255.828 72.6944ZM255.828 71.8757C257.258 71.8757 258.414 71.4988 259.298 70.7451C260.182 69.9653 260.818 68.6528 261.208 66.8075C261.624 64.9361 261.832 62.3761 261.832 59.1272C261.832 55.8524 261.624 53.2923 261.208 51.447C260.818 49.5756 260.182 48.2631 259.298 47.5094C258.414 46.7297 257.258 46.3398 255.828 46.3398C254.425 46.3398 253.281 46.7297 252.398 47.5094C251.514 48.2631 250.864 49.5756 250.448 51.447C250.058 53.2923 249.863 55.8524 249.863 59.1272C249.863 62.3761 250.058 64.9361 250.448 66.8075C250.864 68.6528 251.514 69.9653 252.398 70.7451C253.281 71.4988 254.425 71.8757 255.828 71.8757ZM268.904 71.9926V71.6028L269.684 71.3299C270.567 71.044 271.009 70.3032 271.009 69.1076V49.1468C271.009 48.627 270.944 48.2111 270.814 47.8992C270.71 47.5874 270.411 47.3275 269.917 47.1195L268.904 46.6517V46.2618H276.428L283.641 65.1311L290.424 46.2618H298.104V46.6517L297.481 46.8856C296.987 47.0675 296.649 47.3275 296.467 47.6653C296.285 47.9772 296.194 48.3931 296.194 48.9129V69.3026C296.194 69.8224 296.259 70.2252 296.389 70.5111C296.519 70.797 296.831 71.044 297.325 71.2519L298.104 71.6028V71.9926H288.397V71.6028L289.216 71.2519C289.709 71.044 290.021 70.797 290.151 70.5111C290.281 70.2252 290.346 69.8224 290.346 69.3026V60.5307L290.424 49.3807L282.276 71.9926H280.327L271.828 49.6536L271.945 59.3611V69.1856C271.945 69.7574 272.023 70.2252 272.179 70.5891C272.361 70.927 272.698 71.1739 273.192 71.3299L274.05 71.6028V71.9926H268.904ZM299.82 71.9926V71.6028L300.6 71.3299C301.12 71.1739 301.458 70.94 301.614 70.6281C301.796 70.3162 301.887 69.9004 301.887 69.3806V48.9519C301.887 48.4321 301.796 48.0162 301.614 47.7043C301.432 47.3924 301.081 47.1455 300.561 46.9636L299.82 46.6517V46.2618H309.294C313.167 46.2618 315.961 46.9766 317.676 48.4061C319.417 49.8096 320.288 51.6679 320.288 53.9811C320.288 55.4625 319.924 56.827 319.196 58.0746C318.495 59.2962 317.325 60.2708 315.688 60.9986C314.05 61.7263 311.841 62.0902 309.06 62.0902H307.735V69.2636C307.735 70.2772 308.241 70.94 309.255 71.2519L310.425 71.6028V71.9926H299.82ZM307.735 61.3104H309.216C310.49 61.3104 311.529 61.1025 312.335 60.6867C313.141 60.2708 313.738 59.5431 314.128 58.5034C314.518 57.4638 314.713 56.0213 314.713 54.176C314.713 52.3047 314.492 50.8492 314.05 49.8096C313.634 48.7699 313.011 48.0552 312.179 47.6653C311.347 47.2495 310.308 47.0416 309.06 47.0416H307.735V61.3104ZM321.483 71.9926V71.6028L322.302 71.3299C322.822 71.1479 323.16 70.914 323.316 70.6281C323.472 70.3162 323.55 69.8874 323.55 69.3416V48.9519C323.55 48.4321 323.472 48.0292 323.316 47.7433C323.186 47.4314 322.874 47.1845 322.38 47.0026L321.483 46.6517V46.2618H332.633C335.7 46.2618 338.053 46.8466 339.69 48.0162C341.327 49.1598 342.146 50.7582 342.146 52.8115C342.146 53.9551 341.717 55.0987 340.86 56.2423C340.002 57.3858 338.65 58.2695 336.805 58.8933L342.224 69.6535C342.458 70.0953 342.718 70.4592 343.004 70.7451C343.316 71.005 343.719 71.2389 344.212 71.4468L344.719 71.6417V71.9926H337.741L331.971 59.712H329.32V69.3416C329.32 69.8354 329.398 70.2382 329.554 70.5501C329.71 70.862 330.034 71.0959 330.528 71.2519L331.464 71.6028V71.9926H321.483ZM329.32 58.9323H331.191C333.062 58.9323 334.414 58.4385 335.246 57.4508C336.077 56.4372 336.493 54.9427 336.493 52.9674C336.493 50.9661 336.103 49.4847 335.324 48.523C334.544 47.5354 333.231 47.0416 331.386 47.0416H329.32V58.9323ZM345.799 71.9926V71.6028L346.774 71.2519C347.293 71.044 347.696 70.797 347.982 70.5111C348.268 70.1993 348.502 69.7704 348.684 69.2246L356.715 46.1839H360.029L367.943 69.3806C368.151 69.9523 368.385 70.3942 368.645 70.7061C368.905 70.992 369.307 71.2389 369.853 71.4468L370.321 71.6028V71.9926H360.419V71.6028L361.003 71.4078C361.549 71.1999 361.874 70.914 361.978 70.5501C362.108 70.1603 362.095 69.7054 361.939 69.1856L360.107 63.5716H351.452L349.581 69.0687C349.399 69.6405 349.334 70.0953 349.386 70.4332C349.464 70.7711 349.775 71.044 350.321 71.2519L351.179 71.6028V71.9926H345.799ZM351.725 62.7919H359.873L355.935 50.6673L351.725 62.7919Z" fill="#AD8253"/>
</svg>
