<svg width="46" height="1768" viewBox="0 0 46 1768" fill="none" xmlns="http://www.w3.org/2000/svg">
<path d="M17.0801 1724.11C19.4725 1724.11 21.4119 1722.17 21.4119 1719.78C21.4119 1717.39 19.4725 1715.45 17.0801 1715.45C14.6877 1715.45 12.7483 1717.39 12.7483 1719.78C12.7483 1722.17 14.6877 1724.11 17.0801 1724.11ZM17.0801 1719.78H17.8923L17.8923 975.197H17.0801H16.2679L16.2679 1719.78H17.0801Z" fill="#BB9B5F"/>
<path d="M17.0801 43.7959C19.4725 43.7959 21.4119 45.7353 21.4119 48.1277C21.4119 50.5201 19.4725 52.4595 17.0801 52.4595C14.6877 52.4595 12.7483 50.5201 12.7483 48.1277C12.7483 45.7353 14.6877 43.7959 17.0801 43.7959ZM17.0801 48.1277H17.8923L17.8923 792.713H17.0801H16.2679L16.2679 48.1277H17.0801Z" fill="#BB9B5F"/>
<path d="M30.0508 1724.11C32.4432 1724.11 34.3826 1722.17 34.3826 1719.78C34.3826 1717.39 32.4432 1715.45 30.0508 1715.45C27.6584 1715.45 25.719 1717.39 25.719 1719.78C25.719 1722.17 27.6584 1724.11 30.0508 1724.11ZM30.0508 1719.78H30.863L30.863 975.192H30.0508H29.2386L29.2386 1719.78H30.0508Z" fill="#BB9B5F"/>
<path d="M30.0508 43.7991C32.4432 43.7991 34.3826 45.7385 34.3826 48.1309C34.3826 50.5232 32.4432 52.4626 30.0508 52.4626C27.6584 52.4626 25.719 50.5232 25.719 48.1309C25.719 45.7385 27.6584 43.7991 30.0508 43.7991ZM30.0508 48.1309H30.863L30.863 792.716H30.0508H29.2386L29.2386 48.1309H30.0508Z" fill="#BB9B5F"/>
<path d="M23.5703 1767.91C25.9627 1767.91 27.9021 1765.97 27.9021 1763.58C27.9021 1761.18 25.9627 1759.24 23.5703 1759.24C21.1779 1759.24 19.2385 1761.18 19.2385 1763.58C19.2385 1765.97 21.1779 1767.91 23.5703 1767.91ZM23.5703 1763.58H24.3825L24.3825 1727.08H23.5703H22.7581L22.7581 1763.58H23.5703Z" fill="#BB9B5F"/>
<path d="M23.5703 5.72205e-06C25.9627 5.72205e-06 27.9021 1.93941 27.9021 4.33179C27.9021 6.72416 25.9627 8.66357 23.5703 8.66357C21.1779 8.66357 19.2385 6.72416 19.2385 4.33179C19.2385 1.93941 21.1779 5.72205e-06 23.5703 5.72205e-06ZM23.5703 4.33179L24.3825 4.33179L24.3825 40.8306H23.5703H22.7581L22.7581 4.33179L23.5703 4.33179Z" fill="#BB9B5F"/>
<rect y="-1.48407" width="26.3409" height="26.3409" transform="matrix(-0.406608 -0.913603 0.406608 -0.913603 24.1581 976.011)" stroke="#BB9B5F" stroke-width="1.62442"/>
<rect y="1.48407" width="26.3409" height="26.3409" transform="matrix(-0.406608 0.913603 0.406608 0.913603 22.9513 789.186)" stroke="#BB9B5F" stroke-width="1.62442"/>
<path d="M23.5439 922.743L44.7447 882.164L23.5443 845.116L0.773044 882.166L23.5439 922.743Z" stroke="#BB9B5F" stroke-width="1.62442"/>
<path d="M23.0507 897.259L30.9371 882.165L23.0515 868.385L14.5806 882.166L23.0507 897.259Z" stroke="#BB9B5F" stroke-width="1.62442"/>
</svg>
