<svg width="62" height="62" viewBox="0 0 62 62" fill="none" xmlns="http://www.w3.org/2000/svg">
<circle cx="30.8639" cy="30.8639" r="30.8639" fill="#AD8253"/>
<path d="M16.7207 45.792V42.9031H46.0383V45.792H16.7207ZM23.7752 39.4365C21.8207 39.4365 20.1564 38.7914 18.7821 37.5012C17.4078 36.2108 16.7207 34.6411 16.7207 32.7923V14.5926H46.6489C47.4887 14.5926 48.2077 14.8754 48.806 15.4411C49.404 16.007 49.7029 16.6872 49.7029 17.4816V23.8367C49.7029 24.6312 49.404 25.3113 48.806 25.8773C48.2077 26.4429 47.4887 26.7257 46.6489 26.7257H42.4959V32.7923C42.4959 34.6411 41.8087 36.2108 40.4345 37.5012C39.0602 38.7914 37.3958 39.4365 35.4413 39.4365H23.7752ZM23.7752 36.5479H35.4404C36.5099 36.5479 37.4441 36.1699 38.243 35.4139C39.0422 34.6579 39.4418 33.784 39.4418 32.7923V17.4816H19.7748V32.7923C19.7748 33.784 20.1794 34.6579 20.9887 35.4139C21.798 36.1699 22.7268 36.5479 23.7752 36.5479ZM42.4959 23.8367H46.6489V17.4816H42.4959V23.8367ZM23.7752 36.5479H19.7748H39.4418H23.7752Z" fill="white"/>
</svg>
