<svg width="255" height="73" viewBox="0 0 255 73" fill="none" xmlns="http://www.w3.org/2000/svg">
<path d="M232.155 0.160034C232.14 0.296367 232.131 0.433329 232.131 0.571167C232.131 5.49072 241.945 9.4911 254.167 9.61414V72.1327H23.3691C23.3684 67.1359 13.2438 63.0849 0.753906 63.0848C0.560029 63.0848 0.366537 63.0878 0.173828 63.0897V0.160034H232.155Z" fill="#1B1A18"/>
<path d="M235.463 4.70092C238.329 6.68065 242.916 7.93609 246.394 8.49606C247.49 8.67127 246.928 8.61319 247.69 8.72425C249.175 8.93024 250.572 9.03838 252.053 9.12264C252.542 9.14916 251.93 9.16436 252.445 9.18998C253.027 9.21749 253.596 9.23428 254.171 9.24188L254.539 9.24501L254.539 9.61414C254.532 11.8391 254.538 14.0116 254.531 16.3047C254.486 30.515 254.47 44.4834 254.451 58.8676C254.446 62.9344 254.417 67.7531 254.419 72.1327L254.42 72.3845L254.167 72.3849C253.439 72.3853 252.723 72.3865 252.025 72.3889C251.453 72.3909 251.794 72.428 251.685 72.4311C249.979 72.4779 250.546 72.403 249.432 72.3931C245.009 72.3538 240.092 72.3503 235.836 72.3647C234.025 72.3709 235.84 72.4445 234.017 72.4032C233.891 72.4004 234.35 72.361 233.854 72.3568C232.727 72.3474 230.591 72.3544 229.718 72.3513C228.036 72.3451 227.758 72.3455 226.167 72.345C223.992 72.344 221.405 72.3245 219.072 72.3334C218.574 72.3354 219.233 72.3758 218.439 72.3827C217.644 72.3895 215.541 72.3861 214.832 72.3766C214.122 72.3671 214.424 72.3353 214.299 72.328C213.266 72.2666 210.833 72.3517 210.52 72.3538C204.813 72.3896 199.918 72.3412 194.561 72.3413C190.493 72.3415 186.145 72.3575 182.275 72.3553C177.664 72.3526 173.756 72.3307 169.277 72.3344C168.804 72.3348 169.358 72.3823 168.781 72.3828C162.647 72.3883 156.556 72.3831 150.448 72.3511C149.836 72.3478 150.625 72.3061 150.013 72.3004C146.267 72.2661 140.338 72.1838 138.113 72.3653C135.575 72.3583 132.494 72.3509 130.224 72.3143C128.76 72.2908 130.182 72.2454 128.384 72.2648C127.978 72.2691 128.505 72.3089 127.897 72.3123C125.336 72.3269 122.539 72.3139 120.005 72.3345C119.49 72.3388 119.631 72.3744 119.485 72.3808C118.258 72.4328 116.215 72.3469 115.77 72.3406C112.379 72.2941 109.903 72.3124 106.744 72.3113C106.011 72.311 106.878 72.3589 106.172 72.3603C102.514 72.3672 98.7243 72.3631 95.1422 72.3418C94.3454 72.337 95.0781 72.2962 94.6974 72.2918C93.0185 72.2729 92.6463 72.3499 91.0362 72.3333C90.6967 72.3299 90.888 72.295 90.826 72.2911C89.857 72.2309 89.015 72.3162 88.7657 72.3181C85.6127 72.3438 83.5973 72.2548 80.5513 72.2674C80.1869 72.269 81.0086 72.3132 79.9843 72.315C73.1601 72.3272 65.9428 72.315 59.188 72.2797C58.1377 72.2743 58.8874 72.2411 58.8214 72.237C57.7442 72.1731 57.0473 72.2587 56.7048 72.2619C54.0032 72.2851 51.4796 72.2133 49.644 72.3153C40.8564 72.2881 32.0996 72.3156 23.3691 72.2884L23.2137 72.2887L23.2134 72.1327C23.1502 69.4806 20.59 67.7414 18.3599 66.58C18.2304 66.5146 18.4829 66.5922 18.223 66.4621C15.0773 65.0429 15.6304 65.4249 13.427 64.8349C12.8773 64.6933 11.1831 64.2093 11.0349 64.1802C10.4844 64.0424 11.0735 64.0971 10.8882 64.0546C9.35359 63.7249 9.57034 63.9563 7.47925 63.6732C7.41322 63.6645 7.69536 63.6616 7.51865 63.6355C6.97837 63.5555 6.4263 63.5108 5.89549 63.4482C4.66779 63.3118 4.23616 63.1671 2.34647 63.1623C2.11446 63.1675 2.4468 63.2686 0.753906 63.2601C0.699226 63.2602 0.642323 63.2603 0.583078 63.2606C0.486742 63.2609 0.347717 63.2625 0.175584 63.2641L-0.000269815 63.2661L-0.000546992 63.0897C0.000701979 61.9261 2.42144e-05 59.2877 0.00667061 58.4728C0.0142882 57.5389 0.0522133 58.1801 0.0538556 58.1135C0.104005 55.5972 0.12479 56.5514 0.199036 55.2907C0.273002 54.0301 0.0965858 54.3797 0.0768952 53.8658C0.0572605 53.351 0.0986372 51.5061 0.113021 51.0527C0.127411 50.5996 0.15151 51.1647 0.159653 50.7619C0.212857 48.0902 0.0720869 49.5892 0.0440869 48.7089C-0.022212 46.6334 0.108618 45.017 0.121438 43.1169C0.1249 42.6028 0.0951031 43.0223 0.0923163 42.5646C0.0816744 40.7515 0.122497 39.661 0.0850666 37.5983C0.078967 37.2608 0.000308126 35.5933 0.0580335 34.5139C0.0663574 34.361 0.09896 34.7954 0.106263 34.0226C0.117223 32.8684 0.124349 30.7885 0.113451 29.5476C0.105388 28.6315 0.0516668 29.6816 0.0683552 28.5285C0.0758069 28.016 0.107234 28.9658 0.118612 28.003C0.129987 27.0453 0.128606 24.5966 0.127521 23.6648C0.126412 22.7348 0.0856614 23.2438 0.0829162 23.1687C0.0671902 22.7138 0.0475404 20.9288 0.0475889 20.7711C0.0431369 13.6505 0.0976849 7.02601 0.092898 0.160034L0.092771 0.0792314L0.173828 0.079104C0.979733 0.0785422 1.78896 0.0771628 2.60271 0.0747746C3.21063 0.0730496 2.80568 0.0300775 2.89844 0.0293713C4.97962 0.011367 3.33875 0.125619 4.79257 0.163861C4.58246 0.0766586 5.44066 0.0924481 6.90666 0.0828846C7.6131 0.0782052 7.22836 0.0444398 7.29282 0.0409833C8.34043 -0.0103024 9.06994 0.0559398 9.25783 0.0694909C9.95163 0.119339 10.7067 0.06044 11.1788 0.0937592C11.6507 0.126829 10.5647 0.175855 11.9707 0.175227C12.365 0.144012 11.3212 0.062437 12.3886 0.0492161C16.4162 -0.000792459 23.9343 0.063211 27.1726 0.0698595C30.4045 0.0765024 31.4483 0.070743 33.3316 0.0820244C36.7333 0.102422 35.4867 0.0418991 37.5989 0.0141959C39.7173 -0.0135039 38.6875 0.135412 38.992 0.167424C39.2909 0.199423 39.6173 0.166484 39.9891 0.184074C40.3598 0.201661 39.5574 0.223427 40.4291 0.230031C41.3013 0.236628 43.6858 0.179701 43.9949 0.146228C44.6485 0.0753131 43.5739 0.00088495 45.8817 0.0270367C46.0144 0.0285887 45.5837 0.0677453 46.0919 0.0717027C50.1285 0.101847 54.322 0.103716 58.3536 0.130377C58.908 0.134104 58.4123 0.177665 58.7349 0.180327C62.0953 0.208189 60.8941 0.13474 62.7358 0.0531482C62.3223 0.16173 63.3407 0.228161 65.891 0.228802C67.4241 0.229225 67.1602 0.181802 68.1518 0.148378C68.4493 0.138303 69.5341 0.170865 69.7306 0.148563C70.3788 0.0756593 69.357 -0.00595137 71.9865 0.0265451C72.1018 0.0280895 71.7345 0.0679957 72.1331 0.0704125C74.7098 0.0862315 75.0181 0.00997563 77.8033 0.000740841C79.9864 -0.00650531 83.8691 0.0399945 86.355 0.0475572C86.3027 0.169635 88.6506 0.14168 89.6031 0.0575103C91.2164 0.0609563 92.9588 0.056198 94.518 0.067832C95.0547 0.0717984 94.7021 0.107143 94.7698 0.110962C95.8075 0.170871 96.5088 0.0889826 96.857 0.0857722C100.631 0.054565 103.706 0.11663 107.308 0.0559743C107.436 0.0537897 107.643 -0.0310089 108.605 0.0309073C108.668 0.0351753 107.478 0.0737571 109.172 0.0767407C110.867 0.0797309 114.062 0.125189 116.414 0.0858951C116.983 0.0764352 118.423 0.00759594 119.579 0.061381C119.733 0.0686845 119.565 0.093005 119.787 0.106538C120.505 0.149661 120.898 0.0639511 121.742 0.136766C122.587 0.209578 124.343 0.264109 126.716 0.213872C126.791 0.212412 127.353 0.144478 128.099 0.145552C129.29 0.147325 130.981 0.161477 132.225 0.161035C132.82 0.160798 132.439 0.118615 132.542 0.117843C136.546 0.0942051 139.396 0.131811 143.685 0.148133C144.471 0.151208 146.731 0.0936844 148.253 0.139163C149.924 0.188947 148.206 0.396042 152.048 0.346703C153.598 0.326968 155.559 0.0642309 158.344 0.200356C163.745 0.166625 168.739 0.236293 174.155 0.188129C174.398 0.185995 175.168 0.112667 175.741 0.113665C176.591 0.115289 177.057 0.149561 177.664 0.151819C180.207 0.162142 182.535 0.13282 184.987 0.137381C185.917 0.139038 185.592 0.174475 186.702 0.176456C187.812 0.178403 188.552 0.131739 190.055 0.154276C191.191 0.171455 192.327 0.266835 193.834 0.277953C193.891 0.183871 194.927 0.185809 196.767 0.160973C197.12 0.156155 196.741 0.123409 196.909 0.119441C197.589 0.102564 198.22 0.129702 198.866 0.111331C199.023 0.106918 199.031 0.0747888 199.159 0.069368C200.253 0.0220512 202.054 0.0943235 202.364 0.106907C203.549 0.154697 204.103 0.112909 205.013 0.131728C205.921 0.150545 204.563 0.174068 205.624 0.185487C207.822 0.209106 210.647 0.203917 212.88 0.205394C213.771 0.205784 213.163 0.162896 213.291 0.161956C215.133 0.151079 216.996 0.196699 218.018 0.111269C219.295 0.332159 219.129 0.0898441 221.762 0.134063C221.969 0.13764 222.233 0.242097 221.437 0.257432C220.641 0.272753 219.433 0.240101 218.328 0.264006C218.066 0.269616 216.568 0.367499 216.363 0.373429C214.761 0.419768 214.534 0.263671 214.449 0.255098C213.488 0.162574 211.657 0.268024 211.174 0.275311C208.968 0.308698 207.093 0.286746 205.248 0.310577C204.041 0.325979 203.922 0.428229 202.975 0.425099C199.824 0.414754 198.724 0.272115 195.755 0.395792C195.118 0.42217 195.751 0.533926 193.47 0.446049C193.326 0.44051 191.633 0.360118 190.654 0.410968C190.531 0.417379 190.535 0.449949 190.373 0.452685C189.287 0.470383 188.563 0.444436 187.379 0.456863C186.196 0.46929 184.773 0.487816 183.422 0.476769C182.608 0.470163 181.564 0.409481 181.174 0.394625C180.073 0.351828 178.893 0.421997 178.212 0.370173C177.524 0.318087 178.868 0.238986 177.065 0.205332C176.999 0.28995 176.845 0.376802 176.738 0.461901C172.787 0.458921 168.9 0.431559 164.936 0.435298C164.444 0.435846 164.947 0.481337 164.42 0.483097C162.197 0.490324 160.256 0.457895 157.951 0.470809C156.166 0.48098 154.21 0.529145 152.344 0.54128C151.204 0.444453 148.436 0.477323 146.424 0.468475C145.72 0.465417 145.767 0.439557 145.266 0.43112C143.376 0.399917 144.262 0.485483 143.743 0.498948C141.52 0.556418 141.33 0.362745 138.709 0.367531C138.57 0.367719 136.872 0.470954 136.639 0.477383C135.153 0.519304 136.393 0.441451 135.463 0.433823C133.766 0.419884 132.586 0.39523 130.594 0.425467C130.014 0.434424 128.621 0.49877 127.493 0.448999C127.345 0.442481 127.427 0.408358 127.307 0.40636C125.146 0.373049 125.089 0.480269 123.854 0.516581C122.618 0.552886 120.71 0.478871 120.322 0.457539C119.306 0.402354 121.101 0.433955 121.156 0.428539C121.802 0.364092 120.41 0.375188 119.347 0.369742C119.193 0.264613 117.706 0.270923 118.245 0.36452C118.306 0.374743 119.133 0.36494 119.347 0.369742C118.414 0.472889 116.78 0.486099 114.975 0.38971C114.13 0.344534 114.928 0.291861 112.362 0.31113C111.197 0.319828 111.647 0.392216 110.619 0.411951C108.271 0.456979 105.219 0.389454 102.798 0.400093C101.92 0.403956 102.776 0.44358 102.175 0.447585C100.582 0.458339 99.1761 0.428608 97.5755 0.443838C97.4305 0.445268 97.7849 0.486746 97.2871 0.487275C93.514 0.492092 90.2285 0.465525 86.289 0.464788C84.3855 0.464451 80.9825 0.487328 79.0106 0.482728C75.5931 0.475002 71.389 0.414686 68.4695 0.429338C66.5654 0.438717 66.9831 0.480204 66.1672 0.508471C64.5928 0.563264 61.806 0.465118 61.4307 0.44992C61.4192 0.449417 63.0577 0.439637 62.1834 0.418341C61.6751 0.373966 61.4492 0.449728 61.4307 0.44992C61.1842 0.440102 57.9111 0.430685 57.2612 0.438615C56.908 0.442949 57.1055 0.482256 56.9214 0.483773C52.5447 0.518949 48.1602 0.528939 43.7212 0.51056C43.6431 0.509766 43.7608 0.465799 43.577 0.464481C41.0071 0.444932 39.3616 0.498718 37.242 0.530651C35.1229 0.56257 33.4423 0.551879 32.1878 0.4764C30.5888 0.485904 28.2948 0.452535 26.9746 0.432287C25.6546 0.41204 25.4704 0.497625 25.3543 0.499317C21.7315 0.553471 19.6372 0.504483 15.8787 0.496859C14.0918 0.493088 10.5473 0.505502 8.6126 0.514861C7.08355 0.5224 6.16238 0.502343 4.75347 0.515168C4.56287 0.516881 4.75541 0.554988 4.69725 0.556455C3.12486 0.602048 3.88053 0.508889 3.55589 0.492251C2.48965 0.437441 1.79256 0.405839 0.173828 0.421536L0.43533 0.160034C0.436961 0.328185 0.439102 0.506275 0.44178 0.695764C0.448299 1.1602 0.582434 2.51313 0.590278 3.35976C0.600231 4.46053 0.552152 4.04508 0.563798 5.19768C0.56475 5.29627 0.594412 5.27578 0.593104 5.9871C0.587424 9.28912 0.570164 12.8891 0.573137 16.3205C0.573429 16.7892 0.620477 16.1883 0.621673 16.8655C0.62725 20.0433 0.625509 23.5263 0.603487 26.6221C0.597919 27.3841 0.564977 26.9064 0.555196 27.0718C0.496015 28.0873 0.582004 29.5275 0.583643 29.7651C0.624965 35.4334 0.547146 39.7715 0.584196 45.5487C0.586371 45.8632 0.678553 48.2839 0.599494 49.3639C0.594234 49.4378 0.513349 50.5063 0.568652 51.4511C0.572111 51.5098 0.613752 50.844 0.609508 52.0059C0.605273 53.1678 0.633081 55.0377 0.587329 56.6349C0.572916 57.1405 0.49223 58.3356 0.556548 59.8439C0.561017 59.9417 0.705076 62.2484 0.607558 63.0897L0.169461 62.656C0.173493 62.6564 0.177493 62.6569 0.181461 62.6573C0.272317 62.6679 0.235121 62.7176 0.753906 62.7313C1.00809 62.7395 1.39347 62.7394 1.9879 62.734C2.33555 62.732 1.70655 62.6906 2.62042 62.7019C4.0201 62.7218 5.86751 62.8758 7.58016 63.046C7.88344 63.0734 9.15876 63.1727 10.1627 63.4143C10.3188 63.4518 10.0142 63.4306 10.543 63.5338C13.0688 64.0368 15.7015 64.7316 18.0942 65.8682C18.9316 66.2824 18.481 66.1145 19.3335 66.592C20.1918 67.0576 21.7931 68.2236 22.463 69.058C23.1105 69.8942 22.5697 68.8369 23.3849 70.2514C23.6613 70.8269 23.828 71.4759 23.828 72.1326L23.3691 71.6739C29.299 71.6579 35.1865 71.703 41.1168 71.7101C42.0827 71.7113 41.2819 71.6786 42.7054 71.678C47.9536 71.6755 57.0145 71.6449 61.5685 71.7143C65.2173 71.77 60.6255 71.8123 63.4137 71.8349C64.7592 71.8457 66.2148 71.7395 66.5396 71.7362C69.7126 71.7022 71.9178 71.7493 74.7736 71.7349C75.3634 71.7319 74.7849 71.6888 75.2868 71.6868C77.0012 71.6793 78.8031 71.6985 80.4413 71.695C81.1763 71.6933 81.0409 71.6604 81.7171 71.663C83.3353 71.6687 84.7662 71.6825 86.3437 71.7133C86.4874 71.7161 85.518 71.757 86.7152 71.7585C88.6528 71.7609 91.0579 71.7913 93.2872 71.7599C93.9486 71.7504 93.9746 71.6753 95.3964 71.7272C95.6946 71.738 95.3141 71.8282 96.9703 71.7503C97.2489 71.7373 100.031 71.6322 101.397 71.7C101.757 71.7178 102.676 71.7916 103.471 71.78C103.579 71.7782 103.147 71.7378 103.806 71.7339C106.129 71.7207 108.564 71.725 110.95 71.7124C111.588 71.7089 110.638 71.6672 111.588 71.6633C114.2 71.6528 117.461 71.6634 120.015 71.6765C120.957 71.6814 120.306 71.716 120.374 71.7197C121.476 71.781 122.128 71.6983 122.493 71.6935C124.768 71.6646 126.5 71.7035 128.596 71.6932C129.175 71.6905 128.764 71.6511 128.88 71.6476C130.074 71.6132 129.184 71.684 129.94 71.6918C132.058 71.7139 134.419 71.7107 136.561 71.7057C137.348 71.7038 136.464 71.6581 137.17 71.6569C141.349 71.649 145.693 71.6534 149.771 71.6786C150.539 71.6834 150.056 71.7186 150.216 71.7266C151.319 71.7828 152.936 71.7062 153.308 71.6989C154.999 71.6655 155.656 71.6966 157.15 71.6908C164.447 71.6619 173.456 71.6825 180.344 71.6952C189.319 71.7116 196.284 71.7451 204.843 71.7364C205.387 71.7359 204.838 71.6891 205.307 71.688C211.361 71.6768 217.322 71.695 223.388 71.6815C223.886 71.6805 223.168 71.6361 223.967 71.633C225.606 71.6262 227.682 71.6287 229.339 71.6428C230.148 71.6497 229.064 71.6877 229.877 71.6938C231.771 71.7081 233.802 71.7113 235.748 71.7041C236.576 71.701 235.326 71.6556 236.403 71.6551C242.35 71.6515 248.211 71.6456 254.167 71.6749L253.709 72.1327C253.716 70.7467 253.725 69.3555 253.736 67.9569C253.74 67.449 253.832 67.0034 253.814 65.9235C253.789 65.8422 253.759 65.8466 253.731 65.8111C253.717 55.1385 253.749 44.5749 253.754 33.8724C253.754 33.4212 253.705 34.201 253.705 33.3274C253.706 28.2711 253.692 23.3611 253.741 18.189C253.746 17.6758 253.831 17.9391 253.818 16.4269C253.816 16.1601 253.805 13.8825 253.786 13.2936C253.783 13.2136 253.743 13.6292 253.742 12.8952C253.74 11.8124 253.74 10.7165 253.74 9.61414L254.163 10.0409C250.898 10.007 247.575 9.68639 244.439 9.03089C243.756 8.88533 244.491 8.99514 244.008 8.88984C240.608 8.12547 236.872 6.9676 234.204 4.77719C232.536 3.20191 233.213 3.70667 232.581 2.68234C232.542 2.60688 232.349 2.25647 232.231 1.8908C232.105 1.52487 232.062 1.15183 232.078 1.1137C232.152 0.924214 232.383 1.54282 232.445 1.25927C232.449 1.23303 232.382 0.871016 232.39 0.571167C232.403 0.215702 232.439 -0.0389685 232.433 0.509949C232.434 0.517548 232.434 0.538945 232.434 0.571199C232.401 0.842766 232.645 1.82162 232.807 2.04827C232.91 2.23365 232.783 1.87555 232.988 2.24989C233.206 2.6177 233.437 3.03769 233.963 3.5534C234.514 4.04365 234.263 3.83005 235.463 4.70092ZM21.0308 0.341788C19.8084 0.300687 19.6281 0.451223 20.9501 0.415207C21.0141 0.413288 21.0938 0.343804 21.0308 0.341788ZM168.922 0.318011C167.324 0.251614 166.23 0.349244 167.358 0.400523C168.485 0.451747 169.409 0.338138 168.922 0.318011ZM185.492 0.269536C183.625 0.217184 183.331 0.430652 185.331 0.387498C185.447 0.38506 185.602 0.272575 185.492 0.269536ZM236.777 6.20578C236.761 6.203 235.888 5.71622 235.874 5.70156C235.387 5.48353 237.123 6.45992 236.777 6.20578ZM201.936 0.21676C201.353 0.187884 199.674 0.221218 200.399 0.257125C200.982 0.286012 202.662 0.25268 201.936 0.21676ZM0.194919 43.0656C0.192676 43.0849 0.190656 43.7935 0.203336 43.7792C0.244177 43.7311 0.232651 42.745 0.194919 43.0656ZM229.883 0.214302C225.754 0.206267 223.251 0.0299328 227.747 0.0498305C228.562 0.0534305 225.992 0.106062 227.029 0.12196C228.925 0.150922 230.185 0.040206 232.12 0.0995345C232.47 0.110394 230.119 0.215152 229.876 0.214548C229.879 0.214466 229.881 0.214384 229.883 0.214302ZM20.3269 0.160973C20.3024 0.158983 19.3215 0.157095 19.2979 0.159069C18.7667 0.20686 20.7429 0.21069 20.3269 0.160973ZM20.6109 67.8886C20.697 67.8811 22.3429 69.4254 22.3266 69.5341C22.7004 69.9961 22.2598 69.2571 21.6175 68.6549C20.9842 68.0432 20.227 67.5684 20.6109 67.8886ZM86.3941 0.0508135C87.4645 0.0027352 88.7449 -0.00292549 89.5982 0.0574489C88.5345 0.0542439 87.4636 0.0537718 86.3941 0.0508135Z" fill="#AD8253"/>
<path d="M92.5331 45.7482L87.2086 30.9191C87.0925 30.5874 86.9349 30.3303 86.7358 30.1478C86.5534 29.9488 86.2963 29.7995 85.9645 29.7L85.3674 29.5009V29.2521H92.5331V29.5009L91.7618 29.7248C91.3803 29.8244 91.1647 29.9985 91.1149 30.2473C91.0817 30.4961 91.1232 30.803 91.2393 31.1679L94.9217 42.0907L98.6289 31.143C98.7616 30.7615 98.8197 30.4464 98.8031 30.1976C98.8031 29.9488 98.6124 29.7746 98.2308 29.6751L97.5839 29.5009V29.2521H101.067V29.5009L100.395 29.7C100.08 29.7829 99.8564 29.9322 99.7237 30.1478C99.591 30.3469 99.4666 30.6123 99.3505 30.944L94.3743 45.7482H92.5331ZM98.398 45.6735V45.4247L99.02 45.2008C99.3518 45.0681 99.6089 44.9105 99.7913 44.728C99.9738 44.529 100.123 44.2553 100.239 43.907L105.365 29.2023H107.48L112.53 44.0065C112.663 44.3714 112.812 44.6534 112.978 44.8525C113.144 45.0349 113.401 45.1925 113.75 45.3252L114.048 45.4247V45.6735H107.728V45.4247L108.102 45.3003C108.45 45.1676 108.657 44.9852 108.724 44.7529C108.807 44.5041 108.798 44.2138 108.699 43.8821L107.529 40.2992H102.006L100.811 43.8075C100.695 44.1724 100.654 44.4627 100.687 44.6783C100.737 44.8939 100.936 45.0681 101.284 45.2008L101.832 45.4247V45.6735H98.398ZM102.18 39.8016H107.38L104.867 32.0636L102.18 39.8016ZM122.759 46.1214C121.15 46.1214 119.69 45.7979 118.38 45.151C117.086 44.4875 116.058 43.5089 115.295 42.2151C114.531 40.9213 114.15 39.3372 114.15 37.4628C114.15 36.0363 114.382 34.784 114.847 33.7058C115.311 32.6276 115.941 31.7236 116.738 30.9938C117.55 30.2639 118.479 29.7165 119.524 29.3516C120.586 28.9867 121.706 28.8042 122.883 28.8042C123.829 28.8042 124.7 28.9121 125.496 29.1277C126.292 29.3433 127.038 29.6419 127.735 30.0234L127.835 33.0838H127.586L126.342 31.0933C126.176 30.7781 125.993 30.4961 125.794 30.2473C125.595 29.9819 125.346 29.7829 125.048 29.6502C124.799 29.5341 124.55 29.4511 124.301 29.4014C124.069 29.335 123.771 29.3019 123.406 29.3019C122.444 29.3019 121.565 29.559 120.768 30.0732C119.989 30.5874 119.358 31.4416 118.877 32.6359C118.413 33.8136 118.181 35.4309 118.181 37.4877C118.181 39.5279 118.405 41.1452 118.852 42.3395C119.3 43.5172 119.906 44.3631 120.669 44.8773C121.448 45.375 122.319 45.6238 123.281 45.6238C123.812 45.6238 124.235 45.5906 124.55 45.5242C124.865 45.4413 125.181 45.3252 125.496 45.1759C125.811 45.0432 126.051 44.8525 126.217 44.6036C126.383 44.3382 126.532 44.0563 126.665 43.7577L127.76 41.3194H128.009L127.934 44.8773C127.237 45.2423 126.458 45.5408 125.595 45.773C124.733 46.0053 123.787 46.1214 122.759 46.1214ZM129.191 45.6735V45.4247L129.689 45.2257C130.021 45.1096 130.236 44.952 130.336 44.7529C130.452 44.5539 130.51 44.2885 130.51 43.9567V30.9689C130.51 30.6371 130.46 30.3717 130.361 30.1727C130.261 29.9736 130.037 29.8161 129.689 29.7L129.191 29.5009V29.2521H135.586V29.5009L135.088 29.7C134.757 29.8161 134.533 29.9736 134.416 30.1727C134.317 30.3717 134.267 30.6371 134.267 30.9689V43.9567C134.267 44.2885 134.317 44.5539 134.416 44.7529C134.533 44.9354 134.757 45.093 135.088 45.2257L135.586 45.4247V45.6735H129.191ZM136.327 45.6735V45.4247L136.949 45.2008C137.281 45.0681 137.538 44.9105 137.72 44.728C137.903 44.529 138.052 44.2553 138.168 43.907L143.294 29.2023H145.408L150.459 44.0065C150.592 44.3714 150.741 44.6534 150.907 44.8525C151.073 45.0349 151.33 45.1925 151.678 45.3252L151.977 45.4247V45.6735H145.657V45.4247L146.03 45.3003C146.379 45.1676 146.586 44.9852 146.652 44.7529C146.735 44.5041 146.727 44.2138 146.628 43.8821L145.458 40.2992H139.935L138.74 43.8075C138.624 44.1724 138.583 44.4627 138.616 44.6783C138.666 44.8939 138.865 45.0681 139.213 45.2008L139.76 45.4247V45.6735H136.327ZM140.109 39.8016H145.309L142.796 32.0636L140.109 39.8016ZM152.76 45.6735V45.4247L153.283 45.2505C153.615 45.1344 153.83 44.9852 153.93 44.8027C154.029 44.6036 154.079 44.33 154.079 43.9816V30.9689C154.079 30.6371 154.029 30.38 153.93 30.1976C153.847 29.9985 153.648 29.8409 153.333 29.7248L152.76 29.5009V29.2521H159.876C161.834 29.2521 163.335 29.6253 164.38 30.3717C165.425 31.1016 165.947 32.1217 165.947 33.4321C165.947 34.1619 165.674 34.8918 165.126 35.6216C164.579 36.3515 163.716 36.9154 162.539 37.3135L165.997 44.1807C166.146 44.4627 166.312 44.6949 166.495 44.8773C166.694 45.0432 166.951 45.1925 167.266 45.3252L167.589 45.4496V45.6735H163.136L159.453 37.836H157.761V43.9816C157.761 44.2968 157.811 44.5539 157.911 44.7529C158.01 44.952 158.218 45.1013 158.533 45.2008L159.13 45.4247V45.6735H152.76ZM157.761 37.3384H158.956C160.15 37.3384 161.013 37.0232 161.543 36.3929C162.074 35.746 162.34 34.7923 162.34 33.5316C162.34 32.2544 162.091 31.3089 161.593 30.6952C161.095 30.0649 160.258 29.7497 159.08 29.7497H157.761V37.3384Z" fill="#AD8253"/>
</svg>
