<svg width="180" height="13" viewBox="0 0 180 13" fill="none" xmlns="http://www.w3.org/2000/svg">
<ellipse cx="89.8937" cy="6.30634" rx="1.32531" ry="1.06025" fill="#C4AE95"/>
<path d="M91.2185 6.04656C91.2482 6.03965 91.2872 6.04704 91.3168 6.05718C91.326 6.06032 91.3214 6.07438 91.3278 6.07718C91.3403 6.08265 91.352 6.07575 91.3643 6.08226C91.3684 6.08449 91.3633 6.10676 91.3676 6.10858C91.3912 6.11842 91.4135 6.11275 91.4374 6.11748C91.555 6.14083 91.6707 6.14919 91.7897 6.15934C91.829 6.16266 91.8767 6.18287 91.9173 6.17403C91.922 6.17298 91.9192 6.15344 91.9201 6.15183C91.9342 6.12717 91.9295 6.16662 91.9387 6.17186C91.9753 6.19256 92.016 6.19436 92.0513 6.18682C92.0663 6.18355 92.0512 6.14474 92.0663 6.16652C92.0674 6.168 92.0636 6.18875 92.0677 6.19096C92.077 6.19594 92.0947 6.19223 92.1019 6.19388C92.1158 6.19715 92.1181 6.19694 92.1313 6.19718C92.1493 6.19768 92.1707 6.208 92.19 6.2033C92.1942 6.20223 92.1887 6.18096 92.1953 6.17734C92.2019 6.17372 92.2193 6.17552 92.2251 6.18054C92.231 6.18556 92.2285 6.20228 92.2296 6.20611C92.2381 6.23846 92.2582 6.19366 92.2608 6.19255C92.3081 6.17367 92.3486 6.19919 92.3929 6.19912C92.4266 6.19901 92.4626 6.19058 92.4946 6.19174C92.5328 6.1932 92.5652 6.20473 92.6022 6.20275C92.6062 6.20256 92.6016 6.17755 92.6063 6.17727C92.6571 6.17436 92.7075 6.17709 92.7581 6.19397C92.7632 6.19569 92.7566 6.21765 92.7617 6.22068C92.7927 6.23873 92.8418 6.28209 92.8602 6.18646C92.8812 6.1902 92.9067 6.19406 92.9255 6.21333C92.9376 6.22574 92.9259 6.24966 92.9408 6.23945C92.9441 6.23718 92.9397 6.21623 92.9448 6.2144C92.966 6.20673 92.9891 6.21354 93.0101 6.20271C93.0144 6.20046 93.0132 6.18169 93.0144 6.17831C93.0246 6.15093 93.0415 6.19619 93.0452 6.19948C93.0732 6.224 93.0937 6.21435 93.1199 6.21495C93.126 6.2151 93.1188 6.18988 93.1246 6.18912C93.1549 6.1855 93.1863 6.18767 93.2159 6.19886C93.2225 6.20141 93.2165 6.22289 93.2196 6.22521C93.2335 6.23517 93.2366 6.19459 93.2499 6.20336C93.2527 6.20516 93.2511 6.22355 93.2517 6.22557C93.2597 6.25727 93.2666 6.21235 93.2687 6.21136C93.2948 6.1978 93.3115 6.2447 93.3367 6.23806C93.3397 6.23722 93.3329 6.21395 93.3414 6.21301C93.3979 6.20658 93.4576 6.21298 93.5135 6.23159C93.5222 6.23445 93.516 6.25193 93.5166 6.25409C93.5255 6.28775 93.5313 6.24264 93.5341 6.24094C93.5565 6.22871 93.5774 6.26655 93.5926 6.21281C93.6873 6.23146 93.7815 6.20129 93.8755 6.24942C93.8767 6.24998 93.8745 6.2722 93.8769 6.27322C93.9056 6.28569 93.9001 6.25116 93.9191 6.20893C93.9239 6.19832 93.9384 6.24931 93.9397 6.25305C93.9444 6.26682 93.9395 6.29988 93.9411 6.30254C93.9541 6.32349 93.952 6.21418 93.9695 6.21414C93.97 6.21432 93.9677 6.23444 93.9692 6.23644C93.9738 6.24272 93.9783 6.23473 93.9828 6.24166C93.993 6.25768 93.9967 6.3108 94.0123 6.27988C94.0143 6.27587 94.0113 6.21387 94.0269 6.21679C94.0331 6.21802 94.0608 6.21695 94.0685 6.22097C94.0762 6.22498 94.0709 6.24497 94.0715 6.24583C94.0923 6.27225 94.0844 6.2832 94.0948 6.32232C94.1053 6.36129 94.1024 6.26834 94.1066 6.25797C94.1109 6.24762 94.1262 6.26942 94.1299 6.277C94.1337 6.28459 94.129 6.29728 94.1323 6.30157C94.1544 6.3296 94.142 6.25544 94.1493 6.24068C94.1665 6.20575 94.1799 6.27468 94.1956 6.28144C94.1999 6.28326 94.1964 6.26756 94.2002 6.26609C94.2152 6.26049 94.2242 6.282 94.2413 6.26228C94.2441 6.25906 94.2579 6.21762 94.2668 6.24803C94.2681 6.25242 94.2645 6.2696 94.2709 6.27344C94.2804 6.27922 94.2977 6.28297 94.3079 6.27723C94.3155 6.27298 94.3068 6.24468 94.3164 6.25347C94.3206 6.2574 94.3128 6.27395 94.3207 6.27995C94.3287 6.28594 94.3489 6.28521 94.3566 6.28464C94.3643 6.28406 94.3601 6.26259 94.3607 6.26114C94.3645 6.25286 94.3793 6.2425 94.3806 6.24253C94.4465 6.23991 94.5072 6.2761 94.5713 6.26412C94.5763 6.26321 94.573 6.24057 94.5738 6.2402C94.591 6.23071 94.5774 6.29091 94.5894 6.31106C94.5877 6.26511 94.5948 6.27343 94.6069 6.26839C94.6128 6.26593 94.6096 6.24814 94.6101 6.24632C94.6188 6.2193 94.6248 6.2542 94.6264 6.26134C94.6321 6.2876 94.6384 6.25657 94.6423 6.27412C94.6462 6.29155 94.6372 6.31738 94.6489 6.31705C94.6521 6.3006 94.6435 6.25762 94.6523 6.25065C94.6857 6.22431 94.7479 6.25803 94.7747 6.26153C94.8015 6.26503 94.8101 6.262 94.8257 6.26794C94.8538 6.27869 94.8435 6.2468 94.861 6.2322C94.8785 6.21761 94.87 6.29607 94.8725 6.31293C94.875 6.32979 94.8777 6.31244 94.8808 6.32171C94.8839 6.33097 94.8772 6.34244 94.8844 6.34592C94.8917 6.3494 94.9114 6.3194 94.914 6.30177C94.9194 6.2644 94.9105 6.22519 94.9296 6.23897C94.9307 6.23979 94.9271 6.26042 94.9313 6.2625C94.9647 6.27838 94.9994 6.27937 95.0328 6.29342C95.0374 6.29538 95.0333 6.31833 95.036 6.31973C95.0638 6.33441 95.0538 6.29571 95.0691 6.25273C95.0657 6.30993 95.0741 6.34493 95.0952 6.34527C95.1079 6.3455 95.1057 6.32051 95.1139 6.3029C95.1164 6.29759 95.1254 6.31475 95.127 6.303C95.1324 6.26459 95.1239 6.22159 95.1457 6.23871C95.1466 6.23952 95.1436 6.26055 95.1469 6.26182C95.1682 6.27016 95.1708 6.22998 95.1938 6.22511C95.2119 6.2213 95.244 6.2458 95.2646 6.24978C95.2642 6.3141 95.2836 6.29937 95.2915 6.25502C95.3048 6.25684 95.3193 6.25433 95.3322 6.26046C95.3366 6.26255 95.3337 6.28117 95.3343 6.28319C95.3429 6.31475 95.3487 6.27161 95.3515 6.26991C95.3828 6.25347 95.4082 6.28617 95.4381 6.25421C95.4391 6.25306 95.4408 6.20839 95.4488 6.24101C95.4493 6.24326 95.4395 6.26358 95.4535 6.26516C95.4675 6.26673 95.494 6.29068 95.5134 6.26998C95.5181 6.265 95.5301 6.22873 95.5396 6.25706C95.5409 6.26091 95.5395 6.27373 95.5414 6.28086C95.5473 6.30358 95.5505 6.25842 95.5575 6.29678C95.5645 6.33514 95.5791 6.36387 95.5987 6.33741C95.5993 6.33664 95.604 6.30084 95.6102 6.30141C95.62 6.30234 95.634 6.3098 95.6443 6.30957C95.6492 6.30944 95.6461 6.28722 95.6469 6.28681C95.6801 6.27436 95.7037 6.29417 95.7392 6.30277C95.7457 6.30439 95.7644 6.27408 95.777 6.29804C95.7908 6.32427 95.7766 6.43339 95.8084 6.40739C95.8212 6.39699 95.8375 6.25856 95.8605 6.33028C95.9052 6.31251 95.9466 6.34922 95.9914 6.32384C95.9934 6.32272 95.9998 6.28408 96.0045 6.28461C96.0116 6.28547 96.0154 6.30352 96.0205 6.30471C96.0415 6.31015 96.0608 6.2947 96.0811 6.29711C96.0888 6.29798 96.0861 6.31665 96.0953 6.31769C96.1045 6.31872 96.1106 6.29413 96.123 6.30601C96.1324 6.31506 96.1418 6.36531 96.1543 6.37117C96.1548 6.3216 96.1634 6.32262 96.1786 6.30954C96.1815 6.307 96.1784 6.28974 96.1798 6.28765C96.1854 6.27876 96.1906 6.29306 96.196 6.28338C96.1973 6.28106 96.1973 6.26413 96.1984 6.26127C96.2074 6.23634 96.2224 6.27442 96.2249 6.28105C96.2347 6.30623 96.2393 6.28421 96.2468 6.29413C96.2544 6.30404 96.2431 6.31644 96.2519 6.32245C96.2701 6.3349 96.2935 6.33216 96.312 6.33294C96.3193 6.33315 96.3143 6.31055 96.3154 6.31005C96.3306 6.30432 96.346 6.32836 96.3545 6.28335C96.3651 6.39973 96.3637 6.27206 96.3855 6.29536C96.3872 6.29724 96.3894 6.35228 96.3828 6.36036C96.3762 6.36843 96.3662 6.35123 96.3571 6.36382C96.3549 6.36678 96.3425 6.41835 96.3408 6.42147C96.3275 6.44589 96.3257 6.36364 96.325 6.35913C96.317 6.31038 96.3018 6.36594 96.2978 6.36978C96.2796 6.38737 96.2641 6.3758 96.2488 6.38836C96.2388 6.39647 96.2378 6.45034 96.23 6.4487C96.2039 6.44325 96.1948 6.36809 96.1702 6.43325C96.1649 6.44715 96.1702 6.50603 96.1513 6.45973C96.1501 6.45681 96.1361 6.41446 96.128 6.44125C96.127 6.44463 96.127 6.46179 96.1257 6.46323C96.1167 6.47255 96.1107 6.45888 96.1009 6.46543C96.0911 6.47198 96.0793 6.48174 96.0681 6.47592C96.0614 6.47244 96.0527 6.44047 96.0495 6.43264C96.0404 6.41009 96.0306 6.44706 96.025 6.41976C96.0193 6.39231 96.0304 6.35064 96.0155 6.33291C96.0149 6.37749 96.0137 6.42325 96.0128 6.46809C95.9801 6.46652 95.9479 6.4521 95.9151 6.45407C95.911 6.45436 95.9152 6.47833 95.9108 6.47925C95.8924 6.48306 95.8763 6.46597 95.8573 6.47278C95.8425 6.47814 95.8263 6.50351 95.8109 6.50991C95.8014 6.45889 95.7785 6.47621 95.7619 6.47155C95.756 6.46994 95.7564 6.45631 95.7523 6.45187C95.7366 6.43543 95.744 6.48051 95.7397 6.4876C95.7213 6.51788 95.7197 6.41584 95.698 6.41836C95.6968 6.41846 95.6828 6.47286 95.6808 6.47624C95.6686 6.49833 95.6788 6.45731 95.6711 6.45329C95.6571 6.44595 95.6473 6.43296 95.6308 6.44889C95.626 6.45361 95.6145 6.48751 95.6051 6.46129C95.6039 6.45785 95.6046 6.43988 95.6036 6.43882C95.5857 6.42127 95.5852 6.47776 95.575 6.49689C95.5648 6.51602 95.549 6.47703 95.5458 6.46579C95.5374 6.43671 95.5522 6.45336 95.5527 6.45051C95.558 6.41655 95.5465 6.4224 95.5377 6.41953C95.5364 6.36414 95.5241 6.36746 95.5286 6.41678C95.5291 6.42216 95.5359 6.417 95.5377 6.41953C95.53 6.47387 95.5165 6.48083 95.5015 6.43005C95.4945 6.40625 95.5011 6.3785 95.4799 6.38865C95.4702 6.39323 95.474 6.43137 95.4655 6.44177C95.446 6.46549 95.4208 6.42992 95.4007 6.43552C95.3935 6.43756 95.4005 6.45843 95.3956 6.46054C95.3824 6.46621 95.3707 6.45054 95.3575 6.45857C95.3563 6.45932 95.3592 6.48118 95.3551 6.48145C95.3239 6.48399 95.2967 6.46999 95.2641 6.46961C95.2483 6.46943 95.2201 6.48148 95.2038 6.47906C95.1755 6.47499 95.1407 6.44321 95.1166 6.45093C95.1008 6.45587 95.1042 6.47773 95.0975 6.49262C95.0845 6.52149 95.0614 6.46978 95.0583 6.46177C95.0582 6.46151 95.0718 6.45635 95.0645 6.44513C95.0603 6.42175 95.0584 6.46167 95.0583 6.46177C95.0562 6.4566 95.0292 6.45164 95.0238 6.45582C95.0208 6.4581 95.0225 6.47881 95.021 6.47961C94.9847 6.49814 94.9484 6.50341 94.9117 6.49372C94.911 6.4933 94.912 6.47014 94.9105 6.46944C94.8892 6.45914 94.8756 6.48748 94.8581 6.50431C94.8405 6.52112 94.8266 6.51549 94.8162 6.47572C94.803 6.48073 94.784 6.46315 94.7731 6.45248C94.7621 6.44182 94.7606 6.48691 94.7596 6.4878C94.7297 6.51633 94.7123 6.49052 94.6812 6.4865C94.6664 6.48452 94.6371 6.49106 94.6211 6.49599C94.6084 6.49996 94.6008 6.48939 94.5891 6.49615C94.5875 6.49705 94.5891 6.51713 94.5887 6.5179C94.5756 6.54192 94.5819 6.49284 94.5792 6.48408C94.5695 6.4522 94.5634 6.43522 94.5468 6.45022C94.5429 6.45365 94.5317 6.52432 94.5247 6.52846C94.5156 6.5337 94.519 6.50837 94.5095 6.5145C94.5087 6.51501 94.5089 6.53063 94.503 6.52994C94.4756 6.52695 94.4458 6.51786 94.4174 6.51942C94.4136 6.51958 94.4185 6.54437 94.4129 6.545C94.3866 6.54794 94.3578 6.54702 94.3322 6.53542C94.3258 6.53248 94.3298 6.51513 94.3284 6.50997C94.32 6.47879 94.3081 6.5241 94.3061 6.52496C94.2592 6.54673 94.2233 6.50573 94.1755 6.52525C94.1729 6.5264 94.1528 6.57496 94.1439 6.53331C94.1433 6.53054 94.1344 6.48792 94.1266 6.51706C94.1261 6.51888 94.1316 6.54082 94.122 6.53859C94.1124 6.53636 94.0969 6.55101 94.0837 6.5269C94.0795 6.51931 94.0696 6.4768 94.0571 6.51068C94.0563 6.51305 94.0371 6.58967 94.0302 6.53681C94.0291 6.5281 94.0302 6.47216 94.0153 6.50084C94.0125 6.5064 94.0177 6.51888 94.0102 6.52668C93.9987 6.53868 93.9834 6.5237 93.9693 6.54862C93.9668 6.55303 93.9564 6.59101 93.9479 6.56219C93.9466 6.55767 93.9491 6.53899 93.9447 6.5369C93.9236 6.52688 93.9014 6.53937 93.88 6.52645C93.8724 6.52191 93.8763 6.49171 93.8683 6.48362C93.8604 6.47553 93.8445 6.46775 93.8362 6.48155C93.8279 6.49535 93.8369 6.54348 93.8245 6.54733C93.7705 6.56405 93.7171 6.53582 93.6631 6.53169C93.6551 6.53108 93.6618 6.5483 93.65 6.54862C93.6065 6.5499 93.5315 6.56605 93.4938 6.52946C93.4636 6.50015 93.5016 6.47784 93.4786 6.46592C93.4674 6.46023 93.4554 6.51617 93.4527 6.51794C93.4264 6.53583 93.4082 6.51104 93.3845 6.51865C93.3797 6.52023 93.3844 6.5429 93.3803 6.54399C93.3661 6.54793 93.3512 6.5378 93.3376 6.53966C93.3315 6.54054 93.3327 6.55786 93.3271 6.55652C93.3137 6.55352 93.3018 6.54624 93.2888 6.53001C93.2876 6.52853 93.2956 6.50699 93.2857 6.50618C93.2696 6.50495 93.2497 6.48894 93.2313 6.50547C93.2258 6.51045 93.2256 6.55003 93.2138 6.52269C93.2113 6.51698 93.2145 6.46946 93.2008 6.51052C93.1985 6.51735 93.1755 6.57274 93.1641 6.53703C93.1612 6.52764 93.1536 6.48874 93.147 6.49486C93.1461 6.49583 93.1497 6.51709 93.1442 6.51917C93.125 6.5261 93.1048 6.52384 93.0851 6.53049C93.0798 6.53232 93.0876 6.55432 93.0798 6.55633C93.0582 6.56189 93.0312 6.55629 93.01 6.5494C93.0022 6.54682 93.0076 6.52859 93.0071 6.52661C92.9979 6.49435 92.9925 6.53789 92.9895 6.54043C92.9707 6.55564 92.9563 6.53518 92.939 6.54059C92.9342 6.54203 92.9376 6.56279 92.9366 6.56465C92.9268 6.58273 92.9341 6.54545 92.9279 6.54134C92.9103 6.5297 92.8908 6.53137 92.8731 6.53402C92.8665 6.53503 92.8739 6.5591 92.868 6.55973C92.8334 6.56387 92.7975 6.56157 92.7637 6.5483C92.7574 6.54576 92.7614 6.52722 92.76 6.52299C92.7509 6.49336 92.7375 6.53377 92.7344 6.53762C92.7204 6.55519 92.715 6.5388 92.7026 6.54186C92.6422 6.55709 92.5676 6.54623 92.5106 6.53953C92.4363 6.53089 92.3787 6.51326 92.3078 6.51784C92.3033 6.51811 92.3079 6.54277 92.304 6.54331C92.2539 6.54926 92.2045 6.53962 92.1543 6.54674C92.1502 6.54729 92.1561 6.57066 92.1495 6.57232C92.136 6.57587 92.1188 6.5746 92.1051 6.56714C92.0984 6.56354 92.1073 6.54348 92.1006 6.54027C92.0849 6.53275 92.0681 6.53108 92.052 6.53483C92.0451 6.53648 92.0555 6.56039 92.0466 6.56066C91.9859 6.56304 91.9263 6.56715 91.865 6.53619C91.8608 6.53407 91.8571 6.48547 91.8481 6.49479C91.8475 6.50828 91.8475 6.52414 91.8472 6.53856C91.7589 6.54632 91.6714 6.52947 91.5828 6.52687C91.5791 6.52677 91.5855 6.55251 91.5783 6.55244C91.5364 6.55206 91.4958 6.55919 91.453 6.5336C91.4487 6.5311 91.4509 6.4858 91.4384 6.49265C91.4362 6.4939 91.4173 6.49995 91.4125 6.50978C91.4118 6.51126 91.4152 6.5324 91.4092 6.53302C91.3739 6.53623 91.3369 6.5314 91.3016 6.51849C91.2959 6.51636 91.302 6.49385 91.2979 6.49214C91.2692 6.48018 91.2379 6.4973 91.2105 6.47686C91.1921 6.46309 91.1989 6.42417 91.1891 6.38586C91.1877 6.38046 91.1764 6.3796 91.1758 6.35731C91.1743 6.30127 91.1798 6.23989 91.1775 6.18015C91.177 6.16728 91.1618 6.18114 91.1708 6.15005C91.1715 6.14797 91.1825 6.13765 91.1852 6.1271C91.1871 6.1198 91.1837 6.09714 91.1876 6.0878C91.1914 6.07847 91.1957 6.09747 91.2021 6.0865C91.2085 6.0754 91.2057 6.04961 91.2185 6.04656ZM94.7239 6.4048C94.7137 6.38315 94.7122 6.46246 94.7232 6.44348C94.7237 6.44247 94.7244 6.40586 94.7239 6.4048ZM95.9481 6.39227C95.9349 6.35729 95.9258 6.40873 95.9351 6.43575C95.9445 6.46274 95.9521 6.40288 95.9481 6.39227ZM96.0853 6.36673C96.0698 6.33915 96.0674 6.45162 96.0839 6.42888C96.0849 6.4276 96.0862 6.36834 96.0853 6.36673ZM91.2344 6.37496C91.2343 6.3739 91.2261 6.37288 91.2259 6.37392C91.2216 6.39911 91.2379 6.40115 91.2344 6.37496ZM96.2214 6.33893C96.2165 6.32371 96.2027 6.34128 96.2086 6.3602C96.2135 6.37541 96.2274 6.35785 96.2214 6.33893ZM94.196 6.32015C94.1959 6.31897 94.19 6.31791 94.1901 6.32459C94.1905 6.34611 94.1987 6.34003 94.196 6.32015ZM96.4527 6.33763C96.4185 6.3334 96.3978 6.24049 96.435 6.25098C96.4418 6.25287 96.4205 6.2806 96.4291 6.28898C96.4448 6.30424 96.4552 6.24591 96.4712 6.27717C96.4741 6.28289 96.4547 6.33808 96.4527 6.33776C96.4527 6.33772 96.4527 6.33768 96.4527 6.33763ZM94.718 6.30954C94.7178 6.30849 94.7097 6.30749 94.7095 6.30853C94.7051 6.33371 94.7215 6.33573 94.718 6.30954ZM93.8537 6.27111C93.8533 6.26888 93.8344 6.26679 93.8338 6.26885C93.824 6.31002 93.8621 6.31437 93.8537 6.27111ZM95.2649 6.2515C95.2738 6.22616 95.2844 6.22318 95.2915 6.25499C95.2826 6.2533 95.2738 6.25305 95.2649 6.2515Z" fill="#C4AE95"/>
<path d="M83.3689 6.04656C83.3986 6.03965 83.4376 6.04704 83.4672 6.05718C83.4764 6.06032 83.4717 6.07438 83.4781 6.07718C83.4907 6.08265 83.5023 6.07575 83.5147 6.08226C83.5188 6.08449 83.5137 6.10676 83.518 6.10858C83.5416 6.11842 83.5639 6.11275 83.5878 6.11748C83.7054 6.14083 83.821 6.14919 83.9401 6.15934C83.9794 6.16266 84.0271 6.18287 84.0677 6.17403C84.0724 6.17298 84.0696 6.15344 84.0705 6.15183C84.0846 6.12717 84.0799 6.16662 84.0891 6.17186C84.1257 6.19256 84.1664 6.19436 84.2017 6.18682C84.2167 6.18355 84.2016 6.14474 84.2167 6.16652C84.2178 6.168 84.214 6.18875 84.2181 6.19096C84.2274 6.19594 84.2451 6.19223 84.2523 6.19388C84.2662 6.19715 84.2685 6.19694 84.2817 6.19718C84.2997 6.19768 84.3211 6.208 84.3404 6.2033C84.3446 6.20223 84.3391 6.18096 84.3457 6.17734C84.3523 6.17372 84.3697 6.17552 84.3755 6.18054C84.3814 6.18556 84.3789 6.20228 84.3799 6.20611C84.3885 6.23846 84.4086 6.19366 84.4112 6.19255C84.4585 6.17367 84.499 6.19919 84.5433 6.19912C84.577 6.19901 84.613 6.19058 84.645 6.19174C84.6832 6.1932 84.7156 6.20473 84.7526 6.20275C84.7565 6.20256 84.752 6.17755 84.7567 6.17727C84.8075 6.17436 84.8579 6.17709 84.9085 6.19397C84.9136 6.19569 84.907 6.21765 84.9121 6.22068C84.9431 6.23873 84.9922 6.28209 85.0106 6.18646C85.0316 6.1902 85.0571 6.19406 85.0759 6.21333C85.088 6.22574 85.0763 6.24966 85.0911 6.23945C85.0945 6.23718 85.0901 6.21623 85.0952 6.2144C85.1164 6.20673 85.1395 6.21354 85.1605 6.20271C85.1648 6.20046 85.1636 6.18169 85.1648 6.17831C85.175 6.15093 85.1919 6.19619 85.1956 6.19948C85.2236 6.224 85.2441 6.21435 85.2703 6.21495C85.2763 6.2151 85.2692 6.18988 85.275 6.18912C85.3053 6.1855 85.3367 6.18767 85.3663 6.19886C85.3729 6.20141 85.3668 6.22289 85.37 6.22521C85.3839 6.23517 85.387 6.19459 85.4003 6.20336C85.4031 6.20516 85.4015 6.22355 85.402 6.22557C85.4101 6.25727 85.417 6.21235 85.4191 6.21136C85.4452 6.1978 85.4619 6.2447 85.4871 6.23806C85.4901 6.23722 85.4833 6.21395 85.4918 6.21301C85.5483 6.20658 85.608 6.21298 85.6639 6.23159C85.6726 6.23445 85.6664 6.25193 85.667 6.25409C85.6759 6.28775 85.6817 6.24264 85.6845 6.24094C85.7069 6.22871 85.7277 6.26655 85.7429 6.21281C85.8377 6.23146 85.9319 6.20129 86.0259 6.24942C86.0271 6.24998 86.0249 6.2722 86.0273 6.27322C86.056 6.28569 86.0505 6.25116 86.0695 6.20893C86.0742 6.19832 86.0888 6.24931 86.0901 6.25305C86.0948 6.26682 86.0899 6.29988 86.0915 6.30254C86.1045 6.32349 86.1023 6.21418 86.1199 6.21414C86.1204 6.21432 86.1181 6.23444 86.1196 6.23644C86.1242 6.24272 86.1287 6.23473 86.1332 6.24166C86.1434 6.25768 86.1471 6.3108 86.1627 6.27988C86.1647 6.27587 86.1616 6.21387 86.1773 6.21679C86.1835 6.21802 86.2111 6.21695 86.2189 6.22097C86.2266 6.22498 86.2213 6.24497 86.2219 6.24583C86.2427 6.27225 86.2348 6.2832 86.2452 6.32232C86.2557 6.36129 86.2528 6.26834 86.257 6.25797C86.2613 6.24762 86.2766 6.26942 86.2803 6.277C86.2841 6.28459 86.2794 6.29728 86.2827 6.30157C86.3048 6.3296 86.2924 6.25544 86.2997 6.24068C86.3169 6.20575 86.3303 6.27468 86.346 6.28144C86.3503 6.28326 86.3468 6.26756 86.3506 6.26609C86.3656 6.26049 86.3746 6.282 86.3917 6.26228C86.3945 6.25906 86.4083 6.21762 86.4172 6.24803C86.4185 6.25242 86.4149 6.2696 86.4213 6.27344C86.4308 6.27922 86.4481 6.28297 86.4583 6.27723C86.4659 6.27298 86.4572 6.24468 86.4668 6.25347C86.471 6.2574 86.4631 6.27395 86.4711 6.27995C86.479 6.28594 86.4993 6.28521 86.507 6.28464C86.5147 6.28406 86.5105 6.26259 86.5111 6.26114C86.5149 6.25286 86.5297 6.2425 86.531 6.24253C86.5968 6.23991 86.6576 6.2761 86.7217 6.26412C86.7267 6.26321 86.7234 6.24057 86.7242 6.2402C86.7414 6.23071 86.7278 6.29091 86.7398 6.31106C86.7381 6.26511 86.7452 6.27343 86.7573 6.26839C86.7632 6.26593 86.76 6.24814 86.7605 6.24632C86.7692 6.2193 86.7752 6.2542 86.7768 6.26134C86.7825 6.2876 86.7888 6.25657 86.7927 6.27412C86.7966 6.29155 86.7876 6.31738 86.7993 6.31705C86.8025 6.3006 86.7939 6.25762 86.8027 6.25065C86.836 6.22431 86.8983 6.25803 86.9251 6.26153C86.9518 6.26503 86.9605 6.262 86.9761 6.26794C87.0042 6.27869 86.9939 6.2468 87.0114 6.2322C87.0289 6.21761 87.0204 6.29607 87.0229 6.31293C87.0254 6.32979 87.0281 6.31244 87.0312 6.32171C87.0343 6.33097 87.0276 6.34244 87.0348 6.34592C87.042 6.3494 87.0618 6.3194 87.0643 6.30177C87.0698 6.2644 87.0609 6.22519 87.08 6.23897C87.0811 6.23979 87.0775 6.26042 87.0817 6.2625C87.1151 6.27838 87.1498 6.27937 87.1832 6.29342C87.1878 6.29538 87.1837 6.31833 87.1864 6.31973C87.2142 6.33441 87.2042 6.29571 87.2195 6.25273C87.2161 6.30993 87.2245 6.34493 87.2456 6.34527C87.2583 6.3455 87.2561 6.32051 87.2643 6.3029C87.2668 6.29759 87.2758 6.31475 87.2774 6.303C87.2827 6.26459 87.2743 6.22159 87.2961 6.23871C87.297 6.23952 87.294 6.26055 87.2973 6.26182C87.3186 6.27016 87.3212 6.22998 87.3442 6.22511C87.3623 6.2213 87.3944 6.2458 87.415 6.24978C87.4146 6.3141 87.434 6.29937 87.4419 6.25502C87.4552 6.25684 87.4697 6.25433 87.4826 6.26046C87.487 6.26255 87.4841 6.28117 87.4847 6.28319C87.4932 6.31475 87.499 6.27161 87.5019 6.26991C87.5332 6.25347 87.5586 6.28617 87.5884 6.25421C87.5895 6.25306 87.5912 6.20839 87.5992 6.24101C87.5997 6.24326 87.5899 6.26358 87.6039 6.26516C87.6179 6.26673 87.6443 6.29068 87.6638 6.26998C87.6685 6.265 87.6805 6.22873 87.69 6.25706C87.6913 6.26091 87.6899 6.27373 87.6917 6.28086C87.6977 6.30358 87.7009 6.25842 87.7079 6.29678C87.7149 6.33514 87.7295 6.36387 87.7491 6.33741C87.7497 6.33664 87.7544 6.30084 87.7606 6.30141C87.7704 6.30234 87.7844 6.3098 87.7947 6.30957C87.7996 6.30944 87.7965 6.28722 87.7973 6.28681C87.8305 6.27436 87.8541 6.29417 87.8896 6.30277C87.8961 6.30439 87.9148 6.27408 87.9274 6.29804C87.9412 6.32427 87.927 6.43339 87.9588 6.40739C87.9716 6.39699 87.9879 6.25856 88.0109 6.33028C88.0556 6.31251 88.097 6.34922 88.1418 6.32384C88.1438 6.32272 88.1502 6.28408 88.1549 6.28461C88.162 6.28547 88.1658 6.30352 88.1708 6.30471C88.1919 6.31015 88.2112 6.2947 88.2315 6.29711C88.2392 6.29798 88.2365 6.31665 88.2457 6.31769C88.2548 6.31872 88.261 6.29413 88.2734 6.30601C88.2828 6.31506 88.2922 6.36531 88.3047 6.37117C88.3052 6.3216 88.3137 6.32262 88.329 6.30954C88.3319 6.307 88.3288 6.28974 88.3301 6.28765C88.3358 6.27876 88.341 6.29306 88.3464 6.28338C88.3477 6.28106 88.3477 6.26413 88.3488 6.26127C88.3578 6.23634 88.3727 6.27442 88.3753 6.28105C88.3851 6.30623 88.3897 6.28421 88.3972 6.29413C88.4048 6.30404 88.3935 6.31644 88.4023 6.32245C88.4205 6.3349 88.4439 6.33216 88.4624 6.33294C88.4697 6.33315 88.4647 6.31055 88.4658 6.31005C88.481 6.30432 88.4964 6.32836 88.5049 6.28335C88.5155 6.39973 88.5141 6.27206 88.5359 6.29536C88.5376 6.29724 88.5398 6.35228 88.5332 6.36036C88.5266 6.36843 88.5166 6.35123 88.5075 6.36382C88.5053 6.36678 88.4929 6.41835 88.4912 6.42147C88.4779 6.44589 88.4761 6.36364 88.4753 6.35913C88.4674 6.31038 88.4522 6.36594 88.4482 6.36978C88.43 6.38737 88.4145 6.3758 88.3992 6.38836C88.3892 6.39647 88.3882 6.45034 88.3804 6.4487C88.3543 6.44325 88.3452 6.36809 88.3206 6.43325C88.3153 6.44715 88.3206 6.50603 88.3017 6.45973C88.3005 6.45681 88.2865 6.41446 88.2784 6.44125C88.2774 6.44463 88.2774 6.46179 88.276 6.46323C88.2671 6.47255 88.2611 6.45888 88.2513 6.46543C88.2415 6.47198 88.2297 6.48174 88.2185 6.47592C88.2118 6.47244 88.2031 6.44047 88.1999 6.43264C88.1908 6.41009 88.181 6.44706 88.1754 6.41976C88.1697 6.39231 88.1808 6.35064 88.1659 6.33291C88.1653 6.37749 88.1641 6.42325 88.1632 6.46809C88.1305 6.46652 88.0983 6.4521 88.0655 6.45407C88.0614 6.45436 88.0656 6.47833 88.0612 6.47925C88.0428 6.48306 88.0267 6.46597 88.0077 6.47278C87.9929 6.47814 87.9767 6.50351 87.9612 6.50991C87.9518 6.45889 87.9289 6.47621 87.9122 6.47155C87.9064 6.46994 87.9068 6.45631 87.9027 6.45187C87.887 6.43543 87.8943 6.48051 87.8901 6.4876C87.8716 6.51788 87.8701 6.41584 87.8484 6.41836C87.8472 6.41846 87.8332 6.47286 87.8312 6.47624C87.8189 6.49833 87.8292 6.45731 87.8215 6.45329C87.8075 6.44595 87.7977 6.43296 87.7812 6.44889C87.7764 6.45361 87.7649 6.48751 87.7555 6.46129C87.7543 6.45785 87.755 6.43988 87.754 6.43882C87.7361 6.42127 87.7356 6.47776 87.7254 6.49689C87.7152 6.51602 87.6994 6.47703 87.6962 6.46579C87.6878 6.43671 87.7026 6.45336 87.7031 6.45051C87.7084 6.41655 87.6969 6.4224 87.6881 6.41953C87.6868 6.36414 87.6745 6.36746 87.679 6.41678C87.6795 6.42216 87.6863 6.417 87.6881 6.41953C87.6804 6.47387 87.6668 6.48083 87.6519 6.43005C87.6449 6.40625 87.6515 6.3785 87.6303 6.38865C87.6206 6.39323 87.6244 6.43137 87.6159 6.44177C87.5964 6.46549 87.5712 6.42992 87.5511 6.43552C87.5438 6.43756 87.5509 6.45843 87.546 6.46054C87.5328 6.46621 87.5211 6.45054 87.5079 6.45857C87.5067 6.45932 87.5096 6.48118 87.5055 6.48145C87.4743 6.48399 87.4471 6.46999 87.4145 6.46961C87.3987 6.46943 87.3705 6.48148 87.3542 6.47906C87.3259 6.47499 87.2911 6.44321 87.2669 6.45093C87.2512 6.45587 87.2546 6.47773 87.2479 6.49262C87.2349 6.52149 87.2118 6.46978 87.2087 6.46177C87.2086 6.46151 87.2221 6.45635 87.2149 6.44513C87.2107 6.42175 87.2088 6.46167 87.2087 6.46177C87.2066 6.4566 87.1795 6.45164 87.1742 6.45582C87.1712 6.4581 87.1729 6.47881 87.1713 6.47961C87.1351 6.49814 87.0988 6.50341 87.0621 6.49372C87.0614 6.4933 87.0624 6.47014 87.0609 6.46944C87.0396 6.45914 87.026 6.48748 87.0084 6.50431C86.9909 6.52112 86.977 6.51549 86.9666 6.47572C86.9534 6.48073 86.9344 6.46315 86.9235 6.45248C86.9125 6.44182 86.911 6.48691 86.91 6.4878C86.88 6.51633 86.8627 6.49052 86.8316 6.4865C86.8168 6.48452 86.7875 6.49106 86.7715 6.49599C86.7588 6.49996 86.7512 6.48939 86.7395 6.49615C86.7379 6.49705 86.7395 6.51713 86.739 6.5179C86.726 6.54192 86.7323 6.49284 86.7296 6.48408C86.7198 6.4522 86.7138 6.43522 86.6972 6.45022C86.6933 6.45365 86.6821 6.52432 86.6751 6.52846C86.666 6.5337 86.6694 6.50837 86.6599 6.5145C86.6591 6.51501 86.6592 6.53063 86.6534 6.52994C86.626 6.52695 86.5962 6.51786 86.5678 6.51942C86.5639 6.51958 86.5689 6.54437 86.5633 6.545C86.537 6.54794 86.5082 6.54702 86.4825 6.53542C86.4762 6.53248 86.4802 6.51513 86.4788 6.50997C86.4704 6.47879 86.4585 6.5241 86.4565 6.52496C86.4096 6.54673 86.3737 6.50573 86.3259 6.52525C86.3233 6.5264 86.3032 6.57496 86.2943 6.53331C86.2937 6.53054 86.2848 6.48792 86.277 6.51706C86.2765 6.51888 86.282 6.54082 86.2724 6.53859C86.2628 6.53636 86.2473 6.55101 86.2341 6.5269C86.2299 6.51931 86.22 6.4768 86.2075 6.51068C86.2067 6.51305 86.1875 6.58967 86.1806 6.53681C86.1795 6.5281 86.1806 6.47216 86.1657 6.50084C86.1629 6.5064 86.168 6.51888 86.1605 6.52668C86.149 6.53868 86.1338 6.5237 86.1197 6.54862C86.1172 6.55303 86.1067 6.59101 86.0983 6.56219C86.097 6.55767 86.0995 6.53899 86.0951 6.5369C86.0739 6.52688 86.0518 6.53937 86.0304 6.52645C86.0228 6.52191 86.0267 6.49171 86.0187 6.48362C86.0108 6.47553 85.9949 6.46775 85.9866 6.48155C85.9783 6.49535 85.9873 6.54348 85.9749 6.54733C85.9209 6.56405 85.8674 6.53582 85.8135 6.53169C85.8055 6.53108 85.8122 6.5483 85.8004 6.54862C85.7569 6.5499 85.6819 6.56605 85.6442 6.52946C85.614 6.50015 85.652 6.47784 85.629 6.46592C85.6178 6.46023 85.6058 6.51617 85.6031 6.51794C85.5768 6.53583 85.5586 6.51104 85.5349 6.51865C85.53 6.52023 85.5348 6.5429 85.5307 6.54399C85.5165 6.54793 85.5016 6.5378 85.488 6.53966C85.4819 6.54054 85.483 6.55786 85.4774 6.55652C85.464 6.55352 85.4522 6.54624 85.4391 6.53001C85.438 6.52853 85.446 6.50699 85.4361 6.50618C85.42 6.50495 85.4001 6.48894 85.3817 6.50547C85.3762 6.51045 85.376 6.55003 85.3642 6.52269C85.3617 6.51698 85.3649 6.46946 85.3512 6.51052C85.3489 6.51735 85.3258 6.57274 85.3145 6.53703C85.3116 6.52764 85.3039 6.48874 85.2974 6.49486C85.2965 6.49583 85.3 6.51709 85.2946 6.51917C85.2754 6.5261 85.2552 6.52384 85.2355 6.53049C85.2302 6.53232 85.238 6.55432 85.2302 6.55633C85.2086 6.56189 85.1816 6.55629 85.1604 6.5494C85.1526 6.54682 85.158 6.52859 85.1574 6.52661C85.1483 6.49435 85.1429 6.53789 85.1399 6.54043C85.1211 6.55564 85.1067 6.53518 85.0894 6.54059C85.0846 6.54203 85.088 6.56279 85.087 6.56465C85.0771 6.58273 85.0845 6.54545 85.0783 6.54134C85.0607 6.5297 85.0412 6.53137 85.0234 6.53402C85.0169 6.53503 85.0243 6.5591 85.0184 6.55973C84.9838 6.56387 84.9479 6.56157 84.9141 6.5483C84.9077 6.54576 84.9117 6.52722 84.9104 6.52299C84.9013 6.49336 84.8879 6.53377 84.8848 6.53762C84.8708 6.55519 84.8654 6.5388 84.853 6.54186C84.7926 6.55709 84.718 6.54623 84.661 6.53953C84.5867 6.53089 84.5291 6.51326 84.4582 6.51784C84.4537 6.51811 84.4583 6.54277 84.4544 6.54331C84.4043 6.54926 84.3549 6.53962 84.3047 6.54674C84.3006 6.54729 84.3065 6.57066 84.2999 6.57232C84.2863 6.57587 84.2692 6.5746 84.2554 6.56714C84.2488 6.56354 84.2577 6.54348 84.251 6.54027C84.2353 6.53275 84.2185 6.53108 84.2024 6.53483C84.1955 6.53648 84.2059 6.56039 84.197 6.56066C84.1363 6.56304 84.0767 6.56715 84.0154 6.53619C84.0111 6.53407 84.0075 6.48547 83.9985 6.49479C83.9978 6.50828 83.9979 6.52414 83.9976 6.53856C83.9092 6.54632 83.8218 6.52947 83.7332 6.52687C83.7295 6.52677 83.7359 6.55251 83.7287 6.55244C83.6868 6.55206 83.6462 6.55919 83.6034 6.5336C83.5991 6.5311 83.6013 6.4858 83.5888 6.49265C83.5866 6.4939 83.5677 6.49995 83.5629 6.50978C83.5622 6.51126 83.5656 6.5324 83.5596 6.53302C83.5243 6.53623 83.4873 6.5314 83.452 6.51849C83.4463 6.51636 83.4524 6.49385 83.4483 6.49214C83.4196 6.48018 83.3883 6.4973 83.3609 6.47686C83.3425 6.46309 83.3493 6.42417 83.3395 6.38586C83.3381 6.38046 83.3268 6.3796 83.3262 6.35731C83.3247 6.30127 83.3302 6.23989 83.3279 6.18015C83.3274 6.16728 83.3122 6.18114 83.3212 6.15005C83.3218 6.14797 83.3329 6.13765 83.3356 6.1271C83.3375 6.1198 83.3341 6.09714 83.338 6.0878C83.3418 6.07847 83.3461 6.09747 83.3525 6.0865C83.3589 6.0754 83.3561 6.04961 83.3689 6.04656ZM86.8742 6.4048C86.8641 6.38315 86.8626 6.46246 86.8736 6.44348C86.8741 6.44247 86.8748 6.40586 86.8742 6.4048ZM88.0985 6.39227C88.0852 6.35729 88.0762 6.40873 88.0855 6.43575C88.0949 6.46274 88.1025 6.40288 88.0985 6.39227ZM88.2356 6.36673C88.2202 6.33915 88.2178 6.45162 88.2343 6.42888C88.2353 6.4276 88.2366 6.36834 88.2356 6.36673ZM83.3848 6.37496C83.3847 6.3739 83.3765 6.37288 83.3763 6.37392C83.3719 6.39911 83.3883 6.40115 83.3848 6.37496ZM88.3718 6.33893C88.3669 6.32371 88.353 6.34128 88.359 6.3602C88.3639 6.37541 88.3778 6.35785 88.3718 6.33893ZM86.3464 6.32015C86.3463 6.31897 86.3404 6.31791 86.3405 6.32459C86.3409 6.34611 86.3491 6.34003 86.3464 6.32015ZM88.6031 6.33763C88.5689 6.3334 88.5482 6.24049 88.5854 6.25098C88.5922 6.25287 88.5709 6.2806 88.5795 6.28898C88.5952 6.30424 88.6056 6.24591 88.6216 6.27717C88.6245 6.28289 88.6051 6.33808 88.6031 6.33776C88.6031 6.33772 88.6031 6.33768 88.6031 6.33763ZM86.8684 6.30954C86.8682 6.30849 86.8601 6.30749 86.8599 6.30853C86.8555 6.33371 86.8719 6.33573 86.8684 6.30954ZM86.0041 6.27111C86.0037 6.26888 85.9848 6.26679 85.9842 6.26885C85.9744 6.31002 86.0125 6.31437 86.0041 6.27111ZM87.4153 6.2515C87.4242 6.22616 87.4348 6.22318 87.4418 6.25499C87.433 6.2533 87.4242 6.25305 87.4153 6.2515Z" fill="#C4AE95"/>
<path d="M89.6305 12.5706C89.6236 12.5409 89.631 12.5019 89.6412 12.4723C89.6443 12.463 89.6584 12.4677 89.6612 12.4613C89.6666 12.4488 89.6597 12.4371 89.6662 12.4247C89.6685 12.4206 89.6907 12.4257 89.6926 12.4214C89.7024 12.3979 89.6967 12.3756 89.7015 12.3517C89.7248 12.234 89.7332 12.1184 89.7433 11.9993C89.7466 11.9601 89.7669 11.9124 89.758 11.8718C89.757 11.8671 89.7374 11.8699 89.7358 11.869C89.7112 11.8549 89.7506 11.8596 89.7558 11.8503C89.7765 11.8137 89.7783 11.773 89.7708 11.7378C89.7675 11.7228 89.7287 11.7378 89.7505 11.7227C89.752 11.7217 89.7727 11.7255 89.7749 11.7214C89.7799 11.7121 89.7762 11.6944 89.7779 11.6871C89.7811 11.6732 89.7809 11.6709 89.7812 11.6578C89.7817 11.6397 89.792 11.6183 89.7873 11.599C89.7862 11.5949 89.7649 11.6004 89.7613 11.5938C89.7577 11.5872 89.7595 11.5698 89.7645 11.5639C89.7695 11.558 89.7863 11.5605 89.7901 11.5595C89.8224 11.551 89.7776 11.5308 89.7765 11.5282C89.7577 11.481 89.7832 11.4405 89.7831 11.3961C89.783 11.3624 89.7746 11.3264 89.7757 11.2944C89.7772 11.2562 89.7887 11.2239 89.7867 11.1868C89.7865 11.1829 89.7615 11.1875 89.7613 11.1827C89.7583 11.1319 89.7611 11.0815 89.778 11.031C89.7797 11.0259 89.8016 11.0324 89.8047 11.0274C89.8227 10.9963 89.8661 10.9473 89.7704 10.9289C89.7742 10.9078 89.778 10.8823 89.7973 10.8635C89.8097 10.8514 89.8336 10.8632 89.8234 10.8483C89.8212 10.845 89.8002 10.8493 89.7984 10.8443C89.7907 10.8231 89.7975 10.7999 89.7867 10.779C89.7844 10.7747 89.7657 10.7759 89.7623 10.7746C89.7349 10.7645 89.7802 10.7476 89.7835 10.7439C89.808 10.7158 89.7983 10.6953 89.7989 10.6692C89.7991 10.6631 89.7739 10.6703 89.7731 10.6644C89.7695 10.6342 89.7717 10.6028 89.7828 10.5731C89.7854 10.5665 89.8069 10.5726 89.8092 10.5695C89.8192 10.5556 89.7786 10.5525 89.7873 10.5392C89.7891 10.5363 89.8075 10.5379 89.8096 10.5374C89.8413 10.5294 89.7963 10.5224 89.7953 10.5204C89.7818 10.4943 89.8287 10.4776 89.822 10.4524C89.8212 10.4493 89.7979 10.4561 89.797 10.4477C89.7906 10.3912 89.797 10.3314 89.8156 10.2755C89.8184 10.2668 89.8359 10.273 89.8381 10.2725C89.8717 10.2636 89.8266 10.2578 89.8249 10.255C89.8127 10.2326 89.8505 10.2117 89.7968 10.1965C89.8154 10.1018 89.7853 10.0075 89.8334 9.91359C89.834 9.9124 89.8562 9.91454 89.8572 9.91216C89.8697 9.88347 89.8351 9.88898 89.7929 9.86999C89.7823 9.86521 89.8333 9.85067 89.837 9.84938C89.8508 9.84469 89.8839 9.84955 89.8865 9.84798C89.9075 9.83499 89.7982 9.83711 89.7981 9.81958C89.7983 9.81903 89.8184 9.82133 89.8204 9.81986C89.8267 9.81529 89.8187 9.81076 89.8256 9.80628C89.8417 9.79605 89.8948 9.7924 89.8639 9.77677C89.8599 9.77479 89.7979 9.77781 89.8008 9.76216C89.802 9.75592 89.8009 9.7283 89.805 9.72056C89.809 9.71283 89.829 9.71814 89.8298 9.71759C89.8562 9.69676 89.8672 9.70466 89.9063 9.69422C89.9453 9.68379 89.8523 9.68668 89.842 9.68243C89.8316 9.67817 89.8534 9.66289 89.861 9.65914C89.8686 9.65539 89.8813 9.66007 89.8856 9.65673C89.9136 9.63462 89.8394 9.64703 89.8247 9.63974C89.7897 9.62256 89.8587 9.60918 89.8654 9.59345C89.8672 9.58919 89.8515 9.59267 89.8501 9.58888C89.8445 9.57387 89.866 9.56484 89.8463 9.54777C89.843 9.54497 89.8016 9.53117 89.832 9.52223C89.8364 9.52097 89.8536 9.52456 89.8574 9.51817C89.8632 9.50861 89.867 9.4914 89.8612 9.48112C89.857 9.47354 89.8287 9.48223 89.8375 9.47269C89.8414 9.46845 89.8579 9.47631 89.8639 9.46834C89.8699 9.46041 89.8692 9.44014 89.8686 9.43243C89.868 9.42473 89.8466 9.42894 89.8451 9.42832C89.8368 9.42455 89.8265 9.40978 89.8265 9.40847C89.8239 9.34261 89.8601 9.28188 89.8481 9.21775C89.8472 9.21272 89.8246 9.21607 89.8242 9.2153C89.8147 9.19807 89.8749 9.21166 89.895 9.19962C89.8491 9.20136 89.8574 9.19426 89.8524 9.18212C89.8499 9.17627 89.8321 9.17946 89.8303 9.17893C89.8033 9.17025 89.8382 9.16421 89.8453 9.16266C89.8716 9.15692 89.8406 9.15067 89.8581 9.14676C89.8755 9.14285 89.9014 9.15184 89.901 9.1402C89.8846 9.13694 89.8416 9.14558 89.8346 9.13674C89.8083 9.1034 89.842 9.04117 89.8455 9.01436C89.849 8.98761 89.846 8.97897 89.8519 8.96338C89.8627 8.93522 89.8308 8.94554 89.8162 8.92806C89.8016 8.91052 89.8801 8.91904 89.8969 8.91652C89.9138 8.91405 89.8964 8.91135 89.9057 8.90827C89.915 8.9052 89.9264 8.91184 89.9299 8.90463C89.9334 8.89741 89.9034 8.87767 89.8858 8.87511C89.8484 8.8697 89.8092 8.87859 89.823 8.85949C89.8238 8.85839 89.8444 8.86196 89.8465 8.85775C89.8624 8.82434 89.8634 8.78962 89.8774 8.75625C89.8794 8.75166 89.9023 8.75576 89.9037 8.75309C89.9184 8.72528 89.8797 8.73522 89.8367 8.71997C89.8939 8.7234 89.9289 8.71497 89.9293 8.69386C89.9295 8.68116 89.9045 8.68335 89.8869 8.67514C89.8816 8.67268 89.8987 8.6637 89.887 8.66207C89.8486 8.65671 89.8056 8.66516 89.8227 8.6434C89.8235 8.64244 89.8445 8.64548 89.8458 8.64218C89.8541 8.62086 89.814 8.6183 89.8091 8.59525C89.8053 8.57718 89.8298 8.54503 89.8338 8.52446C89.8981 8.52489 89.8834 8.50545 89.839 8.49757C89.8408 8.48421 89.8383 8.46979 89.8444 8.45688C89.8465 8.45244 89.8652 8.45536 89.8672 8.4548C89.8987 8.44621 89.8556 8.4404 89.8539 8.43752C89.8375 8.40628 89.8702 8.38083 89.8382 8.35101C89.837 8.34995 89.7924 8.34824 89.825 8.34027C89.8272 8.33975 89.8476 8.3496 89.8491 8.33558C89.8507 8.32155 89.8747 8.2951 89.854 8.27563C89.849 8.27092 89.8127 8.259 89.841 8.24943C89.8449 8.24816 89.8577 8.24955 89.8648 8.24771C89.8876 8.24176 89.8424 8.23852 89.8808 8.23152C89.9191 8.22453 89.9479 8.20999 89.9214 8.19035C89.9206 8.18973 89.8848 8.18508 89.8854 8.1789C89.8863 8.16904 89.8938 8.15505 89.8936 8.14475C89.8934 8.13982 89.8712 8.14298 89.8708 8.14212C89.8583 8.10898 89.8782 8.08539 89.8868 8.04989C89.8884 8.04338 89.8581 8.02467 89.882 8.01207C89.9083 7.99824 90.0174 8.01245 89.9914 7.98065C89.981 7.96783 89.8425 7.95159 89.9143 7.92854C89.8965 7.88383 89.9332 7.84249 89.9078 7.79766C89.9067 7.79564 89.8681 7.78927 89.8686 7.78453C89.8695 7.7775 89.8875 7.77363 89.8887 7.76861C89.8941 7.74756 89.8787 7.72829 89.8811 7.70799C89.882 7.70029 89.9006 7.70298 89.9017 7.69379C89.9027 7.68461 89.8781 7.67848 89.89 7.66603C89.899 7.65663 89.9493 7.64723 89.9552 7.63476C89.9056 7.63428 89.9066 7.62571 89.8935 7.61048C89.891 7.60755 89.8737 7.61069 89.8716 7.6093C89.8627 7.60367 89.877 7.59845 89.8674 7.5931C89.865 7.5918 89.8481 7.59174 89.8453 7.59067C89.8203 7.58162 89.8584 7.56671 89.865 7.56415C89.8902 7.55433 89.8682 7.54975 89.8781 7.54222C89.888 7.5347 89.9004 7.54594 89.9064 7.53716C89.9189 7.51896 89.9161 7.49558 89.9169 7.47709C89.9171 7.46972 89.8945 7.47475 89.894 7.47369C89.8883 7.45844 89.9123 7.44302 89.8673 7.43457C89.9837 7.42399 89.856 7.42537 89.8793 7.40357C89.8812 7.40185 89.9363 7.39967 89.9443 7.40626C89.9524 7.41285 89.9352 7.42285 89.9478 7.432C89.9508 7.43416 90.0023 7.44657 90.0055 7.44826C90.0299 7.46152 89.9476 7.4634 89.9431 7.4641C89.8944 7.47206 89.9499 7.48722 89.9538 7.49121C89.9714 7.50948 89.9598 7.525 89.9723 7.54027C89.9805 7.55027 90.0343 7.55124 90.0327 7.55909C90.0272 7.58517 89.9521 7.59428 90.0172 7.61885C90.0311 7.62412 90.09 7.61889 90.0437 7.63777C90.0408 7.63896 89.9984 7.65298 90.0252 7.66108C90.0286 7.66209 90.0458 7.66206 90.0472 7.6634C90.0565 7.67239 90.0429 7.67839 90.0494 7.68819C90.056 7.69798 90.0657 7.70976 90.0599 7.72094C90.0564 7.72768 90.0245 7.73633 90.0166 7.73956C89.9941 7.74867 90.031 7.75843 90.0037 7.76408C89.9763 7.76977 89.9346 7.75864 89.9169 7.77356C89.9615 7.77412 90.0072 7.77539 90.0521 7.77628C90.0505 7.80898 90.0361 7.84116 90.0381 7.87397C90.0383 7.87804 90.0623 7.87388 90.0632 7.87824C90.067 7.89664 90.05 7.91271 90.0568 7.9318C90.0621 7.94656 90.0875 7.96276 90.0939 7.97821C90.0429 7.98764 90.0602 8.01056 90.0555 8.02721C90.0539 8.03304 90.0403 8.03265 90.0359 8.0368C90.0194 8.05244 90.0645 8.04511 90.0716 8.0494C90.1019 8.0678 89.9998 8.06938 90.0023 8.09108C90.0024 8.09223 90.0568 8.10628 90.0602 8.10821C90.0823 8.12051 90.0413 8.11025 90.0373 8.11795C90.0299 8.132 90.0169 8.14176 90.0329 8.15825C90.0376 8.16305 90.0715 8.17458 90.0453 8.18392C90.0418 8.18515 90.0239 8.18447 90.0228 8.18546C90.0053 8.20335 90.0617 8.20382 90.0809 8.21405C90.1 8.22427 90.061 8.24006 90.0498 8.24328C90.0207 8.25169 90.0373 8.23684 90.0345 8.23638C90.0005 8.23103 90.0064 8.24255 90.0035 8.25135C89.9481 8.25263 89.9514 8.26494 90.0008 8.26048C90.0061 8.25997 90.001 8.25312 90.0035 8.25135C90.0579 8.25908 90.0648 8.2726 90.014 8.28755C89.9902 8.29454 89.9625 8.28793 89.9726 8.30917C89.9772 8.31882 90.0154 8.31509 90.0258 8.3236C90.0495 8.34304 90.0139 8.3683 90.0195 8.38834C90.0215 8.39561 90.0424 8.38853 90.0445 8.3935C90.0502 8.40669 90.0345 8.41832 90.0426 8.43157C90.0433 8.43278 90.0652 8.42984 90.0654 8.43396C90.068 8.4652 90.054 8.49239 90.0536 8.525C90.0534 8.54076 90.0655 8.56893 90.063 8.58525C90.059 8.61354 90.0272 8.64834 90.0349 8.67251C90.0399 8.68827 90.0617 8.68481 90.0766 8.69157C90.1055 8.7046 90.0538 8.72767 90.0458 8.73078C90.0455 8.73087 90.0403 8.71731 90.0291 8.72455C90.0057 8.72875 90.0457 8.73062 90.0458 8.73078C90.0406 8.73282 90.0356 8.75991 90.0398 8.76529C90.0421 8.76822 90.0628 8.76658 90.0636 8.7681C90.0821 8.80434 90.0874 8.84063 90.0777 8.87738C90.0773 8.87802 90.0541 8.87705 90.0534 8.87857C90.0431 8.89984 90.0715 8.91346 90.0883 8.93101C90.1051 8.94855 90.0995 8.96246 90.0597 8.97285C90.0647 8.98608 90.0471 9.00507 90.0365 9.016C90.0258 9.02693 90.0709 9.02845 90.0718 9.02942C90.1003 9.0594 90.0745 9.07674 90.0705 9.10785C90.0685 9.12264 90.075 9.15199 90.08 9.168C90.0839 9.18066 90.0734 9.18828 90.0801 9.19995C90.081 9.20152 90.1011 9.19993 90.1019 9.20041C90.1259 9.21343 90.0768 9.20717 90.0681 9.20986C90.0362 9.2196 90.0192 9.22562 90.0342 9.24229C90.0376 9.24613 90.1083 9.25734 90.1124 9.26434C90.1177 9.27346 90.0924 9.27002 90.0985 9.27956C90.099 9.28037 90.1146 9.2802 90.1139 9.28609C90.1109 9.31343 90.1018 9.34323 90.1034 9.37163C90.1036 9.37551 90.1284 9.37054 90.129 9.37614C90.1319 9.40245 90.131 9.43128 90.1194 9.45691C90.1165 9.46321 90.0991 9.45926 90.094 9.46063C90.0628 9.46904 90.1081 9.48096 90.1089 9.48292C90.1307 9.52985 90.0897 9.56576 90.1092 9.61358C90.1104 9.61618 90.1589 9.63622 90.1173 9.64516C90.1145 9.64577 90.0719 9.65462 90.101 9.66244C90.1029 9.66293 90.1248 9.65741 90.1226 9.66703C90.1203 9.67665 90.135 9.69213 90.1109 9.70535C90.1033 9.70954 90.0608 9.71943 90.0947 9.73191C90.097 9.73273 90.1737 9.752 90.1208 9.75888C90.1121 9.76 90.0561 9.75883 90.0848 9.77373C90.0904 9.77658 90.1029 9.77141 90.1107 9.77891C90.1227 9.7904 90.1077 9.80563 90.1326 9.81976C90.137 9.82222 90.175 9.83271 90.1462 9.84112C90.1417 9.84244 90.123 9.83994 90.1209 9.84438C90.1109 9.86551 90.1234 9.88763 90.1104 9.90908C90.1059 9.91668 90.0757 9.91279 90.0676 9.92071C90.0595 9.92864 90.0517 9.94459 90.0655 9.95288C90.0793 9.96117 90.1275 9.95212 90.1313 9.96454C90.148 10.0185 90.1198 10.072 90.1157 10.1259C90.1151 10.1339 90.1323 10.1273 90.1326 10.1391C90.1339 10.1825 90.15 10.2575 90.1134 10.2952C90.0841 10.3254 90.0618 10.2874 90.0499 10.3105C90.0442 10.3216 90.1002 10.3337 90.1019 10.3364C90.1198 10.3626 90.095 10.3809 90.1026 10.4045C90.1042 10.4094 90.1269 10.4046 90.128 10.4088C90.1319 10.423 90.1218 10.4379 90.1236 10.4514C90.1245 10.4575 90.1418 10.4564 90.1405 10.462C90.1375 10.4754 90.1302 10.4872 90.114 10.5003C90.1125 10.5015 90.091 10.4935 90.0902 10.5034C90.0889 10.5194 90.0729 10.5393 90.0895 10.5578C90.0944 10.5633 90.134 10.5635 90.1067 10.5752C90.101 10.5777 90.0534 10.5746 90.0945 10.5883C90.1013 10.5906 90.1567 10.6136 90.121 10.6249C90.1116 10.6279 90.0727 10.6355 90.0788 10.6421C90.0798 10.643 90.1011 10.6394 90.1031 10.6449C90.1101 10.6641 90.1078 10.6842 90.1145 10.704C90.1163 10.7093 90.1383 10.7014 90.1403 10.7093C90.1459 10.7309 90.1403 10.7579 90.1334 10.779C90.1308 10.7868 90.1126 10.7814 90.1106 10.782C90.0783 10.7911 90.1219 10.7965 90.1244 10.7996C90.1396 10.8184 90.1192 10.8327 90.1246 10.8501C90.126 10.8549 90.1468 10.8515 90.1486 10.8524C90.1667 10.8623 90.1294 10.8549 90.1253 10.8612C90.1137 10.8787 90.1154 10.8983 90.118 10.916C90.119 10.9225 90.1431 10.9152 90.1437 10.921C90.1479 10.9556 90.1456 10.9916 90.1323 11.0254C90.1297 11.0317 90.1112 11.0277 90.107 11.029C90.0773 11.0382 90.1178 11.0516 90.1216 11.0546C90.1392 11.0686 90.1228 11.0741 90.1258 11.0864C90.1411 11.1468 90.1302 11.2214 90.1235 11.2784C90.1149 11.3527 90.0972 11.4104 90.1018 11.4812C90.1021 11.4857 90.1268 11.4812 90.1273 11.4851C90.1332 11.5352 90.1236 11.5845 90.1307 11.6347C90.1313 11.6389 90.1546 11.6329 90.1563 11.6395C90.1599 11.6531 90.1586 11.6703 90.1511 11.684C90.1475 11.6907 90.1275 11.6817 90.1243 11.6885C90.1167 11.7041 90.1151 11.721 90.1188 11.7371C90.1205 11.7439 90.1444 11.7336 90.1446 11.7425C90.147 11.8032 90.1511 11.8628 90.1202 11.9241C90.1181 11.9283 90.0695 11.932 90.0788 11.9409C90.0923 11.9416 90.1081 11.9416 90.1225 11.9419C90.1303 12.0302 90.1135 12.1177 90.1109 12.2062C90.1107 12.21 90.1365 12.2035 90.1364 12.2108C90.136 12.2526 90.1432 12.2933 90.1176 12.3361C90.1151 12.3403 90.0698 12.3381 90.0766 12.3507C90.0779 12.3529 90.0839 12.3717 90.0938 12.3766C90.0952 12.3773 90.1164 12.3738 90.117 12.3799C90.1202 12.4152 90.1154 12.4522 90.1025 12.4874C90.1003 12.4931 90.0778 12.4871 90.0761 12.4911C90.0642 12.5199 90.0813 12.5511 90.0608 12.5786C90.0471 12.597 90.0082 12.5902 89.9698 12.5999C89.9644 12.6013 89.9636 12.6127 89.9413 12.6133C89.8853 12.6148 89.8239 12.6093 89.7641 12.6115C89.7513 12.612 89.7651 12.6273 89.734 12.6182C89.732 12.6176 89.7216 12.6066 89.7111 12.6038C89.7038 12.6019 89.6811 12.6054 89.6718 12.6015C89.6625 12.5976 89.6815 12.5934 89.6705 12.587C89.6594 12.5806 89.6336 12.5834 89.6305 12.5706ZM89.9888 9.0652C89.9671 9.07532 90.0464 9.07682 90.0275 9.06587C90.0265 9.06534 89.9898 9.06468 89.9888 9.0652ZM89.9763 7.84098C89.9413 7.8542 89.9927 7.86326 90.0197 7.85392C90.0467 7.84459 89.9869 7.83695 89.9763 7.84098ZM89.9507 7.70381C89.9231 7.71927 90.0356 7.7217 90.0129 7.70514C90.0116 7.70418 89.9523 7.7029 89.9507 7.70381ZM89.9589 12.5546C89.9579 12.5548 89.9569 12.563 89.9579 12.5632C89.9831 12.5675 89.9851 12.5511 89.9589 12.5546ZM89.9229 7.56769C89.9077 7.57252 89.9253 7.58641 89.9442 7.58041C89.9594 7.57559 89.9418 7.56168 89.9229 7.56769ZM89.9041 9.59302C89.903 9.59318 89.9019 9.59905 89.9086 9.59893C89.9301 9.59853 89.924 9.59037 89.9041 9.59302ZM89.9216 7.33634C89.9174 7.37052 89.8245 7.39125 89.835 7.35402C89.8369 7.34728 89.8646 7.36855 89.873 7.35997C89.8882 7.34427 89.8299 7.33385 89.8611 7.31783C89.8669 7.31493 89.9221 7.33439 89.9217 7.3364C89.9217 7.33638 89.9217 7.33636 89.9216 7.33634ZM89.8935 9.07103C89.8925 9.07123 89.8915 9.07936 89.8925 9.07955C89.9177 9.08395 89.9197 9.06759 89.8935 9.07103ZM89.8551 9.93532C89.8529 9.93577 89.8508 9.95461 89.8528 9.95523C89.894 9.96506 89.8984 9.92696 89.8551 9.93532ZM89.8355 8.52413C89.8101 8.51527 89.8072 8.50467 89.839 8.49761C89.8373 8.50642 89.837 8.51528 89.8355 8.52413Z" fill="#C4AE95"/>
<path d="M89.6305 5.25417C89.6236 5.22445 89.631 5.18549 89.6412 5.15589C89.6443 5.14661 89.6584 5.15131 89.6612 5.1449C89.6666 5.13237 89.6597 5.1207 89.6662 5.10832C89.6685 5.10422 89.6907 5.10933 89.6926 5.10502C89.7024 5.08145 89.6967 5.05915 89.7015 5.03527C89.7248 4.91763 89.7332 4.80201 89.7433 4.68293C89.7466 4.64367 89.7669 4.59595 89.758 4.55539C89.757 4.55066 89.7374 4.55348 89.7358 4.55258C89.7112 4.53846 89.7506 4.54315 89.7558 4.53393C89.7765 4.49732 89.7783 4.45661 89.7708 4.42138C89.7675 4.40639 89.7287 4.42142 89.7505 4.40633C89.752 4.40528 89.7727 4.40908 89.7749 4.40497C89.7799 4.39565 89.7762 4.37797 89.7779 4.37074C89.7811 4.35682 89.7809 4.35451 89.7812 4.34135C89.7817 4.32334 89.792 4.30193 89.7873 4.28261C89.7862 4.27849 89.7649 4.28395 89.7613 4.27737C89.7577 4.27079 89.7595 4.25338 89.7645 4.24751C89.7695 4.24164 89.7863 4.24414 89.7901 4.2431C89.8224 4.23455 89.7776 4.21441 89.7765 4.21182C89.7577 4.16458 89.7832 4.12406 89.7831 4.07971C89.783 4.04604 89.7746 4.01004 89.7757 3.97801C89.7772 3.93984 89.7887 3.90749 89.7867 3.87042C89.7865 3.8665 89.7615 3.87109 89.7613 3.86631C89.7583 3.81553 89.7611 3.76511 89.778 3.71455C89.7797 3.70948 89.8016 3.71602 89.8047 3.71095C89.8227 3.67994 89.8661 3.63086 89.7704 3.61244C89.7742 3.59144 89.778 3.56593 89.7973 3.54714C89.8097 3.53502 89.8336 3.54679 89.8234 3.5319C89.8212 3.52855 89.8002 3.53291 89.7984 3.52788C89.7907 3.50668 89.7975 3.48352 89.7867 3.46255C89.7844 3.45828 89.7657 3.45945 89.7623 3.45824C89.7349 3.44808 89.7802 3.43117 89.7835 3.42749C89.808 3.39942 89.7983 3.37892 89.7989 3.35277C89.7991 3.34671 89.7739 3.35388 89.7731 3.34804C89.7695 3.31776 89.7717 3.28639 89.7828 3.25673C89.7854 3.25014 89.8069 3.2562 89.8092 3.25305C89.8192 3.23915 89.7786 3.23607 89.7873 3.22275C89.7891 3.21994 89.8075 3.22152 89.8096 3.22101C89.8413 3.21298 89.7963 3.20601 89.7953 3.20395C89.7818 3.17785 89.8287 3.16117 89.822 3.13595C89.8212 3.13294 89.7979 3.13974 89.797 3.13126C89.7906 3.07477 89.797 3.01502 89.8156 2.95911C89.8184 2.95041 89.8359 2.95662 89.8381 2.95607C89.8717 2.94716 89.8266 2.94139 89.8249 2.93855C89.8127 2.91619 89.8505 2.8953 89.7968 2.8801C89.8154 2.78539 89.7853 2.69112 89.8334 2.59719C89.834 2.59599 89.8562 2.59813 89.8572 2.59575C89.8697 2.56706 89.8351 2.57257 89.7929 2.55359C89.7823 2.54881 89.8333 2.53426 89.837 2.53297C89.8508 2.52828 89.8839 2.53315 89.8865 2.53158C89.9075 2.51858 89.7982 2.5207 89.7981 2.50317C89.7983 2.50262 89.8184 2.50493 89.8204 2.50345C89.8267 2.49888 89.8187 2.49435 89.8256 2.48988C89.8417 2.47964 89.8948 2.476 89.8639 2.46036C89.8599 2.45838 89.7979 2.4614 89.8008 2.44575C89.802 2.43951 89.8009 2.4119 89.805 2.40416C89.809 2.39643 89.829 2.40174 89.8298 2.40118C89.8562 2.38035 89.8672 2.38825 89.9063 2.37782C89.9453 2.36738 89.8523 2.37028 89.842 2.36602C89.8316 2.36176 89.8534 2.34649 89.861 2.34273C89.8686 2.33898 89.8813 2.34366 89.8856 2.34033C89.9136 2.31821 89.8394 2.33062 89.8247 2.32333C89.7897 2.30615 89.8587 2.29277 89.8654 2.27704C89.8672 2.27279 89.8515 2.27626 89.8501 2.27247C89.8445 2.25746 89.866 2.24844 89.8463 2.23136C89.843 2.22857 89.8016 2.21476 89.832 2.20583C89.8364 2.20456 89.8536 2.20816 89.8574 2.20176C89.8632 2.19221 89.867 2.17499 89.8612 2.16472C89.857 2.15713 89.8287 2.16583 89.8375 2.15628C89.8414 2.15204 89.8579 2.1599 89.8639 2.15193C89.8699 2.144 89.8692 2.12373 89.8686 2.11602C89.868 2.10832 89.8466 2.11254 89.8451 2.11191C89.8368 2.10815 89.8265 2.09337 89.8265 2.09207C89.8239 2.0262 89.8601 1.96547 89.8481 1.90134C89.8472 1.89631 89.8246 1.89966 89.8242 1.8989C89.8147 1.88167 89.8749 1.89525 89.895 1.88322C89.8491 1.88496 89.8574 1.87785 89.8524 1.86572C89.8499 1.85987 89.8321 1.86305 89.8303 1.86252C89.8033 1.85385 89.8382 1.84781 89.8453 1.84625C89.8716 1.84051 89.8406 1.83426 89.8581 1.83035C89.8755 1.82645 89.9014 1.83543 89.901 1.8238C89.8846 1.82053 89.8416 1.82917 89.8346 1.82034C89.8083 1.787 89.842 1.72476 89.8455 1.69796C89.849 1.6712 89.846 1.66256 89.8519 1.64697C89.8627 1.61881 89.8308 1.62913 89.8162 1.61165C89.8016 1.59411 89.8801 1.60264 89.8969 1.60012C89.9138 1.59764 89.8964 1.59494 89.9057 1.59186C89.915 1.58879 89.9264 1.59544 89.9299 1.58822C89.9334 1.581 89.9034 1.56126 89.8858 1.5587C89.8484 1.55329 89.8092 1.56219 89.823 1.54308C89.8238 1.54199 89.8444 1.54555 89.8465 1.54134C89.8624 1.50793 89.8634 1.47322 89.8774 1.43984C89.8794 1.43525 89.9023 1.43936 89.9037 1.43669C89.9184 1.40887 89.8797 1.41881 89.8367 1.40357C89.8939 1.40699 89.9289 1.39856 89.9293 1.37745C89.9295 1.36476 89.9045 1.36694 89.8869 1.35873C89.8816 1.35627 89.8987 1.34729 89.887 1.34567C89.8486 1.3403 89.8056 1.34876 89.8227 1.32699C89.8235 1.32604 89.8445 1.32908 89.8458 1.32578C89.8541 1.30445 89.814 1.3019 89.8091 1.27884C89.8053 1.26077 89.8298 1.22863 89.8338 1.20805C89.8981 1.20848 89.8834 1.18905 89.839 1.18116C89.8408 1.16781 89.8383 1.15339 89.8444 1.14048C89.8465 1.13604 89.8652 1.13895 89.8672 1.13839C89.8987 1.1298 89.8556 1.124 89.8539 1.12112C89.8375 1.08987 89.8702 1.06442 89.8382 1.03461C89.837 1.03355 89.7924 1.03183 89.825 1.02386C89.8272 1.02335 89.8476 1.03319 89.8491 1.01917C89.8507 1.00514 89.8747 0.978698 89.854 0.959223C89.849 0.954511 89.8127 0.942591 89.841 0.933023C89.8449 0.931749 89.8577 0.933143 89.8648 0.931304C89.8876 0.925355 89.8424 0.922109 89.8808 0.915119C89.9191 0.908128 89.9479 0.893587 89.9214 0.873948C89.9206 0.873322 89.8848 0.868672 89.8854 0.862496C89.8863 0.852636 89.8938 0.838641 89.8936 0.828346C89.8934 0.823416 89.8712 0.826571 89.8708 0.825716C89.8583 0.792572 89.8782 0.768987 89.8868 0.73348C89.8884 0.726971 89.8581 0.708268 89.882 0.695667C89.9083 0.681833 90.0174 0.696049 89.9914 0.664248C89.981 0.651421 89.8425 0.635182 89.9143 0.612132C89.8965 0.567427 89.9332 0.526083 89.9078 0.481254C89.9067 0.479237 89.8681 0.472864 89.8686 0.468123C89.8695 0.461089 89.8875 0.457224 89.8887 0.452201C89.8941 0.43115 89.8787 0.411885 89.8811 0.391588C89.882 0.383882 89.9006 0.386576 89.9017 0.377385C89.9027 0.3682 89.8781 0.362075 89.89 0.349627C89.899 0.340227 89.9493 0.330827 89.9552 0.31835C89.9056 0.317875 89.9066 0.309303 89.8935 0.294072C89.891 0.291143 89.8737 0.294284 89.8716 0.292899C89.8627 0.287261 89.877 0.282046 89.8674 0.276693C89.865 0.275392 89.8481 0.27533 89.8453 0.274265C89.8203 0.265213 89.8584 0.250303 89.865 0.247742C89.8902 0.237926 89.8682 0.233339 89.8781 0.225811C89.888 0.218295 89.9004 0.229533 89.9064 0.220753C89.9189 0.202554 89.9161 0.17917 89.9169 0.160686C89.9171 0.153311 89.8945 0.158342 89.894 0.157287C89.8883 0.142036 89.9123 0.126615 89.8673 0.118159C89.9837 0.107585 89.856 0.108963 89.8793 0.0871644C89.8812 0.0854468 89.9363 0.0832629 89.9443 0.0898552C89.9524 0.0964465 89.9352 0.106443 89.9478 0.11559C89.9508 0.117755 90.0023 0.130163 90.0055 0.131855C90.0299 0.145116 89.9476 0.146995 89.9431 0.147697C89.8944 0.155653 89.9499 0.170815 89.9538 0.174807C89.9714 0.193072 89.9598 0.208591 89.9723 0.223868C89.9805 0.23386 90.0343 0.234838 90.0327 0.242684C90.0272 0.268765 89.9521 0.277871 90.0172 0.302448C90.0311 0.307718 90.09 0.30248 90.0437 0.321364C90.0408 0.322551 89.9984 0.336571 90.0252 0.344671C90.0286 0.345688 90.0458 0.345655 90.0472 0.346998C90.0565 0.355989 90.0429 0.361986 90.0494 0.371781C90.056 0.381575 90.0657 0.393354 90.0599 0.404536C90.0564 0.411276 90.0245 0.419922 90.0166 0.423149C89.9941 0.432259 90.031 0.442026 90.0037 0.44767C89.9763 0.45336 89.9346 0.442235 89.9169 0.457158C89.9615 0.457711 90.0072 0.458981 90.0521 0.459869C90.0505 0.492573 90.0361 0.524754 90.0381 0.557567C90.0383 0.561635 90.0623 0.557475 90.0632 0.561836C90.067 0.580235 90.05 0.596308 90.0568 0.615389C90.0621 0.630158 90.0875 0.646356 90.0939 0.6618C90.0429 0.671234 90.0602 0.694152 90.0555 0.710801C90.0539 0.716633 90.0403 0.716243 90.0359 0.72039C90.0194 0.736038 90.0645 0.728704 90.0716 0.732995C90.1019 0.751398 89.9998 0.752974 90.0023 0.774672C90.0024 0.775821 90.0568 0.789872 90.0602 0.791808C90.0823 0.804105 90.0413 0.793843 90.0373 0.801539C90.0299 0.81559 90.0169 0.825354 90.0329 0.84184C90.0376 0.846646 90.0715 0.858179 90.0453 0.867514C90.0418 0.868742 90.0239 0.868063 90.0228 0.869051C90.0053 0.886943 90.0617 0.887414 90.0809 0.897639C90.1 0.907866 90.061 0.923658 90.0498 0.926873C90.0207 0.935282 90.0373 0.920429 90.0345 0.919974C90.0005 0.914624 90.0064 0.926144 90.0035 0.934946C89.9481 0.93622 89.9514 0.948529 90.0008 0.94407C90.0061 0.943563 90.001 0.936713 90.0035 0.934946C90.0579 0.942671 90.0648 0.956198 90.014 0.97114C89.9902 0.978133 89.9625 0.971522 89.9726 0.992767C89.9772 1.00241 90.0154 0.998683 90.0258 1.00719C90.0495 1.02663 90.0139 1.05189 90.0195 1.07193C90.0215 1.07921 90.0424 1.07212 90.0445 1.07709C90.0502 1.09028 90.0345 1.10192 90.0426 1.11517C90.0433 1.11637 90.0652 1.11344 90.0654 1.11756C90.068 1.14879 90.054 1.17599 90.0536 1.2086C90.0534 1.22435 90.0655 1.25252 90.063 1.26885C90.059 1.29714 90.0272 1.33194 90.0349 1.3561C90.0399 1.37187 90.0617 1.36841 90.0766 1.37516C90.1055 1.3882 90.0538 1.41127 90.0458 1.41437C90.0455 1.41447 90.0403 1.4009 90.0291 1.40814C90.0057 1.41235 90.0457 1.41422 90.0458 1.41437C90.0406 1.41641 90.0356 1.44351 90.0398 1.44889C90.0421 1.45181 90.0628 1.45018 90.0636 1.4517C90.0821 1.48793 90.0874 1.52422 90.0777 1.56097C90.0773 1.56162 90.0541 1.56064 90.0534 1.56216C90.0431 1.58344 90.0715 1.59706 90.0883 1.6146C90.1051 1.63215 90.0995 1.64606 90.0597 1.65644C90.0647 1.66968 90.0471 1.68867 90.0365 1.6996C90.0258 1.71052 90.0709 1.71205 90.0718 1.71301C90.1003 1.743 90.0745 1.76033 90.0705 1.79145C90.0685 1.80624 90.075 1.83558 90.08 1.85159C90.0839 1.86425 90.0734 1.87188 90.0801 1.88354C90.081 1.88512 90.1011 1.88352 90.1019 1.88401C90.1259 1.89702 90.0768 1.89077 90.0681 1.89345C90.0362 1.9032 90.0192 1.90922 90.0342 1.92589C90.0376 1.92973 90.1083 1.94093 90.1124 1.94794C90.1177 1.95705 90.0924 1.95361 90.0985 1.96315C90.099 1.96397 90.1146 1.9638 90.1139 1.96969C90.1109 1.99702 90.1018 2.02682 90.1034 2.05522C90.1036 2.0591 90.1284 2.05413 90.129 2.05974C90.1319 2.08604 90.131 2.11487 90.1194 2.1405C90.1165 2.14681 90.0991 2.14285 90.094 2.14422C90.0628 2.15263 90.1081 2.16455 90.1089 2.16652C90.1307 2.21344 90.0897 2.24935 90.1092 2.29717C90.1104 2.29978 90.1589 2.31981 90.1173 2.32875C90.1145 2.32937 90.0719 2.33821 90.101 2.34603C90.1029 2.34652 90.1248 2.34101 90.1226 2.35063C90.1203 2.36024 90.135 2.37572 90.1109 2.38894C90.1033 2.39313 90.0608 2.40302 90.0947 2.41551C90.097 2.41632 90.1737 2.4356 90.1208 2.44248C90.1121 2.44359 90.0561 2.44242 90.0848 2.45733C90.0904 2.46017 90.1029 2.455 90.1107 2.46251C90.1227 2.474 90.1077 2.48923 90.1326 2.50335C90.137 2.50582 90.175 2.5163 90.1462 2.52472C90.1417 2.52603 90.123 2.52353 90.1209 2.52797C90.1109 2.5491 90.1234 2.57122 90.1104 2.59267C90.1059 2.60027 90.0757 2.59639 90.0676 2.60431C90.0595 2.61223 90.0517 2.62819 90.0655 2.63648C90.0793 2.64477 90.1275 2.63571 90.1313 2.64813C90.148 2.70212 90.1198 2.7556 90.1157 2.80952C90.1151 2.81751 90.1323 2.81088 90.1326 2.82267C90.1339 2.86611 90.15 2.94112 90.1134 2.97881C90.0841 3.00902 90.0618 2.97101 90.0499 2.99409C90.0442 3.00523 90.1002 3.01728 90.1019 3.01996C90.1198 3.04623 90.095 3.06448 90.1026 3.08812C90.1042 3.09301 90.1269 3.08822 90.128 3.09237C90.1319 3.10657 90.1218 3.12148 90.1236 3.13504C90.1245 3.14113 90.1418 3.14 90.1405 3.1456C90.1375 3.159 90.1302 3.17084 90.114 3.1839C90.1125 3.18509 90.091 3.17707 90.0902 3.18698C90.0889 3.20302 90.0729 3.22292 90.0895 3.24138C90.0944 3.24685 90.134 3.24707 90.1067 3.25884C90.101 3.26131 90.0534 3.25816 90.0945 3.27187C90.1013 3.27417 90.1567 3.2972 90.121 3.30851C90.1116 3.31149 90.0727 3.3191 90.0788 3.32568C90.0798 3.32658 90.1011 3.323 90.1031 3.32845C90.1101 3.34768 90.1078 3.36784 90.1145 3.38759C90.1163 3.39287 90.1383 3.38501 90.1403 3.39287C90.1459 3.41449 90.1403 3.44149 90.1334 3.46263C90.1308 3.47042 90.1126 3.46504 90.1106 3.4656C90.0783 3.47473 90.1219 3.48012 90.1244 3.48314C90.1396 3.50197 90.1192 3.51631 90.1246 3.53366C90.126 3.53845 90.1468 3.53506 90.1486 3.53601C90.1667 3.5459 90.1294 3.53853 90.1253 3.54479C90.1137 3.56232 90.1154 3.58187 90.118 3.5996C90.119 3.60611 90.1431 3.59879 90.1437 3.60464C90.1479 3.63923 90.1456 3.67519 90.1323 3.70895C90.1297 3.71531 90.1112 3.71131 90.107 3.71263C90.0773 3.72176 90.1178 3.73514 90.1216 3.73822C90.1392 3.75222 90.1228 3.75766 90.1258 3.77003C90.1411 3.83043 90.1302 3.90501 90.1235 3.96202C90.1149 4.03632 90.0972 4.09397 90.1018 4.16483C90.1021 4.16933 90.1268 4.16479 90.1273 4.16867C90.1332 4.21879 90.1236 4.26813 90.1307 4.31834C90.1313 4.32246 90.1546 4.31652 90.1563 4.32314C90.1599 4.3367 90.1586 4.35389 90.1511 4.36761C90.1475 4.3743 90.1275 4.36532 90.1243 4.37206C90.1167 4.38774 90.1151 4.40455 90.1188 4.42065C90.1205 4.42751 90.1444 4.41717 90.1446 4.42607C90.147 4.48676 90.1511 4.54637 90.1202 4.60769C90.1181 4.6119 90.0695 4.61559 90.0788 4.62453C90.0923 4.6252 90.1081 4.62516 90.1225 4.62546C90.1303 4.7138 90.1135 4.80125 90.1109 4.88984C90.1107 4.89358 90.1365 4.88712 90.1364 4.89435C90.136 4.93621 90.1432 4.97685 90.1176 5.01967C90.1151 5.02392 90.0698 5.02174 90.0766 5.03425C90.0779 5.03646 90.0839 5.05532 90.0938 5.06019C90.0952 5.06085 90.1164 5.05741 90.117 5.06349C90.1202 5.0988 90.1154 5.13579 90.1025 5.17104C90.1003 5.17673 90.0778 5.17067 90.0761 5.17472C90.0642 5.20346 90.0813 5.23472 90.0608 5.26218C90.0471 5.28056 90.0082 5.27376 89.9698 5.28353C89.9644 5.28491 89.9636 5.29629 89.9413 5.29688C89.8853 5.29839 89.8239 5.29288 89.7641 5.29514C89.7513 5.29562 89.7651 5.31086 89.734 5.30184C89.732 5.30121 89.7216 5.29015 89.7111 5.28743C89.7038 5.28554 89.6811 5.28895 89.6718 5.28508C89.6625 5.28122 89.6815 5.27697 89.6705 5.27056C89.6594 5.26415 89.6336 5.26697 89.6305 5.25417ZM89.9888 1.7488C89.9671 1.75892 90.0464 1.76041 90.0275 1.74947C90.0265 1.74894 89.9898 1.74828 89.9888 1.7488ZM89.9763 0.52457C89.9413 0.537797 89.9927 0.54685 90.0197 0.537518C90.0467 0.528187 89.9869 0.52054 89.9763 0.52457ZM89.9507 0.3874C89.9231 0.402859 90.0356 0.405294 90.0129 0.388735C90.0116 0.387773 89.9523 0.386495 89.9507 0.3874ZM89.9589 5.23823C89.9579 5.23837 89.9569 5.24655 89.9579 5.24675C89.9831 5.2511 89.9851 5.23474 89.9589 5.23823ZM89.9229 0.251282C89.9077 0.256109 89.9253 0.270005 89.9442 0.264008C89.9594 0.25918 89.9418 0.245272 89.9229 0.251282ZM89.9041 2.27662C89.903 2.27678 89.9019 2.28264 89.9086 2.28253C89.9301 2.28213 89.924 2.27397 89.9041 2.27662ZM89.9216 0.0199351C89.9174 0.0541158 89.8245 0.0748391 89.835 0.0376172C89.8369 0.0308766 89.8646 0.0521455 89.873 0.0435653C89.8882 0.0278678 89.8299 0.0174417 89.8611 0.00142336C89.8669 -0.00147676 89.9221 0.0179853 89.9217 0.0199957C89.9217 0.0199757 89.9217 0.0199542 89.9216 0.0199351ZM89.8935 1.75463C89.8925 1.75483 89.8915 1.76295 89.8925 1.76314C89.9177 1.76754 89.9197 1.75118 89.8935 1.75463ZM89.8551 2.61892C89.8529 2.61936 89.8508 2.63821 89.8528 2.63882C89.894 2.64865 89.8984 2.61055 89.8551 2.61892ZM89.8355 1.20773C89.8101 1.19887 89.8072 1.18827 89.839 1.1812C89.8373 1.19001 89.837 1.19887 89.8355 1.20773Z" fill="#C4AE95"/>
<ellipse cx="94.1375" cy="6.30681" rx="1.85625" ry="1.06071" fill="#C4AE95"/>
<ellipse cx="89.8927" cy="10.2883" rx="1.85625" ry="1.06071" transform="rotate(-90 89.8927 10.2883)" fill="#C4AE95"/>
<ellipse cx="89.8927" cy="2.32735" rx="1.85625" ry="1.06071" transform="rotate(-90 89.8927 2.32735)" fill="#C4AE95"/>
<ellipse cx="85.6512" cy="6.30681" rx="1.85625" ry="1.06071" fill="#C4AE95"/>
<circle cx="79.024" cy="6.31303" r="1.59038" fill="#C4AE95"/>
<circle cx="1.59038" cy="1.59038" r="1.59038" transform="matrix(-1 0 0 1 102.359 4.72266)" fill="#C4AE95"/>
<circle cx="73.7185" cy="6.29853" r="1.06025" fill="#C4AE95"/>
<circle cx="1.06025" cy="1.06025" r="1.06025" transform="matrix(-1 0 0 1 107.131 5.23828)" fill="#C4AE95"/>
<circle cx="69.2112" cy="6.30691" r="0.795189" fill="#C4AE95"/>
<circle cx="0.795189" cy="0.795189" r="0.795189" transform="matrix(-1 0 0 1 111.373 5.51172)" fill="#C4AE95"/>
<circle cx="0.795189" cy="6.56863" r="0.795189" fill="#C4AE95"/>
<circle cx="0.795189" cy="0.795189" r="0.795189" transform="matrix(-1 0 0 1 179.791 5.77344)" fill="#C4AE95"/>
<path d="M9.56316 6.05002C9.88413 6.04311 10.3049 6.0505 10.6246 6.06064C10.7248 6.06378 10.6741 6.07784 10.7433 6.08064C10.8786 6.08611 11.0046 6.07921 11.1383 6.08572C11.1826 6.08795 11.1275 6.11022 11.1739 6.11204C11.4285 6.12188 11.6694 6.11621 11.9273 6.12094C13.1978 6.14429 14.4465 6.15265 15.7325 6.1628C16.1565 6.16612 16.672 6.18633 17.1099 6.17749C17.1611 6.17644 17.1306 6.1569 17.1403 6.15529C17.2929 6.13063 17.2422 6.17008 17.3418 6.17532C17.7371 6.19602 18.1768 6.19782 18.5573 6.19028C18.7192 6.18701 18.5569 6.14819 18.7199 6.16998C18.7312 6.17146 18.6901 6.19221 18.7345 6.19442C18.8352 6.1994 19.0262 6.19569 19.1042 6.19734C19.2546 6.20061 19.2794 6.2004 19.4217 6.20064C19.6161 6.20114 19.8474 6.21146 20.056 6.20676C20.1005 6.20569 20.0416 6.18442 20.1126 6.18079C20.1837 6.17718 20.3717 6.17898 20.4351 6.184C20.4985 6.18902 20.4715 6.20574 20.4827 6.20957C20.575 6.24192 20.7925 6.19712 20.8205 6.19601C21.3308 6.17713 21.7683 6.20265 22.2473 6.20258C22.6109 6.20247 22.9997 6.19404 23.3457 6.1952C23.7579 6.19666 24.1073 6.20819 24.5077 6.20621C24.55 6.20602 24.5004 6.18101 24.5521 6.18073C25.1004 6.17782 25.645 6.18055 26.191 6.19743C26.2458 6.19915 26.1752 6.22111 26.2299 6.22414C26.5649 6.24219 27.0949 6.28555 27.2938 6.18992C27.5207 6.19366 27.7961 6.19751 27.9991 6.21679C28.13 6.2292 28.0029 6.25312 28.1637 6.24291C28.1999 6.24064 28.1528 6.21969 28.2071 6.21786C28.4361 6.21019 28.6862 6.217 28.9127 6.20617C28.9587 6.20392 28.9462 6.18515 28.9592 6.18177C29.0689 6.15439 29.2515 6.19965 29.2913 6.20294C29.5945 6.22746 29.8159 6.21781 30.0983 6.21841C30.1638 6.21856 30.0863 6.19334 30.1494 6.19258C30.4764 6.18896 30.8152 6.19113 31.1355 6.20232C31.2067 6.20487 31.1412 6.22635 31.1752 6.22867C31.3253 6.23863 31.3586 6.19805 31.5026 6.20682C31.5329 6.20862 31.5158 6.22701 31.5213 6.22903C31.608 6.26073 31.6833 6.21581 31.7055 6.21482C31.9874 6.20126 32.1676 6.24816 32.4399 6.24152C32.4725 6.24068 32.399 6.21741 32.4906 6.21647C33.1007 6.21004 33.7459 6.21644 34.3498 6.23505C34.4437 6.23791 34.3767 6.25539 34.3826 6.25754C34.4789 6.29121 34.5412 6.2461 34.5718 6.2444C34.8134 6.23217 35.039 6.27 35.2031 6.21627C36.226 6.23492 37.2442 6.20475 38.2586 6.25288C38.2715 6.25344 38.2484 6.27566 38.2741 6.27668C38.5839 6.28915 38.5244 6.25462 38.7295 6.21239C38.7811 6.20178 38.9382 6.25277 38.9521 6.25651C39.0027 6.27028 38.9502 6.30334 38.9672 6.306C39.1075 6.32695 39.0846 6.21763 39.274 6.2176C39.2799 6.21778 39.255 6.2379 39.2709 6.2399C39.3203 6.24618 39.3692 6.23819 39.4175 6.24511C39.5281 6.26114 39.5674 6.31426 39.7363 6.28334C39.7577 6.27933 39.725 6.21732 39.8941 6.22025C39.9614 6.22147 40.2597 6.22041 40.3433 6.22443C40.4268 6.22844 40.3695 6.24842 40.3754 6.24929C40.6004 6.27571 40.5151 6.28666 40.6278 6.32578C40.7405 6.36475 40.7092 6.2718 40.7552 6.26143C40.8012 6.25108 40.9661 6.27288 41.0067 6.28046C41.0472 6.28804 40.9967 6.30074 41.0327 6.30503C41.2715 6.33306 41.1375 6.2589 41.2162 6.24414C41.4018 6.20921 41.5463 6.27814 41.7161 6.2849C41.7621 6.28672 41.7246 6.27102 41.7655 6.26955C41.9276 6.26395 42.0251 6.28546 42.2095 6.26573C42.2397 6.26252 42.3888 6.22108 42.4853 6.25149C42.4989 6.25588 42.4601 6.27305 42.5292 6.2769C42.6324 6.28268 42.8183 6.28643 42.9292 6.28069C43.0112 6.27644 42.9173 6.24814 43.0204 6.25693C43.0662 6.26086 42.9813 6.27741 43.0673 6.28341C43.153 6.2894 43.3719 6.28867 43.4552 6.2881C43.5383 6.28752 43.4928 6.26605 43.4995 6.2646C43.5402 6.25632 43.6998 6.24596 43.7139 6.24599C44.4252 6.24337 45.0811 6.27956 45.7737 6.26758C45.828 6.26667 45.7918 6.24403 45.8001 6.24366C45.9862 6.23417 45.8395 6.29437 45.9695 6.31452C45.9507 6.26857 46.0274 6.27689 46.1585 6.27185C46.2216 6.26939 46.1872 6.2516 46.193 6.24978C46.2866 6.22275 46.3519 6.25766 46.3687 6.2648C46.4307 6.29106 46.4982 6.26003 46.5404 6.27758C46.5826 6.29501 46.4855 6.32084 46.6112 6.3205C46.6464 6.30406 46.5531 6.26108 46.6486 6.25411C47.0086 6.22777 47.6808 6.26149 47.9703 6.26499C48.2592 6.26849 48.3525 6.26546 48.5209 6.2714C48.825 6.28215 48.7136 6.25026 48.9024 6.23566C49.0918 6.22107 48.9997 6.29953 49.0269 6.31639C49.0537 6.33325 49.0828 6.3159 49.1161 6.32517C49.1492 6.33443 49.0775 6.3459 49.1554 6.34938C49.2334 6.35285 49.4466 6.32286 49.4742 6.30523C49.5326 6.26786 49.4366 6.22865 49.6429 6.24243C49.6548 6.24325 49.6162 6.26388 49.6617 6.26596C50.0226 6.28184 50.3975 6.28283 50.7579 6.29687C50.8074 6.29884 50.7631 6.32179 50.792 6.32319C51.0924 6.33787 50.985 6.29917 51.1497 6.25618C51.1127 6.31339 51.2037 6.34839 51.4318 6.34873C51.5688 6.34895 51.5452 6.32397 51.6339 6.30636C51.6605 6.30105 51.7575 6.31821 51.775 6.30646C51.833 6.26805 51.7416 6.22505 51.9767 6.24217C51.987 6.24298 51.9542 6.26401 51.9898 6.26528C52.2202 6.27362 52.2477 6.23344 52.4967 6.22857C52.6919 6.22476 53.039 6.24925 53.2613 6.25324C53.2566 6.31756 53.4665 6.30283 53.5516 6.25848C53.6959 6.2603 53.8516 6.25779 53.991 6.26392C54.039 6.26601 54.0075 6.28463 54.0136 6.28665C54.1063 6.31821 54.169 6.27507 54.2002 6.27337C54.5376 6.25693 54.8125 6.28963 55.1345 6.25767C55.1459 6.25652 55.1644 6.21185 55.2505 6.24447C55.256 6.24672 55.1497 6.26704 55.3012 6.26862C55.4527 6.27019 55.7383 6.29414 55.9486 6.27344C55.9995 6.26845 56.1282 6.23218 56.2315 6.26052C56.2453 6.26437 56.2302 6.27718 56.2501 6.28431C56.3144 6.30703 56.3494 6.26188 56.4249 6.30024C56.5004 6.3386 56.6575 6.36733 56.8696 6.34087C56.8763 6.3401 56.9265 6.3043 56.9932 6.30487C57.0997 6.3058 57.2509 6.31326 57.3621 6.31303C57.4153 6.3129 57.3812 6.29068 57.3905 6.29027C57.7484 6.27782 58.0032 6.29763 58.3866 6.30623C58.4569 6.30785 58.6589 6.27754 58.795 6.3015C58.9444 6.32773 58.7909 6.43685 59.1343 6.41085C59.2729 6.40045 59.4482 6.26202 59.6972 6.33374C60.18 6.31597 60.6265 6.35268 61.1107 6.3273C61.1324 6.32618 61.2013 6.28754 61.2525 6.28807C61.3285 6.28893 61.3702 6.30698 61.4244 6.30817C61.6518 6.31361 61.8598 6.29816 62.0791 6.30056C62.1623 6.30144 62.1332 6.32011 62.2324 6.32115C62.3316 6.32218 62.3978 6.29759 62.5322 6.30947C62.6337 6.31852 62.7353 6.36877 62.87 6.37463C62.8752 6.32506 62.9677 6.32608 63.1322 6.31299C63.1638 6.31046 63.1299 6.2932 63.1449 6.29111C63.2058 6.28222 63.2621 6.29652 63.3199 6.28684C63.334 6.28451 63.3346 6.26759 63.3461 6.26473C63.4439 6.2398 63.6049 6.27788 63.6326 6.28451C63.7386 6.30969 63.7881 6.28767 63.8694 6.29759C63.9506 6.3075 63.8292 6.31989 63.9241 6.32591C64.1206 6.33835 64.3732 6.33562 64.5728 6.3364C64.6525 6.3366 64.5981 6.31401 64.6095 6.31351C64.7742 6.30778 64.9408 6.33182 65.0321 6.28681C65.1463 6.40319 65.1314 6.27552 65.3668 6.29882C65.3854 6.3007 65.409 6.35574 65.3378 6.36382C65.2666 6.37189 65.1586 6.35468 65.0598 6.36728C65.0364 6.37024 64.9024 6.42181 64.8842 6.42493C64.7409 6.44935 64.7206 6.3671 64.7131 6.36259C64.6271 6.31384 64.4634 6.3694 64.4203 6.37324C64.223 6.39083 64.0554 6.37926 63.8904 6.39182C63.7825 6.39993 63.7719 6.4538 63.6872 6.45215C63.4055 6.4467 63.3072 6.37155 63.0418 6.43671C62.9849 6.45061 63.0414 6.50949 62.8375 6.46319C62.8247 6.46027 62.6732 6.41792 62.5858 6.44471C62.5748 6.44809 62.5751 6.46525 62.5606 6.46669C62.4635 6.47601 62.3988 6.46234 62.293 6.46889C62.1872 6.47544 62.06 6.4852 61.9392 6.47938C61.8664 6.4759 61.773 6.44393 61.7382 6.4361C61.6398 6.41355 61.5343 6.45052 61.4734 6.42322C61.4119 6.39577 61.5321 6.3541 61.3709 6.33637C61.3649 6.38095 61.3512 6.42671 61.3416 6.47154C60.9884 6.46997 60.6409 6.45556 60.2865 6.45753C60.2425 6.45782 60.2875 6.48178 60.2404 6.48271C60.0417 6.48652 59.8681 6.46943 59.662 6.47624C59.5025 6.4816 59.3276 6.50697 59.1608 6.51337C59.0589 6.46235 58.8114 6.47967 58.6316 6.47501C58.5686 6.4734 58.5728 6.45977 58.528 6.45533C58.359 6.43889 58.4382 6.48397 58.3919 6.49106C58.1931 6.52134 58.1761 6.4193 57.9417 6.42182C57.9293 6.42192 57.7776 6.47631 57.7567 6.4797C57.6239 6.50179 57.7347 6.46077 57.6516 6.45675C57.4998 6.44941 57.3944 6.43642 57.2163 6.45235C57.1644 6.45707 57.0399 6.49097 56.9391 6.46475C56.9258 6.46131 56.9331 6.44333 56.9224 6.44228C56.7292 6.42473 56.7241 6.48122 56.6137 6.50035C56.5033 6.51948 56.3327 6.48049 56.298 6.46925C56.2072 6.44017 56.3676 6.45682 56.3725 6.45397C56.4303 6.42001 56.3058 6.42586 56.2108 6.42299C56.197 6.3676 56.0641 6.37092 56.1122 6.42024C56.1177 6.42562 56.1917 6.42046 56.2108 6.42299C56.1273 6.47733 55.9813 6.48429 55.8199 6.43351C55.7444 6.40971 55.8158 6.38196 55.5863 6.39211C55.4822 6.39669 55.5224 6.43483 55.4305 6.44523C55.2206 6.46895 54.9478 6.43337 54.7313 6.43898C54.6528 6.44101 54.7293 6.46189 54.6756 6.464C54.5331 6.46967 54.4075 6.454 54.2644 6.46203C54.2514 6.46278 54.2831 6.48463 54.2386 6.48491C53.9013 6.48745 53.6076 6.47345 53.2554 6.47307C53.0852 6.47289 52.7809 6.48494 52.6047 6.48252C52.2991 6.47845 51.9233 6.44667 51.6623 6.45439C51.492 6.45933 51.5294 6.48119 51.4564 6.49608C51.3157 6.52495 51.0665 6.47324 51.033 6.46523C51.032 6.46497 51.1784 6.45981 51.1003 6.44859C51.0548 6.42521 51.0346 6.46513 51.033 6.46523C51.011 6.46006 50.7183 6.4551 50.6602 6.45928C50.6287 6.46156 50.6463 6.48227 50.6299 6.48307C50.2386 6.5016 49.8466 6.50686 49.4497 6.49718C49.4428 6.49676 49.4533 6.4736 49.4368 6.4729C49.2071 6.4626 49.06 6.49094 48.8705 6.50777C48.681 6.52458 48.5308 6.51895 48.4186 6.47918C48.2757 6.48419 48.0706 6.46661 47.9526 6.45594C47.8346 6.44527 47.8181 6.49037 47.8077 6.49126C47.4838 6.51979 47.2966 6.49398 46.9606 6.48996C46.8008 6.48798 46.4839 6.49452 46.311 6.49945C46.1743 6.50342 46.0919 6.49285 45.966 6.49961C45.9489 6.50051 45.9661 6.52059 45.9609 6.52136C45.8204 6.54538 45.8879 6.4963 45.8589 6.48754C45.7537 6.45566 45.6887 6.43868 45.5086 6.45368C45.4671 6.45711 45.3462 6.52778 45.2705 6.53191C45.1721 6.53716 45.2092 6.51183 45.1062 6.51796C45.0973 6.51847 45.0992 6.53409 45.0356 6.5334C44.7404 6.53041 44.4186 6.52132 44.1118 6.52288C44.0699 6.52304 44.1236 6.54783 44.063 6.54846C43.779 6.55139 43.4676 6.55048 43.1908 6.53887C43.1227 6.53594 43.1654 6.51858 43.1506 6.51343C43.0598 6.48225 42.9311 6.52756 42.9098 6.52842C42.4031 6.55019 42.0152 6.50919 41.4987 6.52871C41.4706 6.52986 41.2542 6.57842 41.1576 6.53677C41.151 6.534 41.0555 6.49138 40.9711 6.52052C40.9658 6.52234 41.0253 6.54428 40.9215 6.54205C40.8176 6.53982 40.6504 6.55447 40.5076 6.53036C40.4624 6.52277 40.3556 6.48026 40.2207 6.51414C40.2119 6.51651 40.0038 6.59313 39.9295 6.54027C39.9174 6.53156 39.93 6.47562 39.7691 6.5043C39.7383 6.50986 39.7942 6.52234 39.7131 6.53013C39.589 6.54214 39.4246 6.52716 39.272 6.55208C39.2454 6.55649 39.1321 6.59447 39.0413 6.56564C39.027 6.56113 39.0541 6.54245 39.0061 6.54036C38.7779 6.53034 38.539 6.54283 38.3073 6.52991C38.2253 6.52537 38.2672 6.49517 38.1817 6.48708C38.0961 6.47899 37.9238 6.47121 37.8343 6.48501C37.7447 6.49881 37.8425 6.54694 37.7084 6.55079C37.1253 6.56751 36.5477 6.53928 35.9654 6.53515C35.8791 6.53454 35.9507 6.55175 35.8234 6.55208C35.3542 6.55336 34.5441 6.56951 34.137 6.53292C33.8108 6.50361 34.2213 6.4813 33.972 6.46938C33.8518 6.46369 33.7216 6.51963 33.6926 6.52139C33.4089 6.53929 33.2118 6.5145 32.9565 6.52211C32.9037 6.52368 32.9554 6.54636 32.9106 6.54745C32.7573 6.55138 32.5962 6.54126 32.4498 6.54311C32.3841 6.544 32.3962 6.56132 32.3357 6.55998C32.191 6.55698 32.0631 6.5497 31.9221 6.53347C31.9092 6.53199 31.9959 6.51045 31.8889 6.50964C31.7156 6.50841 31.5006 6.4924 31.3013 6.50893C31.2422 6.51391 31.2399 6.55349 31.1128 6.52615C31.0861 6.52044 31.1201 6.47291 30.972 6.51398C30.9471 6.52081 30.6984 6.5762 30.5763 6.54049C30.5441 6.5311 30.4619 6.4922 30.3908 6.49831C30.3812 6.49929 30.4198 6.52055 30.3609 6.52262C30.1532 6.52956 29.9356 6.52729 29.7222 6.53395C29.6652 6.53577 29.7501 6.55778 29.6652 6.55979C29.4317 6.56535 29.1401 6.55974 28.9118 6.55286C28.8276 6.55028 28.8858 6.53205 28.8797 6.53007C28.7812 6.49781 28.7229 6.54135 28.6902 6.54389C28.4869 6.55909 28.3321 6.53864 28.1446 6.54405C28.0929 6.54549 28.1296 6.56625 28.1193 6.5681C28.0125 6.58619 28.0921 6.54891 28.0245 6.5448C27.8351 6.53316 27.624 6.53483 27.4326 6.53748C27.3622 6.53849 27.4413 6.56256 27.3781 6.56318C27.0045 6.56733 26.6162 6.56503 26.2516 6.55176C26.1829 6.54922 26.2261 6.53068 26.2118 6.52644C26.1132 6.49682 25.9686 6.53723 25.9354 6.54108C25.7842 6.55865 25.7254 6.54226 25.5919 6.54532C24.9396 6.56055 24.1341 6.54969 23.5183 6.54299C22.7159 6.53435 22.0933 6.51672 21.3281 6.5213C21.2795 6.52157 21.3285 6.54623 21.2866 6.54677C20.7453 6.55272 20.2125 6.54308 19.6701 6.5502C19.6256 6.55074 19.6898 6.57412 19.6183 6.57578C19.4718 6.57933 19.2862 6.57806 19.1381 6.5706C19.0658 6.567 19.1627 6.54694 19.09 6.54373C18.9206 6.53621 18.7391 6.53454 18.5652 6.53829C18.4911 6.53994 18.6028 6.56385 18.5066 6.56412C17.8512 6.5665 17.2075 6.57061 16.5451 6.53965C16.4997 6.53752 16.4599 6.48893 16.3633 6.49825C16.3561 6.51174 16.3564 6.5276 16.3533 6.54201C15.3991 6.54978 14.4547 6.53293 13.4979 6.53033C13.4576 6.53022 13.5273 6.55597 13.4492 6.5559C12.9971 6.55552 12.5582 6.56265 12.0958 6.53706C12.0499 6.53456 12.0735 6.48926 11.9383 6.49611C11.9144 6.49736 11.7108 6.5034 11.6581 6.51324C11.651 6.51472 11.6881 6.53586 11.6225 6.53648C11.2412 6.53969 10.8416 6.53486 10.461 6.52194C10.3995 6.51982 10.465 6.4973 10.4212 6.4956C10.1108 6.48364 9.77322 6.50076 9.47663 6.48032C9.27811 6.46655 9.35161 6.42763 9.24611 6.38932C9.23119 6.38392 9.10826 6.38306 9.1019 6.36077C9.08558 6.30473 9.14513 6.24335 9.1207 6.18361C9.11553 6.17074 8.9509 6.1846 9.04837 6.15351C9.05518 6.15143 9.17454 6.1411 9.20394 6.13056C9.22441 6.12326 9.18753 6.10059 9.22929 6.09126C9.27105 6.08193 9.31694 6.10093 9.38617 6.08996C9.45538 6.07886 9.42495 6.05307 9.56316 6.05002ZM47.4212 6.40826C47.3119 6.38661 47.2958 6.46592 47.414 6.44694C47.4197 6.44593 47.4268 6.40932 47.4212 6.40826ZM60.6429 6.39573C60.5 6.36075 60.4022 6.41219 60.503 6.43921C60.6038 6.46619 60.6864 6.40634 60.6429 6.39573ZM62.1243 6.37019C61.9573 6.34261 61.931 6.45508 62.1099 6.43234C62.1203 6.43106 62.134 6.37179 62.1243 6.37019ZM9.73534 6.37842C9.73383 6.37736 9.64546 6.37634 9.64335 6.37738C9.59629 6.40257 9.77299 6.4046 9.73534 6.37842ZM63.5944 6.34239C63.5422 6.32717 63.3922 6.34474 63.4569 6.36365C63.5091 6.37887 63.6593 6.36131 63.5944 6.34239ZM41.7207 6.32361C41.719 6.32243 41.6557 6.32137 41.6569 6.32805C41.6612 6.34956 41.7494 6.34349 41.7207 6.32361ZM66.0929 6.34109C65.7237 6.33686 65.4999 6.24395 65.9019 6.25444C65.9747 6.25633 65.745 6.28406 65.8377 6.29244C66.0072 6.3077 66.1198 6.24937 66.2928 6.28062C66.3242 6.28635 66.114 6.34154 66.0923 6.34122C66.0925 6.34118 66.0927 6.34114 66.0929 6.34109ZM47.3583 6.31299C47.3561 6.31195 47.2684 6.31095 47.2663 6.31199C47.2188 6.33717 47.3954 6.33919 47.3583 6.31299ZM38.0239 6.27457C38.0191 6.27234 37.8155 6.27025 37.8089 6.27231C37.7027 6.31348 38.1142 6.31783 38.0239 6.27457ZM53.2648 6.25495C53.3605 6.22962 53.4749 6.22664 53.5512 6.25845C53.4561 6.25676 53.3604 6.25651 53.2648 6.25495Z" fill="#C4AE95"/>
<path d="M170.23 6.05002C169.909 6.04311 169.488 6.0505 169.168 6.06064C169.068 6.06378 169.119 6.07784 169.05 6.08064C168.914 6.08611 168.788 6.07921 168.655 6.08572C168.61 6.08795 168.665 6.11022 168.619 6.11204C168.364 6.12188 168.124 6.11621 167.866 6.12094C166.595 6.14429 165.346 6.15265 164.06 6.1628C163.636 6.16612 163.121 6.18633 162.683 6.17749C162.632 6.17644 162.662 6.1569 162.653 6.15529C162.5 6.13063 162.551 6.17008 162.451 6.17532C162.056 6.19602 161.616 6.19782 161.236 6.19028C161.074 6.18701 161.236 6.14819 161.073 6.16998C161.062 6.17146 161.103 6.19221 161.058 6.19442C160.958 6.1994 160.767 6.19569 160.689 6.19734C160.538 6.20061 160.514 6.2004 160.371 6.20064C160.177 6.20114 159.946 6.21146 159.737 6.20676C159.692 6.20569 159.751 6.18442 159.68 6.18079C159.609 6.17718 159.421 6.17898 159.358 6.184C159.294 6.18902 159.321 6.20574 159.31 6.20957C159.218 6.24192 159 6.19712 158.972 6.19601C158.462 6.17713 158.025 6.20265 157.546 6.20258C157.182 6.20247 156.793 6.19404 156.447 6.1952C156.035 6.19666 155.686 6.20819 155.285 6.20621C155.243 6.20602 155.293 6.18101 155.241 6.18073C154.693 6.17782 154.148 6.18055 153.602 6.19743C153.547 6.19915 153.618 6.22111 153.563 6.22414C153.228 6.24219 152.698 6.28555 152.499 6.18992C152.272 6.19366 151.997 6.19751 151.794 6.21679C151.663 6.2292 151.79 6.25312 151.629 6.24291C151.593 6.24064 151.64 6.21969 151.586 6.21786C151.357 6.21019 151.107 6.217 150.88 6.20617C150.834 6.20392 150.847 6.18515 150.834 6.18177C150.724 6.15439 150.541 6.19965 150.502 6.20294C150.198 6.22746 149.977 6.21781 149.695 6.21841C149.629 6.21856 149.707 6.19334 149.644 6.19258C149.317 6.18896 148.978 6.19113 148.657 6.20232C148.586 6.20487 148.652 6.22635 148.618 6.22867C148.468 6.23863 148.434 6.19805 148.29 6.20682C148.26 6.20862 148.277 6.22701 148.272 6.22903C148.185 6.26073 148.11 6.21581 148.087 6.21482C147.806 6.20126 147.625 6.24816 147.353 6.24152C147.32 6.24068 147.394 6.21741 147.302 6.21647C146.692 6.21004 146.047 6.21644 145.443 6.23505C145.349 6.23791 145.416 6.25539 145.41 6.25754C145.314 6.29121 145.252 6.2461 145.221 6.2444C144.98 6.23217 144.754 6.27 144.59 6.21627C143.567 6.23492 142.549 6.20475 141.534 6.25288C141.521 6.25344 141.545 6.27566 141.519 6.27668C141.209 6.28915 141.269 6.25462 141.064 6.21239C141.012 6.20178 140.855 6.25277 140.841 6.25651C140.79 6.27028 140.843 6.30334 140.826 6.306C140.685 6.32695 140.708 6.21763 140.519 6.2176C140.513 6.21778 140.538 6.2379 140.522 6.2399C140.473 6.24618 140.424 6.23819 140.375 6.24511C140.265 6.26114 140.226 6.31426 140.057 6.28334C140.035 6.27933 140.068 6.21732 139.899 6.22025C139.832 6.22147 139.533 6.22041 139.45 6.22443C139.366 6.22844 139.424 6.24842 139.418 6.24929C139.193 6.27571 139.278 6.28666 139.165 6.32578C139.052 6.36475 139.084 6.2718 139.038 6.26143C138.992 6.25108 138.827 6.27288 138.786 6.28046C138.746 6.28804 138.796 6.30074 138.76 6.30503C138.521 6.33306 138.655 6.2589 138.577 6.24414C138.391 6.20921 138.247 6.27814 138.077 6.2849C138.031 6.28672 138.068 6.27102 138.027 6.26955C137.865 6.26395 137.768 6.28546 137.583 6.26573C137.553 6.26252 137.404 6.22108 137.308 6.25149C137.294 6.25588 137.333 6.27305 137.264 6.2769C137.161 6.28268 136.975 6.28643 136.864 6.28069C136.782 6.27644 136.876 6.24814 136.773 6.25693C136.727 6.26086 136.812 6.27741 136.726 6.28341C136.64 6.2894 136.421 6.28867 136.338 6.2881C136.255 6.28752 136.3 6.26605 136.293 6.2646C136.253 6.25632 136.093 6.24596 136.079 6.24599C135.368 6.24337 134.712 6.27956 134.019 6.26758C133.965 6.26667 134.001 6.24403 133.993 6.24366C133.807 6.23417 133.953 6.29437 133.824 6.31452C133.842 6.26857 133.766 6.27689 133.635 6.27185C133.571 6.26939 133.606 6.2516 133.6 6.24978C133.506 6.22275 133.441 6.25766 133.424 6.2648C133.362 6.29106 133.295 6.26003 133.253 6.27758C133.21 6.29501 133.307 6.32084 133.182 6.3205C133.147 6.30406 133.24 6.26108 133.144 6.25411C132.784 6.22777 132.112 6.26149 131.823 6.26499C131.534 6.26849 131.44 6.26546 131.272 6.2714C130.968 6.28215 131.079 6.25026 130.891 6.23566C130.701 6.22107 130.793 6.29953 130.766 6.31639C130.739 6.33325 130.71 6.3159 130.677 6.32517C130.644 6.33443 130.715 6.3459 130.638 6.34938C130.56 6.35285 130.346 6.32286 130.319 6.30523C130.26 6.26786 130.356 6.22865 130.15 6.24243C130.138 6.24325 130.177 6.26388 130.131 6.26596C129.77 6.28184 129.396 6.28283 129.035 6.29687C128.986 6.29884 129.03 6.32179 129.001 6.32319C128.701 6.33787 128.808 6.29917 128.643 6.25618C128.68 6.31339 128.589 6.34839 128.361 6.34873C128.224 6.34895 128.248 6.32397 128.159 6.30636C128.133 6.30105 128.036 6.31821 128.018 6.30646C127.96 6.26805 128.051 6.22505 127.816 6.24217C127.806 6.24298 127.839 6.26401 127.803 6.26528C127.573 6.27362 127.545 6.23344 127.296 6.22857C127.101 6.22476 126.754 6.24925 126.532 6.25324C126.536 6.31756 126.326 6.30283 126.241 6.25848C126.097 6.2603 125.941 6.25779 125.802 6.26392C125.754 6.26601 125.785 6.28463 125.779 6.28665C125.687 6.31821 125.624 6.27507 125.593 6.27337C125.255 6.25693 124.981 6.28963 124.659 6.25767C124.647 6.25652 124.629 6.21185 124.542 6.24447C124.537 6.24672 124.643 6.26704 124.492 6.26862C124.34 6.27019 124.055 6.29414 123.844 6.27344C123.793 6.26845 123.665 6.23218 123.561 6.26052C123.548 6.26437 123.563 6.27718 123.543 6.28431C123.479 6.30703 123.444 6.26188 123.368 6.30024C123.293 6.3386 123.136 6.36733 122.923 6.34087C122.917 6.3401 122.866 6.3043 122.8 6.30487C122.693 6.3058 122.542 6.31326 122.431 6.31303C122.378 6.3129 122.412 6.29068 122.402 6.29027C122.045 6.27782 121.79 6.29763 121.406 6.30623C121.336 6.30785 121.134 6.27754 120.998 6.3015C120.849 6.32773 121.002 6.43685 120.659 6.41085C120.52 6.40045 120.345 6.26202 120.096 6.33374C119.613 6.31597 119.166 6.35268 118.682 6.3273C118.661 6.32618 118.592 6.28754 118.541 6.28807C118.465 6.28893 118.423 6.30698 118.369 6.30817C118.141 6.31361 117.933 6.29816 117.714 6.30056C117.631 6.30144 117.66 6.32011 117.561 6.32115C117.461 6.32218 117.395 6.29759 117.261 6.30947C117.159 6.31852 117.058 6.36877 116.923 6.37463C116.918 6.32506 116.825 6.32608 116.661 6.31299C116.629 6.31046 116.663 6.2932 116.648 6.29111C116.587 6.28222 116.531 6.29652 116.473 6.28684C116.459 6.28451 116.458 6.26759 116.447 6.26473C116.349 6.2398 116.188 6.27788 116.16 6.28451C116.054 6.30969 116.005 6.28767 115.924 6.29759C115.842 6.3075 115.964 6.31989 115.869 6.32591C115.672 6.33835 115.42 6.33562 115.22 6.3364C115.141 6.3366 115.195 6.31401 115.183 6.31351C115.019 6.30778 114.852 6.33182 114.761 6.28681C114.647 6.40319 114.662 6.27552 114.426 6.29882C114.408 6.3007 114.384 6.35574 114.455 6.36382C114.526 6.37189 114.634 6.35468 114.733 6.36728C114.757 6.37024 114.891 6.42181 114.909 6.42493C115.052 6.44935 115.072 6.3671 115.08 6.36259C115.166 6.31384 115.33 6.3694 115.373 6.37324C115.57 6.39083 115.738 6.37926 115.903 6.39182C116.01 6.39993 116.021 6.4538 116.106 6.45215C116.387 6.4467 116.486 6.37155 116.751 6.43671C116.808 6.45061 116.752 6.50949 116.956 6.46319C116.968 6.46027 117.12 6.41792 117.207 6.44471C117.218 6.44809 117.218 6.46525 117.232 6.46669C117.329 6.47601 117.394 6.46234 117.5 6.46889C117.606 6.47544 117.733 6.4852 117.854 6.47938C117.927 6.4759 118.02 6.44393 118.055 6.4361C118.153 6.41355 118.259 6.45052 118.32 6.42322C118.381 6.39577 118.261 6.3541 118.422 6.33637C118.428 6.38095 118.442 6.42671 118.451 6.47154C118.805 6.46997 119.152 6.45556 119.506 6.45753C119.55 6.45782 119.505 6.48178 119.553 6.48271C119.751 6.48652 119.925 6.46943 120.131 6.47624C120.29 6.4816 120.465 6.50697 120.632 6.51337C120.734 6.46235 120.982 6.47967 121.161 6.47501C121.224 6.4734 121.22 6.45977 121.265 6.45533C121.434 6.43889 121.355 6.48397 121.401 6.49106C121.6 6.52134 121.617 6.4193 121.851 6.42182C121.864 6.42192 122.015 6.47631 122.036 6.4797C122.169 6.50179 122.058 6.46077 122.141 6.45675C122.293 6.44941 122.399 6.43642 122.577 6.45235C122.629 6.45707 122.753 6.49097 122.854 6.46475C122.867 6.46131 122.86 6.44333 122.871 6.44228C123.064 6.42473 123.069 6.48122 123.179 6.50035C123.29 6.51948 123.46 6.48049 123.495 6.46925C123.586 6.44017 123.425 6.45682 123.42 6.45397C123.363 6.42001 123.487 6.42586 123.582 6.42299C123.596 6.3676 123.729 6.37092 123.681 6.42024C123.675 6.42562 123.601 6.42046 123.582 6.42299C123.666 6.47733 123.812 6.48429 123.973 6.43351C124.049 6.40971 123.977 6.38196 124.207 6.39211C124.311 6.39669 124.271 6.43483 124.362 6.44523C124.572 6.46895 124.845 6.43337 125.062 6.43898C125.14 6.44101 125.064 6.46189 125.117 6.464C125.26 6.46967 125.385 6.454 125.529 6.46203C125.542 6.46278 125.51 6.48463 125.554 6.48491C125.892 6.48745 126.185 6.47345 126.538 6.47307C126.708 6.47289 127.012 6.48494 127.188 6.48252C127.494 6.47845 127.87 6.44667 128.131 6.45439C128.301 6.45933 128.264 6.48119 128.337 6.49608C128.477 6.52495 128.726 6.47324 128.76 6.46523C128.761 6.46497 128.615 6.45981 128.693 6.44859C128.738 6.42521 128.758 6.46513 128.76 6.46523C128.782 6.46006 129.075 6.4551 129.133 6.45928C129.164 6.46156 129.147 6.48227 129.163 6.48307C129.554 6.5016 129.946 6.50686 130.343 6.49718C130.35 6.49676 130.34 6.4736 130.356 6.4729C130.586 6.4626 130.733 6.49094 130.922 6.50777C131.112 6.52458 131.262 6.51895 131.374 6.47918C131.517 6.48419 131.722 6.46661 131.84 6.45594C131.958 6.44527 131.975 6.49037 131.985 6.49126C132.309 6.51979 132.496 6.49398 132.832 6.48996C132.992 6.48798 133.309 6.49452 133.482 6.49945C133.619 6.50342 133.701 6.49285 133.827 6.49961C133.844 6.50051 133.827 6.52059 133.832 6.52136C133.973 6.54538 133.905 6.4963 133.934 6.48754C134.039 6.45566 134.104 6.43868 134.284 6.45368C134.326 6.45711 134.447 6.52778 134.522 6.53191C134.621 6.53716 134.584 6.51183 134.687 6.51796C134.696 6.51847 134.694 6.53409 134.757 6.5334C135.053 6.53041 135.374 6.52132 135.681 6.52288C135.723 6.52304 135.669 6.54783 135.73 6.54846C136.014 6.55139 136.325 6.55048 136.602 6.53887C136.67 6.53594 136.628 6.51858 136.642 6.51343C136.733 6.48225 136.862 6.52756 136.883 6.52842C137.39 6.55019 137.778 6.50919 138.294 6.52871C138.322 6.52986 138.539 6.57842 138.635 6.53677C138.642 6.534 138.737 6.49138 138.822 6.52052C138.827 6.52234 138.768 6.54428 138.872 6.54205C138.975 6.53982 139.143 6.55447 139.285 6.53036C139.331 6.52277 139.437 6.48026 139.572 6.51414C139.581 6.51651 139.789 6.59313 139.864 6.54027C139.876 6.53156 139.863 6.47562 140.024 6.5043C140.055 6.50986 139.999 6.52234 140.08 6.53013C140.204 6.54214 140.368 6.52716 140.521 6.55208C140.548 6.55649 140.661 6.59447 140.752 6.56564C140.766 6.56113 140.739 6.54245 140.787 6.54036C141.015 6.53034 141.254 6.54283 141.486 6.52991C141.568 6.52537 141.526 6.49517 141.611 6.48708C141.697 6.47899 141.869 6.47121 141.959 6.48501C142.048 6.49881 141.95 6.54694 142.085 6.55079C142.668 6.56751 143.245 6.53928 143.828 6.53515C143.914 6.53454 143.842 6.55175 143.97 6.55208C144.439 6.55336 145.249 6.56951 145.656 6.53292C145.982 6.50361 145.572 6.4813 145.821 6.46938C145.941 6.46369 146.071 6.51963 146.1 6.52139C146.384 6.53929 146.581 6.5145 146.837 6.52211C146.889 6.52368 146.838 6.54636 146.882 6.54745C147.036 6.55138 147.197 6.54126 147.343 6.54311C147.409 6.544 147.397 6.56132 147.457 6.55998C147.602 6.55698 147.73 6.5497 147.871 6.53347C147.884 6.53199 147.797 6.51045 147.904 6.50964C148.077 6.50841 148.292 6.4924 148.492 6.50893C148.551 6.51391 148.553 6.55349 148.68 6.52615C148.707 6.52044 148.673 6.47291 148.821 6.51398C148.846 6.52081 149.095 6.5762 149.217 6.54049C149.249 6.5311 149.331 6.4922 149.402 6.49831C149.412 6.49929 149.373 6.52055 149.432 6.52262C149.64 6.52956 149.857 6.52729 150.071 6.53395C150.128 6.53577 150.043 6.55778 150.128 6.55979C150.361 6.56535 150.653 6.55974 150.881 6.55286C150.965 6.55028 150.907 6.53205 150.913 6.53007C151.012 6.49781 151.07 6.54135 151.103 6.54389C151.306 6.55909 151.461 6.53864 151.648 6.54405C151.7 6.54549 151.663 6.56625 151.674 6.5681C151.78 6.58619 151.701 6.54891 151.769 6.5448C151.958 6.53316 152.169 6.53483 152.36 6.53748C152.431 6.53849 152.352 6.56256 152.415 6.56318C152.788 6.56733 153.177 6.56503 153.541 6.55176C153.61 6.54922 153.567 6.53068 153.581 6.52644C153.68 6.49682 153.824 6.53723 153.858 6.54108C154.009 6.55865 154.068 6.54226 154.201 6.54532C154.853 6.56055 155.659 6.54969 156.275 6.54299C157.077 6.53435 157.7 6.51672 158.465 6.5213C158.514 6.52157 158.464 6.54623 158.506 6.54677C159.048 6.55272 159.581 6.54308 160.123 6.5502C160.167 6.55074 160.103 6.57412 160.175 6.57578C160.321 6.57933 160.507 6.57806 160.655 6.5706C160.727 6.567 160.63 6.54694 160.703 6.54373C160.872 6.53621 161.054 6.53454 161.228 6.53829C161.302 6.53994 161.19 6.56385 161.286 6.56412C161.942 6.5665 162.586 6.57061 163.248 6.53965C163.293 6.53752 163.333 6.48893 163.43 6.49825C163.437 6.51174 163.437 6.5276 163.44 6.54201C164.394 6.54978 165.338 6.53293 166.295 6.53033C166.335 6.53022 166.266 6.55597 166.344 6.5559C166.796 6.55552 167.235 6.56265 167.697 6.53706C167.743 6.53456 167.72 6.48926 167.855 6.49611C167.879 6.49736 168.082 6.5034 168.135 6.51324C168.142 6.51472 168.105 6.53586 168.17 6.53648C168.552 6.53969 168.951 6.53486 169.332 6.52194C169.393 6.51982 169.328 6.4973 169.372 6.4956C169.682 6.48364 170.02 6.50076 170.316 6.48032C170.515 6.46655 170.441 6.42763 170.547 6.38932C170.562 6.38392 170.685 6.38306 170.691 6.36077C170.707 6.30473 170.648 6.24335 170.672 6.18361C170.677 6.17074 170.842 6.1846 170.745 6.15351C170.738 6.15143 170.618 6.1411 170.589 6.13056C170.569 6.12326 170.605 6.10059 170.564 6.09126C170.522 6.08193 170.476 6.10093 170.407 6.08996C170.338 6.07886 170.368 6.05307 170.23 6.05002ZM132.372 6.40826C132.481 6.38661 132.497 6.46592 132.379 6.44694C132.373 6.44593 132.366 6.40932 132.372 6.40826ZM119.15 6.39573C119.293 6.36075 119.391 6.41219 119.29 6.43921C119.189 6.46619 119.107 6.40634 119.15 6.39573ZM117.669 6.37019C117.836 6.34261 117.862 6.45508 117.683 6.43234C117.673 6.43106 117.659 6.37179 117.669 6.37019ZM170.058 6.37842C170.059 6.37736 170.148 6.37634 170.15 6.37738C170.197 6.40257 170.02 6.4046 170.058 6.37842ZM116.199 6.34239C116.251 6.32717 116.401 6.34474 116.336 6.36365C116.284 6.37887 116.134 6.36131 116.199 6.34239ZM138.072 6.32361C138.074 6.32243 138.137 6.32137 138.136 6.32805C138.132 6.34956 138.044 6.34349 138.072 6.32361ZM113.7 6.34109C114.069 6.33686 114.293 6.24395 113.891 6.25444C113.818 6.25633 114.048 6.28406 113.955 6.29244C113.786 6.3077 113.673 6.24937 113.5 6.28062C113.469 6.28635 113.679 6.34154 113.701 6.34122C113.701 6.34118 113.7 6.34114 113.7 6.34109ZM132.435 6.31299C132.437 6.31195 132.525 6.31095 132.527 6.31199C132.574 6.33717 132.398 6.33919 132.435 6.31299ZM141.769 6.27457C141.774 6.27234 141.977 6.27025 141.984 6.27231C142.09 6.31348 141.679 6.31783 141.769 6.27457ZM126.528 6.25495C126.433 6.22962 126.318 6.22664 126.242 6.25845C126.337 6.25676 126.433 6.25651 126.528 6.25495Z" fill="#C4AE95"/>
<ellipse cx="5.03821" cy="6.31303" rx="1.32531" ry="1.59038" fill="#C4AE95"/>
<ellipse cx="1.32531" cy="1.59038" rx="1.32531" ry="1.59038" transform="matrix(-1 0 0 1 176.076 4.72266)" fill="#C4AE95"/>
</svg>
