<svg width="180" height="13" viewBox="0 0 180 13" fill="none" xmlns="http://www.w3.org/2000/svg">
<ellipse cx="89.8917" cy="6.31024" rx="1.3253" ry="1.06024" fill="#742A23"/>
<line x1="91.168" y1="6.31686" x2="96.4715" y2="6.31686" stroke="#742A23" stroke-width="0.530349"/>
<line x1="83.3164" y1="6.31686" x2="88.6199" y2="6.31686" stroke="#742A23" stroke-width="0.530349"/>
<line x1="89.893" y1="12.6211" x2="89.893" y2="7.31761" stroke="#742A23" stroke-width="0.530349"/>
<line x1="89.893" y1="5.30469" x2="89.893" y2="0.00120211" stroke="#742A23" stroke-width="0.530349"/>
<ellipse cx="94.1355" cy="6.3107" rx="1.85622" ry="1.0607" fill="#742A23"/>
<ellipse cx="89.8927" cy="10.2883" rx="1.85622" ry="1.0607" transform="rotate(-90 89.8927 10.2883)" fill="#742A23"/>
<ellipse cx="89.8927" cy="2.33909" rx="1.85622" ry="1.0607" transform="rotate(-90 89.8927 2.33909)" fill="#742A23"/>
<ellipse cx="85.6492" cy="6.3107" rx="1.85622" ry="1.0607" fill="#742A23"/>
<circle cx="79.022" cy="6.31692" r="1.59036" fill="#742A23"/>
<circle cx="1.59036" cy="1.59036" r="1.59036" transform="matrix(-1 0 0 1 102.357 4.72656)" fill="#742A23"/>
<circle cx="73.7165" cy="6.30633" r="1.06024" fill="#742A23"/>
<circle cx="1.06024" cy="1.06024" r="1.06024" transform="matrix(-1 0 0 1 107.129 5.24609)" fill="#742A23"/>
<circle cx="69.2092" cy="6.31471" r="0.795178" fill="#742A23"/>
<circle cx="0.795178" cy="0.795178" r="0.795178" transform="matrix(-1 0 0 1 111.371 5.51953)" fill="#742A23"/>
<circle cx="0.795178" cy="6.57252" r="0.795178" fill="#742A23"/>
<circle cx="0.795178" cy="0.795178" r="0.795178" transform="matrix(-1 0 0 1 179.785 5.77734)" fill="#742A23"/>
<path d="M8.30849 6.31641C8.30849 6.70694 8.62509 7.02354 9.01562 7.02354C9.40616 7.02354 9.72276 6.70694 9.72276 6.31641C9.72276 5.92587 9.40616 5.60927 9.01562 5.60927C8.62509 5.60927 8.30849 5.92587 8.30849 6.31641ZM66.2933 6.44899H66.4259V6.18382H66.2933V6.31641V6.44899ZM9.01562 6.31641V6.44899H66.2933V6.31641V6.18382H9.01562V6.31641Z" fill="#742A23"/>
<path d="M171.479 6.31641C171.479 6.70694 171.162 7.02354 170.771 7.02354C170.381 7.02354 170.064 6.70694 170.064 6.31641C170.064 5.92587 170.381 5.60927 170.771 5.60927C171.162 5.60927 171.479 5.92587 171.479 6.31641ZM113.494 6.44899H113.361V6.18382H113.494V6.31641V6.44899ZM170.771 6.31641V6.44899H113.494V6.31641V6.18382H170.771V6.31641Z" fill="#742A23"/>
<ellipse cx="5.03623" cy="6.31692" rx="1.3253" ry="1.59036" fill="#742A23"/>
<ellipse cx="1.3253" cy="1.59036" rx="1.3253" ry="1.59036" transform="matrix(-1 0 0 1 176.074 4.72656)" fill="#742A23"/>
</svg>
