<svg width="68" height="61" viewBox="0 0 68 61" fill="none" xmlns="http://www.w3.org/2000/svg">
<g filter="url(#filter0_n_2569_1992)">
<path d="M0.291016 27.1429C0.291016 12.7046 11.9956 1 26.4339 1H41.1482C55.5865 1 67.291 12.7046 67.291 27.1429V33.8571C67.291 48.2954 55.5865 60 41.1482 60H26.4339C11.9956 60 0.291016 48.2954 0.291016 33.8571V27.1429Z" fill="#171C1B"/>
<path d="M28.4067 0.0101698C29.5674 -0.015883 31.0889 0.0119737 32.2451 0.0502087C32.6075 0.0620673 32.424 0.115075 32.6742 0.125648C33.1634 0.146258 33.6192 0.120261 34.1027 0.144813C34.2629 0.153209 34.0635 0.237174 34.2315 0.244056C35.1522 0.281163 36.0232 0.259777 36.9558 0.277625C38.3585 0.304513 39.754 0.32613 41.1482 0.344277C44.3997 0.385114 47.6351 0.990569 50.7083 2.19761C52.1714 2.76429 53.8453 3.67784 55.2277 4.50918C55.3897 4.60584 55.3336 4.48385 55.3672 4.49776C55.8936 4.72261 55.6549 4.74728 55.9501 4.96599C57.121 5.83821 58.3766 6.85469 59.4117 7.79845C59.8508 8.20133 59.5225 7.68072 59.8958 8.15955C59.9215 8.19278 59.759 8.14223 59.8693 8.26299C60.1205 8.53521 60.6147 9.03397 60.8018 9.25186C61.1629 9.6704 61.2231 9.73906 61.5591 10.1395C62.0163 10.6889 62.5022 11.3866 62.9528 12.0055C63.0492 12.1378 62.9921 11.9134 63.1516 12.1213C63.3129 12.3286 63.685 12.9133 63.7902 13.1232C63.8969 13.332 63.7906 13.2803 63.8 13.323C63.8748 13.6723 64.4147 14.2797 64.4665 14.3708C65.4289 15.9871 65.9669 17.523 66.4965 19.1975C66.898 20.4703 67.2465 21.8601 67.4312 23.1217C67.6377 24.5406 67.6857 25.768 67.6911 27.1429C67.6912 27.2199 67.6915 27.2975 67.6919 27.3756C67.6926 27.5284 67.7869 27.3493 67.7879 27.536C67.7989 29.519 67.7886 31.4882 67.7249 33.4626C67.7185 33.6606 67.6357 33.4055 67.6242 33.6033C67.6196 33.6849 67.6146 33.7697 67.6094 33.8571C67.5497 35.0906 67.2756 36.7824 67.5054 37.5037C67.3809 38.3285 67.1753 39.3234 66.9291 40.0306C66.7697 40.4849 66.7958 40.0117 66.6872 40.5901C66.6615 40.7207 66.7824 40.5738 66.7375 40.7685C66.5478 41.5876 66.2408 42.4533 65.9842 43.2444C65.932 43.4057 66.0144 43.3878 66.0091 43.4373C65.9615 43.8543 65.541 44.4089 65.4695 44.5364C64.9338 45.5155 64.596 46.2508 64.0764 47.1482C63.9547 47.3554 64.1805 47.1581 64.0656 47.3594C63.4664 48.4031 62.7499 49.4292 61.9857 50.3252C61.8154 50.524 61.9018 50.2854 61.8172 50.3774C61.4435 50.7804 61.4819 50.9722 61.1098 51.3499C61.0312 51.4291 61.0206 51.3361 61.0015 51.3463C60.703 51.5043 60.642 51.8197 60.5887 51.8826C59.918 52.674 59.3193 53.0079 58.5942 53.6856C58.5067 53.7666 58.7672 53.6553 58.5168 53.8788C56.8465 55.3677 54.8395 56.6703 52.825 57.5798C52.5115 57.7212 52.7032 57.5541 52.6801 57.5564C52.3097 57.5955 52.1769 57.8427 52.0771 57.8954C51.2899 58.3052 50.4727 58.4675 49.975 58.8575C47.1211 59.807 44.1387 60.3694 41.1482 60.3015C40.4222 60.285 39.6969 60.2607 38.972 60.2248C38.9254 60.2227 39.009 60.1389 38.9159 60.1351C37.7955 60.0881 38.0107 60.2183 37.2693 60.3775C37.0826 60.4175 36.5145 60.2252 36.4642 60.2111C36.281 60.1592 36.471 60.0346 36.4097 60.0245C35.9022 59.9455 35.9849 60.3577 35.3003 60.3579C35.2789 60.3572 35.3688 60.2813 35.3114 60.2738C35.1329 60.2501 34.9559 60.2802 34.7812 60.2541C34.3815 60.1937 34.2391 59.9934 33.6285 60.11C33.5512 60.1251 33.6692 60.3589 33.058 60.3479C32.8143 60.3433 31.7358 60.3473 31.4335 60.3321C31.1316 60.317 31.3389 60.2416 31.3174 60.2384C30.5039 60.1387 30.8123 60.0974 30.4048 59.9499C29.9973 59.803 30.1103 60.1535 29.9441 60.1926C29.7777 60.2316 29.1813 60.1494 29.0347 60.1208C28.8882 60.0922 29.0709 60.0443 28.9407 60.0282C28.077 59.9225 28.5616 60.2021 28.277 60.2578C27.606 60.3895 27.0835 60.1296 26.4692 60.1041C26.4555 60.1035 26.4438 60.1034 26.4339 60.1037C26.3224 60.1065 26.4263 60.157 26.289 60.1616C25.6946 60.1774 25.3507 60.0863 24.6731 60.1184C24.5632 60.1243 24.007 60.239 23.6685 60.0868C23.6205 60.065 23.7681 60.0159 23.5191 59.9744C23.1459 59.9132 22.4847 59.8082 22.0809 59.7609C21.7844 59.7266 22.1031 59.8903 21.7386 59.7925C21.5772 59.7481 21.8919 59.7422 21.5886 59.6635C21.2883 59.5877 20.5087 59.423 20.2161 59.3508C19.9231 59.281 20.0636 59.3988 20.0386 59.3983C19.8887 59.3951 19.3136 59.2809 19.2648 59.2655C16.7597 58.5641 14.614 57.4498 12.4583 56.1551C12.2891 56.0525 12.3549 56.1949 12.3286 56.18C11.7378 55.8429 12.3096 55.9427 11.9584 55.6208C11.9195 55.8023 11.7029 55.6247 11.302 55.3659C11.1091 55.2408 11.1723 55.3676 11.1512 55.3611C10.813 55.2454 10.7002 54.9957 10.6677 54.9379C10.5466 54.7236 10.2814 54.6664 10.2014 54.5191C10.1222 54.3726 10.4573 54.5146 10.1013 54.2328C9.96274 54.2009 10.1257 54.5402 9.83855 54.3425C8.73341 53.6117 7.0742 51.7818 6.42228 50.9572C5.7533 50.1455 5.54482 49.8762 5.19764 49.3714C4.58697 48.4489 4.72485 48.8469 4.29516 48.3043C3.87316 47.7518 4.30686 47.8761 4.30686 47.7588C4.30928 47.6433 4.19801 47.5885 4.16498 47.4676C4.13253 47.3474 4.30385 47.5455 4.16926 47.2991C4.03306 47.0552 3.55605 46.4434 3.45136 46.385C3.22746 46.2652 3.25885 46.6462 2.95466 45.9547C2.93759 45.9148 3.07095 46.0038 3.00222 45.8531C2.45531 44.6582 1.93 43.3973 1.56844 42.1406C1.51899 41.9677 1.65156 42.093 1.62396 41.9923C1.34922 40.9409 1.32964 41.3559 1.00883 40.8222C1.25474 40.8942 1.28281 40.5422 1.09731 39.7465C0.989055 39.2655 0.916631 39.3676 0.7865 39.0668C0.747194 38.9767 0.745141 38.6206 0.690788 38.5659C0.512947 38.3841 0.403366 38.7426 0.330498 37.8814C0.327867 37.8438 0.424252 37.9499 0.409509 37.8212C0.322661 36.9912 0.157939 36.9031 0.0600965 36.0005C0.00381812 35.459 0.0119651 34.5989 0.0457545 33.8571C0.0557939 33.6249 0.0639168 33.4048 0.0675404 33.211C0.31009 33.2279 0.254549 32.4688 0.0873158 32.1609C0.0941623 31.6394 0.0847083 31.0761 0.107824 30.572C0.115704 30.3985 0.185929 30.5125 0.193517 30.4906C0.312546 30.1551 0.149846 29.9284 0.143468 29.8159C0.0943143 28.8486 0.161623 28.0235 0.131594 27.1429C0.12375 26.9099 0.11224 26.6737 0.093723 26.4299C0.0907861 26.3886 -0.0771878 26.3148 0.0584977 26.0061C0.0680121 25.9866 0.127636 26.3746 0.157887 25.8265C0.187507 25.2715 0.364057 24.25 0.396426 23.4831C0.402332 23.2993 0.337587 22.8107 0.510426 22.4581C0.533595 22.4114 0.571396 22.4738 0.610733 22.4076C0.737036 22.1944 0.593689 22.0373 0.790673 21.7978C0.98886 21.5567 1.20979 21.0344 1.31432 20.2713C1.31794 20.2473 1.23528 20.0361 1.30499 19.8046C1.41502 19.4363 1.60844 18.922 1.74052 18.5431C1.80363 18.3615 1.68392 18.4498 1.69352 18.4177C2.08844 17.1783 2.52115 16.3517 3.18107 15.1313C3.30086 14.9087 3.55039 14.2073 3.88194 13.8295C4.24741 13.4193 4.29989 14.0956 4.87701 13.0132C5.11255 12.5846 5.04559 11.7535 5.8127 11.2024C6.83117 9.78297 8.03992 8.70177 9.28712 7.48219C9.3431 7.42743 9.43667 7.15409 9.58084 7.03609C9.79462 6.86132 9.955 6.81912 10.1109 6.69992C10.7661 6.2031 11.3417 5.71355 12.0094 5.28215C12.2633 5.11963 12.2129 5.23546 12.5175 5.04633C12.8229 4.85926 12.9789 4.65414 13.4229 4.44941C13.7593 4.29588 14.1703 4.28501 14.6087 4.08416C14.5396 3.91043 14.837 3.75682 15.3535 3.45947C15.453 3.40241 15.3144 3.39536 15.3601 3.3653C15.5462 3.24155 15.7547 3.20664 15.9323 3.08914C15.9756 3.06067 15.9523 3.00117 15.9865 2.97462C16.2768 2.74446 16.8759 2.6606 16.9784 2.64913C17.3717 2.59979 17.5114 2.46149 17.8018 2.39909C18.0916 2.33842 17.6922 2.52556 18.0233 2.43575C18.7102 2.24927 19.58 1.98539 20.2803 1.82106C20.5593 1.75507 20.3495 1.71768 20.3889 1.70631C20.965 1.54676 21.5714 1.52267 21.8677 1.29903C22.3489 1.66377 22.2158 1.189 23.0745 1.16181C23.1425 1.16045 23.2515 1.35532 23.0023 1.41839C22.7537 1.4816 22.3612 1.47351 22.0183 1.5809C21.9361 1.60509 21.501 1.88322 21.441 1.90822C20.9618 2.09788 20.8246 1.8149 20.7941 1.80332C20.4501 1.6893 19.9287 2.03527 19.7835 2.09026C19.1168 2.33592 18.5331 2.47267 17.9897 2.71004C17.6354 2.86614 17.671 3.07033 17.3872 3.16974C16.4524 3.50824 16.0095 3.39273 15.2618 4.01994C15.1031 4.15717 15.3795 4.26151 14.659 4.43407C14.6142 4.44384 14.0632 4.55474 13.842 4.79761C13.8143 4.82789 13.8473 4.88357 13.8054 4.91362C13.5249 5.1145 13.3023 5.18615 12.9963 5.40399C12.6908 5.62199 12.3357 5.89663 11.9723 6.12078C11.7533 6.25516 11.4148 6.35004 11.2974 6.39975C10.9643 6.53746 10.7513 6.87738 10.5182 6.93047C10.282 6.98616 10.5214 6.59285 10.0271 6.90396C10.1163 7.04808 10.1873 7.21281 10.2682 7.3651C9.29932 8.15075 8.36627 8.95931 7.52464 9.89171C7.42078 10.0075 7.59441 9.9506 7.48551 10.0762C7.02817 10.6066 6.58546 11.0365 6.16178 11.6298C5.83441 12.0895 5.55377 12.6466 5.25122 13.1479C4.89076 13.3388 4.47923 14.117 4.15684 14.6627C4.04298 14.854 4.00546 14.8164 3.91469 14.9478C3.57755 15.4459 3.86102 15.2785 3.80858 15.4353C3.5936 16.1096 3.21911 15.9927 2.88427 16.7593C2.86503 16.8003 2.84203 17.3761 2.82783 17.4483C2.72907 17.9133 2.73189 17.4929 2.6089 17.7604C2.38745 18.2509 2.21199 18.5863 2.07183 19.2053C2.0307 19.3871 2.02216 19.8421 1.83089 20.1575C1.80566 20.1991 1.74746 20.1557 1.73338 20.1911C1.48714 20.8368 1.6941 20.9084 1.67316 21.3018C1.65283 21.6948 1.39087 22.2533 1.32766 22.3665C1.16068 22.6619 1.32718 22.1159 1.32129 22.0974C1.23634 21.8717 1.16909 22.3074 1.10051 22.6391C0.88525 22.6504 0.820006 23.1246 1.03158 22.9836C1.05446 22.9675 1.07891 22.7043 1.10051 22.6391C1.25022 22.9685 1.1939 23.4741 0.935271 24.0196C0.816478 24.2756 0.733094 24.0128 0.69317 24.8314C0.67905 25.2032 0.833874 25.0716 0.849823 25.3999C0.876609 25.9269 0.806963 26.5434 0.780847 27.1429C0.769358 27.4043 0.7616 27.6589 0.767978 27.8951C0.775652 28.1791 0.85438 27.9024 0.862338 28.0966C0.883703 28.6118 0.824632 29.0661 0.854891 29.5836C0.857733 29.6304 0.940145 29.5159 0.941195 29.6768C0.950766 30.8966 0.89798 31.9587 0.896517 33.2323C0.896326 33.4083 0.899907 33.624 0.904906 33.8571C0.916096 34.4309 0.963189 35.0962 0.987032 35.5439C1.036 36.6165 1.10079 37.9572 1.314 38.8579C1.45237 39.4448 1.50901 39.298 1.61919 39.5365C1.83033 39.9935 1.87385 40.8881 1.8813 41.0115C1.88038 41.0158 1.72164 40.5216 1.75551 40.7997C1.71437 40.979 1.87942 41.0061 1.8813 41.0115C1.87914 41.0922 2.17286 42.0874 2.26091 42.2742C2.30586 42.3768 2.35895 42.292 2.38103 42.3457C2.90652 43.624 3.48663 44.8725 4.1281 46.1136C4.13861 46.1359 4.04413 46.1455 4.06992 46.1976C4.43143 46.9267 4.79786 47.3151 5.21551 47.8364C5.63537 48.3568 5.92687 48.7919 6.04512 49.1984C6.36208 49.5911 6.76629 50.1941 7.01031 50.5367C7.25358 50.8798 7.42152 50.8084 7.44785 50.8336C8.29281 51.6056 8.68688 52.138 9.55991 52.9409C9.97306 53.3242 10.8566 54.0094 11.3611 54.3507C11.7574 54.6227 11.973 54.8214 12.3557 55.0468C12.4074 55.0771 12.399 54.9806 12.4158 54.9883C12.8768 55.1833 12.5785 55.2078 12.646 55.2914C12.8933 55.592 13.0563 55.7735 13.6356 56.0455C13.7699 56.1091 14.2724 56.0861 14.5122 56.1956C14.8256 56.3391 14.666 56.3639 14.9986 56.508C15.0272 56.5201 15.0477 56.4653 15.2461 56.5665C16.1661 57.0346 17.1968 57.5036 18.2164 57.8453C18.3556 57.892 18.2076 57.7433 18.4088 57.8086C19.354 58.1151 20.4002 58.3981 21.3426 58.6338C21.5732 58.6917 21.4145 58.7264 21.4613 58.7556C21.751 58.9341 22.2287 58.8425 22.302 58.8505C23.7964 59.0196 24.9913 59.2113 26.4339 59.204C26.6991 59.2017 26.9719 59.1958 27.2554 59.1847C27.357 59.1803 28.1396 58.9972 28.4887 59.1543C28.5126 59.1647 28.8581 59.3254 29.1635 59.2155C29.1825 59.2087 28.9672 59.1259 29.3429 59.1344C29.7185 59.1428 30.323 59.0875 30.8393 59.1784C31.0028 59.2071 31.3892 59.3674 31.8768 59.2396C31.9085 59.2307 32.6613 58.9417 32.93 59.1411C32.9735 59.1739 32.9279 59.3849 33.5099 59.2767C33.6211 59.2557 33.4193 59.2087 33.7122 59.1793C34.161 59.134 34.7557 59.1905 35.3075 59.0965C35.4037 59.0799 35.8133 58.9367 36.1418 59.0454C36.1933 59.0624 36.0955 59.1328 36.269 59.1407C37.0941 59.1785 37.9581 59.1314 38.7958 59.1801C39.0925 59.1973 38.9408 59.3111 39.2501 59.3416C39.5595 59.3721 40.1827 59.4015 40.5064 59.3495C40.8302 59.2974 40.4765 59.1159 40.9615 59.1014C41.0238 59.0995 41.086 59.0978 41.1482 59.0963C43.1222 59.0444 45.0866 58.9188 47.0171 58.4764C47.3109 58.4076 47.0533 58.4054 47.4826 58.2953C49.0837 57.9158 51.6852 56.8108 52.9915 56.233C54.0499 55.7836 52.8233 56.5503 53.6157 56.1656C53.9992 55.9764 54.2828 55.5579 54.3653 55.4992C55.1757 54.9202 55.7956 54.6032 56.4938 54.0395C56.6371 53.9225 56.4413 53.9648 56.5632 53.8659C56.9781 53.5274 57.4365 53.1984 57.8168 52.8547C57.9869 52.7002 57.9117 52.6796 58.0717 52.5421C58.453 52.2113 58.7935 51.9222 59.1838 51.6136C59.2195 51.5852 59.0638 51.8594 59.3295 51.5932C59.7581 51.1621 60.3132 50.641 60.7123 50.0605C60.83 49.8876 60.7205 49.7897 61.0774 49.5049C61.1512 49.4444 61.2225 49.6501 61.4152 49.1418C61.4513 49.0563 61.7939 48.235 62.1392 47.9549C62.2313 47.8819 62.5136 47.7219 62.6286 47.4976C62.6436 47.467 62.5035 47.5385 62.6074 47.3597C62.9739 46.7301 63.3605 46.0712 63.6787 45.3956C63.7632 45.215 63.555 45.4415 63.6821 45.1738C64.032 44.4381 64.4586 43.517 64.7624 42.7791C64.8749 42.5069 64.8679 42.7213 64.8824 42.704C65.1172 42.4217 65.0285 42.1735 65.0565 42.0629C65.2316 41.3718 65.4586 40.8785 65.6058 40.2369C65.6458 40.0603 65.5379 40.1651 65.5401 40.1285C65.5646 39.7524 65.6339 40.0547 65.7052 39.8296C65.9045 39.1965 66.043 38.4705 66.1364 37.8052C66.1702 37.5609 66.0388 37.8201 66.0693 37.6027C66.2389 36.3698 66.339 35.0845 66.3824 33.8571C66.3844 33.7984 66.3865 33.7399 66.3888 33.6815C66.3984 33.4332 66.4683 33.5894 66.4842 33.5377C66.5959 33.1811 66.4436 32.6585 66.429 32.5382C66.3628 31.9914 66.4246 31.779 66.4131 31.2961C66.3817 30.0094 66.3797 28.5579 66.3884 27.1429C66.3963 25.999 66.3311 24.89 66.2177 23.9149C65.8757 21.1355 65.3117 18.9894 64.1919 16.5501C64.1194 16.3959 64.1073 16.5906 64.0436 16.4588C63.223 14.7576 62.2752 13.1403 61.0909 11.6595C60.9937 11.5384 61.0621 11.7686 60.9036 11.5769C60.5783 11.1844 60.1658 10.6881 59.8404 10.2871C59.6813 10.0914 59.9647 10.2909 59.8026 10.0948C59.4241 9.63839 58.9826 9.17942 58.5306 8.77147C58.3379 8.59854 58.5604 8.93121 58.3148 8.70249C56.634 7.15204 54.7878 5.86142 52.7897 4.68975C52.6528 4.60996 52.6117 4.38168 52.2901 4.26331C52.2448 4.29779 52.2199 4.35221 52.1861 4.39623C49.1764 2.96505 45.939 2.05941 42.5892 1.86174C42.4477 1.85368 42.6864 1.96349 42.4135 1.94904C41.992 1.92785 41.5708 1.91916 41.1482 1.91992C39.9647 1.92199 38.7875 1.91739 37.565 1.84683C37.3991 1.8374 37.4842 1.66658 36.9953 1.69242C36.9091 1.69713 36.1728 1.71991 35.9824 1.75699C35.9565 1.76258 36.0909 1.84231 35.8536 1.84464C34.4747 1.85674 33.0298 1.83854 31.6533 1.78983C31.4312 1.78181 31.6678 1.69691 31.5095 1.69046C30.3872 1.64539 29.1663 1.70993 28.0939 1.63285C27.376 1.58094 27.6418 1.43417 27.2603 1.28971C27.2063 1.26932 26.7618 1.26609 26.7388 1.18204C26.6798 0.970681 26.8951 0.739242 26.8068 0.513952C26.7881 0.465427 26.1927 0.517692 26.5452 0.400427C26.5698 0.392579 27.0015 0.35366 27.1078 0.31388C27.1818 0.286376 27.0484 0.200894 27.1994 0.165687C27.3504 0.130513 27.5164 0.202169 27.7667 0.160804C28.017 0.118927 27.907 0.0216813 28.4067 0.0101698ZM8.16075 52.0448C8.37979 52.3784 8.62956 52.2042 8.28219 51.96C8.26519 51.9484 8.14942 52.0277 8.16075 52.0448ZM8.23374 8.81551C7.77742 9.08358 7.67885 9.47372 8.00035 9.28507C8.3213 9.09994 8.37218 8.73527 8.23374 8.81551ZM12.2898 5.41218C11.7314 5.65649 11.8948 6.05903 12.3749 5.63652C12.403 5.61231 12.3223 5.39816 12.2898 5.41218ZM29.0294 1.24857C29.0239 1.2446 28.7043 1.24073 28.6967 1.24466C28.5266 1.33965 29.1655 1.34733 29.0294 1.24857ZM16.9287 2.9027C16.7318 2.91658 16.2584 3.18522 16.5008 3.16182C16.6943 3.14199 17.1717 2.88411 16.9287 2.9027ZM26.4526 59.9581C26.4588 59.9626 26.6879 59.9666 26.6833 59.9414C26.6706 59.8753 26.4566 59.8782 26.4339 59.9221C26.4314 59.927 26.4312 59.9324 26.4339 59.9382C26.4367 59.9443 26.4428 59.951 26.4526 59.9581ZM25.7006 1.11795C24.3788 1.14762 23.5276 0.885846 24.9973 0.819526C25.2629 0.811269 24.4322 0.965209 24.7715 0.976201C25.3891 0.996904 25.787 0.763964 26.4223 0.879798C26.5349 0.899468 25.7742 1.11467 25.6982 1.1185C25.699 1.11832 25.6998 1.11813 25.7006 1.11795ZM8.06735 52.4588C8.06985 52.4675 8.29436 52.6916 8.30288 52.6938C8.49137 52.7447 8.04057 52.2952 8.06735 52.4588ZM39.8206 60.143C39.8381 60.1515 40.5741 60.1593 40.5981 60.1516C40.982 59.9963 39.4941 59.9799 39.8206 60.143ZM0.0740101 33.1983C-0.0215143 32.8523 -0.0327613 32.4384 0.0871937 32.1625C0.0808259 32.5064 0.0798878 32.8526 0.0740101 33.1983Z" fill="#AF7840"/>
</g>
<defs>
<filter id="filter0_n_2569_1992" x="0" y="0" width="67.791" height="60.3828" filterUnits="userSpaceOnUse" color-interpolation-filters="sRGB">
<feFlood flood-opacity="0" result="BackgroundImageFix"/>
<feBlend mode="normal" in="SourceGraphic" in2="BackgroundImageFix" result="shape"/>
<feTurbulence type="fractalNoise" baseFrequency="1.1475410461425781 1.1475410461425781" stitchTiles="stitch" numOctaves="3" result="noise" seed="1310" />
<feColorMatrix in="noise" type="luminanceToAlpha" result="alphaNoise" />
<feComponentTransfer in="alphaNoise" result="coloredNoise1">
<feFuncA type="discrete" tableValues="1 1 1 1 1 1 1 1 1 1 1 1 1 1 1 1 1 1 1 1 1 1 1 1 1 1 1 1 1 1 1 1 1 1 1 1 1 1 1 1 1 1 1 1 1 1 1 1 1 1 1 0 0 0 0 0 0 0 0 0 0 0 0 0 0 0 0 0 0 0 0 0 0 0 0 0 0 0 0 0 0 0 0 0 0 0 0 0 0 0 0 0 0 0 0 0 0 0 0 0 "/>
</feComponentTransfer>
<feComposite operator="in" in2="shape" in="coloredNoise1" result="noise1Clipped" />
<feFlood flood-color="rgba(0, 0, 0, 0.25)" result="color1Flood" />
<feComposite operator="in" in2="noise1Clipped" in="color1Flood" result="color1" />
<feMerge result="effect1_noise_2569_1992">
<feMergeNode in="shape" />
<feMergeNode in="color1" />
</feMerge>
</filter>
</defs>
</svg>
