<svg width="218" height="62" viewBox="0 0 218 62" fill="none" xmlns="http://www.w3.org/2000/svg">
<path d="M198.343 0.136719C198.33 0.25328 198.322 0.370433 198.322 0.488281C198.322 4.69129 206.707 8.10779 217.149 8.21289V61.627H19.9664C19.9656 57.3579 11.3148 53.8975 0.644089 53.8975C0.47855 53.8975 0.313513 53.8997 0.148972 53.9014V0.136719H198.343Z" fill="#1B1A18"/>
<path d="M201.169 4.01609C203.618 5.70725 207.537 6.77952 210.508 7.2578C211.444 7.40746 210.964 7.35785 211.615 7.45272C212.884 7.62865 214.077 7.72102 215.343 7.79299C215.761 7.81564 215.238 7.82863 215.677 7.85052C216.175 7.87402 216.661 7.88836 217.152 7.89486L217.467 7.89753L217.467 8.21289C217.461 10.1138 217.466 11.9698 217.46 13.9288C217.422 26.0695 217.408 38.0035 217.392 50.2927C217.387 53.7676 217.362 57.885 217.364 61.627L217.365 61.8421L217.149 61.8424C216.527 61.8428 215.916 61.8438 215.32 61.8459C214.831 61.8476 215.123 61.8793 215.03 61.8819C213.572 61.9219 214.056 61.8579 213.105 61.8494C209.326 61.8158 205.125 61.8129 201.489 61.8251C199.942 61.8304 201.493 61.8934 199.935 61.8581C199.827 61.8557 200.219 61.822 199.795 61.8184C198.833 61.8103 197.008 61.8164 196.262 61.8137C194.825 61.8084 194.587 61.8087 193.228 61.8083C191.37 61.8075 189.16 61.7908 187.166 61.7984C186.741 61.8002 187.304 61.8347 186.626 61.8405C185.946 61.8464 184.149 61.8435 183.544 61.8353C182.938 61.8272 183.196 61.8001 183.088 61.7939C182.206 61.7414 180.128 61.8141 179.86 61.8159C174.984 61.8465 170.802 61.8051 166.225 61.8052C162.75 61.8054 159.035 61.819 155.728 61.8172C151.789 61.8148 148.451 61.7961 144.624 61.7993C144.22 61.7996 144.693 61.8402 144.2 61.8406C138.959 61.8453 133.755 61.8409 128.537 61.8135C128.014 61.8108 128.688 61.7751 128.166 61.7702C124.965 61.741 119.9 61.6707 117.999 61.8257C115.831 61.8197 113.198 61.8134 111.259 61.7822C110.008 61.762 111.223 61.7232 109.686 61.7398C109.34 61.7435 109.79 61.7775 109.271 61.7804C107.083 61.7929 104.693 61.7818 102.528 61.7994C102.088 61.803 102.208 61.8335 102.084 61.8389C101.035 61.8833 99.2901 61.81 98.9097 61.8046C96.0127 61.7648 93.8971 61.7805 91.1984 61.7795C90.5721 61.7793 91.3124 61.8202 90.7098 61.8214C87.5843 61.8273 84.3466 61.8238 81.2863 61.8056C80.6055 61.8015 81.2316 61.7666 80.9062 61.7629C79.4719 61.7467 79.1539 61.8125 77.7783 61.7983C77.4883 61.7954 77.6517 61.7656 77.5987 61.7623C76.7709 61.7109 76.0514 61.7837 75.8385 61.7854C73.1447 61.8073 71.4228 61.7313 68.8205 61.7421C68.5091 61.7434 69.2111 61.7811 68.336 61.7827C62.5058 61.7931 56.3396 61.7827 50.5686 61.7525C49.6713 61.7479 50.3118 61.7196 50.2554 61.7161C49.3351 61.6615 48.7396 61.7346 48.4471 61.7374C46.139 61.7572 43.9829 61.6959 42.4146 61.783C34.9068 61.7598 27.4253 61.7832 19.9664 61.76L19.8335 61.7602L19.8333 61.627C19.7792 59.3611 17.5918 57.8755 15.6865 56.8833C15.5759 56.8275 15.7916 56.8938 15.5696 56.7826C12.882 55.5703 13.3545 55.8966 11.4721 55.3925C11.0024 55.2715 9.55496 54.8581 9.42829 54.8333C8.95801 54.7155 9.46132 54.7622 9.30299 54.7259C7.99187 54.4443 8.17707 54.642 6.39053 54.4001C6.33411 54.3927 6.57516 54.3902 6.42419 54.3679C5.96259 54.2996 5.49093 54.2614 5.03742 54.2079C3.98852 54.0914 3.61978 53.9678 2.0053 53.9636C1.80706 53.9681 2.09109 54.0545 0.644089 54.0472C0.59751 54.0472 0.549058 54.0474 0.498636 54.0476C0.416278 54.0478 0.297449 54.049 0.150472 54.0503L0.000230551 54.0521L-6.24359e-06 53.9014C0.00106063 52.9072 0.000481859 50.6531 0.00616001 49.957C0.0126681 49.1591 0.0450696 49.7069 0.0464727 49.65C0.089318 47.5002 0.107075 48.3154 0.170508 47.2383C0.233701 46.1613 0.0829793 46.46 0.0661566 46.021C0.0493817 45.5812 0.0847319 44.005 0.097021 43.6176C0.109315 43.2305 0.129904 43.7133 0.136861 43.3691C0.182316 41.0865 0.0620486 42.3672 0.0381267 41.6151C-0.0185159 39.8419 0.0932595 38.4609 0.104212 36.8376C0.10717 36.3984 0.0817126 36.7568 0.0793317 36.3657C0.0702397 34.8167 0.105117 33.885 0.0731378 32.1227C0.0679267 31.8344 0.000724196 30.4097 0.050042 29.4876C0.0571536 29.357 0.0850077 29.7281 0.091247 29.0679C0.100611 28.0817 0.106699 26.3047 0.0973884 25.2446C0.0904998 24.4619 0.0446027 25.359 0.0588604 24.3739C0.0652268 23.936 0.0920769 24.7475 0.101798 23.9249C0.111515 23.1067 0.110336 21.0147 0.109409 20.2186C0.108461 19.424 0.073646 19.8589 0.0713007 19.7947C0.0578651 19.4061 0.0410772 17.8811 0.0411187 17.7463C0.037315 11.6626 0.0839205 6.00284 0.0798283 0.136719L0.0797199 0.0676843L0.148972 0.0675755C0.837366 0.0670953 1.5286 0.0659169 2.2237 0.063877C2.74307 0.0624032 2.3971 0.0256899 2.47635 0.0250865C4.25442 0.0097045 2.85253 0.107316 4.09461 0.139988C3.9151 0.0654866 4.64831 0.0789763 5.9008 0.0708057C6.50435 0.0668079 6.17564 0.0379603 6.23072 0.0350072C7.12575 -0.00880882 7.74901 0.0477854 7.90953 0.0593628C8.50228 0.101951 9.14737 0.0516302 9.55076 0.0800965C9.95389 0.10835 9.0261 0.150235 10.2273 0.149699C10.5641 0.12303 9.67236 0.0533363 10.5844 0.0420409C14.0253 -0.000684008 20.4484 0.0539976 23.2151 0.0596777C25.9763 0.0653531 26.8681 0.0604326 28.4771 0.0700708C31.3834 0.0874977 30.3183 0.0357897 32.1229 0.0121214C33.9328 -0.0115441 33.0529 0.115682 33.3131 0.143033C33.5684 0.17037 33.8473 0.142229 34.165 0.157258C34.4817 0.172282 33.7961 0.190879 34.5409 0.19652C35.286 0.202157 37.3233 0.153521 37.5874 0.124923C38.1457 0.064337 37.2277 0.000749096 39.1994 0.0230919C39.3127 0.0244178 38.9448 0.0578715 39.3789 0.0612525C42.8276 0.0870064 46.4104 0.0886028 49.8548 0.111381C50.3284 0.114565 49.9049 0.151781 50.1806 0.154056C53.0515 0.17786 52.0253 0.115109 53.5988 0.0454003C53.2454 0.138167 54.1156 0.194923 56.2945 0.195471C57.6043 0.195832 57.3788 0.155316 58.2259 0.126761C58.4801 0.118152 59.4069 0.145972 59.5748 0.126918C60.1286 0.0646328 59.2557 -0.00509153 61.5021 0.022672C61.6007 0.0239914 61.2869 0.0580854 61.6274 0.0601502C63.8288 0.0736652 64.0922 0.00851575 66.4718 0.000625983C68.3369 -0.00556479 71.6542 0.0341625 73.7779 0.0406237C73.7333 0.144921 75.7393 0.121038 76.553 0.0491272C77.9313 0.0520712 79.42 0.0480059 80.7521 0.0579456C81.2106 0.0613343 80.9094 0.0915311 80.9672 0.0947939C81.8537 0.145977 82.4529 0.0760156 82.7504 0.0732728C85.9748 0.0466108 88.6018 0.0996359 91.679 0.0478149C91.7882 0.0459485 91.9652 -0.0264995 92.7878 0.0263988C92.841 0.0300452 91.8247 0.0630077 93.2722 0.0655567C94.72 0.0681114 97.4493 0.106949 99.4592 0.0733778C99.9456 0.0652957 101.176 0.00648266 102.163 0.0524341C102.295 0.0586739 102.151 0.0794522 102.341 0.0910145C102.955 0.127857 103.29 0.0546299 104.011 0.11684C104.733 0.179047 106.233 0.225636 108.26 0.182715C108.325 0.181467 108.805 0.123428 109.442 0.124346C110.46 0.125861 111.904 0.137952 112.967 0.137574C113.476 0.137372 113.15 0.101332 113.238 0.100673C116.659 0.0804775 119.094 0.112607 122.758 0.126551C123.43 0.129178 125.36 0.0800326 126.661 0.118887C128.089 0.16142 126.621 0.338353 129.903 0.2962C131.227 0.279339 132.903 0.0548689 135.282 0.171167C139.896 0.142349 144.163 0.201871 148.79 0.160722C148.998 0.158899 149.656 0.0962508 150.145 0.0971034C150.871 0.0984905 151.27 0.127771 151.789 0.1297C153.961 0.13852 155.95 0.113468 158.044 0.117365C158.84 0.118781 158.562 0.149056 159.51 0.150749C160.458 0.152413 161.09 0.112545 162.375 0.1318C163.345 0.146476 164.315 0.227965 165.603 0.237463C165.652 0.157084 166.537 0.158739 168.109 0.137521C168.411 0.133404 168.087 0.105428 168.23 0.102038C168.812 0.0876185 169.35 0.110805 169.903 0.0951088C170.037 0.0913391 170.043 0.0638891 170.153 0.0592578C171.087 0.0188325 172.626 0.0805786 172.891 0.0913295C173.904 0.132159 174.377 0.0964571 175.154 0.112536C175.93 0.128612 174.77 0.148709 175.676 0.158465C177.554 0.178643 179.968 0.17421 181.876 0.175472C182.637 0.175806 182.117 0.139164 182.226 0.138361C183.8 0.129068 185.392 0.168044 186.265 0.0950563C187.356 0.283775 187.214 0.0767516 189.464 0.11453C189.641 0.117586 189.866 0.206829 189.186 0.219931C188.506 0.233021 187.474 0.205124 186.53 0.225548C186.306 0.23034 185.026 0.313967 184.851 0.319033C183.483 0.358624 183.289 0.225261 183.216 0.217936C182.395 0.138889 180.83 0.228981 180.418 0.235206C178.533 0.26373 176.931 0.244975 175.355 0.265335C174.323 0.278494 174.222 0.365852 173.413 0.363178C170.721 0.35434 169.781 0.232476 167.244 0.33814C166.701 0.360676 167.241 0.456155 165.292 0.381077C165.17 0.376344 163.723 0.307661 162.887 0.351105C162.782 0.356582 162.785 0.384408 162.647 0.386746C161.718 0.401866 161.1 0.379698 160.089 0.390315C159.078 0.400932 157.862 0.41676 156.708 0.407322C156.012 0.401679 155.12 0.349835 154.787 0.337142C153.847 0.300578 152.839 0.360528 152.256 0.316251C151.669 0.271751 152.817 0.204172 151.277 0.175419C151.22 0.247713 151.089 0.321915 150.997 0.394619C147.622 0.392074 144.301 0.368697 140.914 0.371891C140.494 0.372359 140.923 0.411225 140.473 0.412729C138.574 0.418903 136.915 0.391197 134.946 0.40223C133.422 0.41092 131.75 0.45207 130.156 0.462437C129.182 0.379713 126.817 0.407796 125.099 0.400236C124.497 0.397624 124.537 0.37553 124.109 0.368322C122.494 0.341664 123.251 0.414767 122.808 0.426271C120.909 0.47537 120.746 0.309906 118.507 0.313994C118.388 0.314155 116.938 0.402354 116.738 0.407847C115.469 0.443662 116.528 0.377148 115.734 0.370631C114.283 0.358722 113.276 0.337659 111.574 0.363493C111.078 0.371144 109.888 0.426118 108.924 0.383596C108.798 0.378028 108.868 0.348875 108.766 0.347168C106.919 0.318709 106.871 0.410312 105.815 0.441336C104.76 0.472353 103.13 0.409118 102.798 0.390893C101.93 0.343745 103.463 0.370744 103.51 0.366117C104.062 0.311057 102.873 0.320536 101.965 0.315884C101.833 0.226066 100.563 0.231457 101.023 0.311422C101.076 0.320156 101.782 0.31178 101.965 0.315884C101.168 0.404007 99.7714 0.415294 98.2293 0.332943C97.5075 0.294347 98.1899 0.249345 95.9972 0.265808C95.002 0.273239 95.3866 0.335084 94.5084 0.351945C92.5021 0.390415 89.895 0.332724 87.8265 0.341814C87.0758 0.345114 87.8071 0.378967 87.2941 0.382389C85.9325 0.391576 84.7317 0.366175 83.3643 0.379187C83.2404 0.380409 83.5431 0.415846 83.1179 0.416298C79.8943 0.420413 77.0873 0.397716 73.7216 0.397086C72.0953 0.396799 69.1879 0.416343 67.5033 0.412414C64.5835 0.405812 60.9916 0.354281 58.4974 0.366799C56.8706 0.374813 57.2275 0.410257 56.5304 0.434407C55.1853 0.481219 52.8043 0.397368 52.4837 0.384384C52.4739 0.383954 53.8738 0.375598 53.1269 0.357404C52.6926 0.319492 52.4995 0.384219 52.4837 0.384384C52.2732 0.375996 49.4767 0.36795 48.9215 0.374725C48.6197 0.378428 48.7885 0.41201 48.6312 0.413306C44.8919 0.443358 41.1461 0.451894 37.3535 0.436192C37.2868 0.435513 37.3873 0.39795 37.2303 0.396824C35.0347 0.380122 33.6288 0.426074 31.818 0.453356C30.0075 0.480626 28.5716 0.471493 27.4999 0.407007C26.1338 0.415126 24.1739 0.386617 23.046 0.369319C21.9182 0.352021 21.7608 0.425141 21.6616 0.426586C18.5665 0.472853 16.7772 0.431 13.5661 0.424486C12.0395 0.421264 9.01122 0.43187 7.35828 0.439866C6.05193 0.446308 5.26492 0.429172 4.0612 0.440129C3.89837 0.441592 4.06287 0.474149 4.01318 0.475402C2.6698 0.514354 3.3154 0.434764 3.03805 0.42055C2.12719 0.373727 1.53165 0.346728 0.148972 0.36013L0.372383 0.136719C0.373776 0.280502 0.375607 0.432785 0.377897 0.594832C0.383466 0.991635 0.498065 2.14751 0.504767 2.87084C0.51327 3.81129 0.472193 3.45634 0.482143 4.44107C0.482957 4.5253 0.508299 4.50779 0.507181 5.11552C0.502328 7.93661 0.487582 11.0123 0.490122 13.9439C0.490372 14.3444 0.530567 13.831 0.531589 14.4096C0.536354 17.1245 0.534867 20.1002 0.516052 22.7452C0.511295 23.3962 0.483151 22.9881 0.474795 23.1294C0.424233 23.997 0.497698 25.2274 0.499098 25.4304C0.534402 30.2731 0.467917 33.9794 0.49957 38.9152C0.501429 39.1839 0.580185 41.252 0.51264 42.1747C0.508147 42.2379 0.439042 43.1508 0.48629 43.9579C0.489246 44.0081 0.524822 43.4392 0.521196 44.4319C0.517578 45.4246 0.541336 47.0222 0.502247 48.3867C0.489934 48.8188 0.421 49.8398 0.47595 51.1284C0.479767 51.212 0.602832 53.1824 0.519543 53.9014L0.145239 53.5308C0.148733 53.5312 0.152197 53.5316 0.155633 53.5319C0.233257 53.541 0.202063 53.5834 0.644086 53.5954C0.861245 53.6024 1.19062 53.6024 1.69896 53.5977C1.99597 53.596 1.45859 53.5607 2.23935 53.5703C3.43517 53.5874 5.01351 53.7189 6.47674 53.8643C6.73584 53.8877 7.82541 53.9725 8.68314 54.1789C8.81651 54.211 8.5563 54.1929 9.00808 54.281C11.166 54.7107 13.4153 55.3042 15.4595 56.2752C16.175 56.6291 15.79 56.4856 16.5183 56.8936C17.2516 57.2913 18.6198 58.2874 19.1922 59.0003C19.7453 59.7147 19.2833 58.8113 19.9798 60.0198C20.216 60.5114 20.3583 61.0659 20.3584 61.6269L19.9664 61.235C25.0326 61.2213 30.0627 61.2598 35.1293 61.2659C35.9546 61.2669 35.2705 61.239 36.4866 61.2385C40.9704 61.2364 48.7117 61.2102 52.6024 61.2695C55.7197 61.3171 51.7967 61.3532 54.1789 61.3726C55.3284 61.3818 56.572 61.2911 56.8495 61.2882C59.5604 61.2592 61.4444 61.2994 63.8842 61.2871C64.3881 61.2845 63.8939 61.2477 64.3227 61.246C65.7875 61.2396 67.3269 61.256 68.7265 61.253C69.3544 61.2516 69.2387 61.2235 69.8165 61.2256C71.199 61.2305 72.4215 61.2423 73.7692 61.2686C73.892 61.271 73.0638 61.306 74.0866 61.3073C75.742 61.3093 77.7969 61.3352 79.7014 61.3084C80.2665 61.3004 80.2887 61.2362 81.5034 61.2805C81.7583 61.2898 81.4331 61.3668 82.8482 61.3002C83.0862 61.2892 85.4632 61.1993 86.6297 61.2572C86.9374 61.2725 87.7229 61.3356 88.4025 61.3256C88.4946 61.3241 88.1254 61.2896 88.6885 61.2862C90.6731 61.275 92.7531 61.2786 94.792 61.2679C95.3364 61.2649 94.5255 61.2292 95.337 61.226C97.5685 61.2169 100.355 61.226 102.537 61.2372C103.341 61.2414 102.785 61.2709 102.844 61.2742C103.785 61.3265 104.342 61.2559 104.654 61.2517C106.597 61.2271 108.077 61.2603 109.868 61.2515C110.362 61.2491 110.012 61.2155 110.11 61.2125C111.131 61.1831 110.37 61.2436 111.016 61.2503C112.826 61.2691 114.843 61.2664 116.673 61.2621C117.345 61.2605 116.59 61.2215 117.193 61.2205C120.763 61.2137 124.475 61.2175 127.959 61.239C128.615 61.2431 128.202 61.2732 128.339 61.28C129.281 61.3281 130.663 61.2625 130.98 61.2563C132.425 61.2278 132.987 61.2544 134.263 61.2494C140.497 61.2247 148.194 61.2423 154.079 61.2532C161.747 61.2672 167.697 61.2958 175.01 61.2884C175.474 61.2879 175.006 61.248 175.406 61.2471C180.579 61.2374 185.671 61.2531 190.854 61.2415C191.279 61.2406 190.666 61.2027 191.349 61.2C192.749 61.1943 194.523 61.1963 195.938 61.2084C196.629 61.2143 195.703 61.2468 196.398 61.252C198.016 61.2642 199.751 61.2669 201.413 61.2608C202.121 61.2581 201.053 61.2194 201.973 61.2189C207.054 61.2158 212.061 61.2108 217.149 61.2359L216.758 61.627C216.764 60.4424 216.771 59.2535 216.781 58.0583C216.784 57.6243 216.863 57.2436 216.848 56.321C216.826 56.2515 216.8 56.2553 216.777 56.2249C216.764 47.1068 216.792 38.0817 216.796 28.9379C216.796 28.5524 216.754 29.2187 216.754 28.4723C216.755 24.1524 216.743 19.9575 216.785 15.5387C216.789 15.1003 216.862 15.3253 216.851 14.0332C216.849 13.8054 216.839 11.8594 216.823 11.3563C216.821 11.288 216.787 11.643 216.786 11.016C216.784 10.0909 216.784 9.15463 216.784 8.21289L217.145 8.57751C214.356 8.5485 211.517 8.27471 208.837 7.71482C208.255 7.5905 208.882 7.68428 208.469 7.59434C205.565 6.94146 202.372 5.95254 200.093 4.08133C198.668 2.73557 199.246 3.16677 198.706 2.29164C198.673 2.22718 198.508 1.9278 198.407 1.61537C198.3 1.30275 198.263 0.984024 198.277 0.951446C198.34 0.789566 198.538 1.31809 198.59 1.07584C198.593 1.05343 198.537 0.744395 198.543 0.488276C198.554 0.185803 198.586 -0.0336457 198.58 0.436018C198.58 0.442496 198.581 0.46079 198.581 0.488281C198.553 0.720797 198.761 1.55637 198.899 1.74992C198.987 1.9083 198.879 1.60236 199.054 1.92218C199.24 2.2364 199.438 2.59523 199.887 3.03579C200.357 3.45461 200.143 3.27214 201.169 4.01609ZM17.9678 0.292001C16.9235 0.256886 16.7694 0.385497 17.8989 0.354727C17.9536 0.353087 18.0217 0.293723 17.9678 0.292001ZM144.319 0.271687C142.954 0.21496 142.02 0.298371 142.983 0.342181C143.946 0.385945 144.735 0.288883 144.319 0.271687ZM158.477 0.230272C156.881 0.185545 156.63 0.367922 158.339 0.331053C158.438 0.32897 158.57 0.232869 158.477 0.230272ZM202.291 5.30167C202.278 5.29929 201.532 4.88347 201.52 4.87096C201.104 4.68471 202.587 5.51877 202.291 5.30167ZM172.525 0.185182C172.027 0.160512 170.593 0.188991 171.212 0.219669C171.71 0.244348 173.146 0.215871 172.525 0.185182ZM0.166991 36.7937C0.165074 36.8102 0.163349 37.4156 0.174182 37.4035C0.209074 37.3624 0.199227 36.5198 0.166991 36.7937ZM196.402 0.183083C192.875 0.176218 190.736 0.0255663 194.577 0.0425659C195.273 0.0456416 193.078 0.0906075 193.964 0.10419C195.584 0.128934 196.66 0.0343432 198.313 0.0850306C198.612 0.0943081 196.604 0.183809 196.396 0.183293C196.398 0.183223 196.4 0.183153 196.402 0.183083ZM17.3664 0.137521C17.3456 0.13582 16.5075 0.134208 16.4874 0.135894C16.0335 0.176724 17.7219 0.179997 17.3664 0.137521ZM17.6098 58.0012C17.6833 57.9948 19.0896 59.3142 19.0756 59.407C19.395 59.8018 19.0186 59.1704 18.4698 58.6559C17.9287 58.1334 17.2818 57.7277 17.6098 58.0012ZM73.8113 0.0434057C74.7259 0.00232987 75.8198 -0.00250636 76.5488 0.0490747C75.64 0.0463365 74.7251 0.0459331 73.8113 0.0434057Z" fill="#AD8253"/>
</svg>
