<svg width="63" height="63" viewBox="0 0 63 63" fill="none" xmlns="http://www.w3.org/2000/svg">
<circle cx="31.4432" cy="31.4432" r="31.4432" fill="#121818"/>
<path d="M17.0361 46.6521V43.7089H46.9039V46.6521H17.0361ZM24.2231 40.1773C22.2319 40.1773 20.5363 39.5201 19.1362 38.2057C17.7362 36.8911 17.0361 35.292 17.0361 33.4084V14.8672H47.526C48.3816 14.8672 49.1141 15.1553 49.7236 15.7316C50.3328 16.3081 50.6374 17.001 50.6374 17.8104V24.2848C50.6374 25.0941 50.3328 25.7871 49.7236 26.3636C49.1141 26.9399 48.3816 27.228 47.526 27.228H43.295V33.4084C43.295 35.292 42.595 36.8911 41.1949 38.2057C39.7949 39.5201 38.0993 40.1773 36.1081 40.1773H24.2231ZM24.2231 37.2345H36.1072C37.1967 37.2345 38.1484 36.8494 38.9623 36.0792C39.7765 35.309 40.1836 34.4188 40.1836 33.4084V17.8104H20.1475V33.4084C20.1475 34.4188 20.5597 35.309 21.3842 36.0792C22.2087 36.8494 23.155 37.2345 24.2231 37.2345ZM43.295 24.2848H47.526V17.8104H43.295V24.2848ZM24.2231 37.2345H20.1475H40.1836H24.2231Z" fill="#C4AE95"/>
</svg>
