<svg width="63" height="63" viewBox="0 0 63 63" fill="none" xmlns="http://www.w3.org/2000/svg">
<circle cx="31.4432" cy="31.4432" r="31.4432" fill="#121818"/>
<path d="M35.6821 26.3966V24.3069C36.8885 23.6966 38.1802 23.239 39.5572 22.934C40.9345 22.6291 42.3486 22.4766 43.7993 22.4766C44.6281 22.4766 45.424 22.5297 46.187 22.636C46.9496 22.7426 47.7369 22.8938 48.5488 23.0895V25.1275C47.7657 24.8768 47.0021 24.7034 46.2583 24.6072C45.514 24.5107 44.6944 24.4624 43.7993 24.4624C42.3486 24.4624 40.9325 24.6257 39.551 24.9524C38.1691 25.2791 36.8795 25.7605 35.6821 26.3966ZM35.6821 38.6583V36.4822C36.8308 35.8723 38.1154 35.4146 39.5358 35.1093C40.9562 34.8043 42.3774 34.6519 43.7993 34.6519C44.6281 34.6519 45.424 34.7052 46.187 34.8118C46.9496 34.9181 47.7369 35.0691 48.5488 35.2648V37.3028C47.7657 37.0525 47.0021 36.879 46.2583 36.7825C45.514 36.6859 44.6944 36.6377 43.7993 36.6377C42.3486 36.6377 40.9325 36.8133 39.551 37.1647C38.1691 37.5157 36.8795 38.0135 35.6821 38.6583ZM35.6821 32.5706V30.3946C36.8885 29.7846 38.1802 29.327 39.5572 29.0217C40.9345 28.7167 42.3486 28.5642 43.7993 28.5642C44.6281 28.5642 45.424 28.6174 46.187 28.7236C46.9496 28.8303 47.7369 28.9814 48.5488 29.1771V31.2152C47.7657 30.9648 47.0021 30.7914 46.2583 30.6948C45.514 30.5983 44.6944 30.55 43.7993 30.55C42.3486 30.55 40.9325 30.7278 39.551 31.0832C38.1691 31.4387 36.8795 31.9345 35.6821 32.5706ZM19.103 40.8691C21.063 40.8691 22.9691 41.0944 24.8213 41.5449C26.6736 41.9954 28.5093 42.7287 30.3286 43.7446V21.7166C28.708 20.5593 26.922 19.6913 24.9706 19.1129C23.0189 18.5344 21.063 18.2451 19.103 18.2451C17.756 18.2451 16.5765 18.3258 15.5647 18.487C14.5529 18.6483 13.4296 18.9477 12.1948 19.3851C11.8494 19.5003 11.6049 19.6659 11.4612 19.8818C11.3171 20.0973 11.2451 20.3348 11.2451 20.5941V40.8344C11.2451 41.2373 11.389 41.5324 11.6767 41.7195C11.9645 41.9066 12.2812 41.9283 12.627 41.7846C13.4472 41.5081 14.3948 41.2864 15.4699 41.1195C16.5449 40.9526 17.756 40.8691 19.103 40.8691ZM32.5737 43.7446C34.393 42.7287 36.2288 41.9954 38.081 41.5449C39.9332 41.0944 41.8393 40.8691 43.7993 40.8691C45.1464 40.8691 46.3574 40.9526 47.4325 41.1195C48.5075 41.2864 49.4551 41.5081 50.2753 41.7846C50.6211 41.9283 50.9378 41.9066 51.2256 41.7195C51.5133 41.5324 51.6572 41.2373 51.6572 40.8344V20.5941C51.6572 20.3348 51.5852 20.1044 51.4411 19.9031C51.2974 19.7018 51.0529 19.5291 50.7075 19.3851C49.4727 18.9477 48.3494 18.6483 47.3376 18.487C46.3258 18.3258 45.1464 18.2451 43.7993 18.2451C41.8393 18.2451 39.8834 18.5344 37.9317 19.1129C35.9803 19.6913 34.1943 20.5593 32.5737 21.7166V43.7446ZM31.4512 47C29.6263 45.7506 27.6661 44.7906 25.5706 44.1201C23.4752 43.4495 21.3193 43.1143 19.103 43.1143C17.9344 43.1143 16.7866 43.2121 15.6596 43.4078C14.5329 43.6035 13.4356 43.9173 12.3677 44.3491C11.5531 44.6742 10.7882 44.5764 10.0732 44.0555C9.35772 43.5347 9 42.8151 9 41.8969V20.1967C9 19.641 9.14612 19.1258 9.43836 18.6509C9.7306 18.1761 10.14 17.8451 10.6664 17.658C11.9847 17.0765 13.3563 16.6548 14.7812 16.3929C16.2061 16.131 17.6467 16 19.103 16C21.3021 16 23.4471 16.3166 25.5381 16.9497C27.6294 17.5832 29.6004 18.5044 31.4512 19.7134C33.3019 18.5044 35.2729 17.5832 37.3642 16.9497C39.4552 16.3166 41.6002 16 43.7993 16C45.2556 16 46.6963 16.131 48.1212 16.3929C49.5461 16.6548 50.9176 17.0765 52.2359 17.658C52.7624 17.8451 53.1717 18.1761 53.464 18.6509C53.7562 19.1258 53.9023 19.641 53.9023 20.1967V41.8969C53.9023 42.8151 53.516 43.5203 52.7433 44.0123C51.9702 44.5044 51.1476 44.5878 50.2753 44.2626C49.2366 43.8596 48.1752 43.5674 47.0912 43.3859C46.0076 43.2048 44.9103 43.1143 43.7993 43.1143C41.583 43.1143 39.4271 43.4495 37.3317 44.1201C35.2362 44.7906 33.2761 45.7506 31.4512 47Z" fill="#C4AE95"/>
</svg>
