<svg width="249" height="13" viewBox="0 0 249 13" fill="none" xmlns="http://www.w3.org/2000/svg">
<path d="M1.69335 4L3.3867 6.06965L1.69335 8.1393L0 6.06965L1.69335 4Z" fill="#633808"/>
<path d="M6.58527 4.75L8.65492 6.2552L6.58527 7.7604L4.51562 6.2552L6.58527 4.75Z" fill="#633808"/>
<rect x="9.2373" y="5.23438" width="90" height="2" fill="#633808"/>
<path d="M104.427 7.14844L105.744 6.01954L104.427 4.89064L103.11 6.01954L104.427 7.14844Z" fill="#633808"/>
<path d="M109.13 7.52734L110.635 6.2103L109.13 4.89325L107.625 6.2103L109.13 7.52734Z" fill="#633808"/>
<path d="M121.172 7.52734L123.806 6.02215L121.172 4.51695L118.538 6.02215L121.172 7.52734Z" fill="#633808"/>
<path d="M129.827 7.52734L132.462 6.02215L129.827 4.51695L127.193 6.02215L129.827 7.52734Z" fill="#633808"/>
<path d="M123.806 2.6341L125.311 5.26819L126.816 2.6341L125.311 0L123.806 2.6341Z" fill="#633808"/>
<path d="M123.806 9.40753L125.311 12.0416L126.816 9.40753L125.311 6.77344L123.806 9.40753Z" fill="#633808"/>
<circle cx="1.5052" cy="1.5052" r="1.5052" transform="matrix(1 0 0 -1 112.894 7.52734)" fill="#633808"/>
<rect width="8.27859" height="1.5052" transform="matrix(1 0 0 -1 121.548 6.77344)" fill="#633808"/>
<rect width="1.5052" height="4.89189" transform="matrix(1 0 0 -1 124.56 7.90234)" fill="#633808"/>
<rect width="3.0104" height="3.0104" transform="matrix(1 0 0 -1 123.806 7.52734)" fill="#633808"/>
<path d="M146.572 4.89062L145.255 6.01952L146.572 7.14842L147.889 6.01952L146.572 4.89062Z" fill="#633808"/>
<path d="M141.869 4.51562L140.364 5.83267L141.869 7.14972L143.374 5.83267L141.869 4.51562Z" fill="#633808"/>
<path d="M129.827 4.51562L127.193 6.02082L129.827 7.52602L132.461 6.02082L129.827 4.51562Z" fill="#633808"/>
<path d="M121.172 4.51562L118.537 6.02082L121.172 7.52602L123.806 6.02082L121.172 4.51562Z" fill="#633808"/>
<path d="M127.193 9.40887L125.688 6.77477L124.183 9.40887L125.688 12.043L127.193 9.40887Z" fill="#633808"/>
<path d="M127.193 2.63543L125.688 0.00133705L124.183 2.63543L125.688 5.26953L127.193 2.63543Z" fill="#633808"/>
<circle cx="0.940749" cy="0.940749" r="0.940749" transform="matrix(-1 0 0 1 216 4.89062)" fill="#633808"/>
<path d="M246.543 3.76562L244.85 5.83527L246.543 7.90492L248.237 5.83527L246.543 3.76562Z" fill="#633808"/>
<path d="M241.652 4.51562L239.582 6.02082L241.652 7.52602L243.721 6.02082L241.652 4.51562Z" fill="#633808"/>
<rect width="90" height="2" transform="matrix(-1 0 0 1 239 5)" fill="#633808"/>
<circle cx="1.5052" cy="1.5052" r="1.5052" transform="matrix(-1 0 0 1 138.105 4.51562)" fill="#633808"/>
<rect width="8.27859" height="1.5052" transform="matrix(-1 0 0 1 129.451 5.26953)" fill="#633808"/>
<rect width="1.5052" height="4.89189" transform="matrix(-1 0 0 1 126.44 4.14062)" fill="#633808"/>
<rect width="3.0104" height="3.0104" transform="matrix(-1 0 0 1 127.193 4.51562)" fill="#633808"/>
</svg>
