<svg width="83" height="467" viewBox="0 0 83 467" fill="none" xmlns="http://www.w3.org/2000/svg">
<g filter="url(#filter0_d_2894_143)">
<path d="M83 459H13C10.2386 459 8 456.761 8 454L8 32C8 14.3269 22.3269 0 40 0H83L83 459Z" fill="#621B14"/>
</g>
<g filter="url(#filter1_d_2894_143)">
<path d="M55.6285 205L60 209.349L39.7431 229.5L60 249.651L55.6285 254L31 229.5L55.6285 205Z" fill="#AD8253"/>
</g>
<g filter="url(#filter2_d_2894_143)">
<path d="M19.0525 397.329C19.1119 397.014 19.1511 396.71 19.1782 396.408C19.1952 395.684 19.5938 394.679 19.7701 394.216C20.1332 393.369 20.6167 392.807 21.1716 392.245C21.3903 392.03 21.6453 391.821 21.9295 391.636C22.2009 391.46 22.4509 391.329 22.6667 391.226C23.8382 390.667 24.698 390.655 25.6459 390.609C26.2719 390.58 26.8866 390.59 27.7827 390.612C27.914 390.616 28.0451 390.622 28.176 390.63C29.7136 390.714 30.5971 392.101 31.0077 392.649C31.7652 393.702 31.6804 394.376 31.9048 394.936C31.9416 395.051 32.046 395.32 32.0929 395.53C32.1447 395.745 32.1735 395.928 32.2009 396.084C32.2038 396.1 32.2066 396.115 32.2094 396.13C32.3727 397.142 32.1068 397.431 31.8686 398.382C31.7788 398.697 31.6284 399.062 31.356 399.445C31.0752 399.837 30.7426 400.109 30.4136 400.314C29.9678 400.596 29.5021 400.815 29.1712 400.994C29.1189 401.024 29.0686 401.063 28.9143 401.097C28.8188 401.114 28.6929 401.128 28.5159 401.05C28.3462 400.974 28.2474 400.835 28.2065 400.749C28.084 400.428 28.1471 400.41 28.1415 400.33C28.1568 400.21 28.1776 400.142 28.1973 400.07C28.2373 399.932 28.2788 399.815 28.3197 399.696C28.4005 399.464 28.4844 399.23 28.53 399.028C28.5392 398.982 28.5475 398.936 28.5548 398.89C28.6107 398.519 28.6012 398.151 28.0959 397.53C28.1716 397.593 28.0808 397.516 28.004 397.499C27.9198 397.472 27.8206 397.45 27.7161 397.431C27.5064 397.393 27.279 397.369 27.0465 397.349C26.5814 397.312 26.0953 397.296 25.6195 397.289C25.1483 397.273 24.7864 397.444 24.4135 397.715C24.0771 397.979 23.8982 398.631 23.7438 398.986C23.7432 398.988 23.7426 398.99 23.742 398.991C23.5292 399.518 23.4279 399.903 23.3663 400.486C23.2794 401.227 23.2006 402.005 23.1356 402.645L23.1325 402.61C23.1474 402.88 23.1717 403.127 23.207 403.345C23.2488 403.623 23.302 403.843 23.2975 404.068C23.296 404.102 23.299 404.142 23.3041 404.182C23.316 404.267 23.3048 404.318 23.2757 404.329C23.2757 404.329 23.2756 404.329 23.2756 404.329C23.2411 404.341 23.1789 404.299 23.1403 404.177C23.1318 404.148 23.1242 404.118 23.1183 404.086C23.046 403.743 22.849 403.248 22.7017 402.681L22.699 402.649C22.6678 402.382 22.6316 402.095 22.5914 401.793C22.5166 401.223 22.4971 400.808 22.5233 400.415C22.5491 399.883 22.7021 399.276 23.0671 398.642C23.2834 398.299 23.316 397.877 23.8889 397.224C23.9293 397.186 23.9727 397.15 24.0184 397.118C24.4223 396.779 25.0784 396.485 25.625 396.481C26.1062 396.449 26.5663 396.42 27.0449 396.414C27.284 396.411 27.528 396.414 27.7918 396.436C27.9244 396.448 28.0614 396.464 28.2205 396.498C28.3011 396.516 28.3855 396.537 28.4909 396.579C28.5954 396.627 28.7304 396.66 28.9245 396.888C29.0854 397.092 29.349 397.359 29.5361 397.795C29.7221 398.231 29.7398 398.707 29.6905 399.122C29.6599 399.383 29.6 399.598 29.5364 399.812C29.4847 399.982 29.435 400.138 29.3978 400.273C29.3795 400.339 29.3639 400.405 29.3597 400.431C29.3537 400.433 29.3727 400.472 29.3454 400.315C29.3296 400.264 29.3212 400.194 29.2111 400.068C29.1145 399.945 28.8666 399.866 28.7652 399.882C28.5393 399.905 28.5385 399.947 28.5058 399.958C29.0388 399.634 29.3882 399.437 29.7399 399.175C30.1534 398.859 30.4005 398.459 30.4378 398.07C30.4943 397.609 30.5379 396.964 30.5308 396.199C30.53 396.07 30.5251 395.948 30.5132 395.839C30.5018 395.726 30.4814 395.644 30.4166 395.392C30.396 395.297 30.3764 395.2 30.3575 395.103C30.2244 394.387 30.0954 393.814 29.9203 393.628C29.1283 392.53 28.5949 392.245 28.0341 392.327C27.4013 392.371 26.6463 392.443 25.9135 392.592C25.4661 392.686 25.0756 392.774 24.6491 392.94C24.3891 393.04 24.1301 393.165 23.867 393.318C23.4634 393.55 23.1564 393.758 22.8373 394.043C22.3572 394.471 21.8648 394.944 21.6805 395.245C21.4417 395.649 21.3015 395.82 21.2128 396.007C21.1212 396.19 21.0549 396.403 21.0084 396.652C20.8324 397.67 20.6822 398.728 20.6941 399.446C20.7178 400.445 20.7181 400.762 20.9563 401.219C20.9768 401.26 20.9983 401.301 21.0216 401.345C21.3416 401.971 21.7267 402.783 21.8523 402.793C22.6192 403.284 23.3993 403.798 24.2245 404.348C24.69 404.665 25.2528 404.94 25.8997 405.402C26.6113 405.931 27.1215 406.508 27.6325 406.957C27.6369 406.96 27.6414 406.964 27.6458 406.968C27.8687 407.176 28.2195 407.377 28.626 407.805C29.1002 408.353 29.1855 408.82 29.3191 409.2C29.4308 409.574 29.5628 409.922 29.6275 409.981C29.9197 410.39 29.9537 410.587 30.0516 410.818C30.1347 411.039 30.2055 411.243 30.2778 411.438C30.4204 411.823 30.5726 412.184 30.7379 412.436C31.2276 413.148 31.3445 414.064 31.3583 414.744C31.3751 415.701 31.4236 416.619 31.2611 417.718C31.1985 418.065 31.1234 418.418 31 418.79C30.9161 419.047 30.7911 419.333 30.6604 419.568C30.4786 419.899 30.2906 420.196 30.1324 420.479C29.7771 421.077 29.5412 421.352 29.2926 421.813C28.9389 422.427 28.7268 423.018 28.6507 423.702C28.5742 424.397 28.4689 425.111 28.5038 425.601C28.603 426.696 28.702 427.713 29.1174 428.007C29.3974 428.216 29.5115 428.349 29.6658 428.44C29.8122 428.532 29.9688 428.588 30.1287 428.623C30.2113 428.641 30.2952 428.653 30.3791 428.661C31.5349 428.759 32.2734 428.715 33.0456 428.649C33.3344 428.627 33.6208 428.561 33.9095 428.427C34.3912 428.222 34.8819 428.136 35.0441 427.651C35.0443 427.65 35.0444 427.65 35.0446 427.649C35.2018 427.237 35.3802 426.815 35.2588 426.507C35.0749 426.041 35.0262 425.537 34.8586 425.152C34.6712 424.694 34.6262 424.28 34.3474 424.169C34.2373 424.122 34.0887 424.094 33.9931 424.106C33.8757 424.128 33.7606 424.153 33.6497 424.186C33.2641 424.289 33.1743 424.433 33.1428 424.365C33.1056 424.277 33.3181 424.004 33.724 423.84C33.7805 423.815 33.837 423.793 33.8933 423.772C34.1185 423.705 34.2861 423.728 34.4696 423.771C34.8014 423.855 34.9992 424.148 35.0991 424.358C35.2055 424.577 35.2709 424.771 35.352 424.912C35.5403 425.259 35.6325 425.576 35.7613 425.782C35.8608 425.947 35.9545 426.082 36.0465 426.206C36.4469 426.981 36.1546 427.628 36.0112 428.044C35.8383 428.649 34.9932 429.139 34.4518 429.191C34.3761 429.206 34.3129 429.22 34.27 429.232C33.8441 429.387 33.4643 429.465 33.1263 429.519C32.3319 429.663 31.7399 429.918 31.061 429.892C30.7881 429.881 30.593 429.848 30.3449 429.808C30.1343 429.777 29.8857 429.739 29.5398 429.612C29.2102 429.515 28.7102 429.126 28.5055 428.959C27.5298 428.289 27.428 427.048 27.1894 425.812C27.164 425.677 27.1508 425.556 27.1409 425.437C27.0913 424.722 27.1365 424.139 27.1476 423.602C27.1645 422.649 27.4566 421.725 27.7802 421.055C28.0164 420.518 28.3934 419.928 28.511 419.673C28.6855 419.299 28.8494 418.993 28.9702 418.727C29.1669 418.309 29.2254 417.877 29.2859 417.418C29.3056 417.244 29.3142 417.033 29.3172 416.836C29.326 416.333 29.3306 415.624 29.3311 414.787C29.3286 414.258 29.3022 413.838 29.0771 413.476C28.7912 412.993 28.6297 412.528 28.4816 412.091C28.4087 411.874 28.3419 411.662 28.2766 411.473C28.2219 411.299 28.1121 411.076 28.1466 411.136C27.5623 410.274 27.5631 409.681 27.3621 409.308C27.3104 409.193 27.2487 409.107 27.2355 409.103C27.1102 408.968 26.8055 408.778 26.413 408.465C25.7984 407.967 25.2591 407.396 24.7344 407.02C24.313 406.72 23.7038 406.412 23.1037 406.011C22.2852 405.465 21.4691 404.92 20.7617 404.467C20.0606 403.976 19.8831 403.478 19.6777 403.129C19.4902 402.769 19.3529 402.488 19.2234 402.27C19.1914 402.214 19.1618 402.16 19.1325 402.106C18.8148 401.544 18.669 400.884 18.6544 400.479C18.6324 400.068 18.6525 399.836 18.6648 399.605C18.6995 398.854 18.8613 398.393 19.0525 397.329Z" fill="#A5845B"/>
<path d="M10.6746 413.024C10.6692 412.608 10.4175 412.028 10.4544 411.334C10.5258 410.328 10.632 409.564 11.0208 408.636C11.1133 408.426 11.2304 408.227 11.3649 408.047C11.8297 407.44 12.2228 407.191 12.5066 406.988C12.9947 406.631 13.4128 406.422 14.0197 406.142C14.3686 405.986 14.7571 405.84 15.2139 405.662C15.2552 405.645 15.3002 405.627 15.3501 405.606C16.27 405.202 17.2736 405.209 18.0517 405.231C18.3523 405.237 18.7208 405.294 19.0411 405.455C19.3614 405.614 19.5535 405.798 19.7037 405.922C20.0131 406.17 20.2511 406.544 20.365 406.817C20.4938 407.11 20.5361 407.402 20.545 407.638C20.5504 408.055 20.4567 408.306 20.2491 408.596C19.8463 409.063 19.476 409.064 19.0573 409.39C18.9671 409.457 18.8648 409.561 18.75 409.708C18.5961 409.905 18.4405 410.101 18.2823 410.279C17.9232 410.709 17.5975 411.169 17.3751 411.601C17.2952 411.786 17.2132 411.951 17.1346 412.129C17.0558 412.306 16.967 412.559 16.8845 412.872C16.7451 413.407 16.7302 414.248 16.7478 415.046C16.7491 415.783 16.992 416.336 17.4273 416.759C17.6176 416.977 17.7725 417.17 17.903 417.311C18.1223 417.549 18.3071 417.792 18.4981 418.01C18.9988 418.55 19.5703 419.202 19.9541 419.699L19.9317 419.681C20.0178 419.762 20.1017 419.836 20.1821 419.896C20.3348 420.012 20.4637 420.097 20.5837 420.16C20.6135 420.175 20.6537 420.188 20.6931 420.2C20.7579 420.217 20.7908 420.248 20.7899 420.279C20.7899 420.279 20.7899 420.279 20.7899 420.279C20.7888 420.316 20.7411 420.355 20.6448 420.353C20.6101 420.352 20.5731 420.349 20.5343 420.342C20.2842 420.283 20.007 420.148 19.7117 419.984L19.6925 419.968C19.4781 419.806 19.233 419.639 18.961 419.47C18.4377 419.143 18.146 418.907 17.8652 418.585C17.5474 418.222 17.3519 417.771 16.8729 417.196C16.7912 417.101 16.6861 416.99 16.5726 416.85C16.1122 416.287 15.9684 415.629 15.8924 415.083C15.7994 414.335 15.6686 413.675 15.8098 412.674C15.8847 412.244 16.0387 411.714 16.2339 411.254C16.2343 411.253 16.2348 411.252 16.2352 411.25C16.6173 410.36 16.9314 409.904 17.3183 409.362C17.5547 409.047 17.7125 408.723 18.1341 408.293C18.406 408.021 18.7595 407.736 18.8192 407.638C18.7973 407.683 18.8504 407.587 18.8601 407.552C18.8757 407.506 18.8881 407.475 18.8889 407.423C18.8659 407.325 18.8495 407.259 18.8149 407.187C18.8004 407.157 18.7804 407.126 18.7527 407.093C18.3932 406.727 18.3805 406.72 18.055 406.696C16.9963 406.692 16.4916 406.883 15.8061 407.327C15.5156 407.496 15.212 407.675 14.9419 407.874C14.7099 408.049 14.428 408.284 14.1588 408.569C14.1479 408.58 14.1373 408.592 14.1266 408.603C13.7003 409.045 13.3957 409.37 13.2547 409.662C12.9267 410.342 12.5416 411.181 12.4074 411.655C12.3777 411.768 12.3645 411.852 12.3806 412.033C12.3962 412.209 12.4466 412.471 12.479 412.753C12.532 413.433 12.4605 413.611 12.4865 413.896C12.5006 414.156 12.5515 414.399 12.6293 414.634C12.7523 415 12.903 415.328 13.0503 415.614C13.1559 415.822 13.2711 416.023 13.4053 416.332C13.5929 416.757 13.9245 417.328 14.2441 417.741C14.5644 418.156 14.7732 418.373 15.1609 418.65C15.3575 418.789 15.5471 418.931 15.7183 419.051C15.8032 419.111 15.8848 419.166 15.946 419.202C15.9989 419.239 16.0716 419.251 15.937 419.222C16.3295 419.3 16.4954 419.368 16.7178 419.418C16.9308 419.47 17.15 419.512 17.3802 419.548C17.5718 419.578 17.773 419.601 17.9818 419.617C19.0316 419.693 20.2253 419.725 21.3175 419.664C21.7984 419.626 22.1607 419.604 22.63 419.485C22.7375 419.471 23.2822 419.227 23.7974 419.146C24.5536 419.037 25.1013 418.996 25.7049 418.902C25.7759 418.893 25.8451 418.881 25.9122 418.866C26.0618 418.832 26.2086 418.779 26.3295 418.711C26.3688 418.717 26.6128 418.456 26.7219 418.239C26.849 418.007 26.9352 417.738 26.9694 417.449C27.0391 416.75 27.115 416.018 27.1274 415.394C27.1296 415.033 27.114 414.687 27.0676 414.618C26.9184 414.36 26.8454 414.149 26.7698 413.997C26.695 413.831 26.6421 413.821 26.727 413.833C26.1106 413.718 25.5252 413.67 25.0777 413.637C24.6585 413.607 24.2377 413.598 24.0437 413.626C23.585 413.748 23.2598 413.886 23.0849 414.157C22.8806 414.501 22.7809 415.093 22.9137 415.79C22.9177 415.807 22.9219 415.825 22.9262 415.842C23.0783 416.433 23.2632 417.38 23.6656 417.648C24.064 417.822 24.5645 417.883 25.0262 417.929C25.6526 417.971 25.5443 418.127 24.8931 418.231C24.3861 418.3 23.9085 418.272 23.4896 418.147C23.006 417.954 22.8739 417.627 22.6827 417.442C22.2303 416.923 22.0273 416.524 21.9021 416.047C21.8089 415.635 21.8208 415.217 21.9796 414.669C22.0879 414.322 22.1751 414.023 22.3565 413.699C22.8085 412.986 23.3167 412.748 23.669 412.546C23.9944 412.431 24.0876 412.436 24.2576 412.426C24.8925 412.444 24.9666 412.535 26.8717 412.665C27.3908 412.728 27.6707 413.123 27.8079 413.337C27.9557 413.571 28.059 413.788 28.154 413.909C28.3269 414.145 28.4202 414.474 28.4587 414.692C28.5025 414.928 28.5237 415.121 28.5454 415.312C28.6227 416.19 28.6123 416.876 28.6174 417.522C28.5747 418.648 28.2618 419.505 27.3991 420.245C26.9479 420.572 26.5036 420.732 26.0965 420.827C25.7259 420.915 25.3933 420.979 25.0941 421.032C24.8188 421.083 24.4375 421.123 24.1474 421.161C23.8868 421.188 23.7191 421.294 22.9928 421.456C22.5414 421.553 21.9135 421.582 21.4133 421.592C20.4036 421.604 19.4578 421.548 18.5755 421.543C18.3591 421.541 18.1234 421.535 17.8677 421.525C17.5247 421.511 17.1478 421.484 16.7396 421.423C16.3574 421.374 15.8057 421.222 15.6149 421.187C15.2559 421.118 15.1114 421.018 14.9589 420.938C14.8142 420.855 14.6979 420.778 14.5877 420.702C14.3692 420.552 14.1788 420.411 13.9929 420.279C13.4804 419.936 12.9493 419.36 12.6545 418.956C12.1381 418.26 11.828 417.694 11.5466 417.082C11.4718 416.927 11.341 416.699 11.2362 416.521C10.9707 416.071 10.7985 415.692 10.6955 415.373C10.5506 414.927 10.5268 414.577 10.5401 414.199C10.5482 413.85 10.6432 413.313 10.6753 413.046C10.6751 413.039 10.6749 413.031 10.6746 413.024Z" fill="#A5845B"/>
<path d="M23.8877 430.499C23.8817 430.642 23.9645 430.761 24.0899 430.923C24.3324 431.146 24.7256 431.166 24.9125 431.544C25.0636 431.84 25.1012 432.101 25.1692 432.37C25.1233 432.453 25.1116 432.558 25.4173 432.675C25.5749 432.735 25.75 432.818 25.9181 432.91C26.3217 433.137 26.7744 433.376 27.035 433.314C27.3758 433.226 27.3262 433.7 27.7993 433.665C27.8032 433.665 27.8072 433.665 27.8112 433.664C28.2866 433.609 28.551 433.678 28.9627 433.809C29.073 433.85 29.3446 433.865 29.4536 433.862C29.9983 433.703 30.7137 433.356 30.8361 433.079C30.8468 433.052 30.8564 433.027 30.8524 433.018L30.9798 432.923C31.2084 432.717 31.6128 432.621 31.9105 432.501L31.9213 432.492C31.997 432.463 32.0634 432.444 32.1129 432.425C32.2062 432.39 32.2846 432.365 32.3543 432.348C32.3836 432.341 32.4137 432.354 32.435 432.376C32.435 432.376 32.435 432.376 32.435 432.376C32.4613 432.404 32.473 432.445 32.4497 432.473C32.3838 432.56 32.2525 432.685 32.1718 432.815L32.1811 432.807C32.1314 432.893 32.0792 432.989 32.024 433.096C31.821 433.475 31.6325 433.52 31.3257 433.646L31.4431 433.559C31.268 433.719 31.1208 433.803 30.9124 433.979C30.5217 434.298 30.2533 434.574 29.8809 434.798C29.5851 434.929 29.4837 434.928 29.3053 434.952C29.1404 434.967 28.9703 434.962 28.7874 434.936C28.296 434.861 28.0045 434.976 27.6365 435.043C27.2839 435.104 26.8589 435.12 26.255 434.746C25.8425 434.485 25.5484 434.363 25.2531 434.287C25.0347 434.236 24.8256 434.245 24.5579 434.211C24.3059 434.173 23.8904 434.108 23.4438 433.602C23.3939 433.556 23.3406 433.502 23.2831 433.438C22.9398 433.06 22.4556 432.366 22.2633 431.568C22.2162 431.325 22.0745 430.794 22.0647 430.428C22.0416 430.045 22.0616 429.74 22.0575 429.504C22.0572 429.489 22.0568 429.474 22.0563 429.459C22.0277 428.744 21.9973 427.757 22.1679 426.788C22.1779 426.734 22.1877 426.675 22.1976 426.612C22.2432 426.346 22.2243 425.991 22.3025 425.51C22.3688 425.033 22.6624 424.421 23.0736 424.061C23.4848 423.675 23.8833 423.363 24.2627 423.118C24.4005 423.03 24.542 422.933 24.6516 422.85C25.1857 422.357 25.5996 422.359 25.7649 422.268C26.3386 421.981 26.8965 421.466 27.2227 421.186C27.5099 420.935 27.6819 420.768 27.8259 420.585C27.9662 420.405 28.0779 420.21 28.2149 419.88C28.3764 419.5 28.6471 419.02 29.0219 418.633C29.2224 418.442 29.3062 418.567 29.2683 418.806C29.2128 419.173 29.0306 419.43 29.0957 419.677C29.2231 420.174 29.2462 420.409 28.8142 420.736C28.6673 420.846 28.597 420.964 28.5581 421.086C28.4858 421.317 28.5367 421.561 28.3944 421.697C28.1561 421.898 28.0504 421.754 27.129 422.997C26.9826 423.177 26.8307 423.343 26.6655 423.493C26.1567 423.89 25.9313 424.022 26.016 424.02C25.6467 424.503 25.3939 424.724 25.1893 424.937C25.0096 425.12 24.6909 425.329 24.388 425.546C24.2085 425.65 24.1072 425.757 24.1254 426.183C24.1336 426.357 24.1472 426.615 24.1239 426.966C24.0478 427.865 23.9814 428.947 24.0844 429.47C24.0874 429.486 24.0901 429.501 24.0927 429.516C24.2187 430.048 23.93 430.035 23.8877 430.499Z" fill="#A5845B"/>
<path d="M41.6982 439.508C41.71 439.515 41.7219 439.521 41.734 439.527C42.1503 439.744 42.7028 439.034 43.4668 439.098C43.7605 439.12 43.9766 439.182 44.1867 439.25C44.4309 439.371 44.6861 439.503 45.0509 439.291C45.2104 439.194 45.287 439.132 45.617 438.945C46.1065 438.697 46.6932 438.394 46.8954 438.129C46.9496 438.057 47.0055 438.012 47.0634 437.985C47.2867 437.885 47.5185 438.067 47.9338 437.712C48.0309 437.633 48.1333 437.564 48.2367 437.508C48.5284 437.328 48.8829 437.173 49.3732 437.11C49.4333 437.102 49.5047 437.09 49.5857 437.077C49.9973 437.024 50.6604 436.84 51.2863 436.757C51.6789 436.709 52.0086 436.709 52.226 436.661C52.6028 436.585 52.9724 436.7 53.3266 436.907L53.4218 436.958C53.5441 437.134 53.6759 437.297 53.8034 437.388C53.8207 437.401 53.8374 437.413 53.8535 437.425C53.934 437.481 53.995 437.537 54.0409 437.587C54.0647 437.613 54.0663 437.647 54.0545 437.675C54.0544 437.675 54.0544 437.675 54.0544 437.675C54.0397 437.71 54.0041 437.736 53.9646 437.725C53.9041 437.707 53.8334 437.69 53.753 437.675C53.5668 437.638 53.3365 437.581 53.0663 437.497C53.0499 437.492 53.0338 437.486 53.0183 437.481L53.1103 437.531C52.561 437.626 52.4708 437.326 51.6716 437.433C51.5639 437.453 51.4653 437.48 51.3818 437.512C50.9118 437.689 50.5627 437.961 49.9607 438.135C49.8494 438.167 49.7276 438.2 49.5853 438.239C49.2542 438.33 49.0563 438.521 48.7902 438.726C48.6153 438.908 48.4728 439.172 48.0001 439.442C47.8378 439.531 47.6414 439.619 47.387 439.706C46.9258 439.865 46.6287 440.061 46.3601 440.268C46.056 440.591 45.5019 441.397 44.2469 441.504C44.2355 441.506 44.2236 441.507 44.2113 441.508C43.415 441.575 42.4783 441.638 41.2668 441.288C40.6014 441.037 40.052 440.73 39.6698 440.557C39.2852 440.386 38.8537 440.161 38.4401 439.916C37.7788 439.522 37.1522 438.943 36.7226 438.158C36.6924 438.102 36.662 438.045 36.6307 437.982C36.6151 437.924 36.2177 437.363 36.1449 436.885C36.0447 436.393 36.0803 435.953 36.1449 435.555C36.2675 434.906 36.2431 434.157 36.6975 433.278C36.7439 433.193 36.7942 433.109 36.8479 433.027C37.1327 432.639 37.5785 431.573 38.6259 431.21C39.6726 430.946 40.3804 431.203 40.8523 431.356C40.8998 431.373 40.9432 431.39 40.9866 431.408C41.3254 431.546 41.5567 431.649 41.7839 431.741C41.8975 431.787 42.0101 431.831 42.1366 431.884C42.2652 431.95 42.3962 431.956 42.6035 432.188C42.6482 432.243 42.7119 432.311 42.78 432.414C42.8646 432.538 42.9326 432.739 42.9185 432.93C42.9063 433.152 42.878 433.392 42.8104 433.642C42.737 433.876 42.6501 434.207 42.3234 434.325C42.2987 434.331 42.2757 434.335 42.2546 434.335C42.074 434.329 42.1254 434.232 42.1175 434.212C42.1221 434.181 42.1355 434.161 42.154 434.15C42.1725 434.14 42.1978 434.141 42.2246 434.145C42.2396 434.16 42.3231 434.119 42.1729 434.107C42.1858 434.088 42.1948 434.07 42.2031 434.05C42.2773 433.834 42.34 433.417 42.1949 433.208C42.1099 433.081 42.0382 432.974 41.9849 432.875C41.8421 432.842 41.9161 433.054 41.7761 432.745C41.8784 432.854 41.8858 432.799 41.8671 432.759C41.7753 432.596 41.5394 432.582 41.3743 432.615C41.1991 432.646 41.0442 432.706 40.904 432.644C40.8329 432.613 40.7843 432.575 40.7244 432.531C40.5918 432.435 40.2489 432.143 39.3201 432.446C39.2592 432.472 39.1957 432.505 39.1885 432.52C39.0517 432.635 38.9307 432.845 38.8307 433.087C38.724 433.338 38.6758 433.552 38.5253 433.902C38.4474 434.107 38.4189 434.268 38.3952 434.444C38.3575 434.705 38.2251 435.288 38.0511 435.936C37.9429 436.296 37.9465 436.569 38.0538 436.678C38.0933 436.735 38.1404 436.769 38.3144 437.049C38.5457 437.424 39.0265 437.949 39.5078 438.223C39.9401 438.485 40.3021 438.664 40.5604 438.735C41.2703 438.915 41.1522 439.174 41.6982 439.508Z" fill="#A5845B"/>
<path d="M75.6526 441.564C75.6693 441.698 75.6929 441.827 75.7227 441.952C75.8171 442.355 75.9289 442.759 75.948 443.253C75.9571 443.497 75.9322 443.77 75.8715 444.025C75.816 444.271 75.7131 444.534 75.755 444.542C75.5785 445.237 75.3465 445.643 75.1568 446.059C75.0979 446.18 75.0329 446.301 74.9608 446.423C74.7498 446.781 74.552 447.06 74.3679 447.295C73.3727 448.476 72.598 448.264 71.8667 448.622C71.6336 448.733 71.3703 448.865 71.0671 449.019C70.7934 449.158 70.5259 449.278 70.2719 449.395C69.5909 449.646 69.3217 449.566 68.9678 449.598C68.6361 449.608 68.3324 449.616 68.043 449.633C67.0425 449.698 66.2214 449.609 65.6736 449.605C65.534 449.6 65.458 449.603 65.2517 449.546C64.7843 449.406 64.6342 449.196 63.8028 448.817C63.6752 448.746 63.5267 448.674 63.3524 448.602C62.9772 448.448 62.668 448.319 62.3703 448.193C61.86 447.978 61.4956 447.679 61.1694 447.468C60.9024 447.309 60.65 447.078 60.4669 446.797C60.2873 446.544 60.1271 446.123 59.9727 445.812C59.7422 445.394 59.4079 444.934 59.0723 444.403C58.7361 443.859 58.3421 443.284 58.0308 442.782C57.7528 442.342 57.5212 441.958 57.3295 441.722C57.2328 441.602 57.1414 441.48 57.0522 441.365C56.7647 440.989 56.5526 440.615 56.2996 440.443L56.32 440.452C55.6758 440.083 55.2652 439.6 54.9724 439.223C54.8736 439.093 54.7996 438.967 54.7491 438.85C54.7206 438.774 54.6841 438.708 54.6487 438.647C54.6137 438.588 54.6126 438.543 54.6348 438.522C54.6348 438.522 54.6348 438.522 54.6348 438.522C54.6621 438.496 54.7236 438.503 54.7899 438.57C54.8365 438.617 54.8862 438.673 54.9315 438.74C55.1634 439.059 55.6264 439.402 56.2088 439.619C56.3652 439.676 56.503 439.721 56.6204 439.753L56.6409 439.763C57.3347 440.084 57.4661 440.505 57.7329 440.904C57.9592 441.266 58.1669 441.712 58.5796 442.318C58.6017 442.35 58.6238 442.381 58.6459 442.413C59.0481 442.991 59.4352 443.41 59.8312 443.915C60.1334 444.283 60.5139 444.691 60.8734 445.224C61.2181 445.79 61.295 446.086 61.6099 446.33C61.6389 446.352 61.669 446.373 61.7009 446.392C62.2378 446.703 62.55 446.908 62.888 447.003C63.4237 447.177 63.9217 447.335 64.4506 447.542C64.6527 447.601 65.1355 447.68 65.7785 447.899C65.7798 447.909 66.0353 447.969 66.2076 448.004C66.3994 448.043 66.6102 448.081 66.8395 448.118C67.2283 448.179 67.58 448.193 67.8946 448.178C68.3191 448.155 68.6829 448.133 68.9976 448.095C69.2933 448.063 69.6335 447.978 69.6031 447.929C70.0916 447.616 70.492 447.325 71.0115 446.951C71.3288 446.753 71.5667 446.638 71.8003 446.504C72.0264 446.378 72.2423 446.233 72.3144 446.147C72.3401 446.118 72.3425 446.104 72.3342 446.113C72.5414 445.741 72.7475 445.36 72.9535 444.963C73.2165 444.442 73.5708 443.955 73.6584 443.747C73.8156 443.388 73.8735 443.335 73.9077 443.259C73.9414 443.193 73.9619 443.142 73.9783 443.062C74.0112 442.905 74.0015 442.656 73.9536 442.393C73.8543 441.887 73.774 441.395 73.6902 440.997C73.576 440.407 73.5328 440.029 73.5577 440.114C73.2826 439.684 73.1455 439.351 73.0202 439.164C72.989 439.115 72.9589 439.071 72.9305 439.035C72.739 438.764 72.5102 438.62 72.5199 438.652C71.8742 438.501 71.6153 438.422 71.1353 438.417C70.8002 438.41 70.4578 438.408 70.1189 438.413C69.9495 438.416 69.7805 438.421 69.6218 438.431C69.4772 438.437 69.2686 438.467 69.2953 438.462C68.9235 438.571 68.3945 438.837 67.8962 439.102C67.8444 439.13 67.7938 439.157 67.7449 439.183C67.4769 439.324 67.2639 439.471 67.2093 439.546C67.2453 439.499 67.2881 439.436 67.3273 439.342C67.375 439.226 67.4141 439.069 67.3873 438.869C67.3118 438.439 67.0726 438.302 67.0004 438.244C66.8223 438.135 66.8022 438.152 66.7773 438.14C66.7402 438.131 66.7657 438.138 66.7893 438.141C66.8424 438.148 66.9242 438.156 67.0068 438.163C67.1746 438.177 67.3586 438.189 67.545 438.203C67.9187 438.232 68.3052 438.267 68.6969 438.317C68.851 438.337 69.0038 438.356 69.1934 438.39C69.2902 438.408 69.3946 438.427 69.5499 438.479C69.6936 438.527 69.9753 438.653 70.1762 438.91C70.4662 439.288 70.5488 439.601 70.6107 439.933C70.6154 440.097 70.8722 440.465 70.85 441.265C70.7914 441.662 70.9167 442.212 70.4119 443.037C70.3676 443.099 70.3308 443.166 70.2632 443.339C70.1953 443.5 70.0929 443.825 69.8115 444.142C69.6694 444.291 69.5415 444.454 69.3487 444.681C69.1964 444.86 68.9803 445.085 68.7334 445.259C68.2542 445.587 67.6812 445.972 66.8718 446.113C65.7202 446.222 64.7797 446.122 63.7924 445.991C63.0238 445.891 62.4302 445.529 61.9679 445.331C61.4883 445.123 61.0187 444.905 60.6291 444.643C60.3832 444.478 60.1244 444.311 59.9185 444.151C59.3314 443.7 58.98 443.271 58.7099 442.881C58.3197 442.316 57.9656 441.88 57.3862 441.206C57.2747 441.076 57.1588 440.936 57.0356 440.784C56.5933 440.234 56.148 439.572 55.5213 439.043C55.1647 438.733 54.786 438.444 54.3921 438.233C54.122 438.09 53.9975 438.051 54.0351 437.995C54.0745 437.939 54.3089 437.909 54.6351 438.008C55.1266 438.155 55.5132 438.405 55.8368 438.624C56.1442 438.834 56.3927 439.031 56.6242 439.157C57.4217 439.606 57.7566 439.94 58.1706 440.584C58.2594 440.72 58.3514 440.874 58.4505 441.05C58.7959 441.665 59.1729 441.977 59.5147 442.268C59.7331 442.436 59.9349 442.551 60.1049 442.733C60.3787 443.001 60.349 443.163 61.1937 443.672C61.4465 443.834 61.8143 443.997 62.3875 444.184C62.7712 444.308 63.1696 444.48 63.5442 444.547C63.674 444.57 63.7964 444.581 63.9184 444.583C64.9535 444.615 65.9525 444.55 66.5385 444.428C66.8646 444.336 67.2471 444.061 67.5787 443.777C67.7523 443.638 67.9766 443.226 68.2999 442.835C68.2665 442.869 68.2905 442.835 68.3379 442.683C68.3912 442.524 68.4974 442.202 68.7222 441.879C68.7036 441.973 68.8011 441.636 68.8425 441.102C68.8815 441.147 68.7816 440.829 68.6744 440.231C68.6749 440.156 68.6281 440.06 68.6651 440.108C68.7683 440.237 68.9067 440.29 68.9081 440.286C68.9206 440.288 68.8767 440.273 68.8253 440.262C68.7181 440.237 68.5722 440.212 68.4278 440.189C67.8396 440.092 67.2959 440.059 66.6568 440.024C66.5886 440.019 66.5193 440.014 66.4078 439.995C66.346 439.983 66.2907 439.979 66.1383 439.921C66.0503 439.869 65.9443 439.892 65.6742 439.556C65.5481 439.406 65.4556 439.012 65.518 438.798C65.577 438.547 65.6477 438.47 65.7106 438.38C66.0982 437.879 66.5547 437.64 66.9209 437.415C67.4313 437.122 67.9476 436.802 68.7235 436.548C69.8607 436.323 70.4268 436.419 71.1999 436.415C71.8466 436.409 72.6346 436.635 72.9483 436.701C73.9494 436.959 74.2898 437.55 74.5646 437.851C74.636 437.942 74.6955 438.025 74.7476 438.101C75.0587 438.57 75.1666 438.789 75.2637 438.94C75.5902 439.467 75.5675 439.782 75.5861 439.994C75.5915 440.209 75.5728 440.352 75.5647 440.484C75.5868 440.789 75.5966 441.113 75.6526 441.564Z" fill="#A5845B"/>
<path d="M55.4425 455.842C55.7017 455.842 55.9519 455.798 56.2041 455.728C56.7982 455.565 57.2183 455.19 57.8027 454.77C58.0536 454.548 58.3342 454.246 58.7038 453.876C58.9426 453.635 59.1418 453.417 59.3045 453.238C59.5577 452.969 59.7519 452.718 59.871 452.385C60.0221 451.829 60.2208 451.35 60.2443 450.649C60.2503 450.378 60.2328 450.129 60.1846 449.925C60.1478 449.77 60.103 449.657 60.0316 449.539C59.9632 449.408 59.8309 449.32 59.5955 448.898C59.6468 448.999 59.7603 449.06 59.7511 449.048C59.7495 449.041 59.679 449.014 59.5914 448.988C59.4122 448.935 59.1627 448.867 58.9277 448.762C58.9006 448.66 58.4048 448.875 58.2304 449.133C57.9216 449.533 57.6605 449.612 57.2971 449.888C56.9114 450.231 56.549 450.333 56.0322 450.552C55.7075 450.68 55.409 450.762 55.119 450.818C54.5913 450.924 54.25 451.086 53.6078 451.332C53.328 451.427 53.0517 451.472 52.7683 451.502C52.695 451.51 52.614 451.518 52.5269 451.527C51.7792 451.582 50.7733 451.634 49.546 451.273C49.0261 451.027 48.5359 450.683 48.1724 450.274C47.8224 449.893 47.2252 449.659 46.9041 449.367C46.8549 449.329 46.8079 449.288 46.7616 449.245C46.3799 448.914 46.0494 448.323 45.9762 447.824L46.0007 447.889C45.7954 447.375 45.7388 446.867 45.7022 446.434L45.6967 446.389C45.7261 446.109 45.7617 445.863 45.7821 445.648C45.8099 445.363 45.8475 445.14 45.8852 444.97C45.9012 444.897 45.9327 444.864 45.9632 444.865C45.9632 444.865 45.9633 444.865 45.9633 444.865C46.0012 444.866 46.0377 444.918 46.0408 445.012C46.054 445.354 46.0793 445.832 46.1682 446.376L46.1634 446.335C46.2243 446.5 46.2942 446.67 46.3763 446.839C46.5194 447.132 46.6355 447.346 46.7409 447.533L46.7654 447.597C46.9215 448.058 46.9992 448.296 47.3491 448.727C47.5489 448.981 47.8154 449.138 48.385 449.506C48.5044 449.592 48.6197 449.689 48.7229 449.794C49.0786 450.132 49.4892 450.328 49.9082 450.469C50.4141 450.528 51.4477 450.529 52.2964 450.415C52.5463 450.372 52.7959 450.329 53.0259 450.266C53.0621 450.256 53.0965 450.245 53.1291 450.234C53.68 449.997 54.3266 449.653 54.9044 449.513C55.1658 449.434 55.4178 449.329 55.6544 449.209C55.772 449.15 55.8869 449.085 55.9819 449.021C56.073 448.963 56.1588 448.871 56.1108 448.905C56.5507 448.417 56.9382 447.616 58.4979 447.244C58.8284 447.198 59.2036 447.247 59.4979 447.392C59.6308 447.471 59.7937 447.523 60.018 447.591C60.1309 447.627 60.2632 447.665 60.4294 447.753C60.5928 447.836 60.8001 448.014 60.9034 448.226C60.9087 448.257 61.1657 448.513 61.3376 448.759C61.5194 449.014 61.6519 449.293 61.7443 449.558C62.1041 450.569 62.0055 451.669 61.9007 452.69C61.8625 453.105 61.7552 453.545 61.5546 453.993C61.4797 454.16 61.3939 454.324 61.2964 454.484C60.7271 455.381 60.0199 456.256 58.8014 456.841C58.159 457.129 57.3432 457.446 56.5621 457.551C55.7201 457.681 54.7973 457.74 53.9513 457.578C53.2218 457.438 52.6232 457.234 52.1332 457.067C52.0698 457.045 51.9975 457.025 51.9203 457.006C51.4175 456.899 50.5112 456.664 49.8285 456.176C49.1222 455.687 48.3255 455.13 47.6826 454.132C47.5058 453.844 47.2551 453.499 47.0301 453.068C46.851 452.711 46.5928 452.37 46.3055 451.759C46.2366 451.6 46.1796 451.444 46.1303 451.295C45.9605 450.767 45.8453 450.342 45.6723 450.109C45.2995 449.569 45.1314 449.043 44.9591 448.656C44.6981 448.077 44.66 447.453 44.5737 447.155C44.3078 446.377 44.1961 445.129 44.3926 444.199C44.4837 443.67 44.678 443.191 44.8317 442.819C44.9989 442.423 45.122 442.054 45.3704 441.549C45.4321 441.432 45.5 441.301 45.6346 441.13C45.9336 440.782 46.2475 440.447 46.7168 440.122C47.2885 439.775 47.7474 439.299 48.7405 438.925C49.5234 438.718 50.2405 438.758 50.9288 438.931C51.5879 439.145 52.211 439.132 52.9914 439.762C53.3913 440.2 53.445 440.593 53.5756 440.809C53.818 441.272 53.9162 441.646 53.9848 442.014C53.9959 442.08 54.005 442.146 54.0115 442.213C54.0762 442.987 54.0977 443.741 53.5176 444.201C53.0661 444.491 52.8419 445.016 51.9237 445.307C51.7086 445.344 51.4739 445.382 51.2082 445.413C51.022 445.434 50.8225 445.449 50.6045 445.444C50.3821 445.425 50.1641 445.454 49.8331 445.244C49.505 444.99 48.8974 444.654 48.7637 444.005C48.6699 443.512 48.6878 443.049 48.7594 442.61C48.8195 442.267 48.929 442.155 48.9675 442.207C49.0091 442.256 49.0184 442.446 49.0528 442.768C49.0975 443.18 49.1541 443.569 49.2497 443.868C49.3605 444.2 49.6516 444.372 49.9226 444.45C50.0588 444.487 50.1932 444.525 50.3291 444.578C50.2957 444.503 50.4199 444.507 50.5192 444.477C50.6257 444.452 50.7434 444.428 50.8679 444.407C51.1191 444.366 51.4042 444.343 51.7893 444.334C51.7866 444.351 51.8499 444.355 51.9451 444.325C52.3479 444.179 52.6163 443.797 52.9401 443.454C52.8973 443.397 52.8473 443.221 52.8567 442.921C52.8637 442.745 52.8818 442.611 52.8842 442.392C52.9029 442.238 52.8584 441.855 52.6167 441.413C52.415 441.083 52.2783 440.714 52.1582 440.636C52.1369 440.598 51.6188 440.444 51.0666 440.371C50.9244 440.348 50.782 440.327 50.6398 440.305C50.1181 440.227 49.5815 440.302 49.2464 440.437C48.8964 440.612 48.2758 441.183 47.7811 441.572C47.5654 441.753 47.3282 442.04 47.1537 442.289C47.1709 442.264 47.0366 442.596 46.9676 442.824C46.8868 443.073 46.8067 443.318 46.7267 443.547C46.7238 443.556 46.7209 443.564 46.718 443.572C46.605 443.899 46.4725 444.218 46.403 444.554C46.2723 445.225 46.2119 445.79 46.4541 446.714C46.5711 447.318 46.5706 447.655 46.6917 447.925C46.8906 448.428 47.04 448.813 47.2095 449.023C47.2383 449.062 47.2658 449.101 47.2923 449.14C47.7139 449.76 47.8588 450.485 48.0841 450.941C48.2035 451.19 48.516 451.625 48.7902 452.128C48.9359 452.403 49.1506 452.699 49.3879 453.077C49.7236 453.615 50.3696 454.134 50.9716 454.537C51.4725 454.873 51.8784 454.937 52.4319 455.043C52.5482 455.066 52.6703 455.095 52.7942 455.132C53.5536 455.339 53.8944 455.458 54.2457 455.601C54.517 455.713 54.8255 455.839 55.4425 455.842Z" fill="#A5845B"/>
<path d="M37.9718 443.802C37.9865 443.807 38.0011 443.811 38.0157 443.814C38.2721 443.873 38.4991 443.721 38.7094 443.555C38.9315 443.387 39.0827 443.212 39.4679 443.188C39.5356 443.184 39.6061 443.182 39.6788 443.184C39.5705 443.239 39.6634 443.268 39.7313 443.284C39.8078 443.3 39.9 443.306 39.9967 443.301C40.1932 443.289 40.4094 443.225 40.7213 442.995C40.83 442.915 40.9461 442.843 41.0662 442.779C41.3983 442.601 41.8128 442.405 42.1919 442.249C42.3922 442.166 42.5608 442.103 42.6747 442.025C43.012 441.803 43.1652 442.111 43.4456 442.098C43.4701 442.101 43.4974 442.092 43.5264 442.06C43.6505 441.931 43.8455 441.729 44.2478 441.59C44.2901 441.6 44.3674 441.593 44.4943 441.541C44.6278 441.492 44.8983 441.298 45.2353 441.198C45.7728 441.055 46.4082 440.705 46.6692 440.447C46.7421 440.371 46.827 440.312 46.9184 440.267L46.9328 440.26C47.2672 440.11 47.703 440.106 47.9447 439.98L47.954 439.972C47.9554 439.971 47.9567 439.971 47.9581 439.97C48.0714 439.916 48.1791 439.905 48.2521 439.914C48.2837 439.918 48.3061 439.943 48.317 439.971C48.317 439.971 48.317 439.971 48.317 439.971C48.3306 440.007 48.325 440.048 48.2961 440.065C48.2393 440.098 48.1839 440.143 48.1329 440.212C48.054 440.329 47.9482 440.476 47.8246 440.647C47.6215 440.924 47.4497 440.986 47.2541 441.042L47.2674 441.036C47.103 441.087 46.9103 441.138 46.623 441.359C46.2721 441.632 45.9988 441.92 45.6317 442.131C45.4866 442.231 45.4838 442.267 45.0041 442.566C44.9356 442.603 44.8634 442.639 44.7907 442.67C44.5417 442.731 44.4461 443.233 43.7372 443.505C43.4048 443.641 43.1746 443.663 42.8195 443.646C42.8186 443.646 42.8178 443.646 42.817 443.646C42.3648 443.665 42.0711 443.926 41.8327 444.179C41.5546 444.49 41.5227 444.856 40.7479 445.332C40.5846 445.418 40.4067 445.522 40.0249 445.586C39.5962 445.679 38.6138 445.74 38.0052 445.635C37.4329 445.558 36.9371 445.457 36.5966 445.442C36.1857 445.426 35.665 445.393 35.1824 445.334C34.885 445.301 34.5323 445.226 34.2049 445.092C33.9803 444.999 33.7448 444.889 33.5094 444.748C33.0829 444.496 32.579 444.185 32.1487 443.747C31.9767 443.578 31.6295 443.341 31.2945 442.941C30.9529 442.551 30.694 441.914 30.7226 441.376C30.7248 441.291 30.731 441.207 30.7407 441.123C30.8872 440.272 31.0118 439.149 31.4102 438.304C31.5228 438.087 31.6072 437.848 31.6783 437.666C31.9715 436.931 31.9709 436.749 32.2402 435.96C32.2603 435.911 32.2844 435.861 32.313 435.811C32.5033 435.452 32.8528 435.073 33.1094 434.762C33.1759 434.676 33.2082 434.613 33.2656 434.612C33.3227 434.609 33.397 434.729 33.3836 434.888C33.3343 435.335 33.0975 435.544 33.1441 435.803C33.1833 436.044 33.206 436.218 33.174 436.366C33.1751 436.475 33.1184 436.548 32.9562 436.702C32.6465 437.028 33.0515 437.345 32.9535 437.591C32.8628 437.813 32.7286 437.774 32.5476 438.65C32.5127 438.798 32.4907 438.972 32.4946 439.201C32.5213 440.007 32.6042 440.673 32.6365 441.148C32.66 441.291 32.6989 441.362 32.7388 441.421C32.7948 441.527 32.9243 441.807 33.5462 442.459C33.6697 442.615 33.8238 442.746 33.9974 442.832C34.2089 442.939 34.5169 443.085 34.9129 443.227C35.0797 443.287 35.2459 443.324 35.4524 443.347C36.0162 443.422 36.4662 443.455 36.7672 443.421C37.4431 443.338 37.4228 443.628 37.9718 443.802Z" fill="#A5845B"/>
<path d="M25.0947 442.168C25.4808 442.306 25.8215 441.928 26.2351 441.78C26.3467 441.731 26.4578 441.703 26.5779 441.72C27.0685 441.771 27.1673 442.132 27.8948 441.822C27.9837 441.786 28.0791 441.754 28.178 441.729C28.6234 441.619 29.1824 441.477 29.3366 441.21C29.3484 441.189 29.361 441.17 29.3744 441.155C29.5046 440.979 29.8018 441.277 30.0003 440.94C30.1293 440.72 30.2198 440.544 30.5677 440.325C30.563 440.368 30.6654 440.332 30.7695 440.255C31.0864 440.075 31.4812 438.826 31.3233 438.364C31.3075 438.311 31.2983 438.257 31.2944 438.204L31.2994 438.17C31.3519 437.632 31.7756 437.394 31.9812 437.187C31.9992 437.171 32.0169 437.153 32.0326 437.135C32.0975 437.061 32.1577 437.008 32.2127 436.968C32.236 436.951 32.269 436.952 32.2971 436.964C32.2971 436.964 32.2971 436.964 32.2971 436.964C32.3321 436.978 32.3597 437.009 32.3512 437.042C32.3302 437.122 32.305 437.226 32.2826 437.348C32.2599 437.464 32.2436 437.597 32.2445 437.743C32.2507 438.087 32.1657 438.17 32.1042 438.32L32.1087 438.289C32.0762 438.431 32.0475 438.604 32.0563 438.882C32.0414 439.621 32.3367 440.098 31.5998 441.034C31.5115 441.126 31.4179 441.221 31.2922 441.312C31.1096 441.445 31.0889 442.189 30.3315 442.58C30.2035 442.645 30.0507 442.702 29.863 442.747C29.2273 442.897 28.8962 443.093 28.5608 443.32C28.329 443.52 28.1574 443.856 27.4063 444.069C27.0288 444.169 26.6095 444.193 26.2215 444.163C25.7551 444.122 25.2855 444.042 24.8523 443.961C24.6359 443.92 24.4297 443.88 24.2269 443.84C24.125 443.819 24.0242 443.8 23.9112 443.774C23.7877 443.739 23.7074 443.751 23.4099 443.597C23.3647 443.571 23.2956 443.527 23.2223 443.459C22.965 443.194 22.969 443.096 22.9205 442.999C22.8862 442.909 22.867 442.84 22.8502 442.777C22.8179 442.651 22.7991 442.547 22.7824 442.444C22.7503 442.238 22.7321 442.043 22.7221 441.841C22.7034 441.438 22.718 441.018 22.7957 440.572C22.8411 440.317 22.8968 440.153 22.9643 439.967C23.1048 439.59 23.2366 439.196 23.3906 438.792C23.6563 438.103 23.9736 437.251 24.7268 436.656C24.8226 436.581 24.9261 436.508 25.0367 436.439C25.8292 435.984 26.414 435.922 26.9957 435.7C27.4409 435.544 27.8414 435.42 28.1207 435.348C28.5271 435.243 28.7592 435.19 28.9818 435.09C29.17 435.005 29.3517 434.916 29.6157 434.774C29.9703 434.582 30.493 434.452 30.9805 434.455C31.2254 434.453 31.2416 434.595 31.0456 434.749C30.7593 434.969 30.4743 435.004 30.3687 435.224C30.1586 435.661 30.0607 435.83 29.6068 435.802C29.4959 435.795 29.4121 435.822 29.3632 435.861C29.1348 436.016 29.0952 436.3 28.9079 436.348C28.6713 436.412 28.5496 436.18 27.6166 436.856C27.5771 436.885 27.5372 436.914 27.4951 436.945C26.8505 437.417 26.3041 437.737 26.2054 437.891C26.0781 438.034 25.9866 438.173 25.913 438.302C25.7792 438.526 25.3944 438.965 25.1249 439.538C25.0405 439.712 24.9725 439.891 24.9337 440.064C24.8853 440.28 24.7914 440.629 24.7649 440.842C24.7266 441.164 24.7082 441.534 24.7249 441.849C24.733 442.006 24.7504 442.151 24.7753 442.252C24.7873 442.301 24.8024 442.34 24.8114 442.342C24.8153 442.342 24.8191 442.334 24.8081 442.293C24.7872 442.25 24.8021 442.19 24.6033 441.979C24.5435 441.921 24.4867 441.881 24.4565 441.86C24.2966 441.76 24.2982 441.772 24.285 441.759C24.2785 441.752 24.2891 441.751 24.3016 441.751C24.3283 441.751 24.366 441.758 24.4015 441.768C24.4727 441.788 24.538 441.823 24.5992 441.867C24.7236 441.954 24.8411 442.076 25.0947 442.168Z" fill="#A5845B"/>
</g>
<g filter="url(#filter3_d_2894_143)">
<path d="M69.7705 9.96497C70.0865 10.0189 70.3912 10.0528 70.6931 10.0746C71.4171 10.079 72.4292 10.4599 72.895 10.6281C73.7484 10.9764 74.3189 11.4501 74.8905 11.995C75.1089 12.21 75.3231 12.4612 75.5124 12.7421C75.6934 13.0105 75.8283 13.2581 75.9352 13.4721C76.5144 14.6337 76.5414 15.4932 76.6047 16.4401C76.6447 17.0655 76.6453 17.6803 76.6389 18.5766C76.6373 18.7079 76.6334 18.8391 76.6274 18.9702C76.5701 20.5091 75.1987 21.4166 74.6581 21.8367C73.6183 22.6124 72.9435 22.5394 72.3874 22.7735C72.2731 22.8124 72.0062 22.9215 71.7966 22.972C71.5825 23.0275 71.4001 23.0595 71.2444 23.0897C71.2288 23.0928 71.2135 23.0959 71.1984 23.099C70.1895 23.2799 69.8962 23.0191 68.9408 22.7975C68.6247 22.7133 68.2575 22.5692 67.8693 22.3036C67.4721 22.0297 67.195 21.7018 66.9844 21.3765C66.6946 20.9356 66.4675 20.4738 66.2824 20.1462C66.252 20.0943 66.2115 20.0447 66.1747 19.891C66.1568 19.7959 66.1404 19.6703 66.2146 19.4919C66.2885 19.3209 66.4257 19.2197 66.5105 19.1773C66.8296 19.0492 66.8487 19.1119 66.9283 19.105C67.0485 19.1182 67.1172 19.1378 67.1891 19.1562C67.3282 19.1938 67.4461 19.2332 67.5651 19.2721C67.7983 19.3489 68.0341 19.4286 68.2369 19.4706C68.2836 19.4791 68.3292 19.4866 68.375 19.4931C68.7468 19.5425 69.1146 19.5266 69.7268 19.0105C69.6657 19.0873 69.7406 18.9952 69.7563 18.9181C69.7822 18.8334 69.8027 18.7338 69.8197 18.629C69.8536 18.4187 69.8743 18.1909 69.8895 17.9581C69.919 17.4924 69.9261 17.0061 69.9251 16.5303C69.933 16.0589 69.7556 15.7 69.4784 15.3319C69.2082 15.0002 68.5532 14.8326 68.1951 14.6845C68.1935 14.6839 68.1919 14.6833 68.1903 14.6827C67.6598 14.4792 67.2736 14.3846 66.6895 14.3332C65.947 14.2592 65.1678 14.1941 64.5261 14.1402L64.5616 14.1365C64.2914 14.1561 64.045 14.1848 63.8282 14.2239C63.5504 14.2705 63.331 14.3275 63.1065 14.327C63.0724 14.3261 63.032 14.3298 62.9927 14.3355C62.9079 14.3489 62.8563 14.3386 62.8452 14.3097C62.8452 14.3097 62.8452 14.3096 62.8452 14.3096C62.8321 14.2753 62.8731 14.2124 62.9945 14.1717C63.0233 14.1626 63.0536 14.1546 63.0851 14.1481C63.4273 14.0698 63.9188 13.8642 64.4833 13.707L64.5143 13.7038C64.7816 13.6679 65.0679 13.6267 65.3686 13.5813C65.937 13.4965 66.3522 13.4698 66.7456 13.4891C67.2777 13.5056 67.8869 13.648 68.5276 14.0019C68.8739 14.2122 69.2972 14.2374 69.9602 14.7988C69.9985 14.8386 70.0348 14.8813 70.0684 14.9264C70.4141 15.3244 70.7192 15.9753 70.7327 16.5217C70.7732 17.0022 70.8107 17.4618 70.825 17.9402C70.8315 18.1792 70.833 18.4232 70.8153 18.6873C70.8058 18.8202 70.7926 18.9574 70.761 19.1171C70.7444 19.198 70.7246 19.2828 70.6854 19.3888C70.6387 19.4942 70.6082 19.6297 70.3834 19.8278C70.1826 19.9923 69.9204 20.2604 69.4869 20.4552C69.0551 20.6487 68.5788 20.6747 68.1633 20.6326C67.902 20.6066 67.6853 20.5505 67.4708 20.4906C67.2993 20.4419 67.1425 20.395 67.0071 20.3601C66.9414 20.343 66.8743 20.3285 66.8485 20.3247C66.8464 20.3188 66.8079 20.3385 66.9643 20.3085C67.015 20.2917 67.0846 20.2821 67.2093 20.1698C67.3308 20.0711 67.405 19.8219 67.3875 19.7208C67.36 19.4953 67.3182 19.4952 67.3063 19.4627C67.6401 19.9899 67.8428 20.3359 68.1113 20.6829C68.4342 21.0909 68.8384 21.331 69.228 21.3614C69.6905 21.4099 70.3362 21.4423 71.1006 21.4218C71.2292 21.4187 71.3514 21.4118 71.46 21.398C71.5725 21.3846 71.6547 21.3627 71.9052 21.2936C72.0001 21.2713 72.0963 21.25 72.1936 21.2294C72.9067 21.0839 73.4775 20.9449 73.6607 20.7666C74.7441 19.9555 75.0202 19.4172 74.9279 18.8579C74.8728 18.226 74.7885 17.4724 74.6266 16.7423C74.5244 16.2966 74.4295 15.9076 74.2568 15.4841C74.1518 15.2259 74.0222 14.9691 73.8649 14.7088C73.6255 14.3092 73.4122 14.0059 73.1215 13.6919C72.6859 13.2193 72.2041 12.7352 71.8996 12.5562C71.4916 12.3245 71.3179 12.1874 71.1294 12.1019C70.945 12.0135 70.7313 11.9509 70.481 11.9088C69.46 11.7506 68.3999 11.6189 67.6818 11.6433C66.6839 11.6844 66.3671 11.6902 65.9145 11.9364C65.8737 11.9576 65.8326 11.9798 65.7895 12.0038C65.1693 12.3347 64.364 12.734 64.356 12.8597C63.8789 13.6351 63.3785 14.424 62.8425 15.2587C62.5343 15.7296 62.2682 16.2971 61.8185 16.9521C61.3015 17.6727 60.7331 18.193 60.294 18.7117C60.2902 18.7162 60.2864 18.7207 60.2826 18.7252C60.0789 18.9516 59.8842 19.3059 59.4635 19.7198C58.9232 20.2036 58.4579 20.297 58.0802 20.4372C57.7084 20.5554 57.3625 20.6935 57.3049 20.7592C56.901 21.0585 56.7049 21.0959 56.475 21.1978C56.2554 21.2848 56.0532 21.3591 55.8599 21.4348C55.4764 21.5841 55.1189 21.7426 54.8697 21.9123C54.1662 22.4143 53.2528 22.5472 52.5731 22.5729C51.616 22.6064 50.6991 22.6709 49.5977 22.5275C49.2495 22.471 48.8952 22.4021 48.5207 22.2852C48.263 22.2058 47.9744 22.0858 47.7375 21.9593C47.4032 21.7832 47.1031 21.6004 46.8168 21.4472C46.2127 21.1024 45.9338 20.8713 45.4691 20.6308C44.8486 20.2879 44.2545 20.0862 43.5686 20.022C42.873 19.9577 42.1566 19.8648 41.668 19.9083C40.5745 20.0265 39.5597 20.1433 39.2726 20.5638C39.069 20.8474 38.9379 20.9637 38.8492 21.1196C38.7599 21.2676 38.7065 21.4252 38.6746 21.5857C38.6581 21.6685 38.6473 21.7527 38.6407 21.8367C38.563 22.994 38.6195 23.7316 38.699 24.5026C38.7264 24.7909 38.7968 25.0762 38.9363 25.3624C39.1496 25.8405 39.2442 26.3296 39.7325 26.4834C39.7329 26.4835 39.7332 26.4836 39.7336 26.4838C40.149 26.6338 40.5739 26.8048 40.8793 26.678C41.342 26.4861 41.8451 26.4286 42.2273 26.2542C42.6818 26.0589 43.0949 26.0066 43.2013 25.726C43.2465 25.6151 43.2721 25.466 43.2586 25.3706C43.2345 25.2536 43.2066 25.139 43.1722 25.0287C43.0623 24.645 42.9174 24.5577 42.9844 24.525C43.0715 24.4862 43.3482 24.6939 43.5195 25.097C43.5451 25.153 43.5686 25.2091 43.5904 25.2651C43.6615 25.489 43.6413 25.657 43.6015 25.8412C43.5234 26.1744 43.2332 26.3773 43.0255 26.4808C42.8087 26.5911 42.6159 26.6598 42.4755 26.7434C42.1326 26.9378 41.8169 27.0354 41.6135 27.1678C41.4502 27.2701 41.3164 27.3662 41.1942 27.4604C40.4265 27.8742 39.774 27.5933 39.3555 27.4571C38.7485 27.2948 38.2434 26.4584 38.1821 25.918C38.1656 25.8425 38.1502 25.7796 38.1376 25.7369C37.9757 25.3139 37.8903 24.9354 37.8312 24.5984C37.6729 23.8067 37.4079 23.2192 37.4219 22.5399C37.428 22.2669 37.4575 22.0713 37.493 21.8225C37.5211 21.6114 37.5546 21.3622 37.6755 21.0141C37.7668 20.6829 38.1462 20.1762 38.3097 19.9686C38.9631 18.9814 40.2022 18.8579 41.4335 18.5977C41.5677 18.57 41.6892 18.5546 41.8076 18.5427C42.5217 18.4806 43.1057 18.5157 43.6423 18.5174C44.5958 18.5177 45.5248 18.7936 46.2007 19.1055C46.7412 19.3322 47.3375 19.6988 47.5946 19.812C47.9721 19.9799 48.2809 20.1385 48.5483 20.2546C48.9696 20.444 49.4032 20.495 49.8625 20.5474C50.0368 20.5641 50.2481 20.569 50.4454 20.5686C50.9488 20.5686 51.6579 20.5608 52.494 20.5467C53.0234 20.535 53.4432 20.5012 53.8003 20.2699C54.2785 19.9756 54.7409 19.806 55.1748 19.6503C55.3912 19.5736 55.6017 19.5031 55.7892 19.4346C55.9626 19.3768 56.1839 19.2631 56.1244 19.2986C56.9758 18.6994 57.5686 18.6898 57.9383 18.4824C58.0522 18.4287 58.1369 18.3655 58.1413 18.3522C58.2741 18.2246 58.4588 17.9166 58.7642 17.5187C59.2517 16.8955 59.8132 16.3463 60.1797 15.8151C60.4727 15.3886 60.7695 14.7741 61.1603 14.167C61.692 13.3392 62.2231 12.5137 62.6634 11.7985C63.1417 11.0889 63.6366 10.9028 63.982 10.6913C64.339 10.4975 64.6176 10.3554 64.8332 10.2221C64.8888 10.1892 64.9415 10.1586 64.9954 10.1284C65.5514 9.80089 66.2095 9.64358 66.6143 9.62186C67.024 9.5928 67.2565 9.60876 67.4874 9.61704C68.2397 9.63865 68.7035 9.79236 69.7705 9.96497Z" fill="#A5845B"/>
<path d="M53.9318 1.86322C54.3477 1.85053 54.9233 1.58875 55.6175 1.61357C56.6244 1.66742 57.3909 1.76028 58.3255 2.13282C58.5364 2.22159 58.7372 2.33528 58.9204 2.46657C59.5352 2.9207 59.7904 3.30938 59.9985 3.58965C60.364 4.07141 60.58 4.48577 60.8715 5.08771C61.0331 5.43382 61.186 5.81972 61.3721 6.27332C61.3892 6.31433 61.4087 6.35908 61.4302 6.40854C61.8505 7.32129 61.8602 8.32489 61.8522 9.10319C61.8511 9.4039 61.8006 9.77328 61.6459 10.0964C61.4917 10.4194 61.3118 10.6147 61.1902 10.767C60.948 11.0807 60.5775 11.3252 60.307 11.4439C60.0165 11.5778 59.7248 11.6251 59.4892 11.6381C59.0726 11.6508 58.8194 11.5615 58.5263 11.359C58.052 10.9644 58.0447 10.5942 57.7118 10.1812C57.6431 10.0922 57.5367 9.99178 57.3879 9.8795C57.1883 9.72909 56.9894 9.57697 56.809 9.42189C56.3727 9.07033 55.9074 8.75275 55.4713 8.53786C55.285 8.4612 55.1189 8.38215 54.9392 8.30665C54.7609 8.23092 54.5066 8.14658 54.1925 8.06952C53.6545 7.93949 52.8137 7.93929 52.0157 7.9708C51.2788 7.98502 50.7303 8.23744 50.315 8.68011C50.1006 8.87417 49.91 9.0324 49.7719 9.16534C49.5378 9.38882 49.2978 9.57779 49.0833 9.77259C48.5514 10.2826 47.9094 10.8654 47.4192 11.2578L47.4376 11.2351C47.3573 11.3226 47.2857 11.4078 47.2262 11.4892C47.1129 11.6439 47.0306 11.7743 46.9693 11.8954C46.9548 11.9254 46.9425 11.9659 46.932 12.0055C46.9153 12.0706 46.8854 12.1039 46.8547 12.1037C46.8547 12.1037 46.8546 12.1037 46.8546 12.1037C46.8172 12.1032 46.7772 12.0562 46.7779 11.9598C46.7785 11.9251 46.7808 11.888 46.7865 11.8491C46.8415 11.598 46.9713 11.3186 47.1303 11.0204L47.146 11.001C47.3042 10.7837 47.4671 10.5358 47.6316 10.2608C47.9494 9.73192 48.18 9.43616 48.4975 9.14981C48.8543 8.82574 49.3022 8.62235 49.8689 8.13338C49.9623 8.05008 50.0707 7.94303 50.2095 7.82712C50.7643 7.35694 51.4199 7.20165 51.9636 7.11614C52.7103 7.01015 53.368 6.86789 54.3715 6.99151C54.8026 7.0589 55.3352 7.20371 55.7986 7.39078C55.7998 7.39121 55.8009 7.39163 55.802 7.39206C56.6985 7.75857 57.1601 8.0646 57.7092 8.44206C58.0279 8.67289 58.355 8.82501 58.7917 9.239C59.0689 9.50618 59.3603 9.85463 59.4591 9.91259C59.4132 9.89147 59.5101 9.94287 59.5453 9.95203C59.5919 9.96684 59.6235 9.97864 59.6754 9.9785C59.7724 9.95387 59.8383 9.93628 59.9103 9.90043C59.9395 9.88537 59.9698 9.86489 60.0023 9.83665C60.3626 9.4708 60.3694 9.45796 60.3878 9.13212C60.3729 8.0735 60.1729 7.57219 59.7174 6.89454C59.543 6.60708 59.3589 6.30661 59.1552 6.04001C58.9766 5.8111 58.7368 5.5333 58.4469 5.26912C58.4353 5.2585 58.4236 5.24803 58.4118 5.23757C57.963 4.819 57.6326 4.5202 57.3383 4.38426C56.6528 4.06819 55.807 3.69782 55.3304 3.5719C55.2176 3.54413 55.1331 3.53243 54.9528 3.55169C54.7765 3.5704 54.5154 3.62528 54.234 3.66265C53.5552 3.7275 53.3755 3.65915 53.0914 3.69013C52.8318 3.70875 52.5892 3.76382 52.3558 3.84572C51.9925 3.97509 51.6664 4.13155 51.3836 4.28383C51.1775 4.39301 50.9781 4.51166 50.6714 4.65129C50.2501 4.84623 49.685 5.18777 49.2777 5.51448C48.8688 5.84202 48.6545 6.05456 48.3853 6.44705C48.2488 6.64601 48.1106 6.83811 47.9933 7.01137C47.9351 7.09732 47.8819 7.17981 47.8465 7.24165C47.8101 7.29517 47.7996 7.36812 47.8261 7.23302C47.7558 7.62683 47.6906 7.79384 47.6442 8.01715C47.596 8.23096 47.5575 8.45088 47.5255 8.68165C47.4988 8.8738 47.4797 9.0753 47.467 9.28437C47.4091 10.3354 47.3979 11.5294 47.4787 12.6204C47.5244 13.1006 47.5529 13.4624 47.6799 13.9295C47.6963 14.0368 47.9494 14.5772 48.0396 15.0909C48.1613 15.8451 48.2121 16.3919 48.3168 16.9939C48.3272 17.0646 48.3406 17.1336 48.3568 17.2004C48.3927 17.3494 48.4491 17.4953 48.5184 17.615C48.5139 17.6544 48.7784 17.8938 48.9973 17.9991C49.2319 18.1222 49.5021 18.2037 49.7917 18.2328C50.4921 18.2903 51.2246 18.3534 51.8492 18.3549C52.2097 18.3509 52.5562 18.3292 52.6238 18.2815C52.8791 18.1279 53.0887 18.0512 53.24 17.9729C53.4042 17.8953 53.4135 17.8422 53.4033 17.9273C53.5068 17.309 53.5445 16.7228 53.57 16.2748C53.5928 15.8552 53.595 15.4342 53.5634 15.2408C53.4332 14.7843 53.289 14.4616 53.0154 14.2914C52.668 14.0932 52.0743 14.0038 51.3796 14.1488C51.3623 14.153 51.3448 14.1575 51.3281 14.1621C50.7396 14.3245 49.7958 14.5259 49.5349 14.933C49.3685 15.3344 49.3156 15.8358 49.2783 16.2983C49.2471 16.9253 49.0886 16.8198 48.9733 16.1704C48.8962 15.6648 48.9153 15.1867 49.0331 14.7657C49.2176 14.2788 49.5427 14.141 49.724 13.9466C50.2349 13.4852 50.6302 13.2753 51.1049 13.1418C51.5154 13.0415 51.9336 13.046 52.4844 13.1952C52.8326 13.2974 53.1336 13.3794 53.4605 13.5552C54.1816 13.9946 54.4287 14.4986 54.6367 14.8473C54.7574 15.1707 54.7535 15.264 54.767 15.4338C54.7601 16.0689 54.6705 16.1445 54.5729 18.0516C54.5191 18.5718 54.1289 18.8584 53.9179 18.9994C53.6866 19.1512 53.4715 19.2583 53.3523 19.3554C53.1189 19.5324 52.7915 19.6315 52.574 19.6738C52.3395 19.7217 52.1462 19.7462 51.9563 19.7712C51.0798 19.8639 50.3928 19.8654 49.7471 19.8819C48.6212 19.8587 47.7582 19.5609 47.0042 18.7112C46.6686 18.2658 46.5015 17.8244 46.3987 17.4189C46.3046 17.05 46.2348 16.7186 46.1765 16.4204C46.1209 16.1459 46.0745 15.7654 46.0309 15.476C45.9993 15.216 45.8911 15.05 45.7162 14.3267C45.6115 13.877 45.5711 13.2498 45.5526 12.7498C45.5228 11.7405 45.5626 10.7939 45.552 9.9116C45.5503 9.69522 45.5516 9.45942 45.5571 9.20357C45.565 8.86046 45.5862 8.48311 45.6399 8.07391C45.6821 7.69091 45.8245 7.13661 45.8561 6.9453C45.9189 6.58506 46.0167 6.43885 46.0937 6.285C46.1737 6.13891 46.2494 6.0213 46.3228 5.90973C46.4694 5.68862 46.6073 5.49582 46.7355 5.30765C47.0694 4.78924 47.6368 4.24814 48.0348 3.9464C48.7217 3.41788 49.2829 3.09801 49.8895 2.80595C50.0435 2.72842 50.2686 2.59364 50.4452 2.48579C50.89 2.21248 51.2665 2.03363 51.5836 1.92516C52.0271 1.77249 52.3768 1.74252 52.7541 1.74924C53.1038 1.75125 53.6422 1.83694 53.9095 1.86435C53.9169 1.864 53.9244 1.86362 53.9318 1.86322Z" fill="#A5845B"/>
<path d="M36.6922 15.3795C36.5489 15.376 36.4311 15.4609 36.2714 15.5892C36.0522 15.8354 36.0399 16.2289 35.6649 16.4225C35.3713 16.5787 35.1113 16.6208 34.8432 16.6935C34.7595 16.6491 34.6544 16.6392 34.5424 16.9469C34.4856 17.1056 34.4054 17.282 34.3163 17.4518C34.0962 17.8592 33.8655 18.316 33.9325 18.5755C34.0257 18.9148 33.5516 18.8734 33.5942 19.3458C33.5946 19.3497 33.595 19.3537 33.5955 19.3577C33.6593 19.8321 33.5949 20.0976 33.4713 20.5115C33.4322 20.6225 33.4214 20.8944 33.4269 21.0033C33.5951 21.5452 33.9545 22.2543 34.2338 22.3719C34.2611 22.3822 34.2861 22.3913 34.2949 22.3871L34.3917 22.5129C34.602 22.7379 34.7048 23.1405 34.8301 23.436L34.8392 23.4467C34.87 23.5219 34.8901 23.5879 34.9099 23.6371C34.9464 23.7297 34.9726 23.8077 34.9909 23.8771C34.9986 23.9063 34.9854 23.9367 34.9639 23.9583C34.9639 23.9583 34.9639 23.9583 34.9639 23.9584C34.9369 23.9851 34.8964 23.9975 34.8679 23.9747C34.7795 23.9103 34.6521 23.7812 34.5205 23.7028L34.5284 23.712C34.442 23.6637 34.3451 23.6132 34.2372 23.5599C33.8548 23.3635 33.8065 23.1759 33.6754 22.8713L33.7645 22.9872C33.6006 22.815 33.5148 22.6692 33.3351 22.4639C33.0089 22.0788 32.7282 21.8153 32.4983 21.4469C32.3618 21.1534 32.361 21.052 32.3343 20.874C32.3162 20.7094 32.3178 20.5393 32.3407 20.3559C32.4072 19.8633 32.2871 19.5738 32.2135 19.2071C32.1464 18.8556 32.123 18.4309 32.4865 17.8206C32.7408 17.4036 32.8576 17.1075 32.9287 16.8109C32.9753 16.5916 32.9631 16.3827 32.9916 16.1144C33.026 15.8618 33.083 15.4452 33.5818 14.9899C33.6271 14.9392 33.6798 14.8849 33.7427 14.8263C34.1148 14.4765 34.7998 13.9803 35.5949 13.7741C35.8363 13.7227 36.365 13.5717 36.7313 13.5556C37.1135 13.5258 37.4187 13.5405 37.6543 13.5322C37.6697 13.5317 37.6848 13.5311 37.6996 13.5303C38.4144 13.4892 39.4003 13.4416 40.3719 13.5952C40.4264 13.6043 40.4853 13.6131 40.5486 13.6219C40.8154 13.6628 41.1705 13.6377 41.6526 13.7075C42.1306 13.7655 42.747 14.0484 43.1141 14.4532C43.5079 14.8576 43.8266 15.2506 44.0782 15.6257C44.1689 15.7619 44.2682 15.9017 44.3533 16.0098C44.8549 16.5353 44.8603 16.9491 44.9539 17.1128C45.251 17.6814 45.7759 18.2302 46.0617 18.5515C46.3176 18.8343 46.4878 19.0034 46.6728 19.1442C46.855 19.2813 47.0523 19.3896 47.3849 19.5207C47.7677 19.6756 48.2517 19.9379 48.6458 20.3058C48.8397 20.503 48.7162 20.589 48.4768 20.5552C48.1085 20.5062 47.849 20.3285 47.6032 20.3978C47.1079 20.5339 46.8739 20.5611 46.539 20.1349C46.427 19.9899 46.3074 19.9218 46.185 19.885C45.9521 19.8167 45.7095 19.8719 45.5709 19.732C45.3664 19.4972 45.5078 19.389 44.2493 18.4894C44.0666 18.3462 43.8985 18.1972 43.7448 18.0346C43.3398 17.5329 43.2038 17.3098 43.2073 17.3945C42.7171 17.0336 42.4918 16.7847 42.2755 16.5838C42.0899 16.4074 41.8746 16.0924 41.6532 15.7933C41.5458 15.6156 41.4371 15.5163 41.0113 15.5418C40.8369 15.5531 40.5794 15.5712 40.2283 15.554C39.3284 15.4937 38.2456 15.4462 37.7236 15.5583C37.7082 15.5615 37.693 15.5645 37.6782 15.5673C37.1483 15.7026 37.1561 15.4137 36.6922 15.3795Z" fill="#A5845B"/>
<path d="M27.9929 33.3437C27.9863 33.3556 27.9801 33.3676 27.9743 33.3797C27.7652 33.7998 28.4841 34.3398 28.4336 35.1049C28.4165 35.3989 28.3591 35.616 28.2939 35.8272C28.1772 36.0735 28.0496 36.331 28.2688 36.692C28.3676 36.8498 28.4312 36.9253 28.6247 37.252C28.8807 37.7371 29.1935 38.3184 29.4621 38.516C29.5356 38.5689 29.5809 38.624 29.6093 38.6814C29.7131 38.903 29.5352 39.1379 29.8974 39.5469C29.9779 39.6426 30.0487 39.7439 30.1069 39.8462C30.2918 40.1348 30.4528 40.4865 30.5249 40.9756C30.5338 41.0356 30.5467 41.1068 30.5611 41.1875C30.6218 41.5982 30.8168 42.258 30.9108 42.8823C30.9656 43.274 30.9712 43.6036 31.0232 43.8201C31.1058 44.1956 30.9969 44.5672 30.7967 44.9249L30.7469 45.021C30.5733 45.1463 30.4123 45.2809 30.3235 45.41C30.3114 45.4275 30.2996 45.4444 30.2881 45.4607C30.2327 45.5422 30.1783 45.6042 30.129 45.6509C30.1034 45.6751 30.0692 45.6773 30.0409 45.666C30.0409 45.666 30.0409 45.666 30.0408 45.666C30.0056 45.6519 29.9794 45.6168 29.9901 45.577C30.0065 45.5163 30.0226 45.4453 30.0363 45.3647C30.0697 45.1778 30.1228 44.9466 30.2022 44.6749C30.207 44.6584 30.2121 44.6423 30.2172 44.6266L30.1691 44.7195C30.0637 44.1719 30.3622 44.0766 30.2412 43.2794C30.2198 43.172 30.1914 43.0739 30.1577 42.9909C29.9722 42.5241 29.6945 42.1798 29.5098 41.5809C29.4764 41.4702 29.441 41.349 29.3998 41.2074C29.3027 40.8779 29.1083 40.6834 28.8986 40.4209C28.7137 40.2492 28.4466 40.1114 28.1691 39.6434C28.0765 39.4827 27.9858 39.2879 27.8941 39.035C27.727 38.5767 27.526 38.283 27.3143 38.0181C26.9862 37.7197 26.1703 37.1797 26.0414 35.9268C26.0399 35.9154 26.0383 35.9035 26.0368 35.8912C25.9562 35.0963 25.8767 34.1608 26.2057 32.9434C26.4452 32.2737 26.7424 31.719 26.9084 31.3339C27.0726 30.9463 27.2905 30.511 27.528 30.0932C27.9103 29.4251 28.4783 28.7885 29.2558 28.3452C29.3111 28.3141 29.3681 28.2827 29.4299 28.2503C29.4877 28.2337 30.0416 27.8266 30.5183 27.7455C31.0091 27.6366 31.4493 27.6645 31.8488 27.7222C32.4998 27.8334 33.2482 27.7959 34.1349 28.235C34.2202 28.2799 34.3053 28.3287 34.3886 28.381C34.781 28.6589 35.855 29.0861 36.2365 30.127C36.5182 31.1689 36.2736 31.8811 36.129 32.3556C36.1124 32.4034 36.0962 32.4471 36.0797 32.4908C35.9468 32.8319 35.8479 33.065 35.7602 33.2938C35.7159 33.4081 35.6746 33.5215 35.6238 33.6489C35.5598 33.7786 35.5556 33.9098 35.3278 34.121C35.2735 34.1667 35.2063 34.2316 35.1043 34.3015C34.9826 34.3882 34.7825 34.4597 34.5914 34.449C34.3694 34.4406 34.1282 34.4165 33.8774 34.3533C33.6425 34.284 33.3097 34.2029 33.1863 33.8783C33.1791 33.8537 33.1756 33.8307 33.1745 33.8097C33.1778 33.629 33.2758 33.6787 33.2951 33.6704C33.3267 33.6745 33.3467 33.6876 33.3576 33.7059C33.3687 33.7242 33.368 33.7495 33.3642 33.7763C33.35 33.7916 33.3917 33.8744 33.4017 33.724C33.4202 33.7366 33.4386 33.7452 33.4592 33.7532C33.6758 33.8236 34.0946 33.879 34.301 33.7303C34.4261 33.6431 34.5313 33.5696 34.6302 33.5146C34.6608 33.3712 34.4494 33.4489 34.7561 33.3035C34.6488 33.4077 34.7038 33.4142 34.7437 33.3948C34.9055 33.3001 34.9149 33.0639 34.8789 32.8995C34.8455 32.7248 34.7824 32.571 34.8416 32.4297C34.8714 32.3582 34.909 32.3089 34.9514 32.2482C35.0457 32.114 35.331 31.7661 35.0123 30.8427C34.9855 30.7822 34.9515 30.7193 34.9359 30.7123C34.8191 30.5776 34.6064 30.4603 34.3625 30.3645C34.1097 30.2622 33.8952 30.2178 33.543 30.0734C33.3364 29.9991 33.1751 29.9734 32.998 29.9528C32.7368 29.9196 32.1511 29.7974 31.5002 29.6348C31.1387 29.5329 30.8664 29.5413 30.7584 29.6504C30.7024 29.6909 30.6694 29.7386 30.3927 29.9174C30.0217 30.1552 29.5048 30.6452 29.2395 31.1312C28.9847 31.568 28.8128 31.933 28.7458 32.1925C28.5783 32.9055 28.3175 32.7919 27.9929 33.3437Z" fill="#A5845B"/>
<path d="M26.5284 67.3315C26.3947 67.3505 26.2663 67.3764 26.1418 67.4083C25.74 67.5097 25.3383 67.6286 24.8447 67.6563C24.6008 67.6696 24.3279 67.6495 24.0719 67.5933C23.8247 67.5421 23.5599 67.4437 23.5525 67.4858C22.8552 67.3215 22.4449 67.0966 22.0252 66.9142C21.9038 66.8574 21.7812 66.7945 21.6577 66.7245C21.2965 66.5199 21.0137 66.327 20.7763 66.147C19.578 65.1726 19.7765 64.3942 19.4056 63.6693C19.2901 63.4382 19.1534 63.1772 18.9946 62.8767C18.851 62.6056 18.7257 62.3402 18.6048 62.0882C18.3418 61.4117 18.4169 61.1412 18.3791 60.7879C18.3634 60.4564 18.3504 60.1529 18.3278 59.8638C18.2458 58.8647 18.3203 58.0421 18.3146 57.4943C18.317 57.3547 18.3126 57.2787 18.3659 57.0714C18.4976 56.6016 18.7049 56.4479 19.0694 55.61C19.1381 55.4813 19.2084 55.3314 19.2767 55.156C19.4246 54.7782 19.5476 54.4667 19.6688 54.1669C19.8748 53.6528 20.1668 53.2834 20.3727 52.9535C20.5265 52.6837 20.7538 52.4273 21.0308 52.2394C21.2807 52.0554 21.6993 51.8878 22.007 51.728C22.4213 51.4903 22.8756 51.148 23.4006 50.8032C23.9382 50.4576 24.5063 50.0536 25.0032 49.7336C25.4386 49.448 25.8182 49.2097 26.051 49.0139C26.1695 48.9151 26.289 48.8216 26.4028 48.7304C26.7739 48.4364 27.1443 48.2178 27.3119 47.9618L27.3027 47.9824C27.6604 47.3319 28.1367 46.9129 28.5084 46.6135C28.6365 46.5125 28.7615 46.4363 28.8774 46.3838C28.953 46.354 29.0185 46.3163 29.0784 46.2799C29.1371 46.2438 29.1818 46.2419 29.2033 46.2637C29.2034 46.2637 29.2034 46.2637 29.2034 46.2638C29.2298 46.2906 29.2233 46.3522 29.1579 46.4196C29.1112 46.4671 29.0566 46.5178 28.9905 46.5642C28.6752 46.8016 28.3406 47.2706 28.1338 47.8567C28.0793 48.014 28.0368 48.1526 28.0068 48.2706L27.9977 48.2912C27.6888 48.9905 27.2696 49.1292 26.876 49.403C26.5171 49.6355 26.0751 49.851 25.4769 50.2742C25.4452 50.2969 25.414 50.3195 25.3829 50.3422C24.8123 50.7544 24.3993 51.1487 23.9019 51.5535C23.5387 51.8621 23.1376 52.2496 22.6111 52.6184C22.0514 52.9729 21.7566 53.055 21.5183 53.3741C21.4962 53.4035 21.476 53.4339 21.4572 53.4662C21.1558 54.0084 20.9564 54.3241 20.8671 54.6637C20.7033 55.2023 20.5533 55.7031 20.3563 56.2354C20.3002 56.4386 20.2296 56.9227 20.0217 57.5694C20.0124 57.5709 19.9565 57.8274 19.9249 58.0002C19.889 58.1927 19.8542 58.4042 19.8219 58.634C19.7675 59.0239 19.76 59.3757 19.7801 59.6901C19.81 60.1141 19.8383 60.4775 19.8822 60.7915C19.9191 61.0866 20.0103 61.4252 20.0584 61.394C20.3802 61.8769 20.6786 62.2722 21.0617 62.7851C21.2652 63.0989 21.3844 63.3347 21.5218 63.5659C21.6514 63.7898 21.8004 64.0031 21.8883 64.0737C21.9178 64.0989 21.9315 64.1011 21.9222 64.0929C22.2977 64.2936 22.6824 64.493 23.0831 64.6921C23.6083 64.9459 24.1017 65.2917 24.3106 65.3756C24.6722 65.5266 24.7263 65.5835 24.8037 65.6164C24.8701 65.6489 24.9207 65.6685 25.0016 65.6835C25.159 65.7137 25.4074 65.6996 25.6695 65.6471C26.174 65.5391 26.6645 65.4501 27.0614 65.3594C27.6487 65.235 28.0258 65.1852 27.9412 65.2116C28.367 64.9289 28.6971 64.7861 28.8825 64.6576C28.9309 64.6255 28.9736 64.5946 29.0097 64.5656C29.2774 64.3694 29.4175 64.1382 29.3848 64.1484C29.5248 63.5002 29.5998 63.2399 29.5965 62.7599C29.5969 62.4247 29.5937 62.0823 29.5821 61.7436C29.5762 61.5743 29.5681 61.4054 29.5557 61.2469C29.5471 61.1024 29.5135 60.8944 29.5188 60.921C29.404 60.5511 29.128 60.0268 28.8545 59.5333C28.8259 59.482 28.7981 59.4318 28.771 59.3834C28.6256 59.1179 28.4745 58.9076 28.3986 58.8542C28.446 58.8894 28.5097 58.9311 28.6043 58.9687C28.7219 59.0143 28.8794 59.0507 29.0789 59.0204C29.5077 58.9374 29.6406 58.6958 29.6965 58.6226C29.8027 58.4427 29.7859 58.4229 29.7969 58.3977C29.805 58.3605 29.7986 58.3861 29.7962 58.4098C29.7897 58.463 29.7834 58.5449 29.7781 58.6276C29.7673 58.7956 29.7582 58.9799 29.7471 59.1664C29.7253 59.5405 29.6964 59.9276 29.6533 60.3201C29.636 60.4746 29.6203 60.6277 29.5897 60.8178C29.5729 60.9149 29.556 61.0196 29.5063 61.1758C29.4613 61.3204 29.3396 61.6042 29.0866 61.8096C28.7132 62.1061 28.4016 62.1942 28.0714 62.2619C27.9076 62.2694 27.5436 62.5326 26.7434 62.5243C26.3459 62.4727 25.7976 62.6076 24.9643 62.1173C24.9017 62.074 24.8334 62.0384 24.66 61.9739C24.4975 61.9088 24.1704 61.8121 23.8484 61.5362C23.6974 61.3968 23.5327 61.2717 23.3021 61.0829C23.1204 60.9338 22.8914 60.7216 22.7129 60.4778C22.3774 60.0044 21.9816 59.4382 21.8274 58.6314C21.6976 57.4819 21.781 56.5398 21.8955 55.5503C21.982 54.7801 22.3332 54.1803 22.5228 53.7146C22.7224 53.2314 22.9328 52.7581 23.1882 52.364C23.3481 52.1153 23.5108 51.8535 23.6672 51.6449C24.108 51.05 24.5307 50.6911 24.9159 50.4144C25.4742 50.0143 25.9037 49.6527 26.5681 49.0616C26.6959 48.9478 26.8337 48.8295 26.9834 48.7036C27.5252 48.2519 28.1796 47.7951 28.6975 47.1592C29.001 46.7972 29.2843 46.4135 29.488 46.0161C29.6263 45.7435 29.6628 45.6184 29.72 45.655C29.7759 45.6934 29.8101 45.9272 29.7176 46.2551C29.5784 46.7491 29.3353 47.14 29.122 47.4674C28.9178 47.7784 28.7247 48.0303 28.6033 48.2639C28.1681 49.0691 27.8402 49.4098 27.2033 49.835C27.0684 49.9262 26.9165 50.0209 26.742 50.123C26.1337 50.4791 25.8279 50.8615 25.5431 51.2083C25.3783 51.4296 25.2674 51.6334 25.0887 51.8065C24.8247 52.0849 24.6622 52.0581 24.1682 52.9115C24.0108 53.1672 23.8541 53.5377 23.6778 54.1141C23.5596 54.4999 23.3948 54.9012 23.3349 55.2769C23.3139 55.4071 23.3047 55.5297 23.3048 55.6517C23.2908 56.6872 23.3732 57.6849 23.5058 58.2687C23.6036 58.5931 23.8854 58.9708 24.1751 59.2974C24.3164 59.4686 24.7331 59.6857 25.129 60.002C25.0948 59.9693 25.1289 59.9927 25.2816 60.0374C25.4421 60.0879 25.766 60.1885 26.0924 60.4077C25.998 60.3906 26.3372 60.4822 26.8715 60.5143C26.8277 60.5541 27.1433 60.4486 27.7394 60.3311C27.8144 60.3302 27.9095 60.2818 27.8625 60.3195C27.7347 60.425 27.6849 60.5644 27.6881 60.5657C27.6868 60.5782 27.7008 60.534 27.7114 60.4825C27.7343 60.3749 27.7565 60.2286 27.7772 60.0838C27.8638 59.494 27.8874 58.9498 27.9112 58.3102C27.9154 58.2419 27.919 58.1725 27.9356 58.0607C27.947 57.9987 27.9499 57.9433 28.005 57.79C28.0554 57.701 28.0307 57.5954 28.3623 57.3195C28.5097 57.1908 28.9022 57.0915 29.1168 57.1501C29.3687 57.2047 29.4477 57.2741 29.5382 57.3354C30.0462 57.7142 30.2928 58.1665 30.5242 58.5287C30.8266 59.0339 31.1549 59.5445 31.4226 60.3159C31.6678 61.449 31.5813 62.0167 31.5994 62.7895C31.6167 63.4361 31.4044 64.2279 31.3433 64.5427C31.1035 65.5481 30.5181 65.8988 30.2217 66.1789C30.1322 66.2518 30.0497 66.3128 29.9754 66.3661C29.512 66.6854 29.2942 66.7971 29.1458 66.8968C28.6238 67.2325 28.3084 67.2152 28.0966 67.2376C27.8822 67.2467 27.7392 67.2305 27.6068 67.2247C27.302 67.2521 26.9779 67.2676 26.5284 67.3315Z" fill="#A5845B"/>
<path d="M11.9023 47.3717C11.9069 47.6308 11.9556 47.8802 12.0298 48.1312C12.2036 48.7224 12.5857 49.1358 13.0155 49.7129C13.2417 49.9598 13.5486 50.2351 13.9254 50.5982C14.1699 50.8327 14.392 51.028 14.5736 51.1877C14.8471 51.4361 15.1017 51.6259 15.4365 51.7392C15.9945 51.8806 16.4776 52.0708 17.1785 52.0821C17.4501 52.0834 17.6981 52.0615 17.9016 52.0098C18.056 51.9702 18.1684 51.9235 18.2848 51.85C18.4142 51.7794 18.5 51.6455 18.9179 51.4028C18.8182 51.4559 18.7587 51.5705 18.771 51.561C18.7774 51.5593 18.8037 51.4883 18.8278 51.4004C18.8778 51.2202 18.9411 50.9696 19.0426 50.7328C19.1436 50.7039 18.9205 50.2119 18.6592 50.042C18.2539 49.7403 18.1707 49.4806 17.8879 49.1221C17.5388 48.7425 17.43 48.3819 17.2024 47.8689C17.0682 47.5466 16.9809 47.2496 16.9199 46.9605C16.805 46.4348 16.6372 46.0964 16.3796 45.4586C16.2803 45.1805 16.23 44.905 16.1951 44.6221C16.1862 44.549 16.1763 44.4681 16.1657 44.3812C16.0976 43.6346 16.0287 42.6297 16.3683 41.3964C16.6053 40.8722 16.9405 40.3761 17.3431 40.0055C17.7181 39.6489 17.9416 39.0478 18.2272 38.7216C18.2652 38.6717 18.3046 38.624 18.3471 38.5769C18.6714 38.1896 19.2564 37.8488 19.7537 37.7669L19.6898 37.7925C20.1998 37.5783 20.7067 37.5128 21.1389 37.4687L21.1842 37.4624C21.464 37.4869 21.7114 37.5182 21.9267 37.5349C22.2116 37.5576 22.435 37.5914 22.6064 37.6261C22.6789 37.6409 22.7124 37.6718 22.7125 37.7023C22.7125 37.7023 22.7125 37.7023 22.7125 37.7023C22.7124 37.7403 22.6605 37.7776 22.5672 37.7824C22.2255 37.8015 21.7474 37.8352 21.2057 37.9336L21.2457 37.9281C21.0819 37.9918 20.9137 38.0647 20.7463 38.1498C20.455 38.298 20.2433 38.4178 20.0583 38.5264L19.9945 38.552C19.5369 38.7161 19.2998 38.7979 18.8749 39.1554C18.6249 39.3596 18.4727 39.6287 18.1144 40.2047C18.031 40.3256 17.9358 40.4425 17.8329 40.5476C17.5007 40.9091 17.3113 41.323 17.1785 41.7444C17.1281 42.2513 17.1451 43.2847 17.2738 44.1313C17.321 44.3805 17.3683 44.6293 17.4357 44.8581C17.4463 44.8941 17.4576 44.9284 17.4694 44.9608C17.7158 45.5074 18.0713 46.1479 18.221 46.7232C18.3052 46.9832 18.4145 47.2333 18.5379 47.4678C18.5996 47.5843 18.6661 47.6981 18.7323 47.7919C18.7916 47.8821 18.8849 47.9662 18.8502 47.9188C19.3455 48.3502 20.1538 48.7235 20.5529 50.2766C20.6044 50.6062 20.5615 50.9822 20.4219 51.279C20.3454 51.4132 20.2965 51.577 20.2326 51.8025C20.1985 51.916 20.1628 52.049 20.0775 52.2167C19.997 52.3815 19.8227 52.5918 19.613 52.6988C19.5814 52.7047 19.33 52.9661 19.0871 53.1422C18.8353 53.3285 18.5588 53.4658 18.2958 53.5629C17.2905 53.9402 16.1897 53.8608 15.1665 53.7738C14.7507 53.7429 14.3099 53.6433 13.858 53.4505C13.6899 53.3786 13.5244 53.2956 13.3623 53.2009C12.456 52.6475 11.5683 51.9556 10.962 50.7475C10.6632 50.1102 10.332 49.3001 10.2134 48.521C10.0684 47.6814 9.99399 46.7597 10.1404 45.911C10.2683 45.1792 10.462 44.5771 10.6202 44.0843C10.641 44.0205 10.6599 43.9479 10.6776 43.8703C10.7754 43.3658 10.9942 42.4555 11.4709 41.7644C11.9476 41.0496 12.4905 40.2433 13.4771 39.5831C13.7621 39.4013 14.1028 39.1446 14.5295 38.9121C14.8829 38.7268 15.2194 38.4627 15.8251 38.1648C15.9831 38.0931 16.1385 38.0334 16.2868 37.9815C16.8117 37.8026 17.2346 37.6799 17.4645 37.5029C17.9971 37.1207 18.5208 36.9434 18.9048 36.7645C19.4789 36.4934 20.1016 36.4444 20.3987 36.3529C21.1714 36.0735 22.4173 35.94 23.3512 36.1202C23.8811 36.2021 24.3642 36.388 24.7388 36.5352C25.1369 36.6955 25.5084 36.8121 26.0176 37.0517C26.1357 37.1113 26.2682 37.1769 26.4409 37.3085C26.7941 37.6014 27.1352 37.9094 27.4684 38.373C27.8249 38.9385 28.309 39.389 28.7002 40.3754C28.9207 41.1547 28.8928 41.8723 28.732 42.5635C28.5298 43.2263 28.5539 43.849 27.9378 44.6403C27.5069 45.0478 27.1146 45.1084 26.9011 45.2427C26.4422 45.4931 26.0693 45.5979 25.703 45.6728C25.637 45.6851 25.5712 45.6954 25.5046 45.703C24.7316 45.7812 23.9784 45.8159 23.5085 45.2439C23.21 44.7976 22.6812 44.5826 22.3748 43.6695C22.3338 43.4551 22.2916 43.2211 22.256 42.956C22.2316 42.7702 22.2133 42.571 22.2149 42.3529C22.2295 42.1302 22.1967 41.9127 22.4013 41.5782C22.6489 41.2457 22.9744 40.6323 23.6212 40.4873C24.1129 40.3849 24.5754 40.3947 25.0159 40.4586C25.36 40.5127 25.4735 40.6203 25.422 40.6597C25.3746 40.7022 25.1842 40.7147 24.8627 40.7547C24.4522 40.8066 24.0643 40.87 23.7665 40.9708C23.4363 41.0874 23.2694 41.3815 23.1968 41.6538C23.1614 41.7906 23.1264 41.9257 23.0755 42.0625C23.1497 42.0277 23.1477 42.152 23.1802 42.2508C23.2067 42.3568 23.2332 42.4741 23.2558 42.5983C23.3017 42.8486 23.3298 43.1333 23.3447 43.5182C23.3284 43.5157 23.3252 43.5791 23.3572 43.6738C23.5097 44.074 23.8963 44.3357 24.2454 44.6535C24.3009 44.6096 24.4763 44.5566 24.7764 44.5608C24.9523 44.5646 25.0868 44.5805 25.306 44.579C25.4606 44.595 25.842 44.5439 26.2802 44.2945C26.6067 44.087 26.9726 43.9439 27.0484 43.8225C27.0867 43.8005 27.2318 43.2798 27.2953 42.7264C27.3148 42.5839 27.3339 42.4411 27.3537 42.2985C27.4219 41.7755 27.3375 41.2404 27.1969 40.9076C27.0159 40.5608 26.4342 39.9502 26.0365 39.4624C25.8521 39.2499 25.5607 39.0178 25.3085 38.8476C25.3345 38.8644 24.9997 38.7359 24.7703 38.6709C24.5205 38.5944 24.2735 38.5186 24.0431 38.4427C24.0347 38.4399 24.0263 38.4371 24.0179 38.4344C23.6894 38.327 23.368 38.2001 23.0313 38.1365C22.3575 38.0176 21.792 37.967 20.872 38.2254C20.2708 38.3529 19.9336 38.3583 19.6658 38.484C19.1661 38.6917 18.7838 38.8478 18.577 39.0209C18.5385 39.0504 18.5001 39.0786 18.4614 39.1058C17.8492 39.5381 17.1263 39.6957 16.6747 39.9289C16.4278 40.0526 15.9984 40.3726 15.4995 40.6555C15.2277 40.8061 14.9352 41.0259 14.5611 41.2697C14.0291 41.6148 13.5217 42.2697 13.1291 42.8786C12.8025 43.3853 12.7451 43.7923 12.6488 44.3476C12.6276 44.4642 12.6012 44.5869 12.5662 44.7114C12.372 45.4742 12.2597 45.8171 12.1229 46.1708C12.0153 46.4441 11.8951 46.7547 11.9023 47.3717Z" fill="#A5845B"/>
<path d="M23.6359 29.6943C23.6317 29.709 23.6281 29.7237 23.6251 29.7383C23.5708 29.9957 23.7269 30.2201 23.8965 30.4275C24.0676 30.6466 24.2458 30.7946 24.2764 31.1794C24.2815 31.247 24.2844 31.3175 24.2842 31.3902C24.2269 31.2829 24.1999 31.3763 24.1854 31.4445C24.1708 31.5212 24.1656 31.6135 24.1727 31.7101C24.1881 31.9064 24.2562 32.1214 24.4913 32.4293C24.5727 32.5366 24.6467 32.6514 24.7135 32.7703C24.8973 33.0993 25.1004 33.5103 25.2628 33.8866C25.3497 34.0855 25.4156 34.2529 25.495 34.3655C25.7234 34.6988 25.4174 34.8574 25.4355 35.1375C25.4327 35.162 25.4429 35.1892 25.4749 35.2176C25.606 35.3395 25.8117 35.5309 25.958 35.9307C25.9481 35.9732 25.9567 36.0503 26.011 36.1763C26.0625 36.3089 26.2609 36.576 26.3665 36.9112C26.5191 37.4461 26.8805 38.0753 27.143 38.3318C27.22 38.4034 27.2803 38.4872 27.3273 38.5778L27.3337 38.5921C27.4904 38.9238 27.5018 39.3595 27.6322 39.5989L27.6399 39.6081C27.6405 39.6095 27.6412 39.6108 27.6419 39.6122C27.6982 39.7245 27.7108 39.832 27.7028 39.9052C27.6998 39.9368 27.6755 39.9596 27.6473 39.971C27.6473 39.971 27.6472 39.971 27.6472 39.971C27.612 39.9852 27.5701 39.9803 27.5529 39.9518C27.5195 39.8956 27.4728 39.8409 27.4032 39.7912C27.2853 39.7143 27.1364 39.6111 26.9626 39.4905C26.6828 39.2922 26.6175 39.1216 26.5579 38.927L26.5638 38.9402C26.5106 38.7766 26.4556 38.5849 26.2299 38.3015C25.9508 37.9554 25.6583 37.6872 25.4408 37.3238C25.3379 37.1805 25.3018 37.1784 24.9951 36.7039C24.957 36.6361 24.9195 36.5645 24.8867 36.4924C24.8222 36.2445 24.3184 36.1576 24.0335 35.4536C23.8922 35.1237 23.866 34.8939 23.8771 34.5385C23.8771 34.5376 23.8771 34.5368 23.8771 34.536C23.8499 34.0842 23.5844 33.7951 23.3267 33.5612C23.0106 33.2885 22.6448 33.263 22.1548 32.4966C22.0666 32.3349 21.9589 32.1588 21.8885 31.7782C21.7876 31.3512 21.7099 30.37 21.8043 29.7597C21.8715 29.1861 21.9634 28.6886 21.9722 28.3479C21.981 27.9368 22.0055 27.4156 22.0562 26.932C22.0842 26.6341 22.1523 26.2802 22.2813 25.9505C22.3695 25.7242 22.476 25.4868 22.6122 25.249C22.8575 24.8182 23.1591 24.309 23.5901 23.871C23.7556 23.6962 23.9867 23.3449 24.3803 23.0029C24.7645 22.6546 25.3969 22.3846 25.9355 22.4038C26.0201 22.4046 26.1041 22.4092 26.1892 22.4175C27.0423 22.5491 28.1667 22.6541 29.0188 23.0377C29.238 23.1465 29.4784 23.2267 29.6615 23.2946C30.4014 23.575 30.5837 23.5712 31.377 23.8266C31.4262 23.8459 31.4767 23.8691 31.5274 23.8968C31.8895 24.0808 32.2747 24.4237 32.5902 24.6748C32.6777 24.7398 32.7409 24.771 32.7426 24.8284C32.7466 24.8854 32.6279 24.9618 32.4693 24.9512C32.0207 24.9097 31.808 24.6766 31.5502 24.7277C31.3095 24.7711 31.136 24.7968 30.9872 24.7674C30.8783 24.7704 30.805 24.715 30.6476 24.5555C30.3168 24.2515 30.0062 24.6621 29.7585 24.5683C29.5352 24.4815 29.5722 24.3467 28.6932 24.1809C28.5441 24.1487 28.37 24.1297 28.1408 24.1376C27.3359 24.1784 26.6716 24.2729 26.1971 24.3135C26.0539 24.3394 25.9837 24.3796 25.9262 24.4204C25.8205 24.4783 25.5426 24.6128 24.9018 25.2459C24.7478 25.3722 24.6194 25.5285 24.5368 25.7035C24.4338 25.9169 24.293 26.2274 24.1578 26.6258C24.1004 26.7937 24.0671 26.9604 24.0469 27.1673C23.9821 27.7323 23.9571 28.1828 23.9959 28.4832C24.0907 29.1575 23.801 29.1423 23.6359 29.6943Z" fill="#A5845B"/>
<path d="M25.0422 16.7904C24.9111 17.1789 25.2949 17.5129 25.4506 17.9239C25.5012 18.0346 25.5307 18.1452 25.5167 18.2656C25.4739 18.757 25.1143 18.8621 25.437 19.5841C25.4749 19.6723 25.5081 19.7671 25.5355 19.8656C25.6525 20.309 25.8047 20.8655 26.0744 21.015C26.096 21.0264 26.1143 21.0387 26.1298 21.0518C26.3078 21.1789 26.0156 21.4812 26.3556 21.6739C26.5775 21.799 26.7558 21.8864 26.981 22.2305C26.9372 22.2265 26.9757 22.3282 27.0542 22.431C27.24 22.7447 28.4956 23.1176 28.9543 22.9518C29.0075 22.935 29.0608 22.9248 29.1137 22.92L29.1481 22.9244C29.6873 22.9675 29.9321 23.387 30.1429 23.589C30.1593 23.6067 30.1779 23.6241 30.196 23.6394C30.2709 23.703 30.3244 23.7623 30.366 23.8166C30.3835 23.8396 30.383 23.8726 30.3716 23.9009C30.3716 23.9009 30.3716 23.9009 30.3716 23.901C30.3575 23.9362 30.327 23.9643 30.2947 23.9564C30.2141 23.9368 30.11 23.9134 29.9874 23.8931C29.8709 23.8724 29.7375 23.8585 29.5911 23.862C29.2476 23.8741 29.1628 23.7906 29.0121 23.7317L29.0434 23.7357C28.9009 23.7057 28.7268 23.68 28.449 23.6936C27.7103 23.6917 27.2387 23.9953 26.29 23.2748C26.1959 23.1881 26.0995 23.0962 26.0064 22.972C25.8704 22.7919 25.1256 22.7841 24.7214 22.0337C24.6551 21.9068 24.5946 21.755 24.5464 21.5682C24.3852 20.9352 24.1837 20.6075 23.9515 20.2761C23.7466 20.0479 23.4079 19.8822 23.1823 19.1349C23.0752 18.7592 23.0443 18.3404 23.0677 17.9518C23.1004 17.4848 23.1725 17.0139 23.2456 16.5794C23.2825 16.3623 23.3191 16.1555 23.3557 15.9519C23.3743 15.8497 23.3923 15.7486 23.4156 15.6352C23.4487 15.5111 23.4353 15.4309 23.5839 15.1309C23.6093 15.0852 23.6522 15.0154 23.7186 14.9408C23.9791 14.6789 24.0777 14.6813 24.174 14.6311C24.2634 14.5952 24.3316 14.5748 24.3947 14.557C24.52 14.5224 24.623 14.5018 24.7265 14.4833C24.9311 14.4476 25.1266 14.426 25.328 14.4125C25.7303 14.3867 26.1504 14.3941 26.598 14.464C26.8534 14.5049 27.0184 14.5577 27.2062 14.6219C27.5854 14.7558 27.9817 14.8808 28.3882 15.0277C29.082 15.2813 29.9394 15.5837 30.5475 16.3264C30.6234 16.4209 30.6986 16.5231 30.77 16.6325C31.2386 17.4169 31.3109 18.0005 31.543 18.5782C31.7062 19.0207 31.8372 19.419 31.914 19.6969C32.0259 20.1015 32.0834 20.3326 32.1875 20.5535C32.2755 20.7401 32.3673 20.9202 32.5143 21.1817C32.7119 21.5329 32.8512 22.0533 32.8567 22.5407C32.8637 22.7856 32.7214 22.8042 32.5644 22.611C32.3393 22.3285 32.2989 22.0442 32.0777 21.9424C31.6366 21.74 31.4657 21.6451 31.4861 21.1908C31.4912 21.0797 31.4627 20.9965 31.423 20.9482C31.2635 20.7226 30.9791 20.6879 30.928 20.5015C30.8604 20.266 31.0895 20.1403 30.3973 19.2193C30.3682 19.1803 30.3383 19.1409 30.3067 19.0993C29.8238 18.463 29.4939 17.9223 29.338 17.8263C29.1928 17.7016 29.0524 17.6125 28.9218 17.5411C28.6954 17.4113 28.2506 17.0342 27.6726 16.7748C27.4968 16.6934 27.3165 16.6285 27.1432 16.5928C26.9262 16.5481 26.5758 16.4603 26.3626 16.4375C26.0397 16.4049 25.6698 16.3929 25.355 16.4151C25.1984 16.426 25.0531 16.4459 24.9531 16.4725C24.9044 16.4854 24.8651 16.5012 24.8635 16.5103C24.8638 16.5141 24.8721 16.5177 24.9122 16.5061C24.9554 16.4844 25.0156 16.4983 25.2229 16.2958C25.2801 16.235 25.319 16.1775 25.339 16.147C25.4364 15.9853 25.4243 15.9872 25.4372 15.9738C25.4442 15.9672 25.4454 15.9777 25.4456 15.9902C25.4456 16.0169 25.4396 16.0547 25.4302 16.0904C25.4114 16.162 25.3773 16.2278 25.3348 16.2898C25.25 16.4157 25.1296 16.5353 25.0422 16.7904Z" fill="#A5845B"/>
</g>
<defs>
<filter id="filter0_d_2894_143" x="0" y="0" width="83" height="467" filterUnits="userSpaceOnUse" color-interpolation-filters="sRGB">
<feFlood flood-opacity="0" result="BackgroundImageFix"/>
<feColorMatrix in="SourceAlpha" type="matrix" values="0 0 0 0 0 0 0 0 0 0 0 0 0 0 0 0 0 0 127 0" result="hardAlpha"/>
<feOffset dx="-4" dy="4"/>
<feGaussianBlur stdDeviation="2"/>
<feComposite in2="hardAlpha" operator="out"/>
<feColorMatrix type="matrix" values="0 0 0 0 0.678431 0 0 0 0 0.509804 0 0 0 0 0.32549 0 0 0 0.9 0"/>
<feBlend mode="normal" in2="BackgroundImageFix" result="effect1_dropShadow_2894_143"/>
<feBlend mode="normal" in="SourceGraphic" in2="effect1_dropShadow_2894_143" result="shape"/>
</filter>
<filter id="filter1_d_2894_143" x="27" y="205" width="37" height="57" filterUnits="userSpaceOnUse" color-interpolation-filters="sRGB">
<feFlood flood-opacity="0" result="BackgroundImageFix"/>
<feColorMatrix in="SourceAlpha" type="matrix" values="0 0 0 0 0 0 0 0 0 0 0 0 0 0 0 0 0 0 127 0" result="hardAlpha"/>
<feOffset dy="4"/>
<feGaussianBlur stdDeviation="2"/>
<feComposite in2="hardAlpha" operator="out"/>
<feColorMatrix type="matrix" values="0 0 0 0 0 0 0 0 0 0 0 0 0 0 0 0 0 0 0.25 0"/>
<feBlend mode="normal" in2="BackgroundImageFix" result="effect1_dropShadow_2894_143"/>
<feBlend mode="normal" in="SourceGraphic" in2="effect1_dropShadow_2894_143" result="shape"/>
</filter>
<filter id="filter2_d_2894_143" x="6.45068" y="390.59" width="73.499" height="75.0859" filterUnits="userSpaceOnUse" color-interpolation-filters="sRGB">
<feFlood flood-opacity="0" result="BackgroundImageFix"/>
<feColorMatrix in="SourceAlpha" type="matrix" values="0 0 0 0 0 0 0 0 0 0 0 0 0 0 0 0 0 0 127 0" result="hardAlpha"/>
<feOffset dy="4"/>
<feGaussianBlur stdDeviation="2"/>
<feComposite in2="hardAlpha" operator="out"/>
<feColorMatrix type="matrix" values="0 0 0 0 0 0 0 0 0 0 0 0 0 0 0 0 0 0 0.25 0"/>
<feBlend mode="normal" in2="BackgroundImageFix" result="effect1_dropShadow_2894_143"/>
<feBlend mode="normal" in="SourceGraphic" in2="effect1_dropShadow_2894_143" result="shape"/>
</filter>
<filter id="filter3_d_2894_143" x="6.06104" y="1.61328" width="74.5811" height="74.0469" filterUnits="userSpaceOnUse" color-interpolation-filters="sRGB">
<feFlood flood-opacity="0" result="BackgroundImageFix"/>
<feColorMatrix in="SourceAlpha" type="matrix" values="0 0 0 0 0 0 0 0 0 0 0 0 0 0 0 0 0 0 127 0" result="hardAlpha"/>
<feOffset dy="4"/>
<feGaussianBlur stdDeviation="2"/>
<feComposite in2="hardAlpha" operator="out"/>
<feColorMatrix type="matrix" values="0 0 0 0 0 0 0 0 0 0 0 0 0 0 0 0 0 0 0.25 0"/>
<feBlend mode="normal" in2="BackgroundImageFix" result="effect1_dropShadow_2894_143"/>
<feBlend mode="normal" in="SourceGraphic" in2="effect1_dropShadow_2894_143" result="shape"/>
</filter>
</defs>
</svg>
