<svg width="353" height="20" viewBox="0 0 353 20" fill="none" xmlns="http://www.w3.org/2000/svg">
<line y1="10.5" x2="143" y2="10.5" stroke="#A77B4B"/>
<line x1="210" y1="10.5" x2="353" y2="10.5" stroke="#A77B4B"/>
<path d="M171.024 4.01855C175.126 -0.0931092 181.051 -0.613215 184.3 2.53613L182.396 2.70703C178.701 3.04003 175.911 6.0744 175.911 9.76562V9.97266L175.915 9.97656C175.822 11.8889 174.405 13.482 172.47 13.8018L167.91 14.5537C167.544 13.4509 167.413 12.2333 167.558 10.9307C167.817 8.59998 168.907 6.29412 170.664 4.39355L171.024 4.01855Z" stroke="#A77B4B"/>
<path d="M186.081 5.40723C186.455 6.5192 186.59 7.75477 186.444 9.06934C186.168 11.5546 184.936 14.0133 182.977 15.9824C181.142 17.8259 178.859 19.0155 176.532 19.3848L176.066 19.4482C175.715 19.4862 175.363 19.5049 175.012 19.5049C172.882 19.5049 171.003 18.7596 169.625 17.3818C169.606 17.3631 169.588 17.3433 169.569 17.3242L172.952 16.7686H172.953C176.403 16.1989 178.911 13.2515 178.911 9.77539C178.911 7.72455 180.407 6.02491 182.438 5.72949L182.443 5.73438L182.676 5.71289L186.081 5.40723Z" stroke="#A77B4B"/>
</svg>
