<svg width="338" height="190" viewBox="0 0 338 190" fill="none" xmlns="http://www.w3.org/2000/svg">
<path d="M337.5 0.5V189.5H0.5V0.5H337.5Z" fill="#C1A78C" stroke="#621B14"/>
<line x1="0.25" y1="-0.25" x2="24.4886" y2="-0.25" transform="matrix(-0.970143 0.242536 0.242536 0.970143 319 10)" stroke="#561C16" stroke-width="0.5" stroke-linecap="round"/>
<line x1="0.25" y1="-0.25" x2="34.1593" y2="-0.25" transform="matrix(-0.813734 0.581238 0.581238 0.813734 322 11)" stroke="#561C16" stroke-width="0.5" stroke-linecap="round"/>
<line x1="0.25" y1="-0.25" x2="23.0738" y2="-0.25" transform="matrix(-0.514496 0.857493 0.857493 0.514496 324 12)" stroke="#561C16" stroke-width="0.5" stroke-linecap="round"/>
<path d="M13.8874 94.8438H15.0344C15.0344 94.8438 14.6325 95.3795 14.4311 97.6675C14.2298 99.9556 14.7576 100.115 14.7576 100.115H7.72461L7.72467 99.2363" stroke="#621B14" stroke-width="0.24622"/>
<path d="M13.8874 94.6211H15.0344C15.0344 94.6211 14.6325 94.0854 14.4311 91.7973C14.2298 89.5093 14.7576 89.35 14.7576 89.35H7.72461L7.72467 90.2285" stroke="#621B14" stroke-width="0.24622"/>
<path d="M8.33822 94.7227C8.33822 94.7227 7.0005 93.9696 7.00016 92.2754C6.99981 90.5811 7.00016 90.2046 7.00016 90.2046H13.5947C13.5947 90.2046 13.0509 90.3928 13.2322 92.2754C13.4134 94.1579 14.1385 94.7227 14.1385 94.7227H8.33822Z" stroke="#621B14" stroke-width="0.24622"/>
<path d="M8.33822 94.7227C8.33822 94.7227 7.0005 95.4757 7.00016 97.1699C6.99981 98.8642 7.00016 99.2407 7.00016 99.2407H13.5947C13.5947 99.2407 13.0509 99.0525 13.2322 97.1699C13.4134 95.2874 14.1385 94.7227 14.1385 94.7227H8.33822Z" stroke="#621B14" stroke-width="0.24622"/>
<ellipse cx="11.2514" cy="106.363" rx="1.04328" ry="0.72503" transform="rotate(-90 11.2514 106.363)" fill="#621B14"/>
<path d="M11.2524 114.188V111.058" stroke="#621B14"/>
<path d="M11.3423 173.652L11.3423 118.358" stroke="#621B14"/>
<rect width="1.98292" height="1.98292" transform="matrix(-0.570678 -0.821174 0.570678 -0.821174 11.333 178.352)" fill="#621B14"/>
<ellipse cx="11.2498" cy="180.957" rx="1.04328" ry="0.543772" transform="rotate(-90 11.2498 180.957)" fill="#621B14"/>
<ellipse cx="1.04321" cy="0.72503" rx="1.04321" ry="0.72503" transform="matrix(0 1 1 0 10.4448 82.5898)" fill="#621B14"/>
<path d="M11.1719 75.8125V78.9421" stroke="#621B14"/>
<path d="M11.2617 16.3555L11.2617 71.6464" stroke="#621B14"/>
<rect width="1.98283" height="1.98283" transform="matrix(-0.570702 0.821157 0.570702 0.821157 11.252 11.6484)" fill="#621B14"/>
<ellipse cx="1.04321" cy="0.543772" rx="1.04321" ry="0.543772" transform="matrix(0 1 1 0 10.6255 8)" fill="#621B14"/>
<path d="M329.853 93.8477H331C331 93.8477 330.598 94.3834 330.397 96.6714C330.196 98.9595 330.723 99.1187 330.723 99.1187H323.69L323.69 98.2402" stroke="#621B14" stroke-width="0.24622"/>
<path d="M329.853 93.6211H331C331 93.6211 330.598 93.0854 330.397 90.7973C330.196 88.5093 330.723 88.35 330.723 88.35H323.69L323.69 89.2285" stroke="#621B14" stroke-width="0.24622"/>
<path d="M324.304 93.7227C324.304 93.7227 322.966 92.9696 322.966 91.2754C322.966 89.5811 322.966 89.2046 322.966 89.2046H329.561C329.561 89.2046 329.017 89.3928 329.198 91.2754C329.379 93.1579 330.104 93.7227 330.104 93.7227H324.304Z" stroke="#621B14" stroke-width="0.24622"/>
<path d="M324.304 93.7227C324.304 93.7227 322.966 94.4757 322.966 96.1699C322.966 97.8642 322.966 98.2407 322.966 98.2407H329.561C329.561 98.2407 329.017 98.0525 329.198 96.1699C329.379 94.2874 330.104 93.7227 330.104 93.7227H324.304Z" stroke="#621B14" stroke-width="0.24622"/>
<ellipse cx="327.217" cy="105.363" rx="1.04328" ry="0.72503" transform="rotate(-90 327.217 105.363)" fill="#621B14"/>
<path d="M327.218 113.188V110.058" stroke="#621B14"/>
<path d="M327.308 172.652V117.358" stroke="#621B14"/>
<rect width="1.98292" height="1.98292" transform="matrix(-0.570678 -0.821174 0.570678 -0.821174 327.299 177.352)" fill="#621B14"/>
<ellipse cx="327.216" cy="179.957" rx="1.04328" ry="0.543772" transform="rotate(-90 327.216 179.957)" fill="#621B14"/>
<ellipse cx="1.04321" cy="0.72503" rx="1.04321" ry="0.72503" transform="matrix(0 1 1 0 326.411 81.5898)" fill="#621B14"/>
<path d="M327.138 74.8125V77.9421" stroke="#621B14"/>
<path d="M327.228 15.3555V70.6464" stroke="#621B14"/>
<rect width="1.98283" height="1.98283" transform="matrix(-0.570702 0.821157 0.570702 0.821157 327.218 10.6484)" fill="#621B14"/>
<ellipse cx="1.04321" cy="0.543772" rx="1.04321" ry="0.543772" transform="matrix(0 1 1 0 326.591 7)" fill="#621B14"/>
<path d="M169.153 183.889V185.036C169.153 185.036 168.618 184.634 166.33 184.433C164.041 184.232 163.882 184.76 163.882 184.76V177.727L164.761 177.727" stroke="#621B14" stroke-width="0.24622"/>
<path d="M169.377 183.889V185.036C169.377 185.036 169.913 184.634 172.201 184.433C174.489 184.232 174.649 184.76 174.649 184.76V177.727L173.77 177.727" stroke="#621B14" stroke-width="0.24622"/>
<path d="M169.276 178.342C169.276 178.342 170.029 177.004 171.724 177.004C173.418 177.004 173.794 177.004 173.794 177.004V183.599C173.794 183.599 173.606 183.055 171.724 183.236C169.841 183.417 169.276 184.142 169.276 184.142V178.342Z" stroke="#621B14" stroke-width="0.24622"/>
<path d="M169.276 178.342C169.276 178.342 168.523 177.004 166.829 177.004C165.135 177.004 164.758 177.004 164.758 177.004V183.599C164.758 183.599 164.947 183.055 166.829 183.236C168.712 183.417 169.276 184.142 169.276 184.142V178.342Z" stroke="#621B14" stroke-width="0.24622"/>
<ellipse cx="157.638" cy="181.256" rx="1.04328" ry="0.72503" fill="#621B14"/>
<path d="M149.811 181.258H152.94" stroke="#621B14"/>
<path d="M90.3491 181.348H145.643" stroke="#621B14"/>
<rect width="1.98292" height="1.98292" transform="matrix(0.821174 -0.570678 0.821174 0.570678 85.6484 181.336)" fill="#621B14"/>
<ellipse cx="83.0433" cy="181.255" rx="1.04328" ry="0.543772" fill="#621B14"/>
<ellipse cx="1.04321" cy="0.72503" rx="1.04321" ry="0.72503" transform="matrix(-1 0 0 1 181.408 180.453)" fill="#621B14"/>
<path d="M188.189 181.18H185.06" stroke="#621B14"/>
<path d="M247.644 181.27H192.353" stroke="#621B14"/>
<rect width="1.98283" height="1.98283" transform="matrix(-0.821157 -0.570702 -0.821157 0.570702 252.352 181.258)" fill="#621B14"/>
<ellipse cx="1.04321" cy="0.543772" rx="1.04321" ry="0.543772" transform="matrix(-1 0 0 1 256 180.633)" fill="#621B14"/>
<line x1="20.3032" y1="11.8181" x2="43.8181" y2="17.6968" stroke="#561C16" stroke-width="0.5" stroke-linecap="round"/>
<line x1="17.3487" y1="12.9419" x2="44.9419" y2="32.6513" stroke="#561C16" stroke-width="0.5" stroke-linecap="round"/>
<line x1="15.343" y1="14.0857" x2="27.0857" y2="33.657" stroke="#561C16" stroke-width="0.5" stroke-linecap="round"/>
<line x1="0.25" y1="-0.25" x2="24.4886" y2="-0.25" transform="matrix(0.970143 -0.242536 -0.242536 -0.970143 23 181)" stroke="#561C16" stroke-width="0.5" stroke-linecap="round"/>
<line x1="0.25" y1="-0.25" x2="34.1593" y2="-0.25" transform="matrix(0.813734 -0.581238 -0.581238 -0.813734 20 180)" stroke="#561C16" stroke-width="0.5" stroke-linecap="round"/>
<line x1="0.25" y1="-0.25" x2="23.0738" y2="-0.25" transform="matrix(0.514496 -0.857493 -0.857493 -0.514496 18 179)" stroke="#561C16" stroke-width="0.5" stroke-linecap="round"/>
<line x1="316.697" y1="179.182" x2="293.182" y2="173.303" stroke="#561C16" stroke-width="0.5" stroke-linecap="round"/>
<line x1="319.651" y1="178.058" x2="292.058" y2="158.349" stroke="#561C16" stroke-width="0.5" stroke-linecap="round"/>
<line x1="321.657" y1="176.914" x2="309.914" y2="157.343" stroke="#561C16" stroke-width="0.5" stroke-linecap="round"/>
<ellipse cx="90.6385" cy="8.04925" rx="1.04328" ry="0.72503" fill="#621B14"/>
<path d="M82.8105 8.05078H85.9404" stroke="#621B14"/>
<path d="M23.3491 8.14062L78.6435 8.14063" stroke="#621B14"/>
<rect width="1.98292" height="1.98292" transform="matrix(0.821174 -0.570678 0.821174 0.570678 18.6484 8.13281)" fill="#621B14"/>
<ellipse cx="16.0433" cy="8.04768" rx="1.04328" ry="0.543772" fill="#621B14"/>
<ellipse cx="323.638" cy="6.04144" rx="1.04328" ry="0.72503" fill="#621B14"/>
<path d="M315.811 6.04297H318.94" stroke="#621B14"/>
<path d="M256.349 6.13281L311.643 6.13281" stroke="#621B14"/>
<rect width="1.98292" height="1.98292" transform="matrix(0.821174 -0.570678 0.821174 0.570678 251.648 6.125)" fill="#621B14"/>
<ellipse cx="249.043" cy="6.04377" rx="1.04328" ry="0.543772" fill="#621B14"/>
</svg>
