<svg width="83" height="467" viewBox="0 0 83 467" fill="none" xmlns="http://www.w3.org/2000/svg">
<g filter="url(#filter0_d_2894_165)">
<path d="M0 0H43C60.6731 0 75 14.3269 75 32V454C75 456.761 72.7614 459 70 459H0V0Z" fill="#621B14"/>
</g>
<g filter="url(#filter1_d_2894_165)">
<path d="M27.3715 254L23 249.651L43.2569 229.5L23 209.349L27.3715 205L52 229.5L27.3715 254Z" fill="#AD8253"/>
</g>
<g filter="url(#filter2_d_2894_165)">
<path d="M63.9475 61.6712C63.8881 61.9862 63.8489 62.2902 63.8218 62.5918C63.8048 63.3155 63.4062 64.3208 63.2299 64.7837C62.8668 65.6309 62.3833 66.193 61.8284 66.7549C61.6097 66.9696 61.3547 67.1794 61.0705 67.3637C60.7991 67.5401 60.5491 67.6706 60.3333 67.7737C59.1618 68.3326 58.302 68.3446 57.3541 68.3913C56.7281 68.4204 56.1134 68.4103 55.2173 68.3883C55.086 68.3844 54.9549 68.3782 54.824 68.3699C53.2864 68.2857 52.4029 66.8987 51.9923 66.3508C51.2348 65.2976 51.3196 64.6242 51.0952 64.0641C51.0584 63.9492 50.954 63.6804 50.9071 63.47C50.8553 63.255 50.8265 63.072 50.7991 62.9158C50.7962 62.9001 50.7934 62.8848 50.7906 62.8697C50.6273 61.8577 50.8932 61.569 51.1314 60.6177C51.2212 60.3031 51.3716 59.9384 51.644 59.555C51.9248 59.1626 52.2574 58.8913 52.5864 58.6864C53.0322 58.4043 53.4979 58.1853 53.8288 58.006C53.8811 57.9764 53.9314 57.9368 54.0857 57.9027C54.1812 57.8864 54.3071 57.8722 54.4841 57.9495C54.6538 58.0264 54.7526 58.1654 54.7935 58.2509C54.916 58.5722 54.8529 58.5902 54.8585 58.6699C54.8432 58.7899 54.8224 58.8582 54.8027 58.9298C54.7627 59.0682 54.7212 59.1853 54.6803 59.3036C54.5995 59.5355 54.5156 59.7699 54.47 59.9719C54.4608 60.0184 54.4525 60.0639 54.4452 60.1096C54.3893 60.4805 54.3988 60.8486 54.9041 61.4696C54.8284 61.4072 54.9192 61.4837 54.996 61.5008C55.0802 61.5281 55.1794 61.5503 55.2839 61.5692C55.4936 61.6068 55.721 61.6314 55.9535 61.6506C56.4186 61.6883 56.9047 61.7038 57.3805 61.7112C57.8517 61.7273 58.2136 61.5562 58.5865 61.2855C58.9229 61.0211 59.1018 60.3691 59.2562 60.0136C59.2568 60.012 59.2574 60.0105 59.258 60.0089C59.4708 59.482 59.5721 59.0975 59.6337 58.5145C59.7206 57.7733 59.7994 56.9954 59.8644 56.3547L59.8675 56.3903C59.8526 56.1198 59.8283 55.8729 59.793 55.6555C59.7512 55.3769 59.698 55.1565 59.7025 54.9321C59.704 54.898 59.701 54.8576 59.6959 54.8182C59.684 54.7331 59.6952 54.6817 59.7243 54.6711C59.7243 54.6711 59.7244 54.6711 59.7244 54.6711C59.7589 54.6586 59.8211 54.7007 59.8597 54.8228C59.8682 54.8518 59.8758 54.8822 59.8817 54.9138C59.954 55.2573 60.151 55.7523 60.2983 56.3195L60.301 56.3505C60.3322 56.6184 60.3684 56.9054 60.4086 57.2069C60.4834 57.7766 60.5029 58.1922 60.4767 58.5852C60.4509 59.117 60.2979 59.7235 59.9329 60.3581C59.7166 60.7006 59.684 61.1234 59.1111 61.7765C59.0707 61.8141 59.0273 61.8497 58.9816 61.8824C58.5777 62.2211 57.9216 62.5149 57.375 62.5188C56.8938 62.5509 56.4337 62.5804 55.9551 62.5863C55.716 62.5887 55.472 62.5859 55.2082 62.5636C55.0756 62.5518 54.9386 62.5362 54.7795 62.5018C54.6989 62.4838 54.6145 62.4625 54.5091 62.4215C54.4046 62.3729 54.2696 62.3401 54.0755 62.1118C53.9146 61.9082 53.651 61.6414 53.4639 61.2046C53.2779 60.7695 53.2602 60.2927 53.3095 59.878C53.3401 59.6173 53.4 59.4015 53.4636 59.1881C53.5153 59.0175 53.565 58.8616 53.6022 58.7268C53.6205 58.6614 53.6361 58.5946 53.6403 58.5688C53.6463 58.5668 53.6273 58.528 53.6546 58.6849C53.6704 58.7358 53.6788 58.8057 53.7889 58.9323C53.8855 59.0554 54.1334 59.134 54.2348 59.1183C54.4607 59.0947 54.4615 59.0529 54.4942 59.0416C53.9612 59.3661 53.6118 59.5628 53.2601 59.8252C52.8466 60.1409 52.5995 60.5408 52.5622 60.9299C52.5057 61.3914 52.4621 62.0365 52.4692 62.8011C52.47 62.9297 52.4749 63.0521 52.4868 63.1609C52.4982 63.2736 52.5186 63.3562 52.5834 63.6079C52.604 63.7032 52.6236 63.7997 52.6425 63.8973C52.7756 64.6128 52.9046 65.186 53.0797 65.3723C53.8717 66.4696 54.4051 66.7551 54.9659 66.6726C55.5987 66.6286 56.3537 66.5574 57.0865 66.4083C57.5339 66.3138 57.9244 66.2257 58.3509 66.0605C58.6109 65.96 58.8699 65.8349 59.133 65.6821C59.5366 65.4498 59.8436 65.2418 60.1627 64.9567C60.6428 64.5293 61.1352 64.056 61.3195 63.7547C61.5583 63.3508 61.6985 63.1796 61.7872 62.9926C61.8788 62.8098 61.9451 62.5971 61.9916 62.3476C62.1676 61.3295 62.3178 60.2719 62.3059 59.5535C62.2822 58.555 62.2819 58.2382 62.0437 57.7813C62.0232 57.7402 62.0017 57.6987 61.9784 57.6552C61.6584 57.0294 61.2733 56.2172 61.1477 56.207C60.3808 55.7164 59.6007 55.2023 58.7755 54.6518C58.31 54.3354 57.7472 54.0596 57.1003 53.5984C56.3887 53.069 55.8785 52.4915 55.3675 52.0435C55.3631 52.0396 55.3586 52.0357 55.3542 52.0318C55.1313 51.8242 54.7805 51.6234 54.374 51.1955C53.8998 50.6468 53.8145 50.18 53.6809 49.7999C53.5692 49.4261 53.4372 49.0779 53.3725 49.0191C53.0803 48.61 53.0463 48.4133 52.9484 48.1817C52.8653 47.9606 52.7945 47.7571 52.7222 47.5625C52.5796 47.1765 52.4274 46.8163 52.2621 46.5641C51.7724 45.852 51.6555 44.9364 51.6417 44.2563C51.6249 43.2988 51.5764 42.3809 51.7389 41.2822C51.8015 40.9351 51.8766 40.582 52 40.2096C52.0839 39.9534 52.2089 39.6669 52.3396 39.4322C52.5214 39.1011 52.7094 38.8042 52.8676 38.5206C53.2229 37.9226 53.4588 37.6477 53.7074 37.1874C54.0611 36.5729 54.2732 35.9824 54.3493 35.2978C54.4258 34.6034 54.5311 33.8887 54.4962 33.3994C54.397 32.304 54.298 31.2873 53.8826 30.993C53.6026 30.7844 53.4885 30.6513 53.3342 30.5599C53.1878 30.468 53.0312 30.4119 52.8713 30.3773C52.7887 30.3593 52.7048 30.347 52.6209 30.3389C51.4651 30.2411 50.7266 30.2846 49.9544 30.3507C49.6656 30.3731 49.3792 30.4385 49.0905 30.5729C48.6088 30.7779 48.1181 30.8639 47.9559 31.3494C47.9557 31.3498 47.9556 31.3502 47.9554 31.3506C47.7982 31.7633 47.6198 32.1852 47.7412 32.4927C47.9251 32.9587 47.9738 33.4627 48.1414 33.8479C48.3288 34.3057 48.3738 34.7197 48.6526 34.831C48.7627 34.8781 48.9113 34.9062 49.0069 34.8944C49.1243 34.8724 49.2394 34.8465 49.3503 34.8141C49.7359 34.7109 49.8257 34.5675 49.8572 34.635C49.8944 34.7228 49.6819 34.9959 49.276 35.1601C49.2195 35.1847 49.163 35.2072 49.1067 35.2281C48.8815 35.2953 48.7139 35.2721 48.5304 35.2291C48.1986 35.1452 48.0008 34.8515 47.9009 34.642C47.7945 34.4233 47.7291 34.2293 47.648 34.0875C47.4597 33.7413 47.3675 33.4239 47.2387 33.2183C47.1392 33.0532 47.0455 32.9177 46.9535 32.7939C46.5531 32.0191 46.8454 31.3716 46.9888 30.9555C47.1617 30.3515 48.0068 29.861 48.5482 29.8092C48.6239 29.794 48.6871 29.7797 48.73 29.7679C49.1559 29.6134 49.5357 29.5345 49.8737 29.4814C50.6681 29.3369 51.2601 29.0822 51.939 29.1081C52.2119 29.1189 52.407 29.1518 52.6551 29.1916C52.8657 29.2234 53.1143 29.2613 53.4602 29.3882C53.7898 29.4853 54.2898 29.8735 54.4945 30.0406C55.4702 30.7111 55.572 31.9522 55.8106 33.1879C55.836 33.3225 55.8492 33.4443 55.8591 33.5628C55.9087 34.2779 55.8635 34.8612 55.8524 35.3977C55.8355 36.3511 55.5434 37.2751 55.2198 37.9455C54.9836 38.4819 54.6066 39.0717 54.489 39.3268C54.3145 39.7013 54.1506 40.0073 54.0298 40.2726C53.8331 40.6906 53.7746 41.1232 53.7141 41.5815C53.6944 41.7555 53.6858 41.9667 53.6828 42.1639C53.674 42.6673 53.6694 43.3764 53.6689 44.2126C53.6714 44.7422 53.6978 45.1625 53.9229 45.5235C54.2088 46.0068 54.3703 46.4722 54.5184 46.9087C54.5913 47.1264 54.6581 47.3381 54.7234 47.5268C54.7781 47.7012 54.8879 47.9244 54.8534 47.8642C55.4377 48.726 55.4369 49.3189 55.6379 49.6921C55.6896 49.8069 55.7513 49.8928 55.7645 49.8974C55.8898 50.0324 56.1945 50.2224 56.587 50.5347C57.2016 51.033 57.7409 51.604 58.2656 51.9798C58.687 52.2801 59.2962 52.5876 59.8963 52.9889C60.7148 53.535 61.5309 54.0804 62.2383 54.5332C62.9394 55.0238 63.1169 55.5218 63.3223 55.8709C63.5098 56.2312 63.6471 56.5122 63.7766 56.7301C63.8086 56.7863 63.8382 56.8395 63.8675 56.894C64.1852 57.4556 64.331 58.1164 64.3456 58.5214C64.3676 58.9316 64.3475 59.1638 64.3352 59.3945C64.3005 60.1464 64.1387 60.6074 63.9475 61.6712Z" fill="#A5845B"/>
<path d="M72.3254 45.9761C72.3308 46.3922 72.5825 46.9723 72.5456 47.666C72.4742 48.6717 72.368 49.4364 71.9792 50.3645C71.8867 50.5738 71.7696 50.7725 71.6351 50.9534C71.1703 51.5602 70.7772 51.8086 70.4934 52.0118C70.0053 52.3689 69.5872 52.5776 68.9803 52.8585C68.6314 53.014 68.2429 53.1602 67.7861 53.3383C67.7448 53.3547 67.6998 53.3734 67.6499 53.3941C66.73 53.7984 65.7264 53.7905 64.9483 53.769C64.6477 53.7626 64.2792 53.7057 63.9589 53.5453C63.6386 53.3856 63.4465 53.2023 63.2963 53.0781C62.9869 52.8304 62.7489 52.4557 62.635 52.1831C62.5062 51.8904 62.4639 51.5979 62.455 51.3621C62.4496 50.9454 62.5433 50.6937 62.7509 50.4042C63.1537 49.9368 63.524 49.936 63.9427 49.6104C64.0329 49.5432 64.1352 49.4386 64.25 49.2918C64.4039 49.0948 64.5595 48.8987 64.7177 48.7209C65.0768 48.2909 65.4025 47.8312 65.6249 47.3989C65.7048 47.214 65.7868 47.0493 65.8654 46.871C65.9442 46.694 66.033 46.4412 66.1155 46.1284C66.2549 45.5928 66.2698 44.7521 66.2522 43.9537C66.2509 43.2167 66.008 42.6639 65.5727 42.2409C65.3824 42.0231 65.2275 41.8298 65.097 41.6894C64.8777 41.4515 64.6929 41.2082 64.5019 40.9903C64.0012 40.4496 63.4297 39.7975 63.0459 39.3005L63.0683 39.3194C62.9822 39.2375 62.8983 39.1645 62.8179 39.1036C62.6652 38.9876 62.5363 38.903 62.4163 38.8397C62.3865 38.8245 62.3463 38.8116 62.3069 38.8004C62.2421 38.7826 62.2092 38.7521 62.2101 38.7214C62.2101 38.7213 62.2101 38.7213 62.2101 38.7213C62.2112 38.6839 62.2589 38.6447 62.3552 38.6471C62.3899 38.6483 62.4269 38.6513 62.4657 38.6576C62.7158 38.717 62.993 38.8517 63.2883 39.0158L63.3075 39.0319C63.5219 39.1939 63.767 39.3611 64.039 39.5303C64.5623 39.8573 64.854 40.093 65.1348 40.4155C65.4526 40.7779 65.6481 41.2293 66.1271 41.8044C66.2088 41.8993 66.3139 42.0095 66.4274 42.1503C66.8878 42.7132 67.0316 43.3714 67.1076 43.9166C67.2006 44.665 67.3314 45.325 67.1902 46.3262C67.1153 46.7561 66.9613 47.2861 66.7661 47.7462C66.7657 47.7473 66.7652 47.7485 66.7648 47.7496C66.3827 48.6395 66.0686 49.0958 65.6817 49.6382C65.4453 49.9527 65.2875 50.2771 64.8659 50.7065C64.594 50.9791 64.2405 51.2644 64.1808 51.3621C64.2027 51.3166 64.1496 51.4125 64.1399 51.4476C64.1243 51.4939 64.1119 51.5253 64.1111 51.5772C64.1341 51.6747 64.1505 51.7408 64.1851 51.8134C64.1996 51.8429 64.2196 51.8735 64.2473 51.9065C64.6068 52.2732 64.6195 52.2802 64.945 52.3043C66.0037 52.3078 66.5084 52.1167 67.1939 51.6731C67.4844 51.5036 67.788 51.3249 68.0581 51.1258C68.2901 50.9513 68.572 50.7163 68.8412 50.4311C68.8521 50.4196 68.8627 50.4082 68.8734 50.3966C69.2997 49.9551 69.6043 49.63 69.7453 49.3381C70.0733 48.6582 70.4584 47.8191 70.5926 47.3447C70.6223 47.2324 70.6355 47.1481 70.6194 46.9675C70.6038 46.7909 70.5534 46.5289 70.521 46.2469C70.468 45.567 70.5395 45.3886 70.5135 45.104C70.4994 44.8441 70.4485 44.6006 70.3707 44.3658C70.2477 44.0002 70.097 43.6715 69.9497 43.3861C69.8441 43.1781 69.7289 42.9767 69.5947 42.6676C69.4071 42.243 69.0755 41.6719 68.7559 41.2591C68.4356 40.8444 68.2268 40.6265 67.8391 40.3505C67.6425 40.2105 67.4529 40.069 67.2817 39.9487C67.1968 39.889 67.1152 39.8344 67.054 39.7979C67.0011 39.7605 66.9284 39.7488 67.063 39.7776C66.6705 39.7005 66.5046 39.6324 66.2822 39.582C66.0692 39.5301 65.85 39.4878 65.6198 39.4518C65.4282 39.4217 65.227 39.3991 65.0182 39.3828C63.9684 39.3066 62.7747 39.2746 61.6825 39.3363C61.2016 39.3736 60.8393 39.3958 60.37 39.5146C60.2625 39.5291 59.7178 39.7728 59.2026 39.854C58.4464 39.9625 57.8987 40.0037 57.2951 40.0979C57.2241 40.1071 57.1549 40.1193 57.0878 40.1343C56.9382 40.1676 56.7914 40.2214 56.6705 40.2886C56.6312 40.2834 56.3872 40.5437 56.2781 40.7607C56.151 40.9932 56.0648 41.262 56.0306 41.551C55.9609 42.2502 55.885 42.9816 55.8726 43.606C55.8704 43.9665 55.886 44.3133 55.9324 44.3818C56.0816 44.6397 56.1546 44.8507 56.2302 45.0033C56.305 45.1688 56.3579 45.1791 56.273 45.1674C56.8894 45.2816 57.4748 45.3296 57.9223 45.3629C58.3415 45.393 58.7623 45.4025 58.9563 45.3743C59.415 45.2521 59.7402 45.1135 59.9151 44.843C60.1194 44.499 60.2191 43.907 60.0863 43.2099C60.0823 43.1926 60.0781 43.175 60.0738 43.1581C59.9217 42.567 59.7368 41.6197 59.3344 41.3518C58.936 41.1785 58.4355 41.1168 57.9738 41.0714C57.3474 41.0293 57.4557 40.8726 58.1069 40.7687C58.6139 40.7004 59.0915 40.7279 59.5104 40.853C59.994 41.046 60.1261 41.3734 60.3173 41.5581C60.7697 42.077 60.9727 42.4758 61.0979 42.9528C61.1911 43.365 61.1792 43.7831 61.0204 44.3311C60.9121 44.6775 60.8249 44.9771 60.6435 45.3008C60.1915 46.0141 59.6833 46.2525 59.331 46.4543C59.0056 46.5693 58.9124 46.5639 58.7424 46.5743C58.1075 46.5564 58.0334 46.4655 56.1283 46.3346C55.6092 46.2717 55.3293 45.8766 55.1921 45.6632C55.0443 45.4292 54.941 45.2123 54.846 45.0914C54.6731 44.855 54.5798 44.5259 54.5413 44.3077C54.4975 44.0724 54.4763 43.8787 54.4546 43.6883C54.3773 42.8104 54.3877 42.1235 54.3826 41.4776C54.4253 40.3523 54.7382 39.4946 55.6009 38.7555C56.0521 38.4277 56.4964 38.2684 56.9035 38.1727C57.2741 38.0851 57.6067 38.0211 57.9059 37.9679C58.1812 37.9172 58.5625 37.8774 58.8526 37.8389C59.1132 37.8118 59.2809 37.7065 60.0072 37.5443C60.4586 37.4475 61.0865 37.418 61.5867 37.4082C62.5964 37.396 63.5422 37.4523 64.4245 37.4571C64.6409 37.4592 64.8766 37.4647 65.1323 37.4746C65.4753 37.4885 65.8522 37.5162 66.2604 37.5771C66.6426 37.626 67.1943 37.778 67.3851 37.813C67.7441 37.882 67.8886 37.9824 68.0411 38.062C68.1858 38.1446 68.3021 38.2223 68.4123 38.2976C68.6308 38.4481 68.8212 38.5893 69.0071 38.7208C69.5196 39.0637 70.0507 39.6404 70.3455 40.0437C70.8619 40.7397 71.172 41.3064 71.4534 41.918C71.5282 42.0734 71.659 42.3007 71.7638 42.4792C72.0293 42.9287 72.2015 43.3083 72.3045 43.6272C72.4494 44.0733 72.4732 44.4235 72.4599 44.8006C72.4518 45.1502 72.3568 45.6871 72.3247 45.9539C72.3249 45.9613 72.3251 45.9687 72.3254 45.9761Z" fill="#A5845B"/>
<path d="M59.1123 28.5015C59.1183 28.3582 59.0355 28.239 58.9101 28.0771C58.6676 27.8536 58.2744 27.8344 58.0875 27.4561C57.9364 27.1598 57.8988 26.8991 57.8308 26.6298C57.8767 26.5469 57.8884 26.442 57.5827 26.3246C57.4251 26.265 57.25 26.1817 57.0819 26.0897C56.6783 25.8626 56.2256 25.6239 55.965 25.6864C55.6242 25.7736 55.6738 25.3003 55.2007 25.3346C55.1968 25.335 55.1928 25.3354 55.1888 25.3358C54.7134 25.3913 54.449 25.3222 54.0373 25.1914C53.927 25.1504 53.6554 25.1348 53.5464 25.1385C53.0017 25.2972 52.2863 25.6442 52.1639 25.9213C52.1532 25.9484 52.1436 25.9733 52.1476 25.9822L52.0202 26.0767C51.7916 26.2831 51.3872 26.3789 51.0895 26.499L51.0787 26.5079C51.003 26.5374 50.9366 26.5563 50.8871 26.5753C50.7938 26.6101 50.7154 26.635 50.6457 26.6521C50.6164 26.6593 50.5863 26.6456 50.565 26.6237C50.565 26.6236 50.565 26.6236 50.565 26.6236C50.5387 26.5962 50.527 26.5555 50.5503 26.5274C50.6162 26.4401 50.7475 26.315 50.8282 26.1848L50.8189 26.1926C50.8686 26.1069 50.9208 26.011 50.976 25.9041C51.179 25.5251 51.3675 25.4801 51.6743 25.3544L51.5569 25.4414C51.732 25.2805 51.8792 25.1972 52.0876 25.0212C52.4783 24.7018 52.7467 24.4257 53.1191 24.2023C53.4149 24.0709 53.5163 24.0719 53.6947 24.0483C53.8596 24.0331 54.0297 24.0376 54.2126 24.0637C54.704 24.1388 54.9955 24.0238 55.3635 23.9566C55.7161 23.8956 56.1411 23.8796 56.745 24.2538C57.1575 24.5153 57.4516 24.6372 57.7469 24.7135C57.9653 24.7639 58.1744 24.7554 58.4421 24.7885C58.6941 24.8274 59.1096 24.8916 59.5562 25.3983C59.6061 25.4445 59.6594 25.4981 59.7169 25.562C60.0602 25.9402 60.5444 26.6338 60.7367 27.4323C60.7838 27.6746 60.9255 28.2058 60.9353 28.5723C60.9584 28.955 60.9384 29.2599 60.9425 29.4956C60.9428 29.5111 60.9432 29.5262 60.9437 29.5409C60.9723 30.2564 61.0027 31.2429 60.8321 32.2117C60.8221 32.266 60.8123 32.3248 60.8024 32.3879C60.7568 32.654 60.7757 33.0094 60.6975 33.4902C60.6312 33.9672 60.3376 34.5786 59.9264 34.9385C59.5152 35.3252 59.1167 35.637 58.7373 35.882C58.5995 35.9703 58.458 36.0672 58.3484 36.1503C57.8143 36.6427 57.4004 36.6409 57.2351 36.7316C56.6614 37.0187 56.1035 37.534 55.7773 37.8142C55.4901 38.0651 55.3181 38.2323 55.1741 38.4148C55.0338 38.5946 54.9221 38.79 54.7851 39.1203C54.6236 39.5003 54.3529 39.9796 53.9781 40.3672C53.7776 40.5577 53.6938 40.4327 53.7317 40.1939C53.7872 39.8266 53.9694 39.5701 53.9043 39.3232C53.7769 38.8256 53.7538 38.5911 54.1858 38.2638C54.3327 38.1543 54.403 38.0359 54.4419 37.9142C54.5142 37.6825 54.4633 37.4389 54.6056 37.3028C54.8439 37.1025 54.9496 37.2457 55.871 36.0031C56.0174 35.8229 56.1693 35.6575 56.3345 35.5066C56.8433 35.1105 57.0687 34.9783 56.984 34.9804C57.3533 34.4965 57.6061 34.2756 57.8107 34.0628C57.9904 33.8804 58.3091 33.6706 58.612 33.4544C58.7915 33.3502 58.8928 33.2432 58.8746 32.817C58.8664 32.6425 58.8528 32.3847 58.8761 32.0339C58.9522 31.1352 59.0186 30.0534 58.9156 29.5296C58.9126 29.5141 58.9099 29.4989 58.9073 29.484C58.7813 28.9518 59.07 28.9647 59.1123 28.5015Z" fill="#A5845B"/>
<path d="M41.3018 19.492C41.29 19.4852 41.2781 19.4788 41.266 19.4728C40.8497 19.2564 40.2972 19.9658 39.5332 19.9019C39.2395 19.8797 39.0234 19.8185 38.8133 19.7496C38.5691 19.6286 38.3139 19.4965 37.9491 19.7095C37.7896 19.8055 37.713 19.8678 37.383 20.0555C36.8935 20.303 36.3068 20.6056 36.1046 20.8707C36.0504 20.9433 35.9945 20.9876 35.9366 21.0151C35.7133 21.115 35.4815 20.933 35.0662 21.288C34.9691 21.3668 34.8667 21.4359 34.7633 21.4922C34.4716 21.6721 34.1171 21.8269 33.6268 21.8904C33.5667 21.8983 33.4953 21.9099 33.4143 21.9229C33.0027 21.9765 32.3396 22.1599 31.7137 22.243C31.3211 22.291 30.9914 22.2909 30.774 22.339C30.3972 22.4151 30.0276 22.2997 29.6734 22.0933L29.5782 22.0419C29.4559 21.866 29.3241 21.7027 29.1966 21.6117C29.1793 21.5993 29.1626 21.5872 29.1465 21.5754C29.066 21.5186 29.005 21.4631 28.9591 21.413C28.9353 21.387 28.9337 21.3528 28.9455 21.3247C28.9456 21.3246 28.9456 21.3246 28.9456 21.3246C28.9603 21.2896 28.9959 21.2641 29.0354 21.2755C29.0959 21.2929 29.1666 21.3102 29.247 21.3254C29.4332 21.362 29.6635 21.4191 29.9337 21.5032C29.9501 21.5083 29.9662 21.5137 29.9817 21.5191L29.8897 21.4694C30.439 21.3735 30.5292 21.6736 31.3284 21.5666C31.4361 21.5471 31.5347 21.5204 31.6182 21.4882C32.0882 21.3108 32.4373 21.0391 33.0393 20.865C33.1506 20.8335 33.2724 20.8002 33.4147 20.7615C33.7458 20.6701 33.9437 20.4791 34.2098 20.2741C34.3847 20.0922 34.5272 19.8276 34.9999 19.5582C35.1622 19.4685 35.3586 19.3812 35.613 19.2939C36.0742 19.1348 36.3713 18.939 36.6399 18.732C36.944 18.4091 37.4981 17.6028 38.7531 17.4958C38.7645 17.4944 38.7764 17.4931 38.7887 17.4917C39.585 17.425 40.5217 17.3619 41.7332 17.7121C42.3986 17.9632 42.948 18.2701 43.3302 18.4427C43.7148 18.6137 44.1463 18.8392 44.5599 19.084C45.2212 19.4778 45.8478 20.0568 46.2774 20.842C46.3076 20.8978 46.338 20.9553 46.3693 21.0177C46.3849 21.0758 46.7823 21.6367 46.8551 22.1147C46.9553 22.6073 46.9197 23.047 46.8551 23.4454C46.7325 24.0944 46.7569 24.8434 46.3025 25.7222C46.2561 25.8068 46.2058 25.8909 46.1521 25.9734C45.8673 26.3609 45.4215 27.4272 44.3741 27.7905C43.3274 28.054 42.6196 27.797 42.1477 27.6442C42.1002 27.6267 42.0568 27.6097 42.0134 27.5925C41.6746 27.4537 41.4433 27.3507 41.2161 27.259C41.1025 27.2127 40.9899 27.1694 40.8634 27.1164C40.7348 27.0502 40.6038 27.0437 40.3965 26.8122C40.3518 26.7572 40.2881 26.6889 40.22 26.5857C40.1354 26.4624 40.0674 26.2611 40.0815 26.0703C40.0937 25.8484 40.122 25.6077 40.1896 25.358C40.263 25.1244 40.3499 24.793 40.6766 24.6753C40.7013 24.6686 40.7243 24.6655 40.7454 24.6647C40.926 24.6712 40.8746 24.7683 40.8825 24.7877C40.8779 24.8192 40.8645 24.839 40.846 24.8496C40.8275 24.8603 40.8022 24.8592 40.7754 24.8549C40.7604 24.8405 40.6769 24.8808 40.8271 24.8934C40.8142 24.9117 40.8052 24.9299 40.7969 24.9503C40.7227 25.1657 40.66 25.5835 40.8051 25.7924C40.8901 25.919 40.9618 26.0255 41.0151 26.1253C41.1579 26.1584 41.0839 25.9457 41.2239 26.2549C41.1216 26.1459 41.1142 26.2007 41.1329 26.2409C41.2247 26.4044 41.4606 26.4179 41.6257 26.3847C41.8009 26.3544 41.9558 26.294 42.096 26.3557C42.1671 26.3866 42.2157 26.4251 42.2756 26.4686C42.4082 26.5652 42.7511 26.8565 43.6799 26.554C43.7408 26.5283 43.8043 26.4954 43.8115 26.4799C43.9483 26.3655 44.0693 26.1548 44.1693 25.9127C44.276 25.6616 44.3242 25.448 44.4747 25.0983C44.5526 24.8931 44.5811 24.7323 44.6048 24.5555C44.6425 24.2949 44.7749 23.7115 44.9489 23.0636C45.0571 22.7039 45.0535 22.4315 44.9462 22.3216C44.9067 22.2649 44.8596 22.2311 44.6856 21.9513C44.4543 21.5762 43.9735 21.0508 43.4922 20.7771C43.0599 20.5147 42.6979 20.3364 42.4396 20.2649C41.7297 20.085 41.8478 19.8263 41.3018 19.492Z" fill="#A5845B"/>
<path d="M7.34739 17.436C7.3307 17.3019 7.30707 17.1731 7.27728 17.0481C7.1829 16.6445 7.07108 16.2408 7.05201 15.7468C7.04289 15.5027 7.06776 15.2303 7.12847 14.9753C7.184 14.729 7.28694 14.4659 7.24502 14.4578C7.42149 13.7635 7.65345 13.3572 7.84319 12.9407C7.90213 12.8203 7.96713 12.6988 8.03923 12.5766C8.25017 12.219 8.44798 11.9396 8.63209 11.7054C9.62726 10.5243 10.402 10.7363 11.1333 10.3782C11.3664 10.2667 11.6297 10.1346 11.9329 9.981C12.2066 9.84222 12.4741 9.72153 12.7281 9.60503C13.4091 9.3539 13.6783 9.43374 14.0322 9.40212C14.3639 9.39216 14.6676 9.38448 14.957 9.36693C15.9575 9.30241 16.7786 9.39118 17.3264 9.39504C17.466 9.39995 17.542 9.39681 17.7483 9.45372C18.2157 9.59363 18.3658 9.80363 19.1972 10.1826C19.3248 10.2536 19.4733 10.3265 19.6476 10.3978C20.0228 10.5523 20.332 10.6807 20.6297 10.8071C21.14 11.0221 21.5044 11.3205 21.8306 11.5321C22.0976 11.6906 22.35 11.9224 22.5331 12.2025C22.7127 12.4557 22.8729 12.8772 23.0273 13.1876C23.2578 13.606 23.5921 14.0661 23.9277 14.5971C24.2639 15.1406 24.6579 15.7157 24.9692 16.2181C25.2472 16.6584 25.4788 17.0422 25.6705 17.2783C25.7672 17.3985 25.8586 17.5196 25.9478 17.635C26.2353 18.0112 26.4474 18.3853 26.7004 18.5574L26.68 18.5478C27.3242 18.9168 27.7348 19.4003 28.0276 19.7772C28.1264 19.9071 28.2004 20.0333 28.2509 20.1502C28.2794 20.2263 28.3159 20.2925 28.3513 20.353C28.3863 20.4123 28.3874 20.457 28.3652 20.4782C28.3652 20.4782 28.3652 20.4782 28.3652 20.4782C28.3379 20.5041 28.2764 20.4965 28.2101 20.43C28.1635 20.3825 28.1138 20.327 28.0685 20.2601C27.8366 19.9407 27.3736 19.598 26.7912 19.381C26.6348 19.3238 26.497 19.2788 26.3796 19.2468L26.3591 19.2373C25.6653 18.9163 25.5339 18.4947 25.2671 18.0964C25.0408 17.7335 24.8331 17.2878 24.4204 16.6823C24.3983 16.6502 24.3762 16.6186 24.3541 16.5872C23.9519 16.0094 23.5648 15.5896 23.1688 15.0852C22.8666 14.7167 22.4861 14.3089 22.1266 13.776C21.7819 13.2102 21.705 12.914 21.3901 12.6702C21.3611 12.6476 21.331 12.6269 21.2991 12.6075C20.7622 12.2967 20.45 12.0918 20.112 11.9965C19.5763 11.8234 19.0783 11.6647 18.5494 11.4584C18.3473 11.3988 17.8645 11.3198 17.2215 11.1006C17.2202 11.0913 16.9647 11.031 16.7924 10.9963C16.6006 10.957 16.3898 10.9186 16.1605 10.8823C15.7717 10.8211 15.42 10.8074 15.1054 10.822C14.6809 10.8446 14.3171 10.8665 14.0024 10.9049C13.7067 10.9367 13.3665 11.022 13.3969 11.0705C12.9084 11.3839 12.508 11.6753 11.9885 12.0494C11.6712 12.2474 11.4333 12.3624 11.1997 12.4958C10.9736 12.6215 10.7577 12.7667 10.6856 12.8534C10.6599 12.8825 10.6575 12.8961 10.6658 12.887C10.4586 13.2589 10.2525 13.6401 10.0465 14.0373C9.78354 14.5579 9.42918 15.0452 9.34165 15.2526C9.18439 15.6116 9.12653 15.6646 9.09233 15.7414C9.05859 15.8073 9.03811 15.8575 9.02173 15.9381C8.98883 16.095 8.99854 16.3436 9.04644 16.6066C9.14565 17.1129 9.22605 17.6048 9.30983 18.0032C9.42398 18.5926 9.46719 18.9706 9.4423 18.8855C9.71745 19.3162 9.85453 19.6488 9.97976 19.8363C10.011 19.8853 10.0411 19.9286 10.0695 19.9651C10.261 20.2362 10.4898 20.3803 10.4801 20.3475C11.1258 20.4987 11.3847 20.5783 11.8647 20.5834C12.1998 20.5897 12.5422 20.5924 12.8811 20.5867C13.0505 20.5838 13.2195 20.5786 13.3782 20.569C13.5228 20.5629 13.7314 20.533 13.7047 20.5378C14.0765 20.4295 14.6055 20.1627 15.1038 19.8978C15.1556 19.8701 15.2062 19.8432 15.2551 19.8169C15.5231 19.6762 15.7361 19.5287 15.7907 19.4538C15.7547 19.5006 15.7119 19.5635 15.6727 19.6575C15.625 19.7742 15.5859 19.9311 15.6127 20.1311C15.6882 20.5613 15.9274 20.6984 15.9996 20.7555C16.1777 20.8649 16.1978 20.8484 16.2227 20.8599C16.2598 20.8686 16.2343 20.8618 16.2107 20.859C16.1576 20.8515 16.0758 20.8438 15.9932 20.8371C15.8254 20.8234 15.6414 20.811 15.455 20.7967C15.0813 20.7683 14.6948 20.7327 14.3031 20.6827C14.149 20.6627 13.9962 20.6444 13.8066 20.6105C13.7098 20.592 13.6054 20.5733 13.4501 20.5209C13.3064 20.4733 13.0247 20.3466 12.8238 20.0902C12.5338 19.7116 12.4512 19.3985 12.3893 19.0672C12.3846 18.9032 12.1278 18.5348 12.15 17.7348C12.2086 17.3382 12.0833 16.7877 12.5881 15.963C12.6324 15.9013 12.6692 15.8336 12.7368 15.6613C12.8047 15.5 12.9071 15.1747 13.1885 14.8575C13.3306 14.709 13.4585 14.5465 13.6513 14.3192C13.8036 14.1401 14.0197 13.9148 14.2666 13.7407C14.7458 13.4134 15.3188 13.0276 16.1282 12.8875C17.2798 12.7778 18.2203 12.8776 19.2076 13.0094C19.9762 13.1093 20.5698 13.4709 21.0321 13.6686C21.5117 13.8766 21.9813 14.0952 22.3709 14.3575C22.6168 14.5217 22.8756 14.689 23.0815 14.849C23.6686 15.3001 24.02 15.729 24.2901 16.1189C24.6803 16.6841 25.0344 17.1198 25.6138 17.7944C25.7253 17.9243 25.8412 18.0641 25.9644 18.216C26.4067 18.7656 26.852 19.4279 27.4787 19.9567C27.8353 20.2665 28.214 20.5565 28.6079 20.7671C28.878 20.9102 29.0025 20.9488 28.9649 21.0053C28.9255 21.0606 28.6911 21.0907 28.3649 20.9925C27.8734 20.8447 27.4868 20.5948 27.1632 20.3758C26.8558 20.1662 26.6073 19.9688 26.3758 19.8433C25.5783 19.3941 25.2434 19.0603 24.8294 18.4161C24.7406 18.2796 24.6486 18.1261 24.5495 17.9498C24.2041 17.3354 23.8271 17.023 23.4853 16.7322C23.2669 16.5635 23.0651 16.4491 22.8951 16.2674C22.6213 15.9986 22.651 15.8366 21.8063 15.3278C21.5535 15.1659 21.1857 15.0028 20.6125 14.8165C20.2288 14.6916 19.8304 14.5198 19.4558 14.4533C19.326 14.43 19.2036 14.4187 19.0816 14.4166C18.0465 14.3847 17.0475 14.4496 16.4615 14.572C16.1354 14.6641 15.7529 14.9392 15.4213 15.2232C15.2477 15.3615 15.0234 15.7744 14.7001 16.1647C14.7335 16.1311 14.7095 16.1647 14.6621 16.3166C14.6088 16.4763 14.5026 16.7984 14.2778 17.1208C14.2964 17.0267 14.1989 17.3644 14.1575 17.898C14.1185 17.8535 14.2184 18.1708 14.3256 18.7689C14.3251 18.844 14.3719 18.9399 14.3349 18.8922C14.2317 18.7626 14.0933 18.7104 14.0919 18.7136C14.0794 18.712 14.1233 18.7268 14.1747 18.7383C14.2819 18.7631 14.4278 18.7878 14.5722 18.8111C15.1604 18.9079 15.7041 18.9411 16.3432 18.976C16.4114 18.9814 16.4807 18.9862 16.5922 19.0047C16.654 19.0172 16.7093 19.0211 16.8617 19.0788C16.9497 19.1308 17.0557 19.108 17.3258 19.4443C17.4519 19.594 17.5444 19.988 17.482 20.2016C17.423 20.4525 17.3523 20.5303 17.2894 20.6198C16.9018 21.121 16.4453 21.3597 16.0791 21.5848C15.5687 21.8783 15.0524 22.1977 14.2765 22.4519C13.1393 22.6772 12.5732 22.5808 11.8001 22.5854C11.1534 22.5915 10.3654 22.3654 10.0517 22.2988C9.05065 22.0414 8.71021 21.45 8.43536 21.1488C8.36395 21.058 8.30446 20.9745 8.25242 20.8993C7.94125 20.4304 7.83336 20.2106 7.73628 20.0605C7.4098 19.5328 7.43253 19.2178 7.41385 19.0055C7.40848 18.791 7.42719 18.6484 7.43531 18.516C7.41321 18.2108 7.4034 17.8865 7.34739 17.436Z" fill="#A5845B"/>
<path d="M27.5575 3.15771C27.2983 3.15778 27.0481 3.20216 26.7959 3.27196C26.2018 3.43544 25.7817 3.81025 25.1973 4.2299C24.9464 4.45177 24.6658 4.75386 24.2962 5.12419C24.0574 5.36457 23.8582 5.58323 23.6955 5.76206C23.4423 6.0312 23.2481 6.28243 23.129 6.61514C22.9779 7.17064 22.7792 7.65034 22.7557 8.35096C22.7497 8.6225 22.7672 8.87085 22.8154 9.0752C22.8522 9.2302 22.897 9.34347 22.9684 9.4611C23.0368 9.59175 23.1691 9.67985 23.4045 10.1019C23.3532 10.0013 23.2397 9.93982 23.2489 9.95232C23.2505 9.9587 23.321 9.98625 23.4086 10.0119C23.5878 10.0651 23.8373 10.1327 24.0723 10.2383C24.0994 10.3398 24.5952 10.1253 24.7696 9.86705C25.0784 9.46705 25.3395 9.38836 25.7029 9.11191C26.0886 8.76948 26.451 8.66694 26.9678 8.44838C27.2925 8.31979 27.591 8.2377 27.881 8.18172C28.4087 8.07601 28.75 7.91422 29.3922 7.66777C29.672 7.57334 29.9483 7.52786 30.2317 7.49787C30.305 7.49021 30.386 7.48175 30.4731 7.47269C31.2208 7.41763 32.2267 7.36627 33.454 7.72731C33.9739 7.97349 34.4641 8.31723 34.8276 8.7263C35.1776 9.10748 35.7748 9.34139 36.0959 9.63267C36.1451 9.67148 36.1921 9.71171 36.2384 9.75503C36.6201 10.0861 36.9506 10.6769 37.0238 11.1755L36.9993 11.1112C37.2046 11.6249 37.2612 12.1328 37.2978 12.5657L37.3033 12.6112C37.2739 12.8905 37.2383 13.1374 37.2179 13.3523C37.1901 13.6368 37.1525 13.8595 37.1148 14.0303C37.0988 14.1026 37.0673 14.1355 37.0368 14.135C37.0368 14.135 37.0367 14.135 37.0367 14.135C36.9988 14.1343 36.9623 14.0817 36.9592 13.9884C36.946 13.6464 36.9207 13.1677 36.8318 12.6244L36.8366 12.6646C36.7757 12.4996 36.7058 12.3302 36.6237 12.1613C36.4806 11.8675 36.3645 11.6537 36.2591 11.4669L36.2346 11.4027C36.0785 10.9423 36.0008 10.7037 35.6509 10.2727C35.4511 10.0191 35.1846 9.86224 34.615 9.49397C34.4956 9.40846 34.3803 9.31123 34.2771 9.20649C33.9214 8.86811 33.5108 8.6715 33.0918 8.53135C32.5859 8.47216 31.5523 8.47103 30.7036 8.58496C30.4537 8.62787 30.2041 8.67081 29.9741 8.73415C29.9379 8.74414 29.9035 8.7548 29.8709 8.76604C29.32 9.00288 28.6734 9.34717 28.0956 9.48684C27.8342 9.56642 27.5822 9.67134 27.3456 9.79066C27.228 9.85029 27.1131 9.91486 27.0181 9.97933C26.927 10.0371 26.8412 10.1289 26.8892 10.095C26.4493 10.5828 26.0618 11.3844 24.5021 11.7564C24.1716 11.8021 23.7964 11.7526 23.5021 11.6078C23.3692 11.529 23.2063 11.4772 22.982 11.4095C22.8691 11.3734 22.7368 11.3353 22.5706 11.2472C22.4072 11.1638 22.1999 10.9858 22.0966 10.7743C22.0913 10.7426 21.8343 10.4867 21.6624 10.2407C21.4806 9.98571 21.3481 9.70687 21.2557 9.44226C20.8959 8.43051 20.9945 7.33123 21.0993 6.30971C21.1375 5.89454 21.2448 5.45548 21.4454 5.0071C21.5203 4.84023 21.6061 4.67618 21.7036 4.51574C22.2729 3.61932 22.9801 2.74383 24.1986 2.15865C24.841 1.87104 25.6568 1.55407 26.4379 1.44907C27.2799 1.31876 28.2027 1.26041 29.0487 1.42165C29.7782 1.56224 30.3768 1.76642 30.8668 1.9332C30.9302 1.9551 31.0025 1.97532 31.0797 1.99431C31.5825 2.10088 32.4888 2.33555 33.1715 2.82422C33.8778 3.31336 34.6745 3.87027 35.3174 4.86824C35.4942 5.15641 35.7449 5.50145 35.9699 5.93223C36.149 6.28878 36.4072 6.62985 36.6945 7.24063C36.7634 7.39981 36.8204 7.55624 36.8697 7.70549C37.0395 8.23339 37.1547 8.65842 37.3277 8.89129C37.7005 9.43052 37.8686 9.95728 38.0409 10.3443C38.3019 10.923 38.34 11.5465 38.4263 11.8451C38.6922 12.6226 38.8039 13.8707 38.6074 14.8013C38.5163 15.3296 38.322 15.8094 38.1683 16.1814C38.0011 16.5767 37.878 16.946 37.6296 17.451C37.5679 17.5681 37.5 17.6994 37.3654 17.8698C37.0664 18.2178 36.7525 18.5535 36.2832 18.8785C35.7115 19.2251 35.2526 19.7012 34.2595 20.0751C33.4766 20.282 32.7595 20.2416 32.0712 20.0688C31.4121 19.855 30.789 19.8683 30.0086 19.2385C29.6087 18.8005 29.555 18.4072 29.4244 18.1914C29.182 17.7282 29.0838 17.3536 29.0152 16.9859C29.0041 16.9198 28.995 16.8538 28.9885 16.7871C28.9238 16.0129 28.9023 15.2592 29.4824 14.7993C29.9339 14.5086 30.1581 13.9837 31.0763 13.6933C31.2914 13.6561 31.5261 13.6179 31.7918 13.587C31.978 13.5658 32.1775 13.5509 32.3955 13.5563C32.6179 13.5749 32.8359 13.5458 33.1669 13.7562C33.495 14.0096 34.1026 14.3458 34.2363 14.995C34.3301 15.4884 34.3122 15.9506 34.2406 16.39C34.1805 16.7331 34.071 16.8447 34.0325 16.7925C33.9909 16.7443 33.9816 16.5538 33.9472 16.2317C33.9025 15.8203 33.8459 15.4314 33.7503 15.1319C33.6395 14.7997 33.3484 14.6276 33.0774 14.5503C32.9412 14.5125 32.8068 14.4752 32.6709 14.4219C32.7043 14.4967 32.5801 14.4925 32.4808 14.5233C32.3743 14.5479 32.2566 14.5724 32.1321 14.5929C31.8809 14.6344 31.5958 14.6575 31.2107 14.6656C31.2134 14.6494 31.1501 14.645 31.0549 14.6754C30.6521 14.8209 30.3837 15.2029 30.0599 15.5464C30.1027 15.6026 30.1527 15.7789 30.1433 16.079C30.1363 16.2547 30.1182 16.3889 30.1158 16.6081C30.0971 16.7625 30.1416 17.1447 30.3833 17.5871C30.585 17.9173 30.7217 18.2856 30.8418 18.3635C30.8631 18.4021 31.3812 18.5563 31.9334 18.6295C32.0756 18.6515 32.218 18.673 32.3602 18.6954C32.8819 18.7726 33.4185 18.6976 33.7536 18.5628C34.1036 18.3879 34.7242 17.817 35.2189 17.4278C35.4346 17.2472 35.6718 16.9599 35.8463 16.7107C35.8291 16.7363 35.9634 16.4039 36.0324 16.1757C36.1132 15.9272 36.1933 15.6816 36.2733 15.4525C36.2762 15.4441 36.2791 15.4358 36.282 15.4275C36.395 15.1009 36.5275 14.7818 36.597 14.4462C36.7277 13.7746 36.7881 13.2101 36.5459 12.2857C36.4289 11.6824 36.4294 11.3452 36.3083 11.0752C36.1094 10.5719 35.96 10.1869 35.7905 9.97717C35.7617 9.93819 35.7342 9.89926 35.7077 9.86011C35.2861 9.24042 35.1412 8.51491 34.9159 8.05926C34.7965 7.81029 34.484 7.37537 34.2098 6.87166C34.0641 6.59722 33.8494 6.30095 33.6121 5.92259C33.2764 5.38464 32.6304 4.86597 32.0284 4.46273C31.5275 4.12739 31.1216 4.06292 30.5681 3.95694C30.4518 3.93368 30.3297 3.90509 30.2058 3.86793C29.4464 3.6605 29.1056 3.54224 28.7543 3.39924C28.483 3.28691 28.1745 3.16127 27.5575 3.15771Z" fill="#A5845B"/>
<path d="M45.0282 15.1975C45.0135 15.193 44.9989 15.1892 44.9843 15.186C44.7279 15.1272 44.5009 15.2793 44.2906 15.4453C44.0685 15.6125 43.9173 15.7882 43.5321 15.8121C43.4644 15.8159 43.3939 15.8176 43.3212 15.8162C43.4295 15.7607 43.3366 15.7321 43.2687 15.7164C43.1922 15.7005 43.1 15.6936 43.0033 15.6991C42.8068 15.7111 42.5906 15.7754 42.2787 16.0051C42.17 16.0846 42.0539 16.1565 41.9338 16.2213C41.6017 16.3993 41.1872 16.5952 40.8081 16.751C40.6078 16.8345 40.4392 16.8974 40.3253 16.9748C39.988 17.1974 39.8348 16.8887 39.5544 16.9018C39.5299 16.8986 39.5026 16.9084 39.4736 16.9399C39.3495 17.0688 39.1545 17.2711 38.7522 17.4104C38.7099 17.3998 38.6326 17.407 38.5057 17.4591C38.3722 17.5083 38.1017 17.702 37.7647 17.8018C37.2272 17.945 36.5918 18.2954 36.3308 18.5534C36.2579 18.6291 36.173 18.6879 36.0816 18.7333L36.0672 18.7395C35.7328 18.8904 35.297 18.8941 35.0553 19.0204L35.046 19.0279C35.0446 19.0285 35.0433 19.0292 35.0419 19.0298C34.9286 19.0841 34.8209 19.0949 34.7479 19.0856C34.7163 19.0821 34.6939 19.0574 34.683 19.0289C34.683 19.0289 34.683 19.0289 34.683 19.0289C34.6694 18.9934 34.675 18.9516 34.7039 18.9349C34.7607 18.9025 34.8161 18.8568 34.8671 18.788C34.946 18.6715 35.0518 18.5244 35.1754 18.3527C35.3785 18.0764 35.5503 18.0142 35.7459 17.9579L35.7326 17.9637C35.897 17.9133 36.0897 17.8617 36.377 17.6409C36.7279 17.3679 37.0012 17.0801 37.3683 16.869C37.5134 16.7686 37.5162 16.7326 37.9959 16.4342C38.0644 16.3973 38.1366 16.361 38.2093 16.3295C38.4583 16.2693 38.5539 15.7671 39.2628 15.4946C39.5952 15.359 39.8254 15.3369 40.1805 15.3541C40.1814 15.3542 40.1822 15.3542 40.183 15.3542C40.6352 15.3349 40.9289 15.0745 41.1673 14.8209C41.4454 14.5096 41.4773 14.1443 42.2521 13.6677C42.4154 13.5824 42.5933 13.4778 42.9751 13.4141C43.4038 13.3205 44.3862 13.26 44.9948 13.3651C45.5671 13.4423 46.0629 13.5428 46.4034 13.5576C46.8143 13.5735 47.335 13.6072 47.8176 13.6663C48.115 13.6995 48.4677 13.7737 48.7951 13.9084C49.0197 14.0006 49.2552 14.1112 49.4906 14.2516C49.9171 14.5043 50.421 14.8148 50.8513 15.2533C51.0233 15.4218 51.3705 15.6591 51.7055 16.0586C52.0471 16.4488 52.306 17.0859 52.2774 17.624C52.2752 17.7086 52.269 17.7925 52.2593 17.8774C52.1128 18.7281 51.9882 19.8506 51.5898 20.6958C51.4772 20.913 51.3928 21.1521 51.3217 21.3339C51.0285 22.0688 51.0291 22.2512 50.7598 23.0399C50.7397 23.0887 50.7156 23.1388 50.687 23.189C50.4967 23.5479 50.1472 23.927 49.8906 24.2381C49.8241 24.3244 49.7918 24.3871 49.7344 24.3878C49.6773 24.3908 49.603 24.2708 49.6164 24.1123C49.6657 23.6645 49.9025 23.4559 49.8559 23.1973C49.8167 22.9559 49.794 22.7819 49.826 22.6337C49.8249 22.5247 49.8816 22.4524 50.0438 22.2978C50.3535 21.9724 49.9485 21.6547 50.0465 21.4086C50.1372 21.1869 50.2714 21.2262 50.4524 20.3503C50.4873 20.2018 50.5093 20.028 50.5054 19.7987C50.4787 18.9932 50.3958 18.3274 50.3635 17.8522C50.34 17.7086 50.3011 17.6377 50.2612 17.5795C50.2052 17.4728 50.0757 17.1926 49.4538 16.5409C49.3303 16.3846 49.1762 16.2536 49.0026 16.1679C48.7911 16.0613 48.4831 15.915 48.0871 15.7729C47.9203 15.7126 47.7541 15.6763 47.5476 15.6526C46.9838 15.5779 46.5338 15.545 46.2328 15.5786C45.5569 15.6617 45.5772 15.3722 45.0282 15.1975Z" fill="#A5845B"/>
<path d="M57.9053 16.8318C57.5192 16.6939 57.1785 17.0718 56.7649 17.2204C56.6533 17.269 56.5422 17.2966 56.4221 17.2805C55.9315 17.2291 55.8327 16.8677 55.1052 17.1778C55.0163 17.2141 54.9209 17.2457 54.822 17.2714C54.3766 17.3806 53.8176 17.5231 53.6634 17.7901C53.6516 17.8115 53.639 17.8296 53.6256 17.8449C53.4954 18.0206 53.1982 17.7232 52.9997 18.0598C52.8707 18.2795 52.7802 18.4563 52.4323 18.6754C52.437 18.6317 52.3346 18.6683 52.2305 18.7451C51.9136 18.9254 51.5188 20.1743 51.6767 20.6358C51.6925 20.6893 51.7017 20.7428 51.7056 20.7958L51.7006 20.8301C51.6481 21.3684 51.2244 21.6059 51.0188 21.8131C51.0008 21.8292 50.9831 21.8475 50.9674 21.8653C50.9025 21.9391 50.8423 21.9916 50.7873 22.0322C50.764 22.0493 50.731 22.0482 50.7029 22.0363C50.7029 22.0363 50.7029 22.0363 50.7029 22.0363C50.6679 22.0216 50.6403 21.9907 50.6488 21.9584C50.6698 21.8782 50.695 21.7745 50.7174 21.6523C50.7401 21.5362 50.7564 21.403 50.7555 21.2566C50.7493 20.9129 50.8343 20.8296 50.8958 20.68L50.8913 20.7112C50.9238 20.5692 50.9525 20.3956 50.9437 20.1177C50.9586 19.3791 50.6633 18.9022 51.4002 17.9662C51.4885 17.8737 51.5821 17.7789 51.7078 17.688C51.8904 17.5552 51.9111 16.8106 52.6685 16.4196C52.7965 16.3555 52.9493 16.2977 53.137 16.2527C53.7727 16.1026 54.1038 15.9068 54.4392 15.6805C54.671 15.4796 54.8426 15.1438 55.5937 14.9313C55.9712 14.8307 56.3905 14.8072 56.7785 14.8374C57.2449 14.8782 57.7145 14.9585 58.1477 15.0392C58.3641 15.0798 58.5703 15.1201 58.7731 15.1602C58.875 15.1805 58.9758 15.2004 59.0888 15.2256C59.2123 15.2609 59.2926 15.2489 59.5901 15.4027C59.6353 15.4289 59.7044 15.473 59.7777 15.5407C60.035 15.8058 60.031 15.9042 60.0795 16.0014C60.1138 16.0914 60.133 16.16 60.1498 16.2234C60.1821 16.3493 60.2009 16.4526 60.2176 16.5564C60.2497 16.7617 60.2679 16.9575 60.2779 17.1591C60.2966 17.5618 60.282 17.9817 60.2043 18.428C60.1589 18.6826 60.1032 18.8467 60.0357 19.0334C59.8952 19.4102 59.7634 19.8043 59.6094 20.2081C59.3437 20.8974 59.0264 21.7494 58.2732 22.3444C58.1774 22.4187 58.0739 22.492 57.9633 22.5615C57.1708 23.0163 56.586 23.0784 56.0043 23.3004C55.5591 23.4559 55.1586 23.5799 54.8793 23.6518C54.4729 23.7566 54.2408 23.8101 54.0182 23.9104C53.83 23.9951 53.6483 24.0838 53.3843 24.2261C53.0297 24.4176 52.507 24.5478 52.0195 24.5448C51.7746 24.5475 51.7584 24.4049 51.9544 24.2512C52.2407 24.0312 52.5257 23.9958 52.6313 23.7764C52.8414 23.3389 52.9393 23.1696 53.3932 23.198C53.5041 23.205 53.5879 23.178 53.6368 23.1391C53.8652 22.9836 53.9048 22.6998 54.0921 22.652C54.3287 22.5885 54.4504 22.8197 55.3834 22.1437C55.4229 22.1153 55.4628 22.0861 55.5049 22.0552C56.1495 21.5835 56.6959 21.2631 56.7946 21.1089C56.9219 20.9659 57.0134 20.8271 57.087 20.6977C57.2208 20.4736 57.6056 20.0355 57.8751 19.4621C57.9595 19.2878 58.0275 19.1086 58.0663 18.9359C58.1147 18.7198 58.2086 18.371 58.2351 18.1582C58.2734 17.8359 58.2918 17.4663 58.2751 17.1511C58.267 16.9943 58.2496 16.8487 58.2247 16.7483C58.2127 16.6993 58.1976 16.6598 58.1886 16.658C58.1847 16.6583 58.1809 16.6665 58.1919 16.7068C58.2128 16.7504 58.1979 16.8103 58.3967 17.0211C58.4565 17.0793 58.5133 17.1193 58.5435 17.1399C58.7034 17.24 58.7018 17.2279 58.715 17.2411C58.7215 17.2481 58.7109 17.2491 58.6984 17.2491C58.6717 17.2487 58.634 17.242 58.5985 17.232C58.5273 17.2119 58.462 17.1767 58.4008 17.1331C58.2764 17.0461 58.1589 16.9237 57.9053 16.8318Z" fill="#A5845B"/>
</g>
<g filter="url(#filter3_d_2894_165)">
<path d="M13.2295 449.035C12.9135 448.981 12.6088 448.947 12.3069 448.925C11.5829 448.921 10.5708 448.54 10.105 448.372C9.25157 448.024 8.68109 447.55 8.10953 447.005C7.89112 446.79 7.67685 446.539 7.48759 446.258C7.30657 445.99 7.17172 445.742 7.06481 445.528C6.48555 444.366 6.45859 443.507 6.39532 442.56C6.35531 441.935 6.35471 441.32 6.36106 440.423C6.36267 440.292 6.36656 440.161 6.37262 440.03C6.42993 438.491 7.80129 437.583 8.34193 437.163C9.38173 436.388 10.0565 436.461 10.6126 436.226C10.7269 436.188 10.9938 436.079 11.2034 436.028C11.4175 435.972 11.5999 435.941 11.7556 435.91C11.7712 435.907 11.7865 435.904 11.8016 435.901C12.8105 435.72 13.1038 435.981 14.0592 436.203C14.3753 436.287 14.7425 436.431 15.1307 436.696C15.5279 436.97 15.805 437.298 16.0156 437.624C16.3054 438.064 16.5325 438.526 16.7176 438.854C16.748 438.906 16.7885 438.955 16.8253 439.109C16.8432 439.204 16.8596 439.33 16.7854 439.508C16.7115 439.679 16.5743 439.78 16.4895 439.823C16.1704 439.951 16.1513 439.888 16.0717 439.895C15.9515 439.882 15.8828 439.862 15.8109 439.844C15.6718 439.806 15.5539 439.767 15.4349 439.728C15.2017 439.651 14.9659 439.571 14.7631 439.529C14.7164 439.521 14.6708 439.513 14.625 439.507C14.2532 439.457 13.8854 439.473 13.2732 439.99C13.3343 439.913 13.2594 440.005 13.2437 440.082C13.2178 440.167 13.1973 440.266 13.1803 440.371C13.1464 440.581 13.1257 440.809 13.1105 441.042C13.081 441.508 13.0739 441.994 13.0749 442.47C13.067 442.941 13.2444 443.3 13.5216 443.668C13.7918 444 14.4468 444.167 14.8049 444.316C14.8065 444.316 14.8081 444.317 14.8097 444.317C15.3402 444.521 15.7264 444.615 16.3105 444.667C17.053 444.741 17.8322 444.806 18.4739 444.86L18.4384 444.863C18.7086 444.844 18.955 444.815 19.1718 444.776C19.4496 444.73 19.669 444.672 19.8935 444.673C19.9276 444.674 19.968 444.67 20.0073 444.664C20.0921 444.651 20.1437 444.661 20.1548 444.69C20.1548 444.69 20.1548 444.69 20.1548 444.69C20.1679 444.725 20.1269 444.788 20.0055 444.828C19.9767 444.837 19.9464 444.845 19.9149 444.852C19.5727 444.93 19.0812 445.136 18.5167 445.293L18.4857 445.296C18.2184 445.332 17.9321 445.373 17.6314 445.419C17.063 445.503 16.6478 445.53 16.2544 445.511C15.7223 445.494 15.1131 445.352 14.4724 444.998C14.1261 444.788 13.7028 444.763 13.0398 444.201C13.0015 444.161 12.9652 444.119 12.9316 444.074C12.5859 443.676 12.2808 443.025 12.2673 442.478C12.2268 441.998 12.1893 441.538 12.175 441.06C12.1685 440.821 12.167 440.577 12.1847 440.313C12.1942 440.18 12.2074 440.043 12.239 439.883C12.2556 439.802 12.2754 439.717 12.3146 439.611C12.3613 439.506 12.3918 439.37 12.6166 439.172C12.8174 439.008 13.0796 438.74 13.5131 438.545C13.9449 438.351 14.4212 438.325 14.8367 438.367C15.098 438.393 15.3147 438.45 15.5292 438.509C15.7007 438.558 15.8575 438.605 15.9929 438.64C16.0586 438.657 16.1257 438.672 16.1515 438.675C16.1536 438.681 16.1921 438.661 16.0357 438.692C15.985 438.708 15.9154 438.718 15.7907 438.83C15.6692 438.929 15.595 439.178 15.6125 439.279C15.64 439.505 15.6818 439.505 15.6937 439.537C15.3599 439.01 15.1572 438.664 14.8887 438.317C14.5658 437.909 14.1616 437.669 13.772 437.639C13.3095 437.59 12.6638 437.558 11.8994 437.578C11.7708 437.581 11.6486 437.588 11.54 437.602C11.4275 437.615 11.3453 437.637 11.0948 437.706C10.9999 437.729 10.9037 437.75 10.8064 437.771C10.0933 437.916 9.52246 438.055 9.33928 438.233C8.25592 439.045 7.97978 439.583 8.07212 440.142C8.12715 440.774 8.2115 441.528 8.37339 442.258C8.47562 442.703 8.57051 443.092 8.7432 443.516C8.84821 443.774 8.97778 444.031 9.13514 444.291C9.37451 444.691 9.58779 444.994 9.87846 445.308C10.3141 445.781 10.7959 446.265 11.1004 446.444C11.5084 446.676 11.6821 446.813 11.8706 446.898C12.055 446.986 12.2687 447.049 12.519 447.091C13.54 447.249 14.6001 447.381 15.3182 447.357C16.3161 447.316 16.6329 447.31 17.0855 447.064C17.1263 447.042 17.1674 447.02 17.2105 446.996C17.8307 446.665 18.636 446.266 18.644 446.14C19.1211 445.365 19.6215 444.576 20.1575 443.741C20.4657 443.27 20.7318 442.703 21.1815 442.048C21.6985 441.327 22.2669 440.807 22.706 440.288C22.7098 440.284 22.7136 440.279 22.7174 440.275C22.9211 440.048 23.1158 439.694 23.5365 439.28C24.0768 438.796 24.5421 438.703 24.9198 438.563C25.2916 438.445 25.6375 438.307 25.6951 438.241C26.099 437.941 26.2951 437.904 26.525 437.802C26.7446 437.715 26.9468 437.641 27.1401 437.565C27.5236 437.416 27.8811 437.257 28.1303 437.088C28.8338 436.586 29.7472 436.453 30.4269 436.427C31.384 436.394 32.3009 436.329 33.4023 436.472C33.7505 436.529 34.1048 436.598 34.4793 436.715C34.737 436.794 35.0256 436.914 35.2625 437.041C35.5968 437.217 35.8969 437.4 36.1832 437.553C36.7873 437.898 37.0662 438.129 37.5309 438.369C38.1514 438.712 38.7455 438.914 39.4314 438.978C40.127 439.042 40.8434 439.135 41.332 439.092C42.4255 438.973 43.4403 438.857 43.7274 438.436C43.931 438.153 44.0621 438.036 44.1508 437.88C44.2401 437.732 44.2935 437.575 44.3254 437.414C44.3419 437.331 44.3527 437.247 44.3593 437.163C44.437 436.006 44.3805 435.268 44.301 434.497C44.2736 434.209 44.2032 433.924 44.0637 433.638C43.8504 433.16 43.7558 432.67 43.2675 432.517C43.2671 432.516 43.2668 432.516 43.2664 432.516C42.851 432.366 42.4261 432.195 42.1207 432.322C41.658 432.514 41.1549 432.571 40.7727 432.746C40.3182 432.941 39.9051 432.993 39.7987 433.274C39.7535 433.385 39.7279 433.534 39.7414 433.629C39.7655 433.746 39.7934 433.861 39.8278 433.971C39.9377 434.355 40.0826 434.442 40.0156 434.475C39.9285 434.514 39.6518 434.306 39.4805 433.903C39.4549 433.847 39.4314 433.791 39.4096 433.735C39.3385 433.511 39.3587 433.343 39.3985 433.159C39.4766 432.826 39.7668 432.623 39.9745 432.519C40.1913 432.409 40.3841 432.34 40.5245 432.257C40.8674 432.062 41.1831 431.965 41.3865 431.832C41.5498 431.73 41.6836 431.634 41.8058 431.54C42.5735 431.126 43.226 431.407 43.6445 431.543C44.2515 431.705 44.7566 432.542 44.8179 433.082C44.8344 433.157 44.8498 433.22 44.8624 433.263C45.0243 433.686 45.1097 434.065 45.1688 434.402C45.3271 435.193 45.5921 435.781 45.5781 436.46C45.572 436.733 45.5425 436.929 45.507 437.178C45.4789 437.389 45.4454 437.638 45.3245 437.986C45.2332 438.317 44.8538 438.824 44.6903 439.031C44.0369 440.019 42.7978 440.142 41.5665 440.402C41.4323 440.43 41.3108 440.445 41.1924 440.457C40.4783 440.519 39.8943 440.484 39.3577 440.483C38.4042 440.482 37.4752 440.206 36.7993 439.895C36.2588 439.668 35.6625 439.301 35.4054 439.188C35.0279 439.02 34.7191 438.862 34.4517 438.745C34.0304 438.556 33.5968 438.505 33.1375 438.453C32.9632 438.436 32.7519 438.431 32.5546 438.431C32.0512 438.431 31.3421 438.439 30.506 438.453C29.9766 438.465 29.5568 438.499 29.1997 438.73C28.7215 439.024 28.2591 439.194 27.8252 439.35C27.6088 439.426 27.3983 439.497 27.2108 439.565C27.0374 439.623 26.8161 439.737 26.8756 439.701C26.0242 440.301 25.4314 440.31 25.0617 440.518C24.9478 440.571 24.8631 440.635 24.8587 440.648C24.7259 440.775 24.5412 441.083 24.2358 441.481C23.7483 442.104 23.1868 442.654 22.8203 443.185C22.5273 443.611 22.2305 444.226 21.8397 444.833C21.308 445.661 20.7769 446.486 20.3366 447.201C19.8583 447.911 19.3634 448.097 19.018 448.309C18.661 448.502 18.3824 448.645 18.1668 448.778C18.1112 448.811 18.0585 448.841 18.0046 448.872C17.4486 449.199 16.7905 449.356 16.3857 449.378C15.976 449.407 15.7435 449.391 15.5126 449.383C14.7603 449.361 14.2965 449.208 13.2295 449.035Z" fill="#A5845B"/>
<path d="M29.0682 457.137C28.6523 457.149 28.0767 457.411 27.3825 457.386C26.3756 457.333 25.6091 457.24 24.6745 456.867C24.4636 456.778 24.2628 456.665 24.0796 456.533C23.4648 456.079 23.2096 455.691 23.0015 455.41C22.636 454.929 22.42 454.514 22.1285 453.912C21.9669 453.566 21.814 453.18 21.6279 452.727C21.6108 452.686 21.5913 452.641 21.5698 452.591C21.1495 451.679 21.1398 450.675 21.1478 449.897C21.1489 449.596 21.1994 449.227 21.3541 448.904C21.5083 448.581 21.6882 448.385 21.8098 448.233C22.052 447.919 22.4225 447.675 22.693 447.556C22.9835 447.422 23.2752 447.375 23.5108 447.362C23.9274 447.349 24.1806 447.438 24.4737 447.641C24.948 448.036 24.9553 448.406 25.2882 448.819C25.3569 448.908 25.4633 449.008 25.6121 449.12C25.8117 449.271 26.0106 449.423 26.191 449.578C26.6273 449.93 27.0926 450.247 27.5287 450.462C27.715 450.539 27.8811 450.618 28.0608 450.693C28.2391 450.769 28.4934 450.853 28.8075 450.93C29.3455 451.061 30.1863 451.061 30.9843 451.029C31.7212 451.015 32.2697 450.763 32.685 450.32C32.8994 450.126 33.09 449.968 33.2281 449.835C33.4622 449.611 33.7022 449.422 33.9167 449.227C34.4486 448.717 35.0906 448.135 35.5808 447.742L35.5624 447.765C35.6427 447.677 35.7143 447.592 35.7738 447.511C35.8871 447.356 35.9694 447.226 36.0307 447.105C36.0452 447.075 36.0575 447.034 36.068 446.995C36.0847 446.929 36.1146 446.896 36.1453 446.896C36.1453 446.896 36.1454 446.896 36.1454 446.896C36.1828 446.897 36.2228 446.944 36.2221 447.04C36.2215 447.075 36.2192 447.112 36.2135 447.151C36.1585 447.402 36.0287 447.681 35.8697 447.98L35.854 447.999C35.6958 448.216 35.5329 448.464 35.3684 448.739C35.0506 449.268 34.82 449.564 34.5025 449.85C34.1457 450.174 33.6978 450.378 33.1311 450.867C33.0377 450.95 32.9293 451.057 32.7905 451.173C32.2357 451.643 31.5801 451.798 31.0364 451.884C30.2897 451.99 29.632 452.132 28.6285 452.008C28.1974 451.941 27.6648 451.796 27.2014 451.609C27.2002 451.609 27.1991 451.608 27.198 451.608C26.3015 451.241 25.8399 450.935 25.2908 450.558C24.9721 450.327 24.645 450.175 24.2083 449.761C23.9311 449.494 23.6397 449.145 23.5409 449.087C23.5868 449.109 23.4899 449.057 23.4547 449.048C23.4081 449.033 23.3765 449.021 23.3246 449.022C23.2276 449.046 23.1617 449.064 23.0897 449.1C23.0605 449.115 23.0302 449.135 22.9977 449.163C22.6374 449.529 22.6306 449.542 22.6122 449.868C22.6271 450.926 22.8271 451.428 23.2826 452.105C23.457 452.393 23.6411 452.693 23.8448 452.96C24.0234 453.189 24.2632 453.467 24.5531 453.731C24.5647 453.741 24.5764 453.752 24.5882 453.762C25.037 454.181 25.3674 454.48 25.6617 454.616C26.3472 454.932 27.193 455.302 27.6696 455.428C27.7824 455.456 27.8669 455.468 28.0472 455.448C28.2235 455.43 28.4846 455.375 28.766 455.337C29.4448 455.272 29.6245 455.341 29.9086 455.31C30.1682 455.291 30.4108 455.236 30.6442 455.154C31.0075 455.025 31.3336 454.868 31.6164 454.716C31.8225 454.607 32.0219 454.488 32.3286 454.349C32.7499 454.154 33.315 453.812 33.7223 453.486C34.1312 453.158 34.3455 452.945 34.6147 452.553C34.7512 452.354 34.8894 452.162 35.0067 451.989C35.0649 451.903 35.1181 451.82 35.1535 451.758C35.1899 451.705 35.2004 451.632 35.1739 451.767C35.2442 451.373 35.3094 451.206 35.3558 450.983C35.404 450.769 35.4425 450.549 35.4745 450.318C35.5012 450.126 35.5203 449.925 35.533 449.716C35.5909 448.665 35.6021 447.471 35.5213 446.38C35.4756 445.899 35.4471 445.538 35.3201 445.07C35.3037 444.963 35.0506 444.423 34.9604 443.909C34.8387 443.155 34.7879 442.608 34.6832 442.006C34.6728 441.935 34.6594 441.866 34.6432 441.8C34.6073 441.651 34.5509 441.505 34.4816 441.385C34.4861 441.346 34.2216 441.106 34.0027 441.001C33.7681 440.878 33.4979 440.796 33.2083 440.767C32.5079 440.71 31.7754 440.647 31.1508 440.645C30.7903 440.649 30.4438 440.671 30.3762 440.718C30.1209 440.872 29.9113 440.949 29.76 441.027C29.5958 441.105 29.5865 441.158 29.5967 441.073C29.4932 441.691 29.4555 442.277 29.43 442.725C29.4072 443.145 29.405 443.566 29.4366 443.759C29.5668 444.216 29.711 444.538 29.9846 444.709C30.332 444.907 30.9257 444.996 31.6204 444.851C31.6377 444.847 31.6552 444.842 31.6719 444.838C32.2604 444.675 33.2042 444.474 33.4651 444.067C33.6315 443.666 33.6844 443.164 33.7217 442.702C33.7529 442.075 33.9114 442.18 34.0267 442.83C34.1038 443.335 34.0847 443.813 33.9669 444.234C33.7824 444.721 33.4573 444.859 33.276 445.053C32.7651 445.515 32.3698 445.725 31.8951 445.858C31.4846 445.959 31.0664 445.954 30.5156 445.805C30.1674 445.703 29.8664 445.621 29.5395 445.445C28.8184 445.005 28.5713 444.501 28.3633 444.153C28.2426 443.829 28.2465 443.736 28.233 443.566C28.2399 442.931 28.3295 442.856 28.4271 440.948C28.4809 440.428 28.8711 440.142 29.0821 440.001C29.3134 439.849 29.5285 439.742 29.6477 439.645C29.8811 439.468 30.2085 439.369 30.426 439.326C30.6605 439.278 30.8538 439.254 31.0437 439.229C31.9202 439.136 32.6072 439.135 33.2529 439.118C34.3788 439.141 35.2418 439.439 35.9958 440.289C36.3314 440.734 36.4985 441.176 36.6013 441.581C36.6954 441.95 36.7652 442.281 36.8235 442.58C36.8791 442.854 36.9255 443.235 36.9691 443.524C37.0007 443.784 37.1089 443.95 37.2838 444.673C37.3885 445.123 37.4289 445.75 37.4474 446.25C37.4772 447.259 37.4374 448.206 37.448 449.088C37.4497 449.305 37.4484 449.541 37.4429 449.796C37.435 450.14 37.4138 450.517 37.3601 450.926C37.3179 451.309 37.1755 451.863 37.1439 452.055C37.0811 452.415 36.9833 452.561 36.9063 452.715C36.8263 452.861 36.7506 452.979 36.6772 453.09C36.5306 453.311 36.3927 453.504 36.2645 453.692C35.9306 454.211 35.3632 454.752 34.9652 455.054C34.2783 455.582 33.7171 455.902 33.1105 456.194C32.9565 456.272 32.7314 456.406 32.5548 456.514C32.11 456.788 31.7335 456.966 31.4164 457.075C30.9729 457.228 30.6232 457.257 30.2459 457.251C29.8962 457.249 29.3578 457.163 29.0905 457.136C29.0831 457.136 29.0756 457.136 29.0682 457.137Z" fill="#A5845B"/>
<path d="M46.3078 443.62C46.4511 443.624 46.5689 443.539 46.7286 443.411C46.9478 443.165 46.9601 442.771 47.3351 442.578C47.6287 442.421 47.8887 442.379 48.1568 442.306C48.2405 442.351 48.3456 442.361 48.4576 442.053C48.5144 441.894 48.5946 441.718 48.6837 441.548C48.9038 441.141 49.1345 440.684 49.0675 440.424C48.9743 440.085 49.4484 440.127 49.4058 439.654C49.4054 439.65 49.405 439.646 49.4045 439.642C49.3407 439.168 49.4051 438.902 49.5287 438.489C49.5678 438.377 49.5786 438.106 49.5731 437.997C49.4049 437.455 49.0455 436.746 48.7662 436.628C48.7389 436.618 48.7139 436.609 48.7051 436.613L48.6083 436.487C48.398 436.262 48.2952 435.86 48.1699 435.564L48.1608 435.553C48.13 435.478 48.1099 435.412 48.0901 435.363C48.0536 435.27 48.0274 435.192 48.0091 435.123C48.0014 435.094 48.0146 435.063 48.0361 435.042C48.0361 435.042 48.0361 435.042 48.0361 435.042C48.0631 435.015 48.1036 435.002 48.1321 435.025C48.2205 435.09 48.3479 435.219 48.4795 435.297L48.4716 435.288C48.558 435.336 48.6549 435.387 48.7628 435.44C49.1452 435.636 49.1935 435.824 49.3246 436.129L49.2355 436.013C49.3994 436.185 49.4852 436.331 49.6649 436.536C49.9911 436.921 50.2718 437.185 50.5017 437.553C50.6382 437.847 50.639 437.948 50.6657 438.126C50.6838 438.291 50.6822 438.461 50.6593 438.644C50.5928 439.137 50.7129 439.426 50.7865 439.793C50.8536 440.144 50.877 440.569 50.5135 441.179C50.2592 441.596 50.1424 441.893 50.0713 442.189C50.0247 442.408 50.0369 442.617 50.0084 442.886C49.974 443.138 49.917 443.555 49.4182 444.01C49.3729 444.061 49.3202 444.115 49.2573 444.174C48.8852 444.524 48.2002 445.02 47.4051 445.226C47.1637 445.277 46.635 445.428 46.2687 445.444C45.8865 445.474 45.5813 445.459 45.3457 445.468C45.3303 445.468 45.3152 445.469 45.3004 445.47C44.5856 445.511 43.5997 445.558 42.6281 445.405C42.5736 445.396 42.5147 445.387 42.4514 445.378C42.1846 445.337 41.8295 445.362 41.3474 445.292C40.8694 445.235 40.253 444.952 39.8859 444.547C39.4921 444.142 39.1734 443.749 38.9218 443.374C38.8311 443.238 38.7318 443.098 38.6467 442.99C38.1451 442.465 38.1397 442.051 38.0461 441.887C37.749 441.319 37.2241 440.77 36.9383 440.448C36.6824 440.166 36.5122 439.997 36.3272 439.856C36.145 439.719 35.9477 439.61 35.6151 439.479C35.2323 439.324 34.7483 439.062 34.3542 438.694C34.1603 438.497 34.2838 438.411 34.5232 438.445C34.8915 438.494 35.151 438.671 35.3968 438.602C35.8921 438.466 36.1261 438.439 36.461 438.865C36.573 439.01 36.6926 439.078 36.815 439.115C37.0479 439.183 37.2905 439.128 37.4291 439.268C37.6336 439.503 37.4922 439.611 38.7507 440.511C38.9334 440.654 39.1015 440.803 39.2552 440.965C39.6602 441.467 39.7962 441.69 39.7927 441.606C40.2829 441.966 40.5082 442.215 40.7245 442.416C40.9101 442.593 41.1254 442.908 41.3468 443.207C41.4542 443.384 41.5629 443.484 41.9887 443.458C42.1631 443.447 42.4206 443.429 42.7717 443.446C43.6716 443.506 44.7544 443.554 45.2764 443.442C45.2918 443.438 45.307 443.435 45.3218 443.433C45.8517 443.297 45.8439 443.586 46.3078 443.62Z" fill="#A5845B"/>
<path d="M55.0071 425.656C55.0137 425.644 55.0199 425.632 55.0257 425.62C55.2348 425.2 54.5159 424.66 54.5664 423.895C54.5835 423.601 54.6409 423.384 54.7061 423.173C54.8228 422.926 54.9504 422.669 54.7312 422.308C54.6324 422.15 54.5688 422.075 54.3753 421.748C54.1193 421.263 53.8065 420.682 53.5379 420.484C53.4644 420.431 53.4191 420.376 53.3907 420.319C53.2869 420.097 53.4648 419.862 53.1026 419.453C53.0221 419.357 52.9513 419.256 52.8931 419.154C52.7082 418.865 52.5472 418.513 52.4751 418.024C52.4662 417.964 52.4533 417.893 52.4389 417.812C52.3782 417.402 52.1832 416.742 52.0892 416.118C52.0344 415.726 52.0288 415.396 51.9768 415.18C51.8942 414.804 52.0031 414.433 52.2033 414.075L52.2531 413.979C52.4267 413.854 52.5877 413.719 52.6765 413.59C52.6886 413.572 52.7004 413.556 52.7119 413.539C52.7673 413.458 52.8217 413.396 52.871 413.349C52.8966 413.325 52.9308 413.323 52.9591 413.334C52.9591 413.334 52.9591 413.334 52.9592 413.334C52.9944 413.348 53.0206 413.383 53.0099 413.423C52.9935 413.484 52.9774 413.555 52.9637 413.635C52.9303 413.822 52.8772 414.053 52.7978 414.325C52.793 414.342 52.7879 414.358 52.7828 414.373L52.8309 414.281C52.9363 414.828 52.6378 414.923 52.7588 415.721C52.7802 415.828 52.8086 415.926 52.8423 416.009C53.0278 416.476 53.3055 416.82 53.4902 417.419C53.5236 417.53 53.559 417.651 53.6002 417.793C53.6973 418.122 53.8917 418.317 54.1014 418.579C54.2863 418.751 54.5534 418.889 54.8309 419.357C54.9235 419.517 55.0142 419.712 55.1059 419.965C55.273 420.423 55.474 420.717 55.6857 420.982C56.0138 421.28 56.8297 421.82 56.9586 423.073C56.9601 423.085 56.9617 423.096 56.9632 423.109C57.0438 423.904 57.1233 424.839 56.7943 426.057C56.5548 426.726 56.2576 427.281 56.0916 427.666C55.9274 428.054 55.7095 428.489 55.472 428.907C55.0897 429.575 54.5217 430.211 53.7442 430.655C53.6889 430.686 53.6319 430.717 53.5701 430.75C53.5123 430.766 52.9584 431.173 52.4817 431.255C51.9909 431.363 51.5507 431.335 51.1512 431.278C50.5002 431.167 49.7518 431.204 48.8651 430.765C48.7798 430.72 48.6947 430.671 48.6114 430.619C48.219 430.341 47.145 429.914 46.7635 428.873C46.4818 427.831 46.7264 427.119 46.871 426.644C46.8876 426.597 46.9038 426.553 46.9203 426.509C47.0532 426.168 47.1521 425.935 47.2398 425.706C47.2841 425.592 47.3254 425.478 47.3762 425.351C47.4402 425.221 47.4444 425.09 47.6722 424.879C47.7265 424.833 47.7937 424.768 47.8957 424.698C48.0174 424.612 48.2175 424.54 48.4086 424.551C48.6306 424.559 48.8718 424.583 49.1226 424.647C49.3575 424.716 49.6903 424.797 49.8137 425.122C49.8209 425.146 49.8244 425.169 49.8255 425.19C49.8222 425.371 49.7242 425.321 49.7049 425.33C49.6733 425.326 49.6533 425.312 49.6424 425.294C49.6313 425.276 49.632 425.251 49.6358 425.224C49.65 425.208 49.6083 425.126 49.5983 425.276C49.5798 425.263 49.5614 425.255 49.5408 425.247C49.3242 425.176 48.9054 425.121 48.699 425.27C48.5739 425.357 48.4687 425.43 48.3698 425.485C48.3392 425.629 48.5506 425.551 48.2439 425.697C48.3512 425.592 48.2962 425.586 48.2563 425.605C48.0945 425.7 48.0851 425.936 48.1211 426.1C48.1545 426.275 48.2176 426.429 48.1584 426.57C48.1286 426.642 48.091 426.691 48.0486 426.752C47.9543 426.886 47.669 427.234 47.9877 428.157C48.0145 428.218 48.0485 428.281 48.0641 428.288C48.1809 428.422 48.3936 428.54 48.6375 428.636C48.8903 428.738 49.1048 428.782 49.457 428.927C49.6636 429.001 49.8249 429.027 50.002 429.047C50.2632 429.08 50.8489 429.203 51.4998 429.365C51.8613 429.467 52.1336 429.459 52.2416 429.35C52.2976 429.309 52.3306 429.261 52.6073 429.083C52.9783 428.845 53.4952 428.355 53.7605 427.869C54.0153 427.432 54.1872 427.067 54.2542 426.807C54.4217 426.094 54.6825 426.208 55.0071 425.656Z" fill="#A5845B"/>
<path d="M56.4716 391.669C56.6053 391.65 56.7337 391.624 56.8582 391.592C57.26 391.49 57.6617 391.371 58.1553 391.344C58.3992 391.33 58.6721 391.35 58.9281 391.407C59.1753 391.458 59.4401 391.556 59.4475 391.514C60.1448 391.679 60.5551 391.903 60.9748 392.086C61.0962 392.143 61.2188 392.206 61.3423 392.275C61.7035 392.48 61.9863 392.673 62.2237 392.853C63.422 393.827 63.2235 394.606 63.5944 395.331C63.7099 395.562 63.8466 395.823 64.0054 396.123C64.149 396.394 64.2743 396.66 64.3952 396.912C64.6582 397.588 64.5831 397.859 64.6209 398.212C64.6366 398.544 64.6496 398.847 64.6722 399.136C64.7542 400.135 64.6797 400.958 64.6854 401.506C64.683 401.645 64.6874 401.721 64.6341 401.929C64.5024 402.398 64.2951 402.552 63.9306 403.39C63.8619 403.519 63.7916 403.669 63.7233 403.844C63.5754 404.222 63.4524 404.533 63.3312 404.833C63.1252 405.347 62.8332 405.717 62.6273 406.047C62.4735 406.316 62.2462 406.573 61.9692 406.761C61.7193 406.945 61.3007 407.112 60.993 407.272C60.5787 407.51 60.1244 407.852 59.5994 408.197C59.0618 408.542 58.4937 408.946 57.9968 409.266C57.5614 409.552 57.1818 409.79 56.949 409.986C56.8305 410.085 56.711 410.178 56.5972 410.27C56.2261 410.564 55.8557 410.782 55.6881 411.038L55.6973 411.018C55.3396 411.668 54.8633 412.087 54.4916 412.386C54.3635 412.487 54.2385 412.564 54.1226 412.616C54.047 412.646 53.9815 412.684 53.9216 412.72C53.8629 412.756 53.8182 412.758 53.7967 412.736C53.7966 412.736 53.7966 412.736 53.7966 412.736C53.7702 412.709 53.7767 412.648 53.8421 412.58C53.8888 412.533 53.9434 412.482 54.0095 412.436C54.3248 412.198 54.6594 411.729 54.8662 411.143C54.9207 410.986 54.9632 410.847 54.9932 410.729L55.0023 410.709C55.3112 410.009 55.7304 409.871 56.124 409.597C56.4829 409.364 56.9249 409.149 57.5231 408.726C57.5548 408.703 57.586 408.681 57.6171 408.658C58.1877 408.246 58.6007 407.851 59.0981 407.447C59.4613 407.138 59.8624 406.75 60.3889 406.382C60.9486 406.027 61.2434 405.945 61.4817 405.626C61.5038 405.597 61.524 405.566 61.5428 405.534C61.8442 404.992 62.0436 404.676 62.1329 404.336C62.2967 403.798 62.4467 403.297 62.6437 402.765C62.6998 402.561 62.7704 402.077 62.9783 401.431C62.9876 401.429 63.0435 401.173 63.0751 401C63.111 400.807 63.1458 400.596 63.1781 400.366C63.2325 399.976 63.24 399.624 63.2199 399.31C63.19 398.886 63.1617 398.523 63.1178 398.209C63.0809 397.913 62.9897 397.575 62.9416 397.606C62.6198 397.123 62.3214 396.728 61.9383 396.215C61.7348 395.901 61.6156 395.665 61.4782 395.434C61.3486 395.21 61.1996 394.997 61.1117 394.926C61.0822 394.901 61.0685 394.899 61.0778 394.907C60.7023 394.706 60.3176 394.507 59.9169 394.308C59.3917 394.054 58.8983 393.708 58.6894 393.624C58.3278 393.473 58.2737 393.416 58.1963 393.384C58.1299 393.351 58.0793 393.331 57.9984 393.316C57.841 393.286 57.5926 393.3 57.3305 393.353C56.826 393.461 56.3355 393.55 55.9386 393.641C55.3513 393.765 54.9742 393.815 55.0588 393.788C54.633 394.071 54.3029 394.214 54.1175 394.342C54.0691 394.375 54.0264 394.405 53.9903 394.434C53.7226 394.631 53.5825 394.862 53.6152 394.852C53.4752 395.5 53.4002 395.76 53.4035 396.24C53.4031 396.575 53.4063 396.918 53.4179 397.256C53.4238 397.426 53.4319 397.595 53.4443 397.753C53.4529 397.898 53.4865 398.106 53.4812 398.079C53.596 398.449 53.872 398.973 54.1455 399.467C54.1741 399.518 54.2019 399.568 54.229 399.617C54.3744 399.882 54.5255 400.092 54.6014 400.146C54.554 400.111 54.4903 400.069 54.3957 400.031C54.2781 399.986 54.1206 399.949 53.9211 399.98C53.4923 400.063 53.3594 400.304 53.3035 400.377C53.1973 400.557 53.2141 400.577 53.2031 400.602C53.195 400.64 53.2014 400.614 53.2038 400.59C53.2103 400.537 53.2166 400.455 53.2219 400.372C53.2327 400.204 53.2418 400.02 53.2529 399.834C53.2747 399.459 53.3036 399.072 53.3467 398.68C53.364 398.525 53.3797 398.372 53.4103 398.182C53.4271 398.085 53.444 397.98 53.4937 397.824C53.5387 397.68 53.6604 397.396 53.9134 397.19C54.2868 396.894 54.5984 396.806 54.9286 396.738C55.0924 396.731 55.4564 396.467 56.2566 396.476C56.6541 396.527 57.2024 396.392 58.0357 396.883C58.0983 396.926 58.1666 396.962 58.34 397.026C58.5025 397.091 58.8296 397.188 59.1516 397.464C59.3026 397.603 59.4673 397.728 59.6979 397.917C59.8796 398.066 60.1086 398.278 60.2871 398.522C60.6226 398.996 61.0184 399.562 61.1726 400.369C61.3024 401.518 61.219 402.46 61.1045 403.45C61.018 404.22 60.6668 404.82 60.4772 405.285C60.2776 405.769 60.0672 406.242 59.8118 406.636C59.6519 406.885 59.4892 407.146 59.3328 407.355C58.892 407.95 58.4693 408.309 58.0841 408.586C57.5258 408.986 57.0963 409.347 56.4319 409.938C56.3041 410.052 56.1663 410.17 56.0166 410.296C55.4748 410.748 54.8204 411.205 54.3025 411.841C53.999 412.203 53.7157 412.586 53.512 412.984C53.3737 413.257 53.3372 413.382 53.28 413.345C53.2241 413.307 53.1899 413.073 53.2824 412.745C53.4216 412.251 53.6647 411.86 53.878 411.533C54.0822 411.222 54.2753 410.97 54.3967 410.736C54.8319 409.931 55.1598 409.59 55.7967 409.165C55.9316 409.074 56.0835 408.979 56.258 408.877C56.8663 408.521 57.1721 408.139 57.4569 407.792C57.6217 407.57 57.7326 407.367 57.9113 407.193C58.1753 406.915 58.3378 406.942 58.8318 406.088C58.9892 405.833 59.1459 405.462 59.3222 404.886C59.4404 404.5 59.6052 404.099 59.6651 403.723C59.6861 403.593 59.6953 403.47 59.6952 403.348C59.7092 402.313 59.6268 401.315 59.4942 400.731C59.3964 400.407 59.1146 400.029 58.8249 399.703C58.6836 399.531 58.2669 399.314 57.871 398.998C57.9052 399.031 57.8711 399.007 57.7184 398.963C57.5579 398.912 57.234 398.811 56.9076 398.592C57.002 398.609 56.6628 398.518 56.1285 398.486C56.1723 398.446 55.8567 398.551 55.2606 398.669C55.1856 398.67 55.0905 398.718 55.1375 398.68C55.2653 398.575 55.3151 398.436 55.3119 398.434C55.3132 398.422 55.2992 398.466 55.2886 398.518C55.2657 398.625 55.2435 398.771 55.2228 398.916C55.1362 399.506 55.1126 400.05 55.0888 400.69C55.0846 400.758 55.081 400.828 55.0644 400.939C55.053 401.001 55.0501 401.057 54.995 401.21C54.9446 401.299 54.9693 401.405 54.6377 401.68C54.4903 401.809 54.0978 401.908 53.8832 401.85C53.6313 401.795 53.5523 401.726 53.4618 401.665C52.9538 401.286 52.7072 400.834 52.4758 400.471C52.1734 399.966 51.8451 399.456 51.5774 398.684C51.3322 397.551 51.4187 396.983 51.4006 396.21C51.3833 395.564 51.5956 394.772 51.6567 394.457C51.8965 393.452 52.4819 393.101 52.7783 392.821C52.8678 392.748 52.9503 392.687 53.0246 392.634C53.488 392.315 53.7058 392.203 53.8542 392.103C54.3762 391.768 54.6916 391.785 54.9034 391.762C55.1178 391.753 55.2608 391.769 55.3932 391.775C55.698 391.748 56.0221 391.732 56.4716 391.669Z" fill="#A5845B"/>
<path d="M71.0977 411.628C71.0931 411.369 71.0444 411.12 70.9702 410.869C70.7964 410.278 70.4143 409.864 69.9845 409.287C69.7583 409.04 69.4514 408.765 69.0746 408.402C68.8301 408.167 68.608 407.972 68.4264 407.812C68.1529 407.564 67.8983 407.374 67.5635 407.261C67.0055 407.119 66.5224 406.929 65.8215 406.918C65.5499 406.917 65.3019 406.938 65.0984 406.99C64.944 407.03 64.8316 407.077 64.7152 407.15C64.5858 407.221 64.5 407.354 64.0821 407.597C64.1818 407.544 64.2413 407.43 64.229 407.439C64.2226 407.441 64.1963 407.512 64.1722 407.6C64.1222 407.78 64.0589 408.03 63.9574 408.267C63.8564 408.296 64.0795 408.788 64.3408 408.958C64.7461 409.26 64.8293 409.519 65.1121 409.878C65.4612 410.258 65.57 410.618 65.7976 411.131C65.9318 411.453 66.0191 411.75 66.0801 412.039C66.195 412.565 66.3628 412.904 66.6204 413.541C66.7197 413.82 66.77 414.095 66.8049 414.378C66.8138 414.451 66.8237 414.532 66.8343 414.619C66.9024 415.365 66.9713 416.37 66.6317 417.604C66.3947 418.128 66.0595 418.624 65.6569 418.995C65.2819 419.351 65.0584 419.952 64.7728 420.278C64.7348 420.328 64.6954 420.376 64.6529 420.423C64.3286 420.81 63.7436 421.151 63.2463 421.233L63.3102 421.208C62.8002 421.422 62.2933 421.487 61.8611 421.531L61.8158 421.538C61.536 421.513 61.2886 421.482 61.0733 421.465C60.7884 421.442 60.565 421.409 60.3936 421.374C60.3211 421.359 60.2876 421.328 60.2875 421.298C60.2875 421.298 60.2875 421.298 60.2875 421.298C60.2876 421.26 60.3395 421.222 60.4328 421.218C60.7745 421.198 61.2526 421.165 61.7943 421.066L61.7543 421.072C61.9181 421.008 62.0863 420.935 62.2537 420.85C62.545 420.702 62.7567 420.582 62.9417 420.474L63.0055 420.448C63.4631 420.284 63.7002 420.202 64.1251 419.845C64.3751 419.64 64.5273 419.371 64.8856 418.795C64.969 418.674 65.0642 418.557 65.1671 418.452C65.4993 418.091 65.6887 417.677 65.8215 417.256C65.8719 416.749 65.8549 415.715 65.7262 414.869C65.679 414.62 65.6317 414.371 65.5643 414.142C65.5537 414.106 65.5424 414.072 65.5306 414.039C65.2842 413.493 64.9287 412.852 64.779 412.277C64.6948 412.017 64.5855 411.767 64.4621 411.532C64.4004 411.416 64.3339 411.302 64.2677 411.208C64.2084 411.118 64.1151 411.034 64.1498 411.081C63.6545 410.65 62.8462 410.276 62.4471 408.723C62.3956 408.394 62.4385 408.018 62.5781 407.721C62.6546 407.587 62.7035 407.423 62.7674 407.198C62.8015 407.084 62.8372 406.951 62.9225 406.783C63.003 406.618 63.1773 406.408 63.387 406.301C63.4186 406.295 63.67 406.034 63.9129 405.858C64.1647 405.671 64.4412 405.534 64.7042 405.437C65.7095 405.06 66.8103 405.139 67.8335 405.226C68.2493 405.257 68.6901 405.357 69.142 405.549C69.3101 405.621 69.4756 405.704 69.6377 405.799C70.544 406.353 71.4317 407.044 72.038 408.252C72.3368 408.89 72.668 409.7 72.7866 410.479C72.9316 411.319 73.006 412.24 72.8596 413.089C72.7317 413.821 72.538 414.423 72.3798 414.916C72.359 414.98 72.3401 415.052 72.3224 415.13C72.2246 415.634 72.0058 416.545 71.5291 417.236C71.0524 417.95 70.5095 418.757 69.5229 419.417C69.2379 419.599 68.8972 419.855 68.4705 420.088C68.1171 420.273 67.7806 420.537 67.1749 420.835C67.0169 420.907 66.8615 420.967 66.7132 421.018C66.1883 421.197 65.7654 421.32 65.5355 421.497C65.0029 421.879 64.4792 422.057 64.0952 422.236C63.5211 422.507 62.8984 422.556 62.6013 422.647C61.8286 422.926 60.5827 423.06 59.6488 422.88C59.1189 422.798 58.6358 422.612 58.2612 422.465C57.8631 422.305 57.4916 422.188 56.9824 421.948C56.8643 421.889 56.7318 421.823 56.5591 421.692C56.2059 421.399 55.8648 421.091 55.5316 420.627C55.1751 420.061 54.691 419.611 54.2998 418.625C54.0793 417.845 54.1072 417.128 54.268 416.436C54.4702 415.774 54.4461 415.151 55.0622 414.36C55.4931 413.952 55.8854 413.892 56.0989 413.757C56.5578 413.507 56.9307 413.402 57.297 413.327C57.363 413.315 57.4288 413.305 57.4954 413.297C58.2684 413.219 59.0216 413.184 59.4915 413.756C59.79 414.202 60.3188 414.417 60.6252 415.33C60.6662 415.545 60.7084 415.779 60.744 416.044C60.7684 416.23 60.7867 416.429 60.7851 416.647C60.7705 416.87 60.8033 417.087 60.5987 417.422C60.3511 417.754 60.0256 418.368 59.3788 418.513C58.8871 418.615 58.4246 418.605 57.9841 418.541C57.64 418.487 57.5265 418.38 57.578 418.34C57.6254 418.298 57.8158 418.285 58.1373 418.245C58.5478 418.193 58.9357 418.13 59.2335 418.029C59.5637 417.913 59.7306 417.619 59.8032 417.346C59.8386 417.209 59.8736 417.074 59.9245 416.938C59.8503 416.972 59.8523 416.848 59.8198 416.749C59.7933 416.643 59.7668 416.526 59.7442 416.402C59.6983 416.151 59.6702 415.867 59.6553 415.482C59.6716 415.484 59.6748 415.421 59.6428 415.326C59.4903 414.926 59.1037 414.664 58.7546 414.347C58.6991 414.39 58.5237 414.443 58.2236 414.439C58.0477 414.435 57.9132 414.42 57.694 414.421C57.5394 414.405 57.158 414.456 56.7198 414.705C56.3933 414.913 56.0274 415.056 55.9516 415.178C55.9133 415.199 55.7682 415.72 55.7047 416.274C55.6852 416.416 55.6661 416.559 55.6463 416.701C55.5781 417.224 55.6625 417.76 55.8031 418.092C55.9841 418.439 56.5658 419.05 56.9635 419.538C57.1479 419.75 57.4393 419.982 57.6915 420.152C57.6655 420.136 58.0003 420.264 58.2297 420.329C58.4795 420.406 58.7265 420.481 58.9569 420.557C58.9653 420.56 58.9737 420.563 58.9821 420.566C59.3106 420.673 59.632 420.8 59.9687 420.863C60.6425 420.982 61.208 421.033 62.128 420.775C62.7292 420.647 63.0664 420.642 63.3342 420.516C63.8339 420.308 64.2162 420.152 64.423 419.979C64.4615 419.95 64.4999 419.921 64.5386 419.894C65.1508 419.462 65.8737 419.304 66.3253 419.071C66.5722 418.947 67.0016 418.627 67.5005 418.344C67.7723 418.194 68.0648 417.974 68.4389 417.73C68.9709 417.385 69.4783 416.73 69.8709 416.121C70.1975 415.615 70.2549 415.208 70.3512 414.652C70.3724 414.536 70.3988 414.413 70.4338 414.289C70.628 413.526 70.7403 413.183 70.8771 412.829C70.9847 412.556 71.1049 412.245 71.0977 411.628Z" fill="#A5845B"/>
<path d="M59.3641 429.306C59.3683 429.291 59.3719 429.276 59.3749 429.262C59.4292 429.004 59.2731 428.78 59.1035 428.573C58.9324 428.353 58.7542 428.205 58.7236 427.821C58.7185 427.753 58.7156 427.683 58.7158 427.61C58.7731 427.717 58.8001 427.624 58.8146 427.556C58.8292 427.479 58.8344 427.387 58.8273 427.29C58.8119 427.094 58.7438 426.879 58.5087 426.571C58.4273 426.463 58.3533 426.349 58.2865 426.23C58.1027 425.901 57.8996 425.49 57.7372 425.113C57.6503 424.915 57.5844 424.747 57.505 424.635C57.2766 424.301 57.5826 424.143 57.5645 423.863C57.5673 423.838 57.5571 423.811 57.5251 423.782C57.394 423.661 57.1883 423.469 57.042 423.069C57.0519 423.027 57.0433 422.95 56.989 422.824C56.9375 422.691 56.7391 422.424 56.6335 422.089C56.4809 421.554 56.1195 420.925 55.857 420.668C55.78 420.597 55.7197 420.513 55.6727 420.422L55.6663 420.408C55.5096 420.076 55.4982 419.641 55.3678 419.401L55.3601 419.392C55.3595 419.391 55.3588 419.389 55.3581 419.388C55.3018 419.276 55.2892 419.168 55.2972 419.095C55.3002 419.063 55.3245 419.04 55.3527 419.029C55.3527 419.029 55.3528 419.029 55.3528 419.029C55.388 419.015 55.4299 419.02 55.4471 419.048C55.4805 419.104 55.5272 419.159 55.5968 419.209C55.7147 419.286 55.8636 419.389 56.0374 419.509C56.3172 419.708 56.3825 419.878 56.4421 420.073L56.4362 420.06C56.4894 420.223 56.5444 420.415 56.7701 420.699C57.0492 421.045 57.3417 421.313 57.5592 421.676C57.6621 421.819 57.6982 421.822 58.0049 422.296C58.043 422.364 58.0805 422.436 58.1133 422.508C58.1778 422.756 58.6816 422.842 58.9665 423.546C59.1078 423.876 59.134 424.106 59.1229 424.462C59.1229 424.462 59.1229 424.463 59.1229 424.464C59.1501 424.916 59.4156 425.205 59.6733 425.439C59.9894 425.711 60.3552 425.737 60.8452 426.503C60.9334 426.665 61.0411 426.841 61.1115 427.222C61.2124 427.649 61.2901 428.63 61.1957 429.24C61.1285 429.814 61.0366 430.311 61.0278 430.652C61.019 431.063 60.9945 431.584 60.9438 432.068C60.9158 432.366 60.8477 432.72 60.7187 433.05C60.6305 433.276 60.524 433.513 60.3878 433.751C60.1425 434.182 59.8409 434.691 59.4099 435.129C59.2444 435.304 59.0133 435.655 58.6197 435.997C58.2355 436.345 57.6031 436.615 57.0645 436.596C56.9799 436.595 56.8959 436.591 56.8108 436.582C55.9577 436.451 54.8333 436.346 53.9812 435.962C53.762 435.853 53.5216 435.773 53.3385 435.705C52.5986 435.425 52.4163 435.429 51.623 435.173C51.5738 435.154 51.5233 435.131 51.4726 435.103C51.1105 434.919 50.7253 434.576 50.4098 434.325C50.3223 434.26 50.2591 434.229 50.2574 434.172C50.2534 434.115 50.3721 434.038 50.5307 434.049C50.9793 434.09 51.192 434.323 51.4498 434.272C51.6905 434.229 51.864 434.203 52.0128 434.233C52.1217 434.23 52.195 434.285 52.3524 434.444C52.6832 434.748 52.9938 434.338 53.2415 434.432C53.4648 434.518 53.4278 434.653 54.3068 434.819C54.4559 434.851 54.63 434.87 54.8592 434.862C55.6641 434.822 56.3284 434.727 56.8029 434.687C56.9461 434.661 57.0163 434.62 57.0738 434.58C57.1795 434.522 57.4574 434.387 58.0982 433.754C58.2522 433.628 58.3806 433.472 58.4632 433.296C58.5662 433.083 58.707 432.773 58.8422 432.374C58.8996 432.206 58.9329 432.04 58.9531 431.833C59.0179 431.268 59.0429 430.817 59.0041 430.517C58.9093 429.842 59.199 429.858 59.3641 429.306Z" fill="#A5845B"/>
<path d="M57.9578 442.21C58.0889 441.821 57.7051 441.487 57.5494 441.076C57.4988 440.965 57.4693 440.855 57.4833 440.734C57.5261 440.243 57.8857 440.138 57.563 439.416C57.5251 439.328 57.4919 439.233 57.4645 439.134C57.3475 438.691 57.1953 438.135 56.9256 437.985C56.904 437.974 56.8857 437.961 56.8702 437.948C56.6922 437.821 56.9844 437.519 56.6444 437.326C56.4225 437.201 56.2442 437.114 56.019 436.77C56.0628 436.774 56.0243 436.672 55.9458 436.569C55.76 436.255 54.5044 435.882 54.0457 436.048C53.9925 436.065 53.9392 436.075 53.8863 436.08L53.8519 436.076C53.3127 436.032 53.0679 435.613 52.8571 435.411C52.8407 435.393 52.8221 435.376 52.804 435.361C52.7291 435.297 52.6756 435.238 52.634 435.183C52.6165 435.16 52.617 435.127 52.6284 435.099C52.6284 435.099 52.6284 435.099 52.6284 435.099C52.6425 435.064 52.673 435.036 52.7053 435.044C52.7859 435.063 52.89 435.087 53.0126 435.107C53.1291 435.128 53.2625 435.142 53.4089 435.138C53.7524 435.126 53.8372 435.209 53.9879 435.268L53.9566 435.264C54.0991 435.294 54.2732 435.32 54.551 435.306C55.2897 435.308 55.7613 435.005 56.71 435.725C56.8041 435.812 56.9005 435.904 56.9936 436.028C57.1296 436.208 57.8744 436.216 58.2786 436.966C58.3449 437.093 58.4054 437.245 58.4536 437.432C58.6148 438.065 58.8163 438.392 59.0485 438.724C59.2534 438.952 59.5921 439.118 59.8177 439.865C59.9248 440.241 59.9557 440.66 59.9323 441.048C59.8996 441.515 59.8275 441.986 59.7544 442.421C59.7175 442.638 59.6809 442.845 59.6443 443.048C59.6257 443.15 59.6077 443.251 59.5844 443.365C59.5513 443.489 59.5647 443.569 59.4161 443.869C59.3907 443.915 59.3478 443.985 59.2814 444.059C59.0209 444.321 58.9223 444.319 58.826 444.369C58.7366 444.405 58.6684 444.425 58.6053 444.443C58.48 444.478 58.377 444.498 58.2735 444.517C58.0689 444.552 57.8734 444.574 57.672 444.588C57.2697 444.613 56.8496 444.606 56.402 444.536C56.1466 444.495 55.9816 444.442 55.7938 444.378C55.4146 444.244 55.0183 444.119 54.6118 443.972C53.918 443.719 53.0606 443.416 52.4525 442.674C52.3766 442.579 52.3014 442.477 52.23 442.367C51.7614 441.583 51.6891 440.999 51.457 440.422C51.2938 439.979 51.1628 439.581 51.086 439.303C50.9741 438.899 50.9166 438.667 50.8125 438.447C50.7245 438.26 50.6327 438.08 50.4857 437.818C50.2881 437.467 50.1488 436.947 50.1433 436.459C50.1363 436.214 50.2786 436.196 50.4356 436.389C50.6607 436.671 50.7011 436.956 50.9223 437.058C51.3634 437.26 51.5343 437.355 51.5139 437.809C51.5088 437.92 51.5373 438.004 51.577 438.052C51.7365 438.277 52.0209 438.312 52.072 438.499C52.1396 438.734 51.9105 438.86 52.6027 439.781C52.6318 439.82 52.6617 439.859 52.6933 439.901C53.1762 440.537 53.5061 441.078 53.662 441.174C53.8072 441.298 53.9476 441.387 54.0782 441.459C54.3046 441.589 54.7494 441.966 55.3274 442.225C55.5032 442.307 55.6835 442.371 55.8568 442.407C56.0738 442.452 56.4242 442.54 56.6374 442.562C56.9603 442.595 57.3302 442.607 57.645 442.585C57.8016 442.574 57.9469 442.554 58.0469 442.527C58.0956 442.515 58.1349 442.499 58.1365 442.49C58.1362 442.486 58.1279 442.482 58.0878 442.494C58.0446 442.516 57.9844 442.502 57.7771 442.704C57.7199 442.765 57.681 442.823 57.661 442.853C57.5636 443.015 57.5757 443.013 57.5628 443.026C57.5558 443.033 57.5546 443.022 57.5544 443.01C57.5544 442.983 57.5604 442.945 57.5698 442.91C57.5886 442.838 57.6227 442.772 57.6652 442.71C57.75 442.584 57.8704 442.465 57.9578 442.21Z" fill="#A5845B"/>
</g>
<defs>
<filter id="filter0_d_2894_165" x="0" y="0" width="83" height="467" filterUnits="userSpaceOnUse" color-interpolation-filters="sRGB">
<feFlood flood-opacity="0" result="BackgroundImageFix"/>
<feColorMatrix in="SourceAlpha" type="matrix" values="0 0 0 0 0 0 0 0 0 0 0 0 0 0 0 0 0 0 127 0" result="hardAlpha"/>
<feOffset dx="4" dy="4"/>
<feGaussianBlur stdDeviation="2"/>
<feComposite in2="hardAlpha" operator="out"/>
<feColorMatrix type="matrix" values="0 0 0 0 0.678431 0 0 0 0 0.509804 0 0 0 0 0.32549 0 0 0 0.9 0"/>
<feBlend mode="normal" in2="BackgroundImageFix" result="effect1_dropShadow_2894_165"/>
<feBlend mode="normal" in="SourceGraphic" in2="effect1_dropShadow_2894_165" result="shape"/>
</filter>
<filter id="filter1_d_2894_165" x="19" y="205" width="37" height="57" filterUnits="userSpaceOnUse" color-interpolation-filters="sRGB">
<feFlood flood-opacity="0" result="BackgroundImageFix"/>
<feColorMatrix in="SourceAlpha" type="matrix" values="0 0 0 0 0 0 0 0 0 0 0 0 0 0 0 0 0 0 127 0" result="hardAlpha"/>
<feOffset dy="4"/>
<feGaussianBlur stdDeviation="2"/>
<feComposite in2="hardAlpha" operator="out"/>
<feColorMatrix type="matrix" values="0 0 0 0 0 0 0 0 0 0 0 0 0 0 0 0 0 0 0.25 0"/>
<feBlend mode="normal" in2="BackgroundImageFix" result="effect1_dropShadow_2894_165"/>
<feBlend mode="normal" in="SourceGraphic" in2="effect1_dropShadow_2894_165" result="shape"/>
</filter>
<filter id="filter2_d_2894_165" x="3.05029" y="1.32422" width="73.499" height="75.0859" filterUnits="userSpaceOnUse" color-interpolation-filters="sRGB">
<feFlood flood-opacity="0" result="BackgroundImageFix"/>
<feColorMatrix in="SourceAlpha" type="matrix" values="0 0 0 0 0 0 0 0 0 0 0 0 0 0 0 0 0 0 127 0" result="hardAlpha"/>
<feOffset dy="4"/>
<feGaussianBlur stdDeviation="2"/>
<feComposite in2="hardAlpha" operator="out"/>
<feColorMatrix type="matrix" values="0 0 0 0 0 0 0 0 0 0 0 0 0 0 0 0 0 0 0.25 0"/>
<feBlend mode="normal" in2="BackgroundImageFix" result="effect1_dropShadow_2894_165"/>
<feBlend mode="normal" in="SourceGraphic" in2="effect1_dropShadow_2894_165" result="shape"/>
</filter>
<filter id="filter3_d_2894_165" x="2.3584" y="391.34" width="74.5806" height="74.0469" filterUnits="userSpaceOnUse" color-interpolation-filters="sRGB">
<feFlood flood-opacity="0" result="BackgroundImageFix"/>
<feColorMatrix in="SourceAlpha" type="matrix" values="0 0 0 0 0 0 0 0 0 0 0 0 0 0 0 0 0 0 127 0" result="hardAlpha"/>
<feOffset dy="4"/>
<feGaussianBlur stdDeviation="2"/>
<feComposite in2="hardAlpha" operator="out"/>
<feColorMatrix type="matrix" values="0 0 0 0 0 0 0 0 0 0 0 0 0 0 0 0 0 0 0.25 0"/>
<feBlend mode="normal" in2="BackgroundImageFix" result="effect1_dropShadow_2894_165"/>
<feBlend mode="normal" in="SourceGraphic" in2="effect1_dropShadow_2894_165" result="shape"/>
</filter>
</defs>
</svg>
