<svg width="123" height="123" viewBox="0 0 123 123" fill="none" xmlns="http://www.w3.org/2000/svg">
<rect x="1.5" y="1.5" width="120" height="120" stroke="#AD8253" stroke-width="3" stroke-linejoin="bevel" stroke-dasharray="20 20"/>
<path d="M66.7825 66.7975C69.5425 64.0467 70.9225 60.7154 70.9225 56.8038C70.9225 52.8921 69.5475 49.5558 66.7975 46.795C64.0467 44.0342 60.7154 42.6537 56.8038 42.6537C52.8921 42.6537 49.5558 44.0292 46.795 46.78C44.0342 49.5308 42.6538 52.8621 42.6538 56.7738C42.6538 60.6854 44.0292 64.0217 46.78 66.7825C49.5308 69.5425 52.8621 70.9225 56.7738 70.9225C60.6854 70.9225 64.0217 69.5475 66.7825 66.7975ZM81.9713 85.0125L68.1925 71.1375C66.5 72.4258 64.6933 73.4175 62.7725 74.1125C60.8508 74.8067 58.8692 75.1538 56.8275 75.1538C51.6967 75.1538 47.3467 73.3692 43.7775 69.8C40.2075 66.23 38.4225 61.8929 38.4225 56.7888C38.4225 51.6838 40.2075 47.3467 43.7775 43.7775C47.3467 40.2075 51.6838 38.4225 56.7888 38.4225C61.8929 38.4225 66.23 40.2075 69.8 43.7775C73.3692 47.3467 75.1538 51.6967 75.1538 56.8275C75.1538 58.8692 74.8017 60.8508 74.0975 62.7725C73.3933 64.6933 72.3971 66.5 71.1088 68.1925L85.0125 82L81.9713 85.0125ZM28.8075 101.5C26.7592 101.5 25.0292 100.794 23.6175 99.3825C22.2058 97.9708 21.5 96.2408 21.5 94.1925V76.7825H25.7313V94.1925C25.7313 94.9617 26.0517 95.6667 26.6925 96.3075C27.3333 96.9483 28.0383 97.2688 28.8075 97.2688H46.2175V101.5H28.8075ZM76.7825 101.5V97.2688H94.1925C94.9617 97.2688 95.6667 96.9483 96.3075 96.3075C96.9483 95.6667 97.2688 94.9617 97.2688 94.1925V76.7825H101.5V94.1925C101.5 96.2408 100.794 97.9708 99.3825 99.3825C97.9708 100.794 96.2408 101.5 94.1925 101.5H76.7825ZM21.5 46.2175V28.8075C21.5 26.7592 22.2058 25.0292 23.6175 23.6175C25.0292 22.2058 26.7592 21.5 28.8075 21.5H46.2175V25.7312H28.8075C28.0383 25.7312 27.3333 26.0517 26.6925 26.6925C26.0517 27.3333 25.7313 28.0383 25.7313 28.8075V46.2175H21.5ZM97.2688 46.2175V28.8075C97.2688 28.0383 96.9483 27.3333 96.3075 26.6925C95.6667 26.0517 94.9617 25.7312 94.1925 25.7312H76.7825V21.5H94.1925C96.2408 21.5 97.9708 22.2058 99.3825 23.6175C100.794 25.0292 101.5 26.7592 101.5 28.8075V46.2175H97.2688Z" fill="#AD8253"/>
</svg>
