<svg width="45" height="45" viewBox="0 0 45 45" fill="none" xmlns="http://www.w3.org/2000/svg">
<path d="M32.5198 12.0792H32.5384M13.0079 3.7168H31.5907C36.7222 3.7168 40.8821 7.87679 40.8821 13.0084V31.5916C40.8821 36.7232 36.7222 40.8832 31.5907 40.8832H13.0079C7.87645 40.8832 3.71655 36.7232 3.71655 31.5916V13.0084C3.71655 7.87679 7.87645 3.7168 13.0079 3.7168ZM29.7324 21.1293C29.9618 22.6758 29.6976 24.2554 28.9775 25.6431C28.2574 27.0309 27.1181 28.1563 25.7216 28.8593C24.325 29.5622 22.7424 29.8069 21.1988 29.5585C19.6552 29.3101 18.2293 28.5813 17.1237 27.4757C16.0182 26.3702 15.2894 24.9442 15.041 23.4005C14.7926 21.8569 15.0373 20.2742 15.7402 18.8777C16.4431 17.4811 17.5685 16.3417 18.9563 15.6216C20.344 14.9015 21.9235 14.6374 23.47 14.8667C25.0476 15.1007 26.508 15.8358 27.6357 16.9635C28.7634 18.0912 29.4985 19.5517 29.7324 21.1293Z" stroke="#C4AE95" stroke-width="4" stroke-linecap="round" stroke-linejoin="round"/>
</svg>
