<svg width="55" height="40" viewBox="0 0 55 40" fill="none" xmlns="http://www.w3.org/2000/svg">
<path d="M40.6865 0.75C42.7653 0.75 44.8029 0.989491 46.7998 1.46875C48.7944 1.94746 50.7094 2.66584 52.5459 3.62402L52.5635 3.63379L52.582 3.6416C52.8961 3.78436 53.1096 3.98447 53.2529 4.24512C53.4204 4.54967 53.499 4.85786 53.499 5.17871V34.8916C53.499 35.5778 53.2317 36.0552 52.6533 36.4111C52.0895 36.7579 51.5422 36.7809 50.9072 36.4512C49.336 35.6019 47.689 34.9438 45.9688 34.4766C44.2403 34.0071 42.4789 33.7725 40.6865 33.7725C38.1311 33.7725 35.6583 34.2196 33.2725 35.1143C31.0765 35.9377 29.0264 37.069 27.124 38.5059C25.2218 37.0693 23.1723 35.9377 20.9766 35.1143C18.5907 34.2196 16.1179 33.7725 13.5625 33.7725C11.7702 33.7725 10.0087 34.0071 8.28027 34.4766C6.56006 34.9438 4.91302 35.6019 3.3418 36.4512C2.70661 36.781 2.15869 36.7582 1.59473 36.4111C1.0165 36.0552 0.75 35.5778 0.75 34.8916V5.17871C0.75 4.85785 0.828589 4.54968 0.996094 4.24512C1.13945 3.98446 1.35292 3.78436 1.66699 3.6416L1.68555 3.63379L1.70312 3.62402C3.53966 2.66583 5.4546 1.94746 7.44922 1.46875C9.44613 0.989491 11.4837 0.75 13.5625 0.75C15.8805 0.750022 18.1469 1.04943 20.3633 1.64844C22.5776 2.24691 24.7042 3.14576 26.7441 4.3457L27.124 4.56934L27.5049 4.3457C29.5448 3.14576 31.6714 2.24691 33.8857 1.64844C36.1021 1.04943 38.3685 0.750018 40.6865 0.75ZM40.6865 22.9424C41.7163 22.9424 42.7248 23.0218 43.7119 23.1797C44.5219 23.3093 45.3186 23.4659 46.1016 23.6475V25.9521C45.4057 25.7354 44.7043 25.5615 43.9971 25.4316C42.9419 25.2378 41.8378 25.1416 40.6865 25.1416C39.0652 25.1416 37.5023 25.3334 36 25.7197C34.9004 26.0025 33.836 26.3899 32.8066 26.8789V24.4209C33.9709 23.9581 35.1574 23.6047 36.3662 23.3594C37.7312 23.0824 39.171 22.9424 40.6865 22.9424ZM40.6865 16.1621C41.7163 16.1621 42.7248 16.2405 43.7119 16.3984C44.5219 16.528 45.3186 16.6847 46.1016 16.8662V19.1709C45.4057 18.9542 44.7042 18.7803 43.9971 18.6504C42.9419 18.4566 41.8378 18.3604 40.6865 18.3604C39.0617 18.3604 37.4956 18.5641 35.9902 18.9727C34.8948 19.27 33.8334 19.6533 32.8066 20.123V17.6396C33.9709 17.1768 35.1574 16.8234 36.3662 16.5781C37.7312 16.3012 39.171 16.1621 40.6865 16.1621ZM40.6865 9.38086C41.7164 9.38086 42.7248 9.46023 43.7119 9.61816C44.5219 9.74777 45.3186 9.90343 46.1016 10.085V12.3896C45.4057 12.1729 44.7042 11.999 43.9971 11.8691C42.9419 11.6753 41.8378 11.5791 40.6865 11.5791C39.0617 11.5791 37.4956 11.7828 35.9902 12.1914C34.8948 12.4887 33.8334 12.8721 32.8066 13.3418V10.8584C33.9709 10.3956 35.1574 10.0422 36.3662 9.79688C37.7312 9.51992 39.171 9.38087 40.6865 9.38086ZM25.4082 7.46094L25.0371 7.24316C23.2929 6.22222 21.4411 5.45577 19.4844 4.94531C17.533 4.43629 15.5585 4.18166 13.5625 4.18164C12.0342 4.18164 10.5161 4.32995 9.00977 4.62695C7.50057 4.92454 6.04292 5.37203 4.63867 5.96777L4.18164 6.16113V32.1201L5.1748 31.7793C6.57791 31.2982 7.96794 30.9387 9.34473 30.6992C10.719 30.4602 12.1249 30.3408 13.5625 30.3408C15.4375 30.3408 17.2596 30.55 19.0303 30.9678C20.8038 31.3862 22.5727 32.0149 24.3359 32.8564L25.4082 33.3682V7.46094ZM50.0674 6.16113L49.6104 5.96777C48.2061 5.37203 46.7485 4.92454 45.2393 4.62695C43.7329 4.32994 42.2149 4.18164 40.6865 4.18164C38.6905 4.18166 36.716 4.4363 34.7646 4.94531C32.8079 5.45577 30.9561 6.22222 29.2119 7.24316L28.8408 7.46094V33.3682L29.9131 32.8564C31.6763 32.0149 33.4452 31.3862 35.2188 30.9678C36.9894 30.55 38.8115 30.3408 40.6865 30.3408C42.1242 30.3408 43.53 30.4602 44.9043 30.6992C46.2811 30.9387 47.6711 31.2982 49.0742 31.7793L50.0674 32.1201V6.16113Z" fill="#C4AE95" stroke="#311A0E" stroke-width="1.5"/>
</svg>
