<svg width="69" height="55" viewBox="0 0 69 55" fill="none" xmlns="http://www.w3.org/2000/svg">
<path d="M24.5462 21.585C32.51 19.9859 36.9475 19.7155 43.9866 21.415L44.6761 21.5859L44.68 21.5869C46.6258 22.2144 48.0719 22.7326 49.0189 23.4092C49.4934 23.7483 49.8449 24.129 50.0716 24.585C50.2915 25.0274 50.3911 25.5375 50.3763 26.1436H53.3587L53.3724 26.1523C55.3519 27.4212 56.3496 28.6327 56.3128 29.9873C56.3707 32.1197 55.9073 33.7412 54.9241 35.0186L54.9232 35.0176C52.8592 37.8278 50.3073 38.8699 47.1194 38.9951C47.0399 39.2355 46.9554 39.4227 46.8167 39.584C46.6715 39.7528 46.4714 39.89 46.1702 40.0361L46.1624 40.04L46.1546 40.041C43.8893 40.393 42.2351 40.8197 40.7776 41.5391C39.3207 42.2582 38.0556 43.2723 36.5716 44.8047L36.556 44.8213H31.8948L31.8792 44.8047C30.6997 43.6114 29.7115 42.7138 28.3235 41.9814C26.9347 41.2487 25.1407 40.679 22.3489 40.1504L22.3304 40.1475L22.3177 40.1318C19.9723 37.3236 18.6482 35.1141 18.0433 32.8838C17.4383 30.6529 17.5537 28.4063 18.0755 25.5293L18.0775 25.5186L18.1292 25.5391L18.0784 25.5186C18.5458 24.3442 19.212 23.5768 20.2396 22.9951C21.2637 22.4155 22.6464 22.0204 24.5443 21.585H24.5462ZM20.9583 29.46C20.7579 29.464 20.5671 29.6058 20.3421 29.8408L20.3255 29.8584L20.3275 29.8838C20.4985 31.8428 20.7706 33.3196 21.3685 34.665C21.9666 36.011 22.8891 37.222 24.3538 38.6523L24.3675 38.665L24.3851 38.668C24.6784 38.7067 24.9115 38.7025 25.0648 38.5508C25.1408 38.4754 25.1926 38.368 25.2249 38.2266C25.2571 38.0852 25.2712 37.9053 25.2708 37.6797V37.6572L25.2552 37.6406C24.005 36.3626 23.2512 35.2681 22.7288 34.0713C22.3367 33.1727 22.0745 32.2144 21.8314 31.0742L21.5872 29.8535L21.5765 29.8418C21.3508 29.592 21.1602 29.4563 20.9583 29.46ZM53.2884 28.8027C52.7645 28.2282 51.9082 28.1089 50.5882 28.2861L50.5433 28.292L50.5413 28.3379C50.3552 32.0748 49.9759 33.9198 48.6243 36.6113L48.5618 36.7354L48.6917 36.6875C49.9424 36.2313 50.8998 35.8173 51.7288 35.1289C52.4546 34.5261 53.0796 33.7153 53.72 32.4883L54.0023 31.9238V31.9111C53.9937 31.1411 53.9441 30.5069 53.8333 29.9951C53.7224 29.4832 53.5491 29.0887 53.2884 28.8027Z" fill="#C4AE95"/>
<path d="M34.0051 22.5723C37.6286 22.5723 40.9082 22.7998 43.2805 23.167C44.4671 23.3507 45.4249 23.5692 46.0842 23.8105C46.4142 23.9313 46.6666 24.057 46.8352 24.1846C47.0047 24.3128 47.0802 24.4354 47.0803 24.5498C47.0803 24.6643 47.0049 24.7876 46.8352 24.916C46.6666 25.0436 46.4142 25.1693 46.0842 25.29C45.4249 25.5314 44.4671 25.7489 43.2805 25.9326C40.9082 26.2999 37.6286 26.5273 34.0051 26.5273C30.3816 26.5273 27.102 26.2999 24.7297 25.9326C23.5434 25.7489 22.5863 25.5313 21.927 25.29C21.597 25.1693 21.3446 25.0436 21.176 24.916C21.0062 24.7875 20.9309 24.6644 20.9309 24.5498C20.9311 24.4354 21.0065 24.3129 21.176 24.1846C21.3446 24.057 21.597 23.9313 21.927 23.8105C22.5863 23.5692 23.5433 23.3507 24.7297 23.167C27.102 22.7997 30.3816 22.5723 34.0051 22.5723Z" fill="#311A0E" stroke="#311A0E" stroke-width="0.109868"/>
<path d="M34.7745 8.50966C37.4563 11.9382 37.3795 14.2283 33.1815 19.2768C37.1045 16.8241 38.0813 15.4428 38.2903 12.9593C38.2065 11.3877 37.9215 10.4277 36.862 8.50966C35.2313 5.91944 35.1848 3.9704 35.4887 0.269531C33.7721 3.18414 33.2364 4.90904 34.7745 8.50966Z" fill="#C4AE95" stroke="#311A0E" stroke-width="0.109868"/>
<path d="M31.5334 3.84027C29.4587 7.53873 29.8422 9.52245 32.2476 12.9593C29.428 11.45 29.0404 10.6098 28.512 9.11395C28.3894 7.9303 28.532 6.74455 29.336 5.37842C31.0094 2.34544 30.7724 1.31354 29.336 0.0498047C30.4919 0.575615 31.2553 0.716505 31.863 1.9725C31.7727 2.70885 31.7091 3.11933 31.5334 3.84027Z" fill="#C4AE95" stroke="#311A0E" stroke-width="0.109868"/>
<path d="M62.2959 39.3057L62.2666 39.3213C60.8734 40.0478 59.7667 40.3659 56.5322 40.5908H56.5303C49.4459 40.835 45.2754 41.3865 42.4941 42.251C40.209 42.9613 38.8596 43.8829 37.5996 45.0254C40.1827 43.1283 42.404 42.5905 46.1338 41.8008L46.1455 41.7988V41.7998C56.8888 41.7687 60.7863 41.5044 63.9307 40.7031L63.999 40.6855V41.4551L63.9609 41.4678C62.4632 41.9361 61.5586 42.1834 59.3369 42.459H46.1514L45.2793 42.5625C43.3214 42.8208 41.886 43.1907 40.6592 43.7471C39.4829 44.2806 38.4958 44.9882 37.4199 45.9375C38.6355 45.1103 39.7091 44.4922 40.9072 44.0303C42.3299 43.4818 43.9261 43.1536 46.1406 42.9531H46.1465L53.6445 43.1309C55.6946 43.176 57.3303 43.2052 58.6514 43.2129C61.2944 43.2283 62.6751 43.157 63.6025 42.9551L63.6699 42.9404V43.5498L63.623 43.5566C62.0751 43.7952 60.8713 43.9964 59.2402 44.0371C57.6095 44.0777 55.5511 43.9587 52.291 43.5576V43.5566C47.9991 43.3577 45.0823 43.4427 42.7666 43.9785C40.5716 44.4865 38.9128 45.401 37.1318 46.8721C39.9926 45.617 41.6777 45.0676 44.4941 44.876H44.4961C48.2255 44.76 50.2161 44.7965 53.2959 45.3164H53.2949C58.9082 46.0187 61.6806 45.8852 65.7939 44.4941L65.8428 44.4785L65.8623 44.5254L66.6182 46.3047H68.0957L68.1113 46.3311C68.2818 46.6144 68.3893 46.8432 68.3975 47.0684C68.4056 47.2968 68.3116 47.5112 68.1074 47.7666L68.0938 47.7832L68.0732 47.7871L38.0508 52.8906L37.46 54.0205L37.4443 54.0498H31.0078L30.9922 54.0244L30.29 52.8906L0.871094 48.1162H0.869141C0.666285 48.0762 0.507047 48.0139 0.384766 47.9268C0.262106 47.8391 0.177735 47.7273 0.121094 47.5928C0.0098394 47.328 0.00308503 46.9701 0.000976562 46.5244L0 46.4688H1.77246L2.30957 44.5312L2.3252 44.4775L2.37891 44.4941C5.01137 45.2747 7.1097 45.7022 9.28809 45.8105C11.467 45.9188 13.73 45.7073 16.6914 45.2061H16.6934C20.0053 44.7369 22.4951 44.5974 24.791 44.9072C26.9752 45.202 28.9806 45.906 31.3516 47.1113C29.734 45.6897 28.2003 44.7897 26.2979 44.2559C24.2731 43.6878 21.826 43.5319 18.4072 43.6113L18.4082 43.6123C14.1947 43.9927 11.3178 44.1814 9.22852 44.1807C7.13914 44.1798 5.83281 43.9896 4.76172 43.6094L4.72461 43.5967V42.8867L4.79004 42.8994C8.48532 43.6039 12.0461 43.4911 19.5527 42.8984H19.5566C23.6131 42.879 25.9407 43.3797 27.5654 44.0781C28.3774 44.4272 29.0129 44.8259 29.5996 45.2305C30.0981 45.5742 30.5606 45.9176 31.0664 46.2451C30.2219 45.1886 29.3239 44.4539 28.0801 43.9023C26.7346 43.3059 24.9834 42.92 22.4609 42.5684C15.9689 42.6161 11.7579 42.5895 9.02344 42.4473C7.65593 42.3761 6.65517 42.276 5.92285 42.1416C5.19185 42.0074 4.72166 41.8383 4.41895 41.625L4.39551 41.6084V40.6777L4.46875 40.7041C5.93765 41.2398 7.72122 41.5262 10.2422 41.6582C12.7636 41.7902 16.021 41.7674 20.4355 41.6895H20.4434V41.6904C22.7171 41.9737 24.495 42.2249 26.2256 42.7822C27.7746 43.2812 29.2844 44.0262 31.0811 45.2559C29.92 44.2104 28.8204 43.4632 27.5264 42.8818C26.0198 42.2051 24.247 41.7493 21.8037 41.3047C13.3568 40.7726 9.12965 40.4254 6.18945 39.3799L6.16113 39.3691L6.1543 39.3398L5.99023 38.626L5.96875 38.5322L6.05957 38.5615C10.3852 39.9064 14.1478 40.241 21.3184 40.7012H21.3252V40.7021C25.2388 41.4177 27.7743 42.3019 29.6553 43.5938C31.5293 44.881 32.7484 46.5704 34.0361 48.8857H34.3018C35.8253 46.0101 37.3307 44.2843 39.1816 43.1387C41.0372 41.9903 43.2361 41.4284 46.1348 40.8672L46.1406 40.8662C50.6379 40.4463 54.0427 40.1151 56.6318 39.7598C59.2216 39.4043 60.991 39.0246 62.2197 38.5078L62.2959 38.4756V39.3057ZM33.9736 48.8867L33.958 48.9141L31.9277 52.4297L31.8809 52.5117H36.4629L36.415 52.4297L34.3857 48.9141L34.3691 48.8867H33.9736Z" fill="#C4AE95"/>
</svg>
