<svg width="177" height="256" viewBox="0 0 177 256" fill="none" xmlns="http://www.w3.org/2000/svg">
<g filter="url(#filter0_n_2464_104)">
<path d="M0.939453 38.9837C0.939453 38.9837 2.10191 33.9084 3.87483 31.3298C5.64775 28.7513 9.74557 26.1552 9.74557 26.1552C9.74557 26.1552 9.1585 20.6402 12.0939 15.806C15.0292 10.9718 18.5517 9.98455 18.5517 9.98455C18.5517 9.98455 18.2041 8.02908 22.0741 4.16311C25.9442 0.297132 27.3578 0.928969 27.3578 0.928969H90.1748H148.882C148.882 0.928969 153.18 1.56925 155.34 4.16311C157.501 6.75696 157.688 9.98455 157.688 9.98455C157.688 9.98455 161 10.6248 164.146 15.806C167.292 20.9872 166.495 26.1552 166.495 26.1552C166.495 26.1552 171.14 28.7723 172.952 31.3298C174.765 33.8874 175.888 38.9837 175.888 38.9837V228.612C175.888 228.612 175.888 232.428 172.952 236.374C170.017 240.32 167.082 240.902 167.082 240.902C167.082 240.902 167.082 245.447 164.146 249.311C161.211 253.174 157.101 255.132 157.101 255.132H90.1748H20.9C20.9 255.132 15.6163 253.174 12.6809 249.311C9.74557 245.447 9.74557 240.255 9.74557 240.255C9.74557 240.255 5.63605 239.455 3.28775 236.374C0.939453 233.293 0.939453 228.612 0.939453 228.612V38.9837Z" fill="#C1A78C"/>
<path d="M174.953 220.935C174.929 216.419 174.955 210.498 174.991 205.999C175.002 204.588 175.052 205.303 175.062 204.329C175.082 202.425 175.057 200.652 175.08 198.77C175.088 198.147 175.168 198.923 175.174 198.269C175.209 194.686 175.189 191.297 175.206 187.668C175.289 169.791 175.319 152.219 175.355 134.124C175.367 128.157 175.439 120.904 175.407 114.741C175.403 114.022 175.334 114.451 175.328 114.314C175.24 112.167 175.381 112.881 175.399 111.479C175.473 105.916 175.48 99.7292 175.453 94.3751C175.441 92.0974 175.303 94.3812 175.38 92.0876C175.386 91.9284 175.46 92.5063 175.467 91.8817C175.485 90.465 175.472 87.7773 175.478 86.6794C175.489 84.5635 175.489 84.2134 175.49 82.212C175.491 79.4761 175.528 76.2219 175.511 73.2865C175.508 72.6599 175.432 73.4894 175.419 72.4901C175.406 71.49 175.412 68.844 175.43 67.952C175.448 67.0598 175.508 67.4396 175.521 67.2818C175.636 65.9827 175.477 62.9221 175.473 62.5284C175.406 55.3483 175.497 49.1911 175.496 42.4513C175.496 41.3095 175.495 40.1501 175.492 38.9837L175.502 39.0687C174.856 36.4514 174.045 33.7049 172.614 31.57C171.908 30.5963 170.966 29.7766 170.032 29.0351C168.81 28.0781 167.546 27.2415 166.295 26.5098L166.05 26.3726L166.092 26.0931C166.445 22.6246 165.691 19.1066 163.823 16.002C163.656 15.7257 163.485 15.4596 163.306 15.193C162.976 14.7132 163.29 15.3197 162.883 14.7451C161.515 12.8548 159.673 11.0667 157.599 10.4479L157.24 10.3793L157.217 10.012C157.02 8.03812 156.265 6.00511 154.987 4.45758C153.508 2.71678 151.104 1.7946 148.82 1.34881L148.882 1.35345C148.199 1.34888 147.516 1.34393 146.832 1.33858C146.062 1.33247 147.055 1.25429 146.285 1.24351C141.572 1.17926 134.114 1.02492 131.315 1.36531C128.122 1.35202 124.246 1.33829 121.39 1.26967C119.548 1.22551 121.337 1.14034 119.075 1.17668C118.564 1.18478 119.228 1.25937 118.463 1.26587C115.241 1.29317 111.722 1.26893 108.535 1.30747C107.887 1.31548 108.064 1.38231 107.88 1.39435C106.336 1.49182 103.767 1.3307 103.207 1.31899C98.9409 1.23168 95.8258 1.26604 91.852 1.26391C90.9298 1.26338 92.0199 1.35315 91.1325 1.35586C90.8141 1.35675 90.4948 1.35755 90.1748 1.35823C85.8718 1.36751 81.4512 1.35826 77.2569 1.32118C76.2545 1.3121 77.1763 1.23563 76.6973 1.22738C74.5853 1.19194 74.1171 1.33637 72.0915 1.30516C71.6645 1.29877 71.9051 1.2333 71.8271 1.22611C70.6081 1.11325 69.5488 1.27317 69.2352 1.2767C65.2687 1.32494 62.7333 1.158 58.9015 1.18164C58.4431 1.18463 59.4768 1.26746 58.1882 1.27082C49.6034 1.29369 40.524 1.27094 32.0264 1.20468C30.7052 1.19449 31.6483 1.13227 31.5652 1.1246C30.2101 1.00474 29.3333 1.16533 28.9026 1.17138C28.3816 1.17805 27.8659 1.18054 27.3578 1.18065L27.2551 1.15875C25.2799 1.24603 23.4469 3.15347 22.2736 4.36274C22.0439 4.61351 21.8367 4.85735 21.6523 5.09381C20.3605 6.50272 18.958 8.23606 18.8704 9.92789L18.9224 10.2162L18.6391 10.2963C16.0015 11.2625 13.8581 13.5158 12.3651 15.9707C10.5465 18.9852 9.84068 22.6424 10.0571 26.1221L10.0781 26.3149L9.91325 26.4199C7.77103 27.8481 5.61684 29.4448 4.11384 31.4942C2.65637 33.729 1.85412 36.4198 1.16053 39.0343L1.16625 38.9837C1.16163 39.4089 1.15678 39.834 1.15167 40.2591C1.14969 40.4406 1.0706 40.1154 1.06698 40.4774C1.02257 44.8373 1.14549 44 1.29583 46.8849C1.33358 47.6116 1.15207 49.8223 1.13877 50.0179C1.08974 50.7305 0.972076 49.9914 0.962581 50.23C0.888024 52.2047 1.27715 51.8829 1.27727 54.5468C1.27663 54.6301 1.205 54.2802 1.19788 54.5037C1.17552 55.1983 1.20398 55.8871 1.17933 56.5668C1.12228 58.1225 0.933199 58.6766 1.04324 61.0527C1.05752 61.3534 1.27825 60.8941 1.26783 63.2725C1.26348 64.2206 1.26726 68.4176 1.25296 69.5939C1.23867 70.7687 1.16754 69.9621 1.16446 70.0459C1.07041 73.2114 1.03143 72.0111 0.892176 73.597C0.753451 75.1828 1.08432 74.743 1.12125 75.3895C1.15808 76.0371 1.08048 78.358 1.0535 78.9284C1.02651 79.4984 0.981311 78.7874 0.966038 79.2943C0.866253 82.6552 1.13027 80.7695 1.18279 81.8769C1.30713 84.4879 1.06176 86.5214 1.03771 88.9116C1.03122 89.5583 1.0871 89.0306 1.09233 89.6065C1.11229 91.8874 1.03573 93.2592 1.10593 95.8541C1.11737 96.2786 1.26489 98.3764 1.15663 99.7342C1.14102 99.9265 1.07987 99.3801 1.06617 100.352C1.04562 101.804 1.03225 104.421 1.05269 105.982C1.06781 107.134 1.16857 105.813 1.13727 107.264C1.12329 107.909 1.06435 106.714 1.04301 107.925C1.02168 109.13 1.02427 112.21 1.0263 113.382C1.02838 114.552 1.10481 113.912 1.10996 114.007C1.13945 114.579 1.17631 116.824 1.17622 117.023C1.18555 127.032 1.05672 136.262 1.09936 146.007C1.10259 146.772 1.18319 146.262 1.18451 146.379C1.21828 148.997 1.004 146.933 0.932276 148.762C1.09583 148.498 1.06621 149.577 1.08415 151.421C1.09293 152.31 1.15625 151.826 1.16274 151.907C1.25892 153.225 1.13468 154.143 1.10927 154.379C1.01578 155.252 1.12624 156.202 1.06375 156.796C1.00173 157.389 0.909781 156.023 0.910958 157.792C0.969504 158.288 1.1225 156.975 1.14729 158.318C1.24109 163.384 1.12105 172.842 1.10858 176.916C1.09612 180.982 1.10692 182.295 1.08576 184.664C1.04751 188.943 1.16102 187.375 1.21298 190.032C1.26493 192.697 0.985633 191.402 0.925593 191.785C0.865579 192.161 0.927357 192.571 0.894365 193.039C0.861382 193.505 0.820559 192.496 0.808173 193.593C0.795801 194.69 0.902568 197.69 0.965347 198.078C1.09835 198.901 1.23794 197.549 1.18889 200.452C1.18598 200.619 1.11254 200.077 1.10512 200.716C1.04858 205.795 1.04508 211.07 0.995076 216.142C0.988086 216.839 0.906387 216.216 0.901394 216.621C0.849138 220.849 0.986892 219.338 1.13992 221.655C0.936273 221.134 0.811681 222.416 0.810478 225.624C0.809684 227.552 0.898627 227.22 0.961314 228.468C0.963253 228.506 0.96435 228.555 0.964803 228.612C0.964347 229.107 1.03519 230.227 1.10954 230.443C1.4085 231.218 1.16796 229.979 1.94261 233.137C1.98379 233.274 1.77196 232.863 1.92088 233.335C2.40961 234.801 2.90729 235.56 3.45649 236.245C4.06923 236.963 4.75127 237.657 6.2725 238.561C7.16131 239.076 8.41823 239.655 9.79894 239.981L10.0245 240.024L10.025 240.255C10.0568 242.538 10.6532 245.086 11.4417 246.8C11.2648 246.821 11.8934 248.264 12.7531 249.256C13.0649 249.627 13.389 249.942 13.6388 250.148C14.9985 251.623 16.8102 252.873 18.5098 253.818C19.0979 254.141 18.6783 253.992 18.7496 254.038C19.6979 254.646 20.4969 254.875 20.945 255.011L20.9 255.003C20.9774 254.997 21.0465 254.994 21.107 254.993C25.8548 254.934 29.723 255.051 34.254 254.937C34.4148 254.933 34.6754 254.774 35.8866 254.89C35.965 254.898 34.4685 254.97 36.5999 254.976C38.7317 254.981 42.7504 255.067 45.71 254.993C46.4262 254.975 48.2377 254.846 49.6916 254.947C49.8853 254.961 49.6733 255.006 49.9529 255.032C50.8568 255.113 51.3503 254.952 52.4126 255.088C53.475 255.225 55.6848 255.327 58.6694 255.233C58.7645 255.23 59.4711 255.103 60.4097 255.105C61.9081 255.108 64.0351 255.135 65.5996 255.134C66.3487 255.133 65.8692 255.054 65.9993 255.053C71.036 255.009 74.6207 255.079 80.0164 255.11C81.0055 255.115 83.848 255.008 85.7628 255.093C87.8108 255.184 85.8142 255.555 90.1748 255.488C90.2912 255.487 90.4121 255.485 90.5377 255.482C92.487 255.445 94.9548 254.952 98.4579 255.208C105.252 255.144 111.535 255.275 118.347 255.185C118.654 255.181 119.623 255.043 120.343 255.045C121.412 255.048 121.999 255.112 122.763 255.117C125.962 255.136 128.89 255.081 131.974 255.09C133.145 255.093 132.736 255.159 134.132 255.163C135.528 255.166 136.459 255.079 138.351 255.121C139.779 255.153 141.208 255.332 143.104 255.353C143.176 255.177 144.479 255.18 146.794 255.134C147.239 255.125 146.762 255.063 146.972 255.056C147.829 255.024 148.621 255.075 149.435 255.041C149.633 255.032 149.642 254.972 149.804 254.962C151.179 254.873 153.445 255.009 153.835 255.032C155.297 255.12 155.996 255.047 157.101 255.077L157.078 255.082C157.095 255.075 157.118 255.064 157.135 255.056C158.158 254.556 156.68 255.401 157.859 254.781C160.086 253.57 162.6 251.52 164.214 249.362C164.371 249.155 164.516 248.951 164.655 248.746C165.265 247.798 164.781 248.403 164.867 248.266C166.086 246.291 166.772 243.987 166.809 242.7C167.158 241.892 167.165 241.535 167.126 240.902L167.09 240.945C167.619 240.753 168.334 240.44 169.631 239.604C169.845 239.456 170.247 239.432 169.419 240.024C168.858 240.401 168.069 240.838 167.116 241.077L167.26 240.902C167.25 241.392 167.202 241.878 167.151 242.357C167.146 242.69 166.907 244.604 166.813 244.857C166.26 246.861 165.761 246.967 165.723 247.063C165.321 247.676 164.791 248.645 164.262 249.399C163.908 249.914 163.582 250.341 163.421 250.53C161.578 252.659 159.593 254.047 157.553 255.218C157.437 255.282 157.329 255.342 157.227 255.397L157.101 255.425C155.911 255.475 155.694 255.635 154.603 255.629C150.64 255.61 149.256 255.342 145.521 255.574C144.72 255.624 145.516 255.833 142.646 255.668C142.466 255.658 140.335 255.507 139.104 255.603C138.95 255.615 138.954 255.676 138.751 255.681C137.384 255.714 136.473 255.665 134.984 255.689C133.496 255.712 131.706 255.747 130.006 255.726C128.982 255.714 127.668 255.6 127.178 255.572C125.793 255.492 124.309 255.623 123.451 255.526C122.586 255.428 124.277 255.28 122.009 255.217C121.925 255.376 121.732 255.539 121.597 255.698C116.627 255.693 111.737 255.641 106.75 255.648C106.132 255.649 106.764 255.735 106.101 255.738C103.305 255.751 100.863 255.691 97.9629 255.715C95.7182 255.734 93.2569 255.824 90.9097 255.847C90.704 255.821 90.4561 255.8 90.1748 255.783C88.4961 255.682 85.6301 255.725 83.463 255.71C82.5767 255.705 82.636 255.656 82.0057 255.64C79.6278 255.582 80.7421 255.742 80.0902 255.768C77.2934 255.875 77.0539 255.512 73.7565 255.521C73.5818 255.522 71.4464 255.715 71.1523 255.727C69.2836 255.806 70.843 255.66 69.6734 255.646C67.5381 255.619 66.0542 255.573 63.5488 255.63C62.8183 255.647 61.0658 255.767 59.6472 255.674C59.4605 255.662 59.5637 255.598 59.4135 255.594C56.6944 255.532 56.6229 255.733 55.0691 255.801C53.515 255.869 51.1148 255.73 50.6263 255.69C49.3484 255.586 51.6055 255.646 51.6747 255.636C52.4877 255.515 50.7371 255.536 49.3995 255.525C49.2059 255.328 47.3353 255.34 48.0129 255.516C48.09 255.535 49.1309 255.516 49.3995 255.525C48.2254 255.719 46.1696 255.744 43.899 255.563C42.8362 255.478 43.841 255.379 40.6123 255.415C39.147 255.432 39.7132 255.567 38.4201 255.604C35.4659 255.689 31.6271 255.562 28.5814 255.582C27.476 255.589 28.5528 255.664 27.7973 255.671C25.7925 255.691 24.0244 255.636 22.0109 255.664C21.8285 255.667 22.2743 255.745 21.6481 255.746C21.3971 255.746 21.1478 255.747 20.9 255.747L20.6864 255.708C17.3589 254.322 14.497 252.554 12.2212 249.66C11.6238 248.868 11.1174 247.992 10.6939 247.046C9.93328 245.405 9.20067 242.692 9.14302 240.255L9.63049 240.846C8.68327 240.642 7.89804 240.348 7.23488 240.06C5.64881 239.364 4.00536 238.274 2.84398 236.712C1.02619 234.199 0.584133 231.183 0.440975 228.884C0.436878 228.792 0.433498 228.706 0.432159 228.612C0.411022 226.509 0.336995 226.96 0.285952 225.971C0.183187 223.991 0.367263 220.485 0.395766 220.013C0.396709 219.998 0.415052 222.06 0.454994 220.96C0.53822 220.32 0.396127 220.036 0.395766 220.013C0.414179 219.703 0.431843 215.585 0.416968 214.767C0.40884 214.323 0.335119 214.572 0.332274 214.34C0.266302 208.834 0.247565 203.318 0.282034 197.734C0.283524 197.636 0.365984 197.784 0.368457 197.553C0.405121 194.32 0.304245 192.25 0.244354 189.583C0.184489 186.917 0.20454 184.803 0.346102 183.225C0.328278 181.214 0.390862 178.328 0.428837 176.667C0.466811 175.006 0.306294 174.775 0.303121 174.628C0.201555 170.071 0.293432 167.436 0.30773 162.708C0.314804 160.46 0.291521 156.001 0.273968 153.567C0.259828 151.644 0.297445 150.485 0.273392 148.713C0.27018 148.473 0.198709 148.715 0.195958 148.642C0.110448 146.664 0.285168 147.615 0.316373 147.206C0.429849 145.725 0.490286 144.811 0.436903 142.278C0.424678 141.693 0.173105 139.991 0.158393 138.926C0.139726 137.541 0.229899 138.064 0.208057 136.614C0.20627 136.49 0.150639 136.516 0.153092 135.621C0.163746 131.467 0.196117 126.938 0.190542 122.622C0.189994 122.032 0.101755 122.788 0.0995102 121.936C0.0890506 117.938 0.0923162 113.557 0.133618 109.662C0.144062 108.704 0.205844 109.304 0.224189 109.096C0.335185 107.819 0.17391 106.007 0.170837 105.708C0.0933366 98.5775 0.239288 93.1202 0.1698 85.8524C0.165721 85.4568 -0.00716865 82.4115 0.141108 81.0529C0.150973 80.9599 0.302675 79.6158 0.198954 78.4272C0.192465 78.3534 0.114366 79.191 0.122326 77.7293C0.130268 76.2676 0.0781144 73.9152 0.163924 71.906C0.190955 71.2699 0.342283 69.7665 0.221654 67.869C0.213233 67.7454 -0.0595271 64.8162 0.128663 63.7706C0.159641 63.6011 0.35879 63.7785 0.256684 61.5138C0.236889 61.0812 0.192468 61.8667 0.16473 60.7267C0.12198 58.9802 0.175319 56.6661 0.0866045 54.5191C0.0708989 54.1447 -0.0642711 52.5508 0.0383232 51.2723C0.0543912 51.0721 0.120877 51.4525 0.128318 50.7773C0.164009 47.5666 0.119536 44.2047 0.165537 40.9447C0.181701 39.7901 0.289183 40.3804 0.317986 39.1769C0.319453 39.1155 0.320917 39.051 0.322368 38.9837L0.337944 38.8459C0.651426 37.5947 1.33143 35.4342 1.73819 34.2776C2.1774 33.0592 1.44814 34.3039 2.24076 32.5004C2.50521 31.9405 2.80105 31.3826 3.16726 30.8433C4.87087 28.4974 7.0321 26.9358 9.28573 25.4294L8.89116 26.2462C8.66433 22.4315 9.42831 18.6635 11.4049 15.3876C12.1503 14.1715 13.0362 13.0178 14.0679 12.0062C15.0181 11.1357 14.1396 11.7671 15.6455 10.5871C16.3928 10.0584 17.1753 9.54406 18.3205 9.15965L17.7082 10.1345C17.8711 7.03263 19.7593 5.41697 21.4604 3.54869C22.2438 2.767 23.0678 2.0135 23.9898 1.34673C24.4538 1.01383 24.9424 0.701313 25.4895 0.444536C25.7645 0.31666 26.0582 0.200903 26.3819 0.119881C26.5475 0.0789578 26.7214 0.0465037 26.9151 0.0328053C27.0128 0.0261608 27.115 0.0241361 27.2296 0.0321248C27.285 0.0361008 27.346 0.0425848 27.4144 0.0546235C27.4905 0.0718883 27.5127 0.0626216 27.7099 0.1413L27.3578 0.0662024C30.3083 0.0760922 33.013 0.0986828 35.021 0.144337C39.6112 0.248659 33.8348 0.32808 37.3424 0.370533C39.035 0.390784 40.8662 0.191628 41.2748 0.185359C45.2664 0.121669 48.0404 0.209891 51.6331 0.182823C52.375 0.177207 51.6474 0.0964871 52.2788 0.0925985C54.4355 0.0786 56.7022 0.11463 58.7631 0.108039C59.6877 0.104897 59.5173 0.0432463 60.3681 0.0480046C62.4037 0.0586798 64.2038 0.0845949 66.1883 0.142378C66.3692 0.147643 65.1496 0.224334 66.6556 0.227187C69.0932 0.231585 72.1188 0.288588 74.9232 0.229722C75.7553 0.212014 75.788 0.0711123 77.5766 0.16842C77.9518 0.188743 77.4731 0.357935 79.5567 0.211746C79.9071 0.187453 83.4071 -0.0097295 85.1248 0.117373C85.5779 0.150825 86.7345 0.289276 87.7351 0.267517C87.8708 0.264045 87.3272 0.188362 88.1563 0.18098C88.8227 0.175348 89.4963 0.17142 90.1748 0.16843C92.4721 0.15831 94.8258 0.158949 97.1434 0.140649C97.9451 0.13417 96.751 0.0558525 97.9459 0.048696C101.232 0.0289006 105.334 0.0488416 108.547 0.0733551C109.732 0.0825416 108.913 0.147417 108.999 0.154477C110.385 0.26931 111.205 0.114312 111.665 0.105274C114.526 0.051156 116.705 0.123965 119.342 0.104698C120.07 0.0995769 119.554 0.0256718 119.699 0.0190819C121.201 -0.0453064 120.082 0.0874174 121.033 0.102047C123.697 0.143473 126.668 0.137533 129.362 0.128089C130.352 0.124512 129.24 0.0388173 130.128 0.0365968C135.385 0.0218302 140.85 0.0300302 145.98 0.077273C146.946 0.0863238 146.339 0.152311 146.54 0.167383C147.25 0.221363 148.13 0.210016 148.882 0.184244L148.992 0.192375C149.778 0.298579 150.377 0.436211 150.614 0.495908C152.764 1.1199 153.589 1.5401 155.207 2.84219C155.479 3.08032 155.739 3.34176 155.981 3.62923C157.422 5.36438 158.293 7.52292 158.541 9.93497L157.85 9.14618C161.227 10.1939 163.245 12.7686 164.874 15.3638C166.924 18.7664 167.706 22.6665 167.311 26.2813L166.9 25.4352C167.565 25.819 168.175 26.2064 168.773 26.605C170.579 27.84 172.288 29.0831 173.605 30.8671C175.298 33.4778 175.976 36.1413 176.638 38.8183L176.656 38.9837C176.636 44.3424 176.622 49.5718 176.631 55.3861C176.632 56.0705 176.72 55.3804 176.722 55.9703C176.743 63.5866 176.709 71.0847 176.734 78.7162C176.736 79.3424 176.819 78.4397 176.825 79.4449C176.838 81.5066 176.833 84.1183 176.806 86.2029C176.794 87.2196 176.722 85.8558 176.711 86.8793C176.684 89.2623 176.678 91.8167 176.691 94.2645C176.697 95.3061 176.782 93.7345 176.783 95.0885C176.792 104.311 176.807 113.369 176.696 122.689C176.689 123.328 176.516 123.889 176.549 125.247C176.597 125.35 176.653 125.344 176.705 125.389C176.732 138.815 176.672 152.104 176.663 165.568C176.663 166.135 176.754 165.154 176.754 166.253C176.753 172.614 176.778 178.791 176.687 185.297C176.678 185.943 176.517 185.612 176.541 187.514C176.546 187.85 176.567 190.715 176.602 191.456C176.608 191.556 176.683 191.034 176.685 191.957C176.696 197.322 176.679 202.945 176.633 208.301C176.626 209.166 176.546 208.245 176.54 208.861C176.497 213.229 176.558 217.979 176.485 222.153C176.436 224.946 176.298 223.912 176.161 225.396C176.142 225.606 176.139 227.336 176.06 227.426C175.86 227.655 175.642 226.817 175.429 227.161C175.383 227.234 175.432 229.55 175.322 228.179C175.314 228.083 175.278 226.403 175.24 225.99C175.214 225.702 175.133 226.221 175.1 225.633C175.067 225.045 175.135 224.4 175.096 223.425C175.056 222.452 174.964 222.88 174.953 220.935ZM0.59857 169.19C0.675657 167.652 0.393322 167.425 0.460871 169.088C0.464471 169.169 0.594789 169.269 0.59857 169.19ZM111.765 255.428C109.755 255.304 108.379 255.487 109.797 255.583C111.215 255.679 112.377 255.466 111.765 255.428ZM132.611 255.337C130.261 255.239 129.891 255.64 132.408 255.559C132.554 255.554 132.748 255.343 132.611 255.337ZM176.122 218.512C176.119 218.533 176.115 219.777 176.119 219.807C176.208 220.469 176.216 217.982 176.122 218.512ZM153.296 255.238C152.563 255.184 150.451 255.247 151.363 255.314C152.096 255.368 154.21 255.306 153.296 255.238ZM0.899896 88.9762C0.904104 88.9519 0.907892 88.0605 0.88411 88.0784C0.807513 88.1389 0.82913 89.3795 0.899896 88.9762ZM175.509 231.449C174.723 234.18 173.263 235.935 172.88 236.32C172.753 236.445 172.727 236.438 172.822 236.277C172.976 235.997 173.523 235.292 174.261 233.836C174.739 232.942 173.314 235.809 173.963 234.691C175.136 232.623 175.481 231.018 175.774 228.654C175.892 228.208 175.681 231.171 175.507 231.458C175.507 231.455 175.508 231.452 175.509 231.449ZM0.937692 168.304C0.941425 168.273 0.944965 167.039 0.941264 167.01C0.851631 166.341 0.844447 168.827 0.937692 168.304ZM1.59304 37.0655C1.59512 36.9954 2.51639 34.2935 2.57434 34.2171C2.92357 32.7492 1.02036 38.2209 1.59304 37.0655ZM11.4563 246.847C11.8719 247.617 12.3849 248.448 12.8935 249.149C13.1575 249.516 13.416 249.851 13.6347 250.143C13.3543 249.839 13.0873 249.522 12.8377 249.191C12.291 248.468 11.8325 247.676 11.4563 246.847Z" fill="#621B14"/>
</g>
<path d="M170.257 217.731C170.233 213.415 170.259 207.758 170.295 203.458C170.306 202.111 170.356 202.793 170.366 201.863C170.386 200.044 170.361 198.349 170.385 196.551C170.392 195.955 170.472 196.697 170.478 196.072C170.513 192.649 170.493 189.41 170.51 185.942C170.593 168.86 170.623 152.068 170.659 134.777C170.671 129.075 170.743 122.144 170.711 116.256C170.707 115.568 170.638 115.978 170.632 115.847C170.544 113.796 170.685 114.478 170.703 113.138C170.777 107.822 170.784 101.91 170.757 96.7942C170.745 94.6176 170.607 96.7999 170.684 94.6083C170.69 94.4562 170.764 95.0084 170.771 94.4115C170.789 93.0578 170.776 90.4895 170.782 89.4404C170.793 87.4184 170.793 87.084 170.794 85.1715C170.795 82.5571 170.832 79.4475 170.815 76.6425C170.812 76.0437 170.736 76.8364 170.723 75.8815C170.71 74.9258 170.716 72.3974 170.734 71.545C170.752 70.6924 170.812 71.0555 170.825 70.9045C170.941 69.6633 170.781 66.7385 170.777 66.3624C170.71 59.5013 170.801 53.6176 170.8 47.1773C170.8 45.7084 170.798 44.2091 170.794 42.7039L170.803 42.7882C170.187 40.2554 169.415 37.6191 168.072 35.5819C167.636 34.9627 167.086 34.4079 166.522 33.8974C165.118 32.6465 163.601 31.6139 162.103 30.7164L161.864 30.5804L161.905 30.3065C162.229 27.1139 161.588 23.8236 159.898 20.8509C159.69 20.4939 159.774 20.7379 159.691 20.647C159.662 20.6151 159.611 20.5419 159.519 20.3938C158.141 18.175 156.201 16.007 153.879 15.2778L153.521 15.2085L153.5 14.8427C153.314 12.9522 152.606 10.9991 151.395 9.50632C150.011 7.8449 147.738 6.94868 145.574 6.5183L145.636 6.52299C145.377 6.52099 145.117 6.51892 144.857 6.5168C144.121 6.51069 145.07 6.43251 144.334 6.42173C139.83 6.35748 132.704 6.20314 130.029 6.54353C126.978 6.53024 123.275 6.51651 120.545 6.44789C118.786 6.40373 120.495 6.31856 118.333 6.3549C117.845 6.363 118.479 6.43758 117.748 6.44409C114.67 6.47139 111.307 6.44715 108.261 6.48568C107.642 6.4937 107.811 6.56053 107.636 6.57257C106.161 6.67004 103.705 6.50892 103.17 6.49721C99.0938 6.4099 96.1171 6.44426 92.3199 6.44213C91.4387 6.4416 92.4803 6.53137 91.6324 6.53408C91.1172 6.53559 90.5998 6.53681 90.0809 6.53774C86.1708 6.5447 82.1748 6.53456 78.3732 6.4994C77.4154 6.49032 78.2962 6.41385 77.8385 6.4056C75.8203 6.37015 75.3729 6.51459 73.4374 6.48338C73.0293 6.47699 73.2592 6.41152 73.1847 6.40433C72.0198 6.29147 71.0076 6.45139 70.708 6.45492C66.9177 6.50316 64.495 6.33621 60.8334 6.35985C60.3953 6.36285 61.3831 6.44568 60.1518 6.44904C51.9484 6.47191 43.2724 6.44915 35.1523 6.3829C33.8898 6.37271 34.791 6.31049 34.7116 6.30282C33.4168 6.18296 32.5789 6.34355 32.1673 6.3496C31.6508 6.35652 31.1398 6.35894 30.6366 6.35887L30.5326 6.33634C28.6802 6.42481 26.9367 8.25616 25.8385 9.41628C25.6278 9.65157 25.4384 9.87952 25.2685 10.1022C24.0358 11.4632 22.7037 13.1414 22.6222 14.7601L22.673 15.0463L22.392 15.1271C19.8919 16.0592 17.8697 18.2293 16.4646 20.577C14.7407 23.4829 14.0781 26.9937 14.2815 30.3343L14.302 30.5252L14.1396 30.6303C12.1094 32.005 10.0697 33.5444 8.65451 35.5057C7.27316 37.6577 6.51457 40.243 5.85703 42.7535L5.86256 42.7039C5.85823 43.0821 5.85369 43.4603 5.84894 43.8385C5.84695 44.012 5.76786 43.7012 5.76425 44.0471C5.71984 48.2133 5.84276 47.4132 5.99309 50.1699C6.03084 50.8643 5.84934 52.9768 5.83603 53.1637C5.78701 53.8447 5.66934 53.1384 5.65985 53.3665C5.58529 55.2534 5.97441 54.9459 5.97454 57.4914C5.97389 57.5711 5.90227 57.2367 5.89515 57.4503C5.87279 58.114 5.90125 58.7722 5.87659 59.4217C5.81954 60.9082 5.63046 61.4377 5.74051 63.7082C5.75479 63.9956 5.97552 63.5567 5.96509 65.8294C5.96075 66.7355 5.96453 70.746 5.95023 71.87C5.93594 72.9926 5.86481 72.2218 5.86173 72.3019C5.76767 75.3267 5.72869 74.1797 5.58944 75.6953C5.45072 77.2106 5.78159 76.7903 5.81852 77.4081C5.85534 78.0269 5.77774 80.2447 5.75076 80.7897C5.72377 81.3344 5.67858 80.6551 5.6633 81.1394C5.56352 84.351 5.82754 82.549 5.88005 83.6073C6.0044 86.1022 5.75902 88.0454 5.73498 90.3294C5.72848 90.9474 5.78437 90.4431 5.7896 90.9934C5.80956 93.173 5.73299 94.4838 5.80319 96.9634C5.81463 97.3691 5.96216 99.3736 5.85389 100.671C5.83828 100.855 5.77714 100.333 5.76344 101.262C5.74288 102.649 5.72952 105.15 5.74996 106.641C5.76508 107.742 5.86583 106.48 5.83454 107.866C5.82056 108.482 5.76162 107.341 5.74028 108.498C5.71894 109.649 5.72153 112.593 5.72357 113.713C5.72565 114.831 5.80208 114.219 5.80723 114.309C5.83672 114.856 5.87357 117.002 5.87348 117.192C5.88281 126.756 5.75399 135.576 5.79662 144.888C5.79986 145.619 5.88046 145.132 5.88178 145.244C5.91555 147.745 5.70127 145.773 5.62954 147.521C5.79309 147.268 5.76348 148.3 5.78141 150.062C5.79019 150.911 5.85352 150.449 5.86 150.526C5.95619 151.785 5.83195 152.662 5.80653 152.888C5.71304 153.722 5.82351 154.63 5.76102 155.198C5.699 155.765 5.60705 154.459 5.60822 156.149C5.66677 156.623 5.81976 155.369 5.84456 156.652C5.93835 161.493 5.81831 170.531 5.80584 174.424C5.79338 178.309 5.80419 179.564 5.78303 181.828C5.74477 185.917 5.85828 184.418 5.91024 186.957C5.96219 189.504 5.6829 188.266 5.62286 188.632C5.56284 188.991 5.62462 189.384 5.59163 189.831C5.55865 190.276 5.51782 189.312 5.50544 190.36C5.49307 191.408 5.59983 194.274 5.66261 194.646C5.79561 195.432 5.93521 194.14 5.88616 196.914C5.88325 197.074 5.80981 196.556 5.80239 197.167C5.74585 202.019 5.74235 207.06 5.69234 211.907C5.68535 212.573 5.60365 211.977 5.59866 212.365C5.5464 216.405 5.68416 214.961 5.83719 217.175C5.63354 216.677 5.50895 217.902 5.50774 220.968C5.50695 222.811 5.59589 222.493 5.65858 223.685C5.67119 223.924 5.64819 224.584 5.64392 225.067C5.64402 225.3 5.65939 225.509 5.67722 225.579C5.90801 226.337 5.79157 225.139 6.27671 228.211C6.30389 228.345 6.1347 227.936 6.23512 228.398C6.75314 230.502 7.21317 231.234 8.06593 232.376C8.43857 232.838 8.91866 233.354 9.67207 233.933C10.668 234.706 12.2715 235.579 14.0215 236.003L14.235 236.045L14.2355 236.264C14.2593 238.086 14.641 239.992 15.1223 241.384C14.839 241.406 15.9808 244.034 16.8584 244.799C16.8727 244.818 16.8871 244.838 16.9016 244.858C18.0262 246.379 19.6481 247.679 21.1894 248.667C21.7297 249.009 21.3377 248.845 21.4027 248.893C22.4135 249.637 23.2497 249.86 23.6263 250.031C23.9467 250.175 24.2677 250.313 24.5784 250.431L24.5255 250.421C28.5962 250.39 32.0499 250.481 36.0422 250.376C36.1958 250.372 36.4448 250.213 37.6023 250.329C37.6771 250.337 36.2471 250.409 38.2839 250.415C40.321 250.42 44.1611 250.506 46.9892 250.432C47.6735 250.414 49.4046 250.285 50.7939 250.386C50.979 250.4 50.7764 250.445 51.0436 250.471C51.9073 250.551 52.3789 250.391 53.394 250.527C54.4092 250.664 56.5208 250.766 59.3728 250.672C59.4637 250.669 60.1388 250.542 61.0357 250.544C62.4676 250.547 64.5001 250.574 65.9951 250.573C66.7109 250.572 66.2528 250.493 66.377 250.492C71.1899 250.447 74.6154 250.518 79.7714 250.549C80.7165 250.554 83.4327 250.446 85.2625 250.532C87.2717 250.625 85.207 251.014 89.8252 250.921C89.9094 250.919 89.9946 250.917 90.0809 250.913C91.9031 250.841 94.1974 250.403 97.3935 250.647C103.886 250.583 109.889 250.714 116.399 250.624C116.692 250.62 117.618 250.482 118.306 250.484C119.328 250.487 119.889 250.551 120.618 250.556C123.676 250.575 126.473 250.52 129.421 250.528C130.54 250.532 130.148 250.598 131.483 250.602C132.817 250.605 133.706 250.518 135.514 250.56C136.879 250.592 138.244 250.771 140.056 250.792C140.125 250.616 141.37 250.619 143.582 250.573C144.007 250.564 143.551 250.502 143.752 250.495C144.571 250.463 145.328 250.514 146.106 250.48C146.295 250.471 146.304 250.411 146.458 250.401C147.772 250.312 149.938 250.448 150.31 250.471C151.7 250.559 152.368 250.486 153.414 250.515L153.39 250.521C153.409 250.512 153.438 250.499 153.459 250.489C154.435 250.003 153.028 250.825 154.152 250.224C156.259 249.058 158.628 247.09 160.148 245.023C160.306 244.812 160.453 244.603 160.59 244.394C161.164 243.482 160.704 244.063 160.785 243.932C161.929 242.031 162.574 239.828 162.599 238.597C162.938 237.83 162.944 237.486 162.903 236.886L162.867 236.93C163.372 236.741 164.052 236.435 165.29 235.622C165.492 235.479 165.883 235.459 165.097 236.034C164.563 236.401 163.808 236.828 162.894 237.061L163.037 236.886C163.027 237.352 162.983 237.814 162.937 238.27C162.933 238.587 162.721 240.422 162.634 240.663C162.122 242.584 161.635 242.687 161.599 242.777C161.209 243.375 160.702 244.328 160.199 245.061C159.876 245.541 159.582 245.938 159.434 246.115C157.694 248.173 155.809 249.515 153.868 250.653C153.753 250.718 153.644 250.78 153.542 250.835L153.414 250.865C152.292 250.915 152.081 251.073 151.044 251.068C147.257 251.049 145.935 250.781 142.365 251.013C141.6 251.063 142.361 251.272 139.618 251.107C139.446 251.097 137.41 250.946 136.234 251.042C136.086 251.054 136.091 251.115 135.896 251.12C134.59 251.153 133.719 251.104 132.297 251.128C130.875 251.151 129.164 251.186 127.54 251.165C126.562 251.153 125.306 251.039 124.837 251.011C123.514 250.931 122.096 251.062 121.276 250.965C120.45 250.867 122.066 250.719 119.899 250.656C119.818 250.815 119.634 250.977 119.505 251.137C114.756 251.132 110.082 251.08 105.317 251.087C104.727 251.088 105.331 251.174 104.697 251.177C102.025 251.19 99.6915 251.13 96.9205 251.154C94.7756 251.173 92.4235 251.263 90.1807 251.286C90.1485 251.282 90.1152 251.278 90.0809 251.274C88.6548 251.107 85.4257 251.166 83.0649 251.149C82.2179 251.144 82.2745 251.095 81.6722 251.079C79.4 251.021 80.4648 251.181 79.8419 251.207C77.1693 251.314 76.9405 250.951 73.7896 250.96C73.6227 250.96 71.5821 251.154 71.3011 251.166C69.5154 251.245 71.0055 251.099 69.8879 251.084C67.8474 251.058 66.4295 251.012 64.0354 251.069C63.3373 251.086 61.6628 251.206 60.3071 251.113C60.1288 251.101 60.2273 251.037 60.0838 251.033C57.4855 250.97 57.4172 251.172 55.9324 251.24C54.4474 251.308 52.1538 251.169 51.687 251.129C50.4659 251.025 52.6227 251.085 52.6889 251.075C53.4657 250.954 51.7929 250.974 50.5148 250.964C50.3297 250.767 48.5423 250.779 49.1897 250.954C49.2634 250.974 50.2581 250.955 50.5148 250.964C49.3928 251.158 47.4284 251.182 45.2587 251.002C44.243 250.917 45.2032 250.818 42.118 250.854C40.7178 250.871 41.2588 251.006 40.0232 251.043C37.2002 251.128 33.5319 251.001 30.6216 251.021C29.5653 251.028 30.5943 251.103 29.8724 251.11C28.0174 251.13 26.3745 251.078 24.5255 251.101L24.3389 251.067C24.2803 251.045 24.2091 251.018 24.158 250.998C23.9856 250.929 24.3658 251.174 23.7923 250.932C20.8188 249.589 18.2563 247.907 16.281 245.322C15.4602 244.212 14.8291 242.946 14.3565 241.564C13.8968 240.235 13.4306 238.256 13.3736 236.264L13.8543 236.849C12.4695 236.541 11.2867 236.011 10.3956 235.499C9.30691 234.87 8.22458 234.002 7.40022 232.876C5.66858 230.441 5.22486 227.473 5.13583 225.067C5.13548 224.722 5.13415 224.388 5.13163 224.067C5.11404 221.778 5.03623 222.28 4.98322 221.3C4.88045 219.407 5.06453 216.057 5.09303 215.606C5.09398 215.592 5.11232 217.562 5.15226 216.511C5.23549 215.9 5.09339 215.628 5.09303 215.606C5.11144 215.31 5.12911 211.375 5.11423 210.594C5.10611 210.169 5.03238 210.406 5.02954 210.185C4.96357 204.924 4.94483 199.653 4.9793 194.317C4.98079 194.223 5.06325 194.365 5.06572 194.144C5.10239 191.054 5.00151 189.076 4.94162 186.528C4.88176 183.981 4.90181 181.961 5.04337 180.453C5.02554 178.53 5.08813 175.773 5.1261 174.186C5.16408 172.599 5.00356 172.378 5.00039 172.238C4.89882 167.883 4.9907 165.365 5.005 160.847C5.01207 158.699 4.98879 154.438 4.97123 152.113C4.95709 150.275 4.99471 149.167 4.97066 147.474C4.96745 147.244 4.89597 147.476 4.89322 147.406C4.80771 145.516 4.98243 146.424 5.01364 146.034C5.12711 144.619 5.18755 143.745 5.13417 141.324C5.12194 140.766 4.87037 139.14 4.85566 138.122C4.83699 136.799 4.92717 137.298 4.90532 135.912C4.90354 135.794 4.8479 135.819 4.85036 134.964C4.86101 130.994 4.89338 126.667 4.88781 122.542C4.88726 121.978 4.79902 122.701 4.79678 121.886C4.78632 118.066 4.78958 113.88 4.83088 110.158C4.84133 109.242 4.90311 109.816 4.92145 109.617C5.03245 108.397 4.87118 106.665 4.8681 106.38C4.7906 99.5659 4.93655 94.351 4.86707 87.4061C4.86299 87.0281 4.6901 84.1181 4.83837 82.8199C4.84824 82.731 4.99994 81.4466 4.89622 80.3108C4.88973 80.2403 4.81163 81.0407 4.81959 79.6439C4.82753 78.2472 4.77538 75.9993 4.86119 74.0794C4.88822 73.4715 5.03955 72.0349 4.91892 70.2218C4.9105 70.1036 4.63774 67.3045 4.82593 66.3054C4.85691 66.1434 5.05606 66.313 4.95395 64.1489C4.93415 63.7355 4.88973 64.486 4.862 63.3968C4.81925 61.7279 4.87258 59.5166 4.78387 57.465C4.76816 57.1072 4.63299 55.5841 4.73559 54.3624C4.75166 54.1711 4.81814 54.5346 4.82558 53.8894C4.86127 50.8214 4.8168 47.6088 4.8628 44.4937C4.87897 43.3903 4.98645 43.9544 5.01525 42.8043C5.01607 42.7718 5.01688 42.7383 5.01769 42.7039L5.03284 42.5678C5.32528 41.3882 5.98878 39.2489 6.38285 38.1138C6.79768 36.9458 6.0961 38.1371 6.8496 36.4074C7.09339 35.8869 7.36673 35.3664 7.70349 34.8623C9.31511 32.6048 11.3631 31.0986 13.5048 29.6443L13.1152 30.4565C12.9019 26.7862 13.6208 23.1675 15.5002 20.0007C16.2087 18.8269 17.0515 17.7116 18.0379 16.731C18.9419 15.8915 18.1036 16.4987 19.5391 15.3594C20.2462 14.8535 20.977 14.3645 22.0687 13.992L21.4595 14.9634C21.6101 11.9735 23.3991 10.4146 25.018 8.60799C25.7578 7.85782 26.5359 7.13401 27.4106 6.49032C27.8501 6.16952 28.3148 5.86663 28.8372 5.6167C29.0998 5.49219 29.3819 5.37864 29.6935 5.29892C29.8541 5.25836 30.0217 5.2263 30.2105 5.21246C30.3053 5.20579 30.4056 5.20362 30.5178 5.21148C30.5724 5.21541 30.6322 5.22184 30.6996 5.23383C30.7753 5.25131 30.7957 5.24131 30.9935 5.32149L30.6366 5.24423C33.4773 5.25402 36.0827 5.27661 38.0139 5.32256C42.4002 5.42688 36.8803 5.5063 40.2321 5.54875C41.8495 5.569 43.5994 5.36985 43.9898 5.36358C47.8041 5.29989 50.4549 5.38811 53.8879 5.36104C54.5969 5.35543 53.9015 5.27471 54.5049 5.27082C56.5658 5.25682 58.7318 5.29285 60.7012 5.28626C61.5846 5.28312 61.4219 5.22146 62.2348 5.22622C64.18 5.2369 65.9001 5.26281 67.7964 5.3206C67.9693 5.32586 66.8038 5.40255 68.243 5.40541C70.5723 5.4098 73.4635 5.46681 76.1433 5.40794C76.9384 5.39023 76.9696 5.24933 78.6788 5.34664C79.0373 5.36696 78.5799 5.53615 80.5709 5.38996C80.9057 5.36567 84.2502 5.16849 85.8916 5.29559C86.3246 5.32904 87.4297 5.46749 88.3859 5.44574C88.5156 5.44226 87.9961 5.36658 88.7884 5.3592C89.2163 5.35541 89.6474 5.3524 90.0809 5.34992C92.4764 5.33623 94.947 5.33894 97.3762 5.31887C98.1423 5.31239 97.0013 5.23407 98.143 5.22691C101.283 5.20712 105.203 5.22706 108.273 5.25157C109.405 5.26076 108.623 5.32564 108.705 5.3327C110.03 5.44753 110.813 5.29253 111.252 5.28349C113.986 5.22937 116.068 5.30218 118.589 5.28292C119.284 5.2778 118.791 5.20389 118.929 5.1973C120.365 5.13291 119.296 5.26564 120.204 5.28027C122.75 5.32169 125.589 5.31575 128.164 5.30631C129.109 5.30273 128.046 5.21704 128.895 5.21482C133.919 5.20005 139.141 5.20825 144.043 5.25549C144.967 5.26454 144.386 5.33053 144.578 5.3456C144.904 5.37152 145.267 5.38238 145.636 5.38381L145.745 5.39196C146.967 5.60109 148.139 5.94201 148.487 6.06936C150.389 6.80949 151.177 7.34052 152.387 8.69281C152.453 8.77217 152.518 8.85419 152.584 8.93917C153.832 10.5748 154.594 12.541 154.82 14.7671L154.134 13.98C157.364 14.9983 159.263 17.4734 160.814 19.9763C162.746 23.2371 163.5 26.9788 163.123 30.4916L162.715 29.6467C163.714 30.2362 164.612 30.8379 165.477 31.4705C166.811 32.4671 168.077 33.4894 169.074 34.8829C170.69 37.4199 171.324 39.9777 171.947 42.5401L171.965 42.7039C171.943 48.2345 171.926 53.5629 171.935 59.5374C171.936 60.1914 172.024 59.532 172.026 60.0957C172.047 67.3736 172.013 74.5385 172.038 81.831C172.04 82.4294 172.123 81.5668 172.129 82.5273C172.142 84.4974 172.137 86.993 172.111 88.985C172.098 89.9565 172.026 88.6534 172.015 89.6314C171.988 91.9085 171.982 94.3494 171.996 96.6884C172.001 97.6838 172.087 96.182 172.087 97.4758C172.096 106.289 172.111 114.944 172 123.85C171.993 124.461 171.82 124.997 171.853 126.295C171.901 126.392 171.957 126.387 172.009 126.43C172.036 139.259 171.976 151.958 171.967 164.824C171.967 165.366 172.058 164.429 172.058 165.479C172.057 171.557 172.082 177.459 171.991 183.677C171.982 184.294 171.821 183.977 171.845 185.795C171.85 186.116 171.871 188.854 171.906 189.562C171.912 189.658 171.987 189.158 171.989 190.04C172.001 195.168 171.983 200.541 171.937 205.659C171.93 206.485 171.85 205.605 171.844 206.194C171.801 210.367 171.862 214.907 171.789 218.895C171.74 221.564 171.602 220.576 171.465 221.994C171.446 222.195 171.443 223.848 171.364 223.933C171.164 224.153 170.946 223.352 170.733 223.681C170.687 223.75 170.736 225.964 170.626 224.653C170.618 224.561 170.582 222.956 170.544 222.561C170.518 222.286 170.437 222.782 170.404 222.22C170.371 221.659 170.439 221.042 170.4 220.111C170.36 219.18 170.268 219.589 170.257 217.731ZM5.29584 167.041C5.37292 165.571 5.09059 165.354 5.15814 166.944C5.16174 167.021 5.29205 167.116 5.29584 167.041ZM110.109 250.867C108.188 250.743 106.874 250.926 108.229 251.022C109.584 251.118 110.694 250.905 110.109 250.867ZM130.029 250.776C127.784 250.678 127.43 251.078 129.835 250.998C129.975 250.993 130.16 250.782 130.029 250.776ZM171.426 215.416C171.423 215.436 171.419 216.624 171.423 216.653C171.512 217.286 171.52 214.91 171.426 215.416ZM149.796 250.677C149.095 250.623 147.077 250.686 147.948 250.753C148.649 250.807 150.669 250.745 149.796 250.677ZM5.59716 90.3911C5.60137 90.368 5.60516 89.5161 5.58138 89.5332C5.50478 89.5911 5.5264 90.7766 5.59716 90.3911ZM170.843 227.781C170.089 230.453 168.666 232.156 168.336 232.475C168.244 232.563 168.223 232.555 168.286 232.438C168.408 232.192 168.932 231.513 169.653 230.064C170.104 229.206 168.769 231.96 169.381 230.886C170.487 228.901 170.797 227.365 171.078 225.107C171.19 224.679 171.004 227.513 170.841 227.789C170.842 227.786 170.842 227.784 170.843 227.781ZM5.63496 166.194C5.63869 166.165 5.64223 164.986 5.63853 164.958C5.5489 164.319 5.54171 166.695 5.63496 166.194ZM6.28307 40.789C6.28541 40.7224 7.15853 38.1385 7.21311 38.0655C7.53682 36.6593 5.7322 41.8938 6.28307 40.789ZM15.1318 241.43C15.6267 242.607 16.337 243.924 16.855 244.794C16.1142 243.778 15.5471 242.63 15.1318 241.43Z" fill="#621B14"/>
<path d="M88.8262 16.0093V17.236C88.8262 17.236 88.3254 16.8062 86.1869 16.5909C84.0483 16.3755 83.8995 16.94 83.8995 16.94V9.41797L84.7206 9.41803" stroke="#621B14" stroke-width="0.220302"/>
<path d="M89.0264 16.0093V17.236C89.0264 17.236 89.5271 16.8062 91.6657 16.5909C93.8042 16.3755 93.9531 16.94 93.9531 16.94V9.41797L93.1319 9.41803" stroke="#621B14" stroke-width="0.220302"/>
<path d="M91.2148 8.74316H93.0566V15.4502C93.0103 15.416 92.9525 15.382 92.8818 15.3496C92.5963 15.2186 92.0934 15.1229 91.2051 15.2207C90.3126 15.319 89.727 15.5651 89.3623 15.791C89.2134 15.8833 89.1029 15.9737 89.0225 16.0469V10.1016C89.0274 10.0924 89.0345 10.0803 89.043 10.0654C89.0642 10.0282 89.0968 9.97402 89.1406 9.90918C89.2285 9.77927 89.3619 9.60587 89.543 9.43262C89.9048 9.0864 90.4542 8.74344 91.2148 8.74316Z" stroke="#621B14" stroke-width="0.188612"/>
<path d="M86.6406 8.74316H84.7988V15.4502C84.8452 15.416 84.903 15.382 84.9736 15.3496C85.2592 15.2186 85.7621 15.1229 86.6504 15.2207C87.5429 15.319 88.1285 15.5651 88.4932 15.791C88.642 15.8833 88.7525 15.9737 88.833 16.0469V10.1016C88.8281 10.0924 88.821 10.0803 88.8125 10.0654C88.7912 10.0282 88.7587 9.97402 88.7148 9.90918C88.627 9.77927 88.4936 9.60587 88.3125 9.43262C87.9506 9.0864 87.4012 8.74344 86.6406 8.74316Z" stroke="#621B14" stroke-width="0.188612"/>
<ellipse cx="78.9724" cy="13.1075" rx="0.703813" ry="0.775447" fill="#621B14"/>
<path d="M75.3028 13.1094C75.3028 13.3872 75.528 13.6123 75.8058 13.6123C76.0836 13.6123 76.3087 13.3872 76.3087 13.1094C76.3087 12.8316 76.0836 12.6064 75.8058 12.6064C75.528 12.6064 75.3028 12.8316 75.3028 13.1094ZM73.6943 13.1094V13.2037H75.8058V13.1094V13.0151H73.6943V13.1094Z" fill="#621B14"/>
<path d="M33.0742 13.207C33.0742 13.4848 33.2994 13.71 33.5771 13.71C33.8549 13.71 34.0801 13.4848 34.0801 13.207C34.0801 12.9293 33.8549 12.7041 33.5771 12.7041C33.2994 12.7041 33.0742 12.9293 33.0742 13.207ZM70.3767 13.207C70.3767 13.4848 70.6019 13.71 70.8797 13.71C71.1574 13.71 71.3826 13.4848 71.3826 13.207C71.3826 12.9293 71.1574 12.7041 70.8797 12.7041C70.6019 12.7041 70.3767 12.9293 70.3767 13.207ZM33.5771 13.207V13.3013H70.8797V13.207V13.1127H33.5771V13.207Z" fill="#621B14"/>
<rect width="1.63447" height="1.63447" transform="matrix(0.672077 -0.740481 0.672077 0.740481 30.4072 13.1953)" fill="#621B14"/>
<ellipse cx="28.6481" cy="13.1089" rx="0.703813" ry="0.581585" fill="#621B14"/>
<ellipse cx="0.703813" cy="0.775447" rx="0.703813" ry="0.775447" transform="matrix(-1 0 0 1 99.7344 12.332)" fill="#621B14"/>
<path d="M102.701 13.1094C102.701 13.3872 102.476 13.6123 102.198 13.6123C101.92 13.6123 101.695 13.3872 101.695 13.1094C101.695 12.8316 101.92 12.6064 102.198 12.6064C102.476 12.6064 102.701 12.8316 102.701 13.1094ZM104.31 13.1094V13.2037H102.198V13.1094V13.0151H104.31V13.1094Z" fill="#621B14"/>
<path d="M144.93 13.207C144.93 13.4848 144.705 13.71 144.427 13.71C144.149 13.71 143.924 13.4848 143.924 13.207C143.924 12.9293 144.149 12.7041 144.427 12.7041C144.705 12.7041 144.93 12.9293 144.93 13.207ZM107.627 13.207C107.627 13.4848 107.402 13.71 107.124 13.71C106.846 13.71 106.621 13.4848 106.621 13.207C106.621 12.9293 106.846 12.7041 107.124 12.7041C107.402 12.7041 107.627 12.9293 107.627 13.207ZM144.427 13.207V13.3013H107.124V13.207V13.1127H144.427V13.207Z" fill="#621B14"/>
<rect width="1.63447" height="1.63447" transform="matrix(-0.672077 -0.740481 -0.672077 0.740481 147.594 13.1953)" fill="#621B14"/>
<ellipse cx="0.703813" cy="0.581585" rx="0.703813" ry="0.581585" transform="matrix(-1 0 0 1 150.057 12.5273)" fill="#621B14"/>
<path d="M88.8252 246.927V248.154C88.8252 248.154 88.3245 247.724 86.186 247.508C84.0476 247.293 83.8988 247.858 83.8988 247.858V240.336L84.7198 240.336" stroke="#621B14" stroke-width="0.220303"/>
<path d="M89.0303 246.927V248.154C89.0303 248.154 89.531 247.724 91.6694 247.508C93.8079 247.293 93.9567 247.858 93.9567 247.858V240.336L93.1356 240.336" stroke="#621B14" stroke-width="0.220303"/>
<path d="M91.2168 239.661H93.0576V246.368C93.0114 246.334 92.9543 246.299 92.8838 246.267C92.5983 246.136 92.0951 246.04 91.207 246.138C90.3145 246.236 89.7289 246.483 89.3643 246.709C89.2153 246.801 89.1049 246.892 89.0244 246.965V241.02C89.0294 241.01 89.0363 240.998 89.0449 240.982C89.0662 240.945 89.0989 240.892 89.1426 240.827C89.2304 240.697 89.3638 240.524 89.5449 240.351C89.9068 240.004 90.4562 239.661 91.2168 239.661Z" stroke="#621B14" stroke-width="0.188613"/>
<path d="M86.6426 239.661H84.8018V246.368C84.848 246.334 84.9051 246.299 84.9756 246.267C85.2611 246.136 85.7643 246.04 86.6523 246.138C87.5449 246.236 88.1305 246.483 88.4951 246.709C88.6441 246.801 88.7545 246.892 88.835 246.965V241.02C88.83 241.01 88.8231 240.998 88.8145 240.982C88.7932 240.945 88.7605 240.892 88.7168 240.827C88.6289 240.697 88.4955 240.524 88.3145 240.351C87.9526 240.004 87.4032 239.661 86.6426 239.661Z" stroke="#621B14" stroke-width="0.188613"/>
<ellipse cx="78.9704" cy="244.029" rx="0.703777" ry="0.775407" fill="#621B14"/>
<path d="M75.3007 244.027C75.3007 244.305 75.5259 244.53 75.8037 244.53C76.0815 244.53 76.3067 244.305 76.3067 244.027C76.3067 243.75 76.0815 243.524 75.8037 243.524C75.5259 243.524 75.3007 243.75 75.3007 244.027ZM73.6924 244.027V244.122H75.8037V244.027V243.933H73.6924V244.027Z" fill="#621B14"/>
<path d="M33.0722 244.121C33.0722 244.399 33.2974 244.624 33.5752 244.624C33.853 244.624 34.0782 244.399 34.0782 244.121C34.0782 243.843 33.853 243.618 33.5752 243.618C33.2974 243.618 33.0722 243.843 33.0722 244.121ZM70.3749 244.121C70.3749 244.399 70.6001 244.624 70.8779 244.624C71.1557 244.624 71.3809 244.399 71.3809 244.121C71.3809 243.843 71.1557 243.618 70.8779 243.618C70.6001 243.618 70.3749 243.843 70.3749 244.121ZM33.5752 244.121V244.215H70.8779V244.121V244.027H33.5752V244.121Z" fill="#621B14"/>
<rect width="1.63439" height="1.63439" transform="matrix(0.672077 -0.740481 0.672077 0.740481 30.4072 244.113)" fill="#621B14"/>
<ellipse cx="28.6481" cy="244.027" rx="0.703777" ry="0.581556" fill="#621B14"/>
<ellipse cx="0.703777" cy="0.775407" rx="0.703777" ry="0.775407" transform="matrix(-1 0 0 1 99.7354 243.254)" fill="#621B14"/>
<path d="M102.702 244.027C102.702 244.305 102.477 244.53 102.199 244.53C101.921 244.53 101.696 244.305 101.696 244.027C101.696 243.75 101.921 243.524 102.199 243.524C102.477 243.524 102.702 243.75 102.702 244.027ZM104.311 244.027V244.122H102.199V244.027V243.933H104.311V244.027Z" fill="#621B14"/>
<path d="M144.93 244.121C144.93 244.399 144.705 244.624 144.427 244.624C144.149 244.624 143.924 244.399 143.924 244.121C143.924 243.843 144.149 243.618 144.427 243.618C144.705 243.618 144.93 243.843 144.93 244.121ZM107.627 244.121C107.627 244.399 107.402 244.624 107.124 244.624C106.846 244.624 106.621 244.399 106.621 244.121C106.621 243.843 106.846 243.618 107.124 243.618C107.402 243.618 107.627 243.843 107.627 244.121ZM144.427 244.121V244.215H107.124V244.121V244.027H144.427V244.121Z" fill="#621B14"/>
<rect width="1.63439" height="1.63439" transform="matrix(-0.672077 -0.740481 -0.672077 0.740481 147.594 244.113)" fill="#621B14"/>
<ellipse cx="0.703777" cy="0.581556" rx="0.703777" ry="0.581556" transform="matrix(-1 0 0 1 150.057 243.445)" fill="#621B14"/>
<path d="M162.208 127.852H161.095C161.095 127.852 161.485 128.371 161.681 130.592C161.876 132.812 161.364 132.967 161.364 132.967H168.188L168.188 132.114" stroke="#621B14" stroke-width="0.207592"/>
<path d="M162.208 127.633H161.095C161.095 127.633 161.485 127.113 161.681 124.893C161.876 122.672 161.364 122.518 161.364 122.518H168.188L168.188 123.37" stroke="#621B14" stroke-width="0.207592"/>
<path d="M167.593 127.734C167.593 127.734 168.891 127.004 168.891 125.36C168.892 123.715 168.891 123.35 168.891 123.35H162.492C162.492 123.35 163.02 123.533 162.844 125.36C162.668 127.186 161.965 127.734 161.965 127.734H167.593Z" stroke="#621B14" stroke-width="0.207592"/>
<path d="M167.593 127.734C167.593 127.734 168.891 128.465 168.891 130.109C168.892 131.753 168.891 132.119 168.891 132.119H162.492C162.492 132.119 163.02 131.936 162.844 130.109C162.668 128.282 161.965 127.734 161.965 127.734H167.593Z" stroke="#621B14" stroke-width="0.207592"/>
<ellipse cx="1.01238" cy="0.703557" rx="1.01238" ry="0.703557" transform="matrix(0 -1 -1 0 165.47 140.047)" fill="#621B14"/>
<path d="M164.766 146.629V143.592" stroke="#621B14" stroke-width="0.207592"/>
<path d="M164.678 204.324V150.667" stroke="#621B14" stroke-width="0.207592"/>
<rect width="1.92419" height="1.92419" transform="matrix(0.570678 -0.821174 -0.570678 -0.821174 164.688 208.887)" fill="#621B14"/>
<ellipse cx="1.01238" cy="0.527668" rx="1.01238" ry="0.527668" transform="matrix(0 -1 -1 0 165.295 212.43)" fill="#621B14"/>
<ellipse cx="164.844" cy="116.973" rx="1.01232" ry="0.703557" transform="rotate(90 164.844 116.973)" fill="#621B14"/>
<path d="M164.843 109.383V112.42" stroke="#621B14" stroke-width="0.207592"/>
<path d="M164.756 51.6914V105.345" stroke="#621B14" stroke-width="0.207592"/>
<rect width="1.92411" height="1.92411" transform="matrix(0.570702 0.821157 -0.570702 0.821157 164.766 47.1211)" fill="#621B14"/>
<ellipse cx="164.844" cy="44.5943" rx="1.01232" ry="0.527668" transform="rotate(90 164.844 44.5943)" fill="#621B14"/>
<path d="M14.2224 129.148H15.3355C15.3355 129.148 14.9455 129.668 14.7501 131.889C14.5547 134.109 15.0669 134.263 15.0669 134.263H8.24219L8.24224 133.411" stroke="#621B14" stroke-width="0.207592"/>
<path d="M14.2224 128.93H15.3355C15.3355 128.93 14.9455 128.41 14.7501 126.19C14.5547 123.969 15.0669 123.815 15.0669 123.815H8.24219L8.24224 124.667" stroke="#621B14" stroke-width="0.207592"/>
<path d="M7.62793 126.66V124.74H13.7178C13.683 124.791 13.6472 124.855 13.6143 124.938C13.4969 125.23 13.4094 125.749 13.498 126.669C13.587 127.593 13.8105 128.198 14.0146 128.575C14.1047 128.741 14.1917 128.862 14.2607 128.946H8.8623C8.85411 128.941 8.84298 128.934 8.83008 128.926C8.79643 128.904 8.74789 128.87 8.68945 128.825C8.57177 128.734 8.41424 128.595 8.25684 128.407C7.94244 128.031 7.62809 127.457 7.62793 126.66Z" stroke="#621B14" stroke-width="0.17773"/>
<path d="M7.62793 131.41V133.33H13.7178C13.683 133.279 13.6472 133.215 13.6143 133.133C13.4969 132.84 13.4094 132.322 13.498 131.401C13.587 130.477 13.8105 129.872 14.0146 129.495C14.1047 129.329 14.1917 129.208 14.2607 129.124H8.8623C8.85411 129.129 8.84298 129.136 8.83008 129.145C8.79643 129.167 8.74789 129.2 8.68945 129.245C8.57177 129.336 8.41424 129.475 8.25684 129.663C7.94244 130.039 7.62809 130.613 7.62793 131.41Z" stroke="#621B14" stroke-width="0.17773"/>
<ellipse cx="11.6645" cy="140.331" rx="1.01238" ry="0.703557" transform="rotate(-90 11.6645 140.331)" fill="#621B14"/>
<path d="M11.665 145.355C11.9268 145.355 12.139 145.143 12.139 144.881C12.139 144.619 11.9268 144.407 11.665 144.407C11.4033 144.407 11.1911 144.619 11.1911 144.881C11.1911 145.143 11.4033 145.355 11.665 145.355ZM11.665 147.918H11.7539V144.881H11.665H11.5762V147.918H11.665Z" fill="#621B14"/>
<path d="M11.752 206.103C12.0137 206.103 12.2259 205.891 12.2259 205.629C12.2259 205.367 12.0137 205.155 11.752 205.155C11.4902 205.155 11.278 205.367 11.278 205.629C11.278 205.891 11.4902 206.103 11.752 206.103ZM11.752 152.446C12.0137 152.446 12.2259 152.234 12.2259 151.972C12.2259 151.71 12.0137 151.498 11.752 151.498C11.4902 151.498 11.278 151.71 11.278 151.972C11.278 152.234 11.4902 152.446 11.752 152.446ZM11.752 205.629H11.8408L11.8408 151.972H11.752H11.6631L11.6631 205.629H11.752Z" fill="#621B14"/>
<rect width="1.92419" height="1.92419" transform="matrix(-0.570678 -0.821174 0.570678 -0.821174 11.7432 210.18)" fill="#621B14"/>
<ellipse cx="11.6634" cy="212.71" rx="1.01238" ry="0.527668" transform="rotate(-90 11.6634 212.71)" fill="#621B14"/>
<ellipse cx="1.01232" cy="0.703557" rx="1.01232" ry="0.703557" transform="matrix(0 1 1 0 10.8799 117.266)" fill="#621B14"/>
<path d="M11.584 113.235C11.8457 113.235 12.0579 113.447 12.0579 113.709C12.0579 113.971 11.8457 114.183 11.584 114.183C11.3222 114.183 11.11 113.971 11.11 113.709C11.11 113.447 11.3222 113.235 11.584 113.235ZM11.584 110.672H11.6728V113.709H11.584H11.4951V110.672H11.584Z" fill="#621B14"/>
<path d="M11.6719 52.5026C11.9336 52.5026 12.1458 52.7148 12.1458 52.9766C12.1458 53.2383 11.9336 53.4505 11.6719 53.4505C11.4101 53.4505 11.1979 53.2383 11.1979 52.9766C11.1979 52.7148 11.4101 52.5026 11.6719 52.5026ZM11.6719 106.156C11.9336 106.156 12.1458 106.368 12.1458 106.63C12.1458 106.892 11.9336 107.104 11.6719 107.104C11.4101 107.104 11.1979 106.892 11.1979 106.63C11.1979 106.368 11.4101 106.156 11.6719 106.156ZM11.6719 52.9766H11.7607L11.7607 106.63H11.6719H11.583L11.583 52.9766H11.6719Z" fill="#621B14"/>
<rect width="1.92411" height="1.92411" transform="matrix(-0.570702 0.821157 0.570702 0.821157 11.6631 48.4141)" fill="#621B14"/>
<ellipse cx="1.01232" cy="0.527668" rx="1.01232" ry="0.527668" transform="matrix(0 1 1 0 11.0547 44.875)" fill="#621B14"/>
<defs>
<filter id="filter0_n_2464_104" x="0" y="0" width="176.832" height="255.848" filterUnits="userSpaceOnUse" color-interpolation-filters="sRGB">
<feFlood flood-opacity="0" result="BackgroundImageFix"/>
<feBlend mode="normal" in="SourceGraphic" in2="BackgroundImageFix" result="shape"/>
<feTurbulence type="fractalNoise" baseFrequency="1.5890412330627441 1.5890412330627441" stitchTiles="stitch" numOctaves="3" result="noise" seed="4514" />
<feColorMatrix in="noise" type="luminanceToAlpha" result="alphaNoise" />
<feComponentTransfer in="alphaNoise" result="coloredNoise1">
<feFuncA type="discrete" tableValues="0 0 0 0 0 0 0 0 0 0 0 0 0 0 0 0 0 1 1 1 1 1 1 1 1 1 1 1 1 1 1 1 1 0 0 0 0 0 0 0 0 0 0 0 0 0 0 0 0 0 0 0 0 0 0 0 0 0 0 0 0 0 0 0 0 0 0 0 0 0 0 0 0 0 0 0 0 0 0 0 0 0 0 0 0 0 0 0 0 0 0 0 0 0 0 0 0 0 0 0 "/>
</feComponentTransfer>
<feComposite operator="in" in2="shape" in="coloredNoise1" result="noise1Clipped" />
<feFlood flood-color="rgba(0, 0, 0, 0.25)" result="color1Flood" />
<feComposite operator="in" in2="noise1Clipped" in="color1Flood" result="color1" />
<feMerge result="effect1_noise_2464_104">
<feMergeNode in="shape" />
<feMergeNode in="color1" />
</feMerge>
</filter>
</defs>
</svg>
