<svg width="96" height="96" viewBox="0 0 96 96" fill="none" xmlns="http://www.w3.org/2000/svg">
<path d="M43.3359 4.7041C45.9633 2.25305 50.0396 2.25299 52.667 4.7041C54.7066 6.60693 57.6472 7.19216 60.2598 6.21484C63.6251 4.95574 67.3914 6.51527 68.8809 9.78516C70.0371 12.3238 72.5305 13.9902 75.3184 14.0869C78.9093 14.2117 81.7913 17.0936 81.916 20.6846C82.0127 23.4723 83.6784 25.9658 86.2168 27.1221C89.4869 28.6115 91.0472 32.3777 89.7881 35.7432C88.8108 38.3557 89.396 41.2963 91.2988 43.3359C93.7498 45.9633 93.7498 50.0396 91.2988 52.667C89.396 54.7066 88.8107 57.6472 89.7881 60.2598C91.0472 63.6252 89.4869 67.3915 86.2168 68.8809C83.6784 70.0372 82.0127 72.5306 81.916 75.3184C81.7912 78.9092 78.9092 81.7912 75.3184 81.916C72.5307 82.0127 70.0372 83.6784 68.8809 86.2168C67.3915 89.4869 63.6252 91.0472 60.2598 89.7881C57.6472 88.8107 54.7066 89.396 52.667 91.2988C50.0396 93.7498 45.9633 93.7498 43.3359 91.2988C41.2963 89.396 38.3557 88.8108 35.7432 89.7881C32.3777 91.0472 28.6115 89.4869 27.1221 86.2168C25.9658 83.6784 23.4723 82.0127 20.6846 81.916C17.0936 81.7913 14.2117 78.9093 14.0869 75.3184C13.9902 72.5305 12.3238 70.0371 9.78516 68.8809C6.51527 67.3914 4.95574 63.6251 6.21484 60.2598C7.19216 57.6472 6.60693 54.7066 4.7041 52.667C2.25299 50.0396 2.25305 45.9633 4.7041 43.3359C6.60689 41.2963 7.19208 38.3557 6.21484 35.7432C4.95575 32.3778 6.51531 28.6116 9.78516 27.1221C12.3238 25.9658 13.9902 23.4724 14.0869 20.6846C14.2116 17.0936 17.0936 14.2116 20.6846 14.0869C23.4724 13.9902 25.9658 12.3238 27.1221 9.78516C28.6116 6.51531 32.3778 4.95575 35.7432 6.21484C38.3557 7.19208 41.2963 6.60689 43.3359 4.7041Z" fill="#AB0F00" stroke="#BC9F7A" stroke-width="0.514301"/>
<path d="M43.7998 7.93652C46.1666 5.72869 49.8383 5.72866 52.2051 7.93652C54.1517 9.75263 56.9587 10.3108 59.4521 9.37793C62.4837 8.24385 65.8761 9.64914 67.2178 12.5947C68.3213 15.0175 70.7006 16.6079 73.3613 16.7002C76.5962 16.8125 79.1924 19.4086 79.3047 22.6436C79.397 25.3042 80.9873 27.6836 83.4102 28.7871C86.3557 30.1288 87.7611 33.5212 86.627 36.5527C85.6941 39.0462 86.2523 41.8531 88.0684 43.7998C90.2761 46.1666 90.2762 49.8383 88.0684 52.2051C86.2523 54.1517 85.6941 56.9587 86.627 59.4521C87.761 62.4837 86.3557 65.8761 83.4102 67.2178C80.9873 68.3213 79.397 70.7006 79.3047 73.3613C79.1924 76.5962 76.5962 79.1924 73.3613 79.3047C70.7006 79.397 68.3213 80.9873 67.2178 83.4102C65.8761 86.3557 62.4837 87.761 59.4521 86.627C56.9587 85.6941 54.1517 86.2523 52.2051 88.0684C49.8383 90.2762 46.1666 90.2761 43.7998 88.0684C41.8531 86.2523 39.0462 85.6941 36.5527 86.627C33.5212 87.7611 30.1288 86.3557 28.7871 83.4102C27.6836 80.9873 25.3042 79.397 22.6436 79.3047C19.4086 79.1924 16.8125 76.5962 16.7002 73.3613C16.6079 70.7006 15.0175 68.3213 12.5947 67.2178C9.64914 65.8761 8.24385 62.4837 9.37793 59.4521C10.3108 56.9587 9.75263 54.1517 7.93652 52.2051C5.72866 49.8383 5.72869 46.1666 7.93652 43.7998C9.75263 41.8531 10.3108 39.0462 9.37793 36.5527C8.2438 33.5212 9.64913 30.1288 12.5947 28.7871C15.0175 27.6836 16.6079 25.3042 16.7002 22.6436C16.8124 19.4086 19.4086 16.8124 22.6436 16.7002C25.3042 16.6079 27.6836 15.0175 28.7871 12.5947C30.1288 9.64913 33.5212 8.2438 36.5527 9.37793C39.0462 10.3108 41.8531 9.75263 43.7998 7.93652Z" stroke="#BC9F7A" stroke-width="0.857167"/>
</svg>
