<svg width="167" height="162" viewBox="0 0 167 162" fill="none" xmlns="http://www.w3.org/2000/svg">
<path d="M71.1035 7.73633C78.5803 3.44753 87.7713 3.44753 95.248 7.73633L107.527 14.7793C109.568 15.9496 111.759 16.8346 114.04 17.4082L127.551 20.8057C136.107 22.9572 142.82 29.5833 145.084 38.1104L148.431 50.7178C149.057 53.0791 150.019 55.3389 151.284 57.4287L157.918 68.3838C162.596 76.1093 162.596 85.7941 157.918 93.5195L151.284 104.474C150.019 106.563 149.057 108.823 148.431 111.185L145.084 123.792C142.82 132.319 136.107 138.946 127.551 141.098L114.04 144.495C111.759 145.069 109.568 145.953 107.527 147.123L95.248 154.166C87.7712 158.455 78.5803 158.455 71.1035 154.166L58.8242 147.123C56.784 145.953 54.5926 145.069 52.3115 144.495L38.8008 141.098C30.2447 138.946 23.5311 132.319 21.2676 123.792L17.9209 111.185C17.2941 108.823 16.3329 106.563 15.0674 104.474L8.43359 93.5195C3.75527 85.7941 3.75539 76.1093 8.43359 68.3838L15.0674 57.4287C16.3329 55.3389 17.2941 53.0791 17.9209 50.7178L21.2676 38.1104C23.5311 29.5833 30.2448 22.9572 38.8008 20.8057L52.3115 17.4082C54.5926 16.8346 56.7839 15.9496 58.8242 14.7793L71.1035 7.73633Z" fill="#471C18" stroke="#C4AE95" stroke-width="1.40785"/>
<path d="M71.0479 12.8096C78.5519 8.47963 87.7957 8.47968 95.2998 12.8096L105.537 18.7168C107.583 19.8973 109.782 20.7899 112.072 21.3691L123.351 24.2217C131.904 26.3852 138.609 33.0217 140.86 41.5527L143.662 52.1689C144.283 54.5217 145.235 56.7747 146.49 58.8594L152.054 68.1006C156.688 75.7993 156.688 85.4293 152.054 93.1279L146.49 102.369C145.235 104.454 144.283 106.706 143.662 109.059L140.86 119.676C138.609 128.207 131.904 134.843 123.351 137.007L112.072 139.859C109.782 140.439 107.583 141.331 105.537 142.512L95.2998 148.418C87.7957 152.748 78.552 152.748 71.0479 148.418L60.8105 142.512C58.7648 141.331 56.5661 140.439 54.2764 139.859L42.9971 137.007C34.4436 134.843 27.7386 128.207 25.4873 119.676L22.6855 109.059C22.0647 106.706 21.1123 104.454 19.8574 102.369L14.2949 93.1279C9.6602 85.4292 9.66023 75.7993 14.2949 68.1006L19.8574 58.8594C21.1124 56.7747 22.0647 54.5217 22.6855 52.1689L25.4873 41.5527C27.7385 33.0218 34.4435 26.3853 42.9971 24.2217L54.2764 21.3691C56.5661 20.79 58.7648 19.8972 60.8105 18.7168L71.0479 12.8096Z" stroke="#C4AE95" stroke-width="1.40785"/>
</svg>
