<svg width="624" height="208" viewBox="0 0 624 208" fill="none" xmlns="http://www.w3.org/2000/svg">
<g filter="url(#filter0_i_3088_233)">
<path d="M1.7207 188.849L1.7207 29.7876C1.7207 29.7876 14.9089 29.8162 21.5033 27.7588C28.0976 25.7013 33.5448 19.2376 33.5448 19.2376L590.897 19.2376C590.897 19.2376 596.724 25.6987 602.938 27.7588C609.152 29.8188 622.721 29.7876 622.721 29.7876V188.849C622.721 188.849 609.152 189.224 602.938 191.284C596.724 193.344 590.897 199.399 590.897 199.399L321.388 199.399C321.388 199.399 315.011 207.371 310.626 207.371C306.242 207.371 299.864 199.399 299.864 199.399H33.5448C33.5448 199.399 27.7173 193.344 21.5033 191.284C15.2892 189.224 1.7207 188.849 1.7207 188.849Z" fill="#141511"/>
</g>
<path d="M0.0179757 173.822C-0.0268408 164.982 0.0210788 153.393 0.0868515 144.586C0.107251 141.825 0.198437 143.223 0.216624 141.318C0.252078 137.591 0.207357 134.119 0.249592 130.437C0.264035 129.216 0.408473 130.735 0.420311 129.456C0.484145 122.443 0.447355 115.809 0.478058 108.705C0.592403 82.2919 0.65133 56.2183 0.701654 29.7876L0.699432 28.7686L1.72291 28.7686C8.22975 28.673 15.0263 28.5096 21.2107 26.8212C22.9857 26.2698 24.686 25.3834 26.2861 24.3283C28.5799 22.808 30.8632 20.8332 32.8261 18.6319L33.1057 18.2986L33.5448 18.2977C43.083 18.341 53.4068 18.4051 62.5143 18.3618C63.9225 18.355 63.0829 18.2282 63.3508 18.2177C67.5531 18.0578 66.1559 18.3137 68.8996 18.3477C79.7895 18.482 91.899 18.4937 102.379 18.4447C106.838 18.4236 102.367 18.1717 106.857 18.3131C107.168 18.3226 106.037 18.4573 107.26 18.4716C110.033 18.5039 115.294 18.4799 117.443 18.4905C121.584 18.5118 122.27 18.5104 126.187 18.5119C131.543 18.5152 137.912 18.5821 143.658 18.5516C144.885 18.5447 143.261 18.4067 145.217 18.3832C147.175 18.3598 152.354 18.3715 154.1 18.404C155.846 18.4366 155.103 18.545 155.412 18.5699C157.954 18.7798 163.946 18.4891 164.716 18.4819C178.77 18.3594 190.823 18.525 204.015 18.5245C214.03 18.5238 224.739 18.4692 234.269 18.4767C245.622 18.4861 255.244 18.5609 266.274 18.5481C267.438 18.5469 266.074 18.3846 267.495 18.3828C282.6 18.3639 297.599 18.3816 312.638 18.4911C314.147 18.5023 312.203 18.6448 313.71 18.6644C322.935 18.7815 337.533 19.0627 343.012 18.4424C349.262 18.4667 356.849 18.4917 362.439 18.6167C366.044 18.6972 362.543 18.8524 366.971 18.7862C367.97 18.7714 366.671 18.6355 368.169 18.6237C374.474 18.5739 381.363 18.6181 387.601 18.5479C388.87 18.5332 388.524 18.4115 388.883 18.3895C391.905 18.2119 396.935 18.5055 398.031 18.5269C406.381 18.6859 412.478 18.6233 420.256 18.6272C422.061 18.6282 419.928 18.4646 421.665 18.4597C430.673 18.4362 440.004 18.4503 448.825 18.5229C450.787 18.5394 448.983 18.6788 449.92 18.6938C454.054 18.7584 454.971 18.4952 458.936 18.552C459.772 18.5637 459.301 18.683 459.453 18.6961C461.84 18.9018 463.913 18.6104 464.527 18.6039C472.291 18.516 477.253 18.8202 484.754 18.7772C485.651 18.7717 483.628 18.6207 486.15 18.6146C502.954 18.573 520.726 18.6144 537.359 18.7352C539.945 18.7537 538.099 18.8671 538.262 18.8811C540.914 19.0995 542.631 18.8069 543.474 18.7959C550.126 18.7165 556.341 18.9619 560.861 18.6134C570.889 18.6564 580.9 18.6593 590.897 18.6593L591.152 18.6588L591.326 18.8503C594.672 22.3376 598.595 25.6199 603.119 27.2122C609.357 28.9893 616.157 29.1104 622.719 29.256L623.251 29.2536L623.252 29.7876C623.224 36.2234 623.179 42.6534 623.107 49.0779C623.104 49.4332 622.96 48.7965 622.953 49.5052C622.872 58.0393 623.096 56.4004 623.37 62.0472C623.439 63.4697 623.108 67.7969 623.084 68.1798C622.995 69.5747 622.78 68.1279 622.763 68.595C622.627 72.4603 623.336 71.8304 623.336 77.0446C623.335 77.2078 623.205 76.5228 623.192 76.9604C623.151 78.3199 623.203 79.6682 623.158 80.9986C623.054 84.0437 622.709 85.1283 622.91 89.7792C622.936 90.3679 623.338 89.4689 623.319 94.1244C623.311 95.9803 623.318 104.195 623.292 106.498C623.266 108.798 623.136 107.219 623.131 107.383C622.959 113.579 622.888 111.229 622.635 114.334C622.382 117.438 622.985 116.577 623.052 117.842C623.119 119.11 622.978 123.653 622.929 124.769C622.879 125.885 622.797 124.493 622.769 125.485C622.587 132.064 623.068 128.373 623.164 130.541C623.391 135.651 622.944 139.632 622.9 144.311C622.888 145.576 622.99 144.543 622.999 145.671C623.036 150.135 622.896 152.82 623.024 157.9C623.045 158.731 623.314 162.837 623.116 165.495C623.088 165.871 622.977 164.802 622.952 166.704C622.914 169.547 622.89 174.668 622.927 177.724C622.955 179.98 623.138 177.394 623.081 180.233C623.056 181.495 622.948 179.156 622.909 181.527C622.884 183.081 622.877 186.227 622.877 188.849L622.877 189.001L622.725 189.005C621.381 189.047 620.155 189.113 619.373 189.158C617.096 189.298 618.345 189.364 618.165 189.384C617.053 189.49 612.691 189.94 612.309 190.001C609.147 190.362 605.988 190.768 603.071 191.685C598.503 193.269 594.565 196.35 591.157 199.65L591.051 199.76L590.897 199.76C580.04 199.705 569.337 199.646 558.296 199.691C556.799 199.697 557.796 199.844 557.568 199.846C552.443 199.907 556.483 199.517 552.903 199.386C553.421 199.684 551.308 199.63 547.698 199.663C545.958 199.679 546.906 199.794 546.747 199.806C544.167 199.982 542.371 199.755 541.908 199.709C540.2 199.538 538.34 199.74 537.178 199.626C536.016 199.513 538.69 199.345 535.228 199.347C534.257 199.454 536.827 199.733 534.199 199.778C524.281 199.949 505.769 199.73 497.794 199.708C489.836 199.685 487.266 199.705 482.628 199.666C474.252 199.596 477.322 199.803 472.121 199.898C466.904 199.992 469.44 199.483 468.69 199.374C467.954 199.265 467.15 199.377 466.235 199.317C465.322 199.257 467.298 199.183 465.152 199.16C463.004 199.138 457.132 199.332 456.371 199.447C454.762 199.689 457.408 199.943 451.725 199.854C451.398 199.849 452.459 199.715 451.207 199.701C441.267 199.598 430.941 199.592 421.014 199.501C419.649 199.488 420.869 199.339 420.075 199.33C411.8 199.235 414.758 199.486 410.223 199.765C411.241 199.394 408.733 199.166 402.453 199.164C398.678 199.163 399.328 199.325 396.887 199.439C396.154 199.474 393.483 199.362 392.999 199.439C391.403 199.688 393.919 199.967 387.444 199.856C387.16 199.85 388.064 199.714 387.083 199.706C380.738 199.652 379.979 199.912 373.121 199.944C367.745 199.969 358.184 199.81 352.063 199.784C352.191 199.367 346.41 199.462 344.065 199.75C340.092 199.738 335.801 199.754 331.962 199.714C330.641 199.701 331.509 199.58 331.342 199.567C328.787 199.362 327.06 199.642 326.202 199.653C324.549 199.672 322.95 199.681 321.388 199.684L321.611 199.577C318.482 203.078 315.46 206.9 310.626 207.635C308.072 207.508 306.066 205.885 304.125 204.336C303.892 204.127 303.259 204.03 301.733 202.163C301.641 202.036 303.768 204.091 300.887 201.024C300.505 200.598 300.084 200.112 299.651 199.57L299.864 199.673C295.483 199.637 288.933 199.537 283.929 199.653C282.527 199.685 278.981 199.92 276.135 199.737C275.756 199.712 276.171 199.628 275.624 199.582C273.854 199.435 272.888 199.728 270.809 199.479C268.729 199.23 264.404 199.044 258.562 199.215C258.376 199.22 256.993 199.453 255.155 199.449C252.223 199.443 248.059 199.394 244.997 199.396C243.53 199.397 244.469 199.541 244.214 199.544C234.355 199.624 227.339 199.496 216.777 199.44C214.841 199.43 209.277 199.626 205.529 199.471C201.413 199.301 205.643 198.593 196.183 198.761C192.367 198.829 187.537 199.727 180.68 199.262C167.381 199.377 155.083 199.139 141.748 199.303C141.148 199.311 139.252 199.561 137.842 199.558C135.749 199.552 134.6 199.435 133.106 199.427C126.843 199.392 121.113 199.492 115.075 199.477C112.783 199.471 113.584 199.35 110.85 199.343C108.118 199.337 106.296 199.496 102.593 199.419C99.7967 199.36 97.0007 199.034 93.2889 198.996C93.1474 199.318 90.5981 199.311 86.067 199.396C85.1961 199.413 86.13 199.525 85.718 199.538C84.0412 199.596 82.4894 199.503 80.8973 199.566C80.51 199.581 80.4917 199.691 80.1752 199.709C77.4828 199.871 73.0471 199.624 72.2853 199.581C69.3654 199.418 68.001 199.56 65.7615 199.496C63.5256 199.432 66.8687 199.351 64.2569 199.312C58.8431 199.232 51.8871 199.249 46.3888 199.244C44.1949 199.243 45.6917 199.39 45.3777 199.393C40.8412 199.43 36.2538 199.274 33.7384 199.566C33.6723 199.55 33.6078 199.535 33.5448 199.52L33.4935 199.521L33.4575 199.483C31.7757 197.009 31.6052 197.506 26.4842 193.82C26.0597 193.548 25.6939 192.873 27.3883 193.904C29.0737 194.948 31.3748 196.887 33.3892 198.742C33.4788 198.825 33.6283 198.953 33.8258 199.129L33.5448 199.009C34.7932 198.919 37.3958 198.687 37.8128 198.67C41.7573 198.512 42.3163 199.045 42.5251 199.074C44.8916 199.391 49.4018 199.03 50.5895 199.005C56.0229 198.891 60.6392 198.966 65.1837 198.885C68.156 198.832 68.4467 198.483 70.7807 198.493C78.5392 198.529 81.2475 199.016 88.5586 198.594C90.1262 198.503 88.5684 198.121 94.1856 198.422C94.5385 198.441 98.7091 198.715 101.119 198.542C101.421 198.52 101.412 198.408 101.811 198.399C104.485 198.339 106.269 198.427 109.183 198.385C112.097 198.342 115.6 198.279 118.927 198.317C120.931 198.339 123.504 198.547 124.463 198.598C127.173 198.744 130.079 198.504 131.757 198.681C133.45 198.859 130.141 199.129 134.58 199.245C134.744 198.955 135.122 198.658 135.386 198.368C145.115 198.378 154.687 198.471 164.449 198.459C165.659 198.457 164.421 198.301 165.718 198.295C171.192 198.27 175.973 198.381 181.649 198.337C186.042 198.302 190.86 198.138 195.455 198.096C198.261 198.427 205.078 198.315 210.031 198.345C211.766 198.356 211.65 198.444 212.883 198.473C217.538 198.579 215.357 198.287 216.633 198.241C222.107 198.045 222.576 198.707 229.03 198.69C229.372 198.69 233.552 198.337 234.128 198.315C237.786 198.171 234.733 198.438 237.023 198.464C241.202 198.511 244.107 198.595 249.011 198.492C250.441 198.462 253.871 198.242 256.648 198.412C257.013 198.434 256.811 198.551 257.105 198.557C262.428 198.671 262.568 198.305 265.609 198.181C268.651 198.057 273.349 198.31 274.306 198.383C276.807 198.571 272.389 198.463 272.253 198.482C270.662 198.702 274.089 198.664 276.707 198.683C277.086 199.042 280.747 199.02 279.421 198.7C279.27 198.665 277.233 198.699 276.707 198.683C279.005 198.33 283.029 198.285 287.473 198.614C289.554 198.769 287.587 198.949 293.907 198.883C296.775 198.853 295.667 198.606 298.198 198.538C298.739 198.524 299.296 198.513 299.864 198.505L300.296 198.506L300.563 198.84C303.203 201.802 306.821 206.071 310.626 206.545C311.677 206.548 312.828 205.995 313.806 205.378C315.505 204.22 313.778 205.247 314.912 204.416C317.08 202.72 318.936 200.843 320.642 198.802L320.931 198.443L321.388 198.444C322.381 198.446 323.39 198.443 324.433 198.429C324.79 198.424 323.918 198.283 325.143 198.281C334.434 198.264 342.525 198.355 352.225 198.358C356.912 198.359 365.292 198.281 370.148 198.296C378.563 198.323 388.915 198.529 396.104 198.479C400.793 198.447 399.764 198.305 401.773 198.208C405.65 198.021 412.513 198.357 413.437 198.409C413.465 198.41 409.43 198.444 411.583 198.516C412.835 198.668 413.391 198.409 413.437 198.409C414.044 198.442 422.103 198.474 423.704 198.447C424.574 198.432 424.087 198.298 424.54 198.293C435.318 198.173 446.114 198.138 457.045 198.201C457.237 198.204 456.948 198.354 457.4 198.359C463.728 198.426 467.78 198.242 472.999 198.133C478.218 198.024 482.356 198.06 485.445 198.318C489.382 198.286 495.031 198.4 498.282 198.469C501.532 198.538 501.986 198.246 502.272 198.24C511.193 198.055 516.35 198.222 525.605 198.248C530.005 198.261 538.733 198.219 543.497 198.187C547.262 198.161 549.53 198.229 553 198.186C553.469 198.18 552.995 198.049 553.138 198.044C557.01 197.889 555.149 198.207 555.949 198.264C558.847 198.471 560.638 198.581 565.596 198.484C566.74 198.461 570.071 198.003 572.156 197.976C574.866 197.942 573.843 198.106 576.682 198.066C576.924 198.063 576.874 197.962 578.625 197.966C582.586 197.976 586.721 197.995 590.897 198.01L589.896 198.436C593.181 195.226 596.786 192.409 601.037 190.545C602.186 190.084 600.632 190.501 602.33 189.873C602.372 189.859 602.414 189.845 602.456 189.831C609.102 187.887 616.069 187.614 622.679 187.349L621.22 188.849C621.229 187.52 621.24 186.211 621.252 184.928C621.271 183.051 621.384 184.228 621.417 183.82C621.62 181.32 621.326 177.773 621.32 177.188C621.179 163.231 621.445 152.548 621.318 138.322C621.311 137.548 620.996 131.587 621.266 128.928C621.284 128.746 621.56 126.115 621.371 123.788C621.359 123.644 621.217 125.283 621.232 122.422C621.246 119.561 621.151 114.956 621.307 111.024C621.357 109.779 621.632 106.836 621.413 103.122C621.397 102.88 620.9 97.1459 621.243 95.0994C621.3 94.7676 621.663 95.1149 621.477 90.682C621.44 89.8351 621.359 91.3726 621.309 89.1413C621.231 85.7227 621.328 81.193 621.167 76.9905C621.138 76.2576 620.892 73.1378 621.079 70.6352C621.108 70.2433 621.229 70.9879 621.243 69.6663C621.308 63.3817 621.227 56.801 621.31 50.42C621.34 48.1598 621.536 49.3153 621.588 46.9595C621.641 44.603 621.691 39.856 621.602 37.3905C621.512 34.9244 621.2 37.6183 621.175 33.924C621.166 32.5441 621.158 31.1654 621.153 29.7876L622.724 31.3552C615.957 31.2443 609.323 31.192 602.452 29.2257C597.293 27.3581 593.387 23.9669 589.803 20.2242L590.897 20.7107C587.887 20.6976 584.875 20.687 581.858 20.6819C579.48 20.6779 581.452 20.7897 577.946 20.7918C565.023 20.8001 542.711 20.9048 531.498 20.6675C522.513 20.4774 533.82 20.3326 526.954 20.2553C523.641 20.2184 520.056 20.5813 519.256 20.5927C511.443 20.7088 506.013 20.548 498.981 20.5973C497.529 20.6076 498.953 20.7547 497.717 20.7617C493.496 20.7873 489.059 20.7216 485.025 20.7336C483.215 20.7393 483.548 20.8517 481.883 20.843C477.899 20.8236 474.375 20.7763 470.491 20.671C470.137 20.6614 472.524 20.5217 469.576 20.5165C464.805 20.5085 458.882 20.4046 453.393 20.5119C451.764 20.5441 451.7 20.8009 448.199 20.6236C447.465 20.5865 448.402 20.2782 444.323 20.5446C443.638 20.5889 436.787 20.9482 433.424 20.7166C432.537 20.6556 430.274 20.4033 428.315 20.443C428.049 20.4493 429.113 20.5872 427.49 20.6007C421.77 20.6457 415.776 20.631 409.899 20.6742C408.33 20.686 410.667 20.8287 408.328 20.8418C401.897 20.8778 393.867 20.8415 387.577 20.7968C385.259 20.7801 386.861 20.6618 386.693 20.649C383.98 20.4397 382.375 20.7222 381.475 20.7386C375.874 20.8373 371.61 20.7046 366.447 20.7397C365.023 20.749 366.033 20.8837 365.749 20.8957C362.808 21.0131 364.999 20.7712 363.137 20.7445C357.922 20.669 352.108 20.6799 346.834 20.6971C344.897 20.7036 347.074 20.8598 345.335 20.8638C335.045 20.8907 324.348 20.8758 314.305 20.7897C312.414 20.7732 313.604 20.6529 313.21 20.6255C310.494 20.4333 306.513 20.6954 305.597 20.7204C301.432 20.8344 299.814 20.728 296.136 20.7479C278.169 20.8467 255.984 20.7763 239.023 20.7328C216.922 20.6768 199.772 20.5624 178.696 20.5921C177.357 20.5938 178.708 20.7538 177.553 20.7573C162.645 20.7959 147.968 20.7334 133.03 20.7796C131.804 20.7831 133.571 20.9348 131.604 20.9455C127.568 20.9686 122.456 20.9603 118.376 20.9119C116.385 20.8885 119.055 20.7584 117.052 20.7376C112.387 20.6888 107.387 20.678 102.596 20.7023C100.557 20.713 103.633 20.8681 100.983 20.8699C82.93 20.8853 65.2002 20.912 46.9571 20.7111C45.7065 20.6973 44.6091 20.3821 41.9499 20.4426C41.7496 20.53 41.7605 20.633 41.6731 20.7265C38.961 20.7317 36.2518 20.7352 33.5448 20.7372L34.6915 20.204C31.1733 24.0874 27.1471 27.4668 21.9495 29.1891C15.1172 31.0456 8.46163 31.1425 1.71752 31.2571L3.19017 29.7876C3.16803 41.6413 3.14142 53.5084 3.13377 65.4457C3.13309 66.5569 3.30012 64.6366 3.29966 66.7878C3.29719 79.2386 3.34346 91.329 3.17745 104.065C3.16121 105.328 2.86737 104.68 2.91181 108.404C2.91992 109.061 2.95911 114.669 3.02289 116.119C3.03252 116.316 3.16967 115.293 3.17367 117.1C3.19449 127.603 3.16318 138.609 3.07938 149.093C3.06559 150.785 2.91954 148.983 2.90845 150.189C2.83092 158.738 2.94195 168.036 2.80934 176.205C2.72005 181.673 2.46758 179.649 2.21906 182.555C2.184 182.966 2.17845 186.352 2.03385 186.527C1.67027 186.976 1.27214 185.336 0.884593 186.009C0.801119 186.151 0.891026 190.686 0.689305 188.001C0.675805 187.814 0.608855 184.526 0.540424 183.716C0.493112 183.152 0.346063 184.168 0.2855 183.018C0.224992 181.868 0.348257 180.604 0.2771 178.697C0.205063 176.791 0.037778 177.629 0.0179757 173.822ZM512.918 198.778C515.928 198.919 516.372 198.404 513.117 198.527C512.959 198.534 512.763 198.771 512.918 198.778ZM154.633 198.859C158.568 199.086 161.26 198.753 158.484 198.577C155.709 198.402 153.434 198.791 154.633 198.859ZM113.829 199.025C118.428 199.204 119.152 198.474 114.226 198.622C113.94 198.63 113.56 199.015 113.829 199.025ZM2.1483 169.08C2.14146 169.121 2.13481 171.555 2.14158 171.614C2.30498 172.91 2.31819 168.043 2.1483 169.08ZM73.3384 199.205C74.774 199.304 78.9078 199.19 77.1239 199.067C75.6879 198.969 71.5505 199.083 73.3384 199.205ZM622.649 144.437C622.656 144.389 622.663 142.644 622.62 142.68C622.48 142.798 622.52 145.226 622.649 144.437ZM7.31663 188.956C17.504 189.755 23.3756 191.755 12.5035 189.986C10.5183 189.733 16.8035 190.33 14.2853 189.954C9.66009 189.28 6.54773 189.449 1.79275 189.058C0.930678 188.97 6.73564 188.884 7.33464 188.957C7.32863 188.957 7.32263 188.956 7.31663 188.956ZM514.652 199.396C514.712 199.403 517.127 199.409 517.185 199.403C518.493 199.239 513.627 199.226 514.652 199.396ZM622.967 42.6143C622.981 42.481 622.995 36.8752 622.981 36.6924C622.714 33.768 622.686 45.1014 622.967 42.6143ZM351.966 199.773C349.331 199.937 346.178 199.956 344.077 199.75C346.696 199.761 349.333 199.763 351.966 199.773Z" fill="#AD8253"/>
<ellipse cx="311.721" cy="19.7383" rx="25" ry="19.5" fill="#151612"/>
<path d="M337.485 21.1458C337.44 21.9725 337.231 23.0472 336.988 23.8332C336.912 24.08 336.903 23.9424 336.848 24.1111C336.738 24.44 336.662 24.755 336.53 25.0716C336.486 25.1763 336.467 25.0204 336.422 25.1301C336.177 25.7307 335.958 26.3022 335.66 26.8856C334.185 29.7552 332.032 32.1526 329.461 34.0722C328.61 34.7113 327.504 35.3607 326.566 35.9181C326.457 35.9833 326.553 35.9997 326.534 36.016C326.239 36.2689 326.289 36.0988 326.063 36.2025C325.167 36.6108 324.172 37.0649 323.305 37.4372C322.935 37.5954 323.356 37.5608 322.952 37.6449C322.924 37.6508 322.996 37.5531 322.891 37.5864C322.649 37.6634 322.213 37.8347 322.026 37.8931C321.67 38.0053 321.61 38.0258 321.276 38.1325C320.817 38.2775 320.256 38.4073 319.761 38.5515C319.655 38.5826 319.814 38.6106 319.645 38.6658C319.477 38.7218 319.021 38.8263 318.865 38.8449C318.708 38.8644 318.762 38.7982 318.732 38.7927C318.489 38.7446 317.987 38.9916 317.921 39.0071C316.689 39.3076 315.599 39.3728 314.417 39.4728C313.529 39.5474 312.577 39.6109 311.721 39.607C311.714 39.607 311.707 39.6069 311.699 39.6069C310.674 39.6 309.813 39.5244 308.825 39.4443C308.721 39.4355 308.836 39.5249 308.708 39.514C307.354 39.398 306.012 39.1791 304.703 38.8302C304.572 38.7951 304.757 38.7663 304.627 38.7271C303.829 38.4942 302.616 38.0041 302.058 38.1335C301.525 37.9502 300.888 37.709 300.439 37.4676C300.151 37.3123 300.471 37.3591 300.091 37.2407C300.006 37.2135 300.089 37.3186 299.962 37.273C299.429 37.0802 298.872 36.8071 298.352 36.5911C298.246 36.5472 298.248 36.6138 298.214 36.609C297.929 36.5657 297.593 36.2308 297.51 36.1745C296.881 35.7513 296.395 35.5018 295.804 35.127C295.668 35.0397 295.786 35.2095 295.654 35.1275C294.96 34.6969 294.277 34.2007 293.675 33.6781C293.541 33.5611 293.711 33.6102 293.649 33.5516C293.379 33.2937 293.235 33.3392 292.981 33.0864C292.927 33.0326 292.998 33.0167 292.991 33.0029C292.893 32.7869 292.661 32.7684 292.618 32.7334C292.071 32.2955 291.852 31.8739 291.375 31.4003C291.318 31.3429 291.389 31.5267 291.231 31.3618C290.183 30.2656 289.234 28.9468 288.56 27.6052C288.455 27.3972 288.583 27.5162 288.582 27.5001C288.561 27.2415 288.365 27.1708 288.325 27.1053C288.015 26.5887 287.899 26.0295 287.59 25.7155C286.866 23.8036 286.412 21.7763 286.469 19.7383C286.483 19.2351 286.527 18.7412 286.605 18.247C286.609 18.2153 286.673 18.2789 286.683 18.216C286.805 17.462 286.684 17.5955 286.634 17.0685C286.622 16.9343 286.854 16.5805 286.873 16.5502C286.942 16.4364 287.016 16.585 287.033 16.5457C287.171 16.2241 286.821 16.2023 286.937 15.7431C286.942 15.729 286.987 15.8048 287.003 15.7682C287.053 15.6546 287.061 15.5305 287.115 15.4211C287.241 15.1706 287.425 15.1286 287.465 14.7043C287.471 14.6505 287.256 14.6637 287.408 14.2696C287.465 14.1113 287.74 13.4205 287.84 13.237C287.937 13.0522 287.936 13.2085 287.944 13.196C288.253 12.7236 288.196 12.9317 288.427 12.737C288.659 12.5461 288.365 12.4825 288.388 12.3662C288.411 12.249 288.665 11.9224 288.736 11.8485C288.806 11.7736 288.779 11.9012 288.835 11.831C289.204 11.3686 288.839 11.535 288.898 11.3434C289.044 10.8904 289.422 10.708 289.679 10.3771C289.748 10.2881 289.655 10.335 289.709 10.2501C289.926 9.91501 290.125 9.7608 290.358 9.36717C290.395 9.30316 290.527 8.93322 290.757 8.81292C290.789 8.79619 290.768 8.90409 290.888 8.78237C291.067 8.60176 291.382 8.2713 291.559 8.06067C291.689 7.90519 291.465 8.01051 291.661 7.84713C291.748 7.77509 291.64 7.96057 291.801 7.82272C291.96 7.68544 292.347 7.30603 292.495 7.16771C292.643 7.02784 292.516 7.05406 292.525 7.03953C292.58 6.9521 292.852 6.66442 292.879 6.64181C294.202 5.47301 295.602 4.64404 297.067 3.77544C297.183 3.70763 297.07 3.68901 297.087 3.67802C297.476 3.42971 297.249 3.76974 297.56 3.67297C297.451 3.56825 297.631 3.4991 297.909 3.33831C298.043 3.26063 297.942 3.24941 297.952 3.23785C298.12 3.05711 298.314 3.08415 298.361 3.08611C298.534 3.09293 298.643 2.93269 298.76 2.93853C298.877 2.94431 298.697 3.11806 298.974 2.98745C299.031 2.90429 298.766 2.8779 298.97 2.75966C299.743 2.29959 301.329 1.80603 302.015 1.60505C302.692 1.39785 302.917 1.32653 303.318 1.23297C304.048 1.07063 303.758 1.04549 304.201 0.887215C304.644 0.733814 304.48 1.02722 304.557 1.06324C304.632 1.10005 304.69 1.03093 304.775 1.04145C304.861 1.05213 304.698 1.12556 304.886 1.09473C305.073 1.06304 305.567 0.865487 305.622 0.799393C305.74 0.657377 305.484 0.578972 305.992 0.528798C306.021 0.52612 305.94 0.606795 306.051 0.593336C306.937 0.484265 307.849 0.364132 308.733 0.326772C308.855 0.321778 308.753 0.403525 308.824 0.401509C309.563 0.385344 309.288 0.287366 309.683 0.124776C309.605 0.310769 309.833 0.402164 310.391 0.37935C310.725 0.367169 310.664 0.291302 310.879 0.229813C310.944 0.211212 311.183 0.260392 311.225 0.223039C311.366 0.101105 311.138 -0.0340878 311.721 0.0171953C311.721 0.0172175 311.721 0.0172397 311.721 0.017262C311.73 0.0181643 311.726 0.026958 311.721 0.0381437C311.714 0.0528584 311.704 0.0717127 311.721 0.0821784C311.727 0.086327 311.738 0.089159 311.754 0.0899103C312.323 0.119166 312.393 -0.00641899 313.006 -0.000351444C313.493 0.00441106 314.338 0.137205 314.884 0.205769C314.854 0.405175 315.367 0.411679 315.592 0.299669C315.946 0.347946 316.327 0.392889 316.662 0.464605C316.777 0.48927 316.692 0.535138 316.705 0.543674C316.914 0.677031 317.089 0.569597 317.166 0.577375C317.993 0.668968 318.634 0.910487 319.426 1.00436C319.454 1.0078 319.534 0.882448 319.714 1.03525C319.725 1.0456 319.456 1.04103 319.815 1.14045C320.174 1.23911 320.83 1.50625 321.339 1.60456C321.461 1.62724 321.802 1.62022 322.013 1.78898C322.041 1.81162 321.992 1.83732 322.031 1.87467C322.156 1.99447 322.285 1.8901 322.417 2.06712C322.547 2.24379 322.877 2.46271 323.384 2.58266C323.401 2.58679 323.556 2.5292 323.707 2.59531C323.947 2.7007 324.277 2.87297 324.522 2.98719C324.64 3.04182 324.595 2.9434 324.616 2.9518C325.429 3.29374 325.959 3.63904 326.755 4.13416C326.902 4.22523 327.378 4.40158 327.616 4.64563C327.878 4.91571 327.383 4.9923 328.115 5.39051C328.403 5.5503 329.018 5.4525 329.36 6.00432C330.327 6.69046 331.059 7.50998 331.923 8.31721C331.962 8.35357 332.166 8.39557 332.249 8.49046C332.372 8.63122 332.396 8.74521 332.48 8.8481C332.832 9.28304 333.186 9.65038 333.498 10.0911C333.616 10.258 333.527 10.2341 333.664 10.4339C333.799 10.635 333.956 10.7268 334.103 11.0241C334.213 11.2488 334.209 11.5426 334.356 11.8338C334.497 11.7671 334.609 11.9617 334.835 12.2986C334.878 12.3635 334.887 12.2645 334.91 12.294C335.005 12.4139 335.028 12.5578 335.119 12.6715C335.14 12.6993 335.189 12.6772 335.209 12.6987C335.388 12.8807 335.444 13.2956 335.451 13.3657C335.483 13.6362 335.593 13.7214 335.639 13.9185C335.683 14.1154 335.538 13.8528 335.605 14.0758C335.745 14.5372 335.948 15.1174 336.075 15.5879C336.126 15.7753 336.16 15.6289 336.168 15.6552C336.293 16.0407 336.308 16.4535 336.49 16.6454C336.185 16.9913 336.578 16.876 336.596 17.4627C336.597 17.509 336.434 17.5899 336.383 17.4229C336.332 17.2563 336.342 16.9891 336.256 16.7618C336.236 16.7068 336.01 16.4248 335.99 16.3854C335.839 16.07 336.074 15.9606 336.084 15.9387C336.182 15.6971 335.903 15.359 335.86 15.2646C335.668 14.8247 335.566 14.4325 335.382 14.0754C335.262 13.8427 335.096 13.8852 335.021 13.6975C334.767 13.0776 334.871 12.7564 334.389 12.2895C334.284 12.1914 334.192 12.3987 334.076 11.9059C334.07 11.8757 333.997 11.4926 333.814 11.3614C333.791 11.3448 333.746 11.3744 333.723 11.3477C333.575 11.1688 333.525 11.0162 333.365 10.8187C333.205 10.6216 333.005 10.3955 332.845 10.1545C332.749 10.0091 332.691 9.77182 332.658 9.69127C332.566 9.4621 332.313 9.34131 332.283 9.1742C332.252 9.00508 332.543 9.14102 332.327 8.80764C332.212 8.88896 332.082 8.95898 331.962 9.03503C331.408 8.3999 330.847 7.77568 330.209 7.21691C330.129 7.14757 330.16 7.27544 330.074 7.20292C329.707 6.89764 329.423 6.59343 329.018 6.30589C328.708 6.08647 328.32 5.90038 327.983 5.69139C327.877 5.42079 327.348 5.13212 326.991 4.89589C326.865 4.8122 326.896 4.78108 326.811 4.71308C326.488 4.45869 326.579 4.6792 326.472 4.64141C326.013 4.48513 326.138 4.1859 325.633 3.92241C325.605 3.90715 325.203 3.89044 325.154 3.8779C324.838 3.79592 325.134 3.80076 324.961 3.69977C324.643 3.51647 324.43 3.36898 324.019 3.23806C323.899 3.19991 323.581 3.17617 323.389 3.00655C323.364 2.98429 323.402 2.939 323.38 2.92604C322.971 2.69666 322.892 2.85839 322.623 2.81756C322.353 2.77641 322.015 2.52253 321.947 2.4613C321.771 2.30184 322.118 2.48084 322.131 2.47692C322.299 2.42451 322.011 2.33819 321.796 2.25419C321.823 2.07849 321.511 1.98361 321.573 2.16825C321.58 2.18844 321.755 2.23131 321.796 2.25419C321.549 2.34864 321.211 2.25691 320.888 1.98907C320.735 1.86421 320.928 1.82877 320.382 1.70087C320.134 1.64422 320.196 1.7867 319.974 1.75852C319.468 1.69471 318.854 1.42798 318.339 1.33536C318.151 1.30164 318.319 1.4046 318.19 1.38402C317.848 1.32991 317.563 1.22436 317.218 1.18838C317.187 1.18526 317.25 1.26616 317.144 1.24837C316.342 1.11665 315.645 0.976432 314.803 0.891912C314.392 0.849419 313.661 0.834263 313.235 0.808365C312.76 0.777293 312.222 0.719686 311.721 0.695933C311.444 0.682606 311.184 0.679193 310.96 0.693154C310.55 0.719543 310.642 0.786654 310.469 0.839625C310.133 0.94189 309.527 0.81745 309.444 0.799223C309.441 0.798176 309.793 0.758712 309.602 0.735916C309.488 0.669908 309.448 0.798655 309.444 0.799223C309.392 0.784742 308.683 0.828364 308.545 0.857626C308.47 0.872419 308.519 0.932882 308.48 0.939406C307.55 1.09345 306.619 1.24835 305.68 1.40271C305.663 1.40467 305.674 1.32835 305.635 1.33387C305.083 1.41133 304.757 1.57721 304.329 1.73633C303.898 1.89705 303.549 1.975 303.257 1.92868C302.928 2.03811 302.441 2.13127 302.162 2.18864C301.88 2.24648 301.888 2.39467 301.865 2.40514C301.161 2.74428 300.712 2.82827 299.965 3.12938C299.606 3.27316 298.927 3.60748 298.562 3.80943C298.273 3.96722 298.087 4.02675 297.828 4.18935C297.793 4.21125 297.86 4.24721 297.85 4.25527C297.59 4.48198 297.659 4.26976 297.584 4.27896C297.314 4.314 297.152 4.3421 296.801 4.6045C296.72 4.66517 296.587 5.00536 296.442 5.11175C296.253 5.2505 296.286 5.13507 296.089 5.28508C296.072 5.29798 296.102 5.33652 295.974 5.41816C295.382 5.79674 294.744 6.22351 294.178 6.68643C294.1 6.74952 294.249 6.72972 294.138 6.82181C293.623 7.25235 293.072 7.74147 292.58 8.1786C292.459 8.28572 292.492 8.17586 292.456 8.18911C292.233 8.27246 292.124 8.59189 292.091 8.63084C291.324 9.54961 290.644 10.1894 290.019 11.2413C289.983 11.2994 289.841 11.8067 289.615 11.9365C289.6 11.9449 289.369 12.073 289.352 12.2921C289.351 12.3056 289.479 12.2171 289.355 12.4268C289.231 12.6376 289.091 13.0063 288.88 13.2761C288.814 13.3608 288.584 13.5366 288.558 13.8718C288.554 13.8952 288.595 14.4336 288.381 14.5378C288.346 14.5547 288.188 14.4655 288.147 14.8544C288.141 14.9285 288.22 14.8172 288.182 15.005C288.125 15.2921 287.967 15.6483 287.953 16.0136C287.95 16.0778 288.002 16.3599 287.868 16.5457C287.847 16.575 287.803 16.5005 287.773 16.6087C287.628 17.124 287.578 17.6837 287.482 18.2165C287.449 18.4063 287.364 18.299 287.321 18.4983C287.277 18.6987 287.23 19.1039 287.269 19.3174C287.307 19.53 287.462 19.3032 287.47 19.6173C287.471 19.6576 287.473 19.698 287.474 19.7383C287.517 21.054 287.61 22.3662 287.948 23.6488C288 23.844 288.006 23.6686 288.09 23.9534C288.382 25.0141 289.215 26.7151 289.627 27.5846C289.95 28.2918 289.382 27.4983 289.661 28.0225C289.798 28.2755 290.117 28.4354 290.16 28.4884C290.584 29.0082 290.806 29.4267 291.208 29.8784C291.291 29.9713 291.268 29.8316 291.338 29.9109C291.581 30.182 291.808 30.4845 292.05 30.7346C292.159 30.8461 292.179 30.7882 292.274 30.894C292.503 31.1451 292.702 31.3737 292.911 31.6417C292.93 31.6661 292.734 31.5738 292.917 31.75C293.212 32.033 293.568 32.4146 293.966 32.6744C294.086 32.7517 294.166 32.6589 294.35 32.9146C294.389 32.9674 294.234 33.038 294.591 33.1504C294.651 33.171 295.227 33.3846 295.4 33.6408C295.445 33.7087 295.536 33.921 295.689 34.0004C295.709 34.0107 295.67 33.9039 295.791 33.977C296.216 34.2366 296.648 34.5154 297.101 34.7558C297.221 34.819 297.082 34.6583 297.259 34.7535C297.745 35.0157 298.35 35.3559 298.831 35.6125C299.008 35.7076 298.858 35.6985 298.869 35.7105C299.039 35.9051 299.222 35.8389 299.296 35.8644C299.754 36.023 300.071 36.2294 300.49 36.3812C300.606 36.4232 300.549 36.3299 300.574 36.3337C300.831 36.3752 300.612 36.4139 300.757 36.4853C301.168 36.6862 301.639 36.8521 302.079 36.9904C302.24 37.0409 302.084 36.9092 302.228 36.955C303.074 37.2214 303.967 37.4767 304.806 37.7118C304.964 37.7561 304.851 37.79 304.881 37.8105C305.091 37.9541 305.458 37.9013 305.539 37.9049C305.904 37.9221 306.031 37.9979 306.348 38.0443C307.891 38.2744 309.809 38.4776 311.285 38.511C311.432 38.5151 311.577 38.5183 311.721 38.5206C313.439 38.5435 314.85 38.482 316.525 38.2148C316.639 38.1961 316.512 38.1376 316.61 38.1204C317.887 37.8988 319.139 37.6487 320.375 37.2601C320.477 37.2281 320.309 37.2015 320.471 37.1477C320.803 37.0366 321.221 36.9061 321.564 36.8119C321.731 36.7661 321.533 36.9016 321.7 36.854C322.09 36.743 322.498 36.5957 322.88 36.4296C323.042 36.3588 322.767 36.3888 322.979 36.302C324.422 35.705 325.779 34.9993 327.159 34.235C327.252 34.1832 327.417 34.2593 327.594 34.1069C327.585 34.0619 327.557 34.021 327.538 33.9791C329.408 32.7046 331.138 31.234 332.539 29.4574C332.598 29.3826 332.433 29.4628 332.546 29.3172C333.197 28.4744 333.738 27.5971 334.306 26.6699C334.362 26.5774 334.465 26.6921 334.587 26.3953C334.61 26.3439 334.796 25.8986 334.815 25.7718C334.818 25.7546 334.722 25.808 334.781 25.666C335.126 24.8408 335.435 23.9565 335.677 23.0957C335.715 22.9566 335.75 23.1223 335.778 23.023C335.978 22.3146 336.04 21.5191 336.154 20.8243C336.228 20.3581 336.338 20.5392 336.469 20.2907C336.488 20.2556 336.498 19.9586 336.568 19.9438C336.744 19.9055 336.935 20.0562 337.124 19.9986C337.165 19.9865 337.123 19.5691 337.22 19.8166C337.227 19.8339 337.255 20.1374 337.285 20.2131C337.307 20.2659 337.381 20.1739 337.407 20.2816C337.432 20.3897 337.368 20.5043 337.392 20.6823C337.416 20.8604 337.504 20.7889 337.485 21.1458ZM300.9 2.47617C300.627 2.50783 300.681 2.75419 300.927 2.59602C300.939 2.58813 300.914 2.47442 300.9 2.47617ZM330.971 7.65699C330.795 7.33586 330.512 7.29785 330.632 7.52404C330.75 7.74944 331.024 7.75452 330.971 7.65699ZM333.386 10.3087C333.216 9.92923 332.896 10.0917 333.207 10.3948C333.225 10.4126 333.395 10.3308 333.386 10.3087ZM336.415 21.4705C336.419 21.4674 336.445 21.2555 336.442 21.25C336.375 21.1297 336.324 21.5512 336.415 21.4705ZM335.247 13.3538C335.24 13.2173 335.033 12.9096 335.047 13.0776C335.058 13.2117 335.257 13.522 335.247 13.3538ZM289.785 10.4376C289.779 10.4385 289.688 10.5647 289.707 10.574C289.769 10.6032 289.876 10.4161 289.785 10.4376ZM336.623 19.2422C336.6 18.3508 336.822 17.7618 336.873 18.7616C336.879 18.9414 336.753 18.3806 336.743 18.6111C336.724 19.0285 336.918 19.2989 336.821 19.7304C336.804 19.8065 336.625 19.2916 336.622 19.2406C336.623 19.2412 336.623 19.2417 336.623 19.2422ZM300.649 2.25163C300.643 2.25032 300.441 2.32577 300.438 2.33087C300.358 2.44682 300.763 2.29518 300.649 2.25163ZM286.628 18.8317C286.618 18.8427 286.591 19.3443 286.599 19.3613C286.718 19.6239 286.772 18.6187 286.628 18.8317ZM314.892 0.211975C315.135 0.155621 315.416 0.177548 315.591 0.299439C315.359 0.266176 315.126 0.239896 314.892 0.211975Z" fill="#AD8253"/>
<path d="M301.721 29.995V27.9804H322.165V29.995H301.721ZM306.64 25.563C305.277 25.563 304.117 25.1132 303.158 24.2135C302.2 23.3136 301.721 22.219 301.721 20.9297V8.23828H322.591C323.177 8.23828 323.678 8.4355 324.095 8.82994C324.512 9.22459 324.721 9.6989 324.721 10.2529V14.6846C324.721 15.2386 324.512 15.7129 324.095 16.1076C323.678 16.502 323.177 16.6992 322.591 16.6992H319.695V20.9297C319.695 22.219 319.216 23.3136 318.257 24.2135C317.299 25.1132 316.138 25.563 314.775 25.563H306.64ZM306.64 23.5487H314.775C315.521 23.5487 316.172 23.2851 316.729 22.7579C317.286 22.2307 317.565 21.6213 317.565 20.9297V10.2529H303.85V20.9297C303.85 21.6213 304.133 22.2307 304.697 22.7579C305.261 23.2851 305.909 23.5487 306.64 23.5487ZM319.695 14.6846H322.591V10.2529H319.695V14.6846ZM306.64 23.5487H303.85H317.565H306.64Z" fill="#C4AE95"/>
<defs>
<filter id="filter0_i_3088_233" x="0" y="18.1641" width="623.379" height="189.473" filterUnits="userSpaceOnUse" color-interpolation-filters="sRGB">
<feFlood flood-opacity="0" result="BackgroundImageFix"/>
<feBlend mode="normal" in="SourceGraphic" in2="BackgroundImageFix" result="shape"/>
<feColorMatrix in="SourceAlpha" type="matrix" values="0 0 0 0 0 0 0 0 0 0 0 0 0 0 0 0 0 0 127 0" result="hardAlpha"/>
<feOffset/>
<feGaussianBlur stdDeviation="8.60111"/>
<feComposite in2="hardAlpha" operator="arithmetic" k2="-1" k3="1"/>
<feColorMatrix type="matrix" values="0 0 0 0 0.678431 0 0 0 0 0.509804 0 0 0 0 0.32549 0 0 0 0.25 0"/>
<feBlend mode="normal" in2="shape" result="effect1_innerShadow_3088_233"/>
</filter>
</defs>
</svg>
