<svg width="167" height="162" viewBox="0 0 167 162" fill="none" xmlns="http://www.w3.org/2000/svg">
<path d="M71.1025 7.73633C78.5791 3.44771 87.7695 3.44773 95.2461 7.73633L107.525 14.7793C109.566 15.9496 111.757 16.8346 114.038 17.4082L127.548 20.8047C136.104 22.956 142.818 29.5824 145.082 38.1094L148.429 50.7168C149.056 53.0781 150.016 55.338 151.281 57.4277L157.915 68.3818C162.593 76.1072 162.593 85.7922 157.915 93.5176L151.281 104.472C150.016 106.561 149.056 108.821 148.429 111.183L145.082 123.79C142.818 132.317 136.104 138.943 127.548 141.095L114.038 144.492C111.757 145.066 109.566 145.95 107.525 147.12L95.2461 154.164C87.7696 158.453 78.579 158.453 71.1025 154.164L58.8232 147.12C56.7831 145.95 54.5915 145.066 52.3105 144.492L38.8008 141.095C30.2447 138.943 23.5301 132.317 21.2666 123.79L17.9199 111.183C17.2931 108.821 16.3328 106.561 15.0674 104.472L8.43359 93.5176C3.75534 85.7922 3.7553 76.1072 8.43359 68.3818L15.0674 57.4277C16.3329 55.338 17.2931 53.0781 17.9199 50.7168L21.2666 38.1094C23.5302 29.5823 30.2447 22.956 38.8008 20.8047L52.3105 17.4082C54.5916 16.8346 56.783 15.9496 58.8232 14.7793L71.1025 7.73633Z" fill="#877765" stroke="#621B14" stroke-width="1.40783"/>
<path d="M71.0488 13.1533C78.5528 8.82342 87.7968 8.82342 95.3008 13.1533L105.538 19.0605C107.584 20.2408 109.783 21.1328 112.072 21.7119L123.351 24.5645C131.904 26.7279 138.609 33.3647 140.86 41.8955L143.662 52.5127C144.283 54.8652 145.235 57.1177 146.49 59.2021L152.053 68.4434C156.687 76.142 156.687 85.7712 152.053 93.4697L146.49 102.711C145.235 104.795 144.283 107.048 143.662 109.4L140.86 120.018C138.609 128.548 131.904 135.184 123.351 137.348L112.072 140.2C109.783 140.779 107.584 141.672 105.538 142.853L95.3008 148.76C87.7968 153.09 78.5528 153.09 71.0488 148.76L60.8115 142.853C58.7658 141.672 56.5671 140.779 54.2773 140.2L42.999 137.348C34.4456 135.184 27.7406 128.548 25.4893 120.018L22.6875 109.4C22.0667 107.048 21.1143 104.795 19.8594 102.711L14.2959 93.4697C9.66151 85.7713 9.66161 76.1418 14.2959 68.4434L19.8594 59.2021C21.1143 57.1177 22.0666 54.8652 22.6875 52.5127L25.4893 41.8955C27.7405 33.3647 34.4455 26.7279 42.999 24.5645L54.2773 21.7119C56.567 21.1328 58.7659 20.2409 60.8115 19.0605L71.0488 13.1533Z" stroke="#621B14" stroke-width="1.40783"/>
</svg>
