<svg width="257" height="349" viewBox="0 0 257 349" fill="none" xmlns="http://www.w3.org/2000/svg">
<g filter="url(#filter0_i_3088_184)">
<path d="M15.4797 15.6602L244.687 15.6602C244.687 15.6602 244.531 23.6291 247.443 27.1545C250.355 30.68 255.545 32.674 255.545 32.674L255.545 330.646C255.545 330.646 246.4 333.762 243.484 337.084C240.569 340.406 240.613 347.66 240.613 347.66L15.4797 347.66C15.4797 347.66 14.9495 340.406 12.0338 337.084C9.11813 333.762 0.547465 330.646 0.547465 330.646L0.547465 186.561C0.547465 186.561 0.547465 186.561 0.544922 180.555C0.547465 175.054 0.547465 175.054 0.547465 175.054L0.547465 32.674C0.547465 32.674 9.11813 29.5585 12.0338 26.2363C14.9495 22.9142 15.4797 15.6602 15.4797 15.6602Z" fill="#141511"/>
</g>
<path d="M26.3974 13.9574C32.8205 13.9126 41.24 13.9605 47.6388 14.0263C49.6441 14.0467 48.6287 14.1379 50.013 14.1561C52.7205 14.1915 55.2428 14.1468 57.9184 14.189C58.8051 14.2035 57.7013 14.3479 58.6311 14.3598C63.726 14.4236 68.546 14.3868 73.7073 14.4175C99.1299 14.569 124.12 14.6232 149.853 14.689C158.338 14.7106 168.653 14.8417 177.417 14.7844C178.44 14.7775 177.83 14.6508 178.025 14.6403C181.078 14.4803 180.063 14.7363 182.056 14.7703C189.968 14.9046 198.766 14.9162 206.38 14.8673C209.62 14.8461 206.372 14.5943 209.633 14.7356C209.86 14.7452 209.038 14.8798 209.926 14.8942C211.941 14.9265 215.763 14.9024 217.325 14.9131C220.334 14.9343 220.831 14.933 223.678 14.9345C227.569 14.9378 232.196 15.0047 236.371 14.9742C237.262 14.9673 236.082 14.8293 237.503 14.8058C238.926 14.7823 242.689 14.794 243.957 14.8266C244.345 14.8365 244.564 14.8536 244.687 14.8731L245.487 14.8707L245.474 15.6755C245.427 15.9215 245.371 15.7299 245.353 15.8805C245.072 17.7073 245.956 21.9299 246.165 22.4126C246.57 24.0049 247.141 25.5399 248.056 26.6481C250.119 29.0583 253.002 30.7384 255.824 31.948L256.321 32.1373L256.323 32.674C256.297 37.1953 256.258 41.6509 256.258 46.3015C256.259 53.5779 256.313 61.3582 256.306 68.2818C256.296 76.5303 256.222 83.5212 256.234 91.5344C256.236 92.3801 256.398 91.3891 256.4 92.422C256.419 103.396 256.401 114.293 256.291 125.22C256.28 126.316 256.138 124.903 256.118 125.998C256.001 132.701 255.72 143.306 256.34 147.287C256.316 151.828 256.291 157.34 256.166 161.402C256.085 164.021 255.93 161.477 255.996 164.694C256.011 165.42 256.147 164.476 256.159 165.564C256.209 170.146 256.164 175.151 256.235 179.683C256.249 180.605 256.371 180.353 256.393 180.614C256.571 182.809 256.277 186.464 256.256 187.26C256.097 193.326 256.159 197.757 256.155 203.408C256.154 204.719 256.318 203.169 256.323 204.431C256.346 210.976 256.332 217.755 256.26 224.164C256.243 225.589 256.104 224.278 256.089 224.96C256.024 227.963 256.287 228.629 256.23 231.509C256.219 232.117 256.1 231.775 256.086 231.885C255.881 233.619 256.172 235.126 256.179 235.571C256.267 241.212 255.962 244.818 256.005 250.267C256.011 250.919 256.162 249.449 256.168 251.282C256.21 263.49 256.168 276.402 256.047 288.487C256.029 290.366 255.915 289.024 255.901 289.143C255.683 291.07 255.976 292.317 255.987 292.929C256.066 297.762 255.821 302.277 256.169 305.561C256.12 313.938 256.123 322.299 256.123 330.646L256.124 331.059L255.731 331.194C251.539 332.764 246.996 334.443 243.909 337.457C241.735 340.142 241.264 344.1 241.125 347.657L241.129 348.171L240.613 348.172C236.901 348.144 233.191 348.104 229.484 348.047C229.226 348.043 229.689 347.899 229.174 347.893C222.973 347.812 224.164 348.036 220.062 348.31C219.028 348.378 215.884 348.048 215.606 348.023C214.593 347.934 215.644 347.72 215.304 347.702C212.496 347.566 212.954 348.276 209.165 348.276C209.047 348.275 209.544 348.144 209.227 348.131C208.239 348.09 207.259 348.142 206.293 348.097C204.08 347.993 203.292 347.649 199.913 347.849C199.486 347.875 200.139 348.278 196.756 348.259C195.408 348.251 189.439 348.258 187.767 348.231C186.096 348.205 187.243 348.076 187.124 348.07C182.622 347.899 184.329 347.828 182.074 347.574C179.819 347.321 180.444 347.924 179.525 347.991C178.604 348.059 175.303 347.917 174.492 347.868C173.681 347.819 174.692 347.736 173.972 347.709C169.192 347.527 171.874 348.008 170.299 348.104C166.586 348.33 163.694 347.883 160.295 347.839C159.375 347.827 160.125 347.929 159.306 347.939C156.063 347.975 154.112 347.836 150.422 347.964C149.818 347.984 146.835 348.253 144.904 348.056C144.63 348.027 145.407 347.916 144.025 347.891C141.96 347.854 138.239 347.829 136.019 347.867C134.38 347.894 136.258 348.078 134.195 348.021C133.279 347.995 134.978 347.888 133.255 347.849C131.542 347.81 127.161 347.815 125.494 347.818C123.83 347.822 124.741 347.962 124.607 347.971C123.793 348.025 120.6 348.092 120.317 348.092C106.083 348.109 92.9571 347.874 79.0983 347.952C78.0108 347.957 78.7352 348.104 78.5693 348.107C74.846 348.168 77.7816 347.778 75.1806 347.647C75.5565 347.945 74.0212 347.891 71.3984 347.924C70.1346 347.94 70.8229 348.055 70.7076 348.067C68.8334 348.242 67.5283 348.016 67.1922 347.97C65.9509 347.799 64.6001 348.001 63.7554 347.887C62.9113 347.774 64.8541 347.606 62.3388 347.608C61.6334 347.715 63.5008 347.994 61.5911 348.039C54.3857 348.21 40.9356 347.991 35.1422 347.968C29.3603 347.946 27.4928 347.965 24.1236 347.927C18.0379 347.857 20.2681 348.064 16.4893 348.159C16.0948 348.168 15.7613 348.172 15.4797 348.17L15.0076 348.171L14.9716 347.697C14.7365 345.345 15.2964 346.681 15.3376 346.184C15.3724 345.642 15.1683 345.079 15.0998 344.412C15.0275 343.751 15.3919 345.149 15.0926 343.606C14.8964 342.026 13.0772 338.059 12.5139 337.777C11.9502 337.271 12.1316 337.771 11.7075 337.37C11.4628 337.161 11.023 336.668 9.86621 335.795C9.67905 335.656 10.3764 335.984 9.65134 335.458C6.88253 333.54 3.69115 332.089 0.478624 330.836L0.346388 330.788L0.345962 330.646C0.373515 326.762 0.398005 322.874 0.446101 319.067C0.45884 318.076 0.607723 318.962 0.616821 318.385C0.712049 312.373 0.461015 314.522 0.182147 311.228C0.55326 311.967 0.780309 310.145 0.782501 305.583C0.783948 302.84 0.621864 303.312 0.507627 301.538C0.473191 301.006 0.584483 299.065 0.508257 298.714C0.259086 297.554 -0.0198451 299.382 0.0912224 294.678C0.0965007 294.471 0.232893 295.129 0.241153 294.415C0.29522 289.806 0.0345906 289.254 0.00302768 284.271C-0.0217384 280.366 0.13719 273.419 0.163038 268.972C0.580277 269.066 0.484735 264.865 0.197056 263.161C0.208834 260.275 0.192571 257.158 0.232334 254.368C0.24589 253.408 0.366692 254.039 0.379745 253.918C0.584503 252.061 0.304623 250.807 0.29365 250.184C0.18699 243.432 0.399115 237.931 0.191806 231.487C0.18434 231.259 -0.105487 230.888 0.106131 229.165C0.120719 229.054 0.252585 231.182 0.262782 228.151C0.273002 225.119 0.428371 219.404 0.29407 215.196C0.261738 214.177 0.0264573 211.601 0.210285 209.533C0.235248 209.258 0.318371 209.559 0.364626 209.162C0.512013 207.876 0.219069 207.174 0.46794 205.664C0.716799 204.153 0.903176 201.01 0.731474 196.766C0.726482 196.63 0.494297 195.626 0.497968 194.291C0.504028 192.16 0.552397 189.135 0.550885 186.91C0.550773 186.763 0.547914 186.649 0.543064 186.561C0.512646 186.017 0.40551 186.502 0.403171 186.343C0.379026 184.278 0.372324 182.395 0.376267 180.555C0.381914 178.697 0.398462 176.9 0.41893 175.054C0.447123 172.397 0.483367 169.629 0.506787 166.408C0.517298 165.001 0.320693 160.959 0.476129 158.236C0.646284 155.246 1.3541 158.318 1.18547 151.445C1.11802 148.673 0.220026 145.164 0.685277 140.182C0.56999 130.52 0.808104 121.585 0.643489 111.897C0.636196 111.461 0.385573 110.083 0.388984 109.059C0.394533 107.538 0.51167 106.704 0.519387 105.618C0.55467 101.068 0.454451 96.9045 0.47004 92.5179C0.475703 90.8525 0.596822 91.4348 0.603591 89.4485C0.610248 87.4633 0.450758 86.1396 0.527786 83.4495C0.5865 81.4178 0.912492 79.3865 0.950491 76.6897C0.628935 76.5869 0.635558 74.7347 0.550675 71.4427C0.534205 70.81 0.422287 71.4885 0.408723 71.1891C0.35104 69.9709 0.443796 68.8435 0.381005 67.6868C0.365924 67.4054 0.256111 67.3922 0.237584 67.1621C0.0758629 65.206 0.322877 61.9834 0.365886 61.4298C0.529224 59.3085 0.386399 58.3172 0.450721 56.6901C0.515034 55.0657 0.595432 57.4946 0.63446 55.597C0.715184 51.6637 0.697449 46.6099 0.702496 42.6152C0.703831 41.0213 0.557247 42.1088 0.554034 41.8807C0.516856 38.5848 0.67278 35.2518 0.380795 33.4244C0.475116 33.1388 0.544727 32.8937 0.594623 32.674L0.563576 32.7183C2.1136 32.4807 2.20529 31.8846 5.96209 30.2297C6.2964 30.0735 6.89126 30.1835 5.62423 30.8653C4.39502 31.5187 2.45967 32.2629 0.666331 33.001L0.895396 32.674C0.897672 32.7392 0.900144 32.8042 0.902823 32.869C0.921997 33.3372 1.25655 36.0186 1.27681 36.3845C1.43519 39.2503 0.901678 39.6565 0.872375 39.8081C0.556145 41.5275 0.916557 44.8043 0.941461 45.6672C1.05557 49.6148 0.980543 52.9686 1.06199 56.2704C1.11464 58.4298 1.46411 58.641 1.45341 60.3367C1.41805 65.9736 0.930539 67.9412 1.35325 73.2529C1.4434 74.3919 1.82536 73.26 1.52502 77.3412C1.50608 77.5976 1.23132 80.6276 1.40511 82.3782C1.42703 82.5981 1.53834 82.5911 1.54769 82.8811C1.60818 84.8243 1.5195 86.1203 1.56197 88.2373C1.60445 90.354 1.66777 92.8994 1.63001 95.3163C1.60743 96.7728 1.40003 98.6417 1.34926 99.3389C1.20298 101.308 1.44281 103.419 1.26568 104.638C1.08766 105.868 0.817309 103.464 0.702286 106.689C0.991496 106.808 1.28834 107.083 1.57919 107.275C1.56901 114.343 1.47549 121.298 1.48827 128.389C1.49014 129.269 1.64562 128.369 1.65164 129.312C1.67634 133.289 1.5655 136.762 1.60964 140.886C1.6444 144.078 1.80902 147.578 1.8505 150.916C1.51956 152.955 1.6319 157.908 1.60166 161.506C1.59121 162.767 1.50282 162.683 1.47399 163.579C1.36734 166.96 1.65979 165.376 1.70581 166.303C1.8986 170.207 1.2645 170.607 1.25643 175.054C1.25624 175.138 1.25627 175.222 1.25653 175.309C1.25706 175.556 1.6085 178.595 1.63028 179.011C1.74766 181.212 1.58707 180.069 1.51259 180.556C1.49703 180.659 1.48533 180.835 1.48092 181.117C1.45055 183.104 1.4043 184.705 1.40549 186.561C1.4057 187.542 1.41903 188.598 1.45467 189.827C1.48528 190.866 1.7052 193.358 1.5351 195.375C1.51282 195.641 1.39619 195.494 1.38936 195.708C1.27551 199.574 1.64197 199.676 1.76608 201.886C1.89016 204.096 1.63719 207.509 1.56428 208.204C1.37567 210.021 1.48368 206.811 1.46517 206.713C1.2449 205.557 1.28282 208.046 1.26421 209.949C0.904896 210.224 0.926463 212.884 1.24636 211.921C1.2813 211.811 1.2478 210.331 1.26421 209.949C1.61675 211.618 1.6619 214.542 1.33246 217.771C1.17805 219.282 0.998025 217.854 1.06388 222.445C1.09361 224.529 1.34102 223.724 1.40847 225.563C1.56237 229.764 1.33158 235.223 1.36795 239.554C1.38115 241.126 1.51658 239.595 1.53027 240.669C1.56702 243.52 1.4654 246.035 1.51746 248.898C1.52234 249.158 1.66411 248.524 1.66592 249.414C1.68238 256.165 1.59158 262.042 1.58906 269.09C1.58791 272.496 1.6661 278.584 1.65038 282.111C1.62397 288.225 1.41782 295.747 1.4679 300.97C1.49996 304.376 1.64175 303.629 1.73836 305.089C1.92564 307.905 1.59019 312.891 1.53825 313.562C1.53653 313.583 1.5031 310.652 1.43031 312.216C1.27865 313.125 1.53759 313.529 1.53825 313.562C1.50469 314.003 1.4725 319.859 1.49961 321.022C1.51442 321.654 1.64876 321.3 1.65395 321.63C1.70004 324.632 1.73348 327.636 1.75366 330.646L0.959546 329.513C5.15674 331.183 9.34945 332.701 12.9415 336.287C13.2845 336.683 13.5788 337.1 13.8395 337.528C13.9181 337.662 13.6707 337.54 13.8522 337.854C15.7932 341.653 16.2101 344.389 16.6905 347.572L15.4797 346.446C16.0157 346.428 16.5623 346.41 17.1277 346.393C20.9189 346.284 23.9256 346.321 26.1699 346.579C29.0305 346.546 33.1346 346.66 35.4963 346.73C37.8579 346.799 38.1875 346.506 38.3953 346.501C44.8765 346.315 48.6231 346.483 55.3472 346.509C58.544 346.522 64.8853 346.479 68.3465 346.447C71.082 346.422 72.73 346.49 75.2506 346.446C75.5915 346.441 75.2471 346.31 75.3512 346.305C78.1642 346.149 76.8123 346.468 77.3931 346.525C79.4987 346.732 80.7997 346.842 84.4021 346.744C85.233 346.722 87.6534 346.264 89.1681 346.237C91.1374 346.203 90.3941 346.367 92.4561 346.327C92.6326 346.324 92.5959 346.223 93.8684 346.227C99.7758 346.247 106.216 346.306 112.355 346.295C113.194 346.294 112.119 346.134 113.33 346.13C119.015 346.11 125.246 346.116 130.785 346.192C132.148 346.211 131.294 346.323 131.59 346.357C133.406 346.559 135.983 346.265 136.408 346.259C146.549 346.118 154.31 346.384 164.645 346.258C165.208 346.25 169.538 345.935 171.471 346.205C171.603 346.223 173.514 346.5 175.205 346.311C175.31 346.299 174.118 346.157 176.197 346.171C178.276 346.186 181.621 346.091 184.479 346.247C185.383 346.296 187.521 346.572 190.22 346.352C190.395 346.337 194.561 345.84 196.048 346.183C196.289 346.239 196.037 346.602 199.257 346.416C199.873 346.38 198.756 346.299 200.377 346.248C202.861 346.17 206.151 346.268 209.205 346.106C209.737 346.077 212.004 345.831 213.822 346.018C214.107 346.047 213.566 346.168 214.526 346.182C219.092 346.247 223.873 346.166 228.509 346.25C230.151 346.279 229.312 346.475 231.023 346.528C232.735 346.58 236.184 346.631 237.975 346.541C239.767 346.452 237.81 346.139 240.494 346.114C240.534 346.114 240.573 346.114 240.613 346.113L239.066 347.67C239.209 343.712 239.433 339.726 242.301 336.045C246.253 332.257 250.62 330.914 255.063 329.232L254.051 330.646C254.073 327.374 254.093 324.099 254.101 320.817C254.105 319.089 253.993 320.521 253.991 317.974C253.982 308.585 253.878 292.375 254.115 284.228C254.305 277.7 254.45 285.915 254.527 280.927C254.564 278.52 254.201 275.915 254.19 275.334C254.074 269.658 254.235 265.713 254.185 260.604C254.175 259.549 254.028 260.583 254.021 259.685C253.995 256.618 254.061 253.395 254.049 250.464C254.043 249.149 253.931 249.391 253.94 248.182C253.959 245.287 254.006 242.727 254.111 239.905C254.121 239.647 254.261 241.382 254.266 239.24C254.274 235.773 254.378 231.471 254.271 227.482C254.238 226.299 253.982 226.253 254.159 223.709C254.196 223.175 254.504 223.856 254.238 220.893C254.194 220.395 253.834 215.417 254.066 212.975C254.127 212.33 254.379 210.685 254.34 209.262C254.333 209.069 254.195 209.843 254.182 208.663C254.137 204.508 254.152 200.152 254.108 195.883C254.097 194.743 253.954 196.441 253.941 194.742C253.905 190.069 253.941 184.235 253.986 179.665C254.002 177.981 254.121 179.145 254.134 179.023C254.343 177.051 254.06 175.886 254.044 175.232C253.945 171.163 254.078 168.064 254.043 164.314C254.033 163.279 253.899 164.013 253.887 163.807C253.769 161.67 254.011 163.262 254.038 161.909C254.113 158.12 254.103 153.896 254.085 150.064C254.079 148.656 253.923 150.238 253.919 148.975C253.892 141.499 253.907 133.727 253.993 126.431C254.009 125.057 254.13 125.921 254.157 125.635C254.349 123.662 254.087 120.77 254.062 120.104C253.948 117.078 254.054 115.903 254.035 113.23C253.936 100.176 254.006 84.0583 254.05 71.736C254.1 57.376 254.197 45.893 254.195 32.674L255.061 33.9339C253.471 33.2873 252.043 32.5379 250.589 31.6124C249.728 31.0453 250.505 31.7591 249.764 31.2575C248.505 30.3827 247.3 29.3751 246.264 28.129C243.359 24.0762 243.289 19.8393 243.159 15.6303L244.687 17.188C239.359 17.1831 234.027 17.1793 228.649 17.2022C227.759 17.2057 229.042 17.3573 227.613 17.368C224.681 17.3911 220.967 17.3829 218.002 17.3344C216.556 17.3111 218.496 17.181 217.04 17.1602C213.651 17.1114 210.019 17.1006 206.538 17.1249C205.056 17.1356 207.291 17.2907 205.366 17.2924C192.25 17.3078 179.369 17.3345 166.114 17.1337C165.206 17.1199 164.409 16.8047 162.477 16.8651C162.331 16.9526 162.339 17.0555 162.275 17.149C143.182 17.1994 124.283 17.0901 105.136 17.0732C104.329 17.0725 105.724 17.2396 104.161 17.2391C95.1155 17.2366 86.3313 17.2829 77.0784 17.1169C76.1603 17.1007 76.6314 16.8068 73.9259 16.8513C73.4487 16.8594 69.3739 16.8986 68.3204 16.9623C68.1773 16.972 68.9207 17.1091 67.6077 17.1131C59.9773 17.1339 51.981 17.1026 44.3638 17.0188C43.1344 17.005 44.4436 16.859 43.568 16.8479C37.3569 16.7704 30.601 16.8814 24.6659 16.7488C20.6933 16.6595 22.1641 16.407 20.053 16.1585C19.7544 16.1235 17.2944 16.1179 17.1672 15.9733C16.8406 15.6097 18.0322 15.2116 17.5432 14.824C17.4399 14.7406 14.1453 14.8305 16.096 14.6288C16.2322 14.6153 18.6208 14.5483 19.2091 14.4799C19.6187 14.4326 18.8806 14.2855 19.7163 14.225C20.552 14.1644 21.4703 14.2877 22.8558 14.2166C24.2406 14.1445 23.6317 13.9772 26.3974 13.9574ZM46.1301 347.039C48.3169 347.179 48.6396 346.665 46.2744 346.788C46.1599 346.795 46.0173 347.032 46.1301 347.039ZM1.0874 121.258C0.860468 124.117 1.19415 126.073 1.36942 124.056C1.54449 122.04 1.15619 120.387 1.0874 121.258ZM0.921722 91.6128C0.742795 94.954 1.47239 95.48 1.3249 91.9014C1.31656 91.6933 0.932112 91.4175 0.921722 91.6128ZM29.8429 16.0878C29.8127 16.0809 28.0444 16.0743 28.0021 16.081C27.0605 16.2444 30.5965 16.2576 29.8429 16.0878ZM0.741343 62.195C0.64265 63.238 0.75658 66.2413 0.879305 64.9453C0.978034 63.902 0.864112 60.896 0.741343 62.195ZM160.203 347.588C160.237 347.596 161.505 347.603 161.48 347.559C161.393 347.42 159.629 347.459 160.203 347.588ZM15.0378 19.7134C14.356 22.8926 12.9733 25.3285 11.9769 26.1863C11.1499 26.899 10.987 26.9004 11.7728 26.0072C12.1769 25.5041 12.7889 24.626 13.396 23.1818C13.6622 22.521 13.4434 23.2596 13.1809 23.9333C12.9184 24.6061 12.6183 25.2173 13.0879 24.4304C14.6447 21.4197 14.6816 19.0714 15.269 15.7021C15.4154 15.0781 15.2064 19.2994 15.0357 19.7266C15.0364 19.7222 15.0371 19.7178 15.0378 19.7134ZM47.3894 347.657C47.4331 347.664 49.1881 347.67 49.2302 347.663C50.1806 347.5 46.645 347.487 47.3894 347.657ZM234.18 347.906C234.277 347.921 238.35 347.934 238.483 347.921C240.607 347.654 232.373 347.626 234.18 347.906ZM0.174167 268.902C0.00984406 266.987 -0.00950319 264.697 0.196846 263.17C0.185892 265.073 0.184278 266.989 0.174167 268.902Z" fill="#AD8253"/>
<path d="M145.545 15.9202C145.545 23.2435 137.934 29.1802 128.545 29.1802C119.156 29.1802 111.545 23.2435 111.545 15.9202C111.545 8.59686 126.545 0.160156 128.545 0.160156C130.545 0.160156 145.545 8.59686 145.545 15.9202Z" fill="#151612"/>
<path d="M146.064 16.8842C146.033 17.4503 145.889 18.1864 145.721 18.7244C145.669 18.8934 145.664 18.7991 145.625 18.9146C145.55 19.1398 145.497 19.3554 145.407 19.5721C145.377 19.6437 145.364 19.537 145.333 19.6121C145.164 20.0231 145.013 20.4142 144.807 20.813C143.792 22.7758 142.31 24.4108 140.543 25.717C139.958 26.1513 139.197 26.5934 138.553 26.9709C138.478 27.0152 138.544 27.0265 138.531 27.0376C138.327 27.2095 138.363 27.0937 138.207 27.1641C137.593 27.4399 136.908 27.7479 136.314 27.9987C136.06 28.1056 136.348 28.083 136.071 28.1394C136.052 28.1433 136.101 28.0769 136.029 28.0994C135.866 28.1503 135.564 28.2666 135.436 28.3057C135.19 28.3815 135.152 28.3943 134.921 28.4664C134.605 28.5641 134.223 28.65 133.882 28.7469C133.809 28.7677 133.917 28.7872 133.802 28.8243C133.685 28.8621 133.375 28.931 133.267 28.9434C133.159 28.9561 133.196 28.9113 133.176 28.9074C133.008 28.8741 132.666 29.0398 132.62 29.0502C131.772 29.2504 131.029 29.2896 130.218 29.3523C129.669 29.3943 129.085 29.43 128.545 29.431C128.481 29.4311 128.417 29.4308 128.355 29.43C127.655 29.4199 127.065 29.3635 126.388 29.3026C126.316 29.296 126.395 29.3575 126.307 29.3494C125.379 29.2615 124.465 29.1037 123.569 28.8557C123.479 28.8308 123.606 28.8127 123.518 28.785C122.97 28.6197 122.145 28.2764 121.762 28.3592C121.397 28.2293 120.962 28.0588 120.658 27.8906C120.463 27.7823 120.681 27.817 120.422 27.733C120.364 27.7137 120.42 27.7861 120.334 27.7536C119.967 27.6158 119.591 27.4252 119.236 27.272C119.164 27.2411 119.165 27.2864 119.142 27.2828C118.949 27.2511 118.718 27.0176 118.663 26.9786C118.239 26.6846 117.906 26.5077 117.505 26.2449C117.412 26.1832 117.492 26.301 117.402 26.243C116.933 25.9419 116.471 25.5953 116.063 25.2287C115.973 25.1473 116.088 25.1829 116.047 25.1422C115.866 24.9634 115.766 24.9919 115.594 24.8147C115.558 24.7774 115.606 24.7675 115.602 24.758C115.538 24.6097 115.38 24.594 115.351 24.5695C114.98 24.2603 114.837 23.9721 114.516 23.6398C114.478 23.5998 114.524 23.726 114.419 23.6114C113.716 22.8463 113.087 21.9278 112.648 20.9966C112.58 20.8518 112.666 20.9361 112.665 20.925C112.655 20.7474 112.523 20.6959 112.497 20.6503C112.294 20.2902 112.225 19.9065 112.02 19.6843C111.6 18.4718 111.341 17.1993 111.366 15.9202C111.375 15.4542 111.449 14.9935 111.58 14.5479C111.587 14.5264 111.624 14.5759 111.636 14.5334C111.79 14.0355 111.697 14.1141 111.723 13.7474C111.729 13.6563 111.926 13.4441 111.943 13.4259C112.003 13.3569 112.035 13.466 112.051 13.4415C112.182 13.2416 111.953 13.1781 112.086 12.8879C112.09 12.879 112.111 12.9353 112.127 12.9127C112.174 12.8429 112.195 12.7607 112.245 12.6934C112.36 12.5412 112.493 12.5283 112.569 12.2531C112.58 12.2176 112.435 12.201 112.585 11.9547C112.644 11.8543 112.912 11.4228 112.999 11.3116C113.086 11.1984 113.067 11.3033 113.074 11.2959C113.336 11.0119 113.275 11.1438 113.452 11.0374C113.628 10.9347 113.438 10.8602 113.465 10.7848C113.493 10.7092 113.698 10.5143 113.753 10.47C113.808 10.4256 113.777 10.51 113.822 10.4673C114.118 10.1875 113.854 10.2676 113.912 10.144C114.049 9.85459 114.324 9.75752 114.521 9.55395C114.575 9.49878 114.508 9.52376 114.551 9.47024C114.722 9.25877 114.868 9.16697 115.05 8.91095C115.079 8.86966 115.188 8.62667 115.349 8.55538C115.372 8.54545 115.352 8.61787 115.44 8.5404C115.571 8.4241 115.798 8.20934 115.923 8.07146C116.016 7.96923 115.86 8.03539 115.998 7.92846C116.06 7.8811 115.981 8.00555 116.095 7.9146C116.207 7.82373 116.476 7.571 116.578 7.47649C116.681 7.38145 116.593 7.39904 116.6 7.38915C116.638 7.32986 116.823 7.13349 116.842 7.11782C117.735 6.31646 118.646 5.68594 119.566 4.97105C119.638 4.91505 119.561 4.91242 119.571 4.90348C119.811 4.70143 119.689 4.95109 119.89 4.85718C119.807 4.79621 119.92 4.73564 120.094 4.59713C120.177 4.53055 120.108 4.5336 120.114 4.52475C120.209 4.38542 120.342 4.38279 120.374 4.37896C120.491 4.36456 120.545 4.24538 120.625 4.23573C120.704 4.22601 120.603 4.36374 120.774 4.24354C120.803 4.1811 120.622 4.19467 120.745 4.09127C121.215 3.69293 122.192 3.14046 122.618 2.88689C123.029 2.63981 123.168 2.5493 123.416 2.41595C123.86 2.17935 123.672 2.2117 123.932 2.02483C124.193 1.83905 124.141 2.06219 124.199 2.07072C124.255 2.08006 124.279 2.02399 124.336 2.01435C124.393 2.00488 124.303 2.08395 124.417 2.02777C124.537 1.9682 124.822 1.73819 124.843 1.68419C124.891 1.56769 124.708 1.57048 125.027 1.43277C125.046 1.42463 125.008 1.49493 125.079 1.46182C125.631 1.20572 126.203 0.921625 126.76 0.706111C126.842 0.674262 126.79 0.750902 126.838 0.73307C127.325 0.556335 127.099 0.563967 127.342 0.366755C127.331 0.504007 127.488 0.513846 127.856 0.390007C128.069 0.322506 128.011 0.285143 128.154 0.207814C128.2 0.183561 128.347 0.190261 128.386 0.160445C128.46 0.0856445 128.366 0.0163891 128.545 0.00205755C128.587 0.000613928 128.645 0.00533751 128.733 0.0259998C128.753 0.0308589 128.683 0.0652457 128.752 0.0789113C129.133 0.175284 129.203 0.117058 129.61 0.250629C129.939 0.362582 130.444 0.640544 130.782 0.81111C130.721 0.93375 131.045 1.05431 131.216 1.0342C131.439 1.1492 131.666 1.26012 131.87 1.38244C131.941 1.42456 131.875 1.43466 131.882 1.44328C131.991 1.57724 132.128 1.54684 132.174 1.56733C132.687 1.80501 133.055 2.09515 133.558 2.31296C133.576 2.32055 133.651 2.2538 133.739 2.38767C133.745 2.39662 133.569 2.3423 133.786 2.47572C134.006 2.61172 134.383 2.90268 134.709 3.057C134.789 3.09495 135.011 3.14503 135.124 3.28997C135.139 3.30941 135.102 3.31868 135.122 3.34956C135.186 3.44885 135.288 3.40026 135.35 3.53884C135.413 3.67836 135.596 3.8727 135.922 4.02559C135.932 4.0306 136.045 4.01476 136.137 4.07959C136.286 4.18406 136.482 4.34 136.635 4.44758C136.708 4.49894 136.689 4.42717 136.702 4.43541C137.211 4.76434 137.529 5.04973 138.03 5.45569C138.121 5.52975 138.429 5.6869 138.577 5.8698C138.738 6.07018 138.393 6.09005 138.873 6.40805C139.065 6.53661 139.483 6.49788 139.7 6.88712C140.339 7.38766 140.837 7.9532 141.447 8.48788C141.474 8.51211 141.615 8.53656 141.674 8.5991C141.762 8.69195 141.783 8.76915 141.844 8.83646C142.096 9.11738 142.362 9.359 142.596 9.6368C142.686 9.74333 142.625 9.73307 142.732 9.86196C142.838 9.99103 142.95 10.0431 143.071 10.2337C143.161 10.3762 143.184 10.5797 143.309 10.7659C143.399 10.709 143.492 10.834 143.673 11.0394C143.708 11.0791 143.705 11.0117 143.723 11.0295C143.799 11.1034 143.828 11.1996 143.901 11.2687C143.918 11.2855 143.949 11.2662 143.965 11.2789C144.103 11.3866 144.18 11.6584 144.192 11.7044C144.242 11.886 144.325 11.9338 144.376 12.0628C144.427 12.1913 144.302 12.0286 144.37 12.1724C144.509 12.4642 144.713 12.8467 144.843 13.1452C144.897 13.2679 144.904 13.1649 144.913 13.182C145.038 13.4351 145.085 13.7113 145.225 13.8229C145.05 14.0862 145.308 13.9758 145.365 14.3728C145.369 14.4041 145.265 14.4703 145.219 14.362C145.172 14.254 145.156 14.0718 145.077 13.923C145.059 13.8851 144.882 13.72 144.865 13.6948C144.733 13.4974 144.88 13.3996 144.885 13.3839C144.926 13.2079 144.704 13.0098 144.666 12.9506C144.491 12.6732 144.379 12.4154 144.22 12.1945C144.115 12.0487 144.007 12.0934 143.936 11.9718C143.704 11.5787 143.739 11.3472 143.371 11.0729C143.292 11.015 143.248 11.1645 143.126 10.8369C143.119 10.8172 143.035 10.5594 142.901 10.4833C142.884 10.4737 142.855 10.497 142.838 10.4805C142.724 10.3692 142.679 10.2682 142.556 10.1428C142.432 10.0171 142.279 9.87106 142.157 9.71514C142.083 9.62076 142.03 9.46022 142.003 9.40604C141.927 9.25217 141.749 9.17739 141.722 9.06496C141.694 8.95071 141.897 9.03399 141.739 8.81357C141.663 8.87245 141.577 8.92389 141.497 8.97907C141.091 8.5546 140.699 8.13251 140.261 7.73794C140.207 7.68923 140.227 7.7773 140.168 7.72618C139.919 7.51065 139.726 7.29161 139.457 7.07973C139.248 6.91568 138.991 6.7702 138.768 6.60546C138.706 6.41337 138.363 6.18403 138.132 5.9916C138.052 5.92425 138.075 5.90564 138.022 5.85233C137.821 5.65227 137.866 5.80943 137.796 5.77444C137.495 5.62606 137.603 5.43403 137.285 5.2047C137.269 5.19224 136.996 5.13637 136.964 5.12214C136.758 5.0309 136.959 5.068 136.852 4.98002C136.654 4.81829 136.526 4.69299 136.265 4.55143C136.189 4.51066 135.977 4.45144 135.869 4.30991C135.855 4.29133 135.886 4.26653 135.873 4.25459C135.627 4.04171 135.552 4.13791 135.378 4.07054C135.204 4.0028 135.009 3.77568 134.974 3.72452C134.881 3.58997 135.086 3.7655 135.096 3.76517C135.217 3.75757 135.035 3.65335 134.906 3.56268C134.951 3.45065 134.762 3.33757 134.772 3.46937C134.773 3.48387 134.882 3.54084 134.906 3.56268C134.727 3.58548 134.515 3.46667 134.343 3.23079C134.263 3.12119 134.394 3.13206 134.06 2.95109C133.909 2.86996 133.921 2.97279 133.777 2.91152C133.449 2.77153 133.099 2.47645 132.778 2.30773C132.663 2.24744 132.751 2.34852 132.672 2.30886C132.468 2.20699 132.287 2.068 132.075 1.97206C132.055 1.96333 132.078 2.0291 132.014 1.99488C131.517 1.73195 131.096 1.48073 130.572 1.23154C130.315 1.10858 129.852 0.930895 129.583 0.821637C129.264 0.68845 128.798 0.481077 128.545 0.464393C128.486 0.45868 128.353 0.480556 128.274 0.50436C128.008 0.583705 128.092 0.613466 127.992 0.676973C127.785 0.806405 127.388 0.846888 127.324 0.855537C127.315 0.858042 127.548 0.752622 127.414 0.780528C127.32 0.764534 127.327 0.854124 127.324 0.855537C127.298 0.85201 126.829 1.04338 126.759 1.08727C126.714 1.11289 126.759 1.14127 126.735 1.15393C126.16 1.46233 125.595 1.76537 125.004 2.0637C124.993 2.06844 124.985 2.01666 124.96 2.02837C124.612 2.19398 124.431 2.36666 124.176 2.55524C123.914 2.74811 123.703 2.86004 123.497 2.88469C123.296 3.01814 122.988 3.16354 122.809 3.24865C122.63 3.33398 122.657 3.43091 122.644 3.4417C122.223 3.78132 121.927 3.90875 121.462 4.21117C121.239 4.35608 120.812 4.66833 120.585 4.84387C120.404 4.98273 120.278 5.04595 120.119 5.18007C120.097 5.19829 120.145 5.2161 120.139 5.22252C119.982 5.40154 120.01 5.25096 119.96 5.26437C119.779 5.3134 119.669 5.34904 119.448 5.55608C119.398 5.60359 119.33 5.84536 119.236 5.92911C119.114 6.03796 119.129 5.95734 119.002 6.07315C118.991 6.08306 119.014 6.10737 118.93 6.17159C118.542 6.46952 118.116 6.79262 117.732 7.12624C117.679 7.17167 117.781 7.15396 117.706 7.22024C117.354 7.53058 116.969 7.87379 116.62 8.16892C116.533 8.24183 116.559 8.16631 116.534 8.17514C116.378 8.23034 116.292 8.44823 116.269 8.47383C115.704 9.09101 115.198 9.49521 114.68 10.1683C114.651 10.2057 114.505 10.5436 114.34 10.6101C114.329 10.6137 114.159 10.6815 114.123 10.8303C114.121 10.8395 114.218 10.7905 114.111 10.9229C114.002 11.0569 113.872 11.2873 113.694 11.4526C113.639 11.5039 113.463 11.5986 113.406 11.8211C113.401 11.8354 113.361 12.2061 113.204 12.2521C113.178 12.2592 113.083 12.1811 113.007 12.4375C112.994 12.4863 113.06 12.4216 113.012 12.5426C112.94 12.7247 112.784 12.9537 112.732 13.1933C112.722 13.2357 112.723 13.4292 112.61 13.5396C112.593 13.5568 112.572 13.5015 112.539 13.5707C112.382 13.8966 112.286 14.2668 112.175 14.6072C112.136 14.7294 112.087 14.6513 112.041 14.7808C111.995 14.9109 111.934 15.1767 111.949 15.3202C111.963 15.4637 112.08 15.3228 112.07 15.529C112.065 15.6607 112.063 15.7909 112.064 15.9202C112.073 16.7108 112.122 17.5018 112.302 18.2784C112.334 18.413 112.341 18.2932 112.393 18.4897C112.57 19.2222 113.107 20.4013 113.376 21.0034C113.584 21.4916 113.21 20.9396 113.392 21.303C113.482 21.4796 113.697 21.5937 113.725 21.6306C114.007 21.9944 114.151 22.282 114.421 22.5986C114.476 22.6632 114.462 22.5677 114.509 22.6228C114.67 22.81 114.823 23.0238 114.984 23.1964C115.057 23.274 115.071 23.2346 115.135 23.3084C115.29 23.4851 115.422 23.6428 115.561 23.8283C115.574 23.8453 115.44 23.7791 115.564 23.9025C115.765 24.1028 115.999 24.3638 116.272 24.5492C116.352 24.6033 116.408 24.5411 116.531 24.7175C116.557 24.7541 116.449 24.799 116.694 24.8819C116.736 24.8981 117.124 25.0493 117.241 25.2267C117.272 25.2737 117.334 25.4207 117.436 25.4761C117.45 25.4833 117.424 25.4102 117.506 25.4613C117.792 25.642 118.088 25.8399 118.394 26.0075C118.475 26.0521 118.381 25.9406 118.502 26.0081C118.833 26.1929 119.246 26.432 119.57 26.6109C119.691 26.6774 119.588 26.6697 119.595 26.678C119.709 26.8118 119.837 26.7695 119.887 26.7877C120.2 26.9007 120.413 27.0434 120.701 27.1519C120.779 27.1815 120.741 27.1176 120.758 27.1204C120.933 27.1509 120.784 27.1753 120.882 27.2252C121.159 27.365 121.485 27.484 121.783 27.5813C121.892 27.617 121.787 27.5261 121.885 27.5585C122.465 27.7483 123.071 27.9285 123.646 28.0959C123.754 28.1272 123.676 28.1493 123.697 28.1636C123.839 28.2628 124.09 28.2295 124.145 28.2326C124.397 28.2474 124.483 28.2999 124.699 28.3337C125.755 28.5015 127.066 28.6519 128.077 28.6826C128.237 28.6883 128.392 28.6924 128.545 28.6951C129.647 28.7113 130.576 28.673 131.668 28.5059C131.747 28.4936 131.66 28.4534 131.727 28.442C132.602 28.2965 133.461 28.1309 134.309 27.8703C134.379 27.8488 134.264 27.8303 134.375 27.7941C134.604 27.7193 134.89 27.6318 135.126 27.5687C135.24 27.5379 135.104 27.6297 135.219 27.5977C135.487 27.5228 135.765 27.4244 136.029 27.3118C136.14 27.2639 135.952 27.2838 136.097 27.2252C137.088 26.8222 138.021 26.344 138.969 25.825C139.033 25.7895 139.144 25.8427 139.266 25.7387C139.261 25.708 139.241 25.68 139.229 25.6514C140.516 24.7843 141.703 23.7841 142.669 22.57C142.71 22.5191 142.597 22.5733 142.675 22.4746C143.124 21.8984 143.496 21.2995 143.887 20.6654C143.925 20.6021 143.995 20.6806 144.079 20.4775C144.095 20.4423 144.223 20.1379 144.237 20.0511C144.239 20.0393 144.173 20.0758 144.214 19.9786C144.452 19.4141 144.665 18.8088 144.831 18.2194C144.858 18.1242 144.881 18.2377 144.9 18.1697C145.038 17.6846 145.081 17.1398 145.159 16.664C145.21 16.3447 145.284 16.4687 145.374 16.2985C145.387 16.2745 145.394 16.0711 145.441 16.0609C145.561 16.0347 145.691 16.1379 145.819 16.0984C145.847 16.0902 145.819 15.8043 145.885 15.9738C145.889 15.9856 145.908 16.1935 145.929 16.2454C145.943 16.2815 145.994 16.2185 146.011 16.2923C146.029 16.3663 145.985 16.4448 146.001 16.5667C146.017 16.6887 146.077 16.6398 146.064 16.8842ZM122.006 3.64048C121.828 3.70199 121.898 3.85848 122.041 3.7163C122.048 3.70928 122.015 3.63724 122.006 3.64048ZM140.785 8.04609C140.663 7.82697 140.467 7.79616 140.551 7.95327C140.635 8.11025 140.822 8.11259 140.785 8.04609ZM142.533 9.79133C142.396 9.54288 142.188 9.67045 142.417 9.85977C142.431 9.87113 142.542 9.80603 142.533 9.79133ZM145.336 17.1066C145.339 17.1044 145.357 16.9593 145.355 16.9555C145.309 16.8732 145.274 17.1618 145.336 17.1066ZM144.053 11.717C144.035 11.6267 143.866 11.4385 143.892 11.5507C143.913 11.6406 144.076 11.8287 144.053 11.717ZM114.589 9.6027C114.585 9.60317 114.514 9.68107 114.526 9.68884C114.565 9.71354 114.652 9.59488 114.589 9.6027ZM145.473 15.5845C145.435 14.9751 145.545 14.5651 145.629 15.2457C145.64 15.3687 145.531 14.9903 145.534 15.148C145.539 15.4334 145.678 15.6198 145.613 15.9148C145.603 15.9661 145.477 15.6177 145.473 15.5834C145.473 15.5838 145.473 15.5841 145.473 15.5845ZM121.806 3.52791C121.802 3.52796 121.677 3.60763 121.675 3.61153C121.638 3.70052 121.89 3.54017 121.806 3.52791ZM111.547 14.951C111.539 14.9584 111.487 15.2976 111.492 15.3114C111.556 15.4965 111.657 14.8167 111.547 14.951ZM130.786 0.817016C130.967 0.84296 131.127 0.913779 131.215 1.03381C131.07 0.957662 130.942 0.894627 130.786 0.817016Z" fill="#AD8253"/>
<path d="M121.744 22.8962V21.5262H135.646V22.8962H121.744ZM125.089 19.8824C124.163 19.8824 123.373 19.5765 122.722 18.9647C122.07 18.3528 121.744 17.6085 121.744 16.7317V8.10156H135.936C136.334 8.10156 136.675 8.23567 136.959 8.50389C137.242 8.77225 137.384 9.09479 137.384 9.4715V12.4851C137.384 12.8618 137.242 13.1843 136.959 13.4527C136.675 13.7209 136.334 13.855 135.936 13.855H133.967V16.7317C133.967 17.6085 133.641 18.3528 132.989 18.9647C132.337 19.5765 131.548 19.8824 130.621 19.8824H125.089ZM125.089 18.5126H130.621C131.128 18.5126 131.571 18.3334 131.95 17.9749C132.329 17.6164 132.518 17.202 132.518 16.7317V9.4715H123.192V16.7317C123.192 17.202 123.384 17.6164 123.768 17.9749C124.152 18.3334 124.592 18.5126 125.089 18.5126ZM133.967 12.4851H135.936V9.4715H133.967V12.4851ZM125.089 18.5126H123.192H132.518H125.089Z" fill="#C4AE95"/>
<defs>
<filter id="filter0_i_3088_184" x="0" y="13.9414" width="256.449" height="334.379" filterUnits="userSpaceOnUse" color-interpolation-filters="sRGB">
<feFlood flood-opacity="0" result="BackgroundImageFix"/>
<feBlend mode="normal" in="SourceGraphic" in2="BackgroundImageFix" result="shape"/>
<feColorMatrix in="SourceAlpha" type="matrix" values="0 0 0 0 0 0 0 0 0 0 0 0 0 0 0 0 0 0 127 0" result="hardAlpha"/>
<feOffset/>
<feGaussianBlur stdDeviation="8.60111"/>
<feComposite in2="hardAlpha" operator="arithmetic" k2="-1" k3="1"/>
<feColorMatrix type="matrix" values="0 0 0 0 0.678431 0 0 0 0 0.509804 0 0 0 0 0.32549 0 0 0 0.25 0"/>
<feBlend mode="normal" in2="shape" result="effect1_innerShadow_3088_184"/>
</filter>
</defs>
</svg>
