<svg width="304" height="208" viewBox="0 0 304 208" fill="none" xmlns="http://www.w3.org/2000/svg">
<g filter="url(#filter0_i_3088_100)">
<path d="M1.7207 188.796L1.7207 29.8472C1.7207 29.8472 8.11307 29.8758 11.3093 27.8198C14.5056 25.7638 17.1459 19.3047 17.1459 19.3047H287.295C287.295 19.3047 290.12 25.7612 293.132 27.8198C296.144 29.8784 302.721 29.8472 302.721 29.8472V188.796C302.721 188.796 296.144 189.17 293.132 191.229C290.12 193.288 287.295 199.339 287.295 199.339H162.221C162.221 199.339 156.721 207.738 151.721 207.738C146.721 207.738 140.995 199.339 140.995 199.339H17.1459C17.1459 199.339 14.3213 193.288 11.3093 191.229C8.29739 189.17 1.7207 188.796 1.7207 188.796Z" fill="#141511"/>
</g>
<path d="M0.0179757 179.788C-0.0268408 174.489 0.0210788 167.542 0.0868515 162.263C0.107251 160.608 0.198437 161.446 0.216624 160.304C0.252078 158.07 0.207357 155.989 0.249592 153.782C0.264035 153.05 0.408473 153.961 0.420311 153.194C0.484145 148.99 0.447355 145.013 0.478058 140.755C0.629541 119.78 0.683762 99.1613 0.749572 77.9295C0.771147 70.9288 0.902231 62.4186 0.844906 55.1876C0.838084 54.3434 0.711304 54.8467 0.700855 54.6861C0.540889 52.1671 0.796832 53.0047 0.830837 51.36C0.965102 44.8322 0.97678 37.5734 0.927851 31.2913C0.912696 29.3796 0.779548 30.2063 0.756678 29.8472L0.753168 28.8824L1.72501 28.8832C1.84063 28.8732 2.16506 28.8837 2.91059 28.8871C3.09448 28.8871 2.43739 29.0565 3.15417 29.0326C4.78677 29.0074 7.83324 28.4962 8.97043 28.0719C9.90413 27.7705 10.462 27.4892 10.9142 27.2055C11.5239 26.8021 12.0291 26.3646 12.8515 25.3602C14.2307 23.6397 15.5262 21.3386 16.5168 19.0475L16.687 18.6267L17.1459 18.625C18.1439 18.6282 19.1341 18.6272 20.0952 18.6187C20.8304 18.6118 19.8571 18.4738 21.0295 18.4503C22.2031 18.4269 25.3076 18.4386 26.3543 18.4711C27.4012 18.5036 26.9554 18.6121 27.1407 18.637C28.6649 18.8468 32.2561 18.5562 32.718 18.549C41.1426 18.4265 48.3671 18.5921 56.2752 18.5916C62.2786 18.5909 68.6979 18.5363 74.4103 18.5437C81.2158 18.5532 86.9837 18.628 93.5951 18.6151C94.2929 18.614 93.4753 18.4517 94.3275 18.4499C103.382 18.431 112.373 18.4487 121.388 18.5582C122.292 18.5694 121.127 18.7118 122.03 18.7315C127.56 18.8486 136.31 19.1298 139.595 18.5095C143.341 18.5338 147.889 18.5588 151.24 18.6838C153.401 18.7643 151.302 18.9195 153.956 18.8533C154.555 18.8385 153.777 18.7026 154.674 18.6908C158.454 18.641 162.584 18.6852 166.323 18.6149C167.084 18.6003 166.876 18.4785 167.091 18.4566C168.903 18.279 171.918 18.5726 172.575 18.5939C177.58 18.753 181.235 18.6904 185.898 18.6943C186.98 18.6953 185.701 18.5317 186.742 18.5267C192.142 18.5033 197.735 18.5174 203.023 18.59C204.199 18.6065 203.117 18.7458 203.679 18.7609C206.157 18.8255 206.707 18.5623 209.083 18.6191C209.584 18.6308 209.302 18.7501 209.393 18.7632C210.824 18.9689 212.067 18.6774 212.435 18.671C217.089 18.5831 220.063 18.8873 224.56 18.8442C225.097 18.8388 223.885 18.6878 225.396 18.6817C235.469 18.64 246.123 18.6815 256.093 18.8022C257.643 18.8208 256.537 18.9342 256.634 18.9482C258.224 19.1666 259.253 18.8739 259.758 18.8629C263.746 18.7836 267.471 19.029 270.18 18.6805C275.894 18.7214 281.599 18.7261 287.295 18.7264L287.672 18.7251L287.825 19.0729C289.265 22.1051 290.925 25.3859 293.457 27.345C296.047 28.9333 299.543 29.1967 302.718 29.3059L303.26 29.3014L303.262 29.8472C303.235 34.1838 303.188 38.5161 303.107 42.8441C303.104 43.0571 302.96 42.6755 302.953 43.1003C302.872 48.2159 303.096 47.2335 303.37 50.6184C303.439 51.4711 303.108 54.0649 303.084 54.2945C302.995 55.1306 302.78 54.2634 302.763 54.5434C302.627 56.8603 303.336 56.4828 303.336 59.6084C303.335 59.7062 303.205 59.2956 303.192 59.5579C303.151 60.3728 303.203 61.181 303.158 61.9785C303.054 63.8038 302.709 64.454 302.91 67.2419C302.936 67.5948 303.338 67.0559 303.319 69.8466C303.311 70.959 303.318 75.8835 303.292 77.2637C303.266 78.6421 303.136 77.6957 303.131 77.794C302.959 81.5081 302.888 80.0998 302.635 81.9607C302.382 83.8213 302.985 83.3053 303.052 84.0639C303.119 84.8237 302.978 87.5469 302.929 88.2161C302.879 88.8849 302.797 88.0508 302.769 88.6454C302.587 92.589 303.068 90.3764 303.164 91.6758C303.391 94.7393 302.944 97.1252 302.9 99.9298C302.888 100.689 302.99 100.069 302.999 100.745C303.036 103.421 302.896 105.031 303.024 108.076C303.045 108.574 303.314 111.035 303.116 112.628C303.088 112.854 302.977 112.213 302.952 113.353C302.914 115.057 302.89 118.127 302.927 119.959C302.955 121.311 303.138 119.761 303.081 121.463C303.056 122.22 302.948 120.818 302.909 122.239C302.871 123.652 302.875 127.267 302.879 128.642C302.883 130.015 303.022 129.264 303.031 129.375C303.085 130.046 303.152 132.681 303.152 132.914C303.169 144.658 302.934 155.487 303.012 166.922C303.018 167.819 303.165 167.221 303.167 167.358C303.229 170.43 302.838 168.008 302.708 170.154C303.006 169.844 302.952 171.111 302.984 173.275C303 174.317 303.116 173.749 303.128 173.845C303.303 175.391 303.076 176.468 303.03 176.745C302.86 177.769 303.061 178.884 302.947 179.581C302.834 180.277 302.667 178.674 302.669 180.749C302.775 181.331 303.054 179.791 303.099 181.366C303.158 183.395 303.171 186.023 303.162 188.796L303.163 189.211L302.746 189.236C299.451 189.494 295.756 190.005 293.33 191.519C291.981 192.453 291.06 193.705 290.394 194.617C288.914 196.74 288.175 198.22 287.561 199.462L287.483 199.63L287.295 199.631C286.134 199.628 285.132 199.623 283.877 199.605C278.856 199.535 280.696 199.742 277.578 199.837C274.451 199.932 275.971 199.423 275.522 199.313C275.081 199.204 274.599 199.317 274.05 199.256C273.503 199.196 274.687 199.122 273.4 199.099C272.113 199.077 268.593 199.271 268.137 199.386C267.172 199.628 268.758 199.883 265.352 199.793C265.156 199.788 265.792 199.654 265.042 199.64C259.084 199.537 252.894 199.531 246.943 199.44C246.125 199.427 246.856 199.278 246.38 199.269C241.42 199.174 243.193 199.425 240.475 199.704C241.085 199.333 239.582 199.106 235.817 199.104C233.554 199.102 233.944 199.264 232.48 199.378C232.041 199.413 230.44 199.302 230.15 199.378C229.193 199.627 230.701 199.906 226.82 199.795C226.65 199.79 227.192 199.653 226.604 199.645C222.8 199.591 222.345 199.851 218.234 199.883C215.012 199.908 209.28 199.749 205.611 199.723C205.688 199.306 202.223 199.401 200.817 199.689C198.436 199.677 195.864 199.693 193.562 199.654C192.77 199.64 193.29 199.519 193.191 199.506C191.659 199.302 190.624 199.581 190.11 199.592C184.539 199.699 180 199.487 174.684 199.694C174.495 199.702 174.189 199.992 172.768 199.78C172.676 199.765 174.432 199.633 171.931 199.623C169.658 199.614 165.556 199.485 162.221 199.562L162.408 199.461C162.223 199.753 162.048 200.016 161.867 200.288C161.411 200.987 160.258 202.851 158.911 203.957C158.732 204.105 158.849 203.867 158.583 204.071C157.726 204.712 157.49 205.341 156.339 205.915C155.459 206.286 153.947 207.388 151.721 207.489C151.044 207.494 150.307 207.346 149.549 207.073C149.452 207.038 148.584 206.931 147.661 206.306C146.177 205.335 144.409 203.548 143.213 202.156C142.638 201.49 142.896 202.01 142.794 201.895C142.076 201.07 141.429 200.252 140.855 199.434L140.995 199.508C136.582 199.519 132.832 199.425 127.669 199.379C126.508 199.369 123.173 199.565 120.926 199.41C118.459 199.24 120.994 198.532 115.324 198.701C113.037 198.768 110.141 199.666 106.031 199.201C98.0594 199.316 90.6874 199.078 82.6937 199.243C82.3343 199.25 81.1976 199.5 80.3524 199.497C79.0978 199.492 78.4092 199.374 77.5133 199.367C73.7595 199.331 70.3244 199.432 66.7051 199.416C65.3311 199.41 65.8115 199.289 64.1726 199.282C62.5348 199.276 61.4426 199.435 59.2231 199.358C57.5468 199.3 55.8708 198.974 53.6458 198.936C53.561 199.257 52.0329 199.25 49.3168 199.335C48.7947 199.352 49.3546 199.464 49.1076 199.477C48.1025 199.535 47.1723 199.442 46.2179 199.505C45.9858 199.52 45.9748 199.63 45.785 199.648C44.1711 199.81 41.5122 199.563 41.0555 199.52C39.3053 199.357 38.4874 199.5 37.145 199.435C35.8047 199.371 37.8087 199.291 36.2431 199.252C32.9979 199.171 28.8282 199.189 25.5323 199.184C24.2173 199.182 25.1145 199.329 24.9262 199.332C22.207 199.369 19.4571 199.213 17.9493 199.505C17.6307 199.378 17.373 199.295 17.1459 199.246L17.23 199.299C16.9403 198.196 16.3607 198.059 14.7577 195.274C14.5986 195.014 14.6843 194.48 15.3729 195.451C16.0067 196.358 16.7395 197.819 17.4548 199.194L17.1459 198.998C17.2616 198.994 17.3767 198.989 17.4911 198.983C17.8773 198.964 20.0897 198.63 20.3916 198.609C22.7561 198.451 23.0911 198.984 23.2163 199.014C24.6349 199.33 27.3385 198.969 28.0504 198.945C31.3074 198.83 34.0745 198.906 36.7987 198.824C38.5803 198.771 38.7546 198.422 40.1537 198.433C44.8044 198.468 46.4278 198.956 50.8103 198.533C51.75 198.443 50.8162 198.061 54.1834 198.361C54.3949 198.38 56.8949 198.655 58.3393 198.481C58.5206 198.459 58.5149 198.348 58.7541 198.338C60.3575 198.278 61.4267 198.367 63.1734 198.324C64.9198 198.282 67.0199 198.218 69.014 198.256C70.2157 198.279 71.7576 198.486 72.3329 198.537C73.9572 198.683 75.6989 198.443 76.7052 198.62C77.72 198.798 75.7361 199.069 78.3972 199.184C78.4957 198.895 78.7221 198.598 78.8806 198.307C84.7123 198.317 90.4502 198.411 96.3014 198.398C97.0268 198.396 96.2849 198.24 97.0626 198.234C100.343 198.21 103.209 198.321 106.612 198.276C109.245 198.242 112.133 198.077 114.887 198.036C116.57 198.366 120.656 198.254 123.625 198.284C124.665 198.295 124.595 198.383 125.335 198.412C128.125 198.519 126.817 198.226 127.582 198.18C130.864 197.984 131.145 198.646 135.014 198.629C135.219 198.629 137.724 198.276 138.069 198.254C140.262 198.111 138.432 198.377 139.805 198.403C140.219 198.411 140.613 198.42 140.995 198.428L141.479 198.43L141.747 198.826C142.77 200.336 143.758 201.653 145.494 203.267C146.105 203.835 147.702 205.001 148.936 205.875C149.1 205.993 148.947 206.041 149.086 206.124C150.447 206.903 151.205 206.867 151.721 206.779C152.183 206.68 152.53 206.525 153.175 206.238C154.564 205.675 156.753 204.095 157.19 203.754C158.361 202.894 156.445 204.574 156.38 204.608C155.813 205.355 157.334 204.106 158.385 202.983C158.809 203.086 160.218 201.42 159.46 201.81C159.379 201.859 158.613 202.776 158.385 202.983C158.951 201.949 160.13 200.474 161.463 198.843L161.735 198.431L162.221 198.433C162.596 198.466 162.979 198.506 163.367 198.554C164.614 198.708 163.435 198.888 167.223 198.822C168.943 198.792 168.278 198.545 169.796 198.478C173.262 198.324 177.766 198.554 181.34 198.518C182.637 198.505 181.373 198.369 182.26 198.356C184.612 198.319 186.687 198.421 189.049 198.369C189.263 198.364 188.74 198.222 189.475 198.22C195.044 198.204 199.894 198.294 205.709 198.297C208.518 198.298 213.541 198.22 216.452 198.236C221.496 198.262 227.702 198.468 232.011 198.418C234.822 198.386 234.205 198.244 235.41 198.148C237.733 197.96 241.847 198.296 242.401 198.348C242.418 198.35 239.999 198.383 241.29 198.456C242.04 198.607 242.374 198.348 242.401 198.348C242.765 198.381 247.596 198.414 248.555 198.386C249.077 198.372 248.785 198.237 249.057 198.232C255.517 198.112 261.989 198.078 268.541 198.141C268.656 198.143 268.483 198.294 268.754 198.298C272.547 198.365 274.976 198.181 278.105 198.072C281.233 197.963 283.713 197.999 285.565 198.257C286.099 198.25 286.685 198.25 287.295 198.256L286.314 198.88C287.27 196.922 288.585 194.897 289.558 193.656C290.818 192.071 290.885 191.702 290.997 191.551C291.44 191.063 291.911 190.615 292.45 190.231C296.102 188.04 298.861 187.982 302.654 187.628L301.551 188.796C301.559 188.079 301.566 187.324 301.569 186.518C301.582 183.88 301.54 178.648 301.508 175.793C301.482 173.536 301.551 172.176 301.507 170.096C301.501 169.815 301.371 170.099 301.366 170.013C301.21 167.692 301.528 168.808 301.585 168.329C301.792 166.591 301.902 165.518 301.805 162.546C301.783 161.86 301.324 159.863 301.297 158.614C301.263 156.989 301.428 157.602 301.388 155.901C301.385 155.755 301.283 155.785 301.288 154.736C301.307 149.862 301.366 144.548 301.356 139.483C301.355 138.791 301.194 139.678 301.19 138.678C301.171 133.988 301.177 128.847 301.252 124.277C301.271 123.152 301.384 123.857 301.417 123.613C301.62 122.114 301.326 119.989 301.32 119.638C301.179 111.271 301.445 104.868 301.318 96.3403C301.311 95.8761 300.996 92.303 301.266 90.7089C301.284 90.5998 301.56 89.0226 301.371 87.6281C301.359 87.5415 301.217 88.5242 301.232 86.8092C301.246 85.0941 301.151 82.334 301.307 79.9765C301.357 79.2302 301.632 77.4661 301.413 75.2398C301.397 75.0947 300.9 71.6578 301.243 70.431C301.3 70.2321 301.663 70.4403 301.476 67.7831C301.44 67.2754 301.359 68.197 301.309 66.8595C301.231 64.8103 301.328 62.095 301.167 59.5759C301.138 59.1366 300.892 57.2664 301.079 55.7663C301.108 55.5314 301.229 55.9778 301.243 55.1855C301.308 51.4183 301.227 47.4736 301.31 43.6486C301.34 42.2938 301.536 42.9865 301.588 41.5743C301.641 40.1617 301.691 37.3162 301.602 35.8383C301.512 34.3601 301.2 35.9749 301.175 33.7604C301.16 32.4545 301.151 31.1502 301.146 29.8472L302.728 31.4221C299.213 31.2909 295.819 31.2283 292.257 29.0994C288.903 26.4041 287.539 23.1851 285.952 19.8926L287.295 20.7715C285.788 20.7613 284.278 20.7533 282.767 20.749C281.341 20.745 282.523 20.8568 280.422 20.8589C272.676 20.8672 259.301 20.9719 252.579 20.7346C247.193 20.5444 253.971 20.3997 249.856 20.3223C247.87 20.2854 245.721 20.6484 245.242 20.6598C240.558 20.7759 237.303 20.6151 233.088 20.6644C232.217 20.6747 233.071 20.8217 232.33 20.8288C229.8 20.8543 227.14 20.7887 224.722 20.8007C223.637 20.8064 223.837 20.9188 222.839 20.9101C220.45 20.8906 218.338 20.8434 216.01 20.7381C215.797 20.7285 217.228 20.5888 215.461 20.5836C212.601 20.5756 209.051 20.4717 205.761 20.5789C204.784 20.6112 204.746 20.868 202.647 20.6907C202.207 20.6536 202.769 20.3453 200.324 20.6117C199.913 20.656 195.806 21.0153 193.791 20.7837C193.259 20.7227 191.902 20.4704 190.728 20.5101C190.569 20.5164 191.207 20.6543 190.234 20.6678C186.805 20.7128 183.212 20.6981 179.689 20.7413C178.748 20.7531 180.149 20.8958 178.747 20.9088C174.892 20.9449 170.079 20.9086 166.309 20.8639C164.919 20.8472 165.879 20.7289 165.778 20.7161C164.152 20.5068 163.19 20.7893 162.651 20.8057C159.293 20.9044 156.737 20.7717 153.643 20.8068C152.789 20.8161 153.394 20.9508 153.224 20.9628C151.461 21.0801 152.774 20.8383 151.658 20.8116C148.532 20.7361 145.047 20.7469 141.886 20.7642C140.724 20.7707 142.03 20.9268 140.987 20.9309C134.819 20.9578 128.407 20.9429 122.387 20.8568C121.253 20.8403 121.967 20.72 121.73 20.6926C120.102 20.5004 117.716 20.7625 117.167 20.7875C114.67 20.9015 113.701 20.7951 111.496 20.815C100.725 20.9138 87.4269 20.8434 77.2602 20.7999C64.012 20.7439 53.7318 20.6295 41.0983 20.6592C40.2953 20.6609 41.105 20.8209 40.4128 20.8244C32.617 20.8581 24.9267 20.8148 17.1459 20.8339L18.5614 19.8833C18.0831 21.0237 17.5781 22.0602 17.0071 23.1215C16.6355 23.7961 17.317 22.899 16.7091 23.9867C15.7026 25.6829 14.4584 27.7615 12.2297 29.2507C11.5741 29.6623 10.9294 29.9415 10.3264 30.1599C9.04519 30.5884 10.7038 29.8805 9.42658 30.2852C6.90286 31.0019 4.34234 31.2488 1.71419 31.3033L3.1768 29.8472C3.17886 30.2874 3.18174 30.7258 3.18542 31.1614C3.1961 32.3836 3.3512 30.5396 3.35299 32.1282C3.36838 42.9497 3.39509 53.5775 3.19424 64.5131C3.18045 65.2627 2.86522 65.9206 2.92567 67.5145C3.01316 67.6346 3.11607 67.6281 3.20957 67.6805C3.25994 83.4338 3.15066 99.0262 3.13377 114.824C3.13309 115.49 3.30012 114.339 3.29966 115.628C3.29719 123.092 3.34346 130.339 3.17745 137.973C3.16121 138.731 2.86737 138.342 2.91181 140.574C2.91992 140.968 2.95911 144.33 3.02289 145.199C3.03252 145.317 3.16967 144.704 3.17367 145.787C3.19449 152.083 3.16318 158.68 3.07938 164.965C3.06559 165.979 2.91954 164.899 2.90845 165.621C2.83092 170.746 2.94195 176.32 2.80934 181.217C2.72005 184.495 2.46758 183.281 2.21906 185.023C2.184 185.269 2.17845 187.299 2.03385 187.404C1.67027 187.673 1.27214 186.69 0.884593 187.094C0.801119 187.179 0.891026 189.897 0.689305 188.288C0.675805 188.175 0.608855 186.204 0.540424 185.719C0.493112 185.381 0.346063 185.99 0.2855 185.301C0.224992 184.611 0.348257 183.854 0.2771 182.71C0.205063 181.568 0.037778 182.07 0.0179757 179.788ZM297.315 188.957C299.144 188.712 299.327 188.159 297.378 188.685C297.284 188.713 297.221 188.972 297.315 188.957ZM90.4175 198.799C92.7762 199.026 94.3903 198.692 92.7263 198.517C91.0626 198.342 89.6988 198.73 90.4175 198.799ZM65.9584 198.964C68.7151 199.143 69.1491 198.414 66.1965 198.561C66.0248 198.569 65.7972 198.954 65.9584 198.964ZM2.1483 176.946C2.14146 176.97 2.13481 178.429 2.14158 178.464C2.30498 179.241 2.31819 176.324 2.1483 176.946ZM41.6869 199.145C42.5474 199.243 45.0253 199.129 43.956 199.007C43.0952 198.908 40.6151 199.022 41.6869 199.145ZM302.649 100.006C302.656 99.9771 302.663 98.9312 302.62 98.9522C302.48 99.0232 302.52 100.479 302.649 100.006ZM5.07969 189.001C8.6028 189.527 11.041 190.999 11.1978 191.392C11.233 191.448 11.2202 191.469 11.1567 191.452C10.9289 191.401 10.084 190.833 8.02487 190.219C7.45791 190.057 8.08598 190.169 8.67042 190.304C9.25355 190.439 9.7968 190.594 9.09615 190.302C6.47142 189.335 4.552 189.45 1.75545 189.005C1.24375 188.901 4.73161 188.898 5.09045 189.002C5.08686 189.002 5.08328 189.001 5.07969 189.001ZM298.472 189.344C298.506 189.337 299.935 189.102 299.971 189.098C300.725 188.807 297.829 189.275 298.472 189.344ZM302.967 38.9697C302.981 38.8897 302.995 35.5294 302.981 35.4198C302.714 33.6669 302.686 40.4605 302.967 38.9697ZM205.554 199.712C203.974 199.876 202.084 199.896 200.824 199.689C202.394 199.7 203.975 199.702 205.554 199.712Z" fill="#AD8253"/>
<ellipse cx="152.721" cy="19.7383" rx="25" ry="19.5" fill="#151612"/>
<path d="M178.485 21.1458C178.44 21.9725 178.231 23.0472 177.988 23.8332C177.912 24.08 177.903 23.9424 177.848 24.1111C177.738 24.44 177.662 24.755 177.53 25.0716C177.486 25.1763 177.467 25.0204 177.422 25.1301C177.177 25.7307 176.958 26.3022 176.66 26.8856C175.185 29.7552 173.032 32.1526 170.461 34.0722C169.61 34.7113 168.504 35.3607 167.566 35.9181C167.457 35.9833 167.553 35.9997 167.534 36.016C167.239 36.2689 167.289 36.0988 167.063 36.2025C166.167 36.6108 165.172 37.0649 164.305 37.4372C163.935 37.5954 164.356 37.5608 163.952 37.6449C163.924 37.6508 163.996 37.5531 163.891 37.5864C163.649 37.6634 163.213 37.8347 163.026 37.8931C162.67 38.0053 162.61 38.0258 162.276 38.1325C161.817 38.2775 161.256 38.4073 160.761 38.5515C160.655 38.5826 160.814 38.6106 160.645 38.6658C160.477 38.7218 160.021 38.8263 159.865 38.8449C159.708 38.8644 159.762 38.7982 159.732 38.7927C159.489 38.7446 158.987 38.9916 158.921 39.0071C157.689 39.3076 156.599 39.3728 155.417 39.4728C154.529 39.5474 153.577 39.6109 152.721 39.607C152.714 39.607 152.707 39.6069 152.699 39.6069C151.674 39.6 150.813 39.5244 149.825 39.4443C149.721 39.4355 149.836 39.5249 149.708 39.514C148.354 39.398 147.012 39.1791 145.703 38.8302C145.572 38.7951 145.757 38.7663 145.627 38.7271C144.829 38.4942 143.616 38.0041 143.058 38.1335C142.525 37.9502 141.888 37.709 141.439 37.4676C141.151 37.3123 141.471 37.3591 141.091 37.2407C141.006 37.2135 141.089 37.3186 140.962 37.273C140.429 37.0802 139.872 36.8071 139.352 36.5911C139.246 36.5472 139.248 36.6138 139.214 36.609C138.929 36.5657 138.593 36.2308 138.51 36.1745C137.881 35.7513 137.395 35.5018 136.804 35.127C136.668 35.0397 136.786 35.2095 136.654 35.1275C135.96 34.6969 135.277 34.2007 134.675 33.6781C134.541 33.5611 134.711 33.6102 134.649 33.5516C134.379 33.2937 134.235 33.3392 133.981 33.0864C133.927 33.0326 133.998 33.0167 133.991 33.0029C133.893 32.7869 133.661 32.7684 133.618 32.7334C133.071 32.2955 132.852 31.8739 132.375 31.4003C132.318 31.3429 132.389 31.5267 132.231 31.3618C131.183 30.2656 130.234 28.9468 129.56 27.6052C129.455 27.3972 129.583 27.5162 129.582 27.5001C129.561 27.2415 129.365 27.1708 129.325 27.1053C129.015 26.5887 128.899 26.0295 128.59 25.7155C127.866 23.8036 127.412 21.7763 127.469 19.7383C127.483 19.2351 127.527 18.7412 127.605 18.247C127.609 18.2153 127.673 18.2789 127.683 18.216C127.805 17.462 127.684 17.5955 127.634 17.0685C127.622 16.9343 127.854 16.5805 127.873 16.5502C127.942 16.4364 128.016 16.585 128.033 16.5457C128.171 16.2241 127.821 16.2023 127.937 15.7431C127.942 15.729 127.987 15.8048 128.003 15.7682C128.053 15.6546 128.061 15.5305 128.115 15.4211C128.241 15.1706 128.425 15.1286 128.465 14.7043C128.471 14.6505 128.256 14.6637 128.408 14.2696C128.465 14.1113 128.74 13.4205 128.84 13.237C128.937 13.0522 128.936 13.2085 128.944 13.196C129.253 12.7236 129.196 12.9317 129.427 12.737C129.659 12.5461 129.365 12.4825 129.388 12.3662C129.411 12.249 129.665 11.9224 129.736 11.8485C129.806 11.7736 129.779 11.9012 129.835 11.831C130.204 11.3686 129.839 11.535 129.898 11.3434C130.044 10.8904 130.422 10.708 130.679 10.3771C130.748 10.2881 130.655 10.335 130.709 10.2501C130.926 9.91501 131.125 9.7608 131.358 9.36717C131.395 9.30316 131.527 8.93322 131.757 8.81292C131.789 8.79619 131.768 8.90409 131.888 8.78237C132.067 8.60176 132.382 8.2713 132.559 8.06067C132.689 7.90519 132.465 8.01051 132.661 7.84713C132.748 7.77509 132.64 7.96057 132.801 7.82272C132.96 7.68544 133.347 7.30603 133.495 7.16771C133.643 7.02784 133.516 7.05406 133.525 7.03953C133.58 6.9521 133.852 6.66442 133.879 6.64181C135.202 5.47301 136.602 4.64404 138.067 3.77544C138.183 3.70763 138.07 3.68901 138.087 3.67802C138.476 3.42971 138.249 3.76974 138.56 3.67297C138.451 3.56825 138.631 3.4991 138.909 3.33831C139.043 3.26063 138.942 3.24941 138.952 3.23785C139.12 3.05711 139.314 3.08415 139.361 3.08611C139.534 3.09293 139.643 2.93269 139.76 2.93853C139.877 2.94431 139.697 3.11806 139.974 2.98745C140.031 2.90429 139.766 2.8779 139.97 2.75966C140.743 2.29959 142.329 1.80603 143.015 1.60505C143.692 1.39785 143.917 1.32653 144.318 1.23297C145.048 1.07063 144.758 1.04549 145.201 0.887215C145.644 0.733814 145.48 1.02722 145.557 1.06324C145.632 1.10005 145.69 1.03093 145.775 1.04145C145.861 1.05213 145.698 1.12556 145.886 1.09473C146.073 1.06304 146.567 0.865487 146.622 0.799393C146.74 0.657377 146.484 0.578972 146.992 0.528798C147.021 0.52612 146.94 0.606795 147.051 0.593336C147.937 0.484265 148.849 0.364132 149.733 0.326772C149.855 0.321778 149.753 0.403525 149.824 0.401509C150.563 0.385344 150.288 0.287366 150.683 0.124776C150.605 0.310769 150.833 0.402164 151.391 0.37935C151.725 0.367169 151.664 0.291302 151.879 0.229813C151.944 0.211212 152.183 0.260392 152.225 0.223039C152.366 0.101105 152.138 -0.0340878 152.721 0.0171953C152.721 0.0172175 152.721 0.0172397 152.721 0.017262C152.73 0.0181643 152.726 0.026958 152.721 0.0381437C152.714 0.0528584 152.704 0.0717127 152.721 0.0821784C152.727 0.086327 152.738 0.089159 152.754 0.0899103C153.323 0.119166 153.393 -0.00641899 154.006 -0.000351444C154.493 0.00441106 155.338 0.137205 155.884 0.205769C155.854 0.405175 156.367 0.411679 156.592 0.299669C156.946 0.347946 157.327 0.392889 157.662 0.464605C157.777 0.48927 157.692 0.535138 157.705 0.543674C157.914 0.677031 158.089 0.569597 158.166 0.577375C158.993 0.668968 159.634 0.910487 160.426 1.00436C160.454 1.0078 160.534 0.882448 160.714 1.03525C160.725 1.0456 160.456 1.04103 160.815 1.14045C161.174 1.23911 161.83 1.50625 162.339 1.60456C162.461 1.62724 162.802 1.62022 163.013 1.78898C163.041 1.81162 162.992 1.83732 163.031 1.87467C163.156 1.99447 163.285 1.8901 163.417 2.06712C163.547 2.24379 163.877 2.46271 164.384 2.58266C164.401 2.58679 164.556 2.5292 164.707 2.59531C164.947 2.7007 165.277 2.87297 165.522 2.98719C165.64 3.04182 165.595 2.9434 165.616 2.9518C166.429 3.29374 166.959 3.63904 167.755 4.13416C167.902 4.22523 168.378 4.40158 168.616 4.64563C168.878 4.91571 168.383 4.9923 169.115 5.39051C169.403 5.5503 170.018 5.4525 170.36 6.00432C171.327 6.69046 172.059 7.50998 172.923 8.31721C172.962 8.35357 173.166 8.39557 173.249 8.49046C173.372 8.63122 173.396 8.74521 173.48 8.8481C173.832 9.28304 174.186 9.65038 174.498 10.0911C174.616 10.258 174.527 10.2341 174.664 10.4339C174.799 10.635 174.956 10.7268 175.103 11.0241C175.213 11.2488 175.209 11.5426 175.356 11.8338C175.497 11.7671 175.609 11.9617 175.835 12.2986C175.878 12.3635 175.887 12.2645 175.91 12.294C176.005 12.4139 176.028 12.5578 176.119 12.6715C176.14 12.6993 176.189 12.6772 176.209 12.6987C176.388 12.8807 176.444 13.2956 176.451 13.3657C176.483 13.6362 176.593 13.7214 176.639 13.9185C176.683 14.1154 176.538 13.8528 176.605 14.0758C176.745 14.5372 176.948 15.1174 177.075 15.5879C177.126 15.7753 177.16 15.6289 177.168 15.6552C177.293 16.0407 177.308 16.4535 177.49 16.6454C177.185 16.9913 177.578 16.876 177.596 17.4627C177.597 17.509 177.434 17.5899 177.383 17.4229C177.332 17.2563 177.342 16.9891 177.256 16.7618C177.236 16.7068 177.01 16.4248 176.99 16.3854C176.839 16.07 177.074 15.9606 177.084 15.9387C177.182 15.6971 176.903 15.359 176.86 15.2646C176.668 14.8247 176.566 14.4325 176.382 14.0754C176.262 13.8427 176.096 13.8852 176.021 13.6975C175.767 13.0776 175.871 12.7564 175.389 12.2895C175.284 12.1914 175.192 12.3987 175.076 11.9059C175.07 11.8757 174.997 11.4926 174.814 11.3614C174.791 11.3448 174.746 11.3744 174.723 11.3477C174.575 11.1688 174.525 11.0162 174.365 10.8187C174.205 10.6216 174.005 10.3955 173.845 10.1545C173.749 10.0091 173.691 9.77182 173.658 9.69127C173.566 9.4621 173.313 9.34131 173.283 9.1742C173.252 9.00508 173.543 9.14102 173.327 8.80764C173.212 8.88896 173.082 8.95898 172.962 9.03503C172.408 8.3999 171.847 7.77568 171.209 7.21691C171.129 7.14757 171.16 7.27544 171.074 7.20292C170.707 6.89764 170.423 6.59343 170.018 6.30589C169.708 6.08647 169.32 5.90038 168.983 5.69139C168.877 5.42079 168.348 5.13212 167.991 4.89589C167.865 4.8122 167.896 4.78108 167.811 4.71308C167.488 4.45869 167.579 4.6792 167.472 4.64141C167.013 4.48513 167.138 4.1859 166.633 3.92241C166.605 3.90715 166.203 3.89044 166.154 3.8779C165.838 3.79592 166.134 3.80076 165.961 3.69977C165.643 3.51647 165.43 3.36898 165.019 3.23806C164.899 3.19991 164.581 3.17617 164.389 3.00655C164.364 2.98429 164.402 2.939 164.38 2.92604C163.971 2.69666 163.892 2.85839 163.623 2.81756C163.353 2.77641 163.015 2.52253 162.947 2.4613C162.771 2.30184 163.118 2.48084 163.131 2.47692C163.299 2.42451 163.011 2.33819 162.796 2.25419C162.823 2.07849 162.511 1.98361 162.573 2.16825C162.58 2.18844 162.755 2.23131 162.796 2.25419C162.549 2.34864 162.211 2.25691 161.888 1.98907C161.735 1.86421 161.928 1.82877 161.382 1.70087C161.134 1.64422 161.196 1.7867 160.974 1.75852C160.468 1.69471 159.854 1.42798 159.339 1.33536C159.151 1.30164 159.319 1.4046 159.19 1.38402C158.848 1.32991 158.563 1.22436 158.218 1.18838C158.187 1.18526 158.25 1.26616 158.144 1.24837C157.342 1.11665 156.645 0.976432 155.803 0.891912C155.392 0.849419 154.661 0.834263 154.235 0.808365C153.76 0.777293 153.222 0.719686 152.721 0.695933C152.444 0.682606 152.184 0.679193 151.96 0.693154C151.55 0.719543 151.642 0.786654 151.469 0.839625C151.133 0.94189 150.527 0.81745 150.444 0.799223C150.441 0.798176 150.793 0.758712 150.602 0.735916C150.488 0.669908 150.448 0.798655 150.444 0.799223C150.392 0.784742 149.683 0.828364 149.545 0.857626C149.47 0.872419 149.519 0.932882 149.48 0.939406C148.55 1.09345 147.619 1.24835 146.68 1.40271C146.663 1.40467 146.674 1.32835 146.635 1.33387C146.083 1.41133 145.757 1.57721 145.329 1.73633C144.898 1.89705 144.549 1.975 144.257 1.92868C143.928 2.03811 143.441 2.13127 143.162 2.18864C142.88 2.24648 142.888 2.39467 142.865 2.40514C142.161 2.74428 141.712 2.82827 140.965 3.12938C140.606 3.27316 139.927 3.60748 139.562 3.80943C139.273 3.96722 139.087 4.02675 138.828 4.18935C138.793 4.21125 138.86 4.24721 138.85 4.25527C138.59 4.48198 138.659 4.26976 138.584 4.27896C138.314 4.314 138.152 4.3421 137.801 4.6045C137.72 4.66517 137.587 5.00536 137.442 5.11175C137.253 5.2505 137.286 5.13507 137.089 5.28508C137.072 5.29798 137.102 5.33652 136.974 5.41816C136.382 5.79674 135.744 6.22351 135.178 6.68643C135.1 6.74952 135.249 6.72972 135.138 6.82181C134.623 7.25235 134.072 7.74147 133.58 8.1786C133.459 8.28572 133.492 8.17586 133.456 8.18911C133.233 8.27246 133.124 8.59189 133.091 8.63084C132.324 9.54961 131.644 10.1894 131.019 11.2413C130.983 11.2994 130.841 11.8067 130.615 11.9365C130.6 11.9449 130.369 12.073 130.352 12.2921C130.351 12.3056 130.479 12.2171 130.355 12.4268C130.231 12.6376 130.091 13.0063 129.88 13.2761C129.814 13.3608 129.584 13.5366 129.558 13.8718C129.554 13.8952 129.595 14.4336 129.381 14.5378C129.346 14.5547 129.188 14.4655 129.147 14.8544C129.141 14.9285 129.22 14.8172 129.182 15.005C129.125 15.2921 128.967 15.6483 128.953 16.0136C128.95 16.0778 129.002 16.3599 128.868 16.5457C128.847 16.575 128.803 16.5005 128.773 16.6087C128.628 17.124 128.578 17.6837 128.482 18.2165C128.449 18.4063 128.364 18.299 128.321 18.4983C128.277 18.6987 128.23 19.1039 128.269 19.3174C128.307 19.53 128.462 19.3032 128.47 19.6173C128.471 19.6576 128.473 19.698 128.474 19.7383C128.517 21.054 128.61 22.3662 128.948 23.6488C129 23.844 129.006 23.6686 129.09 23.9534C129.382 25.0141 130.215 26.7151 130.627 27.5846C130.95 28.2918 130.382 27.4983 130.661 28.0225C130.798 28.2755 131.117 28.4354 131.16 28.4884C131.584 29.0082 131.806 29.4267 132.208 29.8784C132.291 29.9713 132.268 29.8316 132.338 29.9109C132.581 30.182 132.808 30.4845 133.05 30.7346C133.159 30.8461 133.179 30.7882 133.274 30.894C133.503 31.1451 133.702 31.3737 133.911 31.6417C133.93 31.6661 133.734 31.5738 133.917 31.75C134.212 32.033 134.568 32.4146 134.966 32.6744C135.086 32.7517 135.166 32.6589 135.35 32.9146C135.389 32.9674 135.234 33.038 135.591 33.1504C135.651 33.171 136.227 33.3846 136.4 33.6408C136.445 33.7087 136.536 33.921 136.689 34.0004C136.709 34.0107 136.67 33.9039 136.791 33.977C137.216 34.2366 137.648 34.5154 138.101 34.7558C138.221 34.819 138.082 34.6583 138.259 34.7535C138.745 35.0157 139.35 35.3559 139.831 35.6125C140.008 35.7076 139.858 35.6985 139.869 35.7105C140.039 35.9051 140.222 35.8389 140.296 35.8644C140.754 36.023 141.071 36.2294 141.49 36.3812C141.606 36.4232 141.549 36.3299 141.574 36.3337C141.831 36.3752 141.612 36.4139 141.757 36.4853C142.168 36.6862 142.639 36.8521 143.079 36.9904C143.24 37.0409 143.084 36.9092 143.228 36.955C144.074 37.2214 144.967 37.4767 145.806 37.7118C145.964 37.7561 145.851 37.79 145.881 37.8105C146.091 37.9541 146.458 37.9013 146.539 37.9049C146.904 37.9221 147.031 37.9979 147.348 38.0443C148.891 38.2744 150.809 38.4776 152.285 38.511C152.432 38.5151 152.577 38.5183 152.721 38.5206C154.439 38.5435 155.85 38.482 157.525 38.2148C157.639 38.1961 157.512 38.1376 157.61 38.1204C158.887 37.8988 160.139 37.6487 161.375 37.2601C161.477 37.2281 161.309 37.2015 161.471 37.1477C161.803 37.0366 162.221 36.9061 162.564 36.8119C162.731 36.7661 162.533 36.9016 162.7 36.854C163.09 36.743 163.498 36.5957 163.88 36.4296C164.042 36.3588 163.767 36.3888 163.979 36.302C165.422 35.705 166.779 34.9993 168.159 34.235C168.252 34.1832 168.417 34.2593 168.594 34.1069C168.585 34.0619 168.557 34.021 168.538 33.9791C170.408 32.7046 172.138 31.234 173.539 29.4574C173.598 29.3826 173.433 29.4628 173.546 29.3172C174.197 28.4744 174.738 27.5971 175.306 26.6699C175.362 26.5774 175.465 26.6921 175.587 26.3953C175.61 26.3439 175.796 25.8986 175.815 25.7718C175.818 25.7546 175.722 25.808 175.781 25.666C176.126 24.8408 176.435 23.9565 176.677 23.0957C176.715 22.9566 176.75 23.1223 176.778 23.023C176.978 22.3146 177.04 21.5191 177.154 20.8243C177.228 20.3581 177.338 20.5392 177.469 20.2907C177.488 20.2556 177.498 19.9586 177.568 19.9438C177.744 19.9055 177.935 20.0562 178.124 19.9986C178.165 19.9865 178.123 19.5691 178.22 19.8166C178.227 19.8339 178.255 20.1374 178.285 20.2131C178.307 20.2659 178.381 20.1739 178.407 20.2816C178.432 20.3897 178.368 20.5043 178.392 20.6823C178.416 20.8604 178.504 20.7889 178.485 21.1458ZM141.9 2.47617C141.627 2.50783 141.681 2.75419 141.927 2.59602C141.939 2.58813 141.914 2.47442 141.9 2.47617ZM171.971 7.65699C171.795 7.33586 171.512 7.29785 171.632 7.52404C171.75 7.74944 172.024 7.75452 171.971 7.65699ZM174.386 10.3087C174.216 9.92923 173.896 10.0917 174.207 10.3948C174.225 10.4126 174.395 10.3308 174.386 10.3087ZM177.415 21.4705C177.419 21.4674 177.445 21.2555 177.442 21.25C177.375 21.1297 177.324 21.5512 177.415 21.4705ZM176.247 13.3538C176.24 13.2173 176.033 12.9096 176.047 13.0776C176.058 13.2117 176.257 13.522 176.247 13.3538ZM130.785 10.4376C130.779 10.4385 130.688 10.5647 130.707 10.574C130.769 10.6032 130.876 10.4161 130.785 10.4376ZM177.623 19.2422C177.6 18.3508 177.822 17.7618 177.873 18.7616C177.879 18.9414 177.753 18.3806 177.743 18.6111C177.724 19.0285 177.918 19.2989 177.821 19.7304C177.804 19.8065 177.625 19.2916 177.622 19.2406C177.623 19.2412 177.623 19.2417 177.623 19.2422ZM141.649 2.25163C141.643 2.25032 141.441 2.32577 141.438 2.33087C141.358 2.44682 141.763 2.29518 141.649 2.25163ZM127.628 18.8317C127.618 18.8427 127.591 19.3443 127.599 19.3613C127.718 19.6239 127.772 18.6187 127.628 18.8317ZM155.892 0.211975C156.135 0.155621 156.416 0.177548 156.591 0.299439C156.359 0.266176 156.126 0.239896 155.892 0.211975Z" fill="#AD8253"/>
<path d="M155.45 15.536V14.0692C156.297 13.6408 157.203 13.3196 158.17 13.1055C159.137 12.8915 160.129 12.7844 161.148 12.7844C161.729 12.7844 162.288 12.8217 162.824 12.8963C163.359 12.9712 163.911 13.0773 164.481 13.2147V14.6452C163.932 14.4692 163.396 14.3475 162.874 14.28C162.351 14.2122 161.776 14.1783 161.148 14.1783C160.129 14.1783 159.135 14.293 158.166 14.5223C157.196 14.7516 156.29 15.0895 155.45 15.536ZM155.45 24.1429V22.6155C156.256 22.1873 157.158 21.8661 158.155 21.6518C159.152 21.4377 160.149 21.3307 161.148 21.3307C161.729 21.3307 162.288 21.3681 162.824 21.443C163.359 21.5176 163.911 21.6235 164.481 21.7609V23.1915C163.932 23.0157 163.396 22.894 162.874 22.8262C162.351 22.7585 161.776 22.7246 161.148 22.7246C160.129 22.7246 159.135 22.8479 158.166 23.0945C157.196 23.3409 156.29 23.6904 155.45 24.1429ZM155.45 19.8698V18.3423C156.297 17.9142 157.203 17.593 158.17 17.3787C159.137 17.1646 160.129 17.0576 161.148 17.0576C161.729 17.0576 162.288 17.0949 162.824 17.1695C163.359 17.2443 163.911 17.3504 164.481 17.4878V18.9183C163.932 18.7426 163.396 18.6209 162.874 18.5531C162.351 18.4853 161.776 18.4515 161.148 18.4515C160.129 18.4515 159.135 18.5762 158.166 18.8257C157.196 19.0753 156.29 19.4233 155.45 19.8698ZM143.812 25.6948C145.188 25.6948 146.526 25.8529 147.826 26.1692C149.126 26.4854 150.415 27.0001 151.692 27.7132V12.251C150.554 11.4386 149.301 10.8294 147.931 10.4233C146.561 10.0172 145.188 9.81421 143.812 9.81421C142.867 9.81421 142.039 9.87081 141.329 9.98401C140.618 10.0972 139.83 10.3073 138.963 10.6144C138.721 10.6953 138.549 10.8115 138.448 10.9631C138.347 11.1143 138.297 11.281 138.297 11.463V25.6704C138.297 25.9533 138.398 26.1604 138.6 26.2917C138.802 26.423 139.024 26.4383 139.267 26.3374C139.842 26.1433 140.508 25.9877 141.262 25.8705C142.017 25.7534 142.867 25.6948 143.812 25.6948ZM153.268 27.7132C154.545 27.0001 155.834 26.4854 157.134 26.1692C158.434 25.8529 159.772 25.6948 161.148 25.6948C162.093 25.6948 162.943 25.7534 163.698 25.8705C164.452 25.9877 165.118 26.1433 165.693 26.3374C165.936 26.4383 166.158 26.423 166.36 26.2917C166.562 26.1604 166.663 25.9533 166.663 25.6704V11.463C166.663 11.281 166.613 11.1193 166.512 10.978C166.411 10.8367 166.239 10.7155 165.997 10.6144C165.13 10.3073 164.341 10.0972 163.631 9.98401C162.921 9.87081 162.093 9.81421 161.148 9.81421C159.772 9.81421 158.399 10.0172 157.029 10.4233C155.659 10.8294 154.405 11.4386 153.268 12.251V27.7132ZM152.48 29.9983C151.199 29.1213 149.823 28.4474 148.352 27.9768C146.881 27.5061 145.368 27.2707 143.812 27.2707C142.992 27.2707 142.186 27.3394 141.395 27.4768C140.604 27.6142 139.834 27.8344 139.085 28.1375C138.513 28.3658 137.976 28.2971 137.474 27.9315C136.972 27.5658 136.721 27.0608 136.721 26.4162V11.1841C136.721 10.794 136.823 10.4324 137.028 10.0991C137.234 9.76575 137.521 9.53343 137.89 9.4021C138.816 8.99394 139.779 8.69793 140.779 8.51407C141.779 8.33021 142.79 8.23828 143.812 8.23828C145.356 8.23828 146.862 8.46049 148.329 8.9049C149.797 9.34957 151.181 9.99623 152.48 10.8449C153.779 9.99623 155.163 9.34957 156.631 8.9049C158.098 8.46049 159.604 8.23828 161.148 8.23828C162.17 8.23828 163.181 8.33021 164.181 8.51407C165.181 8.69793 166.144 8.99394 167.07 9.4021C167.439 9.53343 167.726 9.76575 167.932 10.0991C168.137 10.4324 168.239 10.794 168.239 11.1841V26.4162C168.239 27.0608 167.968 27.5557 167.426 27.9011C166.883 28.2465 166.306 28.3051 165.693 28.0768C164.964 27.794 164.219 27.5888 163.458 27.4614C162.698 27.3343 161.927 27.2707 161.148 27.2707C159.592 27.2707 158.079 27.5061 156.608 27.9768C155.137 28.4474 153.761 29.1213 152.48 29.9983Z" fill="#C4AE95"/>
<defs>
<filter id="filter0_i_3088_100" x="0" y="18.3984" width="303.379" height="189.34" filterUnits="userSpaceOnUse" color-interpolation-filters="sRGB">
<feFlood flood-opacity="0" result="BackgroundImageFix"/>
<feBlend mode="normal" in="SourceGraphic" in2="BackgroundImageFix" result="shape"/>
<feColorMatrix in="SourceAlpha" type="matrix" values="0 0 0 0 0 0 0 0 0 0 0 0 0 0 0 0 0 0 127 0" result="hardAlpha"/>
<feOffset/>
<feGaussianBlur stdDeviation="8.60111"/>
<feComposite in2="hardAlpha" operator="arithmetic" k2="-1" k3="1"/>
<feColorMatrix type="matrix" values="0 0 0 0 0.678431 0 0 0 0 0.509804 0 0 0 0 0.32549 0 0 0 0.25 0"/>
<feBlend mode="normal" in2="shape" result="effect1_innerShadow_3088_100"/>
</filter>
</defs>
</svg>
