<svg width="226" height="224" viewBox="0 0 226 224" fill="none" xmlns="http://www.w3.org/2000/svg">
<path d="M222.057 77.3951C222.427 78.1911 222.21 79.5209 222.46 80.5025C223.48 84.6367 223.432 86.2544 223.972 90.0432C225.102 95.5828 226.829 112.385 222.456 112.334C222.456 112.334 222.456 112.334 222.456 112.334C222.416 112.334 222.375 112.332 222.333 112.329C221.548 112.268 220.68 110.903 219.785 110.72C218.889 110.537 213.154 110.75 212.779 108.983C212.326 106.431 213.207 100.078 212.907 98.6819C212.736 97.7402 212.048 96.6603 211.755 95.4758C210.795 91.6881 210.706 89.5675 208.451 86.5545C208.814 85.0141 209.141 83.4562 209.431 81.8767C208.555 80.2078 208.551 77.2407 208.087 76.1875C207.715 75.3306 206.966 75.0395 206.581 74.1581C206.146 73.1752 206.089 71.3837 205.174 69.6254C203.66 66.7527 201.998 66.9459 200.945 65.3527C199.85 63.707 199.043 60.6024 197.219 58.7481C196.906 58.5709 196.592 58.3958 196.279 58.2229C196.079 58.6209 195.877 59.0173 195.672 59.4118C194.849 58.455 195.211 57.5746 194.573 56.6053C193.819 55.4664 192.807 55.3326 192.279 54.594C191.847 53.9894 191.725 52.818 191.101 52.0667C190.195 50.9746 189.702 51.7549 189.108 51.263C188.897 51.037 184.944 47.113 184.705 46.9167C183.081 45.189 183.789 44.23 182.519 42.7846C178.967 38.7868 174.158 35.947 170.028 33.3773C168.181 32.2224 166.353 30.8921 164.622 29.5714C169.208 28.8936 163.854 22.753 163.843 28.3233C162.113 26.4744 159.969 26.7263 158.058 25.4667C156.815 24.6552 156.187 23.5926 154.248 22.696C150.775 21.0865 146.308 21.3956 146.419 17.8592C142.011 16.8882 138.524 14.7031 136.243 17.2025C135.12 17.0961 132.638 14.7224 131.398 14.2485C130.28 13.6816 120.967 11.6284 119.39 11.5941C117.829 11.4316 115.112 11.276 113.79 11.5259C113.253 11.6226 112.767 12.0137 112.262 12.3767C111.197 13.1375 110.104 13.7633 108.039 11.4018C104.636 11.8551 103.448 11.8535 100.228 11.7919C99.6464 11.7849 99.5149 11.2621 99.1786 11.3042C98.4834 11.3929 97.3737 11.944 96.1537 12.1882C94.1538 12.5894 92.8026 11.7157 93.347 13.3625C92.0954 13.8941 90.8464 14.4525 89.6232 15.0324C89.096 14.8132 88.5653 14.5982 88.0314 14.3874C87.4265 14.9097 86.8281 15.4383 86.2381 15.9724C86.3937 13.3269 81.9364 16.1378 83.9204 17.0532C81.3287 17.285 78.7261 17.6232 76.118 18.0715C75.423 15.2608 70.6734 19.9436 71.822 21.1614C71.5531 21.2784 71.2848 21.3965 71.0172 21.5158C68.3645 21.9009 66.5063 23.5031 63.52 24.5812C60.5261 25.6922 60.6553 25.3347 59.1451 24.7157C58.5368 25.1726 57.9345 25.6357 57.3384 26.1047C56.0466 31.2447 53.0351 25.6686 49.2306 32.0142C46.1161 31.5683 42.6865 36.035 40.6667 39.0115C40.4267 39.3571 40.7267 39.6725 40.4335 40.153C39.7054 41.3087 36.9631 43.4136 38.0863 44.2836C36.9972 44.8686 35.9138 45.4773 34.8363 46.1104C34.4024 47.0102 33.9832 47.9139 33.5799 48.8195C33.9242 49.0915 34.2685 49.3637 34.6128 49.6359C32.2378 50.1773 30.8634 52.9677 29.7221 53.9777C29.4916 54.1791 28.9578 53.8803 28.2908 54.5542C27.5051 55.341 26.5349 57.1325 25.6872 58.1364C25.9863 58.9215 26.2936 59.7005 26.6094 60.4726C25.75 62.6034 23.8286 62.4295 23.0455 63.561C22.8846 63.7542 20.9488 67.779 20.8993 68.0233C20.3397 69.9384 21.8426 70.0245 19.4007 75.0661C18.9755 75.969 18.1977 76.5388 17.8611 77.3857C17.2323 78.8747 16.8856 83.8366 17.862 84.4844C15.9734 85.9207 15.2919 91.0749 14.6396 92.4851C14.4319 92.9091 13.55 92.8367 13.1095 94.2044C12.7425 95.3186 12.9739 98.36 12.6903 99.7864C12.3756 101.305 11.5959 101.795 11.4757 102.481C11.3648 103.134 11.8993 103.79 11.8284 104.682C11.598 107.478 10.573 109.97 10.5528 112.231C10.5525 112.265 10.5524 112.299 10.5525 112.334C10.5639 115.557 12.4249 118.281 13.409 120.808C13.3511 121.469 13.0369 122.141 13.1054 122.83C13.9022 131.332 15.8624 140.81 18.6958 148.969C19.8305 152.763 22.371 162.807 24.6525 158.565C25.7787 159.488 29.6134 168.82 30.8479 170.356C31.9439 171.93 33.4286 172.705 34.3602 173.868C37.1939 177.354 38.9284 180.126 43.2839 183.531C44.4149 184.404 46.0959 184.805 46.7048 185.363C47.437 186.039 47.7141 187.365 48.6846 188.246C50.9746 190.372 55.8049 193.61 58.2469 195.322C58.6885 195.642 58.4612 196.348 59.0081 196.958C61.1363 199.35 64.2462 200.953 64.8016 198.654C67.589 201.667 71.4096 202.173 74.7315 203.465C81.691 206.443 95.1518 210.232 101.86 209.743C106.049 209.513 105.951 208.562 111.995 209.542C112.084 209.555 112.173 209.568 112.262 209.582C113.528 209.772 114.809 209.997 116.348 210.153C120.189 210.55 124.04 212.041 126.639 209.353C130.989 209.305 134.208 208.161 137.818 209.233C138.07 208.683 138.316 208.133 138.556 207.582C139.063 207.43 139.568 207.274 140.071 207.115C140.354 207.497 140.64 207.877 140.927 208.257C144.676 207.284 148.573 203.868 151.469 202.601C156.486 200.727 168.759 194.262 173.086 191.365C175.447 189.93 174.927 189.095 177.402 189.588C177.787 189.084 178.167 188.578 178.541 188.069C178.548 187.491 178.55 186.915 178.547 186.34C181.137 184.009 184.546 181.531 186.776 179.017C190.927 174.475 195.283 166.405 198.885 161.477C199.812 160.248 201.503 158.97 202.177 157.607C203.15 155.619 202.058 154.516 203.147 151.992C205.08 147.707 209.496 139.751 210.319 135.214C210.587 133.886 210.181 133.15 210.308 132.231C210.821 128.379 211.32 125.198 210.822 121.432C212.555 117.597 214.301 117.984 216.205 116.799C217.643 115.912 220.907 112.866 222.11 112.388C222.964 112.066 224.057 113.271 224.998 112.824C225.687 118.254 224.678 120.557 222.921 124.724C222.091 132.7 220.394 140.595 217.859 148.217C217.139 148.744 216.415 149.259 215.689 149.761C215.688 149.76 215.687 149.76 215.686 149.759C214.089 152.406 214.814 154.069 214.447 155.718C211.724 172.155 189.327 196.465 174.03 204.918C170.98 207.108 160.453 213.588 157.671 213.732C156.971 213.807 156.484 213.159 155.824 213.407C150.231 216.333 144.347 218.79 138.253 220.729C129.688 221.948 121.028 223.134 112.262 223.392C107.698 223.527 103.155 223.413 98.6556 222.93C63.0092 219.366 29.9303 197.176 13.3626 165.714C10.1014 159.709 6.18194 151.841 4.62175 145.268C3.9691 142.532 4.86928 141.095 3.10617 137.769C3.43042 137.654 3.75477 137.539 4.07921 137.425C2.97472 134.419 1.81654 132.568 1.1924 129.012C0.605489 126.051 -0.11891 118.027 0.0164218 115.369C0.0496674 113.981 0.697713 114.486 0.680205 113.198C0.677059 112.942 0.662756 112.652 0.640772 112.334C0.459664 109.916 -0.0825071 105.904 0.150036 103.192C0.348168 100.431 1.67839 95.8928 1.94308 93.7939C2.80693 86.2265 3.99008 77.7488 7.35174 70.2024C8.26768 68.1199 10.2239 65.7975 10.5022 65.1574C11.0402 63.8908 10.498 63.172 10.8184 62.2855C12.4172 57.7589 17.031 51.8427 19.7327 48.1125C28.39 35.7814 39.9724 24.3117 52.8726 16.5319C60.8586 11.3782 75.5078 5.08717 84.2072 3.72715C86.0601 3.39336 85.7821 4.37116 87.3058 4.01409C88.996 3.6281 89.8079 2.86099 90.5952 2.65565C95.5405 1.24567 106.289 -0.402197 112.262 0.0874877C112.868 0.12414 113.422 0.174721 113.914 0.237856C114.934 0.369814 115.649 1.08257 116.251 1.10102C116.556 1.11197 117.263 0.665526 118.23 0.668089C126.782 0.747798 132.984 2.01185 141.032 4.25918C156.422 8.5118 173.711 16.5691 186.04 28.1873C188.737 30.6947 189.548 33.4474 189.918 33.7875C190.727 34.5554 191.893 34.4075 193.631 35.9163C199.469 40.9282 204.844 49.8107 208.817 55.8371C210.833 58.7898 214.146 62.6687 215.836 65.8423C217.256 68.3547 219.211 74.8256 220.056 75.8734C220.595 76.5056 221.653 76.5377 222.057 77.3951ZM152.489 21.0524C153.545 19.7587 148.665 19.1462 149.978 20.6168C150.268 20.9381 152.216 21.3776 152.489 21.0524ZM12.2243 134.696C12.6576 134.554 13.091 134.413 13.5246 134.272C13.2053 133.702 12.8899 133.123 12.5809 132.546C12.3828 132.944 12.1884 133.35 11.9957 133.756C12.0705 134.07 12.1466 134.383 12.2243 134.696Z" fill="#121818"/>
</svg>
