<svg width="167" height="162" viewBox="0 0 167 162" fill="none" xmlns="http://www.w3.org/2000/svg">
<path d="M71.1025 7.73633C78.5791 3.44771 87.7695 3.44773 95.2461 7.73633L107.525 14.7793C109.566 15.9496 111.757 16.8346 114.038 17.4082L127.548 20.8047C136.104 22.956 142.818 29.5824 145.082 38.1094L148.429 50.7168C149.056 53.0781 150.016 55.338 151.281 57.4277L157.915 68.3818C162.593 76.1072 162.593 85.7922 157.915 93.5176L151.281 104.472C150.016 106.561 149.056 108.821 148.429 111.183L145.082 123.79C142.818 132.317 136.104 138.943 127.548 141.095L114.038 144.492C111.757 145.066 109.566 145.95 107.525 147.12L95.2461 154.164C87.7696 158.453 78.579 158.453 71.1025 154.164L58.8232 147.12C56.7831 145.95 54.5915 145.066 52.3105 144.492L38.8008 141.095C30.2447 138.943 23.5301 132.317 21.2666 123.79L17.9199 111.183C17.2931 108.821 16.3328 106.561 15.0674 104.472L8.43359 93.5176C3.75534 85.7922 3.7553 76.1072 8.43359 68.3818L15.0674 57.4277C16.3329 55.338 17.2931 53.0781 17.9199 50.7168L21.2666 38.1094C23.5302 29.5823 30.2447 22.956 38.8008 20.8047L52.3105 17.4082C54.5916 16.8346 56.783 15.9496 58.8232 14.7793L71.1025 7.73633Z" fill="#393C29" stroke="#AF7840" stroke-width="1.40783"/>
<path d="M71.0488 13.1416C78.5528 8.81171 87.7968 8.81171 95.3008 13.1416L105.538 19.0488C107.584 20.2291 109.783 21.1211 112.072 21.7002L123.351 24.5527C131.904 26.7162 138.609 33.3529 140.86 41.8838L143.662 52.501C144.283 54.8535 145.235 57.1059 146.49 59.1904L152.053 68.4316C156.687 76.1302 156.687 85.7594 152.053 93.458L146.49 102.699C145.235 104.784 144.283 107.036 143.662 109.389L140.86 120.006C138.609 128.537 131.904 135.173 123.351 137.336L112.072 140.188C109.783 140.768 107.584 141.66 105.538 142.841L95.3008 148.748C87.7968 153.078 78.5528 153.078 71.0488 148.748L60.8115 142.841C58.7658 141.66 56.5671 140.768 54.2773 140.188L42.999 137.336C34.4456 135.173 27.7406 128.537 25.4893 120.006L22.6875 109.389C22.0667 107.036 21.1143 104.784 19.8594 102.699L14.2959 93.458C9.66151 85.7596 9.66161 76.1301 14.2959 68.4316L19.8594 59.1904C21.1143 57.1059 22.0666 54.8535 22.6875 52.501L25.4893 41.8838C27.7405 33.3529 34.4455 26.7162 42.999 24.5527L54.2773 21.7002C56.567 21.121 58.7659 20.2291 60.8115 19.0488L71.0488 13.1416Z" stroke="#AF7840" stroke-width="1.40783"/>
</svg>
