<svg width="96" height="96" viewBox="0 0 96 96" fill="none" xmlns="http://www.w3.org/2000/svg">
<path d="M43.3359 4.7041C45.9634 2.25306 50.0396 2.25296 52.667 4.7041C54.7066 6.60694 57.6472 7.1922 60.2598 6.21484C63.6251 4.95574 67.3914 6.51524 68.8809 9.78516C70.0371 12.3238 72.5305 13.9902 75.3184 14.0869C78.9092 14.2117 81.7913 17.0937 81.916 20.6846C82.0127 23.4723 83.6783 25.9658 86.2168 27.1221C89.4867 28.6114 91.0469 32.3769 89.7881 35.7422C88.8106 38.3548 89.3959 41.2962 91.2988 43.3359C93.7497 45.9633 93.7498 50.0397 91.2988 52.667C89.396 54.7067 88.8107 57.6472 89.7881 60.2598C91.0472 63.6252 89.4869 67.3915 86.2168 68.8809C83.6784 70.0372 82.0127 72.5306 81.916 75.3184C81.7912 78.9091 78.9091 81.7912 75.3184 81.916C72.5306 82.0127 70.0372 83.6784 68.8809 86.2168C67.3915 89.4869 63.6252 91.0472 60.2598 89.7881C57.6472 88.8107 54.7067 89.396 52.667 91.2988C50.0397 93.7498 45.9633 93.7497 43.3359 91.2988C41.2962 89.3959 38.3548 88.8106 35.7422 89.7881C32.3769 91.0469 28.6114 89.4867 27.1221 86.2168C25.9658 83.6783 23.4723 82.0127 20.6846 81.916C17.0937 81.7913 14.2117 78.9092 14.0869 75.3184C13.9902 72.5305 12.3238 70.0371 9.78516 68.8809C6.51524 67.3914 4.95574 63.6251 6.21484 60.2598C7.1922 57.6472 6.60694 54.7066 4.7041 52.667C2.25296 50.0396 2.25306 45.9634 4.7041 43.3359C6.60701 41.2962 7.19234 38.3548 6.21484 35.7422C4.95598 32.3769 6.51542 28.6115 9.78516 27.1221C12.3238 25.9658 13.9902 23.4724 14.0869 20.6846C14.2116 17.0936 17.0936 14.2116 20.6846 14.0869C23.4724 13.9902 25.9658 12.3238 27.1221 9.78516C28.6115 6.51542 32.3769 4.95597 35.7422 6.21484C38.3548 7.19234 41.2962 6.60701 43.3359 4.7041Z" fill="#C1A78C" stroke="#2D2D1D" stroke-width="0.5143"/>
<path d="M43.7998 7.93652C46.1666 5.72871 49.8383 5.72864 52.2051 7.93652C54.1517 9.75262 56.9587 10.3108 59.4521 9.37793C62.4837 8.24389 65.8761 9.64913 67.2178 12.5947C68.3213 15.0175 70.7007 16.6079 73.3613 16.7002C76.5962 16.8125 79.1924 19.4087 79.3047 22.6436C79.397 25.3042 80.9874 27.6836 83.4102 28.7871C86.3556 30.1289 87.761 33.5212 86.627 36.5527C85.6941 39.0462 86.2523 41.8531 88.0684 43.7998C90.276 46.1666 90.2761 49.8384 88.0684 52.2051C86.2523 54.1517 85.6941 56.9587 86.627 59.4521C87.7609 62.4836 86.3556 65.8761 83.4102 67.2178C80.9873 68.3213 79.397 70.7007 79.3047 73.3613C79.1924 76.5961 76.5961 79.1924 73.3613 79.3047C70.7007 79.397 68.3213 80.9873 67.2178 83.4102C65.8761 86.3556 62.4836 87.7609 59.4521 86.627C56.9587 85.6941 54.1517 86.2523 52.2051 88.0684C49.8384 90.2761 46.1666 90.276 43.7998 88.0684C41.8531 86.2523 39.0462 85.6941 36.5527 86.627C33.5212 87.761 30.1289 86.3556 28.7871 83.4102C27.6836 80.9874 25.3042 79.397 22.6436 79.3047C19.4087 79.1924 16.8125 76.5962 16.7002 73.3613C16.6079 70.7007 15.0175 68.3213 12.5947 67.2178C9.64913 65.8761 8.24389 62.4837 9.37793 59.4521C10.3108 56.9587 9.75262 54.1517 7.93652 52.2051C5.72864 49.8383 5.72871 46.1666 7.93652 43.7998C9.75262 41.8531 10.3108 39.0462 9.37793 36.5527C8.24377 33.5212 9.64913 30.1288 12.5947 28.7871C15.0175 27.6836 16.6079 25.3042 16.7002 22.6436C16.8124 19.4086 19.4086 16.8124 22.6436 16.7002C25.3042 16.6079 27.6836 15.0175 28.7871 12.5947C30.1288 9.64913 33.5212 8.24377 36.5527 9.37793C39.0462 10.3108 41.8531 9.75262 43.7998 7.93652Z" stroke="#2D2D1D" stroke-width="0.857166"/>
</svg>
