<svg width="167" height="162" viewBox="0 0 167 162" fill="none" xmlns="http://www.w3.org/2000/svg">
<path d="M71.1025 7.73633C78.5791 3.44771 87.7695 3.44773 95.2461 7.73633L107.525 14.7793C109.566 15.9496 111.757 16.8346 114.038 17.4082L127.548 20.8047C136.104 22.956 142.818 29.5824 145.082 38.1094L148.429 50.7168C149.056 53.0781 150.016 55.338 151.281 57.4277L157.915 68.3818C162.593 76.1072 162.593 85.7922 157.915 93.5176L151.281 104.472C150.016 106.561 149.056 108.821 148.429 111.183L145.082 123.79C142.818 132.317 136.104 138.943 127.548 141.095L114.038 144.492C111.757 145.066 109.566 145.95 107.525 147.12L95.2461 154.164C87.7696 158.453 78.579 158.453 71.1025 154.164L58.8232 147.12C56.7831 145.95 54.5915 145.066 52.3105 144.492L38.8008 141.095C30.2447 138.943 23.5301 132.317 21.2666 123.79L17.9199 111.183C17.2931 108.821 16.3328 106.561 15.0674 104.472L8.43359 93.5176C3.75534 85.7922 3.7553 76.1072 8.43359 68.3818L15.0674 57.4277C16.3329 55.338 17.2931 53.0781 17.9199 50.7168L21.2666 38.1094C23.5302 29.5823 30.2447 22.956 38.8008 20.8047L52.3105 17.4082C54.5916 16.8346 56.783 15.9496 58.8232 14.7793L71.1025 7.73633Z" fill="#C1A78C" fill-opacity="0.85" stroke="#621B14" stroke-width="1.40783"/>
<path d="M71.0488 12.8096C78.5528 8.47967 87.7968 8.47967 95.3008 12.8096L105.538 18.7168C107.584 19.8971 109.783 20.789 112.072 21.3682L123.351 24.2207C131.904 26.3842 138.609 33.0209 140.86 41.5518L143.662 52.1689C144.283 54.5215 145.235 56.7739 146.49 58.8584L152.053 68.0996C156.687 75.7982 156.687 85.4274 152.053 93.126L146.49 102.367C145.235 104.452 144.283 106.704 143.662 109.057L140.86 119.674C138.609 128.205 131.904 134.84 123.351 137.004L112.072 139.856C109.783 140.436 107.584 141.328 105.538 142.509L95.3008 148.416C87.7968 152.746 78.5528 152.746 71.0488 148.416L60.8115 142.509C58.7658 141.328 56.5671 140.436 54.2773 139.856L42.999 137.004C34.4456 134.84 27.7406 128.205 25.4893 119.674L22.6875 109.057C22.0667 106.704 21.1143 104.452 19.8594 102.367L14.2959 93.126C9.66151 85.4276 9.66161 75.798 14.2959 68.0996L19.8594 58.8584C21.1143 56.7739 22.0666 54.5215 22.6875 52.1689L25.4893 41.5518C27.7405 33.0209 34.4455 26.3842 42.999 24.2207L54.2773 21.3682C56.567 20.789 58.7659 19.8971 60.8115 18.7168L71.0488 12.8096Z" stroke="#621B14" stroke-width="1.40783"/>
</svg>
