<svg width="55" height="55" viewBox="0 0 55 55" fill="none" xmlns="http://www.w3.org/2000/svg">
<path d="M48.0215 14.0068C45.4881 14.0068 43.0549 14.4954 40.7305 15.4727C38.4092 16.4486 36.3502 17.8353 34.5586 19.627C32.7669 21.4186 31.3912 23.4666 30.4395 25.7666C29.4879 28.0662 29.0137 30.485 29.0137 33.0146V34.0146H30.0137C32.543 34.0146 34.9614 33.5393 37.2607 32.5879C39.5608 31.6361 41.6097 30.2614 43.4014 28.4697C45.193 26.6781 46.5787 24.6181 47.5547 22.2969C48.5319 19.9726 49.0215 17.5401 49.0215 15.0068V14.0068H48.0215ZM5.00293 6.00293C5.00296 8.5324 5.47775 10.962 6.42773 13.2842C7.379 15.6095 8.7543 17.6723 10.5479 19.4658C12.3413 21.2592 14.4034 22.6347 16.7285 23.5859C19.0509 24.536 21.4811 25.0107 24.0107 25.0107H25.0107V24.0107C25.0107 21.4774 24.5218 19.0555 23.543 16.7539C22.5666 14.458 21.1803 12.4128 19.3906 10.623C17.6009 8.83333 15.5556 7.44714 13.2598 6.4707C10.9582 5.49187 8.53625 5.00297 6.00293 5.00293H5.00293V6.00293ZM25.0107 29.0879H24.0107C20.9407 29.0879 17.9946 28.5011 15.165 27.3262C12.3344 26.1507 9.84346 24.486 7.68555 22.3281C5.52901 20.1716 3.87783 17.6823 2.72754 14.8545C1.57602 12.0236 1.00003 9.07562 1 6.00293V1H6.00293C9.02072 1.00004 11.942 1.58596 14.7734 2.76172C17.604 3.93716 20.0951 5.60196 22.2529 7.75977C23.7399 9.24677 24.9707 10.8736 25.9492 12.6396C26.9332 14.4155 27.691 16.3137 28.2207 18.3359L28.7607 20.4004L30.002 18.6641C30.2271 18.3489 30.4755 18.0433 30.748 17.748C31.0381 17.4338 31.3545 17.1064 31.6963 16.7646C33.8543 14.6067 36.345 12.9411 39.1758 11.7656C42.0052 10.5907 44.9515 10.0039 48.0215 10.0039H53.0234V15.0068C53.0234 18.0768 52.4367 21.0231 51.2617 23.8525C50.0862 26.6831 48.4215 29.1742 46.2637 31.332C44.1057 33.49 41.6281 35.1411 38.8252 36.291C36.021 37.4415 33.0864 38.0175 30.0137 38.0176H29.0137V53.0234H25.0107V29.0879Z" fill="#C4AE95" stroke="#311A0E" stroke-width="2"/>
</svg>
