<svg width="137" height="16" viewBox="0 0 137 16" fill="none" xmlns="http://www.w3.org/2000/svg">
<line y1="7.11523" x2="46.8209" y2="7.11523" stroke="#C4AE95"/>
<line x1="90.0409" y1="7.11523" x2="136.862" y2="7.11523" stroke="#C4AE95"/>
<path d="M68.9304 16L67.6979 14.8665C66.2671 13.544 65.0842 12.4033 64.1492 11.4441C63.2142 10.485 62.4704 9.62398 61.9179 8.86103C61.3654 8.09809 60.9794 7.39691 60.7598 6.75749C60.5402 6.11807 60.4304 5.46412 60.4304 4.79564C60.4304 3.42961 60.8767 2.28883 61.7692 1.3733C62.6617 0.457766 63.7738 0 65.1054 0C65.8421 0 66.5433 0.159855 67.2092 0.479564C67.875 0.799273 68.4488 1.24977 68.9304 1.83106C69.4121 1.24977 69.9858 0.799273 70.6517 0.479564C71.3175 0.159855 72.0188 0 72.7554 0C74.0871 0 75.1992 0.457766 76.0917 1.3733C76.9842 2.28883 77.4304 3.42961 77.4304 4.79564C77.4304 5.46412 77.3206 6.11807 77.101 6.75749C76.8815 7.39691 76.4954 8.09809 75.9429 8.86103C75.3904 9.62398 74.6467 10.485 73.7117 11.4441C72.7767 12.4033 71.5938 13.544 70.1629 14.8665L68.9304 16ZM68.9304 13.6458C70.2904 12.396 71.4096 11.3242 72.2879 10.4305C73.1663 9.53678 73.8604 8.75931 74.3704 8.09809C74.8804 7.43687 75.2346 6.84832 75.4329 6.33242C75.6313 5.81653 75.7304 5.30427 75.7304 4.79564C75.7304 3.92371 75.4471 3.19709 74.8804 2.6158C74.3138 2.03451 73.6054 1.74387 72.7554 1.74387C72.0896 1.74387 71.4733 1.93642 70.9067 2.32153C70.34 2.70663 69.9504 3.19709 69.7379 3.79291H68.1229C67.9104 3.19709 67.5208 2.70663 66.9542 2.32153C66.3875 1.93642 65.7713 1.74387 65.1054 1.74387C64.2554 1.74387 63.5471 2.03451 62.9804 2.6158C62.4138 3.19709 62.1304 3.92371 62.1304 4.79564C62.1304 5.30427 62.2296 5.81653 62.4279 6.33242C62.6263 6.84832 62.9804 7.43687 63.4904 8.09809C64.0004 8.75931 64.6946 9.53678 65.5729 10.4305C66.4513 11.3242 67.5704 12.396 68.9304 13.6458Z" fill="#C4AE95"/>
</svg>
