<svg width="45" height="45" viewBox="0 0 45 45" fill="none" xmlns="http://www.w3.org/2000/svg">
<g clip-path="url(#clip0_2743_172)">
<path d="M42.7404 5.57533C40.9609 6.83058 38.9906 7.79065 36.9054 8.41856C35.7862 7.13169 34.2988 6.21959 32.6444 5.80562C30.99 5.39165 29.2483 5.49578 27.655 6.10393C26.0617 6.71208 24.6936 7.79491 23.7357 9.20596C22.7779 10.617 22.2765 12.2882 22.2993 13.9935V15.8518C19.0337 15.9365 15.7977 15.2122 12.8797 13.7435C9.96175 12.2747 7.45228 10.1071 5.57483 7.43365C5.57483 7.43365 -1.85828 24.1585 14.8662 31.5918C11.0391 34.1897 6.4801 35.4923 1.85828 35.3085C18.5828 44.6001 39.0238 35.3085 39.0238 13.9378C39.0221 13.4201 38.9723 12.9038 38.8752 12.3954C40.7717 10.525 42.1101 8.16343 42.7404 5.57533Z" stroke="#C4AE95" stroke-width="4" stroke-linecap="round" stroke-linejoin="round"/>
</g>
<defs>
<clipPath id="clip0_2743_172">
<rect width="44.5987" height="44.5997" fill="white"/>
</clipPath>
</defs>
</svg>
